<?xml version="1.0" encoding="utf-8"?>
<!-- Generator: Adobe Illustrator 22.0.1, SVG Export Plug-In . SVG Version: 6.00 Build 0)  -->
<svg version="1.1" id="Layer_1" xmlns="http://www.w3.org/2000/svg" xmlns:xlink="http://www.w3.org/1999/xlink" x="0px" y="0px"
	 viewBox="0 0 64 64" style="enable-background:new 0 0 64 64;" xml:space="preserve">
<g>
	<path d="M35.8,6.9c-3.8,0-7.7,0.8-10.7,2c-0.3,0.1-0.5,0.4-0.5,0.7c0,0.3,0.1,0.8,0.3,1.3c0.2,0.5,0.7,1.7,1.6,1.3
		c3-1.1,6.3-1.8,9.3-1.8c3.4,0,6.7,0.7,9.9,2c2.5,1.1,4.8,2.6,7.4,4.8c0.2,0.2,0.4,0.2,0.6,0.2c0.5,0,1-0.5,1.4-0.9
		c0.7-0.8,1.1-1.4,0.5-2c-2.4-2.3-5.1-4-8.4-5.4C43.5,7.6,39.7,6.9,35.8,6.9z"/>
	<path d="M15.8,42.1c0,0,0.3,1,0.5,1.4c1.1,2.5,2.6,4.7,4.5,6.7c1.9,1.9,4.2,3.4,6.7,4.5c2.6,1.1,5.3,1.6,8.2,1.6s5.6-0.6,8.2-1.6
		c2.5-1.1,4.7-2.6,6.7-4.5c1.9-1.9,3.4-4.2,4.5-6.7c1.1-2.6,1.6-5.3,1.6-8.2s-0.6-5.6-1.6-8.2c-1.1-2.5-2.6-4.7-4.5-6.7
		c-1.9-1.9-4.2-3.4-6.7-4.5c-2.6-1.1-5.3-1.6-8.2-1.6c-2.9,0-5.7,0.6-8.3,1.6c-2,0.9-5.5,3.1-7.5,5.2l0,0V3.9h29
		c1.1,0,1.1-1.5,1.1-2s0-2-1.1-2L17.5,0c-0.9,0-1.4,0.7-1.4,1.4v24.3c0,0.8,1,1.3,1.9,1.5c1.8,0.4,2.2-0.2,2.6-0.8l0.1-0.1
		c0.7-1,2.7-3.1,2.7-3.1c3.2-3.2,7.5-5,12.1-5c4.6,0,8.9,1.8,12.1,5c3.2,3.2,5,7.5,5,12.1c0,4.6-1.8,8.9-5,12.1
		c-3.2,3.2-7.6,5-12.2,5c-3.1,0-6.1-0.8-8.6-2.4l0-14.8c0-2,0.9-4.1,2.3-5.7c1.6-1.8,3.9-2.9,6.3-2.9c2.4,0,4.6,0.9,6.3,2.5
		c1.6,1.6,2.5,3.8,2.5,6.1c0,4.9-3.9,8.8-8.8,8.8c-1,0-2.7-0.4-2.8-0.4c-1-0.3-1.4,1.1-1.6,1.5c-0.5,1.8,0.3,2.1,0.4,2.2
		c1.6,0.5,2.6,0.6,4,0.6c7,0,12.7-5.7,12.7-12.7c0-6.9-5.7-12.6-12.7-12.6c-3.4,0-6.6,1.3-9,3.7c-2.3,2.3-3.6,5.3-3.6,8.3v0.1
		c0,0.4,0,9.2,0,12.1l0,0c-1.3-1.5-2.6-3.7-3.5-6c-0.3-0.9-1.1-0.7-2.1-0.4C16.9,40.6,15.5,41,15.8,42.1L15.8,42.1z"/>
	<path d="M56,53.2L56,53.2c-0.5-0.5-0.8-0.7-1.2-0.8c-0.3-0.1-0.6,0-0.9,0.2l-0.2,0.2c-2.3,2.3-5,4.2-8,5.4c-3.1,1.3-6.4,2-9.9,2
		c-3.4,0-6.7-0.7-9.9-2c-3-1.3-5.7-3.1-8-5.4c-2.4-2.4-4.2-5.1-5.4-8c-1.1-2.8-1.5-5-1.6-5.7c0-0.1,0-0.1,0-0.2
		c-0.2-0.8-0.9-0.9-2-0.7c-0.5,0.1-1.8,0.3-1.7,1.3v0c0.4,2.3,1,4.6,1.9,6.7c1.5,3.5,3.6,6.6,6.2,9.2c2.7,2.7,5.8,4.8,9.2,6.2
		c3.6,1.5,7.4,2.3,11.3,2.3s7.7-0.8,11.3-2.3c3.5-1.5,6.6-3.6,9.2-6.2c0,0,0.2-0.2,0.2-0.2C56.9,54.9,57.2,54.4,56,53.2z"/>
	<path d="M30.7,38.6c0,0.4,0.4,0.8,0.6,1l0.1,0.1c0.4,0.4,0.8,0.6,1.1,0.6c0.3,0,0.5-0.1,0.5-0.2c0.2-0.2,2.2-2.2,2.3-2.4l2.2,2.2
		c0.2,0.2,0.4,0.3,0.7,0.4c0.4,0,0.7-0.2,1.1-0.6c1-1,0.5-1.5,0.2-1.8l-2.2-2.2l2.3-2.4c0.5-0.6,0.1-1.1-0.4-1.6
		c-0.7-0.7-1.3-0.8-1.7-0.5l-2.3,2.3L33,31.2c-0.1-0.1-0.3-0.2-0.5-0.2c-0.3,0-0.7,0.2-1.1,0.6c-0.7,0.7-0.9,1.2-0.5,1.6l2.3,2.3
		L31,38C30.8,38.2,30.7,38.4,30.7,38.6z"/>
</g>
</svg>
