<?xml version="1.0" encoding="utf-8"?>
<!-- Generator: Adobe Illustrator 23.0.0, SVG Export Plug-In . SVG Version: 6.00 Build 0)  -->
<svg version="1.1" id="Layer_2_1_" xmlns="http://www.w3.org/2000/svg" xmlns:xlink="http://www.w3.org/1999/xlink" x="0px" y="0px"
	 viewBox="0 0 64 64" style="enable-background:new 0 0 64 64;" xml:space="preserve">
<path d="M48,0H16c-2.9,0-5.3,2.4-5.3,5.3v48c0,2.9,2.4,5.3,5.3,5.3V64l2.7-2.1l2.7,2.1v-5.3H48c2.9,0,5.3-2.4,5.3-5.3v-48
	C53.3,2.4,50.9,0,48,0z M42.7,5.3H48V16h-5.3V5.3z M42.7,21.3H48v13.3h-5.3V21.3z M37.3,53.3H16V40h21.3V53.3z M37.3,34.7H16V21.3
	h21.3V34.7z M37.3,16H16V5.3h21.3V16z M42.7,53.3V40H48v13.3H42.7z"/>
</svg>
