<?xml version="1.0" encoding="utf-8"?>
<!-- Generator: Adobe Illustrator 22.0.1, SVG Export Plug-In . SVG Version: 6.00 Build 0)  -->
<svg version="1.1" id="Layer_1" xmlns="http://www.w3.org/2000/svg" xmlns:xlink="http://www.w3.org/1999/xlink" x="0px" y="0px"
	 viewBox="0 0 64 64" style="enable-background:new 0 0 64 64;" xml:space="preserve">
<path d="M32,48.7c-3.6-4.5-5.7-8.5-6.4-11.9c-3.2-12.6,16.1-12.6,12.9,0C37.7,40.3,35.5,44.3,32,48.7L32,48.7z M51.7,59.2
	c-6,2.6-12-1.6-17-7.2c14.8-18.6,6.6-28.6-2.7-28.6c-7.8,0-12.2,6.6-10.5,14.4c1,4.2,3.6,8.9,7.8,14.2c-4.6,5.1-8.6,7.5-12.2,7.8
	C10,60.9,4.4,54,7,46.8c2.2-5.6,16-33,16.6-34.5C25.8,8,27.2,4.1,32,4.1c4.6,0,6.2,3.7,8.6,8.6C45.8,22.7,53.4,38,57,46.8
	C58.9,51.5,56.8,57,51.7,59.2L51.7,59.2z M58.5,39.7C40,0.6,39,0,32,0c-6.5,0-9.3,4.5-12.1,10.4C4.7,40.7,3.3,45,3.1,45.4
	C-0.5,55.3,7,64,15.9,64c3.1,0,8.7-0.9,16.1-8.9c8.4,9.1,14.5,8.9,16.1,8.9c9,0,16.4-8.7,12.8-18.6C60.9,44.8,58.5,39.8,58.5,39.7
	L58.5,39.7z"/>
</svg>
