<?xml version="1.0" encoding="utf-8"?>
<!-- Generator: Adobe Illustrator 22.0.1, SVG Export Plug-In . SVG Version: 6.00 Build 0)  -->
<svg version="1.1" id="Layer_2_1_" xmlns="http://www.w3.org/2000/svg" xmlns:xlink="http://www.w3.org/1999/xlink" x="0px" y="0px"
	 viewBox="0 0 64 64" style="enable-background:new 0 0 64 64;" xml:space="preserve">
<path d="M58.7,53.3l-2.1-3.2c-0.3-0.5-0.5-1.1-0.5-1.6V27.2c0-6.1-2.7-11.7-7.5-16C44.8,7.5,40,5.3,34.7,4.8V2.7
	C34.7,1.1,33.6,0,32,0s-2.7,1.1-2.7,2.7v2.1h-0.3C17.1,6.1,8,16,8,27.5v20.8c0,1.1-0.1,1.1-0.4,1.7l-2,3.4c-0.8,1.1-0.8,2.7,0,3.7
	c0.5,1.1,1.9,1.6,2.9,1.6h20.8v2.7c0,1.5,1.2,2.7,2.6,2.7c1.5,0,2.7-1.2,2.7-2.7v-2.7h20.8c1.3,0,2.4-0.5,3.2-1.6
	C59.2,55.7,59.2,54.4,58.7,53.3z M11.7,53.3l0.5-0.8c0.5-1.1,1.1-2.4,1.1-3.7V27.5c0-8.8,6.9-16.3,16.3-17.3
	c5.6-0.5,11.2,1.1,15.5,4.8c3.7,3.2,5.6,7.5,5.6,12.3v21.3c0,1.6,0.5,3.2,1.3,4.5l0.3,0.3H11.7z"/>
</svg>
