<?xml version="1.0" encoding="utf-8"?>
<!-- Generator: Adobe Illustrator 22.0.1, SVG Export Plug-In . SVG Version: 6.00 Build 0)  -->
<svg version="1.1" id="Layer_1" xmlns="http://www.w3.org/2000/svg" xmlns:xlink="http://www.w3.org/1999/xlink" x="0px" y="0px"
	 viewBox="0 0 64 64" style="enable-background:new 0 0 64 64;" xml:space="preserve">
<g>
	<path d="M24.7,38.1L24.7,38.1c1.3,1.5,2.9,2.2,4.7,2.2c0.2,0,0.5,0,1-0.1l0.4-0.1c2.1-0.5,3.8-1.9,4.9-3.9c0.5-0.9,0.9-1.8,1.1-2.7
		c0.2-0.8,0.4-1.6,0.4-2.4v-6h-2.5c-2.3,0-4,0.2-5.1,0.5c-4.1,1.1-6.3,3.9-6.3,7.8C23.1,35.3,23.6,36.9,24.7,38.1z M30.7,30.5
		c0.2-0.1,0.6-0.1,1.3-0.2v0.9c0,0.3-0.1,0.7-0.2,1.2c-0.1,0.4-0.3,0.9-0.6,1.4c-0.5,0.9-1.1,1.2-1.5,1.4c-0.1,0-0.3,0-0.5,0.1
		c-0.3,0-0.5-0.1-0.7-0.4c-0.3-0.4-0.4-0.8-0.4-1.4C28.1,32.1,28.5,31.1,30.7,30.5z"/>
	<path d="M14.9,24.9c-1.8,2.5-2.6,5.5-2.6,9c0,4.5,1.4,8,4,10.4c2.6,2.4,6,3.7,10,3.7c2.4,0,4.5-0.3,6.2-0.8
		c2.1-0.6,4.2-1.8,6.2-3.5c0.2,0.2,0.3,0.4,0.5,0.5c0.1,0.1,0.1,0.1,0.2,0.2c0.2,0.2,0.5,0.5,0.8,0.8c0.5,0.5,1,1,1.7,1.6l0.2,0.2
		l0.3,0.1c0.6,0.3,1.3,0.5,2,0.5c0.9,0,1.7-0.3,2.5-0.8c0.2-0.2,0.6-0.4,1.7-1.4c1-0.8,2.4-2,4.2-3.5c1-0.7,1.6-1.7,1.6-2.9
		c0-0.7-0.3-1.5-0.7-2.3l-0.2-0.3c-0.7-0.9-1.2-1.5-1.5-2c0,0-0.2-0.3-0.5-1.2C51.1,32.6,51,31.9,51,31V15.5c0-0.7,0-1.4-0.1-1.8
		c-0.1-1.4-0.2-1.9-0.3-2.2l-0.1-0.2c0,0-0.1-0.4-0.3-1.2L50,9.4c-0.2-0.6-0.4-1.1-0.7-1.7c-0.3-0.4-0.6-0.9-1-1.5
		c-0.5-0.6-0.9-1.2-1.5-1.7l-0.1-0.1C43.5,1.5,39,0,33.4,0l-1.8,0c-4.3,0.2-8.1,1.3-11.4,3.4c-3.4,2.2-5.6,5.5-6.5,9.8
		c-0.2,0.5-0.2,0.9-0.2,1.2c0,1.5,0.8,3.2,3.2,3.6l6.7,0.8c-0.5,0.2-0.9,0.3-1.3,0.5C19.1,20.6,16.6,22.4,14.9,24.9z M32,22
		c1-0.1,2.4-0.2,4.4-0.4l3.5-0.3v-3.4c0-3.4-0.4-5.5-1.4-6.9c-1-1.4-2.9-3-6.4-3h-0.7l-0.1,0c-1.9,0.2-3.5,0.8-4.9,1.8
		c-1.4,1-2.4,2.4-2.9,4.1l-4.8-0.6c0.7-2.5,2.1-4.4,4.1-5.7C25.4,6,28.4,5.1,31.7,5h1.7c4.4,0,7.6,1,10,3.1c0.3,0.3,0.6,0.7,0.9,1.1
		c0.3,0.5,0.6,0.8,0.8,1.1c0,0.1,0.1,0.4,0.2,0.6c0,0.1,0.1,0.3,0.1,0.4c0.2,0.7,0.3,1.2,0.4,1.5c0,0.1,0.1,0.5,0.2,1.3
		c0,0.4,0.1,0.9,0.1,1.4V31c0,1.4,0.2,2.7,0.6,3.8c0.4,1.3,0.9,2.1,1.4,2.8c0.2,0.3,0.5,0.6,0.8,1c-1.5,1.2-2.6,2.2-3.5,2.9
		c-0.4,0.3-0.7,0.6-0.9,0.8c-0.3-0.3-0.5-0.5-0.8-0.8c-0.2-0.2-0.4-0.4-0.6-0.6c-0.2-0.2-0.3-0.3-0.4-0.5c0,0-0.2-0.2-0.7-0.9
		l-0.1-0.1c-0.4-0.5-0.7-0.9-0.8-1.1l-1.8-2.6l-2.1,2.3c-2.1,2.2-4.1,3.6-6.1,4.2c-1.3,0.4-2.9,0.6-4.8,0.6c-2.7,0-4.9-0.8-6.6-2.4
		c-1.6-1.5-2.4-3.7-2.4-6.7c0-2.4,0.6-4.5,1.7-6.1c1.2-1.6,2.8-2.9,5-3.7l0,0C26.2,23.1,28.9,22.4,32,22z M27.3,17.8
		c0.5-0.6,0.9-1.3,1.1-2.2c0.2-0.7,0.5-1.3,1-1.6c0.7-0.5,1.5-0.8,2.4-0.9h0.4c1.5,0,2,0.5,2.3,0.8c0,0,0.4,0.6,0.5,2.9
		c-1.5,0.1-2.7,0.2-3.6,0.3C30,17.2,28.6,17.5,27.3,17.8z"/>
	<path d="M56.9,55c-0.3-0.5-0.8-0.6-1.3-0.4c-0.2,0.1-0.4,0.2-0.8,0.3c-0.4,0.2-0.6,0.2-0.8,0.3c-7.1,2.7-14.1,4-21.4,4
		c-10.9,0-20.8-2.7-30.1-8c-0.4-0.2-0.7-0.2-0.9,0.1c-0.1,0.1-0.1,0.2-0.1,0.3c0,0.2,0.1,0.4,0.3,0.5c4,3.6,8.7,6.5,13.8,8.5
		c5.1,2,10.6,3,16.3,3c3.7,0,7.5-0.5,11.5-1.5c3.9-1.1,7.4-2.5,10.6-4.3c1.1-0.6,1.9-1.2,2.5-1.7C57.1,55.8,57.2,55.5,56.9,55z"/>
	<path d="M61.7,50.8c-0.3-0.4-1.3-0.7-3-0.8c-0.3-0.1-0.7-0.1-1.1-0.1c-1.3,0-2.7,0.2-4.1,0.6c-0.8,0.2-1.7,0.6-2.7,1.3
		c-0.2,0.2-0.2,0.3-0.3,0.5c0,0.1-0.1,0.2-0.1,0.2c0,0.1,0,0.2,0.1,0.2c0.1,0.1,0.2,0.1,0.5,0.1c0.8-0.1,1.6-0.2,2.5-0.3
		c0.8-0.1,1.6-0.1,2.2-0.1c1.7,0,2.7,0.2,3.1,0.7c0.2,0.2,0.2,0.5,0.2,0.9c0,1.2-0.7,3.5-2.1,6.7c-0.1,0.3-0.1,0.5,0.2,0.6
		c0.1,0,0.2,0.1,0.2,0.1c0.2,0,0.3-0.1,0.5-0.2c1.2-1.1,2.2-2.5,3-4.3c0.8-1.7,1.1-3.3,1.1-4.6v-0.4C61.9,51.4,61.8,51.1,61.7,50.8z
		"/>
</g>
</svg>
