<?xml version="1.0" encoding="utf-8"?>
<!-- Generator: Adobe Illustrator 22.0.1, SVG Export Plug-In . SVG Version: 6.00 Build 0)  -->
<svg version="1.1" id="Layer_1" xmlns="http://www.w3.org/2000/svg" xmlns:xlink="http://www.w3.org/1999/xlink" x="0px" y="0px"
	 viewBox="0 0 64 64" style="enable-background:new 0 0 64 64;" xml:space="preserve">
<path d="M0,39.3c0.2-0.4,0.5-0.5,1-0.3c1.1,0.6,2.2,1.2,3.3,1.7c4.2,2.1,8.7,3.7,13.3,4.8c2.2,0.5,4.4,0.9,6.6,1.2
	c3.3,0.4,6.6,0.6,9.9,0.5c1.8,0,3.6-0.2,5.5-0.4c5.9-0.7,11.6-2.2,17.1-4.5c0.3-0.1,0.6-0.2,1-0.1c0.7,0.2,0.9,0.9,0.4,1.5
	c-0.3,0.3-0.6,0.5-1,0.8c-3.2,2.2-6.7,3.8-10.4,5c-2.6,0.8-5.2,1.4-7.9,1.8c-1.8,0.3-3.7,0.5-5.6,0.5c-0.1,0-0.2,0-0.3,0h-2.2
	c-0.1,0-0.2,0-0.3,0c-0.4,0-0.8,0-1.1,0c-1.8-0.1-3.5-0.3-5.3-0.6c-2.9-0.5-5.7-1.2-8.4-2.2c-5.6-2-10.8-5.1-15.2-9.1
	c-0.2-0.2-0.3-0.4-0.5-0.6L0,39.3z M16.5,12l-0.5,0.1c-1.4,0.2-2.8,0.7-4,1.6c-0.3,0.2-0.5,0.4-0.7,0.6c0,0,0-0.1,0-0.1
	c0-0.3-0.1-0.6-0.1-0.9c-0.1-0.5-0.3-0.7-0.8-0.7H9.2c-0.7,0-0.9,0.1-0.9,0.9v21.9c0,0.1,0,0.2,0,0.3c0,0.3,0.2,0.5,0.5,0.5
	c0.7,0,1.5,0,2.2,0c0.3,0,0.5-0.2,0.5-0.5c0-0.1,0-0.2,0-0.3v-7.6c0.1,0.1,0.2,0.1,0.2,0.2c1.9,1.6,4,2.1,6.4,1.6
	c2.1-0.4,3.6-1.7,4.6-3.7c0.7-1.5,1-3,1.1-4.6c0.1-1.8-0.1-3.5-0.8-5.2c-0.9-2.1-2.4-3.4-4.6-3.9c-0.3-0.1-0.7-0.1-1-0.2
	C17.1,12,16.8,12,16.5,12z M11.6,16.4c0-0.1,0.1-0.3,0.2-0.3c1.4-1,3-1.5,4.8-1.4c1.6,0.1,2.8,0.9,3.5,2.7c0.4,1.1,0.5,2.3,0.5,3.5
	c0,1.1-0.1,2.2-0.4,3.2c-0.7,2.2-2.3,3.1-4.5,3c-1.5-0.1-2.7-0.6-3.9-1.5c-0.1-0.1-0.2-0.2-0.2-0.3c0-1.5,0-2.9,0-4.4
	C11.6,19.3,11.6,17.9,11.6,16.4L11.6,16.4z M33.1,12c-0.1,0-0.2,0-0.3,0c-1,0-2,0.2-3,0.4c-0.6,0.2-1.3,0.4-1.9,0.6
	c-0.4,0.1-0.6,0.4-0.6,0.8c0,0.3,0,0.7,0,1c0,0.5,0.2,0.6,0.7,0.5c0.8-0.2,1.6-0.4,2.5-0.6c1.3-0.2,2.6-0.3,3.9-0.1
	c0.7,0.1,1.3,0.3,1.8,0.9c0.4,0.5,0.5,1.1,0.6,1.7c0,0.9,0,1.7,0,2.6c0,0,0,0.1,0,0.1c-0.1,0-0.1,0-0.1,0c-1.1-0.3-2.2-0.4-3.4-0.5
	c-1.2-0.1-2.4,0-3.5,0.4c-1.4,0.5-2.4,1.3-3.1,2.6c-0.5,1-0.6,2.1-0.4,3.2c0.2,1.5,0.9,2.6,2.2,3.3c1.2,0.7,2.6,0.8,4,0.6
	c1.6-0.2,3-0.9,4.2-1.9c0.1,0,0.1-0.1,0.2-0.1c0.1,0.4,0.1,0.8,0.2,1.2c0.1,0.3,0.3,0.5,0.6,0.5c0.6,0,1.1,0,1.7,0
	c0.3,0,0.5-0.2,0.5-0.5c0-0.1,0-0.2,0-0.3V17.4c0-0.5,0-0.9-0.1-1.4c-0.2-1.4-0.8-2.5-2-3.2c-0.7-0.4-1.5-0.6-2.3-0.7
	c-0.4-0.1-0.8-0.1-1.1-0.1C34,12,33.5,12,33.1,12L33.1,12z M36.8,25.4c0,0.1-0.1,0.2-0.2,0.3c-1.2,0.8-2.5,1.4-3.9,1.6
	c-0.6,0.1-1.2,0-1.8-0.2c-0.6-0.2-1.1-0.7-1.3-1.4c-0.2-0.7-0.2-1.4,0-2c0.3-0.9,0.9-1.4,1.7-1.6c0.8-0.3,1.7-0.3,2.6-0.2
	c0.9,0.1,1.7,0.2,2.6,0.4c0.2,0,0.2,0.1,0.2,0.3c0,0.5,0,1,0,1.5C36.8,24.4,36.8,24.9,36.8,25.4z M64,38.9c-0.1-0.5-0.5-0.7-1-0.9
	c-0.7-0.2-1.5-0.4-2.2-0.4c-1.4-0.1-2.8-0.1-4.1,0.2c-1.5,0.3-2.9,0.8-4.2,1.6c-0.2,0.1-0.3,0.2-0.4,0.4c-0.1,0.1-0.1,0.3-0.1,0.4
	c0,0.2,0.2,0.2,0.4,0.2c0.1,0,0.2,0,0.2,0c0.8-0.1,1.6-0.2,2.4-0.3c1.2-0.1,2.4-0.2,3.6-0.1c0.5,0,1,0.1,1.5,0.3
	c0.5,0.1,0.8,0.5,0.8,1.1c0,0.8-0.1,1.6-0.4,2.4c-0.4,1.6-1,3.2-1.7,4.7c0,0.1-0.1,0.2-0.1,0.3c-0.1,0.3,0.1,0.5,0.4,0.4
	c0.2,0,0.4-0.1,0.5-0.3c0.5-0.4,0.9-0.9,1.3-1.4c1.3-1.7,2.1-3.7,2.6-5.8c0.1-0.4,0.1-0.8,0.2-1.1L64,38.9L64,38.9z M50.2,26
	c-1.4-3.7-2.7-7.5-4.1-11.2c-0.2-0.6-0.4-1.2-0.7-1.8c-0.1-0.3-0.3-0.5-0.7-0.5c-0.8,0-1.6,0-2.4,0c-0.3,0-0.4,0.2-0.3,0.5
	c0.1,0.2,0.1,0.4,0.2,0.6c2.1,5.1,4.1,10.2,6.2,15.2c0.2,0.4,0.2,0.8,0,1.2c-0.3,0.8-0.6,1.6-1,2.3c-0.3,0.7-0.8,1.2-1.6,1.4
	C45.4,34,44.8,34,44.3,34c-0.3,0-0.5-0.1-0.8-0.1c-0.4,0-0.5,0.1-0.5,0.5c0,0.3,0,0.7,0,1c0,0.6,0.2,0.8,0.8,0.9
	c0.6,0.1,1.2,0.2,1.8,0.2c1.8,0,3.2-0.7,4.1-2.2c0.4-0.6,0.7-1.3,1-1.9c2.5-6.3,4.9-12.5,7.4-18.8c0.1-0.2,0.1-0.4,0.2-0.6
	c0-0.3-0.1-0.5-0.4-0.5c-0.7,0-1.4,0-2.1,0c-0.4,0-0.7,0.2-0.8,0.5c-0.1,0.1-0.1,0.3-0.2,0.4L51.1,24c-0.3,0.8-0.5,1.5-0.8,2.3
	C50.2,26.2,50.2,26.1,50.2,26L50.2,26z"/>
</svg>
