<?xml version="1.0" encoding="utf-8"?>
<!-- Generator: Adobe Illustrator 22.0.1, SVG Export Plug-In . SVG Version: 6.00 Build 0)  -->
<svg version="1.1" id="Layer_1" xmlns="http://www.w3.org/2000/svg" xmlns:xlink="http://www.w3.org/1999/xlink" x="0px" y="0px"
	 viewBox="0 0 64 64" style="enable-background:new 0 0 64 64;" xml:space="preserve">
<g>
	<path d="M56.8,46.7c-7.9,3.3-16.4,4.9-24.2,4.9C21.2,51.7,10,48.5,1,43.2c-0.8-0.5-1.4,0.3-0.7,1c8.3,7.5,19.4,12.1,31.6,12.1
		c8.8,0,18.9-2.8,25.9-7.9C59,47.5,58,46.2,56.8,46.7z"/>
	<path d="M63.7,42.8c-0.8-1-7.3-1.7-11.3,1c-0.6,0.4-0.5,1,0.2,1c2.2-0.3,7.3-0.9,8.2,0.3c0.9,1.2-1,5.8-1.8,8
		c-0.3,0.6,0.3,0.9,0.9,0.4C63.6,50.3,64.6,43.7,63.7,42.8z"/>
	<path d="M35.2,20.3c-3.3,0.3-7.8,0.6-10.9,2c-3.6,1.6-6.2,4.8-6.2,9.5c0,6.1,3.8,9.1,8.7,9.1c4.1,0,6.4-1,9.6-4.2
		c1,1.5,1.4,2.3,3.3,3.9c0.4,0.2,1,0.2,1.4-0.1l0,0c1.2-1,3.3-2.9,4.5-3.8c0.5-0.4,0.4-1,0-1.5c-1-1.5-2.2-2.6-2.2-5.4v-9.1
		c0-3.8,0.3-7.4-2.6-10c-2.2-2.2-5.9-2.9-8.8-2.9c-5.6,0-11.7,2.1-13,8.9c-0.1,0.7,0.4,1.1,0.8,1.2l5.6,0.6c0.6,0,0.9-0.6,1-1
		c0.5-2.4,2.4-3.5,4.7-3.5c1.2,0,2.6,0.4,3.3,1.5c0.8,1.2,0.7,2.9,0.7,4.2L35.2,20.3L35.2,20.3z M34.1,32.4c-0.9,1.6-2.4,2.6-4,2.6
		c-2.2,0-3.6-1.7-3.6-4.2c0-4.9,4.5-5.8,8.6-5.8v1.3C35.2,28.5,35.2,30.4,34.1,32.4z"/>
</g>
</svg>
