<?xml version="1.0" encoding="utf-8"?>
<!-- Generator: Adobe Illustrator 21.0.2, SVG Export Plug-In . SVG Version: 6.00 Build 0)  -->
<svg version="1.1" id="Layer_1" xmlns="http://www.w3.org/2000/svg" xmlns:xlink="http://www.w3.org/1999/xlink" x="0px" y="0px"
	 viewBox="0 0 64 64" style="enable-background:new 0 0 64 64;" xml:space="preserve">
<g>
	<path d="M0.1,30.6C0,30.7,0,30.9,0,31l0,14.7c0,2.2,1.9,4.2,4.2,4.2h0.3c1.1,3.3,4.5,5.8,8.3,5.8s6.9-2.5,8.3-5.8h21.3
		c1.1,3.3,4.5,5.8,8.3,5.8s6.9-2.5,8.3-5.8h1.4c2,0,3.5-1.6,3.5-3.5V14.5c-0.5-3.3-2.9-6.1-6.3-6.1H25.5c-3.3,0-6.1,2.7-6.1,6.1v2.2
		h-2.7V14c0-1.6-1.3-2.9-2.8-2.8c-1.6,0-2.7,1-2.7,2.7v2.7H8c-1.6,0-3,1.1-3.9,2.7L0.1,30.6z M9.1,22.2h10.2v8.3H6.1L9.1,22.2z
		 M12.7,50c-1.6,0-3-1.4-3-3.3s1.4-3.3,3-3.3s3,1.4,3,3.3C15.7,48.6,14.4,50,12.7,50z M12.7,38.2c-3,0-5.5,1.4-7.2,3.9V36h13.8v5.5
		C17.7,39.6,15.4,38.2,12.7,38.2z M42.3,44.3H24.9V36V16.7v-2.2c0-0.3,0.3-0.5,0.3-0.5h32.5c0,0,0.3,0.3,0.3,0.5V43
		c-1.4-2.7-4.5-4.7-7.7-4.7C46.4,38.2,43.3,40.7,42.3,44.3z M50.3,50c-1.6,0-3-1.4-3-3.3s1.4-3.3,3-3.3s3,1.4,3,3.3
		C53.4,48.6,52.2,50,50.3,50z"/>
	<path d="M47,25h-2.7v-2.7c0-1.6-1.1-2.7-2.7-2.7c-1.6,0-2.7,1.1-2.7,2.7V25H36c-1.6,0-2.7,1.1-2.7,2.7c0,1.6,1.1,2.7,2.7,2.7h2.7
		v2.7c0,1.6,1.1,2.7,2.7,2.7c1.6,0,2.7-1.1,2.7-2.7v-2.7H47c1.6,0,2.7-1.1,2.7-2.7C49.7,26,48.6,25,47,25z"/>
</g>
</svg>
