<?xml version="1.0" encoding="utf-8"?>
<!-- Generator: Adobe Illustrator 22.0.1, SVG Export Plug-In . SVG Version: 6.00 Build 0)  -->
<svg version="1.1" id="Layer_1" xmlns="http://www.w3.org/2000/svg" xmlns:xlink="http://www.w3.org/1999/xlink" x="0px" y="0px"
	 viewBox="0 0 64 64" style="enable-background:new 0 0 64 64;" xml:space="preserve">
<g>
	<path d="M12.4,35.8h5.1l0.7,2.8h1.9h0.3h1.9V27.7h0.3L25.8,38H28l3.1-10.3h0.3v10.9h2.1V25.4h-3.7l-3,10.3l-3-10.3H20v12.4
		l-3.1-12.4h-4.3L9.3,38.5h2.1L12.4,35.8z M14.5,27.1h1l1.6,6.8h-4.2L14.5,27.1z"/>
	<path d="M46.4,38.5h0.2l2.9-5l2.8,5h2.4L50.8,32l3.9-6.8h-2.4l-2.9,5.2l-2.8-5.2h-0.3h-2.1h-8.7v13.1h8.6
		C44.1,38.5,46.4,38.5,46.4,38.5z M37.7,32.8h5V31h-5v-3.7h7.5l2.8,5l-2.8,4.4h-7.6V32.8z"/>
	<path d="M61.4,17.7H2.6c-1.4,0-2.5,1.1-2.5,2.5v23.7c0,1.4,1.1,2.5,2.5,2.5h58.9c1.4,0,2.5-1.1,2.5-2.5V20.2
		C63.9,18.8,62.8,17.7,61.4,17.7z M58.9,41.3H5.1V22.7h53.9V41.3z"/>
</g>
</svg>
