<?xml version="1.0" encoding="utf-8"?>
<!-- Generator: Adobe Illustrator 23.0.0, SVG Export Plug-In . SVG Version: 6.00 Build 0)  -->
<svg version="1.1" id="Layer_2_1_" xmlns="http://www.w3.org/2000/svg" xmlns:xlink="http://www.w3.org/1999/xlink" x="0px" y="0px"
	 viewBox="0 0 64 64" style="enable-background:new 0 0 64 64;" xml:space="preserve">
<path d="M55,43.7L50.2,40c-1.3-1.1-3.2-1.1-4.8,0l-4.5,3.7c-1.1,0.8-1.3,2.7-0.5,3.7c0.8,1.1,2.7,1.3,3.7,0.5l1.1-0.8
	c-0.3,5.6-4.5,10.4-10.4,11.5v-32H40c1.6,0,2.7-1.1,2.7-2.7s-1.1-2.7-2.7-2.7h-5.3v-4.3c3.7-1.1,6.4-4.3,6.4-8.3C41.1,4,37.1,0,32,0
	S23,4,23,8.8c0,4,2.7,7.2,6.4,8.3v4.3H24c-1.6,0-2.7,1.1-2.7,2.7s1.1,2.7,2.7,2.7h5.3v31.7c-5.6-1.1-10.1-5.6-10.4-11.2l0.8,0.8
	c0.5,0.3,1.1,0.5,1.6,0.5c0.8,0,1.6-0.3,2.1-1.1c0.8-1.1,0.8-2.9-0.5-3.7L18.4,40c-1.3-1.1-3.2-1.1-4.8,0l-4.5,3.7
	c-1.1,0.8-1.3,2.7-0.5,3.7s2.7,1.3,3.7,0.5l1.3-1.1C13.9,56.3,21.9,64,32,64c9.9,0,18.1-7.5,18.4-16.8l1.1,0.8
	c0.5,0.3,1.1,0.5,1.6,0.5c0.8,0,1.6-0.3,2.1-1.1C56.3,46.4,56,44.5,55,43.7z M32,5.3c2.1,0,3.7,1.6,3.7,3.5S34.2,12,32,12
	s-3.7-1.6-3.7-3.5S29.9,5.3,32,5.3z"/>
</svg>
