<?xml version="1.0" encoding="utf-8"?>
<!-- Generator: Adobe Illustrator 22.0.1, SVG Export Plug-In . SVG Version: 6.00 Build 0)  -->
<svg version="1.1" id="Layer_1" xmlns="http://www.w3.org/2000/svg" xmlns:xlink="http://www.w3.org/1999/xlink" x="0px" y="0px"
	 viewBox="0 0 64 64" style="enable-background:new 0 0 64 64;" xml:space="preserve">
<g>
	<circle cx="27.3" cy="13.3" r="1.4"/>
	<circle cx="35.8" cy="13.3" r="1.4"/>
	<path d="M54.5,19c-0.7,0-1.4,0.1-2,0.3L52,17.7c-1.2-3.6-3.2-6.7-5.9-9.1l3.6-3.9c0.9-1,0.9-2.6-0.1-3.5c-1-0.9-2.6-0.9-3.5,0.1
		l-4.1,4.4c-2.9-1.5-6.2-2.4-9.6-2.4c-3.6,0-7,0.9-10,2.6L18,1.3c-0.9-1-2.5-1.1-3.5-0.1c-1,0.9-1.1,2.5-0.1,3.5l3.9,4.2
		c-2.5,2.4-4.5,5.4-5.6,8.9l-0.6,1.8c-0.8-0.3-1.7-0.5-2.6-0.5C5.9,19,3,21.9,3,25.5v10.1C3,39.1,5.9,42,9.5,42h0.1
		c1.7,0,3.3-0.7,4.5-1.8v6.9c0,1.3,0.8,2.4,2,2.7v6.7c0,3.6,2.9,6.5,6.5,6.5h0.1c3.6,0,6.5-2.9,6.5-6.5V50h6v6.5
		c0,3.6,2.9,6.5,6.5,6.5h0.1c3.6,0,6.5-2.9,6.5-6.5V50h0.1c1.6,0,2.9-1.3,2.9-2.9V41c1,0.6,2.2,1,3.5,1h0.1c3.6,0,6.5-2.9,6.5-6.5
		V25.5C61,21.9,58.1,19,54.5,19z M45.7,16H18.9c2.7-4.7,7.8-7.6,13.4-7.6C37.9,8.4,42.9,11.3,45.7,16z M11,35.5
		c0,0.8-0.7,1.5-1.5,1.5H9.5C8.7,37,8,36.3,8,35.5V25.5C8,24.7,8.7,24,9.5,24c0.8,0,1.5,0.7,1.5,1.5V35.5z M24,56.5
		c0,0.8-0.7,1.5-1.5,1.5h-0.1c-0.8,0-1.5-0.7-1.5-1.5V50h1h2V56.5z M29,45h-7h-3V21h27v24h-1h-2h-8H29z M43,56.5
		c0,0.8-0.7,1.5-1.5,1.5h-0.1c-0.8,0-1.5-0.7-1.5-1.5V50h3V56.5z M56,35.5c0,0.8-0.7,1.5-1.5,1.5h-0.1c-0.8,0-1.5-0.7-1.5-1.5V25.5
		c0-0.8,0.7-1.5,1.5-1.5c0.8,0,1.5,0.7,1.5,1.5V35.5z"/>
</g>
</svg>
