<?xml version="1.0" encoding="utf-8"?>
<!-- Generator: Adobe Illustrator 22.0.1, SVG Export Plug-In . SVG Version: 6.00 Build 0)  -->
<svg version="1.1" id="Layer_1" xmlns="http://www.w3.org/2000/svg" xmlns:xlink="http://www.w3.org/1999/xlink" x="0px" y="0px"
	 viewBox="0 0 64 64" style="enable-background:new 0 0 64 64;" xml:space="preserve">
<g>
	<path d="M14.3,47c0,2.4,1.9,4.3,4.3,4.3h2.8V60c0,2.2,1.8,4,4,4s4-1.8,4-4v-8.7h5.3V60c0,2.2,1.8,4,4,4s4-1.8,4-4v-8.7h2.8
		c2.4,0,4.3-1.9,4.3-4.3V21.5H14.3L14.3,47z"/>
	<path d="M40.7,5.9l2.8-5c0.2-0.3,0.1-0.6-0.2-0.8C43.2,0,43.1,0,43,0c-0.2,0-0.4,0.1-0.5,0.3l-2.8,5.1c-2.3-1-4.9-1.6-7.6-1.6
		s-5.3,0.6-7.6,1.6l-2.8-5.1c-0.2-0.3-0.5-0.4-0.8-0.2c-0.3,0.2-0.4,0.5-0.2,0.8l2.8,5c-5.4,2.8-9,8.1-9,14.2h35.3
		C49.7,14,46,8.7,40.7,5.9z M23.9,13.6c-0.8,0-1.5-0.7-1.5-1.5c0-0.8,0.7-1.5,1.5-1.5c0.8,0,1.5,0.7,1.5,1.5
		C25.3,12.9,24.7,13.6,23.9,13.6z M40.1,13.6c-0.8,0-1.5-0.7-1.5-1.5c0-0.8,0.7-1.5,1.5-1.5c0.8,0,1.5,0.7,1.5,1.5
		C41.6,12.9,41,13.6,40.1,13.6z"/>
	<path d="M8.9,20.8c-2.2,0-4,1.8-4,4v16.5c0,2.2,1.8,4,4,4s4-1.8,4-4V24.7C12.9,22.6,11.1,20.8,8.9,20.8z"/>
	<path d="M55.1,20.8c-2.2,0-4,1.8-4,4v16.5c0,2.2,1.8,4,4,4c2.2,0,4-1.8,4-4V24.7C59,22.6,57.3,20.8,55.1,20.8z"/>
</g>
</svg>
