<?xml version="1.0" encoding="utf-8"?>
<!-- Generator: Adobe Illustrator 22.0.1, SVG Export Plug-In . SVG Version: 6.00 Build 0)  -->
<svg version="1.1" id="Layer_1" xmlns="http://www.w3.org/2000/svg" xmlns:xlink="http://www.w3.org/1999/xlink" x="0px" y="0px"
	 viewBox="0 0 64 64" style="enable-background:new 0 0 64 64;" xml:space="preserve">
<path d="M47.4,26.9c1.5-4.1,5.7-15.9,5.7-19.6c0-3.3-2-6.1-5.5-6.1C42,1.2,37,17.6,35.5,21.6C34.2,18,28.6,0,23.6,0
	c-3.9,0-5.7,2.9-5.7,6.5c0,4.4,4.3,15.9,5.8,20.3c-0.8-0.3-1.6-0.5-2.5-0.5c-2.9,0-6,3.6-6,6.6c0,1.1,0.6,2.7,1,3.7
	c-4.6,1.3-6.4,4.3-6.4,9c0,9,8.5,18.6,20.6,18.6c14.7,0,23.9-11.1,23.9-25.4C54.2,33.3,53.4,28.4,47.4,26.9L47.4,26.9z M43,13.5
	c0.5-1.5,2.6-8,4.6-8c1.1,0,1.4,1.1,1.4,2C49,9.8,44.1,23,43.1,26l-4.3-0.8L43,13.5z M21.8,6c0-1.5,1.8-5.7,5.8,5.9l4.3,12.5
	c-2-0.2-3.5-0.4-4.4,0.2C26.1,21,21.8,9.7,21.8,6L21.8,6z M21.5,30.5c3.7,0,8.4,11.8,8.4,13.4c0,0.6-0.6,1.4-1.3,1.4
	c-2.6,0-9.6-9.6-9.6-12.2C19,32.2,20.5,30.5,21.5,30.5L21.5,30.5z M44.5,53.8c-3.6,4-8.3,6.1-13.7,6.1c-7.4,0-13.3-4.1-16.1-11
	c-2.1-5.4,0.5-8.5,2.6-8.5c1.4,0,6.8,7.5,6.8,9.1c0,0.6-1,1-1.5,1c-2,0-2.8-1.9-6.4-6.4c-3.7,3.7,2.6,10.9,7.3,10.9
	c3.3,0,5.4-3,4.8-5.3c0.5,0,1,0,1.5-0.1c0.1,3.4,1.1,7.4,5.2,7.7c0-0.1,0.3-0.9,0.3-0.9c0-2.2-1.3-4.1-1.3-6.3c0-3.5,2.7-7,5.5-9
	c1-0.8,2.2-1.2,3.4-1.6c1.2-0.5,2.5-1,3.4-1.9c-0.1-1.4-0.7-2.6-2.1-2.6c-3.5,0-15.1,0.5-15.1-5c0-0.8,0-1.6,2.2-1.6
	c4,0,14.3,1,17.3,3.6C50.7,34,51.4,46.1,44.5,53.8L44.5,53.8z M32.2,38c1.2,0.4,2.5,0.5,3.7,0.8c-0.9,0.7-1.8,1.5-2.5,2.4
	C33,40.1,32.6,39.1,32.2,38z"/>
</svg>
