<?xml version="1.0" encoding="utf-8"?>
<!-- Generator: Adobe Illustrator 23.0.0, SVG Export Plug-In . SVG Version: 6.00 Build 0)  -->
<svg version="1.1" id="Layer_1" xmlns="http://www.w3.org/2000/svg" xmlns:xlink="http://www.w3.org/1999/xlink" x="0px" y="0px"
	 viewBox="0 0 64 64" style="enable-background:new 0 0 64 64;" xml:space="preserve">
<g>
	<path d="M38.9,28.8l-26.4-28c-1.1-1.1-2.7-1.1-3.7,0s-1.1,2.7,0,3.7l25.9,27.2L8.8,59.5c-1.1,1.1-1.1,2.7,0,3.7
		c0.5,0.5,1.3,0.8,1.9,0.8c0.8,0,1.3-0.3,1.9-0.8l26.4-28.3C40.5,33.1,40.5,30.4,38.9,28.8z"/>
	<path d="M54.6,28.8l-26.4-28c-1.1-1.1-2.7-1.1-3.7,0s-1.1,2.7,0,3.7L50.4,32L24.5,59.5c-1.1,1.1-1.1,2.7,0,3.7
		c0.5,0.5,1.1,0.8,1.9,0.8c0.8,0,1.3-0.3,1.9-0.8l26.4-28.3C56.5,33.3,56.5,30.7,54.6,28.8z"/>
</g>
</svg>
