<?xml version="1.0" encoding="utf-8"?>
<!-- Generator: Adobe Illustrator 23.0.0, SVG Export Plug-In . SVG Version: 6.00 Build 0)  -->
<svg version="1.1" id="Layer_1" xmlns="http://www.w3.org/2000/svg" xmlns:xlink="http://www.w3.org/1999/xlink" x="0px" y="0px"
	 viewBox="0 0 64 64" style="enable-background:new 0 0 64 64;" xml:space="preserve">
<g>
	<path d="M58.7,0H32c-2.9,0-5.3,2.4-5.3,5.3v5.3H5.3C2.4,10.7,0,13.1,0,16v42.7C0,61.6,2.4,64,5.3,64h21.3H32h26.7
		c2.9,0,5.3-2.4,5.3-5.3V5.3C64,2.4,61.6,0,58.7,0z M26.7,58.7H5.3V16h21.3V58.7z M32,58.7V16V5.3h26.7v53.3H32z"/>
	<path d="M9.3,26.7H12c0.8,0,1.3-0.5,1.3-1.3v-2.7c0-0.8-0.5-1.3-1.3-1.3H9.3c-0.8,0-1.3,0.5-1.3,1.3v2.7C8,26.1,8.5,26.7,9.3,26.7z
		"/>
	<path d="M20,26.7h2.7c0.8,0,1.3-0.5,1.3-1.3v-2.7c0-0.8-0.5-1.3-1.3-1.3H20c-0.8,0-1.3,0.5-1.3,1.3v2.7
		C18.7,26.1,19.2,26.7,20,26.7z"/>
	<path d="M9.3,40H12c0.8,0,1.3-0.5,1.3-1.3V36c0-0.8-0.5-1.3-1.3-1.3H9.3C8.5,34.7,8,35.2,8,36v2.7C8,39.5,8.5,40,9.3,40z"/>
	<path d="M20,40h2.7c0.8,0,1.3-0.5,1.3-1.3V36c0-0.8-0.5-1.3-1.3-1.3H20c-0.8,0-1.3,0.5-1.3,1.3v2.7C18.7,39.5,19.2,40,20,40z"/>
	<path d="M9.3,53.3H12c0.8,0,1.3-0.5,1.3-1.3v-2.7c0-0.8-0.5-1.3-1.3-1.3H9.3C8.5,48,8,48.5,8,49.3V52C8,52.8,8.5,53.3,9.3,53.3z"/>
	<path d="M20,53.3h2.7c0.8,0,1.3-0.5,1.3-1.3v-2.7c0-0.8-0.5-1.3-1.3-1.3H20c-0.8,0-1.3,0.5-1.3,1.3V52C18.7,52.8,19.2,53.3,20,53.3
		z"/>
	<path d="M41.3,10.7h-2.7c-0.8,0-1.3,0.5-1.3,1.3v2.7c0,0.8,0.5,1.3,1.3,1.3h2.7c0.8,0,1.3-0.5,1.3-1.3V12
		C42.7,11.2,42.1,10.7,41.3,10.7z"/>
	<path d="M52,10.7h-2.7c-0.8,0-1.3,0.5-1.3,1.3v2.7c0,0.8,0.5,1.3,1.3,1.3H52c0.8,0,1.3-0.5,1.3-1.3V12C53.3,11.2,52.8,10.7,52,10.7
		z"/>
	<path d="M41.3,21.3h-2.7c-0.8,0-1.3,0.5-1.3,1.3v2.7c0,0.8,0.5,1.3,1.3,1.3h2.7c0.8,0,1.3-0.5,1.3-1.3v-2.7
		C42.7,21.9,42.1,21.3,41.3,21.3z"/>
	<path d="M52,21.3h-2.7c-0.8,0-1.3,0.5-1.3,1.3v2.7c0,0.8,0.5,1.3,1.3,1.3H52c0.8,0,1.3-0.5,1.3-1.3v-2.7
		C53.3,21.9,52.8,21.3,52,21.3z"/>
	<path d="M41.3,32h-2.7c-0.8,0-1.3,0.5-1.3,1.3V36c0,0.8,0.5,1.3,1.3,1.3h2.7c0.8,0,1.3-0.5,1.3-1.3v-2.7C42.7,32.5,42.1,32,41.3,32
		z"/>
	<path d="M52,32h-2.7c-0.8,0-1.3,0.5-1.3,1.3V36c0,0.8,0.5,1.3,1.3,1.3H52c0.8,0,1.3-0.5,1.3-1.3v-2.7C53.3,32.5,52.8,32,52,32z"/>
	<path d="M41.3,42.7h-2.7c-0.8,0-1.3,0.5-1.3,1.3v2.7c0,0.8,0.5,1.3,1.3,1.3h2.7c0.8,0,1.3-0.5,1.3-1.3V44
		C42.7,43.2,42.1,42.7,41.3,42.7z"/>
	<path d="M52,42.7h-2.7c-0.8,0-1.3,0.5-1.3,1.3v2.7c0,0.8,0.5,1.3,1.3,1.3H52c0.8,0,1.3-0.5,1.3-1.3V44C53.3,43.2,52.8,42.7,52,42.7
		z"/>
</g>
</svg>
