<?xml version="1.0" encoding="utf-8"?>
<!-- Generator: Adobe Illustrator 22.0.1, SVG Export Plug-In . SVG Version: 6.00 Build 0)  -->
<svg version="1.1" id="Layer_1" xmlns="http://www.w3.org/2000/svg" xmlns:xlink="http://www.w3.org/1999/xlink" x="0px" y="0px"
	 viewBox="0 0 64 64" style="enable-background:new 0 0 64 64;" xml:space="preserve">
<path d="M11.7,22.2c-0.7,0.9-1.9,1.6-3.1,1.5c-0.1-1.2,0.4-2.5,1.1-3.3c0.7-0.9,2.1-1.6,3.1-1.6C12.9,20.1,12.4,21.3,11.7,22.2
	 M12.8,24c-1.7-0.1-3.2,1-4,1C7.9,25,6.6,24,5.3,24c-1.8,0-3.4,1-4.4,2.6c-1.9,3.2-0.5,8,1.3,10.6c0.9,1.3,1.9,2.7,3.3,2.7
	c1.3,0,1.8-0.9,3.4-0.9c1.6,0,2.1,0.9,3.5,0.8c1.4,0,2.4-1.3,3.2-2.6c1-1.5,1.4-2.9,1.4-3c0,0-2.8-1.1-2.8-4.3c0-2.7,2.2-3.9,2.3-4
	C15.4,24.2,13.5,24,12.8,24 M22.8,20.3v19.5h3v-6.7H30c3.8,0,6.5-2.6,6.5-6.4s-2.6-6.4-6.4-6.4L22.8,20.3L22.8,20.3z M25.9,22.9h3.5
	c2.6,0,4.1,1.4,4.1,3.9s-1.5,3.9-4.1,3.9h-3.5V22.9L25.9,22.9z M42.1,40c1.9,0,3.7-1,4.5-2.5h0.1v2.3h2.8v-9.7
	c0-2.8-2.2-4.6-5.7-4.6c-3.2,0-5.6,1.8-5.7,4.4h2.7c0.2-1.2,1.3-2,2.9-2c1.8,0,2.9,0.9,2.9,2.4v1.1l-3.8,0.2
	c-3.5,0.2-5.4,1.6-5.4,4.1C37.3,38.3,39.3,40,42.1,40z M42.9,37.7c-1.6,0-2.6-0.8-2.6-2c0-1.2,1-1.9,2.9-2l3.4-0.2v1.1
	C46.5,36.4,44.9,37.7,42.9,37.7z M53.1,45.1c2.9,0,4.3-1.1,5.5-4.5L64,25.7h-3.1l-3.6,11.5h-0.1l-3.6-11.5h-3.2l5.1,14.2l-0.3,0.9
	c-0.5,1.5-1.2,2-2.5,2c-0.2,0-0.7,0-0.9,0v2.3C52.2,45.1,52.9,45.1,53.1,45.1L53.1,45.1z"/>
</svg>
