<?xml version="1.0" encoding="utf-8"?>
<!-- Generator: Adobe Illustrator 22.0.1, SVG Export Plug-In . SVG Version: 6.00 Build 0)  -->
<svg version="1.1" id="Layer_1" xmlns="http://www.w3.org/2000/svg" xmlns:xlink="http://www.w3.org/1999/xlink" x="0px" y="0px"
	 viewBox="0 0 64 64" style="enable-background:new 0 0 64 64;" xml:space="preserve">
<g>
	<g>
		<path d="M22,64c-4.1,0-8.4-3-12.6-8.9c-4.2-6.1-6.3-12-6.3-17.6c0-5.5,1.7-9.9,4.9-13.3c3.1-3.3,7.1-4.9,11.8-4.9
			c1.9,0,4.3,0.3,7.3,1c4.1,1,5.3,1,5.8,1c1.3,0,3.2-0.4,5.9-1.2c2.8-0.8,5.1-1.2,7.2-1.2c3.3,0,6.3,0.7,8.8,2.2
			c0.9,0.5,1.7,1.1,2.8,2l2.4,2L57.5,27c-1.2,1-2.3,1.9-3,2.8c-1.6,2-2.5,4.1-2.5,6.4c0,2.5,0.9,4.8,2.7,7.1
			c1.3,1.6,2.9,2.7,4.7,3.5l2.3,1l-1,2.3c-1.1,2.4-2.6,4.8-4.5,7.1c-3.6,4.5-7.2,6.8-10.7,6.8c-1.3,0-3.2-0.4-5.7-1.1
			c-2.4-0.7-4.5-1.1-6.3-1.1c-1.8,0-3.7,0.4-5.9,1.1C25.3,63.6,23.5,64,22,64z M19.8,24.3c-3.3,0-5.9,1.1-8.2,3.4
			c-2.3,2.4-3.5,5.7-3.5,9.8c0,4.5,1.8,9.5,5.4,14.7c3,4.3,6.1,6.8,8.5,6.8c0.9,0,2.2-0.3,3.8-0.9c2.8-0.9,5.2-1.4,7.6-1.4
			c2.3,0,5,0.4,7.8,1.3c2.9,0.8,4.1,0.9,4.3,0.9c1.9,0,4.3-1.7,6.8-4.9l0,0c1.1-1.3,2-2.6,2.7-3.9c-1.5-1-2.9-2.2-4.2-3.7
			c-2.5-3.1-3.8-6.6-3.8-10.2c0-3.5,1.2-6.7,3.6-9.6c0.4-0.4,0.8-0.9,1.3-1.3c-1.7-0.9-3.6-1.3-5.9-1.3c-1.6,0-3.5,0.3-5.8,1
			c-3.3,0.9-5.5,1.4-7.3,1.4c-1.1,0-2.8-0.1-6.9-1.1C23.4,24.5,21.3,24.3,19.8,24.3z"/>
	</g>
	<g>
		<path d="M33.1,17c-1.4,0-2.8-0.6-3.8-1.6c-1-1.1-1.3-2.5-1-3.8l0,0c1-4.1,2.3-6.7,4.1-8.1l0.1-0.1c2.7-2.1,6.8-2.9,9.8-3.3
			c1.6-0.2,3.2,0.3,4.3,1.5c1,1,1.4,2.3,1.2,3.6c-0.4,2.7-1.6,6.3-4.4,8.6l-0.1,0.1c-2.1,1.5-5.2,2.5-9.2,3.1
			C33.6,17,33.3,17,33.1,17z M33.2,12.8C33.2,12.8,33.2,12.8,33.2,12.8C33.2,12.8,33.2,12.8,33.2,12.8L33.2,12.8z M35.5,7.3
			c-0.6,0.5-1.4,1.9-2.1,4.6c3-0.5,5.4-1.3,6.8-2.2c1.4-1.2,2.1-3.2,2.4-4.7C39.4,5.5,36.9,6.3,35.5,7.3z"/>
	</g>
</g>
</svg>
