<?xml version="1.0" encoding="utf-8"?>
<!-- Generator: Adobe Illustrator 21.0.2, SVG Export Plug-In . SVG Version: 6.00 Build 0)  -->
<svg version="1.1" id="Layer_1" xmlns="http://www.w3.org/2000/svg" xmlns:xlink="http://www.w3.org/1999/xlink" x="0px" y="0px"
	 viewBox="0 0 64 64" style="enable-background:new 0 0 64 64;" xml:space="preserve">
<path d="M40.9,51.2l-6.4,5.3V7.7l6.4,5.3c0.3,0.3,1.1,0.5,1.6,0.5c0.8,0,1.6-0.3,2.1-1.1c1.1-1.1,0.8-2.9-0.3-3.7l-8.8-7.5
	c-2.1-1.6-5.1-1.6-7.2,0l-8.8,7.5c-1.1,1.1-1.3,2.7-0.3,3.7s2.7,1.3,3.7,0.3l6.4-5.3v48.8L23.1,51c-1.1-1.1-2.9-0.8-3.7,0.3
	c-0.8,1.1-0.8,2.9,0.3,3.7l8.8,7.5c0.8,1.1,2.1,1.6,3.5,1.6c1.4,0,2.7-0.5,3.7-1.3l8.8-7.5c1.1-1.1,1.3-2.7,0.3-3.7
	C43.6,50.4,42,50.4,40.9,51.2z"/>
</svg>
