<?xml version="1.0" encoding="utf-8"?>
<!-- Generator: Adobe Illustrator 23.0.0, SVG Export Plug-In . SVG Version: 6.00 Build 0)  -->
<svg version="1.1" id="Layer_1" xmlns="http://www.w3.org/2000/svg" xmlns:xlink="http://www.w3.org/1999/xlink" x="0px" y="0px"
	 viewBox="0 0 64 64" style="enable-background:new 0 0 64 64;" xml:space="preserve">
<g>
	<path d="M38.4,42.1l-3.7,2.7V16c0-1.6-1.1-2.7-2.7-2.7c-1.6,0-2.7,1.1-2.7,2.7v28.8l-3.7-2.7c-1.3-0.8-2.9-0.5-3.7,0.5
		c-0.8,1.3-0.5,2.9,0.5,3.7l6.4,4.5c0.8,0.5,2.1,1.1,3.2,1.1c1.1,0,2.1-0.3,3.2-1.1l6.4-4.5c1.1-0.8,1.6-2.4,0.5-3.7
		C41.1,41.3,39.5,41.3,38.4,42.1z"/>
	<path d="M32,0C14.4,0,0,14.4,0,32s14.4,32,32,32s32-14.4,32-32S49.6,0,32,0z M32,58.7c-14.7,0-26.7-12-26.7-26.7S17.3,5.3,32,5.3
		s26.7,12,26.7,26.7S46.7,58.7,32,58.7z"/>
</g>
</svg>
