<?xml version="1.0" encoding="utf-8"?>
<!-- Generator: Adobe Illustrator 23.0.0, SVG Export Plug-In . SVG Version: 6.00 Build 0)  -->
<svg version="1.1" id="Layer_1" xmlns="http://www.w3.org/2000/svg" xmlns:xlink="http://www.w3.org/1999/xlink" x="0px" y="0px"
	 viewBox="0 0 64 64" style="enable-background:new 0 0 64 64;" xml:space="preserve">
<path d="M44.8,51.7c-1.1-1.1-2.7-1.3-3.7-0.3l-6.4,5.3V2.7C34.7,1.1,33.6,0,32,0c-1.6,0-2.7,1.1-2.7,2.7v53.9l-6.4-5.3
	c-1.1-1.1-2.9-0.8-3.7,0.3s-0.8,2.9,0.3,3.7l8.8,7.5c1.1,0.8,2.4,1.3,3.7,1.3c1.3,0,2.7-0.5,3.7-1.3l8.8-7.5
	C45.6,54.4,45.6,52.8,44.8,51.7z"/>
</svg>
