<?xml version="1.0" encoding="utf-8"?>
<!-- Generator: Adobe Illustrator 23.0.0, SVG Export Plug-In . SVG Version: 6.00 Build 0)  -->
<svg version="1.1" id="Layer_1" xmlns="http://www.w3.org/2000/svg" xmlns:xlink="http://www.w3.org/1999/xlink" x="0px" y="0px"
	 viewBox="0 0 64 64" style="enable-background:new 0 0 64 64;" xml:space="preserve">
<path d="M44.3,8.6l-8.8-7.5c-2.1-1.6-5.1-1.6-7.2,0l-8.8,7.5c-1.1,1.1-1.3,2.7-0.3,3.7s2.7,1.3,3.7,0.3l6.4-5.3v54
	c0,1.6,1.1,2.7,2.7,2.7c1.6,0,2.7-1.1,2.7-2.7V7.6l6.4,5.3c0.3,0.3,1.1,0.5,1.6,0.5c0.8,0,1.6-0.3,2.1-1.1
	C45.6,11.3,45.6,9.7,44.3,8.6z"/>
</svg>
