<?xml version="1.0" encoding="utf-8"?>
<!-- Generator: Adobe Illustrator 22.0.1, SVG Export Plug-In . SVG Version: 6.00 Build 0)  -->
<svg version="1.1" id="Layer_1" xmlns="http://www.w3.org/2000/svg" xmlns:xlink="http://www.w3.org/1999/xlink" x="0px" y="0px"
	 viewBox="0 0 64 64" style="enable-background:new 0 0 64 64;" xml:space="preserve">
<path d="M19,29.6c-1-1-2.5-1-3.1,0.3L0.2,61.3C-0.4,62.5,0.5,64,1.9,64h21.9c0.7,0,1.4-0.4,1.7-1C30.2,53.2,27.3,38.4,19,29.6
	L19,29.6z M30.5,1C15.3,25.2,29.5,44.6,38.7,63c0.3,0.6,1,1,1.7,1h21.8c1.4,0,2.3-1.5,1.7-2.7c0,0-29.3-58.8-30-60.3
	C33.1-0.3,31.4-0.3,30.5,1z"/>
</svg>
