<?xml version="1.0" encoding="utf-8"?>
<!-- Generator: Adobe Illustrator 22.0.1, SVG Export Plug-In . SVG Version: 6.00 Build 0)  -->
<svg version="1.1" id="Layer_1" xmlns="http://www.w3.org/2000/svg" xmlns:xlink="http://www.w3.org/1999/xlink" x="0px" y="0px"
	 viewBox="0 0 64 64" style="enable-background:new 0 0 64 64;" xml:space="preserve">
<path d="M18,26.7C18,29,19.1,30,19.1,30.6c0,0.3-0.2,0.5-0.4,0.6l-1.3,0.9c-0.2,0.1-0.4,0.2-0.6,0.2c0,0-0.8,0.2-2-2.6
	c-1.5,1.9-3.8,3-6.3,2.9c-1.6,0.1-6-0.9-5.8-5.6c-0.2-3.8,3.4-6.2,7.1-6c0.7,0,2.2,0,4.7,0.6v-1.6c0.3-2.6-1.5-4.7-4.5-4.4
	c-0.2,0-1.9,0-4.6,1C4.7,17.1,4.7,17,4.4,17c-0.7,0-0.4-2.1-0.3-2.4c0.5-0.6,3.6-1.8,6.6-1.8c2-0.2,4,0.4,5.6,1.7
	c1.3,1.4,1.9,3.3,1.8,5.2L18,26.7L18,26.7z M9.4,29.9c3.2,0,4.6-2,4.9-3c0.2-1,0.2-1.6,0.2-2.7c-1-0.2-2.4-0.5-4-0.5
	c-1.5-0.1-4.3,0.6-4.2,3.2C6.3,28.6,7.5,30,9.4,29.9z M26.5,32.2c-0.8,0.1-1.2-0.5-1.3-1l-5-16.5c-0.1-0.3-0.2-0.6-0.2-0.9
	c0-0.3,0.1-0.5,0.4-0.5c0,0-0.2,0,2.2,0c0.9-0.1,1.2,0.6,1.3,1l3.6,14.1l3.3-14.1c0.1-0.3,0.3-1.1,1.3-1h1.7c0.2,0,1.1,0,1.3,1
	l3.3,14.3l3.7-14.3c0-0.2,0.3-1.1,1.3-1h2c0.1,0,0.6-0.1,0.5,0.9c0,0.2,0.3-1.1-5.3,17c-0.1,0.6-0.5,1.1-1.3,1h-1.9
	c-1.1,0.1-1.3-1-1.3-1.1l-3.3-13.7l-3.3,13.7c0,0.1-0.2,1.2-1.3,1.1L26.5,32.2L26.5,32.2z M53.8,32.8c-0.6,0-3.4,0-5.7-1.2
	c-0.5-0.2-0.8-0.7-0.8-1.2v-1.1c0-0.8,0.6-0.7,0.9-0.6c1,0.4,1.6,0.7,2.9,1c3.7,0.8,5.3-0.2,5.7-0.4c1.3-0.8,1.4-2.6,0.5-3.5
	c-1-0.9-1.5-0.9-5.3-2.1c-0.5-0.1-4.4-1.4-4.4-5.2c-0.1-2.8,2.5-5.6,7-5.6c1.3,0,4.6,0.4,5.6,1.6c0.1,0.2,0.2,0.5,0.2,0.7v1
	c0,0.4-0.2,0.7-0.5,0.7c-0.8-0.1-2.1-1.1-4.9-1.1c-0.7,0-4,0.1-3.8,2.5c0,1.9,2.7,2.6,3,2.7c3.6,1.1,4.9,1.3,6.3,3
	c1.7,2.2,0.8,4.8,0.4,5.5C58.9,33.1,53.9,32.8,53.8,32.8L53.8,32.8z M57.9,43.3c-7,5.2-17.2,7.9-25.8,7.9C20.3,51.3,9,47,0.3,39.1
	c-0.7-0.6-0.1-1.4,0.7-0.9c9.6,5.5,20.6,8.4,31.7,8.4c8.3,0,16.5-1.7,24.2-5C58,41.2,59,42.4,57.9,43.3L57.9,43.3z M60.8,40
	c-0.9-1.2-5.9-0.5-8.2-0.3c-0.7,0.1-0.8-0.5-0.2-0.9c4-2.8,10.6-2,11.3-1.1c0.8,0.9-0.2,7.5-4,10.7c-0.6,0.5-1.1,0.2-0.9-0.4
	C59.8,45.8,61.7,41.1,60.8,40z"/>
</svg>
