<?xml version="1.0" encoding="utf-8"?>
<!-- Generator: Adobe Illustrator 23.0.0, SVG Export Plug-In . SVG Version: 6.00 Build 0)  -->
<svg version="1.1" id="Layer_1" xmlns="http://www.w3.org/2000/svg" xmlns:xlink="http://www.w3.org/1999/xlink" x="0px" y="0px"
	 viewBox="0 0 64 64" style="enable-background:new 0 0 64 64;" xml:space="preserve">
<path d="M56,0.5c-1.6-0.8-3.5-0.5-4.8,0.3L10.7,30.7v-28C10.7,1.1,9.6,0,8,0S5.3,1.1,5.3,2.7v58.7C5.3,62.9,6.4,64,8,64
	s2.7-1.1,2.7-2.7v-28l40.5,29.9c0.8,0.5,1.9,0.8,2.7,0.8s1.3-0.3,2.1-0.5c1.6-0.8,2.7-2.4,2.7-4.3V4.5C58.7,2.9,57.6,1.3,56,0.5z
	 M53.3,57.9L17.9,32L53.3,6.1V57.9z"/>
</svg>
