<?xml version="1.0" encoding="utf-8"?>
<!-- Generator: Adobe Illustrator 23.0.0, SVG Export Plug-In . SVG Version: 6.00 Build 0)  -->
<svg version="1.1" id="Layer_1" xmlns="http://www.w3.org/2000/svg" xmlns:xlink="http://www.w3.org/1999/xlink" x="0px" y="0px"
	 viewBox="0 0 64 64" style="enable-background:new 0 0 64 64;" xml:space="preserve">
<path d="M41.7,0c-5,0-9.6,2.9-12.2,7.7c-1.9-0.8-3.7-1.3-5.8-1.3c-8.5,0-15.4,8.2-15.4,18.3c0,8.8,5.6,18.6,13,20.4
	c-0.3,0.8-0.5,1.6-0.8,2.7c-0.8,2.7,0,5,0.5,7.2c0.5,2.4,1.1,3.7,0.3,4.8c-0.8,1.3-0.5,2.9,0.8,3.7c0.5,0.3,1.1,0.5,1.3,0.5
	c0.8,0,1.6-0.5,2.1-1.3c2.1-3.2,1.3-6.4,0.5-9c-0.5-1.6-0.8-3.2-0.5-4.2c0.3-1.1,0.5-2.1,1.1-3.2c0-0.3,0.3-0.8,0.3-1.1
	c4.2-1.3,7.7-5,9.8-9.6c0.3,0.3,0.8,0.3,1.1,0.5c0,0.3-0.3,0.3-0.3,0.5c-0.3,1.1-0.8,2.1-1.1,3.5c-0.8,2.7,0,5,0.5,7.2
	c0.5,2.4,1.1,3.7,0.3,4.8c-0.8,1.3-0.5,2.9,0.8,3.7c0.5,0.3,1.1,0.5,1.3,0.5c0.8,0,1.6-0.5,2.1-1.3c2.1-3.2,1.3-6.4,0.5-9
	c-0.5-1.6-0.8-3.2-0.5-4.2c0.3-1.1,0.5-2.1,1.1-3.2c0.3-0.5,0.3-1.1,0-1.6c0.5,0,1.3-0.3,1.9-0.3c7.2-2.1,11.4-11.7,11.4-19.1
	C56,7.7,49.7,0,41.7,0z M23.6,40.1c-5,0-10.1-7.7-10.1-15.4c0-7.2,4.5-13,10.1-13s10.1,5.8,10.1,13C33.7,32.4,28.9,40.1,23.6,40.1z
	 M43,31.1c-1.1,0.3-1.9,0.3-2.9,0c-0.5-0.3-1.1-0.5-1.6-0.8c0.5-1.9,0.8-3.7,0.8-5.6c0-5.6-2.1-10.4-5.3-13.8
	c1.6-3.5,4.5-5.6,7.7-5.6c5,0,9,5.3,9,11.7S47,29.7,43,31.1z"/>
</svg>
