<?xml version="1.0" encoding="utf-8"?>
<!-- Generator: Adobe Illustrator 23.0.0, SVG Export Plug-In . SVG Version: 6.00 Build 0)  -->
<svg version="1.1" id="Layer_2_1_" xmlns="http://www.w3.org/2000/svg" xmlns:xlink="http://www.w3.org/1999/xlink" x="0px" y="0px"
	 viewBox="0 0 64 64" style="enable-background:new 0 0 64 64;" xml:space="preserve">
<path d="M32,0C14.4,0,0,14.4,0,32s14.4,32,32,32s32-14.4,32-32C63.7,14.4,49.3,0,32,0z M5.3,32c0-14.7,12-26.7,26.7-26.7
	c6.4,0,12.3,2.4,16.8,6.1L11.5,49.1C7.7,44.3,5.3,38.4,5.3,32z M32,58.7c-6.4,0-12.3-2.1-16.8-5.9l37.3-37.3
	c3.7,4.5,5.9,10.4,5.9,16.8C58.4,46.7,46.4,58.7,32,58.7z"/>
</svg>
