<?xml version="1.0" encoding="utf-8"?>
<!-- Generator: Adobe Illustrator 23.0.0, SVG Export Plug-In . SVG Version: 6.00 Build 0)  -->
<svg version="1.1" id="Layer_1" xmlns="http://www.w3.org/2000/svg" xmlns:xlink="http://www.w3.org/1999/xlink" x="0px" y="0px"
	 viewBox="0 0 64 64" style="enable-background:new 0 0 64 64;" xml:space="preserve">
<path d="M58.2,13.5c-4-5.6-9.8-9.8-16.2-12c-4.3-1.3-8.8-1.9-13.6-1.3C22.8,1,18,2.9,13.8,5.8C9.3,9,6.1,13,3.7,17.7
	c-2.1,4.5-3.5,9-3.5,13.6c0,6.9,1.9,13.6,5.8,19.4s9.6,9.8,16.2,12c3.2,1.1,6.4,1.3,9.6,1.3c1.3,0,2.7,0,4-0.3
	c5.6-0.8,10.4-2.7,14.6-5.6c4.5-3.2,7.7-7.2,10.1-12c2.1-4.3,3.2-8.8,3.2-13.3C64,26,62.2,19.3,58.2,13.5z M58.7,32.9
	c0,1.3-0.3,2.4-0.5,3.7c-5.6,0.8-10.9,2.7-15.7,5.6l-6.6-9.3l19.4-13.8C57.6,23.3,58.7,27.8,58.7,32.9z M52.1,14.6L32.7,28.4
	L26,19.1c4.5-3.7,8-8.2,10.4-13.3c1.1,0.3,2.4,0.5,3.5,0.8C44.9,8.2,48.9,11.1,52.1,14.6z M28.9,5.8c0.8,0,1.3,0,1.9,0
	c-2.1,3.5-4.5,6.6-7.7,9.3L18.8,9C22,7.4,25.2,6.1,28.9,5.8z M14.6,12.2l4.3,5.8c-3.5,2.1-7.4,3.5-11.4,4.3c0.3-0.5,0.5-1.3,0.8-1.9
	C9.8,17.2,11.9,14.6,14.6,12.2z M5.5,31.3c0-1.1,0.3-2.4,0.3-3.5c5.6-0.8,11.2-2.7,15.9-5.6l6.6,9.3L9.3,45.4
	C6.6,41.1,5.5,36.4,5.5,31.3z M12.2,49.6l19.4-13.8l6.6,9.3c-4.3,3.7-8,8-10.4,13c-1.3-0.3-2.4-0.5-3.7-0.8
	C19.4,56,15.4,53.4,12.2,49.6z M35.3,58.4c-0.5,0-1.1,0-1.6,0c1.9-3.5,4.5-6.4,7.7-9l4,5.6C42.2,56.8,39,57.9,35.3,58.4z M49.7,52
	l-4-5.6c3.5-2.1,7.2-3.5,11.2-4.3c-0.3,0.5-0.5,1.1-0.5,1.6C54.4,47,52.3,49.6,49.7,52z"/>
</svg>
