<?xml version="1.0" encoding="utf-8"?>
<!-- Generator: Adobe Illustrator 22.0.1, SVG Export Plug-In . SVG Version: 6.00 Build 0)  -->
<svg version="1.1" id="Layer_1" xmlns="http://www.w3.org/2000/svg" xmlns:xlink="http://www.w3.org/1999/xlink" x="0px" y="0px"
	 viewBox="0 0 64 64" style="enable-background:new 0 0 64 64;" xml:space="preserve">
<g>
	<path d="M24.8,32c1.4-1.1,2.5-2.5,3.3-4.1c1.8-3.9,1.6-8.2-0.7-11.7c-2.2-3.4-5.9-5.5-10-5.5H6.1c-3.3,0-6,2.7-6,6v12.7v5v12.7
		c0,2.9,2.3,6,7.2,6h10.3c4.4,0,9.1-3,10.8-6.9c1.7-4,1.3-8.2-0.9-11.6C26.7,33.7,25.8,32.8,24.8,32z M5.1,16.8c0-0.6,0.5-1,1-1
		h11.3c2.3,0,4.5,1.2,5.8,3.2c1.3,2,1.4,4.5,0.3,6.9c-1,2.2-3.4,3.7-6.1,3.7h0H5.1V16.8z M23.7,44.4c-0.8,2-3.8,3.8-6.2,3.8H7.3
		c-0.5,0-2.2-0.1-2.2-1V34.5h12.4c2.3,0,4.5,1.1,5.8,3.1C24.5,39.5,24.7,42,23.7,44.4z"/>
	<path d="M40,18.4h21.4c1.4,0,2.5-1.1,2.5-2.5s-1.1-2.5-2.5-2.5H40c-1.4,0-2.5,1.1-2.5,2.5S38.6,18.4,40,18.4z"/>
	<path d="M63,38.5c0-0.1,0.1-0.1,0.1-0.2c0-0.1,0-0.2,0.1-0.2c0-0.1,0-0.2,0.1-0.2c0-0.1,0-0.2,0-0.2c0-0.1,0-0.1,0-0.2
		c0,0,0-0.1,0-0.1c0,0,0-0.1,0-0.1C62.7,29.8,56.5,24,49.1,24c-7.4,0-13.6,5.8-14.1,13.1c0,0.1,0,0.1,0,0.2c0,0,0,0,0,0c0,0,0,0,0,0
		c0,0.2,0,0.5,0,0.8c0,7.8,6.3,14.1,14.1,14.1c3.4,0,6.8-1.2,9.3-3.5c1-0.9,1.1-2.5,0.2-3.5c-0.9-1-2.5-1.1-3.5-0.2
		c-1.6,1.4-3.8,2.2-6,2.2c-4.4,0-8.1-3.2-8.9-7.4h20.6c0,0,0.1,0,0.1,0c0,0,0.1,0,0.1,0c0.1,0,0.1,0,0.2,0c0.1,0,0.2,0,0.3,0
		c0.1,0,0.2,0,0.2-0.1c0.1,0,0.2-0.1,0.2-0.1c0.1,0,0.1-0.1,0.2-0.1c0.1,0,0.1-0.1,0.2-0.1c0.1,0,0.1-0.1,0.2-0.2
		c0.1-0.1,0.1-0.1,0.2-0.2c0.1-0.1,0.1-0.1,0.1-0.2c0.1-0.1,0.1-0.1,0.1-0.2C62.9,38.6,62.9,38.5,63,38.5z M49.1,29
		c3.9,0,7.2,2.4,8.5,5.8h-17C42,31.4,45.3,29,49.1,29z"/>
</g>
</svg>
