<?xml version="1.0" encoding="utf-8"?>
<!-- Generator: Adobe Illustrator 23.0.0, SVG Export Plug-In . SVG Version: 6.00 Build 0)  -->
<svg version="1.1" id="Layer_2_1_" xmlns="http://www.w3.org/2000/svg" xmlns:xlink="http://www.w3.org/1999/xlink" x="0px" y="0px"
	 viewBox="0 0 64 64" style="enable-background:new 0 0 64 64;" xml:space="preserve">
<g>
	<g>
		<path d="M12,36C5.3,36,0,41.3,0,48s5.3,12,12,12s12-5.3,12-12S18.7,36,12,36z M12,54.7c-3.7,0-6.7-2.9-6.7-6.7s2.9-6.7,6.7-6.7
			s6.7,2.9,6.7,6.7S15.7,54.7,12,54.7z"/>
		<path d="M52,36c-6.7,0-12,5.3-12,12s5.3,12,12,12s12-5.3,12-12S58.4,36,52,36z M52,54.7c-3.7,0-6.7-2.9-6.7-6.7s2.9-6.7,6.7-6.7
			s6.7,2.9,6.7,6.7S55.5,54.7,52,54.7z"/>
		<path d="M46.7,30.7c0.8,1.1,2.7,1.3,3.7,0.5c1.1-0.8,1.3-2.7,0.5-3.7l-8.8-11.2L41.9,16c-1.1-1.1-2.7-1.3-4.3-0.5l-12,6.9
			C24.5,22.9,24,24,24,25.1s0.3,2.1,0.8,2.7l4,4.5c0.5,0.5,0.8,1.3,0.8,2.1v6.9c0,1.6,1.1,2.7,2.7,2.7c1.6,0,2.7-1.1,2.7-2.7v-6.9
			c0-2.1-0.8-4-2.1-5.6l-2.7-2.9l8.8-5.1L46.7,30.7z"/>
		<path d="M49.3,17.3c3.7,0,6.7-2.9,6.7-6.7S53.1,4,49.3,4c-3.7,0-6.7,2.9-6.7,6.7S45.6,17.3,49.3,17.3z M49.3,9.3
			c0.8,0,1.3,0.5,1.3,1.3c0,0.8-0.5,1.3-1.3,1.3c-0.8,0-1.3-0.5-1.3-1.3C48,9.9,48.5,9.3,49.3,9.3z"/>
	</g>
</g>
</svg>
