<?xml version="1.0" encoding="utf-8"?>
<!-- Generator: Adobe Illustrator 22.0.1, SVG Export Plug-In . SVG Version: 6.00 Build 0)  -->
<svg version="1.1" id="Layer_1" xmlns="http://www.w3.org/2000/svg" xmlns:xlink="http://www.w3.org/1999/xlink" x="0px" y="0px"
	 viewBox="0 0 64 64" style="enable-background:new 0 0 64 64;" xml:space="preserve">
<g>
	<path d="M19.8,13c0,4.3,6.1,6.2,12.2,6.2c6.1,0,12.2-1.9,12.2-6.2S38.1,6.8,32,6.8C25.9,6.8,19.8,8.7,19.8,13z M32,12.2
		c2.7,0,4.6,0.4,5.7,0.8c-1.2,0.4-3.1,0.8-5.7,0.8c-2.7,0-4.6-0.4-5.7-0.8C27.4,12.6,29.3,12.2,32,12.2z"/>
	<path d="M31.5,19.8c-3.7,0-6.7,3-6.7,6.7s3,6.7,6.7,6.7c3.7,0,6.7-3,6.7-6.7S35.2,19.8,31.5,19.8z M31.5,27.8
		c-0.7,0-1.3-0.6-1.3-1.3s0.6-1.3,1.3-1.3s1.3,0.6,1.3,1.3S32.2,27.8,31.5,27.8z"/>
	<path d="M53.5,3.5C48.4,1.2,36.9,0,30.7,0c-6.1,0-15,1.2-20.2,3.5c-1.3,0.6-2,1.9-1.9,3.3l2.6,24.8c0.1,1.1,0.8,2,1.7,2.5
		c2.4,1.2,10.9,5.2,17.7,5.2c7,0,16.8-1.9,21-5.5c0.6-0.5,1-1.3,1.1-2.1l2.6-24.9C55.6,5.4,54.8,4.1,53.5,3.5z M47.6,30.2
		C44.4,32.3,37,34,30.7,34c-5,0-11.7-2.9-14.3-4.1L14,7.8c4.2-1.5,11-2.5,16.6-2.5c5.8,0,14.7,1,19.3,2.5L47.6,30.2z"/>
	<path d="M50.4,39.1c-0.9-0.7-2.1-0.8-3.2-0.3c-2.5,1.1-10.9,3.7-16.5,3.6c-6-0.1-11.6-2.6-14-3.6c-1-0.5-2.3-0.3-3.2,0.3
		c-0.9,0.7-1.4,1.8-1.3,3l1.7,16c0.1,1.2,0.8,2.2,1.9,2.8c4.1,2,9.3,3.2,14.8,3.2c5.4,0,13.3-1.1,17.4-3.2c1.1-0.5,1.8-1.6,1.9-2.8
		l1.7-16v0C51.8,40.9,51.3,39.8,50.4,39.1z M44.8,56.5c-3.2,1.3-9.2,2.2-14.1,2.2c-4.3,0-8.3-0.8-11.5-2.2L18,45
		c3.2,1.2,7.7,2.6,12.6,2.7c5.1,0.1,11.4-1.5,15.4-2.8L44.8,56.5z"/>
</g>
</svg>
