<?xml version="1.0" encoding="utf-8"?>
<!-- Generator: Adobe Illustrator 22.0.1, SVG Export Plug-In . SVG Version: 6.00 Build 0)  -->
<svg version="1.1" id="Layer_1" xmlns="http://www.w3.org/2000/svg" xmlns:xlink="http://www.w3.org/1999/xlink" x="0px" y="0px"
	 viewBox="0 0 64 64" style="enable-background:new 0 0 64 64;" xml:space="preserve">
<path d="M47.3,32c3.9-2.7,6.5-7.2,6.5-12.3c0-8-6.4-14.5-14.3-14.7V2.5c0-1.4-1.1-2.5-2.5-2.5s-2.5,1.1-2.5,2.5V5h-4V2.5
	c0-1.4-1.1-2.5-2.5-2.5s-2.5,1.1-2.5,2.5V5h-8h-2.5h-2.5c-1.4,0-2.5,1.1-2.5,2.5s1.1,2.5,2.5,2.5h2.5v19.5v5V54h-2.5
	c-1.4,0-2.5,1.1-2.5,2.5s1.1,2.5,2.5,2.5h2.5h2.5h8v2.5c0,1.4,1.1,2.5,2.5,2.5s2.5-1.1,2.5-2.5V59h4v2.5c0,1.4,1.1,2.5,2.5,2.5
	s2.5-1.1,2.5-2.5V59c7.9-0.2,14.3-6.7,14.3-14.7C53.9,39.2,51.3,34.7,47.3,32z M20.1,10h19.1c5.4,0,9.8,4.4,9.8,9.8
	s-4.4,9.8-9.8,9.8H20.1V10z M39.1,54H20.1V34.5h19.1c5.4,0,9.8,4.4,9.8,9.8S44.5,54,39.1,54z"/>
</svg>
