<?xml version="1.0" encoding="utf-8"?>
<!-- Generator: Adobe Illustrator 23.0.0, SVG Export Plug-In . SVG Version: 6.00 Build 0)  -->
<svg version="1.1" id="Layer_1" xmlns="http://www.w3.org/2000/svg" xmlns:xlink="http://www.w3.org/1999/xlink" x="0px" y="0px"
	 viewBox="0 0 64 64" style="enable-background:new 0 0 64 64;" xml:space="preserve">
<path d="M59.7,8H34.7V5.3c0-1.6-1.1-2.7-2.7-2.7c-1.6,0-2.7,1.1-2.7,2.7V8H4.3C1.9,8,0,9.9,0,12.3v26.1c0,2.4,1.9,4.3,4.3,4.3h10.9
	L6.9,57.3c-0.8,1.3-0.3,2.9,1.1,3.7c0.3,0.3,0.8,0.3,1.3,0.3c1.1,0,1.9-0.5,2.4-1.3l9.6-17.3h8v16c0,1.6,1.1,2.7,2.7,2.7
	c1.6,0,2.7-1.1,2.7-2.7v-16h8.3L52.8,60c0.5,0.8,1.3,1.3,2.4,1.3c0.5,0,0.8,0,1.3-0.3c1.3-0.8,1.9-2.4,1.1-3.7l-8.5-14.7h10.7
	c2.4,0,4.3-1.9,4.3-4.3V12.3C64,9.9,62.1,8,59.7,8z M58.7,37.3H5.3v-24h53.3V37.3z"/>
</svg>
