<?xml version="1.0" encoding="utf-8"?>
<!-- Generator: Adobe Illustrator 22.0.1, SVG Export Plug-In . SVG Version: 6.00 Build 0)  -->
<svg version="1.1" id="Layer_1" xmlns="http://www.w3.org/2000/svg" xmlns:xlink="http://www.w3.org/1999/xlink" x="0px" y="0px"
	 viewBox="0 0 64 64" style="enable-background:new 0 0 64 64;" xml:space="preserve">
<path d="M63.8,27.2c-0.3-1.1-1-2.2-1.8-2.6c-0.3-0.1-1.9-0.3-3.6-0.4c-2.9-0.1-3.2-0.2-4.1-0.7c-1.4-0.8-1.8-1.7-1.8-4.2
	c0-4.7-2-9.1-5.8-13c-2.8-2.8-5.8-4.7-9.4-5.8c-0.8-0.3-2.7-0.3-9-0.4c-9.9-0.1-12.1,0.1-15.5,1.4C6.6,3.9,2.1,9.2,0.5,15.8
	C0.2,17.1,0.1,19.1,0,30.7C-0.1,45.2,0,47.3,1,50.2C1.7,52.6,2.5,54,4,56.1c3,3.9,7.4,6.8,11.8,7.6C18,64,44,64.1,46.7,63.8l0,0
	c4.6-0.6,8.3-2.5,11.7-6c2.5-2.5,4-5.3,5-8.9c0.4-1.5,0.5-2.2,0.5-11.1C64,31.2,64,28,63.8,27.2z M17.8,18.2
	c1.1-1.1,1.4-1.2,8.4-1.2c6.3,0,6.5,0,7.4,0.5c1.3,0.7,1.9,1.6,1.9,3.1c0,1.4-0.5,2.3-1.8,3.1c-0.6,0.4-1,0.4-7.2,0.5
	c-3.8,0-6.8-0.1-7.3-0.2C16.9,23.3,16.1,19.9,17.8,18.2z M45.2,46.7L43.1,47L32,47.2c-9.7,0.1-12.5-0.1-13-0.3c-1-0.4-2-1.7-2.1-2.8
	c-0.2-1,0.4-2.5,1.2-3.2c1-0.9,1.5-0.9,13.9-1c12.8,0,12.7,0,13.9,1.1C47.6,42.7,47.2,45.5,45.2,46.7z"/>
</svg>
