<?xml version="1.0" encoding="utf-8"?>
<!-- Generator: Adobe Illustrator 22.0.1, SVG Export Plug-In . SVG Version: 6.00 Build 0)  -->
<svg version="1.1" id="Layer_1" xmlns="http://www.w3.org/2000/svg" xmlns:xlink="http://www.w3.org/1999/xlink" x="0px" y="0px"
	 viewBox="0 0 64 64" style="enable-background:new 0 0 64 64;" xml:space="preserve">
<path d="M51.7,43.9l-18-11.8l17.7-11.8c1.3-0.8,1.9-2.1,1.9-3.8c0-1.6-0.8-2.9-1.9-3.8l-18-12.1c-1.3-0.8-2.9-1.1-4.6-0.3
	c-1.3,0.8-2.1,2.4-2.1,4v22.8l-12.1-8c-1.3-0.8-2.9-0.5-3.8,0.8s-0.5,2.9,0.8,3.8l12.6,8.3L12,40.4c-1.3,0.8-1.6,2.4-0.8,3.8
	c0.5,0.8,1.3,1.1,2.1,1.1c0.5,0,1.1-0.3,1.6-0.5l11.8-8v22.8c0,1.6,0.8,3.2,2.4,4c0.5,0.3,1.3,0.5,2.1,0.5c0.8,0,1.6-0.3,2.4-0.8
	l18-12.1c1.3-0.8,1.9-2.1,1.9-3.8C53.5,46.3,52.7,44.7,51.7,43.9z M32.1,6.1l15.5,10.5L32.1,26.7V6.1z M32.1,58.1V37.5l15.5,10.5
	L32.1,58.1z"/>
</svg>
