<?xml version="1.0" encoding="utf-8"?>
<!-- Generator: Adobe Illustrator 23.0.0, SVG Export Plug-In . SVG Version: 6.00 Build 0)  -->
<svg version="1.1" id="Layer_2_1_" xmlns="http://www.w3.org/2000/svg" xmlns:xlink="http://www.w3.org/1999/xlink" x="0px" y="0px"
	 viewBox="0 0 64 64" style="enable-background:new 0 0 64 64;" xml:space="preserve">
<g>
	<path d="M25.3,64c-0.3,0-0.8,0-1.1-0.3c-1.1-0.6-1.7-1.7-1.7-3.1l3.9-20.5H7.3c-1.1,0-2-0.6-2.5-1.7c-0.6-0.8-0.3-2,0.3-2.8
		L30.9,1.2c0.8-0.8,2-1.4,3.1-1.1c1.1,0.6,2,1.7,2,2.8v17.7h20.7c1.1,0,2,0.6,2.5,1.7c0.6,1.1,0.3,2.2-0.3,3.1L27.5,63.2
		C27,63.7,26.1,64,25.3,64z M12.9,34.6h16.8c0.8,0,1.7,0.3,2.2,1.1c0.6,0.6,0.8,1.4,0.6,2.2L30,51.1l20.7-25H33.1
		c-1.7,0-2.8-1.1-2.8-2.8V11.3L12.9,34.6z"/>
</g>
</svg>
