<?xml version="1.0" encoding="utf-8"?>
<!-- Generator: Adobe Illustrator 22.0.1, SVG Export Plug-In . SVG Version: 6.00 Build 0)  -->
<svg version="1.1" id="Layer_1" xmlns="http://www.w3.org/2000/svg" xmlns:xlink="http://www.w3.org/1999/xlink" x="0px" y="0px"
	 viewBox="0 0 64 64" style="enable-background:new 0 0 64 64;" xml:space="preserve">
<path d="M48.1,0h-32c-2.9,0-5.3,2.4-5.3,5.3v53.3c0,2.1,1.3,4,3.2,4.8c0.5,0.5,1.3,0.5,2.1,0.5c1.3,0,2.4-0.5,3.5-1.3l11.5-10.1
	c0.5-0.5,1.3-0.5,1.9,0l11.5,10.1c1.6,1.3,3.7,1.9,5.6,0.8c1.9-0.8,3.2-2.7,3.2-4.8V5.3C53.4,2.4,51,0,48.1,0z M48.1,58.6L36.7,48.5
	l-0.3-0.3c-2.4-1.9-6.1-1.9-8.8,0L16.1,58.6V5.3h32V58.6z"/>
</svg>
