<?xml version="1.0" encoding="utf-8"?>
<!-- Generator: Adobe Illustrator 22.0.1, SVG Export Plug-In . SVG Version: 6.00 Build 0)  -->
<svg version="1.1" id="Layer_1" xmlns="http://www.w3.org/2000/svg" xmlns:xlink="http://www.w3.org/1999/xlink" x="0px" y="0px"
	 viewBox="0 0 64 64" style="enable-background:new 0 0 64 64;" xml:space="preserve">
<path d="M58.7,21.3H29.3V12c0-2.1-1.9-4-4-4H12c-2.1,0-4,1.9-4,4v9.3H5.3c-2.9,0-5.3,2.4-5.3,5.3v24C0,53.6,2.4,56,5.3,56h53.3
	c2.9,0,5.3-2.4,5.3-5.3v-24C64,23.7,61.6,21.3,58.7,21.3z M13.3,13.3H24v15.7l-2.4-1.9l-0.3-0.3c-1.6-1.1-3.7-1.1-5.3,0l-2.7,2.1
	V13.3z M5.3,50.7v-24H8V32c0,1.6,0.8,2.9,2.1,3.7c0.5,0.3,1.1,0.5,1.9,0.5s1.9-0.3,2.4-0.8l4.3-3.5l4.3,3.2c1.3,1.1,2.9,1.1,4.3,0.5
	c1.3-0.8,2.1-2.1,2.1-3.7v-5.3h29.3v24H5.3z"/>
</svg>
