<?xml version="1.0" encoding="utf-8"?>
<!-- Generator: Adobe Illustrator 22.0.1, SVG Export Plug-In . SVG Version: 6.00 Build 0)  -->
<svg version="1.1" id="Layer_1" xmlns="http://www.w3.org/2000/svg" xmlns:xlink="http://www.w3.org/1999/xlink" x="0px" y="0px"
	 viewBox="0 0 64 64" style="enable-background:new 0 0 64 64;" xml:space="preserve">
<path d="M41.8,40c0,6.1-5.7,5.9-6.3,5.9H23.9V34.2h11.6C41.6,34.2,41.8,38.8,41.8,40z M34.6,29.5c0.1,0,5.5,0.1,5.5-5.2
	c0-2.2-0.5-5.1-5.5-5.1H23.9v10.3H34.6z M64,10.7v42.7C64,59.2,59.2,64,53.3,64H10.7C4.8,64,0,59.2,0,53.3V10.7C0,4.8,4.8,0,10.7,0
	h42.7C59.2,0,64,4.8,64,10.7z M48.3,40.8c0-3.1-0.9-8.3-7-9.6v-0.1c3.3-1.4,5.3-4,5.3-7.9c0-1,0.3-9.3-11.1-9.3H17.4v37.3
	c18.3,0,20,0.2,23.4-0.8C42.8,49.8,48.3,47.9,48.3,40.8z"/>
</svg>
