<?xml version="1.0" encoding="utf-8"?>
<!-- Generator: Adobe Illustrator 23.0.0, SVG Export Plug-In . SVG Version: 6.00 Build 0)  -->
<svg version="1.1" id="Layer_1" xmlns="http://www.w3.org/2000/svg" xmlns:xlink="http://www.w3.org/1999/xlink" x="0px" y="0px"
	 viewBox="0 0 64 64" style="enable-background:new 0 0 64 64;" xml:space="preserve">
<path d="M58.7,29.3h-5.3v-8c0-2.9-2.4-5.3-5.3-5.3H16c-2.9,0-5.3,2.4-5.3,5.3v8H5.3c-2.9,0-5.3,2.4-5.3,5.3v8C0,45.6,2.4,48,5.3,48
	h53.3c2.9,0,5.3-2.4,5.3-5.3v-8C64,31.7,61.6,29.3,58.7,29.3z M48,29.3H34.7v-8H48V29.3z M40,34.7v8H24v-8H40z M16,21.3h13.3v8H16
	V21.3z M5.3,34.7h13.3v8H5.3V34.7z M45.3,42.7v-8h13.3v8H45.3z"/>
</svg>
