<?xml version="1.0" encoding="utf-8"?>
<!-- Generator: Adobe Illustrator 23.0.0, SVG Export Plug-In . SVG Version: 6.00 Build 0)  -->
<svg version="1.1" id="Layer_1" xmlns="http://www.w3.org/2000/svg" xmlns:xlink="http://www.w3.org/1999/xlink" x="0px" y="0px"
	 viewBox="0 0 64 64" style="enable-background:new 0 0 64 64;" xml:space="preserve">
<path d="M61.3,30.7h-6.7c-3.2-9.3-12.3-16-22.7-16s-19.7,6.7-22.7,16H2.7c-1.6,0-2.7,1.1-2.7,2.7C0,34.9,1.1,36,2.7,36H8v10.7
	c0,1.6,1.1,2.7,2.7,2.7s2.7-1.1,2.7-2.7v-8.8l0,0c0-0.5,0-1.3,0-1.9h37.3c0,0.5,0,1.3,0,1.9l0,0v8.8c0,1.6,1.1,2.7,2.7,2.7
	c1.6,0,2.7-1.1,2.7-2.7V36h5.3c1.6,0,2.7-1.1,2.7-2.7C64,31.7,62.9,30.7,61.3,30.7z M24,21.6c1.6-0.8,3.5-1.3,5.3-1.6v10.7H24V21.6z
	 M34.7,20.3c1.9,0.3,3.7,0.8,5.3,1.6v8.8h-5.3V20.3z M18.7,25.3v5.3h-3.7C15.7,28.8,17.1,26.9,18.7,25.3z M45.3,30.7v-5.3
	c1.6,1.6,2.9,3.2,3.7,5.3H45.3z"/>
</svg>
