<?xml version="1.0" encoding="utf-8"?>
<!-- Generator: Adobe Illustrator 23.0.0, SVG Export Plug-In . SVG Version: 6.00 Build 0)  -->
<svg version="1.1" id="Layer_2_1_" xmlns="http://www.w3.org/2000/svg" xmlns:xlink="http://www.w3.org/1999/xlink" x="0px" y="0px"
	 viewBox="0 0 64 64" style="enable-background:new 0 0 64 64;" xml:space="preserve">
<path d="M60.3,16H44.8c-1.3-4.5-5.9-8-11.5-8h-2.9c-5.6,0-10.1,3.5-11.5,8H3.7C1.6,16,0,17.6,0,19.7v32.5C0,54.4,1.6,56,3.7,56h56.8
	c1.9,0,3.5-1.6,3.5-3.7V19.7C64,17.6,62.4,16,60.3,16z M30.4,13.3h2.9c2.4,0,4.5,1.1,5.6,2.7H24.8C26.1,14.4,28,13.3,30.4,13.3z
	 M18.7,21.3H24h16h5.3h13.3v8.8l-24.8,4.5c-0.3,0-0.5,0-1.1,0L5.3,29.6v-8.3H18.7z M5.3,50.7V34.9L32,40c0.5,0,1.1,0.3,1.6,0.3
	s1.1,0,1.6-0.3l23.7-4.5v15.2H5.3z"/>
</svg>
