<?xml version="1.0" encoding="utf-8"?>
<!-- Generator: Adobe Illustrator 23.0.0, SVG Export Plug-In . SVG Version: 6.00 Build 0)  -->
<svg version="1.1" id="Layer_2_1_" xmlns="http://www.w3.org/2000/svg" xmlns:xlink="http://www.w3.org/1999/xlink" x="0px" y="0px"
	 viewBox="0 0 64 64" style="enable-background:new 0 0 64 64;" xml:space="preserve">
<g>
	<path d="M63,22.4L41.6,1c-1.3-1.3-3.7-1.3-5.1,0L18.7,18.9c-4.5,4.5-5.1,11.7-1.6,16.8L2.4,50.6C0.8,52,0,53.8,0,56
		s0.8,4.3,2.4,5.6l0,0C4,63.2,5.9,64,8,64s4-0.8,5.6-2.4l14.7-14.7c2.1,1.6,4.8,2.4,7.5,2.4c3.5,0,6.9-1.3,9.6-4l17.9-17.9
		C64.3,26.1,64.3,24,63,22.4z M9.6,57.8c-1.1,1.1-2.7,1.1-3.5,0c-0.5-0.5-0.8-1.1-0.8-1.9c0-0.5,0.3-1.3,0.8-1.9l14.4-14.7l3.5,3.5
		L9.6,57.8z M29.9,41.6l-7.5-7.5c-3.2-3.2-3.2-8.3,0-11.5l2.1-2.1l18.9,18.9l-2.1,2.1C38.2,44.8,33.1,44.8,29.9,41.6z M47.5,35.4
		L28.5,16.5L39,5.8l18.9,18.9L47.5,35.4z"/>
	<ellipse cx="26.7" cy="29.3" rx="2.7" ry="2.7"/>
	<ellipse cx="34.7" cy="37.3" rx="2.7" ry="2.7"/>
</g>
</svg>
