<?xml version="1.0" encoding="utf-8"?>
<!-- Generator: Adobe Illustrator 23.0.0, SVG Export Plug-In . SVG Version: 6.00 Build 0)  -->
<svg version="1.1" id="Layer_2_1_" xmlns="http://www.w3.org/2000/svg" xmlns:xlink="http://www.w3.org/1999/xlink" x="0px" y="0px"
	 viewBox="0 0 64 64" style="enable-background:new 0 0 64 64;" xml:space="preserve">
<path d="M62.1,6c-2.7-2.7-7-2.7-9.6-0.3L17.7,38.1c-1.1,0-2.4,0.3-3.7,0.8c-2.4,1.1-3.5,2.9-4.5,4.5c-1.1,1.9-2.1,3.7-5.6,5.9
	L0,51.8l3.7,2.1c2.1,1.3,10.2,6.2,17.1,6.2c2.1,0,4-0.5,5.6-1.6c2.4-1.9,3.7-4.3,3.5-7v-0.3l32.1-35.3C64.8,12.9,64.5,8.7,62.1,6z
	 M23.3,54.2c-2.1,1.6-8.3-0.3-13.4-2.7c1.9-1.9,2.9-3.7,3.7-5.1c0.8-1.3,1.3-2.1,1.9-2.4c1.9-0.8,3.7,0,4,0c2.4,1.9,5.1,4.8,5.1,7.5
	C24.9,52,24.6,53.1,23.3,54.2z M58.1,12.1l-30,33.2c-1.3-2.1-3.2-4-4.8-5.4L55.9,9.7c0.5-0.5,1.6-0.5,2.1,0
	C58.9,10.3,58.9,11.3,58.1,12.1z"/>
</svg>
