<?xml version="1.0" encoding="utf-8"?>
<!-- Generator: Adobe Illustrator 23.0.0, SVG Export Plug-In . SVG Version: 6.00 Build 0)  -->
<svg version="1.1" id="Layer_2_1_" xmlns="http://www.w3.org/2000/svg" xmlns:xlink="http://www.w3.org/1999/xlink" x="0px" y="0px"
	 viewBox="0 0 64 64" style="enable-background:new 0 0 64 64;" xml:space="preserve">
<path d="M51.8,1.5c-4.2,0-7.7,2.1-9.8,5.3L15.7,9.4h-9C2.9,9.4,0,12.3,0,15.8v16.5c0,2.4,1.3,4.5,3.5,5.6L6.9,57
	c0.8,3.2,4,5.6,7.4,5.6c2.4,0,4.5-1.1,6.1-2.9c1.3-1.6,1.9-3.7,1.3-5.6l-2.7-15.7l22.8,5C44.1,46.9,47.8,49,52,49
	c6.6,0,12-5.3,12-12V13.1C63.7,6.8,58.4,1.5,51.8,1.5z M5.3,15.8c0-0.5,0.5-1.1,1.3-1.1h6.6v18.6H6.6c-0.8,0-1.3-0.5-1.3-1.1V15.8z
	 M16.2,56.4c-0.5,0.5-1.1,0.8-1.9,0.8c-1.1,0-1.9-0.8-2.1-1.3L9,38.6h4.5l2.9,16.7C16.5,55.6,16.5,56.2,16.2,56.4z M18.6,33.1V14.5
	l21.2-2.1c0,0.3,0,0.8,0,1.1v23.9c0,0.3,0,0.3,0,0.5L18.6,33.1z M58.4,37.3c0,3.7-2.9,6.6-6.6,6.6c-3.7,0-6.6-2.9-6.6-6.6V13.4
	c0-3.7,2.9-6.6,6.6-6.6c3.7,0,6.6,2.9,6.6,6.6V37.3z"/>
</svg>
