<?xml version="1.0" encoding="utf-8"?>
<!-- Generator: Adobe Illustrator 21.0.2, SVG Export Plug-In . SVG Version: 6.00 Build 0)  -->
<svg version="1.1" id="Layer_1" xmlns="http://www.w3.org/2000/svg" xmlns:xlink="http://www.w3.org/1999/xlink" x="0px" y="0px"
	 viewBox="0 0 64 64" style="enable-background:new 0 0 64 64;" xml:space="preserve">
<path d="M58.6,22.5c-1.1-9.6-9.4-17.1-19.3-17.1H25.2C20.1,5.4,15,7.5,11.5,11C8,14.2,6.2,18.2,5.6,22.8C2.4,24.4,0,27.9,0,31.6v0.8
	c0,4,2.4,7.5,5.6,9.1c1.1,9.6,9.4,17.1,19.3,17.1h14.2c5.1,0,10.2-2.1,13.7-5.6c3.2-3.2,5.1-7.2,5.6-11.5c3.5-1.6,5.6-5.1,5.6-9.1
	v-0.8C64.2,27.9,61.8,24.4,58.6,22.5z M24.9,10.7h14.2c6.4,0,12,4.6,13.7,10.7H11.5c0.5-2.4,1.9-4.8,3.7-6.7
	C17.7,12.1,21.1,10.7,24.9,10.7z M39.4,53.5H25.2c-6.7,0-12-4.6-13.7-10.7H53c-0.5,2.4-1.9,4.8-3.7,6.7
	C46.6,52.2,43.1,53.5,39.4,53.5z M59.2,32.7c0,2.7-2.7,4.8-5.7,4.8H10.7c-2.9,0-5.4-2.1-5.4-4.8v-0.8c0-2.7,2.4-4.8,5.4-4.8h43.4
	c2.7,0,5.1,2.1,5.1,5.1V32.7L59.2,32.7z"/>
</svg>
