<?xml version="1.0" encoding="utf-8"?>
<!-- Generator: Adobe Illustrator 23.0.0, SVG Export Plug-In . SVG Version: 6.00 Build 0)  -->
<svg version="1.1" id="Layer_1" xmlns="http://www.w3.org/2000/svg" xmlns:xlink="http://www.w3.org/1999/xlink" x="0px" y="0px"
	 viewBox="0 0 64 64" style="enable-background:new 0 0 64 64;" xml:space="preserve">
<g>
	<path d="M59.7,29.5h-0.8V19.3v-5.4V4.6c0-2.7-2.1-4.6-4.8-4.6H10.2C7.5,0,5.4,2.2,5.4,4.6v24.9H4.6C1.9,29.5,0,31.6,0,34v25.4
		C0,62.1,2.1,64,4.6,64h54.9c2.7,0,4.6-2.1,4.6-4.6V34C64.2,31.6,62.1,29.5,59.7,29.5z M53.5,5.4V15c-1.1,0.5-1.9,0.8-2.4,1.3
		c-1.3,1.1-2.4,1.6-4.8,1.6s-3.5-0.8-4.8-1.6c-1.6-1.1-3.7-2.4-7.8-2.4s-6.2,1.3-7.8,2.4c-1.3,0.8-2.4,1.6-4.8,1.6s-3.5-0.8-4.8-1.6
		c-1.9-0.5-3.2-1.6-5.6-2.1V5.4H53.5z M10.7,19.8c0.8,0.3,1.3,0.8,2.1,1.1c1.6,1.1,3.7,2.4,7.8,2.4s6.2-1.3,7.8-2.4
		c1.3-0.8,2.4-1.6,4.8-1.6s3.5,0.8,4.8,1.6c1.6,1.1,3.7,2.4,7.8,2.4c3.7,0,5.6-1.1,7.5-2.1v8.3H10.7V19.8z M58.9,34.8v5.9
		c-2.9,0.5-4.6,1.6-6.2,2.7c-1.6,1.1-2.9,1.9-5.9,1.9c-2.9,0-4.3-0.8-5.9-1.9c-1.9-1.3-4.3-2.7-8.8-2.7s-7,1.6-8.8,2.7
		c-1.6,1.1-2.9,1.9-5.9,1.9s-4.3-0.8-5.9-1.9c-1.6-1.1-3.2-2.1-6.2-2.7v-5.9H58.9z M5.4,58.9V46.3c1.3,0.3,2.1,0.8,3.2,1.6
		c1.9,1.3,4.3,2.7,8.8,2.7s7-1.6,8.8-2.7c1.6-1.1,2.9-1.9,5.9-1.9s4.3,0.8,5.9,1.9c1.9,1.3,4.3,2.7,8.8,2.7s7-1.6,8.8-2.7
		c1.1-0.8,1.9-1.3,3.2-1.6v12.6H5.4z"/>
</g>
</svg>
