<?xml version="1.0" encoding="utf-8"?>
<!-- Generator: Adobe Illustrator 23.0.0, SVG Export Plug-In . SVG Version: 6.00 Build 0)  -->
<svg version="1.1" id="Layer_2_1_" xmlns="http://www.w3.org/2000/svg" xmlns:xlink="http://www.w3.org/1999/xlink" x="0px" y="0px"
	 viewBox="0 0 64 64" style="enable-background:new 0 0 64 64;" xml:space="preserve">
<g>
	<path d="M60,13.3H34.7V9.9c1.6-0.8,2.7-2.7,2.7-4.5C37.3,2.4,34.9,0,32,0s-5.3,2.4-5.3,5.3c0,1.9,1.1,3.7,2.7,4.5v3.5H4
		c-2.1,0-4,1.6-4,4V60c0,2.1,1.9,4,4,4h56c2.1,0,4-1.9,4-4V32v-5.3v-9.3C64,15.2,62.1,13.3,60,13.3z M58.7,58.7H5.3V32h53.3V58.7z
		 M5.3,26.7v-8h53.3v8H5.3z"/>
	<path d="M14.7,42.7h2.7c0.8,0,1.3-0.5,1.3-1.3v-2.7c0-0.8-0.5-1.3-1.3-1.3h-2.7c-0.8,0-1.3,0.5-1.3,1.3v2.7
		C13.3,42.1,13.9,42.7,14.7,42.7z"/>
	<path d="M25.3,42.7H28c0.8,0,1.3-0.5,1.3-1.3v-2.7c0-0.8-0.5-1.3-1.3-1.3h-2.7c-0.8,0-1.3,0.5-1.3,1.3v2.7
		C24,42.1,24.5,42.7,25.3,42.7z"/>
	<path d="M36,42.7h2.7c0.8,0,1.3-0.5,1.3-1.3v-2.7c0-0.8-0.5-1.3-1.3-1.3H36c-0.8,0-1.3,0.5-1.3,1.3v2.7
		C34.7,42.1,35.2,42.7,36,42.7z"/>
	<path d="M46.7,42.7h2.7c0.8,0,1.3-0.5,1.3-1.3v-2.7c0-0.8-0.5-1.3-1.3-1.3h-2.7c-0.8,0-1.3,0.5-1.3,1.3v2.7
		C45.3,42.1,45.9,42.7,46.7,42.7z"/>
	<path d="M14.7,53.3h2.7c0.8,0,1.3-0.5,1.3-1.3v-2.7c0-0.8-0.5-1.3-1.3-1.3h-2.7c-0.8,0-1.3,0.5-1.3,1.3V52
		C13.3,52.8,13.9,53.3,14.7,53.3z"/>
	<path d="M25.3,53.3H28c0.8,0,1.3-0.5,1.3-1.3v-2.7c0-0.8-0.5-1.3-1.3-1.3h-2.7c-0.8,0-1.3,0.5-1.3,1.3V52
		C24,52.8,24.5,53.3,25.3,53.3z"/>
	<path d="M36,53.3h2.7c0.8,0,1.3-0.5,1.3-1.3v-2.7c0-0.8-0.5-1.3-1.3-1.3H36c-0.8,0-1.3,0.5-1.3,1.3V52C34.7,52.8,35.2,53.3,36,53.3
		z"/>
	<path d="M46.7,53.3h2.7c0.8,0,1.3-0.5,1.3-1.3v-2.7c0-0.8-0.5-1.3-1.3-1.3h-2.7c-0.8,0-1.3,0.5-1.3,1.3V52
		C45.3,52.8,45.9,53.3,46.7,53.3z"/>
</g>
</svg>
