<?xml version="1.0" encoding="utf-8"?>
<!-- Generator: Adobe Illustrator 23.0.0, SVG Export Plug-In . SVG Version: 6.00 Build 0)  -->
<svg version="1.1" id="Layer_2_1_" xmlns="http://www.w3.org/2000/svg" xmlns:xlink="http://www.w3.org/1999/xlink" x="0px" y="0px"
	 viewBox="0 0 64 64" style="enable-background:new 0 0 64 64;" xml:space="preserve">
<g>
	<path d="M63.2,19.9c-0.8-0.8-1.9-1.3-3.2-1.3H48v-4c0-0.8-0.3-4-4.5-4H20.3c-4,0-4.3,3.2-4.3,4v4H4c-2.1,0-4,1.9-4,4v26.7
		c0,2.1,1.9,4,4,4h56c2.1,0,4-1.9,4-4V22.8C64,21.8,63.7,20.7,63.2,19.9z M58.7,47.9H5.3v-24H16c2.9,0,5.3-2.4,5.3-5.3v-2.7h21.3
		v2.7c0,2.9,2.4,5.3,5.3,5.3h10.7v24H58.7z"/>
	<path d="M30.7,23.9c-5.1,0-9.3,4.3-9.3,9.3c0,5.3,4,9.3,9.3,9.3c5.1,0,9.3-4.3,9.3-9.3S35.7,23.9,30.7,23.9z M30.7,37.3
		c-2.4,0-4-1.6-4-4c0-2.1,1.9-4,4-4s4,1.9,4,4C34.7,35.3,32.8,37.3,30.7,37.3z"/>
	<circle cx="10.7" cy="29.2" r="2.7"/>
</g>
</svg>
