<?xml version="1.0" encoding="utf-8"?>
<!-- Generator: Adobe Illustrator 23.0.0, SVG Export Plug-In . SVG Version: 6.00 Build 0)  -->
<svg version="1.1" id="Layer_1" xmlns="http://www.w3.org/2000/svg" xmlns:xlink="http://www.w3.org/1999/xlink" x="0px" y="0px"
	 viewBox="0 0 64 64" style="enable-background:new 0 0 64 64;" xml:space="preserve">
<path d="M58.1,13.9c-8.1-7.8-21-8.1-28.8-0.5L2.4,39.4C0.8,40.8,0,42.9,0,44.8c0,2.2,0.8,4.3,2.4,5.9C5.6,54,10.8,54,13.7,51
	l26.6-26.1c1.6-1.6,4-1.6,5.6,0c0.8,0.8,1.6,1.9,1.6,3c0,1.1-0.3,1.9-1.1,2.7L34.4,42.4c-1.6,1.3-2.4,3.5-2.4,5.4
	c0,2.2,0.8,4.3,2.4,5.9c1.6,1.6,3.8,2.4,5.9,2.4c2.2,0,4-0.8,5.6-2.2l12.4-12.1c3.8-3.8,5.9-8.6,5.6-14
	C64.2,22.5,62.1,17.7,58.1,13.9z M10.2,47.2c-1.1,1.1-2.7,0.8-4-0.3c-0.5-0.5-0.8-1.1-0.8-1.9c0-0.5,0-1.1,0.8-1.6l2.4-2.2l5.4,2.4
	L10.2,47.2z M18,39.7l-5.4-2.4l4.6-4.3l5.4,2.4L18,39.7z M26.6,31.1l-5.4-2.4l4.3-4l5.4,2.4L26.6,31.1z M42.7,50.2
	c-1.1,1.1-2.7,0.8-4-0.3c-0.5-0.5-0.8-1.3-0.8-1.9s0-1.1,0.8-1.6l0.8-0.5l5.4,2.4L42.7,50.2z M48.9,44l-5.4-2.4l4.3-4l5.4,2.4
	L48.9,44z M56.7,36l-5.4-2.4c1.1-1.6,1.9-3.5,1.9-5.6c0-2.7-1.3-5.4-3.5-7c-3.8-3.2-9.4-3-12.9,0.3L34.9,23l-5.4-2.4l3.8-3.5
	c5.6-5.6,15.1-5.4,21.2,0.5c3,3,4.6,6.5,4.6,10.5C59.1,30.8,58.3,33.5,56.7,36z"/>
</svg>
