<?xml version="1.0" encoding="utf-8"?>
<!-- Generator: Adobe Illustrator 21.0.2, SVG Export Plug-In . SVG Version: 6.00 Build 0)  -->
<svg version="1.1" id="Layer_1" xmlns="http://www.w3.org/2000/svg" xmlns:xlink="http://www.w3.org/1999/xlink" x="0px" y="0px"
	 viewBox="0 0 64 64" style="enable-background:new 0 0 64 64;" xml:space="preserve">
<path d="M62.1,9.9l-8.3-8.3c-1-1.1-2.6-1.6-4.2-1.6c-1.6,0.3-2.9,1.1-4,2.4l-5.1,8c-6.1-1.9-13.3-0.3-18,4.8l-7.5,7.5
	c-3.5,3.5-5.3,8.3-5.3,13.1c0,1.9,0.3,3.5,0.8,5.1l-8,5.1c-1.3,0.8-2.1,2.4-2.4,4c-0.3,1.6,0.3,3.2,1.6,4.3l8.3,8.3
	c0.8,1.1,2.1,1.6,3.5,1.6c0.3,0,0.3,0,0.5,0c1.6-0.3,2.9-1.1,4-2.4l5.3-8c1.6,0.5,3.2,0.8,5.1,0.8c4.8,0,9.6-1.9,13.1-5.3l2.7-2.7
	l0,0l0,0l4.8-4.8c3.5-3.5,5.3-8.3,5.3-13.1c0-1.9-0.3-3.5-0.8-5.1l8-5.1c1.3-0.8,2.4-2.4,2.4-4C63.7,12.5,63.2,10.9,62.1,9.9z
	 M13.5,58.5l-8.3-8.3l7.2-4.5c0.8,1.1,1.6,2.1,2.7,2.9l0,0c1.1,1.1,2.1,1.9,3.2,2.7L13.5,58.5z M18.8,45c-2.4-2.4-4-5.9-4-9.3
	c0-3.4,1.3-6.9,4-9.3l1.1-1.1c1.1,0.5,2.1,0.8,2.9,1.1c1.1,0.3,1.6,0.3,2.4,1.1c0.8,0.8,0.8,1.3,1.1,2.4c0.3,1.3,0.5,3.2,2.7,5.1
	c1.9,1.9,3.7,2.4,5.1,2.7c1.1,0.3,1.6,0.3,2.4,1.1c0.8,0.8,0.8,1.3,1.1,2.4c0.3,0.8,0.3,1.9,1.1,2.9l-1.1,1.1
	C32.3,50.2,23.9,50.2,18.8,45z M44.9,37.5l-2.1,2.1c-0.3-1.3-0.5-2.9-2.7-5.1c-1.9-1.9-3.7-2.4-5.1-2.7c-1.1-0.3-1.6-0.3-2.4-1.1
	c-0.8-0.8-0.8-1.3-1.1-2.4c-0.3-1.3-0.5-3.2-2.7-5.1c-1.9-1.9-3.7-2.4-5.1-2.7l2.1-2.1c5.1-5.1,13.6-5.1,18.6,0c2.4,2.4,4,5.9,4,9.3
	C48.9,31.6,47.5,35.1,44.9,37.5z M51.3,18c-0.8-1.1-1.6-2.1-2.4-2.9c-1.1-1.1-2.1-1.9-3.2-2.7l4.5-7.2l8.3,8.3L51.3,18z"/>
</svg>
