<?xml version="1.0" encoding="utf-8"?>
<!-- Generator: Adobe Illustrator 23.0.0, SVG Export Plug-In . SVG Version: 6.00 Build 0)  -->
<svg version="1.1" id="Layer_1" xmlns="http://www.w3.org/2000/svg" xmlns:xlink="http://www.w3.org/1999/xlink" x="0px" y="0px"
	 viewBox="0 0 64 64" style="enable-background:new 0 0 64 64;" xml:space="preserve">
<path d="M58.3,5.9C54.3,2.1,49.2,0,43.9,0S33.2,2.1,29.5,5.9L6,29.3c-3.7,3.7-5.9,8.8-5.9,14.4c0,5.3,2.1,10.7,5.9,14.4
	S15.1,64,20.4,64s10.7-2.1,14.4-5.9L58,34.9c3.7-3.7,5.9-9.1,5.9-14.4S62,9.9,58.3,5.9z M31.1,54.1c-2.9,2.9-6.7,4.5-10.7,4.5
	s-7.7-1.6-10.7-4.5s-4.3-6.4-4.3-10.4S7.1,36,10,33.1l9.9-9.9l21.3,21.3L31.1,54.1z M54.3,30.9l-9.9,9.9L23.1,19.5l9.9-9.9
	c2.9-2.9,6.7-4.5,10.7-4.5s7.7,1.6,10.7,4.5s4.5,6.7,4.5,10.7S57.2,28.3,54.3,30.9z"/>
</svg>
