<?xml version="1.0" encoding="utf-8"?>
<!-- Generator: Adobe Illustrator 21.0.2, SVG Export Plug-In . SVG Version: 6.00 Build 0)  -->
<svg version="1.1" id="Layer_2_1_" xmlns="http://www.w3.org/2000/svg" xmlns:xlink="http://www.w3.org/1999/xlink" x="0px" y="0px"
	 viewBox="0 0 64 64" style="enable-background:new 0 0 64 64;" xml:space="preserve">
<g>
	<path d="M13.3,38.7h8c1.6,0,2.7-1.1,2.7-2.7s-1.1-2.7-2.7-2.7h-8c-1.6,0-2.7,1.1-2.7,2.7S11.7,38.7,13.3,38.7z"/>
	<path d="M42.7,38.7h8c1.6,0,2.7-1.1,2.7-2.7s-1.1-2.7-2.7-2.7h-8c-1.6,0-2.7,1.1-2.7,2.7S41.1,38.7,42.7,38.7z"/>
	<path d="M61.3,20h-1.9L54.7,7.5C53.9,5.3,52,4,49.6,4H15.2c-2.4,0-4.3,1.3-5.1,3.5L5.1,20H2.7C1.1,20,0,21.1,0,22.7
		s1.1,2.7,2.7,2.7H3c-0.3,0.3-0.3,0.5-0.3,0.8v19.7c0,1.9,1.6,3.5,3.5,3.5H8V52c0,4.5,3.5,8,8,8s8-3.5,8-8v-2.7h16V52
		c0,4.5,3.5,8,8,8s8-3.5,8-8v-2.7h1.9c1.1,0,1.9-0.5,2.7-1.1c0.5-0.5,0.8-1.6,0.8-2.4V26.1c0-0.3,0-0.3,0-0.5v-0.3l0,0
		c1.6,0,2.7-1.1,2.7-2.7S62.9,20,61.3,20z M15.2,9.3h34.4l5.3,13.3h-45L15.2,9.3z M18.7,52c0,1.6-1.1,2.7-2.7,2.7s-2.7-1.1-2.7-2.7
		v-2.7h5.4L18.7,52z M50.7,52c0,1.6-1.1,2.7-2.7,2.7s-2.7-1.1-2.7-2.7v-2.7h5.4L50.7,52z M56,44H40H24H8V28h48V44z"/>
</g>
</svg>
