<?xml version="1.0" encoding="utf-8"?>
<!-- Generator: Adobe Illustrator 21.0.2, SVG Export Plug-In . SVG Version: 6.00 Build 0)  -->
<svg version="1.1" id="Layer_2_1_" xmlns="http://www.w3.org/2000/svg" xmlns:xlink="http://www.w3.org/1999/xlink" x="0px" y="0px"
	 viewBox="0 0 64 64" style="enable-background:new 0 0 64 64;" xml:space="preserve">
<g>
	<path d="M60.8,21.6L60,11.2C59.5,4.8,53.6,0,46.9,0H17.1C10.4,0,4.5,4.8,4,11.2L3.2,21.6C1.3,21.9,0,23.2,0,25.1v24.5
		c0,2.1,1.6,3.7,3.5,3.7h1.9v2.4c0,3.5,2.1,6.7,5.3,7.7c5.6,1.9,10.7-2.4,10.7-7.5v-2.7h21.3v2.4c0,3.5,2.1,6.7,5.3,7.7
		c5.6,1.9,10.7-2.4,10.7-7.5v-2.7h1.9c1.9,0,3.5-1.6,3.5-3.7V25.1C64,23.2,62.7,21.9,60.8,21.6z M16,56c0,1.3-1.1,2.7-2.7,2.7
		s-2.7-1.1-2.7-2.7v-2.7H16V56z M53.3,56c0,1.3-1.1,2.7-2.7,2.7c-1.6,0-2.7-1.1-2.7-2.7v-2.7h5.4L53.3,56z M17.3,5.4h29.3
		c4,0,7.5,2.7,7.7,6.4l0.8,9.6H8.8l0.8-9.9C9.9,8,13.3,5.4,17.3,5.4z M5.3,48V26.7h53.3V48H5.3z"/>
	<path d="M16,29.6c-4.3,0-8,3.5-8,7.7s3.5,7.7,8,7.7s8-3.5,8-7.7S20.5,29.6,16,29.6z M16,40c-1.3,0-2.7-1.1-2.7-2.4
		c0-1.3,1.1-2.4,2.7-2.4c1.3,0,2.7,1.1,2.7,2.4C18.7,38.7,17.6,40,16,40z"/>
	<path d="M48,29.4c-4.5,0-8,3.5-8,8c0,4.3,3.5,8,8,8s8-3.5,8-8S52.3,29.4,48,29.4z M48,40c-1.3,0-2.7-1.1-2.7-2.7
		c0-1.3,1.1-2.7,2.7-2.7s2.7,1.1,2.7,2.7C50.7,38.7,49.3,40,48,40z"/>
	<path d="M34.7,34.7h-5.3c-1.6,0-2.7,1.1-2.7,2.7c0,1.6,1.1,2.7,2.7,2.7h5.3c1.6,0,2.7-1.1,2.7-2.7C37.3,35.8,36.3,34.7,34.7,34.7z"
		/>
</g>
</svg>
