<?xml version="1.0" encoding="utf-8"?>
<!-- Generator: Adobe Illustrator 23.0.0, SVG Export Plug-In . SVG Version: 6.00 Build 0)  -->
<svg version="1.1" id="Layer_1" xmlns="http://www.w3.org/2000/svg" xmlns:xlink="http://www.w3.org/1999/xlink" x="0px" y="0px"
	 viewBox="0 0 64 64" style="enable-background:new 0 0 64 64;" xml:space="preserve">
<g>
	<path d="M16,18.7h-2.7C10.4,18.7,8,21.1,8,24v2.7c0,2.9,2.4,5.3,5.3,5.3H16c2.9,0,5.3-2.4,5.3-5.3V24C21.3,21.1,18.9,18.7,16,18.7z
		 M13.3,26.7V24H16v2.7H13.3z"/>
	<path d="M61.3,40H56V26.7c0-0.5-0.3-1.3-0.5-1.9l-7.7-12.5c-0.5-1.1-1.6-1.6-2.9-1.6H3.5c-1.9,0-3.5,1.6-3.5,3.5v28
		c0,1.6,1.6,3.2,3.5,3.2h1.9c0,4.5,3.5,8,8,8s8-3.5,8-8h8h13.3H56h5.3c1.6,0,2.7-1.1,2.7-2.7C64,41.1,62.9,40,61.3,40z M13.3,48
		c-1.6,0-2.7-1.1-2.7-2.7c0-1.6,1.1-2.7,2.7-2.7s2.7,1.1,2.7,2.7C16,46.9,14.9,48,13.3,48z M34.7,40V26.7h2.7V40H34.7z M50.7,40h-8
		V25.1c0-2.1-1.6-3.7-3.7-3.7h-5.9c-2.1,0-3.7,1.6-3.7,3.7V40H19.2c-1.3-1.6-3.5-2.7-5.9-2.7S8.8,38.4,7.5,40H5.3V16h38.4l6.9,11.2
		V40z"/>
</g>
</svg>
