<?xml version="1.0" encoding="utf-8"?>
<!-- Generator: Adobe Illustrator 23.0.0, SVG Export Plug-In . SVG Version: 6.00 Build 0)  -->
<svg version="1.1" id="Layer_2_1_" xmlns="http://www.w3.org/2000/svg" xmlns:xlink="http://www.w3.org/1999/xlink" x="0px" y="0px"
	 viewBox="0 0 64 64" style="enable-background:new 0 0 64 64;" xml:space="preserve">
<g>
	<path d="M37.1,47.5c-4.5,0-8.3,3.7-8.3,8.3s3.7,8.3,8.3,8.3s8.3-3.7,8.3-8.3S41.6,47.5,37.1,47.5z M37.1,58.7
		c-1.6,0-2.9-1.3-2.9-2.9c0-1.6,1.3-2.9,2.9-2.9c1.6,0,2.9,1.3,2.9,2.9C40,57.3,38.7,58.7,37.1,58.7z"/>
	<path d="M17.9,47.5c-4.5,0-8.3,3.7-8.3,8.3s3.7,8.3,8.3,8.3s8.3-3.7,8.3-8.3S22.4,47.5,17.9,47.5z M17.9,58.7
		c-1.6,0-2.9-1.3-2.9-2.9c0-1.6,1.3-2.9,2.9-2.9s2.9,1.3,2.9,2.9C20.8,57.3,19.5,58.7,17.9,58.7z"/>
	<path d="M58.7,0h-7.7c-1.3,0-2.4,1.1-2.7,2.4L46.1,16h-3.5V8.8c0-1.9-1.6-3.5-3.5-3.5H32c-0.5-1.6-1.9-2.7-3.5-2.7h-8.8
		c-2.1,0-3.7,1.6-3.7,3.7V8H8.8c-1.9,0-3.5,1.6-3.5,3.5v4.8c-0.8,0.3-1.3,0.5-1.9,1.3c-0.8,0.8-1.1,2.1-0.5,3.5L9.1,40
		c0.3,1.6,1.9,2.7,3.7,2.7h32.8c1.3,0,2.4-1.1,2.7-2.4l4.8-34.9h5.6c1.6,0,2.7-1.1,2.7-2.7S60.3,0,58.7,0z M37.3,16H32v-5.3h5.3V16z
		 M21.3,8h5.3v0.8V16h-5.3v-4.5V8z M10.7,13.3H16V16h-5.3V13.3z M43.2,37.3H13.9l-5.3-16H16h5.3h5.3H32h10.7h2.9L43.2,37.3z"/>
</g>
</svg>
