<?xml version="1.0" encoding="utf-8"?>
<!-- Generator: Adobe Illustrator 23.0.0, SVG Export Plug-In . SVG Version: 6.00 Build 0)  -->
<svg version="1.1" id="Layer_2_1_" xmlns="http://www.w3.org/2000/svg" xmlns:xlink="http://www.w3.org/1999/xlink" x="0px" y="0px"
	 viewBox="0 0 64 64" style="enable-background:new 0 0 64 64;" xml:space="preserve">
<g>
	<path d="M37.1,47.5c-4.5,0-8.3,3.7-8.3,8.3s3.7,8.3,8.3,8.3s8.3-3.7,8.3-8.3S41.6,47.5,37.1,47.5z M37.1,58.7
		c-1.6,0-2.9-1.3-2.9-2.9c0-1.6,1.3-2.9,2.9-2.9c1.6,0,2.9,1.3,2.9,2.9C40,57.3,38.7,58.7,37.1,58.7z"/>
	<path d="M17.9,47.5c-4.5,0-8.3,3.7-8.3,8.3s3.7,8.3,8.3,8.3s8.3-3.7,8.3-8.3S22.4,47.5,17.9,47.5z M17.9,58.7
		c-1.6,0-2.9-1.3-2.9-2.9c0-1.6,1.3-2.9,2.9-2.9s2.9,1.3,2.9,2.9C20.8,57.3,19.5,58.7,17.9,58.7z"/>
	<path d="M58.7,0h-7.7c-1.3,0-2.4,1.1-2.7,2.4L46.1,16H6.4c-1.1,0-2.4,0.5-2.9,1.3c-0.8,0.8-1.1,2.1-0.5,3.5l6.1,18.9
		c0.3,1.9,1.9,2.9,3.7,2.9h32.8c1.3,0,2.4-1.1,2.7-2.4l4.8-34.9h5.6c1.6,0,2.7-1.1,2.7-2.7S60.3,0,58.7,0z M43.2,37.3H13.9l-5.3-16
		h36.8L43.2,37.3z"/>
</g>
</svg>
