<?xml version="1.0" encoding="utf-8"?>
<!-- Generator: Adobe Illustrator 21.0.2, SVG Export Plug-In . SVG Version: 6.00 Build 0)  -->
<svg version="1.1" id="Layer_1" xmlns="http://www.w3.org/2000/svg" xmlns:xlink="http://www.w3.org/1999/xlink" x="0px" y="0px"
	 viewBox="0 0 64 64" style="enable-background:new 0 0 64 64;" xml:space="preserve">
<path d="M56.2,34.6h-2.7V8.5c0-4.5-3.5-8.2-8-8.5l0,0h-0.3l0,0H12.5C5.9,0,0.3,5.6,0.3,12.8v4.5c0,2.1,1.9,4,4.3,4H11V49
	c0,3.7,3.2,6.9,7.2,6.9h3.5V61c0,1.1,0.5,2.1,1.6,2.7c0.5,0.3,1.1,0.3,1.3,0.3c0.5,0,1.1-0.3,1.6-0.5l4.5-2.9l4.9,3
	c1.1,0.5,2.1,0.5,2.9,0s1.2-1.4,1.2-2.5V56h8h8c4.5,0,8-3.5,8-8v-5.3C64.2,38.1,60.7,34.6,56.2,34.6z M5.6,12.8
	c0-4.3,3.2-7.5,6.9-7.5h23.2c-0.5,1.3-0.8,2.7-0.8,4V16H5.6V12.8z M30.9,44.7c-3.7,0-6.7-2.9-6.7-6.4s2.9-6.4,6.7-6.4
	s6.7,2.9,6.7,6.4S34.6,44.7,30.9,44.7z M32.8,55.4c-1.1-0.8-2.7-0.8-3.7,0L27,56.7v-7.5c1.3,0.5,2.7,0.8,4,0.8c1.3,0,2.7-0.3,4-0.8
	v7.5L32.8,55.4z M40.2,50.6v-5.1c1.6-2.1,2.7-4.5,2.7-7.2c0-6.4-5.3-11.7-12-11.7s-12,5.3-12,11.7c0,2.7,1.1,5.3,2.7,7.5v4.8h-3.5
	c-1.1,0-1.9-0.8-1.9-1.6V21.3H36c2.4,0,4.3-1.9,4.3-4.3V9.3c0-2.1,1.6-4,3.2-4H45c1.9,0,3.2,1.3,3.2,3.2v26.1v13.3v2.7H40.2z
	 M58.9,47.9c0,1.6-1.1,2.7-2.7,2.7h-2.7v-2.7v-8h2.7c1.6,0,2.7,1.1,2.7,2.7V47.9z"/>
</svg>
