<?xml version="1.0" encoding="utf-8"?>
<!-- Generator: Adobe Illustrator 23.0.0, SVG Export Plug-In . SVG Version: 6.00 Build 0)  -->
<svg version="1.1" id="Layer_1" xmlns="http://www.w3.org/2000/svg" xmlns:xlink="http://www.w3.org/1999/xlink" x="0px" y="0px"
	 viewBox="0 0 64 64" style="enable-background:new 0 0 64 64;" xml:space="preserve">
<path d="M63.2,7.4c-1.1-1.1-2.7-1.1-3.7,0l-3.2,3.2V9.5c0-3.2-2.4-5.6-5.6-5.6h-45C2.4,3.9,0,6.3,0,9.5v45c0,3.2,2.4,5.6,5.6,5.6h45
	c2.9,0,5.6-2.4,5.6-5.6V18.3l7-7C64.3,10.3,64.3,8.4,63.2,7.4z M50.9,54.5C50.9,54.8,50.9,54.8,50.9,54.5L5.6,54.8
	c-0.3,0-0.3,0-0.3-0.3v-45c0-0.3,0-0.3,0.3-0.3h45c0.3,0,0.3,0,0.3,0.3v6.7L40.4,26.6l-6.2-6.2c-1.1-1.1-2.7-1.1-3.7,0
	c-1.1,1.1-1.1,2.7,0,3.7l8,8.3l0,0l0,0c0.3,0.3,0.3,0.3,0.5,0.5l0.3,0.3c0.3,0,0.5,0.3,1.1,0.3s0.8,0,1.1-0.3c0,0,0.3,0,0.3-0.3
	c0.3,0,0.5-0.3,0.5-0.5l0,0l0,0l8.6-8.6V54.5z"/>
</svg>
