<?xml version="1.0" encoding="utf-8"?>
<!-- Generator: Adobe Illustrator 23.0.0, SVG Export Plug-In . SVG Version: 6.00 Build 0)  -->
<svg version="1.1" id="Layer_1" xmlns="http://www.w3.org/2000/svg" xmlns:xlink="http://www.w3.org/1999/xlink" x="0px" y="0px"
	 viewBox="0 0 64 64" style="enable-background:new 0 0 64 64;" xml:space="preserve">
<path d="M48.3,11.5C45.8,4.6,39.5,0,32.1,0S18.2,4.6,16,11.5C7.5,13.4,1.8,20.5,1.8,29c0,6.3,4.6,11.8,10.9,13.1L13,59.6
	c0,2.5,1.9,4.4,4.4,4.4h29c2.5,0,4.4-1.9,4.4-4.4l0.5-17.5c6.3-1.4,10.9-6.8,10.9-13.1C62.2,20.5,56.2,13.4,48.3,11.5z M18.5,58.5
	v-2.7h27.1v2.7H18.5z M49.1,36.9c-1.6,0-3,1.4-3.3,3.3l-0.3,10.1H18.2V40.2c0-1.6-1.4-3.3-3.3-3.3c-4.1-0.3-7.7-3.6-7.7-7.9
	c0-6.3,4.6-11.5,10.9-12.3l1.9-0.3l0.5-1.9c1.1-5.2,5.7-9,11.2-9S42,9,43.4,14.5l0.5,1.9l1.9,0.3C52.1,17.5,56.8,23,56.8,29
	C56.8,33.1,53.5,36.6,49.1,36.9z"/>
</svg>
