<?xml version="1.0" encoding="utf-8"?>
<!-- Generator: Adobe Illustrator 22.0.1, SVG Export Plug-In . SVG Version: 6.00 Build 0)  -->
<svg version="1.1" id="Layer_1" xmlns="http://www.w3.org/2000/svg" xmlns:xlink="http://www.w3.org/1999/xlink" x="0px" y="0px"
	 viewBox="0 0 64 64" style="enable-background:new 0 0 64 64;" xml:space="preserve">
<path d="M45.9,3.3c-7.7-3.7-16.3-4.2-24.4-1.4C13.5,4.6,7,10.4,3.3,18.1c-7.7,15.8-1.1,35,14.8,42.6c4.4,2.1,9.1,3.2,13.9,3.2
	c3.5,0,7-0.6,10.5-1.8c8-2.8,14.5-8.5,18.2-16.2C68.4,30.1,61.7,11,45.9,3.3z M43.7,7.8c10.3,5,16,15.7,15,26.5L41.4,22.5
	c-0.9-0.9-2-1.7-3.2-2.3c-2.9-1.4-6.1-1.6-9.2-0.5c-0.6,0.2-1.1,0.5-1.7,0.7l1.5-15.1C34,4.7,39.1,5.5,43.7,7.8z M29.9,37.3
	c-1.7-0.8-2.9-2.2-3.6-4c-0.6-1.8-0.5-3.7,0.3-5.3s2.2-2.9,4-3.6c0.8-0.3,1.5-0.4,2.3-0.4c1,0,2.1,0.2,3,0.7c1.7,0.8,2.9,2.2,3.6,4
	c0.6,1.8,0.5,3.7-0.3,5.3s-2.2,2.9-4,3.6C33.5,38.2,31.6,38.1,29.9,37.3z M7.8,20.2C11,13.8,16.4,8.9,23.2,6.6
	c0.2-0.1,0.4-0.1,0.6-0.2L21.7,27c-0.9,2.6-0.9,5.3,0,7.9c0.8,2.3,2.2,4.2,4.1,5.7L9.4,46.5C4.5,38.9,3.6,29,7.8,20.2z M40.8,57.4
	c-6.8,2.4-14.1,1.9-20.5-1.2c-2.9-1.4-5.5-3.3-7.6-5.6L34,43c1-0.1,2-0.3,2.9-0.6c3-1,5.5-3.2,6.9-6.1c0.8-1.7,1.2-3.5,1.2-5.3
	l12.8,8.7c-0.4,1.4-0.9,2.7-1.6,4.1C53,50.2,47.6,55.1,40.8,57.4z"/>
</svg>
