<?xml version="1.0" encoding="utf-8"?>
<!-- Generator: Adobe Illustrator 23.0.0, SVG Export Plug-In . SVG Version: 6.00 Build 0)  -->
<svg version="1.1" id="Layer_2_1_" xmlns="http://www.w3.org/2000/svg" xmlns:xlink="http://www.w3.org/1999/xlink" x="0px" y="0px"
	 viewBox="0 0 64 64" style="enable-background:new 0 0 64 64;" xml:space="preserve">
<g>
	<path d="M51.8,27.9c0-7-5.7-13-12.7-13c-6.2,0-11.3,3.8-12.4,9.2c-0.5,0-0.8,0-1.4,0c-7.8,0-14.3,5.9-15.1,13.2
		C4.6,38.5,0,43.3,0,49.3c0,7,5.4,12.4,12.2,12.4h22.4c8.9,0,15.9-7,15.9-15.7c0-3.2-1.1-6.2-2.7-8.6C50.5,35,51.8,31.7,51.8,27.9z
		 M39.2,20.7c4.1,0,7.3,3.2,7.3,7.6c0,2.2-0.8,4.1-2.4,5.4c-1.9-1.4-3.8-2.2-6.2-2.7c-1.6-2.2-3.8-4.1-6.2-5.1
		C32.7,22.3,35.9,20.7,39.2,20.7z M34.8,56.3H12.4c-4.1,0-7-3-7-6.8s3-6.8,7-6.8h3v-3.5c0-5.4,4.3-9.7,10-9.7c1.1,0,2.2,0.3,3.2,0.5
		c2.2,0.8,4.3,2.4,5.4,4.6l0.8,1.4l1.4,0.3c2.2,0.3,4.3,1.1,5.9,2.7c0.3,0.3,0.3,0.3,0.5,0.5c1.9,1.9,2.7,4.3,2.7,6.8
		C45.4,51.7,40.5,56.3,34.8,56.3z"/>
	<path d="M39.7,13.1c1.6,0,2.7-1.1,2.7-2.7V5c0-1.6-1.1-2.7-2.7-2.7S37,3.4,37,5v5.4C37,12,38.1,13.1,39.7,13.1z"/>
	<path d="M56.7,10.7c-1.1-1.1-2.7-1.1-3.8,0l-2.7,2.7c-1.1,1.1-1.1,2.7,0,3.8c0.5,0.5,1.1,0.8,1.9,0.8c0.8,0,1.4-0.3,1.9-0.8
		l2.7-2.7C57.8,13.4,57.8,11.7,56.7,10.7z"/>
	<path d="M61.3,26.6h-2.7c-1.6,0-2.7,1.1-2.7,2.7S57,32,58.6,32h2.7c1.6,0,2.7-1.1,2.7-2.7S62.9,26.6,61.3,26.6z"/>
	<path d="M24.6,17.7c0.5,0.5,1.4,0.8,1.9,0.8c0.8,0,1.4-0.3,1.9-0.8c1.1-1.1,1.1-2.7,0-3.8l-3-3c-1.1-1.1-2.7-1.1-3.8,0
		c-1.1,1.1-1.1,2.7,0,3.8L24.6,17.7z"/>
</g>
</svg>
