<?xml version="1.0" encoding="utf-8"?>
<!-- Generator: Adobe Illustrator 22.0.1, SVG Export Plug-In . SVG Version: 6.00 Build 0)  -->
<svg version="1.1" id="Layer_1" xmlns="http://www.w3.org/2000/svg" xmlns:xlink="http://www.w3.org/1999/xlink" x="0px" y="0px"
	 viewBox="0 0 64 64" style="enable-background:new 0 0 64 64;" xml:space="preserve">
<g>
	<path d="M37.3,39.2c-1.1,1.7-3.6,2.5-5.6,2.2c0.3-0.6,0.6-1.1,0.6-1.7c0-1.7-1.1-2.8-2.8-2.8h-5c-1.7,0-3.3,1.4-3.3,3.3v4.7
		c0,1.7,1.1,2.8,2.8,2.8c1.4,0,2.8-1.1,2.8-2.8c1.7,1.1,3.9,1.9,6.1,1.9c3.6,0,7-1.7,9.2-4.7c0.8-1.4,0.6-3.1-0.8-3.9
		S38.1,37.8,37.3,39.2z"/>
	<path d="M40.6,22.8c-0.8,0-1.7,0.6-2.2,1.1c-1.9-1.4-4.2-2.2-6.4-2.2c-4.2,0-7.8,2.2-9.7,5.8c-0.8,1.4-0.3,3.1,1.1,3.9
		c0.3,0.3,0.8,0.3,1.4,0.3c1.1,0,1.9-0.6,2.5-1.4c1.1-1.9,2.8-3.1,4.7-3.1c1.1,0,2.2,0.3,3.1,0.8c-1.4,0-2.8,1.4-2.8,2.8
		c0,1.7,1.1,2.8,2.8,2.8h5c1.7,0,3.3-1.4,3.3-3.3v-4.7C43.4,23.9,42.3,22.8,40.6,22.8z"/>
	<path d="M58.7,23.1C55.9,20,52,17.8,47.9,17c-2.2-3.6-5.8-6.4-9.7-7.8c-1.9-0.8-3.9-1.1-6.1-1.1c-10,0-18.4,7.8-18.9,17.5
		C5.6,26.7,0,33.1,0,40.6C0,49,7,55.9,15.3,55.9h28.9C55.1,55.9,64,47,64,36.2C64,31.4,62.1,26.7,58.7,23.1z M44,50.6H15
		c-5.6,0-9.7-4.2-9.7-9.7s4.5-9.7,9.7-9.7h3.3v-3.9c0-7.5,6.1-13.6,13.6-13.6c1.7,0,3.1,0.3,4.5,0.8c3.1,1.1,5.8,3.3,7.5,6.4
		l0.8,1.4l1.4,0.3c3.3,0.3,6.7,1.9,8.9,4.5c2.5,2.8,3.9,6.1,3.9,9.7C58.4,44.2,52,50.6,44,50.6z"/>
</g>
</svg>
