<?xml version="1.0" encoding="utf-8"?>
<!-- Generator: Adobe Illustrator 21.0.2, SVG Export Plug-In . SVG Version: 6.00 Build 0)  -->
<svg version="1.1" id="Layer_1" xmlns="http://www.w3.org/2000/svg" xmlns:xlink="http://www.w3.org/1999/xlink" x="0px" y="0px"
	 viewBox="0 0 64 64" style="enable-background:new 0 0 64 64;" xml:space="preserve">
<path d="M55.9,42.4c-3.5,0-6.4,2.1-7.5,5.3H48v-6.1c6.1-2.1,10.4-7.7,10.4-14.4c0-3.7-1.6-7.5-4.3-10.4c-2.1-2.4-5.1-4-8.3-4.5
	c-1.9-2.7-4.5-4.8-7.5-5.9c-1.6-0.5-3.2-0.8-4.8-0.8c-7.7,0-14.1,5.9-14.9,13.1c-5.6,1.1-9.9,5.9-9.9,11.7c0,4.8,2.9,9.1,7.2,10.9
	v6.4h-0.5c-1.1-3.2-4-5.3-7.5-5.3c-4.5,0-8,3.5-8,8s3.5,8,8,8c3.5,0,6.4-2.1,7.5-5.3h2.7c1.9,0,3.2-1.6,3.2-3.2v-7.5h8v0.5
	c-3.2,1.1-5.3,4-5.3,7.5c0,4.5,3.5,8,8,8s8-3.5,8-8c0-3.5-2.1-6.4-5.3-7.5v-0.5h8v7.5c0,1.9,1.6,3.2,3.2,3.2h2.7
	c1.1,3.2,4,5.3,7.5,5.3c4.5,0,8-3.5,8-8S60.4,42.4,55.9,42.4z M8.1,53c-1.6,0-2.7-1.1-2.7-2.7c0-1.6,1.1-2.7,2.7-2.7
	s2.7,1.1,2.7,2.7C10.8,51.9,9.7,53,8.1,53z M32,53c-1.6,0-2.7-1.1-2.7-2.7c0-1.6,1.1-2.7,2.7-2.7s2.7,1.1,2.7,2.7
	C34.7,51.9,33.6,53,32,53z M21.1,37.4c-3.7,0-6.9-3.3-6.9-7s2.9-6.7,6.9-6.7H24v-3.5c0-5.3,4.3-9.6,9.6-9.6c1.1,0,2.1,0.3,3.2,0.5
	c2.1,0.8,4,2.4,5.3,4.5l0.8,1.3l1.3,0.3c2.4,0.3,4.8,1.3,6.4,3.2c1.9,1.9,2.7,4.3,2.7,6.9c0,5.6-4.5,10.1-10.1,10.1h-0.5H21.1
	L21.1,37.4z M55.9,53c-1.6,0-2.7-1.1-2.7-2.7c0-1.6,1.1-2.7,2.7-2.7s2.7,1.1,2.7,2.7C58.6,51.9,57.5,53,55.9,53z"/>
</svg>
