<?xml version="1.0" encoding="utf-8"?>
<!-- Generator: Adobe Illustrator 22.0.1, SVG Export Plug-In . SVG Version: 6.00 Build 0)  -->
<svg version="1.1" id="Layer_1" xmlns="http://www.w3.org/2000/svg" xmlns:xlink="http://www.w3.org/1999/xlink" x="0px" y="0px"
	 viewBox="0 0 64 64" style="enable-background:new 0 0 64 64;" xml:space="preserve">
<g>
	<path d="M60,8H4c-2.1,0-4,1.9-4,4v26.7c0,2.1,1.9,4,4,4h25.3v8h-8c-1.6,0-2.7,1.1-2.7,2.7c0,1.6,1.1,2.7,2.7,2.7h21.3
		c1.6,0,2.7-1.1,2.7-2.7c0-1.6-1.1-2.7-2.7-2.7h-8v-8H60c2.1,0,4-1.9,4-4V12C64,9.9,62.1,8,60,8z M58.7,37.3H5.3v-24h53.3V37.3z"/>
	<path d="M46.1,25.3l-3.5,3.7c-1.1,1.1-1.1,2.7,0,3.7c0.5,0.5,1.3,0.8,1.9,0.8c0.8,0,1.3-0.3,1.9-0.8l5.3-5.3c1.1-1.1,1.1-3.2,0-4.3
		l-5.3-5.3c-1.1-1.1-2.7-1.1-3.7,0c-1.1,1.1-1.1,2.7,0,3.7L46.1,25.3z"/>
	<path d="M18.4,33.3c0.5,0.5,1.3,0.8,1.9,0.8s1.3-0.3,1.9-0.8c1.1-1.1,1.1-2.7,0-3.7l-3.7-3.7l3.5-3.5c1.1-1.1,1.1-2.7,0-3.7
		c-1.1-1.1-2.7-1.1-3.7,0L12.8,24c-1.1,1.1-1.1,3.2,0,4.3L18.4,33.3z"/>
	<path d="M28.8,34.4c0.3,0,0.5,0.3,1.1,0.3c1.1,0,2.1-0.5,2.4-1.6l4.8-12c0.5-1.3,0-2.9-1.6-3.5c-1.3-0.5-2.9,0-3.5,1.6l-4.8,12
		C26.9,32.3,27.5,33.9,28.8,34.4z"/>
</g>
</svg>
