<?xml version="1.0" encoding="utf-8"?>
<!-- Generator: Adobe Illustrator 23.0.0, SVG Export Plug-In . SVG Version: 6.00 Build 0)  -->
<svg version="1.1" id="Layer_1" xmlns="http://www.w3.org/2000/svg" xmlns:xlink="http://www.w3.org/1999/xlink" x="0px" y="0px"
	 viewBox="0 0 64 64" style="enable-background:new 0 0 64 64;" xml:space="preserve">
<g>
	<path d="M64,45.3V8c0-1.6-1.1-2.7-2.7-2.7H2.7C1.1,5.3,0,6.4,0,8v48c0,1.1,0.5,1.9,1.3,2.4c0.5,0.3,0.8,0.3,1.3,0.3s0.8,0,1.3-0.3
		L22.1,48h7.2l12.3,9.9c0.8,0.5,1.6,0.8,2.7,0.8c0.5,0,1.1,0,1.9-0.5c1.3-0.8,2.4-2.1,2.4-3.7v-1.6c3.5,0.8,6.7,2.7,9.1,4
		c1.3,0.8,2.9,0.8,4.3,0c1.3-0.8,2.1-2.1,2.1-3.7c0-0.8,0-1.6-0.3-2.4c-0.3-1.1-0.5-2.1-1.1-3.2C63.2,47.5,64,46.4,64,45.3z
		 M21.3,42.7c-0.5,0-0.8,0-1.3,0.3L5.3,51.5V10.7h53.3v32l0,0c-2.9-2.7-6.4-4.5-10.7-5.3v-2.9c0-1.6-0.8-2.9-2.4-3.7
		c-1.3-0.8-3.2-0.5-4.3,0.5L28.5,41.3c-0.5,0.3-0.8,0.8-1.1,1.3H21.3z M56.3,48c0.8,1.1,1.1,1.9,1.6,3.2c-3.5-1.9-8-3.7-12.3-4
		l-2.9-0.3V52l-9.3-7.5l9.3-7.5v5.1l2.4,0.3c4,0.5,7.5,2.1,10.1,4.8c0.3,0.3,0.5,0.5,0.8,0.8H56.3z"/>
	<circle cx="16" cy="24" r="5.3"/>
	<circle cx="32" cy="24" r="5.3"/>
	<circle cx="48" cy="24" r="5.3"/>
</g>
</svg>
