<?xml version="1.0" encoding="utf-8"?>
<!-- Generator: Adobe Illustrator 23.0.0, SVG Export Plug-In . SVG Version: 6.00 Build 0)  -->
<svg version="1.1" id="Layer_1" xmlns="http://www.w3.org/2000/svg" xmlns:xlink="http://www.w3.org/1999/xlink" x="0px" y="0px"
	 viewBox="0 0 64 64" style="enable-background:new 0 0 64 64;" xml:space="preserve">
<g>
	<path d="M2.7,58.7c-0.5,0-0.8,0-1.3-0.3C0.5,57.9,0,57.1,0,56V8c0-1.6,1.1-2.7,2.7-2.7h58.7C62.9,5.3,64,6.4,64,8v37.3
		c0,1.6-1.1,2.7-2.7,2.7H22.1L4,58.4C3.5,58.7,3.2,58.7,2.7,58.7z M5.3,10.7v40.8L20,43.2c0.5-0.5,0.8-0.5,1.3-0.5h37.3v-32H5.3z"/>
	<circle cx="16" cy="26.7" r="5.3"/>
	<circle cx="32" cy="26.7" r="5.3"/>
	<circle cx="48" cy="26.7" r="5.3"/>
</g>
</svg>
