<?xml version="1.0" encoding="utf-8"?>
<!-- Generator: Adobe Illustrator 23.0.0, SVG Export Plug-In . SVG Version: 6.00 Build 0)  -->
<svg version="1.1" id="Layer_1" xmlns="http://www.w3.org/2000/svg" xmlns:xlink="http://www.w3.org/1999/xlink" x="0px" y="0px"
	 viewBox="0 0 64 64" style="enable-background:new 0 0 64 64;" xml:space="preserve">
<path d="M55.7,52l-7.2-15.7c2.4-2.4,4.3-5.1,5.6-8.3c0.5-1.3-0.3-2.9-1.6-3.5c-1.3-0.5-2.9,0.3-3.5,1.6c-0.8,1.9-1.9,3.5-2.9,5.1
	l-4.3-9.9c0.8-1.3,1.1-2.9,1.1-4.8c0-5.1-3.5-9.3-8.3-10.4V2.7C34.7,1.1,33.6,0,32,0c-1.6,0-2.7,1.1-2.7,2.7v3.7
	c-4.8,1.1-8.3,5.3-8.3,10.4c0,1.6,0.5,3.2,1.1,4.8l-4.3,9.3c-1.3-1.6-2.4-3.2-2.9-5.1c-0.5-1.3-2.1-2.1-3.5-1.6
	c-1.3,0.5-2.1,2.1-1.6,3.5c1.3,3.2,3.2,5.9,5.6,8.3L8.3,51.7L8,60.8c0,1.1,0.5,2.4,1.6,2.9c0.5,0,0.8,0.3,1.3,0.3
	c0.8,0,1.6-0.3,2.1-0.8l6.7-6.1l6.7-14.9c1.9,0.5,3.7,0.8,5.6,0.8c1.9,0,3.7-0.3,5.6-0.8l6.9,14.9l6.4,6.1c0.5,0.5,1.3,0.8,2.1,0.8
	c0.5,0,1.1,0,1.3-0.3c1.1-0.5,1.6-1.6,1.6-2.9L55.7,52z M15.2,53.9l-1.6,1.6v-2.1l6.1-13.9c0.5,0.3,1.1,0.5,1.6,0.8L15.2,53.9z
	 M23.5,35.5c-0.5-0.3-1.1-0.5-1.6-0.8l4-8.8c0.5,0.3,1.1,0.5,1.6,0.8L23.5,35.5z M32,37.6c-1.1,0-2.1-0.3-3.5-0.3l3.5-7.5l3.5,7.5
	C34.1,37.3,33.1,37.6,32,37.6z M32,22.1c-3.2,0-5.6-2.4-5.6-5.6s2.4-5.6,5.6-5.6s5.6,2.4,5.6,5.6S35.2,22.1,32,22.1z M40.5,35.5
	l-4-8.8c0.5-0.3,1.1-0.5,1.6-0.8l4,8.8C41.3,34.9,41.1,35.2,40.5,35.5z M48.8,53.9l-6.1-13.6c0.5-0.3,1.1-0.5,1.6-0.8l6.4,13.9v2.1
	L48.8,53.9z"/>
</svg>
