<?xml version="1.0" encoding="utf-8"?>
<!-- Generator: Adobe Illustrator 21.0.2, SVG Export Plug-In . SVG Version: 6.00 Build 0)  -->
<svg version="1.1" id="Layer_1" xmlns="http://www.w3.org/2000/svg" xmlns:xlink="http://www.w3.org/1999/xlink" x="0px" y="0px"
	 viewBox="0 0 64 64" style="enable-background:new 0 0 64 64;" xml:space="preserve">
<path d="M58-0.1H14.1c-1.9,0-3.7,1.1-4.8,2.9L1.2,19c-0.8,1.6-0.8,3.7,0.3,5.1c1.1,1.6,2.7,2.4,4.6,2.4h14.5V56c0,4.6,3.5,8,8,8H34
	c4.6,0,8-3.5,8-8V26.7h16c2.9,0,5.4-2.4,5.4-5.4v-16C63.3,2.4,60.9-0.1,58-0.1z M36.5,56.2c0,1.6-1,2.7-2.6,2.7h-5.4
	c-1.6,0-2.7-1.1-2.7-2.7V26.7h10.7V56.2L36.5,56.2z M41.9,21.4H20.5H6l8-16.1h44v16.1H41.9z"/>
</svg>
