<?xml version="1.0" encoding="utf-8"?>
<!-- Generator: Adobe Illustrator 23.0.0, SVG Export Plug-In . SVG Version: 6.00 Build 0)  -->
<svg version="1.1" id="Layer_1" xmlns="http://www.w3.org/2000/svg" xmlns:xlink="http://www.w3.org/1999/xlink" x="0px" y="0px"
	 viewBox="0 0 64 64" style="enable-background:new 0 0 64 64;" xml:space="preserve">
<g>
	<path d="M63.2,38.8l-6.1-6.1l-6.9,3.2c-1.3,0.5-1.9,2.1-1.3,3.5c0.5,1.3,2.1,1.9,3.5,1.3l1.1-0.5c-1.6,4.3-4.5,8-8.3,10.4V42
		c0-5.6-4.3-10.1-9.3-10.1h-0.5c3.5-1.3,5.6-4.5,5.6-8.3c0-4.8-4-8.8-8.8-8.8s-8.8,4-8.8,8.8c0,3.7,2.4,6.9,5.9,8.3H28
		c-5.1,0-9.3,4.5-9.3,10.1v8c-3.7-2.7-6.7-6.7-8-11.2c-0.5-1.3-1.9-2.1-3.5-1.6c-1.3,0.5-2.1,1.9-1.6,3.5
		c3.7,11.5,14.7,19.5,26.7,19.5s22.4-7.5,26.4-18.4l0.8,0.8c0.5,0.5,1.3,0.8,1.9,0.8s1.3-0.3,1.9-0.8C64.3,41.5,64.3,39.9,63.2,38.8
		z M32.3,20.4c1.9,0,3.5,1.6,3.5,3.5c0,1.9-1.6,3.5-3.5,3.5s-3.5-1.6-3.5-3.5C28.8,22,30.1,20.4,32.3,20.4z M24,53.5V42.5
		c0-2.7,1.9-4.8,4-4.8h2.4l-1.1,4.5l2.7,8.5l2.7-8.5l-1.1-4.8H36c2.1,0,4,2.1,4,4.8v11.2h0.3c-2.4,1.1-5.3,1.6-8,1.6
		C29.3,55.1,26.7,54.3,24,53.5z"/>
	<path d="M14.4,28.4c1.3-0.8,1.9-2.4,1.1-3.7c-0.8-1.3-2.4-1.9-3.7-1.1l-0.8,0.5c3.2-8.8,11.7-14.9,21.3-14.9
		c10.4,0,19.7,7.2,22.1,17.3c0.3,1.3,1.9,2.4,3.2,1.9c1.3-0.3,2.4-1.9,1.9-3.2C56.3,12.7,45.1,3.9,32,3.9c-12.3,0-22.9,8-26.7,19.5
		l-0.8-0.8c-1.1-1.1-2.7-1.1-3.7,0s-1.1,2.7,0,3.7l6.1,6.1L14.4,28.4z"/>
</g>
</svg>
