<?xml version="1.0" encoding="utf-8"?>
<!-- Generator: Adobe Illustrator 23.0.0, SVG Export Plug-In . SVG Version: 6.00 Build 0)  -->
<svg version="1.1" id="Layer_1" xmlns="http://www.w3.org/2000/svg" xmlns:xlink="http://www.w3.org/1999/xlink" x="0px" y="0px"
	 viewBox="0 0 64 64" style="enable-background:new 0 0 64 64;" xml:space="preserve">
<path d="M58.7,24c2.9,0,5.3-2.4,5.3-5.3v-3.5c0-2.4-1.6-4.5-3.7-5.1L27.7,0.3C27.2,0,26.7,0,26.1,0H13.3C10.4,0,8,2.4,8,5.3v13.3
	c0,2.9,2.4,5.3,5.3,5.3H16v18.7H5.3C2.4,42.7,0,45.1,0,48v10.7C0,61.6,2.4,64,5.3,64H32c2.9,0,5.3-2.4,5.3-5.3V48
	c0-2.9-2.4-5.3-5.3-5.3H21.3V24h29.3v11.2c0,2.4,1.6,4.5,4,5.1c2.7,0.8,4.3,3.5,4,6.1c-0.3,2.1-2.1,4-4.3,4.3
	c-1.6,0.3-3.2,0-4.5-1.1c-1.1-1.1-1.9-2.7-1.9-4.3c0-0.5,0-1.3,0.3-1.9c0.5-1.3-0.3-2.9-1.6-3.5c-1.3-0.5-2.9,0.3-3.5,1.6
	c-0.3,1.3-0.5,2.4-0.5,3.7c0,3.2,1.3,6.1,3.7,8.3c1.9,1.6,4.3,2.4,6.9,2.4c0.5,0,1.3,0,1.9-0.3c4.3-0.8,7.7-4.3,8.5-8.5
	c1.1-5.6-2.4-10.9-7.7-12V24H58.7z M32,58.7H5.3V48H32V58.7z M58.7,18.7H29.3V6.4l29.3,9.1V18.7z M13.3,5.3H24v13.3H13.3V5.3z"/>
</svg>
