<?xml version="1.0" encoding="utf-8"?>
<!-- Generator: Adobe Illustrator 22.0.1, SVG Export Plug-In . SVG Version: 6.00 Build 0)  -->
<svg version="1.1" id="Layer_1" xmlns="http://www.w3.org/2000/svg" xmlns:xlink="http://www.w3.org/1999/xlink" x="0px" y="0px"
	 viewBox="0 0 64 64" style="enable-background:new 0 0 64 64;" xml:space="preserve">
<g>
	<path d="M53.3,0H10.7C9.1,0,8,1.1,8,2.7v58.7c0,1.6,1.1,2.7,2.7,2.7h42.7c1.6,0,2.7-1.1,2.7-2.7V2.7C56,1.1,54.9,0,53.3,0z
		 M50.7,58.7H13.3V5.3h37.3V58.7z"/>
	<path d="M21.3,21.3V24c0,1.6,1.1,2.7,2.7,2.7s2.7-1.1,2.7-2.7v-2.7h16c1.6,0,2.7-1.1,2.7-2.7c0-1.6-1.1-2.7-2.7-2.7h-16v-2.7
		c0-1.6-1.1-2.7-2.7-2.7s-2.7,1.1-2.7,2.7V16c-1.6,0-2.7,1.1-2.7,2.7C18.7,20.3,19.7,21.3,21.3,21.3z"/>
	<path d="M21.3,34.7h16v2.7c0,1.6,1.1,2.7,2.7,2.7s2.7-1.1,2.7-2.7v-2.7c1.6,0,2.7-1.1,2.7-2.7c0-1.6-1.1-2.7-2.7-2.7v-2.7
		c0-1.6-1.1-2.7-2.7-2.7s-2.7,1.1-2.7,2.7v2.7h-16c-1.6,0-2.7,1.1-2.7,2.7C18.7,33.6,19.7,34.7,21.3,34.7z"/>
	<path d="M21.3,48v2.7c0,1.6,1.1,2.7,2.7,2.7s2.7-1.1,2.7-2.7V48h16c1.6,0,2.7-1.1,2.7-2.7c0-1.6-1.1-2.7-2.7-2.7h-16V40
		c0-1.6-1.1-2.7-2.7-2.7s-2.7,1.1-2.7,2.7v2.7c-1.6,0-2.7,1.1-2.7,2.7C18.7,46.9,19.7,48,21.3,48z"/>
</g>
</svg>
