<?xml version="1.0" encoding="utf-8"?>
<!-- Generator: Adobe Illustrator 22.0.1, SVG Export Plug-In . SVG Version: 6.00 Build 0)  -->
<svg version="1.1" id="Layer_1" xmlns="http://www.w3.org/2000/svg" xmlns:xlink="http://www.w3.org/1999/xlink" x="0px" y="0px"
	 viewBox="0 0 64 64" style="enable-background:new 0 0 64 64;" xml:space="preserve">
<path d="M21,29.1c-0.6-2.5-2.7-4.1-5.1-4.1h-3.7c-0.7,0-1.3,0.5-1.4,1.1L7.3,39l2.5,0c0.7,0,1.2-0.5,1.4-1.1l2.6-9.6h2
	c0.8,0,1.6,0.6,1.8,1.5c0.3,1.1-0.6,2.3-1.8,2.3h-1c-0.7,0-1.3,0.5-1.4,1.1l-0.6,2.4h3.2C19.6,35.6,21.7,32,21,29.1L21,29.1z
	 M5.4,31.9h1.9c0.7,0,1.2-0.4,1.4-1.1l0.6-2.4h-4c-2.3,0-4.4,1.4-5.1,4.1c-0.9,3.4,1.7,6.5,5,6.5h1.2l0.7-2.6
	c0.1-0.4-0.2-0.8-0.6-0.8H5.4C2.9,35.6,2.9,31.9,5.4,31.9L5.4,31.9z M30.1,28.4h-7.8L22,29.7c-0.2,1,0.5,1.9,1.4,1.9h5.8
	c0.4,0,0.2,0.4,0.2,0.5l-0.9,3.2c0,0.1-0.1,0.5-0.6,0.5h-3.5c-0.5,0-0.5-0.8,0-0.8h2.2c0.7,0,1.2-0.5,1.4-1.1l0.4-1.3h-4.8
	c-3.9,0-4.4,6.4-0.1,6.4l5.8,0c1.1,0,2.1-0.7,2.3-1.8l1.4-5.2C33.5,30.1,32,28.4,30.1,28.4L30.1,28.4z M63.3,24.9h-1.9
	c-0.5,0-0.9,0.3-1,0.8L56.8,39c2.1,0,4-1.4,4.5-3.5l2.7-9.8C64.1,25.3,63.8,24.9,63.3,24.9L63.3,24.9z M39.7,28.4L39.7,28.4l-4.8,0
	l-2.6,9.8c-0.1,0.4,0.2,0.8,0.6,0.8h1.9c0.5,0,0.9-0.3,1-0.8l1.7-6.4h2c1.3,0,2.1,1.2,1.8,2.3l-1.1,4c-0.1,0.4,0.2,0.8,0.6,0.8h1.9
	c0.5,0,0.9-0.3,1-0.8l0.9-3.3C45.6,31.6,43.1,28.4,39.7,28.4L39.7,28.4z M49.5,35.9c-0.4,0-0.6-0.3-0.5-0.7l0.8-3
	c0.1-0.4,0.4-0.6,0.8-0.6h3.3c0.3,0,0.5,0.2,0.4,0.5l-0.1,0.3c-0.1,0.2-0.2,0.3-0.4,0.3h-2.2c-0.7,0-1.3,0.5-1.4,1.1l-0.4,1.3h5.3
	c1.1,0,2-0.7,2.3-1.8l0.3-1.2c0.5-1.9-0.9-3.7-2.8-3.7h-4.7c-1.8,0-3.4,1.2-3.9,3l-1.1,4c-0.5,1.8,0.8,3.7,2.8,3.7h6.7
	c0.7,0,1.2-0.5,1.4-1.1l0.6-2.1H49.5z"/>
</svg>
