<?xml version="1.0" encoding="utf-8"?>
<!-- Generator: Adobe Illustrator 22.0.1, SVG Export Plug-In . SVG Version: 6.00 Build 0)  -->
<svg version="1.1" id="Layer_1" xmlns="http://www.w3.org/2000/svg" xmlns:xlink="http://www.w3.org/1999/xlink" x="0px" y="0px"
	 viewBox="0 0 64 64" style="enable-background:new 0 0 64 64;" xml:space="preserve">
<path d="M31.7,26.7l-4.3,2.2c-1.2-2.5-3.3-2.6-3.5-2.6c-2.9,0-4.3,1.9-4.3,5.7c0,3,1.2,5.7,4.3,5.7c1.9,0,3.2-0.9,3.9-2.7l3.9,2
	c-0.8,1.5-3.3,5-8.4,5c-2.9,0-9.5-1.3-9.5-9.9c0-7.6,5.5-9.9,9.4-9.9C27.2,22.1,30,23.6,31.7,26.7L31.7,26.7z M50.2,26.7l-4.2,2.2
	c-1.2-2.6-3.3-2.6-3.6-2.6c-2.9,0-4.3,1.9-4.3,5.7c0,3,1.2,5.7,4.3,5.7c1.9,0,3.2-0.9,3.9-2.7l4,2c-0.3,0.5-2.8,5-8.4,5
	c-2.9,0-9.5-1.3-9.5-9.9c0-7.6,5.5-9.9,9.4-9.9C45.7,22.1,48.5,23.6,50.2,26.7L50.2,26.7z M31.9,0C13.5,0,0,14.8,0,32
	c0,17.9,14.7,32,31.9,32C48.7,64,64,51,64,32C64,14.2,50.2,0,31.9,0L31.9,0z M32.1,58.2c-14.5,0-26.3-12-26.3-26.2
	c0-13.6,11-26.2,26.3-26.2c14.5,0,26.2,11.5,26.2,26.2C58.2,47.7,45.4,58.2,32.1,58.2L32.1,58.2z"/>
</svg>
