<?xml version="1.0" encoding="utf-8"?>
<!-- Generator: Adobe Illustrator 21.0.2, SVG Export Plug-In . SVG Version: 6.00 Build 0)  -->
<svg version="1.1" id="Layer_2_1_" xmlns="http://www.w3.org/2000/svg" xmlns:xlink="http://www.w3.org/1999/xlink" x="0px" y="0px"
	 viewBox="0 0 64 64" style="enable-background:new 0 0 64 64;" xml:space="preserve">
<path d="M58.7,53.2H56V9.7l4.5-5.3c1.1-1.1,0.8-2.7-0.3-3.7S57.5-0.1,56.5,1l-3.7,4.5H13.3V2.7c0-1.6-1.1-2.7-2.7-2.7
	S7.9,1.1,7.9,2.7v2.7H5.3c-1.6,0-2.7,1.1-2.7,2.7s1.1,2.7,2.7,2.7h2.7v42.5H5.3c-1.6,0-2.7,1.1-2.7,2.7s1.1,2.7,2.7,2.7h2.7v2.7
	c0,1.6,1.1,2.7,2.7,2.7s2.7-1.1,2.7-2.7v-2.7h37.3v2.7c0,1.6,1.1,2.7,2.7,2.7c1.6,0,2.7-1.1,2.7-2.7v-2.7h2.7c1.6,0,2.7-1.1,2.7-2.7
	S60.3,53.2,58.7,53.2z M13.3,10.7H48L13.3,49.2V10.7z M16.8,53.2l33.9-37.4v37.4H16.8z"/>
</svg>
