<?xml version="1.0" encoding="utf-8"?>
<!-- Generator: Adobe Illustrator 22.0.1, SVG Export Plug-In . SVG Version: 6.00 Build 0)  -->
<svg version="1.1" id="Layer_1" xmlns="http://www.w3.org/2000/svg" xmlns:xlink="http://www.w3.org/1999/xlink" x="0px" y="0px"
	 viewBox="0 0 64 64" style="enable-background:new 0 0 64 64;" xml:space="preserve">
<g>
	<path d="M63,1.3c-0.6-0.7-1.6-1.1-2.5-1.1c-7.6,0-56.5,0-57,0c-1,0-1.9,0.4-2.5,1.1C0.3,2,0,2.9,0.1,3.9l5.1,51.4
		c0.1,1.3,1.1,2.5,2.5,2.9l22.6,5.5c0.5,0.1,1,0.2,1.5,0.2c0.5,0,1.1-0.1,1.6-0.2l22.6-5.5c1.3-0.3,2.3-1.5,2.4-2.8l5.4-51.5
		C64,2.9,63.7,2,63,1.3z M53.7,53.6l-21.4,5.2c-0.3,0.1-0.7,0.1-0.9,0l-21.4-5.2L5.3,5.2c8.3,0,43.4,0,53.5,0L53.7,53.6z"/>
	<path d="M11,13.5c0,1.4,1.1,2.5,2.5,2.5l34.6,0l-1.4,8H18.5c-1.4,0-2.5,1.1-2.5,2.5s1.1,2.5,2.5,2.5h27.3l-2.3,12.7L33,45.4
		l-10.5-3.8L21.1,35c-0.3-1.4-1.6-2.2-2.9-1.9c-1.4,0.3-2.2,1.6-1.9,3l1.6,8c0.2,0.9,0.8,1.6,1.6,1.9l12.7,4.5
		c0.3,0.1,0.6,0.1,0.8,0.1s0.6,0,0.8-0.1l12.7-4.5c0.8-0.3,1.5-1,1.6-1.9l4.9-27.5c0.3-1.4-0.1-2.7-1-3.8c0,0-0.1-0.1-0.1-0.1
		c-0.9-1-2.2-1.5-3.6-1.5h-35C12.1,11,11,12.1,11,13.5z"/>
</g>
</svg>
