<?xml version="1.0" encoding="utf-8"?>
<!-- Generator: Adobe Illustrator 23.0.0, SVG Export Plug-In . SVG Version: 6.00 Build 0)  -->
<svg version="1.1" id="Layer_2_1_" xmlns="http://www.w3.org/2000/svg" xmlns:xlink="http://www.w3.org/1999/xlink" x="0px" y="0px"
	 viewBox="0 0 64 64" style="enable-background:new 0 0 64 64;" xml:space="preserve">
<path d="M57.9,8H48V3.5C48,1.6,46.4,0,44.5,0H19.7C17.6,0,16,1.6,16,3.5V8H6.1c-1.9,0-3.5,1.6-3.5,3.5v0.8C2.7,20,8.5,26.7,16,27.7
	l0,0c0,7.7,5.9,14.4,13.3,15.7v15.2h-8c-1.6,0-2.7,1.1-2.7,2.7c0,1.6,1.1,2.7,2.7,2.7h21.3c1.6,0,2.7-1.1,2.7-2.7
	c0-1.6-1.1-2.7-2.7-2.7h-8V43.7c3.5-0.5,6.4-2.1,8.8-4.5C46.4,36.3,48,32.3,48,28l0,0c7.5-1.3,13.3-7.7,13.3-15.5v-1.1
	C61.3,9.6,59.7,8,57.9,8z M8,13.3h8v9.1C11.7,21.3,8.5,17.9,8,13.3z M32,38.4c-5.9,0-10.7-4.8-10.7-10.4V8V5.3h21.3V8v20
	c0,2.7-1.1,5.3-2.9,7.5C37.6,37.3,34.9,38.4,32,38.4z M48,22.4v-9.1h8C55.5,17.9,52.3,21.3,48,22.4z"/>
</svg>
