<?xml version="1.0" encoding="utf-8"?>
<!-- Generator: Adobe Illustrator 23.0.0, SVG Export Plug-In . SVG Version: 6.00 Build 0)  -->
<svg version="1.1" id="Layer_1" xmlns="http://www.w3.org/2000/svg" xmlns:xlink="http://www.w3.org/1999/xlink" x="0px" y="0px"
	 viewBox="0 0 64 64" style="enable-background:new 0 0 64 64;" xml:space="preserve">
<g>
	<path d="M61.1,47.1L61.1,47.1c-1.4-4.6-5.7-7.1-10.1-5.7c-3,1.1-7.1,2.2-10.3,3.3c0-0.8-0.3-1.6-0.5-2.5c-1.1-2.7-4.1-4.1-6.5-4.1
		h-9.8c-0.5,0-1.4-0.3-2.2-1.1c-1.1-1.1-2.7-1.6-4.4-1.6H9.6c-4.1,0.3-7.1,3.5-7.1,7.6v12.8c0,3.8,3.3,7.1,7.1,7.1h9.5
		c1.1,0,2.5-0.3,3.5-1.1c2.7,1.6,6,2.2,9.3,2.2c1.9,0,4.1-0.3,5.7-0.8l18-5.4C61.3,55.8,62.2,50.7,61.1,47.1z M9.6,57.5
		c-0.8,0-1.6-0.8-1.6-1.9V42.8c0-0.8,0.8-1.6,1.6-1.6h7.9c0.3,0,0.5,0,0.5,0.3c0.3,0.3,0.5,0.3,0.8,0.5v15.5H9.6z M54,52.8l-18,5.4
		c-3.5,1.1-7.6,0.8-11.2-1.1l-0.5-0.5V43.8h9.5c0.5,0,1.4,0.3,1.4,0.5c0.3,0.3-0.3,1.1-0.5,1.4c-0.8,1.1-1.9,2.2-2.2,3.5
		c0,1.4,1.1,2.5,2.5,2.5c2.5-0.3,5.2-1.4,7.6-1.9c3.3-1.1,6.5-2.2,9.8-3.3c1.4-0.5,3,0.5,3.3,2.2C56.4,50.7,55.6,52,54,52.8z"/>
	<path d="M50.7,16.3c4.4,0,8.2-3.5,8.2-8.2c0-4.4-3.5-8.2-8.2-8.2s-8.2,3.5-8.2,8.2S46.4,16.3,50.7,16.3z M50.7,5.7
		c1.4,0,2.7,1.1,2.7,2.7s-1.1,2.7-2.7,2.7S48,10.1,48,8.4S49.4,5.7,50.7,5.7z"/>
	<path d="M48.3,38.4h3.3c4.4,0,7.9-3.5,7.9-7.9v-5.7c0-4.4-3.5-7.9-7.9-7.9h-3c-4.4,0-7.9,3.5-7.9,7.9v5.4
		C40.6,34.9,44.2,38.4,48.3,38.4z M46.1,24.5c0-1.4,1.1-2.5,2.5-2.5h3c1.4,0,2.5,1.1,2.5,2.5v5.7c0,1.4-1.1,2.5-2.5,2.5h-3.3
		c-1.1,0-2.2-1.1-2.2-2.7V24.5z"/>
</g>
</svg>
