<?xml version="1.0" encoding="utf-8"?>
<!-- Generator: Adobe Illustrator 23.0.0, SVG Export Plug-In . SVG Version: 6.00 Build 0)  -->
<svg version="1.1" id="Layer_2_1_" xmlns="http://www.w3.org/2000/svg" xmlns:xlink="http://www.w3.org/1999/xlink" x="0px" y="0px"
	 viewBox="0 0 64 64" style="enable-background:new 0 0 64 64;" xml:space="preserve">
<path d="M49.4,40c-4,0-7.5,1.9-9.6,5.1l-4.8-13.4l10.4-28c0.5-1.3-0.3-2.9-1.6-3.5c-1.3-0.5-2.9,0.3-3.5,1.6L32,23.9L24,1.8
	c-0.5-1.3-2.1-2.1-3.5-1.6c-1.3,0.5-2.1,2.1-1.6,3.5l10.1,28L24.3,45c-2.1-3.2-5.6-5.1-9.6-5.1c-6.7,0-12,5.3-12,12s5.3,12,12,12
	c5.9,0,10.7-4,11.8-9.6c0,0,0,0,0-0.3l5.6-15l5.3,15c0,0.3,0.3,0.3,0.3,0.5C38.9,60,43.5,64,49.4,64c6.7,0,12-5.3,12-12
	S56,40,49.4,40z M14.6,58.7C10.9,58.7,8,55.7,8,52c0-3.7,2.9-6.7,6.7-6.7s6.7,2.9,6.7,6.7C21.3,55.7,18.4,58.7,14.6,58.7z
	 M49.4,58.7c-3.7,0-6.7-2.9-6.7-6.7c0-3.7,2.9-6.7,6.7-6.7c3.7,0,6.7,2.9,6.7,6.7C56,55.7,53.1,58.7,49.4,58.7z"/>
</svg>
