<?xml version="1.0" encoding="utf-8"?>
<!-- Generator: Adobe Illustrator 22.0.1, SVG Export Plug-In . SVG Version: 6.00 Build 0)  -->
<svg version="1.1" id="Layer_1" xmlns="http://www.w3.org/2000/svg" xmlns:xlink="http://www.w3.org/1999/xlink" x="0px" y="0px"
	 viewBox="0 0 64 64" style="enable-background:new 0 0 64 64;" xml:space="preserve">
<path d="M53.3,38.7L53.3,38.7V26.1c0,0,0,0,0-0.3l0,0V13.3C53.3,5.9,44,0,32,0S10.7,5.9,10.7,13.3v12.5l0,0v0.3v12.5l0,0v0.3v11.7
	C10.7,58.1,20.3,64,32,64s21.3-5.9,21.3-13.3V38.9V38.7z M32,38.9c6.4,0,12-1.6,16-4.3v4.3c-0.3,3.5-6.7,7.5-16,7.5s-15.7-4-16-7.5
	v-4.3C20,37.3,25.9,38.9,32,38.9z M16,25.9v-3.7c4,2.7,9.6,4.5,16,4.5s12-1.6,16-4.5v3.7c0,1.6-1.3,2.9-2.4,3.7
	c-2.9,2.4-8,3.7-13.6,3.7c-5.3,0-10.4-1.3-13.6-3.7C17.3,28.8,16,27.7,16,25.9z M32,5.3c9.3,0,16,4.3,16,8s-6.7,8-16,8s-16-4.3-16-8
	S22.7,5.3,32,5.3z M32,58.7c-9.1,0-16-4.3-16-8v-3.2c4,2.7,9.6,4.3,16,4.3s12-1.6,16-4.3v3.2C48,54.4,41.1,58.7,32,58.7z"/>
</svg>
