<?xml version="1.0" encoding="utf-8"?>
<!-- Generator: Adobe Illustrator 23.0.0, SVG Export Plug-In . SVG Version: 6.00 Build 0)  -->
<svg version="1.1" id="Layer_1" xmlns="http://www.w3.org/2000/svg" xmlns:xlink="http://www.w3.org/1999/xlink" x="0px" y="0px"
	 viewBox="0 0 64 64" style="enable-background:new 0 0 64 64;" xml:space="preserve">
<path d="M58.6,10H27c-3.2,0-5.6,2.4-5.6,5.6v-0.3H8.3c-1.3,0-2.4,0.8-2.9,1.9L0.3,27.4C0,28,0,28.5,0,29.1v15.8
	c0,1.6,1.1,2.7,2.7,2.7h2.1c0.8,3.7,4.3,6.4,8,6.4c4,0,7.2-2.7,8-6.4h3.2h17.4c0.8,3.7,4.3,6.4,8,6.4c3.7,0,7.2-2.7,8-6.4h2.9
	c1.9,0,3.5-1.6,3.5-3.5V15.7C64.2,12.5,61.8,10,58.6,10z M9.6,20.8h11.8v5.4H7L9.6,20.8z M20.9,42.2c-1.3-2.9-4.3-5.1-7.8-5.1
	s-6.4,2.1-7.8,5.1l0,0V31.5h16.1v10.7H20.9z M13.1,48.6c-1.6,0-2.9-1.3-2.9-2.9c0-1.6,1.3-2.9,2.9-2.9s2.9,1.3,2.9,2.9
	C16.1,47.3,14.7,48.6,13.1,48.6z M49.8,48.6c-1.6,0-2.9-1.3-2.9-2.9c0-1.6,1.3-2.9,2.9-2.9s2.9,1.3,2.9,2.9
	C52.7,47.3,51.4,48.6,49.8,48.6z M58.9,42.2h-1.6c-1.3-2.9-4.3-5.1-7.8-5.1s-6.4,2.1-7.8,5.1h-15V15.7c0,0,0-0.3,0.3-0.3h31.9
	c0,0,0.3,0,0.3,0.3v26.5H58.9z"/>
</svg>
