<?xml version="1.0" encoding="utf-8"?>
<!-- Generator: Adobe Illustrator 23.0.0, SVG Export Plug-In . SVG Version: 6.00 Build 0)  -->
<svg version="1.1" id="Layer_1" xmlns="http://www.w3.org/2000/svg" xmlns:xlink="http://www.w3.org/1999/xlink" x="0px" y="0px"
	 viewBox="0 0 64 64" style="enable-background:new 0 0 64 64;" xml:space="preserve">
<path d="M63.5,23.7L54.4,2.9c-0.5-1.1-1.3-1.9-2.4-2.4c-0.3,0-0.3-0.3-0.5-0.3C51.2,0,50.9,0,50.4,0h-0.3H13.9
	C12,0,10.4,1.1,9.6,2.9L0.5,23.7c-0.8,1.6-0.5,3.5,0.5,4.8l27.2,33.6c0.8,1.3,2.1,1.9,3.7,1.9l0,0c1.6,0,2.9-0.8,3.7-1.9l27.5-33.9
	C64,26.9,64.3,25.3,63.5,23.7z M57.9,24H45.3l5.6-15.2L57.9,24z M32,10.7L39.5,24H24.3L32,10.7z M21.6,18.1L16.3,5.3h12.8L21.6,18.1
	z M35.2,5.3h11.7l-4.5,12.5L35.2,5.3z M38.9,29.3L32,52.3l-6.9-22.9H38.9z M19.5,29.3l6.7,21.6L8.5,29.3H19.5z M44.5,29.3h10.9
	L38.1,50.9L44.5,29.3z M12.3,9.9L18.4,24H6.1L12.3,9.9z"/>
</svg>
