<?xml version="1.0" encoding="utf-8"?>
<!-- Generator: Adobe Illustrator 23.0.0, SVG Export Plug-In . SVG Version: 6.00 Build 0)  -->
<svg version="1.1" id="Layer_1" xmlns="http://www.w3.org/2000/svg" xmlns:xlink="http://www.w3.org/1999/xlink" x="0px" y="0px"
	 viewBox="0 0 64 64" style="enable-background:new 0 0 64 64;" xml:space="preserve">
<style type="text/css">
	.st0{fill:none;stroke:#000000;stroke-width:2;stroke-miterlimit:10;}
</style>
<g>
	<path d="M32.1,64L32.1,64c-1.6,0-2.9-0.8-3.7-1.9L3.6,28.5c-1.1-1.3-1.3-3.2-0.5-4.8l9.1-20.8C13.2,1.1,14.8,0,16.7,0h30.9
		c1.9,0,3.5,1.1,4.3,2.9l9.1,20.8c0.8,1.6,0.5,3.5-0.5,4.8L35.9,62.1C35.1,63.2,33.7,64,32.1,64z M8.1,25.6l24,32.5l24-32.5
		L47.1,5.3H17.2L8.1,25.6z"/>
</g>
<g>
	<path class="st0" d="M32,32"/>
</g>
</svg>
