<?xml version="1.0" encoding="utf-8"?>
<!-- Generator: Adobe Illustrator 22.0.1, SVG Export Plug-In . SVG Version: 6.00 Build 0)  -->
<svg version="1.1" id="Layer_1" xmlns="http://www.w3.org/2000/svg" xmlns:xlink="http://www.w3.org/1999/xlink" x="0px" y="0px"
	 viewBox="0 0 64 64" style="enable-background:new 0 0 64 64;" xml:space="preserve">
<g>
	<path d="M24.1,32.4c3.2,0,3.7-2.2,3.7-3.1c0-1.6-1.3-3.1-3.6-3.1c-0.7,0-1.2,0-1.6,0c-0.4,0-0.7,0-1.1,0v0.2c0.4,0,0.8,0,0.8,0.8
		v4.3c0,0.6-0.3,0.6-0.8,0.7v0.2c0.4,0,0.8,0,1.2,0C23.3,32.4,23.7,32.4,24.1,32.4z M23.3,26.5c0.2,0,0.3,0,0.7,0
		c1.7,0,2.8,1.2,2.8,2.9c0,1.3-0.6,2.8-2.6,2.8c-0.4,0-0.9-0.1-0.9-0.8V26.5z"/>
	<path d="M30.1,32.4v-0.2h-0.2c-0.3,0-0.4,0-0.4-0.3v-3.4c0-0.1,0-0.1-0.1-0.1c0,0-0.1,0-0.2,0c0,0-0.5,0.2-1,0.3v0.1
		c0.3,0.2,0.5,0.2,0.5,0.6v2.4c0,0.3-0.2,0.3-0.4,0.3h-0.2v0.2c0.3,0,0.7,0,1,0C29.4,32.4,29.8,32.4,30.1,32.4z"/>
	<path d="M29.1,26.9c0.2,0,0.4-0.2,0.4-0.4c0-0.2-0.2-0.4-0.4-0.4c-0.2,0-0.4,0.2-0.4,0.4C28.7,26.7,28.9,26.9,29.1,26.9z"/>
	<path d="M34.8,32.2h-0.2c-0.3,0-0.4,0-0.4-0.3v-2.3c0-0.7-0.3-1.3-1-1.3c-0.6,0-1,0.3-1.6,0.7v-0.6c0-0.1,0-0.1-0.1-0.1
		c-0.4,0.2-0.8,0.3-1.2,0.4v0.2c0.4,0.2,0.5,0.3,0.5,0.6v2.4c0,0.3-0.2,0.3-0.4,0.3h-0.2v0.2c0.3,0,0.6,0,1,0c0.3,0,0.6,0,1,0v-0.2
		h-0.2c-0.3,0-0.4,0-0.4-0.3v-2.7c0.3-0.2,0.8-0.4,1-0.4c0.5,0,0.8,0.3,0.8,0.8v2.3c0,0.3-0.2,0.3-0.4,0.3h-0.2v0.2c0.3,0,0.6,0,1,0
		c0.3,0,0.6,0,0.9,0V32.2z"/>
	<path d="M36.5,32.5c0.7,0,1.2-0.5,1.7-1L38,31.4c-0.3,0.3-0.7,0.6-1.2,0.6c-0.7,0-1.3-0.7-1.3-1.6c0-0.3,0-0.4,0-0.5H38l0.1-0.1
		c0-0.1,0-0.1,0-0.2c0-1-0.8-1.4-1.5-1.4c-0.6,0-1.8,0.5-1.8,2.3C34.8,31.2,35.1,32.5,36.5,32.5z M36.6,28.6c0.5,0,0.8,0.4,0.8,0.8
		c0,0.1,0,0.2-0.2,0.2h-1.6C35.6,29,36,28.6,36.6,28.6z"/>
	<path d="M40.6,32.4v-0.2h-0.5c-0.3,0-0.4,0-0.4-0.3v-2.1c0-0.5,0.5-0.7,0.7-0.7c0.3,0,0.3,0.2,0.6,0.2c0.3,0,0.4-0.2,0.4-0.5
		c0-0.3-0.3-0.5-0.5-0.5c-0.5,0-0.9,0.6-1.1,0.9h0v-0.8c0-0.1,0-0.1-0.1-0.1c-0.1,0-0.4,0.2-1.1,0.5V29c0.1,0.1,0.5,0.1,0.5,0.4v2.5
		c0,0.3-0.2,0.3-0.4,0.3h-0.2v0.2c0.3,0,0.7,0,1.1,0C39.8,32.4,40.1,32.4,40.6,32.4z"/>
	<path d="M42.9,32.3c-0.7,0-1-0.5-1.1-1.1l-0.2,0l0.1,1c0.3,0.2,0.7,0.3,1.1,0.3c1.1,0,1.5-0.6,1.5-1.2c0-1.4-2.1-1.1-2.1-2.1
		c0-0.4,0.3-0.6,0.7-0.6c0.6,0,0.9,0.3,1,0.9h0.2l-0.1-0.9c-0.3-0.2-0.7-0.3-1-0.3c-1,0-1.4,0.6-1.4,1.1c0,1.4,2,1.1,2,2.2
		C43.6,31.9,43.4,32.3,42.9,32.3z"/>
	<path d="M52.2,32.1l0.2-1.3l-0.2-0.1c-0.2,0.9-0.9,1.6-1.8,1.6c-1.4,0-2.7-1.3-2.7-3.1c0-2.2,1.5-2.8,2.5-2.8c1,0,1.7,0.4,1.9,1.5
		h0.2l-0.1-1.3C51.7,26.2,51,26,50.2,26c-1.8,0-3.4,1.3-3.4,3.2c0,2,1.3,3.4,3.4,3.4C50.9,32.5,51.9,32.3,52.2,32.1z"/>
	<path d="M54.7,32.4v-0.2h-0.2c-0.3,0-0.4,0-0.4-0.3v-6.2c0-0.1,0-0.1-0.1-0.1c0,0-0.1,0-0.2,0.1c-0.2,0.1-0.6,0.3-0.9,0.4v0.1
		c0.3,0.1,0.5,0.1,0.5,0.7v5c0,0.3-0.2,0.3-0.4,0.3h-0.2v0.2c0.3,0,0.7,0,1,0C54.1,32.4,54.4,32.4,54.7,32.4z"/>
	<path d="M55.2,29.2v2.3c0,0.8,0.5,1.1,1,1.1c0.6,0,1.1-0.3,1.6-0.8v0.7l0,0c0.2-0.1,0.9-0.2,1.3-0.3v-0.2c-0.1,0-0.3,0-0.4,0
		c-0.2,0-0.3,0-0.3-0.2v-3.3c0-0.1,0-0.2-0.1-0.2c-0.1,0-0.6,0.1-1.4,0.1v0.2c0.3,0.1,0.8,0.2,0.8,0.4v2.4c-0.4,0.3-0.8,0.5-1.1,0.5
		c-0.8,0-0.8-0.8-0.8-1v-2.3c0-0.2,0-0.3-0.1-0.3c-0.1,0-0.8,0.1-1.2,0.1v0.2C55.2,28.7,55.2,28.9,55.2,29.2z"/>
	<path d="M59.6,26.9v3.9c0,0.5,0,1.1-0.1,1.6l0.2,0.1l0.3-0.2c0.2,0.1,0.6,0.3,1.2,0.3c1.3,0,2.1-1.2,2.1-2.3c0-1-0.6-1.9-1.7-1.9
		c-0.5,0-1,0.3-1.3,0.6v-3.3c0-0.1,0-0.1-0.1-0.1c0,0-0.1,0-0.2,0.1c-0.2,0.1-0.6,0.3-0.9,0.4v0.1C59.4,26.3,59.6,26.3,59.6,26.9z
		 M60.3,29.2c0.2-0.2,0.5-0.4,0.9-0.4c0.7,0,1.4,0.8,1.4,1.8c0,0.8-0.4,1.7-1.4,1.7c-0.6,0-0.9-0.6-0.9-0.9V29.2z"/>
	<path d="M22.3,34.4c-0.2,0-0.5,0-0.7,0h0v0.2v0h0.1c0.2,0,0.3,0,0.3,0.3v2.6c0,0.2-0.2,0.3-0.3,0.3h-0.1h0v0v0.1v0h0
		c0.2,0,0.5,0,0.7,0c0.2,0,0.5,0,0.8,0h0v-0.2v0H23c-0.2,0-0.3,0-0.3-0.3v-2.6c0-0.2,0.2-0.3,0.3-0.3h0.1h0v-0.2v0h0
		C22.9,34.3,22.6,34.4,22.3,34.4z"/>
	<path d="M26.6,34.4c-0.2,0-0.5,0-0.7,0h0v0.2v0H26c0.1,0,0.4,0,0.4,0.4v1.8l-2.1-2.4c-0.2,0-0.3,0-0.5,0c-0.2,0-0.4,0-0.6,0h0v0.2
		v0h0.1c0.2,0,0.4,0.2,0.4,0.4V37c0,0.4-0.1,0.6-0.4,0.6h-0.1h0v0.2v0h0c0.2,0,0.4,0,0.7,0c0.2,0,0.4,0,0.6,0h0v-0.2v0h-0.1
		c-0.4,0-0.4-0.1-0.4-0.6v-2l2.5,2.8l0.2,0h0l0,0c0-0.1,0-0.3,0-0.5v-2.2c0-0.6,0.2-0.6,0.4-0.6h0.1h0v-0.2v0h0
		C27,34.3,26.8,34.4,26.6,34.4z"/>
	<path d="M30.6,34.2L30.6,34.2c0,0.1-0.1,0.2-0.2,0.2h-2.5c0,0,0,0,0,0c-0.1,0-0.2,0-0.2-0.1l0,0h-0.1h0v0c0,0.1,0,0.3,0,0.4
		c0,0.1,0,0.3-0.1,0.4l0,0h0.2h0l0,0c0.1-0.4,0.1-0.4,0.4-0.4h0.8v2.6c0,0.4-0.1,0.4-0.4,0.4h-0.1h0v0.2v0h0c0.2,0,0.5,0,0.8,0
		c0.3,0,0.6,0,0.8,0h0v-0.2v0h-0.1c-0.2,0-0.4,0-0.4-0.4v-2.6h0.8c0.3,0,0.3,0.3,0.3,0.4l0,0l0.2-0.1l0,0v0c0-0.1,0-0.3,0-0.4
		c0-0.1,0-0.3,0.1-0.4l0,0L30.6,34.2L30.6,34.2z"/>
	<path d="M33.5,36.9L33.5,36.9c-0.2,0.6-0.4,0.6-1,0.6c-0.3,0-0.6,0-0.6-0.3v-1.1l0.6,0c0.3,0,0.3,0.2,0.4,0.5l0,0l0.2,0l0,0v0
		c0-0.2,0-0.4,0-0.6c0-0.2,0-0.4,0-0.6v0h-0.2h0l0,0c0,0.3-0.1,0.4-0.4,0.4H32v-1.2h0.7c0.5,0,0.5,0.2,0.6,0.6l0,0l0.2,0l0,0v0
		c0-0.1,0-0.3,0-0.5c0-0.1,0-0.2,0-0.3v0h0c-0.3,0-0.8,0-1.2,0c-0.4,0-0.9,0-1.2,0h0v0.2v0H31c0.2,0,0.3,0,0.3,0.3v2.6
		c0,0.2-0.2,0.3-0.3,0.3h-0.1h0v0v0.1v0h0c0.3,0,0.9,0,1.3,0c0.4,0,1,0,1.3,0h0l0,0c0-0.3,0.1-0.5,0.2-0.8l0,0L33.5,36.9L33.5,36.9z
		"/>
	<path d="M36.8,37.3L36,36.1c0.4-0.2,0.7-0.4,0.7-0.9c0-0.7-0.6-0.9-1.2-0.9c-0.3,0-0.5,0-0.8,0c-0.3,0-0.6,0-0.8,0h0v0.2v0H34
		c0.2,0,0.3,0,0.3,0.4v2.5c0,0.2-0.1,0.2-0.3,0.2h-0.1h0v0.2v0h0c0.2,0,0.5,0,0.7,0c0.3,0,0.6,0,0.8,0h0v-0.2v0h-0.1
		c-0.2,0-0.4,0-0.4-0.4v-1h0.3c0.3,0.6,0.6,1.1,1,1.6c0.2,0,0.3,0,0.5,0c0.2,0,0.3,0,0.5,0h0v-0.2v0l0,0
		C37,37.6,36.9,37.5,36.8,37.3z M35.2,36H35v-1.4c0.1,0,0.1,0,0.3,0c0.4,0,0.7,0.3,0.7,0.7C35.9,35.8,35.7,36,35.2,36z"/>
	<path d="M41.3,34.5v-0.2v0h0c-0.2,0-0.4,0-0.6,0c-0.2,0-0.5,0-0.7,0h0v0.2v0h0.1c0.1,0,0.4,0,0.4,0.4v1.8l-2.1-2.4
		c-0.2,0-0.3,0-0.4,0c-0.2,0-0.4,0-0.6,0h0v0.2v0h0.1c0.2,0,0.4,0.2,0.4,0.4V37c0,0.4-0.1,0.6-0.4,0.6h-0.1h0v0.2v0h0
		c0.2,0,0.4,0,0.7,0c0.2,0,0.4,0,0.6,0h0v-0.2v0h-0.1c-0.4,0-0.4-0.1-0.4-0.6v-2l2.5,2.8l0.2,0h0l0,0c0-0.2,0-0.3,0-0.5v-2.2
		C40.8,34.6,41,34.5,41.3,34.5L41.3,34.5L41.3,34.5z"/>
	<path d="M44.4,37.4c-0.1-0.1-0.1-0.3-0.2-0.5l-0.9-2.6c0,0,0-0.1,0-0.1c0,0,0,0-0.1,0c0,0,0,0,0,0c-0.1,0.1-0.3,0.2-0.4,0.2
		c0,0.2-0.1,0.4-0.2,0.6l-0.8,2.2c-0.1,0.2-0.2,0.3-0.4,0.3h0h0v0.2v0l0,0c0.2,0,0.4,0,0.5,0c0.2,0,0.4,0,0.6,0l0,0v-0.2v0h-0.1
		c-0.2,0-0.3,0-0.3-0.1c0-0.1,0.1-0.2,0.1-0.4l0.2-0.5h1.1l0.2,0.6c0.1,0.2,0.1,0.3,0.1,0.3c0,0.1-0.2,0.1-0.3,0.1h-0.1h0v0.2v0l0,0
		c0.2,0,0.5,0,0.7,0c0.2,0,0.5,0,0.7,0l0,0v-0.2v0h-0.1C44.5,37.6,44.4,37.5,44.4,37.4z M42.4,36.3l0.4-1.3l0.4,1.3H42.4z"/>
	<path d="M47.6,34.2L47.6,34.2c0,0.1-0.1,0.2-0.2,0.2h-2.5c0,0,0,0,0,0c-0.1,0-0.2,0-0.2-0.1l0,0h-0.1h0v0c0,0.1,0,0.3,0,0.4
		c0,0.1,0,0.3-0.1,0.4l0,0h0.2h0l0,0c0.1-0.4,0.1-0.4,0.4-0.4h0.8v2.6c0,0.4-0.1,0.4-0.4,0.4h-0.1h0v0.2v0h0c0.2,0,0.5,0,0.8,0
		c0.3,0,0.6,0,0.8,0h0v-0.2v0h-0.1c-0.2,0-0.4,0-0.4-0.4v-2.6h0.8c0.3,0,0.3,0.3,0.3,0.4v0l0.2-0.1l0,0v0c0-0.1,0-0.3,0-0.4
		c0-0.1,0-0.3,0.1-0.4l0,0L47.6,34.2L47.6,34.2z"/>
	<path d="M48.6,34.4c-0.2,0-0.5,0-0.7,0h0v0.2v0H48c0.2,0,0.3,0,0.3,0.3v2.6c0,0.2-0.2,0.3-0.3,0.3h-0.1h0v0v0.1v0h0
		c0.2,0,0.5,0,0.7,0c0.2,0,0.5,0,0.8,0h0v-0.2v0h-0.1c-0.2,0-0.3,0-0.3-0.3v-2.6c0-0.2,0.2-0.3,0.3-0.3h0.1h0v-0.2v0h0
		C49.1,34.3,48.8,34.4,48.6,34.4z"/>
	<path d="M51.3,34.3c-1,0-1.8,0.8-1.8,1.8c0,1.1,0.8,1.8,1.8,1.8c1,0,1.9-0.8,1.9-1.9C53.2,34.9,52.4,34.3,51.3,34.3z M51.4,37.6
		c-0.8,0-1.2-0.8-1.2-1.7c0-0.6,0.2-1.4,1.1-1.4c0.8,0,1.2,0.8,1.2,1.6C52.5,36.8,52.3,37.6,51.4,37.6z"/>
	<path d="M57.3,34.5v-0.2v0h0c-0.2,0-0.4,0-0.6,0c-0.2,0-0.5,0-0.7,0h0v0.2v0h0.1c0.1,0,0.4,0,0.4,0.4v1.8l-2.1-2.4
		c-0.2,0-0.3,0-0.5,0c-0.2,0-0.4,0-0.6,0h0v0.2v0h0.1c0.2,0,0.4,0.2,0.4,0.4V37c0,0.4-0.1,0.6-0.4,0.6h-0.1h0v0.2v0h0
		c0.2,0,0.4,0,0.7,0c0.2,0,0.4,0,0.6,0h0v-0.2v0h-0.1c-0.4,0-0.4-0.1-0.4-0.5v-2l2.5,2.8l0.2,0h0l0,0c0-0.1,0-0.3,0-0.5v-2.2
		C56.8,34.6,57,34.5,57.3,34.5L57.3,34.5L57.3,34.5z"/>
	<path d="M60.3,37.4c-0.1-0.1-0.1-0.3-0.2-0.5l-0.9-2.6c0,0,0-0.1,0-0.1c0,0,0,0-0.1,0c0,0,0,0,0,0c-0.1,0.1-0.3,0.2-0.4,0.2
		c0,0.2-0.1,0.4-0.2,0.6l-0.8,2.2c-0.1,0.2-0.2,0.3-0.4,0.3h0h0v0.2v0l0,0c0.2,0,0.4,0,0.5,0c0.2,0,0.4,0,0.6,0l0,0v-0.2v0h-0.1
		c-0.2,0-0.3,0-0.3-0.2c0-0.1,0.1-0.2,0.1-0.4l0.2-0.5h1.1l0.2,0.6c0.1,0.2,0.1,0.3,0.1,0.3c0,0.1-0.2,0.1-0.3,0.1h-0.1h0v0.2v0l0,0
		c0.2,0,0.5,0,0.7,0c0.2,0,0.5,0,0.7,0l0,0v-0.2v0h0C60.4,37.6,60.3,37.5,60.3,37.4z M58.3,36.3l0.4-1.3l0.4,1.3H58.3z"/>
	<path d="M63.4,36.9L63.4,36.9c0,0.1-0.1,0.3-0.2,0.4c-0.1,0.1-0.3,0.2-0.5,0.3c-0.1,0-0.3,0-0.4,0c-0.1,0-0.2,0-0.3,0
		c-0.2,0-0.3-0.1-0.3-0.3v-2.5c0-0.2,0.1-0.2,0.3-0.2h0.1h0v-0.2v0h0c-0.3,0-0.5,0-0.7,0c-0.3,0-0.5,0-0.8,0h0v0.2v0h0.1
		c0.2,0,0.3,0,0.3,0.3v2.5c0,0.3-0.2,0.3-0.3,0.3h-0.1h0v0.2v0h0c0.4,0,0.9,0,1.3,0c0.4,0,0.9,0,1.3,0h0l0,0
		c0.1-0.3,0.1-0.6,0.2-0.8l0,0H63.4L63.4,36.9z"/>
	<path d="M63.5,34.2c-0.3,0-0.5,0.2-0.5,0.5c0,0.3,0.2,0.5,0.5,0.5c0.3,0,0.5-0.2,0.5-0.5C64,34.4,63.8,34.2,63.5,34.2z M63.5,35.2
		c-0.2,0-0.4-0.2-0.4-0.4s0.2-0.4,0.4-0.4c0.2,0,0.4,0.2,0.4,0.4S63.7,35.2,63.5,35.2z"/>
	<path d="M63.5,34.8c0.1,0,0.1-0.1,0.1-0.2c0-0.1-0.1-0.1-0.2-0.1h-0.3v0c0.1,0,0.1,0,0.1,0.1v0.4c0,0,0,0-0.1,0v0h0.2v0
		c-0.1,0-0.1,0-0.1,0v-0.2L63.5,34.8c0,0.2,0,0.3,0.1,0.3h0.1v0c0,0-0.1-0.1-0.1-0.1L63.5,34.8z M63.5,34.7L63.5,34.7l-0.1-0.2h0.1
		c0.1,0,0.1,0,0.1,0.1C63.6,34.7,63.5,34.7,63.5,34.7z"/>
	<path d="M10.4,27.4v9.2c1.9-0.7,3.2-2.5,3.2-4.6C13.6,29.9,12.2,28.1,10.4,27.4z"/>
	<path d="M3.7,32c0,2.1,1.3,3.9,3.2,4.6v-9.2C5,28.1,3.7,29.9,3.7,32z"/>
	<path d="M10.8,23.5H8.6C3.9,23.5,0,27,0,32.1c0,4.7,3.9,8.5,8.6,8.4h2.2c4.7,0,8.9-3.8,8.9-8.4C19.7,27,15.5,23.5,10.8,23.5z
		 M8.6,39.8c-4.3,0-7.8-3.5-7.8-7.8c0-4.3,3.5-7.8,7.8-7.8c4.3,0,7.8,3.5,7.8,7.8C16.4,36.3,12.9,39.8,8.6,39.8z"/>
</g>
</svg>
