<?xml version="1.0" encoding="utf-8"?>
<!-- Generator: Adobe Illustrator 23.0.0, SVG Export Plug-In . SVG Version: 6.00 Build 0)  -->
<svg version="1.1" id="Layer_1" xmlns="http://www.w3.org/2000/svg" xmlns:xlink="http://www.w3.org/1999/xlink" x="0px" y="0px"
	 viewBox="0 0 64 64" style="enable-background:new 0 0 64 64;" xml:space="preserve">
<path d="M48.1,26.8H37.4v-2.7h4.8c0.8,0,1.3-0.3,1.9-0.8l4.8-5.4c0.8-1.1,0.8-2.7,0-3.5l-4.8-5.4C43.8,8.3,43,8,42.2,8h-4.8V2.7
	c0-1.6-1.1-2.7-2.7-2.7C33.1,0,32,1.1,32,2.7V8H15.9c-1.6,0-2.7,1.1-2.7,2.7v10.7c0,1.6,1.1,2.7,2.7,2.7H32v2.7H21.8
	c-0.8,0-1.3,0.3-1.9,0.8l-4.8,5.4c-0.8,1.1-0.8,2.7,0,3.5l4.8,5.4c0.5,0.5,1.3,0.8,1.9,0.8H32v18.7c0,1.6,1.1,2.7,2.7,2.7
	c1.6,0,2.7-1.1,2.7-2.7V42.6h10.7c1.6,0,2.7-1.1,2.7-2.7V29.2C50.7,27.8,49.7,26.8,48.1,26.8z M18.6,13.4h22.5l2.4,2.7l-2.4,2.7
	H18.6V13.4z M45.4,37.5H22.9l-2.4-2.7l2.4-2.7h22.5V37.5z"/>
</svg>
