<?xml version="1.0" encoding="utf-8"?>
<!-- Generator: Adobe Illustrator 23.0.0, SVG Export Plug-In . SVG Version: 6.00 Build 0)  -->
<svg version="1.1" id="Layer_2_1_" xmlns="http://www.w3.org/2000/svg" xmlns:xlink="http://www.w3.org/1999/xlink" x="0px" y="0px"
	 viewBox="0 0 64 64" style="enable-background:new 0 0 64 64;" xml:space="preserve">
<path d="M60.8,18.4l-7.2-9.3C53,8.3,52.2,8,51.4,8H26.6V2.7c0-1.6-1-2.7-2.6-2.7s-2.7,1.1-2.7,2.7V8h-16c-1.6,0-2.7,1.1-2.7,2.7
	v18.7c0,1.6,1.1,2.7,2.7,2.7h16v29.3c0,1.6,1.1,2.7,2.7,2.7s2.7-1.1,2.7-2.7V32h24.8c0.8,0,1.6-0.3,2.1-1.1l7.2-9.3
	C61.6,20.8,61.6,19.2,60.8,18.4z M50.1,26.7H8V13.3h42.1l5.1,6.7L50.1,26.7z"/>
</svg>
