<?xml version="1.0" encoding="utf-8"?>
<!-- Generator: Adobe Illustrator 23.0.0, SVG Export Plug-In . SVG Version: 6.00 Build 0)  -->
<svg version="1.1" id="Layer_2_1_" xmlns="http://www.w3.org/2000/svg" xmlns:xlink="http://www.w3.org/1999/xlink" x="0px" y="0px"
	 viewBox="0 0 64 64" style="enable-background:new 0 0 64 64;" xml:space="preserve">
<g>
	<path d="M24,25.6L24,25.6V40c0,1.6,1.1,2.7,2.7,2.7c1.6,0,2.7-1.1,2.7-2.7V5.3h8V40c0,1.6,1.1,2.7,2.7,2.7s2.7-1.1,2.7-2.7V5.3H56
		c1.6,0,2.7-1.1,2.7-2.7S57.6,0,56,0H24l0,0h-0.3c-7.2,0-12.8,5.6-12.8,12.8S16.8,25.6,24,25.6z M24,5.3L24,5.3v14.9l0,0
		c-4.3,0-7.7-3.2-7.7-7.5S19.5,5.3,24,5.3z"/>
	<path d="M56,50.7H14.9l3.2-2.7c1.1-0.8,1.3-2.7,0.5-3.7c-0.8-1.1-2.7-1.3-3.7-0.5l-8,6.4c-1.1,1.1-1.6,2.1-1.6,3.5
		c0,1.3,0.5,2.7,1.6,3.5l8,6.4c0.5,0.3,1.1,0.5,1.6,0.5c0.8,0,1.6-0.3,2.1-1.1c0.8-1.1,0.8-2.9-0.5-3.7l-4-3.2H56
		c1.6,0,2.7-1.1,2.7-2.7C58.7,51.7,57.6,50.7,56,50.7z"/>
</g>
</svg>
