<?xml version="1.0" encoding="utf-8"?>
<!-- Generator: Adobe Illustrator 21.0.2, SVG Export Plug-In . SVG Version: 6.00 Build 0)  -->
<svg version="1.1" id="Layer_1" xmlns="http://www.w3.org/2000/svg" xmlns:xlink="http://www.w3.org/1999/xlink" x="0px" y="0px"
	 viewBox="0 0 64 64" style="enable-background:new 0 0 64 64;" xml:space="preserve">
<g>
	<path d="M63.8,11.5H0v40.9h64V11.5H63.8z M63.5,34.3C63.3,34.5,45.9,46.6,14.4,52c-8,0-13.8,0-13.9,0c0-0.5,0-39.5,0-40
		c0.5,0,62.6,0,63.1,0C63.5,12.3,63.5,23.8,63.5,34.3z"/>
	<path d="M8.9,32.3c1.1-0.9,1.7-2.2,1.7-3.6c0-2.7-2-4.6-5-4.6H2.9v9.3h2.6C7,33.3,8,33,8.9,32.3z M4.7,31.8v-6h0.5
		c1.2,0,1.9,0.2,2.5,0.7c0.6,0.6,1,1.4,1,2.3c0,0.9-0.4,1.8-1,2.3c-0.6,0.5-1.3,0.7-2.5,0.7H4.7z"/>
	<rect x="11.4" y="24.1" width="1.8" height="9.3"/>
	<path d="M17,32c-0.9,0-1.6-0.4-2-1.2l-1.2,1.1c0.8,1.2,1.8,1.8,3.2,1.8c1.9,0,3.2-1.2,3.2-3c0-1.5-0.6-2.1-2.7-2.9
		c-1.1-0.4-1.4-0.7-1.4-1.2c0-0.6,0.6-1,1.3-1c0.5,0,1,0.2,1.5,0.8l0.9-1.2c-0.8-0.7-1.7-1-2.7-1c-1.6,0-2.9,1.1-2.9,2.7
		c0,1.3,0.6,1.9,2.3,2.5c0.7,0.2,1.1,0.4,1.2,0.5c0.4,0.2,0.5,0.6,0.5,1C18.4,31.3,17.8,32,17,32z"/>
	<path d="M25.7,33.5c0.8,0,1.4-0.2,2.3-0.5V31c-0.7,0.7-1.4,1-2.2,1c-1.8,0-3.1-1.3-3.1-3.2c0-1.8,1.3-3.2,3-3.2
		c0.9,0,1.5,0.3,2.3,1v-2.1c-0.8-0.4-1.4-0.6-2.2-0.6c-2.7,0-4.9,2.2-4.9,4.8C20.9,31.5,23,33.5,25.7,33.5z"/>
	<polygon points="42.8,33.6 46.8,24.1 44.8,24.1 42.3,30.3 39.9,24.1 37.9,24.1 41.8,33.6 	"/>
	<polygon points="52.7,31.8 49.4,31.8 49.4,29.3 52.6,29.3 52.6,27.8 49.4,27.8 49.4,25.6 52.7,25.6 52.7,24.1 47.6,24.1 47.6,33.3 
		52.7,33.3 	"/>
	<path d="M55.7,29.6H56l2.5,3.7h2.2l-2.9-3.9c1.4-0.3,2.1-1.2,2.1-2.6c0-1.7-1.2-2.7-3.3-2.7h-2.7v9.3h1.8V29.6z M55.7,25.5h0.6
		c1.1,0,1.7,0.5,1.7,1.4c0,0.9-0.6,1.4-1.8,1.4h-0.5V25.5z"/>
	<path d="M33.5,33.6c2.2,0,4.1-1.5,4.7-3.5c0.1-0.5,0.2-1,0.2-1.5c0-2.7-2.2-4.9-4.9-4.9c-2,0-3.8,1.2-4.5,3
		c-0.2,0.6-0.4,1.2-0.4,1.9C28.6,31.5,30.8,33.6,33.5,33.6z"/>
	<path d="M60.5,24.8L60.5,24.8l0.3,0.3H61l-0.3-0.3c0.1,0,0.2-0.1,0.2-0.2c0-0.2-0.1-0.3-0.3-0.3h-0.3V25h0.2V24.8z M60.7,24.4
		C60.8,24.4,60.8,24.4,60.7,24.4c0.1,0.2,0,0.2,0,0.2V24.4z"/>
	<path d="M60.7,25.3c0.4,0,0.7-0.3,0.7-0.7c0-0.4-0.3-0.7-0.7-0.7c-0.4,0-0.7,0.3-0.7,0.7C60,25,60.3,25.3,60.7,25.3z M60.7,24
		c0.3,0,0.6,0.3,0.6,0.6c0,0.3-0.3,0.6-0.6,0.6s-0.6-0.3-0.6-0.6C60.1,24.3,60.4,24,60.7,24z"/>
</g>
</svg>
