<?xml version="1.0" encoding="utf-8"?>
<!-- Generator: Adobe Illustrator 22.0.1, SVG Export Plug-In . SVG Version: 6.00 Build 0)  -->
<svg version="1.1" id="Layer_1" xmlns="http://www.w3.org/2000/svg" xmlns:xlink="http://www.w3.org/1999/xlink" x="0px" y="0px"
	 viewBox="0 0 64 64" style="enable-background:new 0 0 64 64;" xml:space="preserve">
<path d="M60,8H4c-2.1,0-4,1.9-4,4v29.3c0,2.1,1.9,4,4,4h25.3v5.3h-8c-1.6,0-2.7,1.1-2.7,2.7c0,1.6,1.1,2.7,2.7,2.7h21.3
	c1.6,0,2.7-1.1,2.7-2.7c0-1.6-1.1-2.7-2.7-2.7h-8v-5.3H60c2.1,0,4-1.9,4-4V12C64,9.9,62.1,8,60,8z M58.7,40H5.3V13.3h53.3V40z"/>
</svg>
