<?xml version="1.0" encoding="utf-8"?>
<!-- Generator: Adobe Illustrator 22.0.1, SVG Export Plug-In . SVG Version: 6.00 Build 0)  -->
<svg version="1.1" id="Layer_1" xmlns="http://www.w3.org/2000/svg" xmlns:xlink="http://www.w3.org/1999/xlink" x="0px" y="0px"
	 viewBox="0 0 64 64" style="enable-background:new 0 0 64 64;" xml:space="preserve">
<path d="M35,30h-6.6v-5.9H35V30L35,30z M35,9.6h-6.6v6.1H35V9.6z M42.8,24.1h-6.6V30h6.6L42.8,24.1L42.8,24.1z M27.2,16.9h-6.6v6
	h6.6V16.9z M35,16.9h-6.6v6H35V16.9z M62.7,26.9c-1.4-1-4.8-1.3-7.3-0.8c-0.3-2.4-1.7-4.5-4.1-6.4l-1.4-0.9l-0.9,1.4
	c-1.8,2.8-2.3,7.4-0.4,10.4c-0.9,0.5-2.6,1.1-4.8,1.1H0.2c-0.9,5.1,0.6,11.7,4.4,16.2c3.7,4.4,9.3,6.6,16.5,6.6
	c15.7,0,27.4-7.2,32.8-20.4c2.1,0,6.8,0,9.1-4.5c0.1-0.2,0.7-1.3,0.8-1.7L62.7,26.9L62.7,26.9z M11.6,24.1H5V30h6.6L11.6,24.1
	L11.6,24.1z M19.4,24.1h-6.6V30h6.6V24.1z M27.2,24.1h-6.6V30h6.6V24.1z M19.4,16.9h-6.6v6h6.6V16.9z"/>
</svg>
