<?xml version="1.0" encoding="utf-8"?>
<!-- Generator: Adobe Illustrator 22.0.1, SVG Export Plug-In . SVG Version: 6.00 Build 0)  -->
<svg version="1.1" id="Layer_1" xmlns="http://www.w3.org/2000/svg" xmlns:xlink="http://www.w3.org/1999/xlink" x="0px" y="0px"
	 viewBox="0 0 64 64" style="enable-background:new 0 0 64 64;" xml:space="preserve">
<path d="M32,0C14.4,0,0,14.4,0,32c0,17.6,14.4,32,32,32c17.6,0,32-14.4,32-32C64,14.4,49.6,0,32,0z M59,32.8
	c-6.2-0.5-12.7,0-19.1,1.5c-0.9-2.4-1.8-4.7-2.8-6.9c6.6-2.2,12.7-5.4,18-9.3C57.6,22.2,59,26.9,59,32C59,32.3,59,32.6,59,32.8z
	 M52.2,14.1c-5,3.7-10.9,6.7-17.2,8.8c-3.3-6.6-7.1-12.3-11-16.6C26.5,5.4,29.2,5,32,5C40,5,47.2,8.5,52.2,14.1z M19,8.3
	c3.9,3.9,7.7,9.4,11.1,15.9c-8.2,2-16.7,2.3-24.2,0.9C7.8,17.9,12.6,11.9,19,8.3z M5.1,30.1c3.4,0.6,7,1,10.6,1
	c5.4,0,11-0.7,16.6-2.2c1,2.2,1.9,4.4,2.8,6.7C25.8,38.4,17.6,43,11,48.9C7.2,44.3,5,38.4,5,32C5,31.4,5,30.7,5.1,30.1z M14.5,52.5
	c6.1-5.4,13.7-9.6,22.2-12.2c0.3,1,0.7,2.1,1,3.2c1.4,4.8,2.4,9.5,3.2,14c-2.8,1-5.7,1.5-8.8,1.5C25.3,59,19.2,56.5,14.5,52.5z
	 M45.5,55.3c-0.7-4.3-1.8-8.7-3.1-13.2c-0.3-1-0.6-2-0.9-3c5.7-1.2,11.4-1.7,16.8-1.3C56.7,45.3,52,51.6,45.5,55.3z"/>
</svg>
