<?xml version="1.0" encoding="utf-8"?>
<!-- Generator: Adobe Illustrator 23.0.0, SVG Export Plug-In . SVG Version: 6.00 Build 0)  -->
<svg version="1.1" id="Layer_1" xmlns="http://www.w3.org/2000/svg" xmlns:xlink="http://www.w3.org/1999/xlink" x="0px" y="0px"
	 viewBox="0 0 64 64" style="enable-background:new 0 0 64 64;" xml:space="preserve">
<g>
	<path d="M32.1,64c-11.5,0-21.1-9.1-21.3-20v-2.1c0-5.3,1.3-11.2,4-17.3C18,17.1,23.1,8.8,28.7,1.6C29.5,0.5,30.8,0,32.1,0
		c1.3,0,2.7,0.5,3.5,1.6l0,0c6.1,7.5,10.9,15.7,13.9,23.2c2.7,6.1,3.7,11.7,3.7,17.1V44C53.5,54.9,43.9,64,32.1,64z M32.1,5.9
		c-5.1,6.7-9.6,14.1-12.5,20.8c-2.4,5.6-3.5,10.7-3.5,15.2V44c0.3,8.3,7.5,14.9,16,14.9c8.8,0,15.7-6.7,16-14.7v-2.1
		c0-4.5-1.1-9.3-3.5-14.9C42,20.3,37.5,12.5,32.1,5.9z M31.6,5.1L31.6,5.1L31.6,5.1L31.6,5.1z"/>
</g>
</svg>
