<?xml version="1.0" encoding="utf-8"?>
<!-- Generator: Adobe Illustrator 22.0.1, SVG Export Plug-In . SVG Version: 6.00 Build 0)  -->
<svg version="1.1" id="Layer_1" xmlns="http://www.w3.org/2000/svg" xmlns:xlink="http://www.w3.org/1999/xlink" x="0px" y="0px"
	 viewBox="0 0 64 64" style="enable-background:new 0 0 64 64;" xml:space="preserve">
<path d="M62.5,30.4L53,24.3l9.6-6.2l0,0c0.9-0.6,1.5-1.6,1.4-2.7c0-1.1-0.6-2-1.6-2.6L47.4,3.2c-1-0.7-2.4-0.7-3.5,0L32,10.8l0,0
	l0,0L20.1,3.2c-1.1-0.8-2.6-0.8-3.7,0l-15,9.6C0.5,13.4,0,14.4,0,15.5c0,1.1,0.5,2.1,1.5,2.7l9.5,6.1l-9.6,6.1C0.5,31,0,32,0,33.1
	c0,1.1,0.5,2.1,1.5,2.7l9.5,6.1v5.4c0,1.1,0.6,2.1,1.6,2.7l18.3,10.9c0.5,0.3,1.1,0.5,1.7,0.5c0.6,0,1.1-0.2,1.6-0.5l18.3-10.9
	c0.9-0.6,1.5-1.6,1.5-2.7v-6.2l8.5-5.4c0.9-0.6,1.4-1.6,1.4-2.7C63.9,32,63.4,31,62.5,30.4z M43.7,24.3L32,31.8l-11.7-7.6L32,16.8
	l11,7.1L43.7,24.3z M45.7,8l11.7,7.5l-9,5.8L47,20.5l-10.4-6.7L45.7,8z M6.6,15.5L18.3,8l9.1,5.8l-11.6,7.5l-0.1,0l-0.1,0L6.6,15.5z
	 M15.6,27.2l11.7,7.6l-9.1,5.8L6.6,33.1L15.6,27.2z M16,45.1l0.6,0.4c0.5,0.3,1.1,0.5,1.7,0.5c0.6,0,1.2-0.2,1.7-0.5l10-6.4v15.5
	l-14-8.3V45.1z M49,46.3l-14,8.3v-15l9,5.7c0.5,0.3,1.1,0.5,1.7,0.5c0.6,0,1.2-0.2,1.7-0.5l1.6-1V46.3z M45.7,40.5l-9.1-5.8
	l11.7-7.5l9,5.8L45.7,40.5z"/>
</svg>
