<?xml version="1.0" encoding="utf-8"?>
<!-- Generator: Adobe Illustrator 22.0.1, SVG Export Plug-In . SVG Version: 6.00 Build 0)  -->
<svg version="1.1" id="Layer_1" xmlns="http://www.w3.org/2000/svg" xmlns:xlink="http://www.w3.org/1999/xlink" x="0px" y="0px"
	 viewBox="0 0 64 64" style="enable-background:new 0 0 64 64;" xml:space="preserve">
<g>
	<path d="M40.1,11.6L40.1,11.6c-0.8-0.2-1.5-0.8-2-1.5c-0.4-0.5-0.8-1-1.3-1.8l-4.7-6.6c-0.9-1.4-2.7-2.1-4.3-1.8
		c-1.7,0.3-3.1,1.6-3.4,3.3l-1.6,7.2c-0.3,1.1-1.1,1.9-2.3,2.4C10.5,17.1,4,26.6,4,37.2C4,52,16.6,64,32,64s28-12,28-26.8
		C60,25.7,51.8,15.1,40.1,11.6z M32,59C19.3,59,9,49.2,9,37.2c0-8.6,5.3-16.3,13.5-19.7c2.6-1.1,4.5-3.2,5.2-5.7L28.9,6l3.8,5.3
		c0.5,0.8,1,1.4,1.4,1.9c1.1,1.5,2.8,2.7,4.6,3.2C48.3,19.3,55,27.9,55,37.2C55,49.2,44.7,59,32,59z"/>
	<path d="M51.8,29.9c-0.5-1.9-1.6-3.6-3.2-4.6c-1.2-0.8-2.7-1.1-4.3-1.1c-1.1,0.1-2.1,0.3-3.1,0.7c-1,0.4-1.9,1-2.6,1.5l-0.5,0.3
		c-0.1,0.1-0.2,0.1-0.3,0.2c-0.1-0.1-0.2-0.1-0.2-0.2L37,26.4c-0.5-0.4-1.2-0.9-2-1.3c-3.5-1.7-7.4-2.2-10.7-1.2
		c-2.4,0.7-4.4,2.3-5.7,4.5c-1.1,2-1.4,4.5-0.8,6.9c0.7,2.6,2.3,4.8,4.4,6.1c1.4,0.8,2.9,1.2,4.6,1.2c0.8,0,1.6-0.1,2.6-0.3
		c3.4-0.9,5.9-2.9,8.1-4.9c0.2,0.3,0.4,0.7,0.7,1.1c2.1,2.6,6,4.3,9.5,2.5c1.6-0.8,3.7-2.7,4.3-6.8C52.2,32.4,52.1,31.1,51.8,29.9z
		 M35.9,31.9l-1.4,1.2c-2,1.8-4,3.6-6.4,4.2c-0.6,0.1-1.1,0.2-1.4,0.2c-0.7,0-1.4-0.2-2-0.5c-1-0.6-1.8-1.7-2.1-3
		c-0.3-1.1-0.1-2.4,0.3-3.2c0.6-1,1.6-1.8,2.7-2.1c0.7-0.2,1.5-0.3,2.3-0.3c1.6,0,3.3,0.4,4.9,1.2l0.1,0.1c0.3,0.1,0.7,0.4,1.1,0.7
		l0.4,0.3c0.2,0.2,0.5,0.4,0.7,0.5c0.3,0.2,0.7,0.4,1,0.6C36.1,31.8,36,31.9,35.9,31.9z M47,33.4c-0.1,1.1-0.5,2.5-1.6,3
		c-1.1,0.6-2.6-0.2-3.3-1.2c-0.2-0.2-0.4-0.6-0.6-1l-0.3-0.6c-0.6-1-1-1.7-1.6-2.1l0,0c0.4-0.2,0.8-0.4,1.1-0.6l0.5-0.3
		c0.6-0.4,1.2-0.8,1.8-1c0.5-0.2,1-0.3,1.6-0.3c0.6,0,1,0.1,1.3,0.3l0.1,0.1c0.5,0.3,0.8,0.8,1,1.5l0,0.1
		C47.1,31.7,47.1,32.4,47,33.4z"/>
	<path d="M36.9,50c-1,0.6-2.2,0.9-3.4,1c-0.4,0-0.9,0-1.3-0.1c-0.8-0.1-1.7-0.3-2.5-0.7c-1.3-0.5-2.7,0.1-3.3,1.3
		c-0.5,1.3,0.1,2.7,1.3,3.3c1.3,0.5,2.6,0.9,3.8,1c0.8,0.1,1.5,0.1,2,0.1h0.2l0.1,0c2-0.1,4-0.7,5.6-1.7c1.2-0.7,1.6-2.2,0.9-3.4
		C39.6,49.7,38.1,49.3,36.9,50z"/>
	<path d="M40.8,42.2c-1.4-0.9-3.2-1.3-5-1c-1.9,0.4-3.5,1.4-4.5,3c-0.8,1.2-0.4,2.7,0.7,3.5c0.4,0.3,0.9,0.4,1.4,0.4
		c0.8,0,1.6-0.4,2.1-1.1c0.2-0.4,0.7-0.7,1.2-0.8c0.5-0.1,1,0,1.4,0.3c0.2,0.1,0.4,0.3,0.6,0.5c1,1,2.6,0.9,3.5-0.1
		c1-1,0.9-2.6-0.1-3.5C41.9,43,41.4,42.6,40.8,42.2z"/>
</g>
</svg>
