<?xml version="1.0" encoding="utf-8"?>
<!-- Generator: Adobe Illustrator 22.0.1, SVG Export Plug-In . SVG Version: 6.00 Build 0)  -->
<svg version="1.1" id="Layer_1" xmlns="http://www.w3.org/2000/svg" xmlns:xlink="http://www.w3.org/1999/xlink" x="0px" y="0px"
	 viewBox="0 0 64 64" style="enable-background:new 0 0 64 64;" xml:space="preserve">
<path d="M45.9,11.9c-0.1,0-0.1-0.1-0.1-0.1c-2.8-1.8-5.5-2.6-8.2-4.1c-0.4-0.2-0.7-0.5-1.1-0.7c-1.9-1.4-4.6-4.5-6.8-7.1l0,0l0,0
	c-0.1,1.3-0.3,2.4-0.6,3.3c-0.5,1.8-1.4,2.9-2.3,3.7c-0.1,0.1-0.2,0.1-0.3,0.2c-3.2,2.5-5.1,3.2-7.8,4.7c-0.2,0.1-0.6,0.3-1,0.6
	c-1.6,1-4.5,3-7.2,6.1c-3.4,4-6.5,9.8-6.5,17.8c0,0.9,0.1,1.9,0.1,2.8c0,0.1,0,0.1,0,0.2c0.1,0.4,0.1,0.9,0.2,1.3c0,0.1,0,0.1,0,0.1
	c0.2,1.4,0.5,2.6,0.9,3.8c0,0.1,0,0.1,0.1,0.1c0.1,0.4,0.3,0.7,0.4,1.1c0.1,0.1,0.1,0.2,0.1,0.3c0.1,0.3,0.3,0.7,0.5,1.1
	c0,0.1,0.1,0.1,0.1,0.2c0.4,0.9,0.8,1.7,1.3,2.5c0.1,0.2,0.3,0.4,0.4,0.6s0.2,0.3,0.3,0.5c0.2,0.3,0.3,0.5,0.5,0.7
	c0.1,0.2,0.3,0.4,0.4,0.5c0.3,0.3,0.5,0.7,0.9,1.1c0.2,0.2,0.4,0.5,0.5,0.7c0.2,0.2,0.3,0.4,0.5,0.6c0.2,0.2,0.4,0.4,0.6,0.6
	c0.2,0.2,0.3,0.3,0.5,0.5c0.3,0.3,0.5,0.5,0.8,0.7c0.2,0.2,0.4,0.3,0.6,0.5c0.3,0.3,0.6,0.5,0.9,0.7c0.2,0.1,0.3,0.3,0.5,0.4
	c0.3,0.2,0.6,0.4,0.9,0.6c0.1,0.1,0.3,0.2,0.5,0.3c0.5,0.3,0.9,0.5,1.4,0.8c0.1,0.1,0.2,0.1,0.3,0.1c0.4,0.2,0.8,0.4,1.2,0.6
	c0.1,0.1,0.3,0.1,0.4,0.2c0.4,0.2,0.8,0.4,1.3,0.5c0.1,0.1,0.1,0.1,0.3,0.1c0.5,0.2,1.1,0.4,1.6,0.6c0.1,0,0.1,0.1,0.2,0.1
	c0.5,0.1,1,0.3,1.5,0.5c0.1,0,0.2,0.1,0.3,0.1c1.1,0.3,2.3,0.5,3.5,0.7h0.1c0.6,0.1,1.1,0.1,1.8,0.2c0.1,0,0.1,0,0.1,0
	C31,64,31.6,64,32.3,64c14.9,0,27.8-10.8,27.8-27.2C60,20.6,47.8,13.2,45.9,11.9z M10.1,22.2c-0.2-0.1-1.1-0.7-0.2-2.1
	c3-4.7,8.8-7.8,10.5-8.6c0.6-0.3,3.3-1.6,6.1-3.7c1.7-1.3,2.9-2.6,3.4-6.6c0.4,1.4,0.5,2.6,0.5,4.1c-0.1,1.6-1.6,2.6-1.8,2.8
	C28.3,8.4,27,9,26.7,9.2c-0.3,0.2-0.3,0.3,0,0.3c0.5,0.1,0.8,0.3,0.8,0.7c0,0.3-0.2,1.1-1.6,2.6c-2.6,2.6-4.5,4.3-9,7
	C12.4,22.6,10.3,22.3,10.1,22.2z M46.2,58.3c-0.3,0.3-3.2,2.3-6.5,2.6c-3.3,0.3-7.8,0.5-10.5-2c-0.4-0.4-0.3-1.1,0-1.3
	c0.3-0.3,0.5-0.4,0.9-0.4c0.3,0,0.3,0,0.5,0.1c1.2,1,3.1,1.8,7,1.8c4,0,6.8-1.1,8-2c0.5-0.4,0.8-0.1,0.9,0.2
	C46.5,57.5,46.7,57.9,46.2,58.3z M35.4,52.7c0.7-0.6,1.8-1.6,2.8-2c1.1-0.4,1.6-0.3,2.6-0.3c1,0,2,0.1,2.8,0.5
	c0.7,0.5,1.1,1.6,1.4,2.2c0.3,0.6,0,1-0.5,1.2c-0.4,0.3-0.5,0.1-0.9-0.7c-0.4-0.8-0.8-1.6-3-1.6c-2.2,0-2.8,0.7-3.9,1.6
	c-1.1,0.9-1.4,1.1-1.8,0.7C34.6,53.8,34.7,53.3,35.4,52.7z M51.8,53.2c-2.2-0.2-6.7-7.1-9.5-7.2c-3.6-0.1-11.3,7.5-17.5,7.5
	c-3.7,0-4.8-0.5-6.1-1.4c-1.8-1.3-2.8-3.3-2.7-6c0.1-4.8,4.6-9.3,10.3-9.4c7.2-0.1,12.2,7.2,15.9,7.1c3.1-0.1,9-6.1,11.9-6.1
	c3.1,0,4,3.2,4,5.1s-0.6,5.4-2.1,7.6C54.4,52.5,53.5,53.3,51.8,53.2z"/>
</svg>
