<?xml version="1.0" encoding="utf-8"?>
<!-- Generator: Adobe Illustrator 21.0.2, SVG Export Plug-In . SVG Version: 6.00 Build 0)  -->
<svg version="1.1" id="Layer_1" xmlns="http://www.w3.org/2000/svg" xmlns:xlink="http://www.w3.org/1999/xlink" x="0px" y="0px"
	 viewBox="0 0 64 64" style="enable-background:new 0 0 64 64;" xml:space="preserve">
<path d="M62,29.4h-0.7v-2.7c0-2.9-2.4-5.3-5.3-5.3h-5.3c-2.9,0-5.3,2.4-5.3,5.3v2.7H18.7v-2.7c0-2.9-2.4-5.3-5.3-5.3H8
	c-2.9,0-5.3,2.4-5.3,5.3v2.7H2c-1.1,0-2,0.9-2,2v1.3c0,1.1,0.9,2,2,2h0.7v2.7c0,2.9,2.4,5.3,5.3,5.3h5.3c2.9,0,5.3-2.4,5.3-5.3v-2.7
	h26.7v2.7c0,2.9,2.4,5.3,5.3,5.3H56c2.9,0,5.3-2.4,5.3-5.3v-2.7H62c1.1,0,2-0.9,2-2v-1.3C64,30.2,63.1,29.4,62,29.4z M8,37.3V26.8
	h5.3v10.7H8V37.3z M50.7,37.3V26.8H56v10.7h-5.3V37.3z"/>
</svg>
