<?xml version="1.0" encoding="utf-8"?>
<!-- Generator: Adobe Illustrator 22.0.1, SVG Export Plug-In . SVG Version: 6.00 Build 0)  -->
<svg version="1.1" id="Layer_1" xmlns="http://www.w3.org/2000/svg" xmlns:xlink="http://www.w3.org/1999/xlink" x="0px" y="0px"
	 viewBox="0 0 64 64" style="enable-background:new 0 0 64 64;" xml:space="preserve">
<path d="M2.3,28.4C2.3,28.4,2.3,28.4,2.3,28.4C2.3,28.4,2.3,28.4,2.3,28.4C2.3,28.4,2.3,28.4,2.3,28.4z M61.7,30.4
	c0-5.7-1-10.9-3.7-15.8C52.7,5.1,43.3,0,32.4,0C14.3,0,4.2,13.6,2.3,28.3c5.5-7.9,15.1-15.7,28.4-16.1c0,0,14.2,0,12.8,13.5H20.9
	c0.8-4.8,2.4-7.6,4.4-10.2C15.6,20.1,9.6,28,9.8,39.9c0.1,9.2,6.5,18.7,15.6,22.2c10.8,4.1,24.9,0.9,31-2.8V45.8
	c-10.4,7.3-35,7.9-35.1-8.7h40.5L61.7,30.4L61.7,30.4z"/>
</svg>
