<?xml version="1.0" encoding="utf-8"?>
<!-- Generator: Adobe Illustrator 23.0.0, SVG Export Plug-In . SVG Version: 6.00 Build 0)  -->
<svg version="1.1" id="Layer_1" xmlns="http://www.w3.org/2000/svg" xmlns:xlink="http://www.w3.org/1999/xlink" x="0px" y="0px"
	 viewBox="0 0 64 64" style="enable-background:new 0 0 64 64;" xml:space="preserve">
<g>
	<path d="M32,0C14.4,0,0,14.4,0,32s14.4,32,32,32s32-14.4,32-32S49.6,0,32,0z M32,58.7c-14.7,0-26.7-12-26.7-26.7S17.3,5.3,32,5.3
		s26.7,12,26.7,26.7S46.7,58.7,32,58.7z"/>
	<path d="M43.5,43.5C40.3,46.4,36.3,48,32,48s-8.3-1.6-11.5-4.5c-1.1-1.1-2.7-1.1-3.7,0s-1.1,2.7,0,3.7c4,3.7,9.6,5.9,15.2,5.9
		s10.9-2.1,15.2-5.9c1.1-1.1,1.1-2.7,0-3.7C46.4,42.4,44.5,42.4,43.5,43.5z"/>
	<circle cx="20" cy="22.7" r="4"/>
	<circle cx="44" cy="22.7" r="4"/>
</g>
</svg>
