<?xml version="1.0" encoding="utf-8"?>
<!-- Generator: Adobe Illustrator 23.0.0, SVG Export Plug-In . SVG Version: 6.00 Build 0)  -->
<svg version="1.1" id="Layer_1" xmlns="http://www.w3.org/2000/svg" xmlns:xlink="http://www.w3.org/1999/xlink" x="0px" y="0px"
	 viewBox="0 0 64 64" style="enable-background:new 0 0 64 64;" xml:space="preserve">
<g>
	<path d="M32,0C14.4,0,0,14.4,0,32s14.4,32,32,32s32-14.4,32-32S49.6,0,32,0z M32,5.3c8.8,0,16.5,4.3,21.3,10.7H10.7
		C15.5,9.6,23.2,5.3,32,5.3z M32,58.7c-14.7,0-26.7-12-26.7-26.7c0-3.7,0.8-7.5,2.4-10.7H8h10.4v3.2c0,3.2,2.4,5.6,5.6,5.6l0,0
		c3.2,0,5.6-2.4,5.6-5.6v-3.2h4.3v3.2c0,3.2,2.4,5.6,5.6,5.6l0,0c3.2,0,5.6-2.4,5.6-5.6v-3.2h10.7c0.3,0,0.3,0,0.3,0
		c1.3,3.2,2.4,6.9,2.4,10.7C58.7,46.7,46.7,58.7,32,58.7z"/>
	<path d="M43.5,38.1c-3.2,2.9-7.2,4.5-11.5,4.5s-8.3-1.6-11.5-4.5c-1.1-1.1-2.7-1.1-3.7,0.3c-1.1,1.1-1.1,2.7,0.3,3.7
		c4,3.7,9.3,5.9,14.9,5.9s10.9-2.1,14.9-5.9c1.1-1.1,1.1-2.7,0.3-3.7C46.1,37.1,44.5,37.1,43.5,38.1z"/>
</g>
</svg>
