<?xml version="1.0" encoding="utf-8"?>
<!-- Generator: Adobe Illustrator 23.0.0, SVG Export Plug-In . SVG Version: 6.00 Build 0)  -->
<svg version="1.1" id="Layer_1" xmlns="http://www.w3.org/2000/svg" xmlns:xlink="http://www.w3.org/1999/xlink" x="0px" y="0px"
	 viewBox="0 0 64 64" style="enable-background:new 0 0 64 64;" xml:space="preserve">
<g>
	<path d="M32,0C14.4,0,0,14.4,0,32s14.4,32,32,32s32-14.4,32-32S49.6,0,32,0z M32,58.7c-14.7,0-26.7-12-26.7-26.7S17.3,5.3,32,5.3
		s26.7,12,26.7,26.7S46.7,58.7,32,58.7z"/>
	<circle cx="20" cy="22.7" r="4"/>
	<circle cx="44" cy="22.7" r="4"/>
	<path d="M45.9,34.7H18.1c-1.1,0-2.1,0.5-2.9,1.3s-1.1,2.1-0.8,3.2C16,47.7,23.5,53.6,32,53.6s16-6.1,17.6-14.4
		c0.3-1.1,0-2.1-0.8-3.2C48,35.2,46.9,34.7,45.9,34.7z M32,48.3c-5.3,0-10.1-3.5-11.7-8.3H44C42.1,45.1,37.3,48.3,32,48.3z"/>
</g>
</svg>
