<?xml version="1.0" encoding="utf-8"?>
<!-- Generator: Adobe Illustrator 22.0.1, SVG Export Plug-In . SVG Version: 6.00 Build 0)  -->
<svg version="1.1" id="Layer_1" xmlns="http://www.w3.org/2000/svg" xmlns:xlink="http://www.w3.org/1999/xlink" x="0px" y="0px"
	 viewBox="0 0 64 64" style="enable-background:new 0 0 64 64;" xml:space="preserve">
<path d="M51.8,0.5C50.8,0,49-0.1,46.6,0.2c-5.8,0.7-11.1,3.4-15.4,7.3c-8.1,7.4-14.1,17.6-14.7,32c-0.1,0.4-1.2-0.1-1.5-0.2
	c-3.1-5.9-4.3-12-1.7-20.9c0.5-0.8-1.1-1.8-1.4-1.5c-0.6,0.6-2.9,3-4.4,5.7C-0.1,36,4.9,53,18.4,60.5c13.4,7.5,30.4,2.7,37.9-10.8
	C64.9,34.2,56.8,3.3,51.8,0.5z"/>
</svg>
