<?xml version="1.0" encoding="utf-8"?>
<!-- Generator: Adobe Illustrator 23.0.0, SVG Export Plug-In . SVG Version: 6.00 Build 0)  -->
<svg version="1.1" id="Layer_2_1_" xmlns="http://www.w3.org/2000/svg" xmlns:xlink="http://www.w3.org/1999/xlink" x="0px" y="0px"
	 viewBox="0 0 64 64" style="enable-background:new 0 0 64 64;" xml:space="preserve">
<path d="M61.2,58.7H32.7l29.8-29.8c0.8-0.8,1.3-2.1,1.3-3.5s-0.5-2.4-1.3-3.5L42.1,1.4c-1.9-1.9-4.8-1.9-6.7,0L5.3,31.5
	c-6.9,6.9-6.9,18.4,0,25.3l1.9,1.9l0,0c3.5,3.5,8,5.3,12.8,5.3c0.3,0,0.8,0,1.1,0h0.3h40c1.6,0,2.7-1.1,2.7-2.7S62.8,58.7,61.2,58.7
	z M38.6,5.7l19.7,19.7L35.4,48.3L15.7,28.6L38.6,5.7z M9,53.1c-4.8-4.8-4.8-12.8,0-17.8l2.9-2.9L31.7,52l-2.9,2.9
	c-2.4,2.4-5.6,3.7-8.8,3.7c-3.5,0-6.7-1.3-9.1-3.7L9,53.1z"/>
</svg>
