<?xml version="1.0" encoding="utf-8"?>
<!-- Generator: Adobe Illustrator 23.0.0, SVG Export Plug-In . SVG Version: 6.00 Build 0)  -->
<svg version="1.1" id="Layer_1" xmlns="http://www.w3.org/2000/svg" xmlns:xlink="http://www.w3.org/1999/xlink" x="0px" y="0px"
	 viewBox="0 0 64 64" style="enable-background:new 0 0 64 64;" xml:space="preserve">
<path d="M50.7,58.7c-10.7,0-20.3-6.7-24.3-16h16.3c1.6,0,2.7-1.1,2.7-2.7s-1.1-2.7-2.7-2.7H24.5C24.3,35.7,24,33.9,24,32
	c0-0.8,0-1.9,0.3-2.7h18.4c1.6,0,2.7-1.1,2.7-2.7c0-1.6-1.1-2.7-2.7-2.7H25.3C28.8,13.3,38.9,5.3,50.7,5.3c1.6,0,2.7-1.1,2.7-2.7
	S52.3,0,50.7,0C36,0,23.5,10.4,19.7,24h-6.4c-1.6,0-2.7,1.1-2.7,2.7c0,1.6,1.1,2.7,2.7,2.7h5.6c0,0.8-0.3,1.9-0.3,2.7
	c0,1.9,0.3,3.5,0.5,5.3h-5.9c-1.6,0-2.7,1.1-2.7,2.7s1.1,2.7,2.7,2.7h7.2C25.1,54.9,37.1,64,50.7,64c1.6,0,2.7-1.1,2.7-2.7
	C53.3,59.7,52.3,58.7,50.7,58.7z"/>
</svg>
