<?xml version="1.0" encoding="utf-8"?>
<!-- Generator: Adobe Illustrator 22.0.1, SVG Export Plug-In . SVG Version: 6.00 Build 0)  -->
<svg version="1.1" id="Layer_1" xmlns="http://www.w3.org/2000/svg" xmlns:xlink="http://www.w3.org/1999/xlink" x="0px" y="0px"
	 viewBox="0 0 64 64" style="enable-background:new 0 0 64 64;" xml:space="preserve">
<style type="text/css">
	.st0{fill-rule:evenodd;clip-rule:evenodd;}
</style>
<path class="st0" d="M32,0C14.3,0,0,14.3,0,32c0,17.7,14.3,32,32,32c17.7,0,32-14.3,32-32C64,14.3,49.7,0,32,0z M40.5,19.5
	c-1.1,0-2.1,0-3.2,0c-1.4,0-2.3,0.7-2.3,2.1c-0.1,1.1,0,2.3,0,3.4c0,0.4,0.2,0.4,0.5,0.4c1.6,0,3.2,0,4.8,0c0.5,0,0.6,0.1,0.6,0.6
	c-0.2,1.9-0.4,3.8-0.5,5.6c0,0.4-0.2,0.5-0.6,0.5c-1.3,0-2.5,0-3.8,0c-0.9,0-0.8-0.1-0.8,0.8c0,5.9,0,11.7,0,17.6
	c0,0.6-0.2,0.8-0.8,0.8c-2.2,0-4.4,0-6.6,0c-0.6,0-0.7-0.2-0.7-0.7c0-3,0-5.9,0-8.9c0-3,0-6,0-9c0-0.5-0.1-0.7-0.6-0.6
	c-0.9,0-1.9,0-2.8,0c-0.4,0-0.5-0.1-0.5-0.5c0-1.9,0-3.7,0-5.6c0-0.4,0.1-0.5,0.5-0.5c1,0,1.9,0,2.9,0c0.6,0,0.7-0.2,0.7-0.7
	c0-1.4,0-2.8,0-4.3c0-1.7,0.5-3.4,1.5-4.8c1.3-1.8,3.2-2.6,5.3-2.7c2.2-0.1,4.4,0,6.6-0.1c0.3,0,0.4,0.1,0.4,0.4c0,1.9,0,3.8,0,5.7
	C40.9,19.4,40.8,19.5,40.5,19.5z"/>
</svg>
