<?xml version="1.0" encoding="utf-8"?>
<!-- Generator: Adobe Illustrator 22.0.1, SVG Export Plug-In . SVG Version: 6.00 Build 0)  -->
<svg version="1.1" id="Layer_1" xmlns="http://www.w3.org/2000/svg" xmlns:xlink="http://www.w3.org/1999/xlink" x="0px" y="0px"
	 viewBox="0 0 64 64" style="enable-background:new 0 0 64 64;" xml:space="preserve">
<path d="M32,0C14,0,0,13.3,0,31C0,40.4,3.8,48.5,10,54c0.5,0.4,0.8,1.1,0.9,1.8l0.1,5.7c0.1,1.8,1.9,3,3.6,2.3L21,61
	c0.5-0.2,1.1-0.3,1.7-0.1c2.9,0.8,6,1.3,9.3,1.3c18,0,32-13.2,32-31S50,0,32,0z M51.2,23.9l-9.4,14.9c-1.5,2.4-4.7,3-6.9,1.3
	l-7.4-5.6c-0.7-0.5-1.6-0.5-2.3,0L15,42.1c-1.3,1-3.1-0.6-2.2-2l9.4-14.9c1.5-2.4,4.7-3,6.9-1.3l7.4,5.6c0.7,0.5,1.6,0.5,2.3,0
	l10.1-7.7C50.4,20.9,52.1,22.5,51.2,23.9z"/>
</svg>
