<?xml version="1.0" encoding="utf-8"?>
<!-- Generator: Adobe Illustrator 22.0.1, SVG Export Plug-In . SVG Version: 6.00 Build 0)  -->
<svg version="1.1" id="Layer_1" xmlns="http://www.w3.org/2000/svg" xmlns:xlink="http://www.w3.org/1999/xlink" x="0px" y="0px"
	 viewBox="0 0 64 64" style="enable-background:new 0 0 64 64;" xml:space="preserve">
<path d="M47.9,25.6L47.9,25.6h-5.8H40v-2.1v-6.4v-2.1h2.1h4.4c1.1,0,2-0.9,2-2V2c0-1.1-0.9-2-2-2h-7.6c-8.2,0-13.9,5.9-13.9,14.4
	v9.1v2.1h-2.1H16c-1.5,0-2.7,1.2-2.7,2.8v7.4c0,1.5,1.2,2.7,2.7,2.7h6.9h2.1v2.1v20.8c0,1.5,1.2,2.7,2.7,2.7h9.8
	c0.6,0,1.2-0.3,1.6-0.7c0.5-0.5,0.7-1.2,0.7-1.8l0,0v0V40.5v-2.1H42h4.6c1.3,0,2.4-0.9,2.6-2.1l0-0.1l0-0.1l1.4-7.1
	c0.2-0.8,0-1.6-0.6-2.4C49.6,26.1,48.8,25.7,47.9,25.6z"/>
</svg>
