<?xml version="1.0" encoding="utf-8"?>
<!-- Generator: Adobe Illustrator 22.0.1, SVG Export Plug-In . SVG Version: 6.00 Build 0)  -->
<svg version="1.1" id="Layer_1" xmlns="http://www.w3.org/2000/svg" xmlns:xlink="http://www.w3.org/1999/xlink" x="0px" y="0px"
	 viewBox="0 0 64 64" style="enable-background:new 0 0 64 64;" xml:space="preserve">
<path d="M42.7,21.3c5.9,0,10.7-4.8,10.7-10.7S48.6,0,42.7,0H21.3c-5.9,0-10.7,4.8-10.7,10.7s4.8,10.7,10.7,10.7
	c-5.9,0-10.7,4.8-10.7,10.7c0,5.9,4.8,10.7,10.7,10.7c-5.9,0-10.7,4.8-10.7,10.7S15.4,64,21.3,64C27.2,64,32,59.2,32,53.3v-32
	L42.7,21.3z M42.7,21.3C36.8,21.3,32,26.1,32,32s4.8,10.7,10.7,10.7c5.9,0,10.7-4.8,10.7-10.7l0,0C53.3,26.1,48.6,21.3,42.7,21.3z"
	/>
</svg>
