<?xml version="1.0" encoding="utf-8"?>
<!-- Generator: Adobe Illustrator 22.0.1, SVG Export Plug-In . SVG Version: 6.00 Build 0)  -->
<svg version="1.1" id="Layer_1" xmlns="http://www.w3.org/2000/svg" xmlns:xlink="http://www.w3.org/1999/xlink" x="0px" y="0px"
	 viewBox="0 0 64 64" style="enable-background:new 0 0 64 64;" xml:space="preserve">
<style type="text/css">
	.st0{fill:none;stroke:#000000;stroke-miterlimit:10;}
</style>
<path d="M45.1,7.4c7,3.1,13.7,10.2,13.7,21.9v2.4c0,14-11.8,24.9-26.9,24.9c-4.3,0-8.6-1-12.5-3c-6.4-3.2-11-8.7-13.2-15.3
	c-2.1-6.7-1.5-13.7,1.9-19.9l0.4-0.7l-0.3-0.7C7.2,14.5,7.6,11.9,9,9.8c0.3,1.4,0.8,2.7,1.3,3.9c0.3,0.6,0.7,1.2,1.2,1.7l0.6,0.7
	l0.9-0.1c0.9-0.1,1.8-0.1,2.8-0.1c0.8,0,1.5,0,2.2,0.1l1.1,0.1l0.6-0.9c1.1-1.7,2.7-2.9,4.6-3.4c-1.5,1.6-3.4,4.4-2.5,6.5
	c0.7,1.6,2.9,2.4,6.4,2.4h0.6L26,22.4c-1.3,0.9-2.3,2.3-2.8,4c0,0,0,0,0,0c-0.1,0-0.2,0-0.4,0c-1,0-1.9,0.2-2.7,0.7
	c-0.1,0.1-0.2,0.1-0.3,0.2c-1,0.7-1.6,1.8-1.8,3c-0.1,0.8,0.1,1.5,0.6,2.2c0.9,1,2.3,1.3,3.3,1.4c0.6,0.1,1.2,0.1,1.9,0.1l2.4,0
	c0,0,0,0,0,0h0.1h0c1.4,0,2.9,0,4.5-1c0.3-0.2,0.5-0.3,0.8-0.5c0.4-0.2,0.8-0.6,1.2-0.7c0.4-0.1,0.8-0.2,1.5-0.2c0.2,0,0.4,0,0.7,0
	c0.5,0.1,1.1,0.1,1.5,0.3h-0.1c-0.4,0.7-1,1.4-1.6,1.9c-0.2,0.2-0.4,0.3-0.6,0.5c-0.3,0.2-0.6,0.4-1,0.6c-0.8,0.4-1.7,0.9-2.4,1.7
	c-0.8,0.8-1.9,1.2-2.3,2.1c-0.2,0.4-0.4,0.8-0.6,1.2c-0.4,0.7-0.4,1.6-0.1,2.3c0.3,0.7,1,1.3,1.9,1.5c0.8,0.2,1.6,0.3,2.5,0.3
	c0.2,0,0.4,0,0.5,0c3.2,0,6.3-1.1,8.9-2.9c5.6-4,7.5-11.1,5.1-17.1c0.3,0.3,0.5,0.6,0.7,0.9c0.4,0.6,1.1,0.9,1.8,0.9
	c0.2,0,0.4,0,0.7-0.1c0.9-0.3,1.5-1.2,1.4-2.1C51,18,48.9,11.3,45.1,7.4 M45.1,2.4c-1.6,0-3.1,0.7-4.1,2.1c-1.4,1.9-1.2,4.6,0.4,6.3
	c1.7,1.9,3.2,4.9,4.1,8.3c-0.5,0.1-0.9,0.3-1.3,0.6c-2.1,1.3-3,3.9-2.1,6.2c1.6,4,0.3,8.5-3.1,11.1c0.5-0.5,1-1.1,1.4-1.7
	c0.5-0.6,0.9-1.4,1.1-2.3c0.5-2.3-0.8-4.7-3-5.6c-1.1-0.4-2.1-0.6-2.8-0.7l-0.1,0c-0.1,0-0.2,0-0.3,0c-0.4,0-0.7,0-1,0
	c-1.2,0-2.2,0.2-3.1,0.5c-0.8,0.3-1.4,0.7-1.8,0.9c-0.1,0-0.1,0.1-0.2,0.1c-0.1,0.1-0.3,0.2-0.5,0.3l-0.1,0.1
	c-0.1,0.1-0.3,0.2-0.5,0.3c-0.2,0.1-0.4,0.1-0.7,0.2c0.2-0.4,0.4-0.9,0.5-1.3c0.1-0.6,0.5-0.9,0.7-1.1l2.7-1.7
	c1.9-1.2,2.7-3.5,2.1-5.6c-0.6-2.1-2.6-3.6-4.8-3.6h-0.6c-0.3,0-0.5,0-0.7,0c0.1-0.2,0.3-0.4,0.5-0.6c1.5-1.7,1.7-4.1,0.5-6
	c-0.9-1.5-2.5-2.4-4.2-2.4c-0.5,0-0.9,0.1-1.4,0.2c-2.4,0.7-4.5,2.1-6.2,3.9c-0.3,0-0.6,0-0.9,0c-0.4,0-0.8,0-1.2,0
	C14.3,10,14,9.3,13.9,8.6c-0.4-1.9-2-3.4-3.9-3.8C9.6,4.8,9.3,4.8,9,4.8c-1.6,0-3.2,0.8-4.1,2.1C2.7,10,2.1,13.8,3.2,17.4
	c-3.4,7-3.9,14.9-1.6,22.4c2.6,8.1,8.2,14.5,15.7,18.3c4.5,2.3,9.6,3.5,14.7,3.5c17.9,0,31.9-13.2,31.9-29.9v-2.4
	c0-12-6.2-21.9-16.7-26.5C46.5,2.5,45.8,2.4,45.1,2.4L45.1,2.4z"/>
<path class="st0" d="M51.5,15.5L51.5,15.5L51.5,15.5z"/>
<path class="st0" d="M52.7,14.3L52.7,14.3L52.7,14.3z"/>
<path class="st0" d="M49.4-10.1L49.4-10.1L49.4-10.1z"/>
</svg>
