<?xml version="1.0" encoding="utf-8"?>
<!-- Generator: Adobe Illustrator 23.0.0, SVG Export Plug-In . SVG Version: 6.00 Build 0)  -->
<svg version="1.1" id="Layer_1" xmlns="http://www.w3.org/2000/svg" xmlns:xlink="http://www.w3.org/1999/xlink" x="0px" y="0px"
	 viewBox="0 0 64 64" style="enable-background:new 0 0 64 64;" xml:space="preserve">
<g>
	<path d="M50.7,36.3c0-0.8-0.3-1.3-0.8-1.9L23.2,7.7l3.2-3.2c0.5-0.8,0.8-1.9,0.3-2.9C26.4,0.5,25.3,0,24.3,0H2.7C1.1,0,0,1.1,0,2.7
		v21.6c0,1.1,0.5,2.1,1.6,2.4c0.3,0.3,0.8,0.3,1.1,0.3c0.8,0,1.3-0.3,1.9-0.8l3.2-3.2l26.7,26.7c0.5,0.5,1.3,0.8,1.9,0.8
		s1.3-0.3,1.9-0.8l11.5-11.5C50.4,37.9,50.7,37.1,50.7,36.3z M32.8,25.1L28.3,36l-5.9-5.9l4.5-10.9L32.8,25.1z M5.3,5.3h12.5
		L5.3,17.9V5.3z M19.2,11.5l3.5,3.5l-4.5,10.9l-6.7-6.7L19.2,11.5z M36.5,44l-4.3-4l4.5-10.7l7.2,7.2L36.5,44z"/>
	<path d="M46.1,53.6c-1.1-1.1-2.7-1.1-3.7,0c-1.1,1.1-1.1,2.7,0,3.7l5.9,5.9c0.5,0.5,1.3,0.8,1.9,0.8s1.3-0.3,1.9-0.8
		c1.1-1.1,1.1-2.7,0-3.7L46.1,53.6z"/>
	<path d="M51.7,48c-1.1-1.1-2.7-1.1-3.7,0s-1.1,2.7,0,3.7l9.6,9.6c0.5,0.5,1.3,0.8,1.9,0.8c0.5,0,1.3-0.3,1.9-0.8
		c1.1-1.1,1.1-2.7,0-3.7L51.7,48z"/>
	<path d="M63.2,48l-5.9-5.9c-1.1-1.1-2.7-1.1-3.7,0s-1.1,2.7,0,3.7l5.9,5.9c0.5,0.5,1.3,0.8,1.9,0.8c0.5,0,1.3-0.3,1.9-0.8
		C64.3,50.7,64.3,49.1,63.2,48z"/>
</g>
</svg>
