<?xml version="1.0" encoding="utf-8"?>
<!-- Generator: Adobe Illustrator 22.0.1, SVG Export Plug-In . SVG Version: 6.00 Build 0)  -->
<svg version="1.1" id="Layer_1" xmlns="http://www.w3.org/2000/svg" xmlns:xlink="http://www.w3.org/1999/xlink" x="0px" y="0px"
	 viewBox="0 0 64 64" style="enable-background:new 0 0 64 64;" xml:space="preserve">
<path d="M62.8,29.2c-0.1-0.6-0.2-0.9-0.2-0.9s-0.2,0.3-0.6,0.8c-0.1-1.4-0.4-2.7-0.7-4.1c-0.5-1.7-1.1-3.3-1.9-4.8
	c-0.5-1-1.1-2-1.7-2.9c-0.2-0.3-0.5-0.7-0.7-1c-1.1-1.9-2.5-3-4-5.2c-1-1.7-1.7-3.5-2-5.4c-0.4,1.2-0.7,2.3-1,3.5
	c-1.6-1.6-2.9-2.7-3.7-3.5C42.3,2,42.7,0,42.7,0s-7.5,8.4-4.3,17.2c1.1,3,3.1,5.6,5.6,7.5c3.2,2.6,6.6,4.7,8.4,9.9
	c-1.4-2.8-3.6-5.1-6.3-6.7c0.8,1.9,1.2,4,1.2,6c0,7.9-6.4,14.3-14.3,14.3c-1.1,0-2.1-0.1-3.2-0.4c-1.2-0.2-2.4-0.6-3.5-1.2
	c-1.7-1-3.1-2.3-4.2-3.9l0,0l0.3,0.1c0.6,0.2,1.2,0.4,1.8,0.5c2.4,0.5,5,0.2,7.2-0.9c2.3-1.3,3.6-2.2,4.7-1.8h0
	c1.1,0.3,1.9-0.7,1.2-1.8c-1.3-1.7-3.5-2.6-5.7-2.2c-2.3,0.3-4.3,1.9-7.3,0.4c-0.2-0.1-0.4-0.2-0.6-0.3c-0.2-0.1,0.6,0.2,0.4,0
	c-0.6-0.3-1.3-0.7-1.9-1.1c0,0,0.5,0.1,0.4,0.1c-0.8-0.5-1.4-1.2-1.9-2c-0.5-1-0.6-2.1-0.1-3.1c0.3-0.5,0.7-0.9,1.2-1.1
	c0.4,0.2,0.6,0.3,0.6,0.3s-0.2-0.3-0.3-0.5c0,0,0.1,0,0.1,0c0.3,0.1,1.1,0.5,1.5,0.7c0.3,0.1,0.5,0.3,0.7,0.6c0,0,0.1-0.1,0-0.3
	c-0.1-0.3-0.4-0.6-0.7-0.9h0c0.3,0.2,0.6,0.3,0.9,0.5c0.2-0.6,0.4-1.2,0.3-1.8c0-0.3,0-0.7-0.1-1c-0.1-0.2,0.1-0.3,0.2-0.1
	c0-0.2-0.1-0.3-0.2-0.5v0c0,0,0.1-0.1,0.2-0.2c0.1-0.1,0.3-0.2,0.4-0.3c0.9-0.6,1.9-1.1,2.9-1.5c0.8-0.4,1.5-0.6,1.7-0.7
	c0.2-0.1,0.4-0.3,0.6-0.5c0.7-0.6,1.2-1.4,1.3-2.3c0-0.1,0-0.2,0-0.4v-0.2c-0.1-0.5-0.9-0.8-5-1.2c-1.4-0.2-2.6-1.3-2.9-2.7v0
	c0.8-2,2.2-3.8,4-5c0.1-0.1-0.4,0-0.3-0.1c0.3-0.2,0.7-0.3,1.1-0.5c0.2-0.1-0.8-0.4-1.6-0.3c-0.5,0-1,0.2-1.5,0.4
	c0.2-0.2,0.8-0.4,0.7-0.4c-1.1,0.2-2.1,0.6-3.1,1.2c0-0.1,0-0.2,0.1-0.3c-0.8,0.3-1.4,0.8-1.9,1.5c0-0.1,0-0.2,0-0.3
	c-0.3,0.3-0.7,0.6-0.9,0.9l0,0c-2.2-0.9-4.7-1.1-7.1-0.6l0,0h0c-0.5-0.4-0.9-0.9-1.3-1.4l0,0l-0.1,0c-0.2-0.2-0.3-0.5-0.5-0.8
	c-0.1-0.2-0.2-0.4-0.3-0.7c0,0,0,0,0,0c-0.1,0-0.1,0.2-0.1,0.2v0c-0.4-1.1-0.6-2.2-0.6-3.4l0,0C9.9,7.4,9.4,8,9.1,8.8
	C9,9.1,8.9,9.2,8.8,9.4V9.3c0-0.1,0.1-0.4,0.1-0.4s0,0,0,0.1C8.6,9.2,8.5,9.5,8.3,9.7C8.2,10,8.1,10.2,8,10.5c0,0,0,0,0-0.1
	s0-0.3,0-0.2l0,0.1c-0.9,1.9-1.4,4-1.6,6.1c-0.1,0.4-0.1,0.7-0.1,1.1v0c-0.6,0.7-1.2,1.4-1.6,2.2c-1.6,2.6-2.7,5.5-3.5,8.5
	c0.5-1.1,1.1-2.2,1.8-3.2C1.7,28.4,1,32.1,1,35.9c0.2-1.1,0.5-2.2,0.9-3.3c-0.2,4.5,0.6,8.9,2.5,13c2.5,5.6,6.7,10.3,11.9,13.5
	c2.1,1.4,4.5,2.6,7,3.3c0.3,0.1,0.7,0.2,1,0.3c-0.1,0-0.2-0.1-0.3-0.1c2.9,0.9,6,1.3,9,1.3c10.8,0,14.4-4.1,14.7-4.5
	c0.5-0.5,1-1.1,1.3-1.7c0.2-0.1,0.4-0.2,0.6-0.3l0.1-0.1l0.2-0.1c1.6-0.8,3.2-1.7,4.6-2.9c2.1-1.5,3.6-3.7,4.3-6.2
	c0.4-0.9,0.4-1.9,0.1-2.9c0.1-0.2,0.2-0.4,0.3-0.6c2.3-3.7,3.6-8,3.8-12.4V32C63,31.1,63,30.2,62.8,29.2L62.8,29.2z M24.1,16.6
	c-0.1,0.1-0.1,0.3-0.2,0.5C24,16.9,24.1,16.8,24.1,16.6z"/>
</svg>
