<?xml version="1.0" encoding="utf-8"?>
<!-- Generator: Adobe Illustrator 23.0.0, SVG Export Plug-In . SVG Version: 6.00 Build 0)  -->
<svg version="1.1" id="Layer_1" xmlns="http://www.w3.org/2000/svg" xmlns:xlink="http://www.w3.org/1999/xlink" x="0px" y="0px"
	 viewBox="0 0 64 64" style="enable-background:new 0 0 64 64;" xml:space="preserve">
<g>
	<path d="M26.7,32h2.7v2.7c0,1.6,1.1,2.7,2.7,2.7c1.6,0,2.7-1.1,2.7-2.7V32h2.7c1.6,0,2.7-1.1,2.7-2.7c0-1.6-1.1-2.7-2.7-2.7h-2.7
		V24c0-1.6-1.1-2.7-2.7-2.7c-1.6,0-2.7,1.1-2.7,2.7v2.7h-2.7c-1.6,0-2.7,1.1-2.7,2.7C24,30.9,25.1,32,26.7,32z"/>
	<path d="M57.3,13.3H42.7v-2.7c0-4.5-3.5-8-8-8h-5.3c-4.5,0-8,3.5-8,8v2.7H6.7C2.9,13.3,0,16.3,0,20v12.8c0,2.1,1.1,4,2.7,5.3v17.1
		c0,3.2,2.7,6.1,6.1,6.1h46.4c3.5,0,6.1-2.9,6.1-6.4V37.9c1.6-1.3,2.7-3.2,2.7-5.3V19.7C64,16.3,61.1,13.3,57.3,13.3z M26.7,10.7
		c0-1.6,1.1-2.7,2.7-2.7h5.3c1.6,0,2.7,1.1,2.7,2.7v2.7H26.7V10.7z M5.3,20c0-0.8,0.5-1.3,1.3-1.3h14.7h21.3h14.7
		c0.8,0,1.3,0.5,1.3,1.3v12.8c0,0.5-0.5,1.1-0.8,1.1c-1.1,0.3-1.9,0.3-2.7,0.5l-15.5,4.3c-5.1,1.3-10.4,1.3-15.5,0L8.8,34.4
		c-0.8-0.3-1.3-0.3-2.1-0.5H6.4c-0.5,0-1.1-0.5-1.1-1.1V20z M55.2,56H8.8C8.3,56,8,55.5,8,54.9V39.5l14.7,4c2.9,0.8,6.1,1.3,9.3,1.3
		c3.2,0,6.1-0.5,9.3-1.3l14.9-4.3v15.5C56,55.5,55.7,56,55.2,56z"/>
</g>
</svg>
