<?xml version="1.0" encoding="utf-8"?>
<!-- Generator: Adobe Illustrator 23.0.0, SVG Export Plug-In . SVG Version: 6.00 Build 0)  -->
<svg version="1.1" id="Layer_2_1_" xmlns="http://www.w3.org/2000/svg" xmlns:xlink="http://www.w3.org/1999/xlink" x="0px" y="0px"
	 viewBox="0 0 64 64" style="enable-background:new 0 0 64 64;" xml:space="preserve">
<path d="M53.1,33.6l-3.5-8.3l3.5-8.3c0.3-0.3,0.3-0.8,0.3-1.1l0,0c0-1.6-1.1-2.7-2.7-2.7h-16v-2.7C34.7,9.1,33.6,8,32,8H16V2.7
	C16,1.1,14.9,0,13.3,0s-2.7,1.1-2.7,2.7V8v24v29.3c0,1.6,1.1,2.7,2.7,2.7s2.7-1.1,2.7-2.7V32h13.3v1.6c0,2.1,1.6,3.7,3.7,3.7h17.6
	c1.6,0,2.7-1.1,2.7-2.7C53.3,34.4,53.3,33.9,53.1,33.6L53.1,33.6z M16,26.7V13.3h13.3v13.3H16z M34.7,26.7v-8h12l-2.9,6.7l2.9,6.7
	h-12V26.7z"/>
</svg>
