<?xml version="1.0" encoding="utf-8"?>
<!-- Generator: Adobe Illustrator 23.0.0, SVG Export Plug-In . SVG Version: 6.00 Build 0)  -->
<svg version="1.1" id="Layer_1" xmlns="http://www.w3.org/2000/svg" xmlns:xlink="http://www.w3.org/1999/xlink" x="0px" y="0px"
	 viewBox="0 0 64 64" style="enable-background:new 0 0 64 64;" xml:space="preserve">
<path d="M56.1,0c-1.6,0-2.7,1.1-2.7,2.7v27.7L12.9,1.1l0,0C11.3,0,9.4,0,7.8,0.8c-1.3,0.8-2.4,2.4-2.4,4v54.1c0,1.9,1.1,3.5,2.4,4.3
	c0.8,0.3,1.3,0.5,2.1,0.5c1.1,0,1.9-0.3,2.7-0.8l40.5-29.3v27.7c0,1.6,1.1,2.7,2.7,2.7c1.6,0,2.7-1.1,2.7-2.7V2.7
	C58.8,1.1,57.7,0,56.1,0z M10.8,57.9V6.1L46.5,32L10.8,57.9z"/>
</svg>
