<?xml version="1.0" encoding="utf-8"?>
<!-- Generator: Adobe Illustrator 23.0.0, SVG Export Plug-In . SVG Version: 6.00 Build 0)  -->
<svg version="1.1" id="Layer_1" xmlns="http://www.w3.org/2000/svg" xmlns:xlink="http://www.w3.org/1999/xlink" x="0px" y="0px"
	 viewBox="0 0 64 64" style="enable-background:new 0 0 64 64;" xml:space="preserve">
<g>
	<path d="M57.2,32c-1.9-0.3-3.5,0-5.1,0.8c0.8-1.6,2.1-3.2,3.5-4.5c1.1-1.1,0.8-2.7-0.3-3.7c-1.1-1.1-2.7-0.8-3.7,0.3
		c-0.8,1.1-4.5,5.1-5.6,9.1c-0.3,0-0.5-0.3-0.8-0.3c-1.9-1.3-4-1.9-6.1-1.3c-4.5,0.8-7.5,4.8-6.9,9.6C33.7,52,36.6,56,39,57.6
		c1.6,1.1,3.2,1.3,5.3,1.1c1.1-0.3,2.1-0.8,2.7-1.3s1.3-0.5,1.6,0c0.3,0.3,1.3,1.3,2.9,1.3c0.5,0,0.8,0,1.3,0c1.6,0,2.7-0.5,4-1.3
		c2.1-1.6,5.3-5.6,6.9-15.8l0,0C64.7,37,61.7,32.8,57.2,32z M54,53.1c-0.3,0.3-0.5,0.3-1.3,0.3c-1.3-1.3-2.9-1.9-4.5-1.9
		c-1.6,0-3.5,0.8-4.5,1.9c-0.8,0-1.1,0-1.3-0.3c-0.5-0.3-3.2-2.7-4.8-12.3c-0.3-1.6,0.8-3.2,2.4-3.5c0.8-0.3,1.6,0.3,2.1,0.5
		c1.9,1.3,4,2.1,6.1,2.1h0.5c2.1,0,4-0.8,5.6-2.1c0.5-0.5,1.3-0.5,2.1-0.5c1.6,0.3,2.7,1.9,2.4,3.5C57.2,50.4,54.5,52.8,54,53.1z"/>
	<path d="M29.4,5.2h-8.8c-2.9,0-5.3,2.1-6.1,4.8l-1.3,5.9H5.9c-1.6,0-3.2,0.8-4.3,1.9S0,20.5,0,22.1l2.7,31.3
		c0.3,2.9,2.7,5.3,5.9,5.3H23c2.9,0,5.6-2.4,5.9-5.3l2.7-31.3c0.3-1.6-0.5-3.2-1.6-4.3c-1.1-1.1-2.7-1.9-4.3-1.9h-6.9l1.1-4.5
		c0-0.3,0.5-0.5,0.8-0.5h8.8c1.6,0,2.7-1.1,2.7-2.7S31,5.2,29.4,5.2z M22.7,53.3H8.6c-0.3,0-0.5-0.3-0.5-0.5L5.9,29.3h19.2
		l-1.9,23.8C23.2,53.1,23,53.3,22.7,53.3z M25.7,21.3v0.3v2.4h-20l-0.3-2.1c0-0.3,0-0.3,0-0.3l0.3-0.3h19.5
		C25.7,21.3,25.7,21.3,25.7,21.3z"/>
</g>
</svg>
