<?xml version="1.0" encoding="utf-8"?>
<!-- Generator: Adobe Illustrator 23.0.0, SVG Export Plug-In . SVG Version: 6.00 Build 0)  -->
<svg version="1.1" id="Layer_1" xmlns="http://www.w3.org/2000/svg" xmlns:xlink="http://www.w3.org/1999/xlink" x="0px" y="0px"
	 viewBox="0 0 64 64" style="enable-background:new 0 0 64 64;" xml:space="preserve">
<path d="M61.3,21.3c1.6,0,2.7-1.1,2.7-2.7v-16C64,1.1,62.9,0,61.3,0h-16c-1.6,0-2.7,1.1-2.7,2.7s1.1,2.7,2.7,2.7h9.6L32,28.3
	L9.1,5.3h9.6c1.6,0,2.7-1.1,2.7-2.7S20.3,0,18.7,0h-16C2.4,0,1.9,0,1.6,0.3C1.1,0.5,0.5,1.1,0.3,1.6C0,1.9,0,2.4,0,2.7v16
	c0,1.6,1.1,2.7,2.7,2.7s2.7-1.1,2.7-2.7V9.1L28.3,32L5.3,54.9v-9.6c0-1.6-1.1-2.7-2.7-2.7S0,43.7,0,45.3v16C0,62.9,1.1,64,2.7,64h16
	c1.6,0,2.7-1.1,2.7-2.7c0-1.6-1.1-2.7-2.7-2.7H9.1L32,35.7l22.9,22.9h-9.6c-1.6,0-2.7,1.1-2.7,2.7c0,1.6,1.1,2.7,2.7,2.7h16
	c1.6,0,2.7-1.1,2.7-2.7v-16c0-1.6-1.1-2.7-2.7-2.7c-1.6,0-2.7,1.1-2.7,2.7v9.6L35.7,32L58.7,9.1v9.6C58.7,20.3,59.7,21.3,61.3,21.3z
	"/>
</svg>
