<?xml version="1.0" encoding="utf-8"?>
<!-- Generator: Adobe Illustrator 23.0.0, SVG Export Plug-In . SVG Version: 6.00 Build 0)  -->
<svg version="1.1" id="Layer_1" xmlns="http://www.w3.org/2000/svg" xmlns:xlink="http://www.w3.org/1999/xlink" x="0px" y="0px"
	 viewBox="0 0 64 64" style="enable-background:new 0 0 64 64;" xml:space="preserve">
<g>
	<path d="M22.7,42.7c3.7,0,6.7-2.9,6.7-6.7s-2.9-6.7-6.7-6.7S16,32.3,16,36S18.9,42.7,22.7,42.7z M22.7,34.7c0.8,0,1.3,0.5,1.3,1.3
		s-0.5,1.3-1.3,1.3c-0.8,0-1.3-0.5-1.3-1.3S21.9,34.7,22.7,34.7z"/>
	<path d="M60.8,0H29.9c-1.9,0-3.2,1.3-3.2,3.2v18.1H3.2c-1.9,0-3.2,1.3-3.2,3.2v36.3C0,62.7,1.3,64,3.2,64h30.9
		c1.9,0,3.2-1.3,3.2-3.2V42.7h23.5c1.9,0,3.2-1.3,3.2-3.2V3.2C64,1.3,62.7,0,60.8,0z M32,5.3h26.7v17.6c-0.5,0.3-1.3,0.8-1.9,1.1
		c-1.1,0.8-1.9,1.6-2.9,2.4c-2.7,2.4-4.3,3.5-6.1,2.7c-0.3,0-0.8-0.5-1.1-0.8L46.4,28c-1.6-1.3-3.5-2.9-5.9-3.5
		c-1.1-0.3-2.1-0.5-3.2-0.3c-0.3-1.6-1.6-2.9-3.2-2.9H32V5.3z M32,26.7v17.6c-0.5,0.3-1.3,0.8-1.9,1.1c-1.1,0.8-1.9,1.6-2.9,2.4
		c-2.7,2.4-4.3,3.5-6.1,2.7c-0.3,0-0.8-0.5-1.3-1.1l-0.3-0.3c-1.6-1.3-3.5-2.7-5.9-3.5c-2.9-0.8-5.9,0.3-8.3,1.9V26.7H32z M5.3,58.7
		v-5.1c0.3-0.3,0.5-0.3,0.8-0.5c2.7-1.6,4.5-2.7,6.4-2.1c1.3,0.3,2.7,1.3,4,2.4l0.3,0.3c0.8,0.5,1.6,1.3,2.9,1.9
		c1.1,0.3,2.1,0.5,2.9,0.5c3.5,0,6.4-2.4,8.5-4.3c0.3-0.3,0.8-0.5,1.1-1.1v8H5.3z M43.2,32.3c0.8,0.5,1.6,1.3,2.9,1.9
		c1.1,0.5,2.1,0.5,3.2,0.5c3.5,0,6.4-2.4,8.3-4.3c0.3-0.3,0.8-0.5,1.1-1.1v8H37.3v-7.7c0.5,0,1.1,0,1.6,0
		C40.3,29.9,41.6,30.9,43.2,32.3L43.2,32.3z"/>
	<path d="M49.3,21.3c3.7,0,6.7-2.9,6.7-6.7S53.1,8,49.3,8c-3.7,0-6.7,2.9-6.7,6.7S45.6,21.3,49.3,21.3z M49.3,13.3
		c0.8,0,1.3,0.5,1.3,1.3c0,0.8-0.5,1.3-1.3,1.3c-0.8,0-1.3-0.5-1.3-1.3C48,13.9,48.5,13.3,49.3,13.3z"/>
</g>
</svg>
