<?xml version="1.0" encoding="utf-8"?>
<!-- Generator: Adobe Illustrator 21.0.2, SVG Export Plug-In . SVG Version: 6.00 Build 0)  -->
<svg version="1.1" id="Layer_1" xmlns="http://www.w3.org/2000/svg" xmlns:xlink="http://www.w3.org/1999/xlink" x="0px" y="0px"
	 viewBox="0 0 64 64" style="enable-background:new 0 0 64 64;" xml:space="preserve">
<g>
	<circle cx="42.7" cy="36.8" r="2.7"/>
	<path d="M58.9,22.4c-1.9-1.1-4-1.6-6.1-1.6H34.7v-16c0-1.6-1.1-2.7-2.7-2.7c-1.6,0-2.7,1.1-2.7,2.7v16H10.9C5.1,20.8,0,25.9,0,32
		v18.7c0,6.1,5.1,11.2,10.9,11.2c5.3,0,9.9-4,10.9-9.1h20.3c1.1,5.1,5.3,9.1,10.9,9.1c6.1,0,10.9-5.1,10.9-11.2V32
		C64,28.3,62.1,24.5,58.9,22.4z M58.6,50.9c0,3.2-2.3,5.9-5.5,5.9s-5.6-2.7-5.6-5.9c0-1.9-1.3-3.5-3.5-3.5H22.1
		c-4,0-5.3,1.6-5.3,3.5c0,3.2-2.7,5.6-5.6,5.6c-3.2,0-5.6-2.7-5.6-5.9V31.7c-0.3-2.9,2.4-5.6,5.3-5.6H53c1.6,0,2.9,0.5,4,1.9
		c1.1,1.1,1.6,2.4,1.6,4V50.9L58.6,50.9z"/>
	<path d="M21.3,34.1h-2.7v-2.7c0-1.6-1.1-2.7-2.7-2.7s-2.7,1.1-2.7,2.7v2.7h-2.7c-1.6,0-2.7,1.1-2.7,2.7c0,1.6,1.1,2.7,2.7,2.7h2.7
		v2.7c0,1.6,1.1,2.7,2.7,2.7s2.7-1.1,2.7-2.7v-2.7h2.7c1.6,0,2.7-1.1,2.7-2.7C24,35.2,22.9,34.1,21.3,34.1z"/>
	<circle cx="53.3" cy="36.8" r="2.7"/>
	<circle cx="48" cy="31.5" r="2.7"/>
	<circle cx="48" cy="42.1" r="2.7"/>
</g>
</svg>
