<?xml version="1.0" encoding="utf-8"?>
<!-- Generator: Adobe Illustrator 23.0.0, SVG Export Plug-In . SVG Version: 6.00 Build 0)  -->
<svg version="1.1" id="Layer_2_1_" xmlns="http://www.w3.org/2000/svg" xmlns:xlink="http://www.w3.org/1999/xlink" x="0px" y="0px"
	 viewBox="0 0 64 64" style="enable-background:new 0 0 64 64;" xml:space="preserve">
<path d="M58,13.3h-7.2c0.8-0.8,1.6-1.6,1.9-2.4c0.5-1.6,0.8-4.3-2.7-7.7s-6.9-3.5-8.8-2.9c-4.3,1.1-7.5,5.9-9.1,9.6
	c-1.9-3.7-4.8-8.5-9.1-9.6c-2.1-0.5-5.3-0.5-8.8,2.9c-3.5,3.2-3.5,5.9-2.9,7.7c0.5,0.8,1.1,1.6,1.9,2.4H6c-1.6,0-3.2,1.6-3.2,3.2v12
	c0,1.9,1.6,3.5,3.5,3.5h1.9v28.8c0,1.6,1.6,3.2,3.2,3.2h41.3c1.9,0,3.2-1.6,3.2-3.2V32h1.9c1.9,0,3.5-1.6,3.5-3.5v-12
	C61.5,14.9,59.9,13.3,58,13.3z M42.5,5.3c0,0,0.3,0,0.5,0c0.5,0,1.6,0.3,3.2,1.6c1.1,1.1,1.3,1.9,1.3,1.9c-0.3,1.1-5.1,2.7-10.9,3.5
	C38.3,9.3,40.4,6.1,42.5,5.3z M17.7,7.2c1.6-1.3,2.7-1.6,3.2-1.6c0.3,0,0.5,0,0.5,0c2.1,0.5,4.3,3.7,5.6,6.9
	c-5.9-0.8-10.7-2.1-10.9-3.5C16.4,8.8,16.7,8.3,17.7,7.2z M8.1,18.7h21.3v8H11.3H8.1V18.7z M13.4,32h16v26.7h-16V32z M50.8,58.7h-16
	V32h16V58.7z M56.1,26.7h-3.2H34.8v-8h21.3V26.7z"/>
</svg>
