<?xml version="1.0" encoding="utf-8"?>
<!-- Generator: Adobe Illustrator 22.0.1, SVG Export Plug-In . SVG Version: 6.00 Build 0)  -->
<svg version="1.1" id="Layer_1" xmlns="http://www.w3.org/2000/svg" xmlns:xlink="http://www.w3.org/1999/xlink" x="0px" y="0px"
	 viewBox="0 0 64 64" style="enable-background:new 0 0 64 64;" xml:space="preserve">
<path d="M63.5,31L33,0.4c-0.5-0.5-1.4-0.5-2,0l-8.4,8.4l7.8,7.8c0.6-0.3,1.3-0.4,2-0.4c2.9,0,5.1,2.3,5.1,5.1c0,0.7-0.1,1.4-0.4,2
	l6.2,6.2c0.6-0.3,1.3-0.4,2-0.4c2.9,0,5.1,2.3,5.1,5.1c0,2.9-2.3,5.1-5.1,5.1c-2.9,0-5.1-2.3-5.1-5.1c0-0.7,0.1-1.4,0.4-2L34.4,26
	h-0.1v11.8c1.9,0.8,3.2,2.6,3.2,4.8c0,2.9-2.3,5.1-5.1,5.1c-2.9,0-5.1-2.3-5.1-5.1c0-2.2,1.3-4,3.2-4.8V26.2
	c-1.9-0.8-3.2-2.6-3.2-4.8c0-0.7,0.1-1.4,0.4-2l-7.8-7.9L0.4,31c-0.5,0.5-0.5,1.4,0,2L31,63.6c0.5,0.5,1.4,0.5,2,0L63.6,33
	C64.1,32.5,64.1,31.5,63.5,31z"/>
</svg>
