<?xml version="1.0" encoding="utf-8"?>
<!-- Generator: Adobe Illustrator 22.0.1, SVG Export Plug-In . SVG Version: 6.00 Build 0)  -->
<svg version="1.1" id="Layer_1" xmlns="http://www.w3.org/2000/svg" xmlns:xlink="http://www.w3.org/1999/xlink" x="0px" y="0px"
	 viewBox="0 0 64 64" style="enable-background:new 0 0 64 64;" xml:space="preserve">
<path d="M13.3,50.4h0.4c1.6,0,3.2,0,4.8,0c0.2,0,0.4-0.1,0.5,0.3c0.9,4.4,3.8,6.8,7.9,8c3.4,1,6.8,1,10.2,0.2c4.2-0.9,7-3.5,8.5-7.6
	c1-2.7,1.3-5.5,1.4-8.3c0-0.7,0-5.9,0-6.6l-0.1,0c-0.1,0.2-0.2,0.4-0.3,0.6c-2.8,5.4-7.7,8.4-13.2,8.6c-12.9,0.5-21.2-7.1-21.5-22
	c-0.1-3,0.2-5.9,1-8.7C15.3,6,22,0.1,32,0C39.6,0,44.6,4.8,46.5,8.8c0.1,0.1,0.2,0.3,0.3,0.2V1.3h5.5c0,35,0,41.5,0,41.5
	c0,9.8-3.3,18-12.9,20.3C30.8,65.2,19.6,63.7,15,56C14,54.3,13.5,52.4,13.3,50.4L13.3,50.4z M31.6,4.6c-6.6-0.1-13.6,5.1-14.4,16.7
	c-0.5,7.4,1.9,15.3,8.9,18.6c3.5,1.6,9.3,1.9,13.5-1.1c6-4.2,7.8-12.1,6.9-19.3C45.4,10.6,40.6,4.5,31.6,4.6L31.6,4.6z"/>
</svg>
