<?xml version="1.0" encoding="utf-8"?>
<!-- Generator: Adobe Illustrator 22.0.1, SVG Export Plug-In . SVG Version: 6.00 Build 0)  -->
<svg version="1.1" id="Layer_1" xmlns="http://www.w3.org/2000/svg" xmlns:xlink="http://www.w3.org/1999/xlink" x="0px" y="0px"
	 viewBox="0 0 64 64" style="enable-background:new 0 0 64 64;" xml:space="preserve">
<title>GooglePay_mark_800_gray</title>
<desc>Created with Sketch.</desc>
<g>
	<path d="M40.8,34.4c-0.5,0.4-0.7,0.8-0.7,1.3c0,0.5,0.2,0.9,0.6,1.2c0.4,0.3,0.9,0.5,1.4,0.5c0.8,0,1.5-0.3,2-0.9
		c0.6-0.6,0.9-1.3,0.9-2c-0.6-0.5-1.4-0.7-2.4-0.7C42,33.9,41.3,34.1,40.8,34.4z"/>
	<path d="M33.9,26.1h-3.1v5h3.1c0.7,0,1.3-0.3,1.8-0.7c1-1,0.9-2.6-0.1-3.6C35.2,26.4,34.5,26.1,33.9,26.1z"/>
	<path d="M64,16.6c0-0.2,0-0.4,0-0.6c0-0.4,0-0.8-0.1-1.2c-0.1-0.4-0.2-0.8-0.4-1.1c-0.2-0.4-0.4-0.7-0.7-1c-0.3-0.3-0.6-0.5-1-0.7
		c-0.4-0.2-0.7-0.3-1.1-0.4c-0.4-0.1-0.8-0.1-1.2-0.1c-0.2,0-0.4,0-0.6,0c-0.2,0-0.4,0-0.7,0H5.7c-0.2,0-0.4,0-0.7,0
		c-0.2,0-0.4,0-0.6,0c-0.4,0-0.8,0-1.2,0.1c-0.4,0.1-0.8,0.2-1.1,0.4c-0.4,0.2-0.7,0.4-1,0.7c-0.3,0.3-0.5,0.6-0.7,1
		c-0.2,0.4-0.3,0.7-0.4,1.1C0,15.2,0,15.6,0,16c0,0.2,0,0.4,0,0.6c0,0.2,0,0.4,0,0.7v29.5c0,0.2,0,0.4,0,0.7c0,0.2,0,0.4,0,0.6
		c0,0.4,0,0.8,0.1,1.2c0.1,0.4,0.2,0.8,0.4,1.1c0.2,0.4,0.4,0.7,0.7,1c0.3,0.3,0.6,0.5,1,0.7c0.4,0.2,0.7,0.3,1.1,0.4
		c0.4,0.1,0.8,0.1,1.2,0.1c0.2,0,0.4,0,0.6,0c0.2,0,0.4,0,0.7,0h52.5c0.2,0,0.4,0,0.7,0c0.2,0,0.4,0,0.6,0c0.4,0,0.8,0,1.2-0.1
		c0.4-0.1,0.8-0.2,1.1-0.4c0.4-0.2,0.7-0.4,1-0.7c0.3-0.3,0.5-0.6,0.7-1c0.2-0.4,0.3-0.7,0.4-1.1C64,48.8,64,48.4,64,48
		c0-0.2,0-0.4,0-0.6c0-0.2,0-0.4,0-0.7V17.3C64,17,64,16.8,64,16.6z M21,37.8c-1.3,1.3-3.2,2-5.4,2c-3.1,0-5.9-1.8-7.3-4.5v0
		c-1.2-2.3-1.2-5.1,0-7.4c1.4-2.8,4.2-4.6,7.3-4.6c2,0,4,0.7,5.5,2.1l-2.3,2.4c-0.8-0.8-2-1.3-3.1-1.2c-2.1,0-3.9,1.5-4.6,3.4l0,0
		c-0.3,1-0.3,2.1,0,3.2c0.6,2,2.4,3.4,4.6,3.4c1.1,0,2-0.3,2.8-0.8c0.9-0.6,1.4-1.5,1.6-2.5h-4.4V30h7.7c0.1,0.6,0.1,1.1,0.1,1.7
		C23.4,34.2,22.6,36.3,21,37.8z M37,31.7c-0.8,0.8-1.9,1.2-3.1,1.2h-3v5.8H29V24.4h4.8c1.2,0,2.3,0.4,3.1,1.3
		c1.7,1.6,1.8,4.2,0.2,5.9C37.1,31.6,37,31.6,37,31.7z M46.8,38.8h-1.7v-1.4H45c-0.8,1.1-1.8,1.7-3,1.7c-1.1,0-2-0.3-2.7-1
		c-0.7-0.6-1.1-1.5-1.1-2.4c0-1,0.4-1.8,1.1-2.4c0.8-0.6,1.8-0.9,3-0.9c1.1,0,2,0.2,2.7,0.6v-0.4c0-0.6-0.3-1.2-0.7-1.6
		c-0.5-0.4-1.1-0.7-1.8-0.7c-1,0-1.8,0.4-2.4,1.3l-1.6-1c0.9-1.3,2.2-1.9,3.9-1.9c1.3,0,2.4,0.4,3.2,1.1c0.8,0.7,1.2,1.7,1.2,3V38.8
		z M50.7,43.1h-1.9l2.3-5l-4-9.2h2L52,36h0l2.8-7.1h2L50.7,43.1z"/>
</g>
</svg>
