<?xml version="1.0" encoding="utf-8"?>
<!-- Generator: Adobe Illustrator 22.0.1, SVG Export Plug-In . SVG Version: 6.00 Build 0)  -->
<svg version="1.1" id="Layer_1" xmlns="http://www.w3.org/2000/svg" xmlns:xlink="http://www.w3.org/1999/xlink" x="0px" y="0px"
	 viewBox="0 0 64 64" style="enable-background:new 0 0 64 64;" xml:space="preserve">
<path d="M22.4,13.5c5.4,8.7,9.2,16.2,12,23.2c-1.2,4.8-2.7,9.5-4.5,14c-1.9-7.5-3.8-14.5-8-21.2C22.9,24.4,22.3,19.1,22.4,13.5
	L22.4,13.5z M15.6,24H2.3c-0.9,0-1.5,1.1-0.9,1.8c6,7.8,10.2,16.8,13.1,26.8h14.8c-2.3-10-5.5-19.1-11.8-27.6
	C17,24.4,16.3,24,15.6,24z M22.4,11.4C32.2,26.9,41,44.9,42.2,64h16.2C56.7,44.3,48.7,26.1,38,11.4H22.4z M58.4,1.6
	c-0.3-1-1.2-1.6-2.2-1.6H43.6c-0.8,0-1.3,0.7-1.1,1.5c1.9,6.6,3.2,13.6,3.8,20.9C53.2,34.6,57.7,47.8,59.2,61
	c2.3-8.6,3.6-19.1,3.6-29C62.9,21.5,61.1,11.3,58.4,1.6L58.4,1.6z"/>
</svg>
