<?xml version="1.0" encoding="utf-8"?>
<!-- Generator: Adobe Illustrator 22.0.1, SVG Export Plug-In . SVG Version: 6.00 Build 0)  -->
<svg version="1.1" id="Layer_1" xmlns="http://www.w3.org/2000/svg" xmlns:xlink="http://www.w3.org/1999/xlink" x="0px" y="0px"
	 viewBox="0 0 64 64" style="enable-background:new 0 0 64 64;" xml:space="preserve">
<g>
	<path d="M20.8,0H3.5C1.6,0,0,1.6,0,3.5v17.1C0,22.4,1.6,24,3.5,24h17.3c1.9,0,3.2-1.6,3.2-3.2V3.2C24,1.6,22.4,0,20.8,0z
		 M18.7,18.7H5.3V5.3h13.3V18.7z"/>
	<path d="M20.5,40H3.2C1.6,40,0,41.6,0,43.2v17.3C0,62.4,1.6,64,3.2,64h17.3c1.6,0,3.2-1.1,3.5-2.9V43.2C24,41.6,22.4,40,20.5,40z
		 M18.7,58.7H5.3V45.3h13.3V58.7z"/>
	<path d="M60.8,40H43.5c-1.9,0-3.2,1.6-3.2,3.2v17.3c0,1.9,1.6,3.2,3.2,3.2h17.3c1.6,0,2.9-1.3,3.2-2.9V42.9
		C64,41.6,62.4,40,60.8,40z M58.7,58.7H45.3V45.3h13.3V58.7z"/>
	<path d="M60.8,0H43.5C41.6,0,40,1.6,40,3.5v17.1c0,1.9,1.6,3.5,3.5,3.5h17.3c1.9,0,3.2-1.6,3.2-3.2V3.2C64,1.6,62.4,0,60.8,0z
		 M58.7,18.7H45.3V5.3h13.3V18.7z"/>
</g>
</svg>
