<?xml version="1.0" encoding="utf-8"?>
<!-- Generator: Adobe Illustrator 21.0.2, SVG Export Plug-In . SVG Version: 6.00 Build 0)  -->
<svg version="1.1" id="Layer_1" xmlns="http://www.w3.org/2000/svg" xmlns:xlink="http://www.w3.org/1999/xlink" x="0px" y="0px"
	 viewBox="0 0 64 64" style="enable-background:new 0 0 64 64;" xml:space="preserve">
<path d="M61.1,34.7c1.6,0,2.7-1.1,2.7-2.7c0-1.6-1.1-2.7-2.7-2.7h-5.3v-16h5.3c1.6,0,2.7-1.1,2.7-2.7S62.7,8,61.1,8h-5.3V2.7
	c0-1.6-1.1-2.7-2.7-2.7c-1.6,0-2.7,1.1-2.7,2.7V8h-16V2.7c0.1-1.6-1-2.7-2.6-2.7s-2.7,1.1-2.7,2.7V8h-16V2.7c0-1.6-1.1-2.7-2.7-2.7
	S8,1.1,8,2.7V8H2.7C1.1,8,0,9.1,0,10.7s1.1,2.7,2.7,2.7H8v16H2.7C1.1,29.3,0,30.4,0,32c0,1.6,1.1,2.7,2.7,2.7H8v16H2.7
	c-1.6,0-2.7,1.1-2.7,2.7C0,54.9,1.1,56,2.7,56H8v5.3c0,1.6,1.1,2.7,2.7,2.7s2.7-1.1,2.7-2.7V56h16v5.3c0,1.6,1.1,2.7,2.7,2.7
	c1.6,0,2.7-1.1,2.7-2.7V56h16v5.3c0,1.6,1.1,2.7,2.7,2.7c1.6,0,2.7-1.1,2.7-2.7V56h5.3c1.6,0,2.7-1.1,2.7-2.7c0-1.6-1.1-2.7-2.7-2.7
	h-5.5v-16h5.3V34.7z M50.5,13.3v16h-16v-16C34.6,13.3,50.5,13.3,50.5,13.3z M13.3,13.3h16v16h-16C13.3,29.3,13.3,13.3,13.3,13.3z
	 M13.3,50.7v-16h16v16H13.3z M50.5,50.7h-16v-16h16V50.7z"/>
</svg>
