<?xml version="1.0" encoding="utf-8"?>
<!-- Generator: Adobe Illustrator 23.0.0, SVG Export Plug-In . SVG Version: 6.00 Build 0)  -->
<svg version="1.1" id="Layer_1" xmlns="http://www.w3.org/2000/svg" xmlns:xlink="http://www.w3.org/1999/xlink" x="0px" y="0px"
	 viewBox="0 0 64 64" style="enable-background:new 0 0 64 64;" xml:space="preserve">
<g>
	<path d="M60,46c-1.4-4.5-5.9-7-10.3-5.9c-3.1,1.1-7.3,2.2-10.6,3.3c0-0.8-0.3-1.7-0.6-2.5c-1.1-2.8-4.2-4.2-6.7-4.2h-10
		c-0.6,0-1.4-0.3-2.2-1.1c-1.1-1.1-2.8-1.7-4.5-1.7H7.3C3.1,34.2,0,37.6,0,41.8v13.1c0,3.9,3.3,7.3,7.3,7.3H17
		c1.1,0,2.5-0.3,3.6-1.1c2.8,1.7,6.1,2.2,9.5,2.2c2,0,4.2-0.3,5.9-0.8l18.4-5.6C60.3,54.9,61.1,49.6,60,46L60,46z M7.3,56.6
		c-0.8,0-1.7-0.8-1.7-2V41.5c0-0.8,0.8-1.7,1.7-1.7h8.1c0.3,0,0.6,0,0.6,0.3c0.3,0.3,0.6,0.3,0.8,0.6v15.9H7.3z M52.7,51.8
		l-18.4,5.6c-3.6,1.1-7.8,0.8-11.4-1.1l-0.6-0.6V42.6h9.8c0.6,0,1.4,0.3,1.4,0.6c0.3,0.3-0.3,1.1-0.6,1.4c-0.8,1.4-2.2,2.2-2.2,4.2
		c0,0.8,0.6,2,1.4,2.2c1.1,0.3,2.2,0,3.3-0.3c2.5-0.6,5.3-1.4,7.8-2.2c2.8-0.8,5.3-2,8.1-2.5c1.4-0.6,3.1,0.6,3.3,2.2
		C55.2,49.6,54.4,51,52.7,51.8z"/>
	<path d="M63.9,10c-0.3-2-1.7-3.6-3.6-3.6c-2.5-0.3-7.5,0-11.2,3.3c-0.3,0.3-0.3,0.3-0.6,0.6c-0.6-2-1.1-3.9-2.8-5.3
		c-3.3-3.6-8.4-4.2-11.4-4.2c-2,0-3.9,1.7-3.9,3.9c-0.3,3.1,0,8.6,3.1,12.3c2.8,3.1,6.7,3.6,9.5,3.6c0.6,0,0.8,0,1.4,0v14
		c0,1.7,1.1,2.8,2.8,2.8s2.8-1.1,2.8-2.8v-8.4c3.1-0.3,7.5-0.8,10.3-3.9l0,0C64.2,18.6,64.2,13,63.9,10z M37.9,13
		c-1.1-1.4-1.7-3.6-1.7-6.7c1.7,0.3,4.2,0.8,5.6,2.2l0,0c1.4,1.7,1.7,4.2,1.7,5.9C41.6,14.7,39.3,14.4,37.9,13z M56.6,18.3
		c-1.4,1.4-3.9,2-6.1,2.2c0.3-2.5,1.1-5,2.8-6.4c1.4-1.7,3.6-2.2,5.3-2.2C58.6,13.9,58.3,16.7,56.6,18.3z"/>
</g>
</svg>
