<?xml version="1.0" encoding="utf-8"?>
<!-- Generator: Adobe Illustrator 23.0.0, SVG Export Plug-In . SVG Version: 6.00 Build 0)  -->
<svg version="1.1" id="Layer_2_1_" xmlns="http://www.w3.org/2000/svg" xmlns:xlink="http://www.w3.org/1999/xlink" x="0px" y="0px"
	 viewBox="0 0 64 64" style="enable-background:new 0 0 64 64;" xml:space="preserve">
<path d="M62.9,8.5l-10.7-8C51.7,0.3,51.2,0,50.7,0H5.3C2.4,0,0,2.4,0,5.3V16c0,2.9,2.4,5.3,5.3,5.3H24v13.3h-2.7
	c-1.6,0-2.7,1.1-2.7,2.7v24c0,1.6,1.1,2.7,2.7,2.7H32c1.6,0,2.7-1.1,2.7-2.7v-24c0-1.6-1.1-2.7-2.7-2.7h-2.7V21.3h21.3
	c0.5,0,1.1-0.3,1.6-0.5l10.7-8c0.8-0.5,1.1-1.3,1.1-2.1C64,9.9,63.7,9.1,62.9,8.5z M29.3,58.7H24V40h5.3V58.7z M49.9,16H5.3V5.3
	h44.5l7.2,5.3L49.9,16z"/>
</svg>
