<?xml version="1.0" encoding="utf-8"?>
<!-- Generator: Adobe Illustrator 21.0.2, SVG Export Plug-In . SVG Version: 6.00 Build 0)  -->
<svg version="1.1" id="Layer_1" xmlns="http://www.w3.org/2000/svg" xmlns:xlink="http://www.w3.org/1999/xlink" x="0px" y="0px"
	 viewBox="0 0 64 64" style="enable-background:new 0 0 64 64;" xml:space="preserve">
<style type="text/css">
	.st0{fill:#030104;}
</style>
<path class="st0" d="M55.2,8.8c-1.6,0-2.9,0.5-4,1.3V8.3c0-3.5-2.9-6.1-6.7-6.1c-1.6,0-3.2,0.5-4.5,1.6C38.9,1.6,36.5,0,33.8,0
	c-3.5,0-6.4,2.4-6.7,5.6c-1.1-0.8-2.4-1.3-4-1.3c-3.7,0-6.7,2.7-6.7,6.1v20.5L16,30.1c-2.4-3.2-6.9-4.3-10.4-2.4
	c-1.9,1.1-2.9,2.7-3.5,4.5c-0.5,1.9,0,4,1.3,5.6c0,0,8.8,11.5,12.5,16.3C21,60.8,28.5,64,39.2,64c17.1,0,22.9-10.1,22.9-18.7V14.9
	C61.8,11.7,58.9,8.8,55.2,8.8z M56.2,45.1c0,3.2-1,13.6-17.3,13.6C30.1,58.7,24,56.3,20,51C16.2,46.1,7.7,34.7,7.7,34.7
	c-0.3-0.5-0.5-0.8-0.3-1.3c0-0.3,0.3-0.8,0.8-0.8c1.1-0.5,2.9-0.3,3.7,1.1l5.3,6.4c0.8,0.8,1.9,1.1,2.9,0.8s1.9-1.3,1.9-2.4v-28
	c0-0.3,0.5-0.8,1.3-0.8s1.1,0.5,1.1,0.8v16.8c0,2.1,1.9,3.7,4,3.7s4-1.6,4-3.7V6.1c0-0.5,0.5-0.8,1.3-0.8S35,5.6,35,6.1v21.1
	c0,2.1,1.9,3.7,4,3.7s4-1.6,4-3.7V8.3c0-0.3,0.5-0.8,1.3-0.8s1.3,0.5,1.3,0.8v21.1c0,2.1,1.9,3.7,4,3.7s4-1.6,4-3.7V14.9
	c0-0.3,0.5-0.8,1.3-0.8s1.3,0.5,1.3,0.8V45.1L56.2,45.1z"/>
</svg>
