<?xml version="1.0" encoding="utf-8"?>
<!-- Generator: Adobe Illustrator 21.0.2, SVG Export Plug-In . SVG Version: 6.00 Build 0)  -->
<svg version="1.1" id="Layer_1" xmlns="http://www.w3.org/2000/svg" xmlns:xlink="http://www.w3.org/1999/xlink" x="0px" y="0px"
	 viewBox="0 0 64 64" style="enable-background:new 0 0 64 64;" xml:space="preserve">
<path d="M61.1,34.6h-2.3c-0.3,0-0.6-0.3-0.6-1.2V20.1v-1.7c0-0.9,0.6-1.2,0.6-1.2h2.3c1.7,0,2.9-1.2,2.9-2.9s-1.2-2.9-2.9-2.9h-2.3
	c-2,0-4.1,1.2-5.2,2.9H41.3l-0.9-0.9C34.6,8.5,26.1,7.9,20,12.2c-2.3,1.8-4,3.8-4.9,5h-0.6c-0.6-3.2-3.2-5.8-6.4-5.8H2.9
	c-1.7,0-2.9,1.2-2.9,2.9s1.2,2.9,2.9,2.9h5.2c0.3,0,0.6,0.3,0.6,1.2v15.1c0,0.6-0.3,1.2-0.6,1.2H2.9c-1.7,0-2.9,1.2-2.9,2.9
	s1.2,2.9,2.9,2.9h5.2c2,0,4.1-1.2,5.2-2.9h1.5c0,0.6,0.3,1.2,0.6,1.7l2.3,3.2c0.3,0.6,0.9,0.9,1.5,1.2l2.6,0.6l1.2,2.6
	c0.3,0.9,1.2,1.5,1.7,1.5l2.6,0.9l1.2,2.6c0.3,0.9,1.2,1.5,1.7,1.5l6.4,1.7c0.3,0,0.6,0,0.9,0c0.9,0,1.7-0.6,2.3-1.2l11.1-16.3h2.3
	c1.2,1.7,2.9,2.9,5.2,2.9H61c1.7,0,2.9-1.2,2.9-2.9S62.8,34.6,61.1,34.6z M15.7,23c1.5,0,3.2-0.9,4.1-2c0.6-0.9,2-2.6,3.8-4.1
	c3.8-2.9,9.3-2.3,13.1,0.9l3.5,2.9c0.3,0.3,0.6,0.9,0.6,1.2L39,23.6c-0.6,0.6-1.5,0.6-2.3,0.3l-0.3-0.3c-2.9-2.3-7-2-9.6,0.6
	l-8.1,8.4L17,31.7h-2.3V23H15.7z M50.6,32.1c-1.5,0-3.2,0.7-3.8,1.7L36.7,48.9l-3-0.9l-1.2-2.6c-0.3-0.9-1.2-1.5-1.7-1.5L28.2,43
	l-1.7-2.6c-0.3-0.9-1.2-1.5-1.7-1.5L21.9,38l-0.3-0.3l9-9.3c0.6-0.6,1.5-0.6,2,0l0.3,0.3c3.2,2.3,7.3,2,9.9-0.9l1.7-1.7
	c1.2-1.2,1.7-2.9,1.7-4.4c0-0.6,0-0.9-0.3-1.2h6.4v11.6H50.6L50.6,32.1z"/>
</svg>
