<?xml version="1.0" encoding="utf-8"?>
<!-- Generator: Adobe Illustrator 22.0.1, SVG Export Plug-In . SVG Version: 6.00 Build 0)  -->
<svg version="1.1" id="Layer_2_1_" xmlns="http://www.w3.org/2000/svg" xmlns:xlink="http://www.w3.org/1999/xlink" x="0px" y="0px"
	 viewBox="0 0 64 64" style="enable-background:new 0 0 64 64;" xml:space="preserve">
<style type="text/css">
	.st0{display:none;}
	.st1{display:inline;}
</style>
<g class="st0">
	<path class="st1" d="M17.5,50.7L30.2,36l-5.7,18.6c-0.7,2.2-2.9,3.4-5.1,2.7s-3.4-2.9-2.7-5.1C16.9,51.7,17.1,51.2,17.5,50.7z"/>
</g>
<g>
	<path d="M52.9,0H11.3C9.7,0,8.1,1.6,8.1,3.2v57.3c0,1.9,1.6,3.5,3.2,3.5h41.3c1.9,0,3.2-1.6,3.2-3.2V3.2C56.1,1.6,54.5,0,52.9,0z
		 M50.8,58.7H13.5V5.3h37.3V58.7z"/>
	<path d="M21.5,55.7c2.7,0.5,5.6-1.1,6.4-4l1.6-7.5c0.8,0.3,1.9,0.3,2.9,0.3c6.9,0,12.5-5.6,12.5-12.5s-5.6-12.5-12.5-12.5
		S19.9,25.1,19.9,32c0,3.7,1.6,6.9,4.3,9.3l-5.3,5.3c-0.5,0.8-1.1,1.6-1.3,2.7C16.7,52.3,18.5,54.9,21.5,55.7z M24.9,32
		c0-4,3.2-7.2,7.2-7.2s7.2,3.2,7.2,7.2s-3.2,7.2-7.2,7.2c-0.5,0-1.1,0-1.6-0.3l1.3-5.3l-4,4C26,36.3,24.9,34.1,24.9,32z"/>
	<path d="M42.8,53.1c0,1.6,1.3,2.7,2.7,2.7c1.3,0,2.7-1.3,2.7-2.7c0-1.6-1.3-2.7-2.7-2.7C44.1,50.4,42.8,51.7,42.8,53.1z"/>
</g>
</svg>
