<?xml version="1.0" encoding="utf-8"?>
<!-- Generator: Adobe Illustrator 22.0.1, SVG Export Plug-In . SVG Version: 6.00 Build 0)  -->
<svg version="1.1" id="Layer_2_1_" xmlns="http://www.w3.org/2000/svg" xmlns:xlink="http://www.w3.org/1999/xlink" x="0px" y="0px"
	 viewBox="0 0 64 64" style="enable-background:new 0 0 64 64;" xml:space="preserve">
<path d="M64,37.5c-0.3-7.5-3.5-14.7-9.1-20.3c-6.1-6.1-14.7-9.3-23.5-9.3C14.7,8.4,1.1,21.5,0,37.5l0,0v1.9v6.1v5.3
	c0,2.9,2.4,5.3,5.3,5.3h5.3c2.9,0,5.3-2.4,5.3-5.3v-8c0-2.9-2.4-5.3-5.3-5.3H5.3c1.1-13.3,12.3-23.7,26.1-24
	c7.5-0.3,14.4,2.7,19.7,7.7c4.5,4.5,7.2,10.1,7.5,16.3h-5.3c-2.9,0-5.3,2.4-5.3,5.3v8c0,2.9,2.4,5.3,5.3,5.3h5.3
	c2.9,0,5.3-2.4,5.3-5.3v-5.3v-6.7V37.5L64,37.5z M10.7,50.8H5.3v-5.3v-2.7h5.3V50.8z M58.7,50.8h-5.3v-8h5.3v2.7l0,0V50.8z"/>
</svg>
