<?xml version="1.0" encoding="utf-8"?>
<!-- Generator: Adobe Illustrator 22.0.1, SVG Export Plug-In . SVG Version: 6.00 Build 0)  -->
<svg version="1.1" id="Layer_1" xmlns="http://www.w3.org/2000/svg" xmlns:xlink="http://www.w3.org/1999/xlink" x="0px" y="0px"
	 viewBox="0 0 64 64" style="enable-background:new 0 0 64 64;" xml:space="preserve">
<path d="M64,32.1c-0.3-7.7-3.5-14.7-9.1-20.3c-6.1-6.1-14.7-9.3-23.5-9.3C14.7,3.1,1.1,16.1,0,32.1l0,0V34v6.1v5.3
	c0,2.1,1.3,4.3,3.5,5.1c0.3,0.3,0.5,0.3,0.8,0.5l21.3,10.4H32c1.6,0,2.7-1.1,2.7-2.7c0-1.6-1.1-2.7-2.7-2.7h-5.1l-13.6-6.7v-12
	c0-2.9-2.4-5.3-5.3-5.3H5.3c1.1-13.3,12.3-24,26.1-24c7.5-0.3,14.4,2.7,19.5,7.7c4.5,4.5,7.2,10.1,7.5,16.5h-2.7
	c-2.9,0-5.3,2.4-5.3,5.3v8c0,2.9,2.4,5.3,5.3,5.3h2.7c2.9,0,5.3-2.4,5.3-5.3v-5.3V34L64,32.1L64,32.1z M8,45.5H5.3v-5.3v-2.7H8V45.5
	z M58.7,45.5H56v-8h2.7v2.7l0,0V45.5z"/>
</svg>
