<?xml version="1.0" encoding="utf-8"?>
<!-- Generator: Adobe Illustrator 23.0.0, SVG Export Plug-In . SVG Version: 6.00 Build 0)  -->
<svg version="1.1" id="Layer_1" xmlns="http://www.w3.org/2000/svg" xmlns:xlink="http://www.w3.org/1999/xlink" x="0px" y="0px"
	 viewBox="0 0 64 64" style="enable-background:new 0 0 64 64;" xml:space="preserve">
<path d="M44,16h-0.8L40,2.1C39.7,0.8,38.7,0,37.3,0H26.7c-1.3,0-2.4,0.8-2.7,2.1L20.8,16H20c-2.9,0-5.3,2.4-5.3,5.3v21.3
	c0,2.9,2.4,5.3,5.3,5.3h0.8L24,61.9c0.3,1.3,1.3,2.1,2.7,2.1h10.7c1.3,0,2.4-0.8,2.7-2.1L43.2,48H44c2.9,0,5.3-2.4,5.3-5.3V21.3
	C49.3,18.4,46.9,16,44,16z M28.8,5.3h6.4L37.6,16H26.4L28.8,5.3z M22.9,21.3h17.9H44v9.9l-6.9-4c-0.8-0.5-1.9-0.5-2.7,0l-7.7,4.5
	l-6.7-4v-6.4H22.9z M35.2,58.7h-6.4L26.4,48h11.2L35.2,58.7z M41.1,42.7L41.1,42.7H23.2l0,0H20v-8.8l5.3,3.2c0.8,0.5,1.9,0.5,2.7,0
	l7.7-4.5l7.7,4.5c0.3,0,0.3,0.3,0.5,0.3v5.3H41.1z"/>
</svg>
