<?xml version="1.0" encoding="utf-8"?>
<!-- Generator: Adobe Illustrator 21.0.2, SVG Export Plug-In . SVG Version: 6.00 Build 0)  -->
<svg version="1.1" id="Layer_2_1_" xmlns="http://www.w3.org/2000/svg" xmlns:xlink="http://www.w3.org/1999/xlink" x="0px" y="0px"
	 viewBox="0 0 64 64" style="enable-background:new 0 0 64 64;" xml:space="preserve">
<path d="M31.8,61.1c-1.6,0-3.2-0.5-4.3-1.9l-22-23.6C-0.3,29.5-1.7,20.2,2,12.7c3.2-6.1,9-9.8,15.7-9.8c4.5,0,9.3,1.9,12.8,5.6
	l1.3,1.3l1.3-1.3c3.5-3.7,8-5.6,12.8-5.6l0,0c4.8,0,9.3,1.9,12.8,5.6C62.2,12,64,16.7,64,21.8s-1.9,9.8-5,13.3L37.2,58.4
	c-0.7,0.8-1.5,1.4-2.4,1.9C33.8,60.8,32.8,61.1,31.8,61.1L31.8,61.1z M31.6,55.5c0.3,0.3,0.3,0.3,0.3,0.3c0.3,0,0.5-0.4,0.7-0.7
	l22.1-23.8c2.4-2.7,3.7-6.1,3.7-9.6c0-3.7-1.3-7.2-3.7-9.6c-2.4-2.7-5.6-4-9-4l0,0c-3.5,0-6.6,1.3-9,4l-5,5.3l-5-5.3
	c-2.4-2.4-5.6-3.7-8.8-3.7c-5,0.1-9,2.7-11.4,7C3.9,20.7,5,27.6,9.3,32.1L31.6,55.5z"/>
</svg>
