<?xml version="1.0" encoding="utf-8"?>
<!-- Generator: Adobe Illustrator 23.0.0, SVG Export Plug-In . SVG Version: 6.00 Build 0)  -->
<svg version="1.1" id="Layer_1" xmlns="http://www.w3.org/2000/svg" xmlns:xlink="http://www.w3.org/1999/xlink" x="0px" y="0px"
	 viewBox="0 0 64 64" style="enable-background:new 0 0 64 64;" xml:space="preserve">
<path d="M61.3,21.3c-1.6,0-2.7,1.1-2.7,2.7H37.3v-0.5c0-2.7-2.1-4.8-4.8-4.8h-5.9v-5.3h16c1.6,0,2.7-1.1,2.7-2.7S44.3,8,42.7,8H5.3
	c-1.6,0-2.7,1.1-2.7,2.7s1.1,2.7,2.7,2.7h16v5.3h-2.7C8.5,18.7,0,26.9,0,37.3v3.2c0,2.7,2.1,4.8,4.8,4.8H8v5.3H6.1
	c-0.3-1.3-1.3-2.1-2.7-2.1c-1.6,0-2.7,1.1-2.7,2.7c0,2.7,2.1,4.8,5.1,4.8H32c1.6,0,2.7-1.1,2.7-2.7c0-1.6-1.1-2.7-2.7-2.7h-5.3v-5.3
	h5.9c2.7,0,4.8-2.1,4.8-4.8V40l21.3-2.4c0.3,1.3,1.3,2.4,2.7,2.4c1.6,0,2.7-1.1,2.7-2.7V24C64,22.4,62.9,21.3,61.3,21.3z M21.3,50.7
	h-8v-5.3h8V50.7z M32,40H5.3v-2.7c0-7.2,5.9-13.3,13.3-13.3H32V40z M37.3,29.3h21.3v2.9l-21.3,2.4V29.3z"/>
</svg>
