<?xml version="1.0" encoding="utf-8"?>
<!-- Generator: Adobe Illustrator 23.0.0, SVG Export Plug-In . SVG Version: 6.00 Build 0)  -->
<svg version="1.1" id="Layer_2_1_" xmlns="http://www.w3.org/2000/svg" xmlns:xlink="http://www.w3.org/1999/xlink" x="0px" y="0px"
	 viewBox="0 0 64 64" style="enable-background:new 0 0 64 64;" xml:space="preserve">
<g>
	<path d="M46.7,13.8C45.9,6.8,40.3,1.2,33.1,0.1c-6.4-0.8-12.6,2.4-15.5,8.3c-0.8,1.3-0.3,2.9,1.1,3.5c1.3,0.8,2.9,0.3,3.5-1.1
		C24,7.1,28,4.9,32.3,5.5c4.5,0.5,8.3,4.3,8.8,8.8c0.5,4.3-1.9,8.3-5.6,10.2c-4.3,2.1-6.9,6.7-6.9,11.5v14.7c0,1.6,1.1,2.7,2.7,2.7
		s2.7-1.1,2.7-2.7V35.9c0-2.9,1.6-5.6,4-6.7C43.8,26.6,47.3,20.2,46.7,13.8z"/>
	<circle cx="31.2" cy="61.3" r="2.7"/>
</g>
</svg>
