<?xml version="1.0" encoding="utf-8"?>
<!-- Generator: Adobe Illustrator 21.0.2, SVG Export Plug-In . SVG Version: 6.00 Build 0)  -->
<svg version="1.1" id="Layer_1" xmlns="http://www.w3.org/2000/svg" xmlns:xlink="http://www.w3.org/1999/xlink" x="0px" y="0px"
	 viewBox="0 0 64 64" style="enable-background:new 0 0 64 64;" xml:space="preserve">
<path d="M15.1,55l-4.5-4.8l4.5-4.5l0,0l0,0l0,0l4.5,4.8L15.1,55z M26.6,48.3l-2.4-2.4l-4.5-4.5l0,0l0,0L17.2,39L48.9,7.6h0.3
	l9.1,9.1L26.6,48.3z M26.6,54.6c0.9,0,1.8-0.3,2.4-0.9l33.2-33.2c2.4-2,2.4-6,0-8.4L53.1,3c-2.4-2.4-6.3-2.4-8.8,0L11.2,36.3
	c-1.1,1.2-1.2,3.1-0.1,4.3l-4.7,4.7c-1.2,1.2-1.8,2.7-1.8,4.5c0,0.6,0,0.9,0.3,1.5l-4.5,4.5c-0.6,0.6-0.3,1.2,0.3,1.5l9.7,5.1
	c0.6,0.3,1.2,0.3,1.5-0.3L14,60c0.6,0,0.9,0.3,1.5,0.3c1.5,0,3.3-0.6,4.5-1.8l4.7-4.7C25.3,54.3,26,54.6,26.6,54.6z"/>
</svg>
