<?xml version="1.0" encoding="utf-8"?>
<!-- Generator: Adobe Illustrator 23.0.0, SVG Export Plug-In . SVG Version: 6.00 Build 0)  -->
<svg version="1.1" id="Layer_1" xmlns="http://www.w3.org/2000/svg" xmlns:xlink="http://www.w3.org/1999/xlink" x="0px" y="0px"
	 viewBox="0 0 64 64" style="enable-background:new 0 0 64 64;" xml:space="preserve">
<path d="M37.3,0H26.7c-2.9,0-5.3,2.4-5.3,5.3v39.9c0,1.6,1.1,2.7,2.7,2.9l0,0v5.3c0,1.9,1.1,3.7,2.7,4.5v5.1c0,0.5,0.5,1.1,1.1,0.8
	l8.8-2.7c0.5-0.3,0.8-0.5,0.8-1.1v-2.4c1.6-1.1,2.7-2.7,2.7-4.5v-5.3l0,0c1.6-0.3,2.7-1.3,2.7-2.9V5.3C42.7,2.4,40.3,0,37.3,0z
	 M26.7,5.3h10.7v37.4h-2.7h-5.3h-2.7V5.3z M34.7,53.5h-5.3v-5.3l0,0h5.3V53.5z"/>
</svg>
