<?xml version="1.0" encoding="utf-8"?>
<!-- Generator: Adobe Illustrator 23.0.0, SVG Export Plug-In . SVG Version: 6.00 Build 0)  -->
<svg version="1.1" id="Layer_1" xmlns="http://www.w3.org/2000/svg" xmlns:xlink="http://www.w3.org/1999/xlink" x="0px" y="0px"
	 viewBox="0 0 64 64" style="enable-background:new 0 0 64 64;" xml:space="preserve">
<path d="M43.3,32L50,14.4c1.3-3.2,0.8-6.7-1.1-9.6C46.8,1.9,43.3,0,39.6,0H24.4c-3.7,0-7.2,1.9-9.3,4.8c-1.9,2.9-2.1,6.4-1.1,9.6
	L20.7,32L14,49.6c-1.3,3.2-0.8,6.7,1.1,9.6c2.1,2.9,5.6,4.8,9.3,4.8h15.2c3.7,0,7.2-1.9,9.3-4.8c1.9-2.9,2.4-6.4,1.1-9.6L43.3,32z
	 M44.4,56.3c-1.1,1.6-2.9,2.4-4.8,2.4H24.4c-1.9,0-3.7-0.8-4.8-2.4c-1.1-1.3-1.1-3.2-0.5-4.5l7.2-18.7v-0.3c0-0.3,0-0.3,0-0.5
	c0-0.3,0-0.3,0-0.5v-0.3l-7.2-18.7c-0.5-1.9-0.5-3.7,0.5-5.1c1.1-1.6,2.9-2.4,4.8-2.4h15.2c1.9,0,3.7,0.8,4.8,2.4
	c1.1,1.3,1.1,3.2,0.5,4.5l-7.2,18.7v0.3c0,0.3,0,0.3,0,0.5c0,0.3,0,0.3,0,0.5v0.3l7.2,18.7C45.7,53.1,45.5,54.9,44.4,56.3z"/>
</svg>
