<?xml version="1.0" encoding="utf-8"?>
<!-- Generator: Adobe Illustrator 22.0.1, SVG Export Plug-In . SVG Version: 6.00 Build 0)  -->
<svg version="1.1" id="Layer_1" xmlns="http://www.w3.org/2000/svg" xmlns:xlink="http://www.w3.org/1999/xlink" x="0px" y="0px"
	 viewBox="0 0 64 64" style="enable-background:new 0 0 64 64;" xml:space="preserve">
<g>
	<path d="M63.2,5.1c-0.6-0.7-1.6-1.1-2.6-1.2c-6.8,0-45.5,0-57.2,0c-1,0-1.9,0.4-2.6,1.1C0.2,5.8-0.1,6.7,0,7.6l5.1,44.8
		c0.1,1.3,1.1,2.5,2.5,2.8l22.7,4.8c0.5,0.1,1,0.1,1.5,0.1c0.5,0,1,0,1.5-0.1l22.7-4.8c1.2-0.3,2.4-1.3,2.5-2.7L64,7.6
		C64.1,6.7,63.8,5.8,63.2,5.1z M53.8,50.5L32.4,55c-0.3,0.1-0.8,0.1-1,0L10,50.5L5.2,8.9c10.5,0,43.7,0,53.6,0L53.8,50.5z"/>
	<path d="M13.2,14.5l-0.1,0.1c-1,1.1-1.3,2.4-1.1,3.7l1.6,7.6c0.5,2.3,2.6,3.9,5.1,3.9h24.7c0,0,0.1,0,0.1,0l-2.1,8.9c0,0,0,0-0.1,0
		l-9.8,3.1c-0.1,0-0.2,0-0.3,0l-9.8-3.1c0,0,0,0-0.1,0l-0.9-4.6c-0.3-1.4-1.6-2.2-3-1.9c-1.4,0.3-2.2,1.6-1.9,3l1,4.7
		c0.4,1.7,1.7,3.1,3.4,3.7l9.8,3.1c0.5,0.2,1.1,0.3,1.7,0.3s1.1-0.1,1.7-0.3l9.8-3.1c1.7-0.5,3-1.9,3.4-3.5l2.2-9.4
		c0.3-1.4,0-2.8-0.9-3.9c-1-1.2-2.5-2-4.2-2H18.7c-0.1,0-0.2,0-0.2,0l-1.3-6.6h31c1.4,0,2.5-1.1,2.5-2.5s-1.1-2.5-2.5-2.5H16.6
		C15.3,13.2,14.1,13.7,13.2,14.5z"/>
</g>
</svg>
