<?xml version="1.0" encoding="utf-8"?>
<!-- Generator: Adobe Illustrator 23.0.0, SVG Export Plug-In . SVG Version: 6.00 Build 0)  -->
<svg version="1.1" id="Layer_1" xmlns="http://www.w3.org/2000/svg" xmlns:xlink="http://www.w3.org/1999/xlink" x="0px" y="0px"
	 viewBox="0 0 64 64" style="enable-background:new 0 0 64 64;" xml:space="preserve">
<g>
	<path d="M56.7,0H7.6C5.7,0,4.1,1.6,4.1,3.5v56.8c0,2.1,1.6,3.7,3.5,3.7h48.8c1.9,0,3.5-1.6,3.5-3.5V3.5C60.1,1.6,58.5,0,56.7,0z
		 M54.8,5.3v29.1c-0.8,0.5-1.3,0.8-1.9,1.3c-1.6,1.1-2.9,2.4-4.3,3.5c-4.3,3.7-7.2,6.1-11.2,4.5c-0.8-0.3-1.6-1.1-2.7-1.9l-0.3-0.3
		c-2.4-1.9-5.3-4.3-8.5-5.3c-5.9-1.9-10.9,1.3-15.5,4.3c-0.3,0-0.5,0.3-0.5,0.3V5.3H54.8z M9.5,58.7V47.5c1.1-0.5,2.4-1.3,3.5-2.1
		c4-2.4,7.5-4.8,11.2-3.7c2.4,0.8,4.5,2.4,6.7,4.3l0.3,0.3c1.1,1.1,2.4,2.1,4.3,2.7c1.6,0.5,2.9,0.8,4.3,0.8c5.1,0,9.1-3.5,12.3-6.4
		c1.1-0.8,1.9-1.6,2.7-2.4v17.9H9.5z"/>
	<path d="M40.1,32c5.1,0,9.3-4.3,9.3-9.3s-4.3-9.3-9.3-9.3s-9.3,4.3-9.3,9.3S35.1,32,40.1,32z M40.1,18.7c2.1,0,4,1.9,4,4
		s-1.9,4-4,4s-4-1.9-4-4S38,18.7,40.1,18.7z"/>
</g>
</svg>
