<?xml version="1.0" encoding="utf-8"?>
<!-- Generator: Adobe Illustrator 23.0.0, SVG Export Plug-In . SVG Version: 6.00 Build 0)  -->
<svg version="1.1" id="Layer_1" xmlns="http://www.w3.org/2000/svg" xmlns:xlink="http://www.w3.org/1999/xlink" x="0px" y="0px"
	 viewBox="0 0 64 64" style="enable-background:new 0 0 64 64;" xml:space="preserve">
<g>
	<path d="M61.4,29.3c-1.6,0-2.7,1.1-2.7,2.7v19.7c0,4-2.9,6.9-6.4,6.9H11.8c-3.5,0-6.4-3.2-6.4-6.9V32c0-1.6-1.1-2.7-2.7-2.7
		S0.1,30.4,0.1,32v19.7C0.1,58.4,5.4,64,11.8,64h40.3c6.7,0,11.7-5.6,11.7-12.3V32C64.1,30.4,63,29.3,61.4,29.3z"/>
	<path d="M30.2,44.5c0.5,0.5,1.3,0.8,1.9,0.8c0.8,0,1.3-0.3,1.9-0.8l10.7-10.7c1.1-1.1,1.1-2.7,0-3.7s-2.7-1.1-3.7,0l-6.1,6.1V2.7
		c0-1.6-1.1-2.7-2.7-2.7s-2.7,1.1-2.7,2.7v33.6l-6.1-6.1c-1.1-1.1-2.7-1.1-3.7,0s-1.1,2.7,0,3.7L30.2,44.5z"/>
</g>
</svg>
