<?xml version="1.0" encoding="utf-8"?>
<!-- Generator: Adobe Illustrator 23.0.0, SVG Export Plug-In . SVG Version: 6.00 Build 0)  -->
<svg version="1.1" id="Layer_1" xmlns="http://www.w3.org/2000/svg" xmlns:xlink="http://www.w3.org/1999/xlink" x="0px" y="0px"
	 viewBox="0 0 64 64" style="enable-background:new 0 0 64 64;" xml:space="preserve">
<g>
	<path d="M5.3,5.3h53.3c1.6,0,2.7-1.1,2.7-2.7S60.3,0,58.7,0H5.3C3.7,0,2.7,1.1,2.7,2.7S3.7,5.3,5.3,5.3z"/>
	<path d="M58.7,58.7H5.3c-1.6,0-2.7,1.1-2.7,2.7c0,1.6,1.1,2.7,2.7,2.7h53.3c1.6,0,2.7-1.1,2.7-2.7C61.3,59.7,60.3,58.7,58.7,58.7z"
		/>
	<path d="M18.1,19.5L6.7,29.1c-0.8,0.8-1.3,1.9-1.3,2.9s0.5,2.1,1.3,2.7l11.5,9.9l0,0c0.5,0.5,1.3,0.8,2.1,0.8c0.5,0,1.1,0,1.3-0.3
		c1.3-0.5,2.1-1.6,2.1-2.9v-20c0-1.3-0.8-2.7-2.1-3.2C20.8,18.4,19.2,18.7,18.1,19.5z M18.7,37.9L11.5,32l7.2-5.9V37.9z"/>
	<path d="M58.7,16H32c-1.6,0-2.7,1.1-2.7,2.7c0,1.6,1.1,2.7,2.7,2.7h26.7c1.6,0,2.7-1.1,2.7-2.7C61.3,17.1,60.3,16,58.7,16z"/>
	<path d="M58.7,29.3H32c-1.6,0-2.7,1.1-2.7,2.7c0,1.6,1.1,2.7,2.7,2.7h26.7c1.6,0,2.7-1.1,2.7-2.7C61.3,30.4,60.3,29.3,58.7,29.3z"
		/>
	<path d="M58.7,42.7H32c-1.6,0-2.7,1.1-2.7,2.7c0,1.6,1.1,2.7,2.7,2.7h26.7c1.6,0,2.7-1.1,2.7-2.7C61.3,43.7,60.3,42.7,58.7,42.7z"
		/>
</g>
</svg>
