<?xml version="1.0" encoding="utf-8"?>
<!-- Generator: Adobe Illustrator 21.0.2, SVG Export Plug-In . SVG Version: 6.00 Build 0)  -->
<svg version="1.1" id="Layer_1" xmlns="http://www.w3.org/2000/svg" xmlns:xlink="http://www.w3.org/1999/xlink" x="0px" y="0px"
	 viewBox="0 0 64 64" style="enable-background:new 0 0 64 64;" xml:space="preserve">
<g>
	<path d="M49.3,46.7c-2.4,0-4.5-0.6-6.7-1.6c-0.5-0.2-0.8-0.3-1.1-0.5c-1.6-0.8-3.5-1.6-5.9-4L32,37.1l-0.8,0.8
		c-2.9,2.9-8,6.1-9.9,7.2c-2.1,1.1-4.5,1.6-6.7,1.6C6.7,46.7,0,40,0,32s6.7-14.7,14.7-14.7c5.1,0,8,2.9,10.7,5.6l6.7,6.7l4-4
		c3.2-3.2,8-8.3,13.3-8.3C57.3,17.3,64,24,64,32S57.3,46.7,49.3,46.7z M35.7,33.3c0,0,3.5,4,7.8,6.5c1.7,0.9,4.3,1.8,5.9,1.8
		c5.1,0,9.3-4.3,9.3-9.3s-4.3-9.6-9.3-9.6c-2.6,0-6.2,3.5-8.6,5.9c-0.5,0.5-1,1-1.6,1.6L35.7,33.3z M14.7,22.7
		c-5.1,0-9.3,4.3-9.3,9.3s4.3,9.3,9.3,9.3c1.6,0,2.9-0.3,4.3-1.1c1.6-0.8,6.1-3.7,8.5-6.1l0.8-0.8l-6.9-6.7
		C18.9,24,17.6,22.7,14.7,22.7z"/>
</g>
</svg>
