<?xml version="1.0" encoding="utf-8"?>
<!-- Generator: Adobe Illustrator 22.0.1, SVG Export Plug-In . SVG Version: 6.00 Build 0)  -->
<svg version="1.1" id="Layer_1" xmlns="http://www.w3.org/2000/svg" xmlns:xlink="http://www.w3.org/1999/xlink" x="0px" y="0px"
	 viewBox="0 0 64 64" style="enable-background:new 0 0 64 64;" xml:space="preserve">
<g>
	<path d="M49.4,11.3c-0.6,0-1.1,0.2-1.5,0.6c-0.5,0.3-0.6,1-0.6,1.5c0,0.6,0.2,1.1,0.6,1.5c0.8,0.8,2.4,0.8,3.2,0
		c0.5-0.3,0.6-1,0.6-1.6c0-0.5-0.3-1.1-0.6-1.5C50.7,11.5,50,11.3,49.4,11.3z"/>
	<path d="M32.1,20.1c-6.7,0-11.9,5.4-11.9,11.9s5.3,11.9,11.9,11.9C38.6,43.9,44,38.5,44,32C44,25.4,38.6,20.1,32.1,20.1z"/>
	<path d="M45.1,0H18.9C8.4,0,0,8.4,0,18.9v26.1C0,55.6,8.4,64,18.9,64h26.1C55.6,64,64,55.6,64,45.1V18.9C64,8.4,55.6,0,45.1,0z
		 M32.1,47.7c-8.7,0-15.7-7.1-15.7-15.7s7-15.7,15.7-15.7c8.6,0,15.6,7.1,15.6,15.7S40.7,47.7,32.1,47.7z M55.6,13.5
		c-0.1,1.6-0.7,3.1-1.8,4.2c-1.1,1.1-2.6,1.8-4.3,1.8c-1.6,0-3.1-0.6-4.3-1.8c-1.1-1.1-1.8-2.6-1.8-4.3s0.6-3.1,1.8-4.3
		c1.1-1.1,2.6-1.8,4.3-1.8c1.6,0,3.2,0.6,4.3,1.8C54.8,10.4,55.6,11.9,55.6,13.5C55.6,13.5,55.6,13.5,55.6,13.5z"/>
</g>
</svg>
