<?xml version="1.0" encoding="utf-8"?>
<!-- Generator: Adobe Illustrator 23.0.0, SVG Export Plug-In . SVG Version: 6.00 Build 0)  -->
<svg version="1.1" id="Layer_1" xmlns="http://www.w3.org/2000/svg" xmlns:xlink="http://www.w3.org/1999/xlink" x="0px" y="0px"
	 viewBox="0 0 64 64" style="enable-background:new 0 0 64 64;" xml:space="preserve">
<g>
	<path d="M44.5,19.3c-3.7-3.5-8.5-5.1-13.6-4.8c-9.3,0.5-16.8,8.3-16.8,17.6c0,5.9,2.7,11.2,7.2,14.7v7.5c0,4,3.2,7.2,7.5,7.2h6.7
		c4,0,7.5-3.2,7.5-7.2v-7.5c4.5-3.5,7.5-8.5,7.5-14.4C50.1,27.3,48,22.5,44.5,19.3L44.5,19.3z M37.3,54c0,1.1-0.8,1.9-2.1,1.9h-6.7
		c-1.1,0-2.1-0.8-2.1-1.9v-6.1h10.7L37.3,54L37.3,54z M38.9,42.5h-4.3v-2.7c0-1.6-1.1-2.7-2.7-2.7c-1.6,0-2.7,1.1-2.7,2.7v2.7h-4.3
		c-3.5-2.4-5.6-6.1-5.6-10.7c0-6.4,5.3-12,11.7-12.3c0.3,0,0.5,0,0.8,0c3.5,0,6.4,1.1,8.8,3.5s4,5.6,4,9.1
		C44.8,36.4,42.7,40.1,38.9,42.5z"/>
	<path d="M32,13.2c1.6,0,2.7-1.1,2.7-2.7V5.2c0-1.6-1.1-2.7-2.7-2.7c-1.6,0-2.7,1.1-2.7,2.7v5.3C29.3,12.1,30.4,13.2,32,13.2z"/>
	<path d="M56.5,11.1c-1.1-1.1-2.7-1.1-3.7,0l-3.7,3.7c-1.1,1.1-1.1,2.7,0,3.7c0.5,0.5,1.3,0.8,1.9,0.8c0.8,0,1.3-0.3,1.9-0.8
		l3.7-3.7C57.6,13.7,57.6,12.1,56.5,11.1z"/>
	<path d="M14.9,14.5l-3.7-3.5c-1.1-1.1-2.7-1.1-3.7,0s-1.1,2.7,0,3.7l3.7,3.7c0.5,0.5,1.3,0.8,1.9,0.8s1.3-0.3,1.9-0.8
		C16,17.5,16,15.6,14.9,14.5z"/>
	<path d="M8,31.9H2.7c-1.6,0-2.7,1.1-2.7,2.7s1.1,2.7,2.7,2.7H8c1.6,0,2.7-1.1,2.7-2.7S9.6,31.9,8,31.9z"/>
	<path d="M61.3,31.9H56c-1.6,0-2.7,1.1-2.7,2.7s1.1,2.7,2.7,2.7h5.3c1.6,0,2.7-1.1,2.7-2.7S62.9,31.9,61.3,31.9z"/>
</g>
</svg>
