<?xml version="1.0" encoding="utf-8"?>
<!-- Generator: Adobe Illustrator 23.0.0, SVG Export Plug-In . SVG Version: 6.00 Build 0)  -->
<svg version="1.1" id="Layer_1" xmlns="http://www.w3.org/2000/svg" xmlns:xlink="http://www.w3.org/1999/xlink" x="0px" y="0px"
	 viewBox="0 0 64 64" style="enable-background:new 0 0 64 64;" xml:space="preserve">
<g>
	<path d="M63.3,39.4l-4.8-5.1c-0.8-0.8-2.1-1.1-2.9-0.5l-5.4,2.4c-1.3,0.5-1.9,2.1-1.3,3.5c0.5,1.3,2.1,1.9,3.5,1.3l1.1-0.5
		C49.9,49.8,41.5,56,31.9,56c-9.9,0-18.8-6.7-21.7-16.6c-0.5-1.3-1.9-2.1-3.5-1.9C5.4,38,4.6,39.4,4.8,41
		C8.6,53,19.6,61.3,31.6,61.3s22.5-7.8,26.5-19.3l0.8,0.8c0.5,0.5,1.3,0.8,1.9,0.8c0.5,0,1.3-0.3,1.9-0.8
		C64.3,42.1,64.3,40.4,63.3,39.4z"/>
	<path d="M7.2,31.6c0.5,0,0.8,0,1.3-0.3l5.6-3.2c1.3-0.8,1.9-2.4,1.1-3.8c-0.8-1.3-2.4-1.9-3.8-1.1l-1.1,0.8
		c3.2-9.4,11.8-15.8,21.4-15.8c10.5,0,19.8,7.5,22.2,18.2c0.3,1.3,1.9,2.4,3.2,1.9c1.3-0.3,2.4-1.9,1.9-3.2C56.6,12,45,2.7,32.2,2.7
		C19.8,2.7,9.1,11,5.4,23l-0.8-0.8c-1.1-1.1-2.7-1.1-3.8,0c-1.1,1.1-1.1,2.7,0,3.8l4.8,5.1C5.6,31.3,6.4,31.6,7.2,31.6z"/>
	<path d="M43.7,39.1c1.1-5.1-2.9-9.6-8-9.6h-7.2c-1.6,0-2.7-1.1-2.7-2.7s1.3-2.7,2.7-2.7h11.5c1.6,0,2.7-1.1,2.7-2.7
		s-1.1-2.7-2.7-2.7h-5.4v-2.7c0-1.3-1.1-2.7-2.7-2.7s-2.7,1.1-2.7,2.7v2.7h-0.5c-4,0-7.8,2.7-8.3,6.4c-1.1,5.1,2.9,9.6,8,9.6h7.2
		c1.6,0,2.7,1.1,2.7,2.7s-1.3,2.7-2.7,2.7H23.9c-1.6,0-2.7,1.1-2.7,2.7s1.1,2.7,2.7,2.7h5.4l0,0v2.7c0,1.3,1.1,2.7,2.7,2.7
		s2.7-1.1,2.7-2.7v-2.7l0,0h0.8C39.4,45.5,43.2,42.9,43.7,39.1z"/>
</g>
</svg>
