<?xml version="1.0" encoding="utf-8"?>
<!-- Generator: Adobe Illustrator 21.0.2, SVG Export Plug-In . SVG Version: 6.00 Build 0)  -->
<svg version="1.1" id="Layer_1" xmlns="http://www.w3.org/2000/svg" xmlns:xlink="http://www.w3.org/1999/xlink" x="0px" y="0px"
	 viewBox="0 0 64 64" style="enable-background:new 0 0 64 64;" xml:space="preserve">
<g>
	<path d="M12.3,37.2H3.9c-2.1,0-3.7,1.9-3.7,4v18.6c0,2.1,1.6,4,3.7,4h8.5c2.1,0,3.7-1.9,3.7-4V41.2C16.1,39,14.5,37.2,12.3,37.2z
		 M10.8,58.4H5.4V42.5h5.3L10.8,58.4L10.8,58.4z"/>
	<path d="M36.2,31.9h-8.5c-2.1,0-3.7,1.9-3.7,4V60c0,2.1,1.6,4,3.7,4h8.5c2.1,0,3.7-1.9,3.7-4V35.9C40,33.7,38.4,31.9,36.2,31.9z
		 M34.7,58.4h-5.3V37.2h5.3V58.4z"/>
	<path d="M60.1,39.8h-8.5c-2.1,0-3.7,1.9-3.7,4v15.9c0,2.1,1.6,4,3.7,4h8.5c2.1,0,3.7-1.9,3.7-4V43.8C63.9,41.7,62.3,39.8,60.1,39.8
		z M58.6,58.4h-5.3V45.1h5.3V58.4z"/>
	<path d="M32,21.2c-1.3,0-2.4-0.5-3.2-1.3c-0.8-1.1-2.7-1.3-3.7-0.5c-1.1,0.8-1.3,2.7-0.5,3.7c1.1,1.6,2.9,2.7,4.8,3.2v0.3
		c0,1.4,1.1,2.7,2.6,2.7c1.7,0.1,2.8-1.1,2.8-2.7V26c1.9-0.8,3.5-2.1,4.2-3.7c1.1-2.7,0.3-5.8-2.4-8c-1.1-0.8-4-2.6-4.5-2.9
		c-0.2-0.2-0.4-0.3-0.6-0.4c-0.9-0.8-1-2.4,0-2.9c1.1-0.5,3.3,0.6,3.9,1.4c0.5,0.8,2.4,1.6,3.7,0.8C40.5,9.6,40.8,8,40,6.6
		c-1.1-1.6-3-2.9-4.8-3.4V2.7c0-1.4-1.1-2.7-2.6-2.7c-1.7-0.1-2.8,1.1-2.8,2.7v0.5c-1.6,0.5-2.9,1.6-3.7,2.7
		C25,7.2,24.8,9.1,25,10.7c0.5,1.9,1.9,3.7,4.2,5.3c0.5,0.3,3.5,2.2,4.3,2.7C35.6,20.3,32.8,21.2,32,21.2z"/>
</g>
</svg>
