<?xml version="1.0" encoding="utf-8"?>
<!-- Generator: Adobe Illustrator 23.0.0, SVG Export Plug-In . SVG Version: 6.00 Build 0)  -->
<svg version="1.1" id="Layer_1" xmlns="http://www.w3.org/2000/svg" xmlns:xlink="http://www.w3.org/1999/xlink" x="0px" y="0px"
	 viewBox="0 0 64 64" style="enable-background:new 0 0 64 64;" xml:space="preserve">
<g>
	<path d="M53.3,22.7C59.2,22.7,64,17.9,64,12S59.2,1.3,53.3,1.3S42.7,6.1,42.7,12S47.5,22.7,53.3,22.7z M53.3,6.7
		c2.9,0,5.3,2.4,5.3,5.3s-2.4,5.3-5.3,5.3S48,14.9,48,12S50.4,6.7,53.3,6.7z"/>
	<path d="M61.3,57.3c-0.5,0-0.8-0.3-1.6-1.1c-1.1-1.1-2.7-2.9-5.6-2.9s-4.5,1.9-5.6,2.9c-0.8,1.1-1.1,1.1-1.6,1.1s-0.8-0.3-1.6-1.1
		c-1.1-1.1-2.7-2.9-5.6-2.9s-4.5,1.9-5.6,2.9c-1.3,0.8-1.6,1.1-2.1,1.1s-0.8-0.3-1.6-1.1c-1.1-1.1-2.7-2.9-5.6-2.9s-4.5,1.9-5.6,2.9
		c-0.3,0.3-0.3,0.3-0.5,0.5c0-0.3,0-0.5-0.3-0.5c0,0-3.7-7.5-2.4-14.1c0.3-1.3,0.8-2.9,1.3-4.5s1.1-3.5,1.6-5.1
		c0-0.3,0.3-0.3,0.3-0.5c1.9,1.1,4,3.5,4.5,5.9c0.3,1.1,1.3,1.9,2.7,1.9c0.3,0,0.5,0,0.8,0c1.3-0.3,2.1-1.9,1.9-3.2
		c-0.8-3.5-4-7.2-7.2-9.1c2.7-2.7,7.5-4,12.3-3.2c1.3,0.3,2.9-0.8,3.2-2.1c0.3-1.3-0.8-2.9-2.1-3.2c-6.4-1.1-12.5,0.5-16.5,4
		c-0.8-2.4-1.6-4.5-2.9-6.1c-1.9-2.9-3.7-4.5-5.9-4.8c-1.6-0.3-2.9,0.8-3.2,2.1c-0.3,1.6,0.8,2.9,2.1,3.2c0.3,0,1.3,0.5,2.4,2.4
		c0.8,1.1,1.3,2.4,1.9,3.7c-3.7-1.3-8.3-1.1-12,1.1c-1.1,0.8-1.3,2.4-0.5,3.7c0.8,1.3,2.4,1.6,3.7,0.8c3.2-1.9,7.2-1.6,9.9,1.1v0.3
		c0,0,0,0,0,0.3c-0.3,1.6-1.1,3.2-1.6,5.1c-0.8,1.9-1.3,3.7-1.6,5.6c-0.8,4.5,0,9.1,1.1,12.5c-0.5,0-1.1-0.3-1.6-0.3
		c-2.9,0-4.5,1.9-5.6,2.9c-1.3,0.5-1.6,0.8-2.1,0.8C1.1,57.3,0,58.4,0,60s1.1,2.7,2.7,2.7c2.9,0,4.5-1.9,5.6-2.9
		c0.8-1.1,1.1-1.1,1.6-1.1s0.8,0.3,1.6,1.1c1.1,1.1,2.7,2.9,5.6,2.9s4.5-1.9,5.6-2.9c0.8-1.1,1.1-1.1,1.6-1.1c0.5,0,0.8,0.3,1.6,1.1
		c1.1,1.1,2.7,2.9,5.6,2.9s4.5-1.9,5.6-2.9c0.8-1.1,1.1-1.1,1.6-1.1s0.8,0.3,1.6,1.1c1.1,1.1,2.7,2.9,5.6,2.9s4.5-1.9,5.6-2.9
		c0.8-1.1,1.1-1.1,1.6-1.1c0.5,0,0.8,0.3,1.6,1.1c1.1,1.1,2.7,2.9,5.6,2.9c1.6,0,2.7-1.1,2.7-2.7S62.9,57.3,61.3,57.3z"/>
</g>
</svg>
