<?xml version="1.0" encoding="utf-8"?>
<!-- Generator: Adobe Illustrator 22.0.1, SVG Export Plug-In . SVG Version: 6.00 Build 0)  -->
<svg version="1.1" id="Layer_1" xmlns="http://www.w3.org/2000/svg" xmlns:xlink="http://www.w3.org/1999/xlink" x="0px" y="0px"
	 viewBox="0 0 64 64" style="enable-background:new 0 0 64 64;" xml:space="preserve">
<path d="M42.8,39.1c1.2-0.8,2.9-1.6,2.9-1.6s-4.8,0.9-9.6,1.3c-5.9,0.5-12.2,0.6-15.4,0.2c-7.5-1,4.1-3.8,4.1-3.8s-4.5-0.3-10.1,2.4
	C8.1,40.8,30.9,42.2,42.8,39.1z M32.1,35.1c-2.4-5.3-10.4-10,0-18.2C45,6.6,38.4,0,38.4,0c2.7,10.6-9.4,13.8-13.8,20.3
	C21.6,24.8,26,29.6,32.1,35.1z M46.4,13.1c0,0-21.9,5.5-11.4,17.5c3.1,3.5-0.8,6.7-0.8,6.7s7.8-4,4.2-9.1
	C35,23.5,32.5,21.2,46.4,13.1z M45.6,46.9c-0.1,0.1-0.2,0.2-0.2,0.3c16-4.2,10.1-14.9,2.5-12.2c-0.4,0.2-0.8,0.4-1,0.8
	c0.4-0.2,0.9-0.3,1.4-0.4C52.1,34.6,57.7,40.6,45.6,46.9L45.6,46.9z M51.5,54.7c0,0,1.8,1.5-2,2.6c-7.2,2.2-30.1,2.8-36.4,0.1
	c-2.3-1,2-2.4,3.3-2.7c1.4-0.3,2.2-0.2,2.2-0.2c-2.5-1.8-16.4,3.5-7,5C37.1,63.7,58.2,57.7,51.5,54.7z M23.6,49.5
	c-9.8,2.7,6,8.4,18.5,3.1c-1.2-0.5-2.4-1.1-3.5-1.7c-5.6,1.1-8.2,1.1-13.2,0.6C21.1,50.9,23.6,49.5,23.6,49.5z M46.1,61.6
	c-9.8,1.8-22,1.6-29.2,0.4c0,0,1.5,1.2,9,1.7c11.5,0.7,29.2-0.4,29.6-5.9C55.6,57.9,54.8,60,46.1,61.6L46.1,61.6z M40.6,44.1
	c-7.4,1.4-11.7,1.4-17.1,0.8c-4.2-0.4-1.4-2.5-1.4-2.5c-10.8,3.6,6,7.7,21.2,3.2C42.3,45.4,41.4,44.8,40.6,44.1z"/>
</svg>
