<?xml version="1.0" encoding="utf-8"?>
<!-- Generator: Adobe Illustrator 22.0.1, SVG Export Plug-In . SVG Version: 6.00 Build 0)  -->
<svg version="1.1" id="Layer_1" xmlns="http://www.w3.org/2000/svg" xmlns:xlink="http://www.w3.org/1999/xlink" x="0px" y="0px"
	 viewBox="0 0 64 64" style="enable-background:new 0 0 64 64;" xml:space="preserve">
<path d="M0,0v64h64V0H0z M34.8,49.9c0,6.2-3.7,9.1-9,9.1c-4.8,0-7.6-2.5-9-5.5l4.9-3c0.9,1.7,1.8,3.1,3.9,3.1c2,0,3.2-0.8,3.2-3.8
	V29.4h6L34.8,49.9L34.8,49.9z M49.1,59c-5.6,0-9.2-2.7-11-6.1L43,50c1.3,2.1,3,3.7,5.9,3.7c2.5,0,4.1-1.2,4.1-3c0-2.1-1.6-2.8-4.4-4
	l-1.5-0.6c-4.3-1.8-7.2-4.2-7.2-9.1c0-4.5,3.4-7.9,8.8-7.9c3.8,0,6.6,1.3,8.5,4.8l-4.7,3c-1-1.8-2.1-2.6-3.9-2.6
	c-1.8,0-2.9,1.1-2.9,2.6c0,1.8,1.1,2.5,3.7,3.7l1.5,0.6c5.1,2.2,8,4.4,8,9.5C59,56,54.8,59,49.1,59L49.1,59z"/>
</svg>
