<?xml version="1.0" encoding="utf-8"?>
<!-- Generator: Adobe Illustrator 22.0.1, SVG Export Plug-In . SVG Version: 6.00 Build 0)  -->
<svg version="1.1" id="Layer_1" xmlns="http://www.w3.org/2000/svg" xmlns:xlink="http://www.w3.org/1999/xlink" x="0px" y="0px"
	 viewBox="0 0 64 64" style="enable-background:new 0 0 64 64;" xml:space="preserve">
<path d="M9.9,7.4C4.5,7.4,0,11.8,0,17.3v39.4h54.1c5.5,0,9.9-4.5,9.9-9.9V7.4H9.9z M21.1,46.2c0,4-3.2,7.1-7.1,7.1H3.5v-15
	c0,0,3.2,0.9,7.3,0.9c6.8,0,8.8-2.6,8.8-5.8v-8.3h-6.1v8.3c0,2-1.3,3.5-3.8,3.5c-2.1,0-4.1-0.6-6.1-1.6V17.8c0-4,3.2-7.1,7.1-7.1
	h10.4V46.2z M40.8,46.3c0,4-3.2,7.1-7.1,7.1H23.2V37c1.8,1.5,4.9,2.5,10,2.3c2.7-0.1,5.6-0.9,5.6-0.9v-3c-1.4,0.7-3.2,1.4-5.4,1.6
	c-3.8,0.3-6.1-1.6-6.1-4.9c0-3.3,2.3-5.2,6.1-4.9c2.2,0.2,4,0.8,5.4,1.6v-3c0,0-2.9-0.7-5.6-0.9c-5-0.2-8.2,0.7-10,2.3v-9.3
	c0-4,3.2-7.1,7.1-7.1h10.4V46.3z M60.4,46.2c0,4-3.2,7.1-7.1,7.1H42.9V38.9h11c2.6,0,4.5-1.4,4.5-3.6c0-2-1.8-3.3-4.1-3.4v-0.1
	c2.1-0.3,3.2-1.6,3.2-3.2c0-2-1.7-3.2-4-3.3c-0.2,0-0.5,0-0.7,0H42.9v-7.4c0-4,3.2-7.1,7.1-7.1h10.4V46.2z M50.5,32.9
	c0.2,0,0.4,0,0.5,0c0.8,0.2,1.4,0.9,1.4,1.8c0,1-0.7,1.7-1.4,1.8c-0.1,0-0.4,0-0.5,0h-4.1v-3.8H50.5z M46.4,30.7v-3.4h3.7
	c0.1,0,0.3,0,0.4,0c0.8,0.1,1.4,0.7,1.4,1.7c0,0.9-0.7,1.6-1.4,1.7c0,0-0.3,0-0.4,0H46.4z"/>
</svg>
