<?xml version="1.0" encoding="utf-8"?>
<!-- Generator: Adobe Illustrator 22.0.1, SVG Export Plug-In . SVG Version: 6.00 Build 0)  -->
<svg version="1.1" id="Layer_1" xmlns:serif="http://www.serif.com/"
	 xmlns="http://www.w3.org/2000/svg" xmlns:xlink="http://www.w3.org/1999/xlink" x="0px" y="0px" viewBox="0 0 64 64"
	 style="enable-background:new 0 0 64 64;" xml:space="preserve">
<path d="M57.5,44c0.3-4.3-1.2-8.6-4.1-11.8c2.9-3.3,4.3-7.7,3.8-12c3.8-1.5,6.4-5.3,6.4-9.6c0-5.7-4.7-10.3-10.4-10.3
	c-4.2,0-8,2.6-9.6,6.3c-4.4-0.5-8.9,0.9-12.2,3.8c-3.2-2.9-7.4-4.3-11.6-4c-1.6-3.7-5.3-6.3-9.6-6.3C4.7,0.1,0,4.8,0,10.5
	c0,4.1,2.3,7.6,5.8,9.3c-0.6,4.6,0.8,9,3.9,12.5c-3,3.3-4.3,7.6-3.9,12C2.3,45.9,0,49.5,0,53.5c0,5.7,4.7,10.3,10.4,10.3
	c4.1,0,7.7-2.3,9.4-5.8c4.3,0.4,8.5-1,11.8-3.9c3.4,3.1,8,4.5,12.6,3.8c1.7,3.5,5.4,5.9,9.5,5.9c5.7,0,10.4-4.6,10.4-10.3
	C64,49.3,61.4,45.5,57.5,44z M44.3,42.6c0,0.6-0.2,1.2-0.7,1.6c-0.7,0.7-1.7,0.9-2.6,0.5l3.1-3.1C44.2,41.9,44.3,42.3,44.3,42.6z
	 M19,41.8l3,3c-0.8,0.3-1.8,0.1-2.5-0.5c-0.4-0.4-0.7-1-0.7-1.6C18.8,42.3,18.9,42,19,41.8z M31.5,35.6l-3.3-3.3l3.3-3.3l3.3,3.3
	L31.5,35.6z M18.8,21.9c0-0.6,0.2-1.2,0.7-1.6c0.7-0.7,1.7-0.9,2.6-0.5L19,22.8C18.8,22.5,18.8,22.2,18.8,21.9z M44.1,22.8l-3.1-3
	c0.8-0.3,1.9-0.2,2.6,0.5c0.4,0.4,0.7,1,0.7,1.6C44.3,22.2,44.2,22.5,44.1,22.8z M44.8,11.9l2.8,0.8L48,9.8c0.4-2.6,2.7-4.6,5.3-4.6
	c3,0,5.4,2.4,5.4,5.3c0,2.7-2,5-4.6,5.3l-2.9,0.4l0.8,2.8c0.9,3.1,0.3,6.3-1.5,8.9l-2.2-2.3c0.7-1.1,1-2.4,1-3.7
	c0-2-0.8-3.8-2.2-5.2c-2.9-2.9-7.5-2.9-10.4,0L25.4,28l-2.3-2.2l11.3-11.2C37.1,11.8,41.1,10.8,44.8,11.9z M5,10.5
	c0-2.9,2.4-5.3,5.4-5.3c2.6,0,4.9,1.9,5.3,4.5l0.4,2.6l2.6-0.6c3-0.7,6-0.1,8.4,1.6l-2.3,2.3c-2.8-1.7-6.5-1.3-8.9,1.1
	c-1.4,1.4-2.2,3.2-2.2,5.2c0,2,0.8,3.8,2.2,5.2l11.3,11.3l-2.3,2.3L14.8,30.4l-1.1-1.1C11,26.6,10,22.7,11,18.8l0.7-2.5l-2.6-0.6
	C6.7,15.2,5,13,5,10.5z M18.7,52.8l-2.5-0.6l-0.6,2.5c-0.5,2.5-2.7,4.2-5.3,4.2c-3,0-5.4-2.4-5.4-5.3c0-2.5,1.7-4.6,4.1-5.2l2.5-0.6
	L11,45.2c-0.8-3.1-0.2-6.2,1.5-8.7l2.3,2.3c-0.7,1.1-1,2.4-1,3.7c0,2,0.8,3.8,2.2,5.2c2.9,2.9,7.5,2.9,10.4,0l11.3-11.3l2.3,2.2
	L28.7,50C26,52.6,22.3,53.6,18.7,52.8z M53.7,58.9c-2.7-0.1-5-1.9-5.5-4.3l-0.5-2.7l-2.6,0.8c-3.2,0.9-6.5,0.4-9.2-1.4l2.3-2.3
	c2.8,1.7,6.5,1.3,8.9-1.1c1.4-1.4,2.2-3.2,2.2-5.2c0-2-0.8-3.8-2.2-5.2L35.9,26.2l2.3-2.3l11.4,11.3c2.6,2.6,3.6,6.4,2.8,10
	l-0.6,2.7l2.7,0.4c2.6,0.4,4.6,2.7,4.6,5.3C59,56.5,56.6,58.9,53.7,58.9z"/>
</svg>
