<?xml version="1.0" encoding="utf-8"?>
<!-- Generator: Adobe Illustrator 22.0.1, SVG Export Plug-In . SVG Version: 6.00 Build 0)  -->
<svg version="1.1" id="Layer_1" xmlns:serif="http://www.serif.com/"
	 xmlns="http://www.w3.org/2000/svg" xmlns:xlink="http://www.w3.org/1999/xlink" x="0px" y="0px" viewBox="0 0 64 64"
	 style="enable-background:new 0 0 64 64;" xml:space="preserve">
<g id="brandmark" transform="matrix(1,0,0,1,-35,-35)">
	<path id="j-green" d="M46.4,67.2L45.2,66c-3.8-3.8-4.9-9.2-3.6-14.1c-3.8-0.9-6.7-4.3-6.7-8.4c0-4.7,3.8-8.5,8.5-8.5
		c4.3,0,7.8,3.1,8.4,7.2c4.6-1.1,9.6,0.2,13.2,3.8l0.5,0.5l-6.3,6.3l-0.5-0.5c-2-2.1-5.4-2.1-7.4,0c-2,2.1-2,5.4,0,7.4l14.2,14.2
		l-6.3,6.3l-6.7-6.7L46.4,67.2z"/>
	<path id="j-orange" d="M53.5,60.2l6.7-6.7l6.3-6.3l1.2-1.2c3.8-3.8,9.2-5,14-3.6c0.6-4.2,4.2-7.3,8.4-7.3c4.7,0,8.5,3.8,8.5,8.5
		c0,4.4-3.2,7.9-7.4,8.5c1.4,4.8,0.2,10.2-3.6,13.9l-0.5,0.5L81,60.2l0.5-0.5c2-2.1,2-5.4,0-7.4c-2-2.1-5.4-2.1-7.4,0l-1.2,1.2
		l-6.3,6.3l-6.7,6.7L53.5,60.2z"/>
	<path id="j-red" d="M81.9,92.1c-4.9,1.5-10.3,0.3-14.2-3.5l-0.5-0.5l6.3-6.3l0.5,0.5c2,2.1,5.4,2.1,7.4,0c2-2.1,2-5.4,0-7.4
		l-1.2-1.2L74,67.3l-6.7-6.7l6.3-6.3l14.3,14.3c3.6,3.6,4.9,8.7,3.8,13.4c4.2,0.6,7.3,4.2,7.3,8.5c0,4.7-3.8,8.5-8.5,8.5
		C86.2,98.9,82.7,95.9,81.9,92.1z"/>
	<path id="j-blue" d="M79.5,74.3L72.8,81l-6.3,6.3l-1.2,1.2c-3.7,3.7-8.8,4.9-13.4,3.8c-0.9,3.8-4.3,6.7-8.4,6.7
		c-4.7,0-8.5-3.8-8.5-8.5c0-4,2.8-7.4,6.6-8.3c-1.2-4.8,0-9.9,3.7-13.6l0.5-0.5l6.3,6.3l-0.5,0.5c-2,2.1-2,5.4,0,7.4s5.4,2.1,7.4,0
		l1.2-1.2l6.3-6.3l6.7-6.7L79.5,74.3z"/>
</g>
</svg>
