<?xml version="1.0" encoding="utf-8"?>
<!-- Generator: Adobe Illustrator 22.0.1, SVG Export Plug-In . SVG Version: 6.00 Build 0)  -->
<svg version="1.1" id="Layer_1" xmlns="http://www.w3.org/2000/svg" xmlns:xlink="http://www.w3.org/1999/xlink" x="0px" y="0px"
	 viewBox="0 0 64 64" style="enable-background:new 0 0 64 64;" xml:space="preserve">
<path d="M57.2,29.9c-0.5-0.3-0.6-0.7-0.7-1.2c-0.3-1.9-0.4-3.8-1-5.6C51.4,11.8,38,6.9,27.5,12.7c-3.1,1.7-5.5,4.1-7.4,7.2
	c-0.4-0.2-0.6-0.3-0.9-0.4c-3.4-1.4-6.7-1.1-9.7,1c-2.9,2.1-4.1,5-3.7,8.7c0,0.3-0.2,0.9-0.5,1.1C0.8,33.7-1,39.2,0.6,44.5
	c1.6,5.2,6.5,9,12,9.2c3.4,0.1,6.9,0.1,10.3,0.1c9.5,0,19,0.1,28.6-0.1c6-0.1,10.9-4.2,12.3-9.9C65,38.3,62.4,32.8,57.2,29.9
	L57.2,29.9z M59.6,47.7c-2.1,2.5-4.8,4-8.1,4c-6.4,0.1-12.9,0-19.3,0c0,0.1-18.5,0-18.6,0c-5,0-8.7-2.2-10.8-6.8
	c-2.1-4.7-0.5-10.3,3.9-13.2c1-0.7,1.4-1.3,1.1-2.6c-0.6-3,0.5-5.4,3-7.1c2.6-1.8,5.4-1.8,8.2-0.3c1.2,0.6,1.7,1.3,2.5-0.3
	c1.6-3,3.9-5.3,6.9-6.9c11-6.2,25.9,0.9,26.1,15c0,0.9,0.3,1.4,1.1,1.8C62.2,34.3,64.1,42.2,59.6,47.7z M49.7,38.6
	c-0.7,3.5-3.9,6.2-7.6,6.2c-1.9,0-3.6-0.7-5-2c-3.1-2.9-8.1-8.5-10.9-10.6c-2.3-1.7-4.8-1.4-6.8,0.4c-5.7,5,1.8,13.8,7.6,8.7
	c0.5-0.4,0.9-1.1,1.4-1.5c0.9-0.6,2.4-0.1,1.5,1.2c-2,3-5.6,4.3-8.9,3.3c-3.3-1-5.5-4.1-5.5-8c0.1-2.5,1.4-4.9,4-6.3
	c2.6-1.4,5.3-1.5,7.6,0.3c5.8,4.4,8.6,9.3,12.2,11.5c2.8,1.7,6.1,0.8,7.8-2c3.3-5.6-3.9-11.9-8.9-7.2c-0.5,0.4-0.8,1-1.3,1.3
	c-1.2,0.8-2-0.5-1.5-1.2c2.3-3.2,5.7-4.6,9.4-3.2C48.4,31,50.4,34.7,49.7,38.6L49.7,38.6z"/>
</svg>
