<?xml version="1.0" encoding="utf-8"?>
<!-- Generator: Adobe Illustrator 23.0.0, SVG Export Plug-In . SVG Version: 6.00 Build 0)  -->
<svg version="1.1" id="Layer_1" xmlns="http://www.w3.org/2000/svg" xmlns:xlink="http://www.w3.org/1999/xlink" x="0px" y="0px"
	 viewBox="0 0 64 64" style="enable-background:new 0 0 64 64;" xml:space="preserve">
<path d="M51.8,15.1c-0.8-1.3-2.4-1.9-3.7-1.9H35.9l3.2-8h8.8l0,0c1.6,0,2.7-1.1,2.7-2.7S49.4,0,47.8,0h-9.6c-1.9,0-3.5,1.1-4,2.7
	L30,13.3H15.7c-1.3,0-2.9,0.5-3.7,1.9c-1.1,1.1-1.6,2.7-1.3,4.2l4.5,39.8c0.3,2.7,2.7,4.8,5.3,4.8h23.1c2.7,0,5-2.1,5.3-4.8
	l4.5-39.8C53.4,17.8,52.9,16.2,51.8,15.1z M48.1,18.6L46.8,30l-0.5-0.3c-3.2-1.6-6.9-1.9-10.1-0.3L34.8,30c-1.6,0.8-3.7,0.8-5.3,0
	L29,29.7c-3.5-1.6-7.2-1.6-10.6,0.3L17,30.5l-1.3-12H48.1z M43.6,58.4H20.5l-2.4-22.3l3.2-1.6c1.9-1.1,4-1.1,5.6,0l0.5,0.3
	c3.2,1.6,6.6,1.6,9.8,0l1.3-0.5c1.9-0.8,3.7-0.8,5.6,0.3l2.4,1.3L43.6,58.4L43.6,58.4"/>
</svg>
