<?xml version="1.0" encoding="utf-8"?>
<!-- Generator: Adobe Illustrator 22.0.1, SVG Export Plug-In . SVG Version: 6.00 Build 0)  -->
<svg version="1.1" id="Layer_2_1_" xmlns="http://www.w3.org/2000/svg" xmlns:xlink="http://www.w3.org/1999/xlink" x="0px" y="0px"
	 viewBox="0 0 64 64" style="enable-background:new 0 0 64 64;" xml:space="preserve">
<g>
	<path d="M58.7,10.7H5.3C2.4,10.7,0,13.1,0,16v32c0,2.9,2.4,5.3,5.3,5.3h53.3c2.9,0,5.3-2.4,5.3-5.3V16C64,13.1,61.6,10.7,58.7,10.7
		z M5.3,48V16h53.3v32H5.3z"/>
	<path d="M19.2,26.7h4.3c0.3,0,0.5-0.3,0.5-0.5v-4.3c0-0.3-0.3-0.5-0.5-0.5h-4.3c-0.3,0-0.5,0.3-0.5,0.5v4.3
		C18.7,26.4,18.9,26.7,19.2,26.7z"/>
	<path d="M24,34.1c0,0.3,0.3,0.5,0.5,0.5h4.3c0.3,0,0.5-0.3,0.5-0.5v-4.3c0-0.3-0.3-0.5-0.5-0.5h-4.3c-0.3,0-0.5,0.3-0.5,0.5V34.1z"
		/>
	<path d="M34.7,34.1c0,0.3,0.3,0.5,0.5,0.5h4.3c0.3,0,0.5-0.3,0.5-0.5v-4.3c0-0.3-0.3-0.5-0.5-0.5h-4.3c-0.3,0-0.5,0.3-0.5,0.5V34.1
		z"/>
	<path d="M29.9,26.7h4.3c0.3,0,0.5-0.3,0.5-0.5v-4.3c0-0.3-0.3-0.5-0.5-0.5h-4.3c-0.3,0-0.5,0.3-0.5,0.5v4.3
		C29.3,26.4,29.6,26.7,29.9,26.7z"/>
	<path d="M44.8,21.3h-4.3c-0.3,0-0.5,0.3-0.5,0.5v4.3c0,0.3,0.3,0.5,0.5,0.5h4.3c0.3,0,0.5-0.3,0.5-0.5v-4.3
		C45.3,21.6,45.1,21.3,44.8,21.3z"/>
	<path d="M42.7,40H21.3c-1.6,0-2.7,1.1-2.7,2.7c0,1.6,1.1,2.7,2.7,2.7h21.3c1.6,0,2.7-1.1,2.7-2.7C45.3,41.1,44.3,40,42.7,40z"/>
</g>
</svg>
