<?xml version="1.0" encoding="utf-8"?>
<!-- Generator: Adobe Illustrator 23.0.0, SVG Export Plug-In . SVG Version: 6.00 Build 0)  -->
<svg version="1.1" id="Layer_1" xmlns="http://www.w3.org/2000/svg" xmlns:xlink="http://www.w3.org/1999/xlink" x="0px" y="0px"
	 viewBox="0 0 64 64" style="enable-background:new 0 0 64 64;" xml:space="preserve">
<g>
	<path d="M62.6,51.8L47.8,36.9c-1.9-1.9-5-1.9-6.9,0l0,0l-5-4.8c5.8-7.7,5.3-18.9-1.9-26c-7.7-7.7-20.5-7.7-28.2,0s-7.7,20.2,0,27.9
		c4,4,9,5.8,14.1,5.8c4.3,0,8.5-1.3,12-4l4.8,4.8l0,0c-1.9,1.9-1.9,5,0,6.9l14.9,14.9c1.1,1.1,2.1,1.3,3.5,1.3s2.4-0.5,3.5-1.3l4-4
		C64.5,56.8,64.5,53.6,62.6,51.8z M9.8,30.5c-5.6-5.6-5.6-14.9,0-20.5c2.9-2.9,6.6-4.5,10.4-4.5s7.4,1.3,10.4,4.3
		c5.6,5.6,5.6,14.9,0,20.5C24.6,36.1,15.3,36.1,9.8,30.5z M55.2,58.7L40.9,44.3l3.5-3.5l14.3,14.3L55.2,58.7z"/>
	<path d="M13.5,16.2h8c1.6,0,2.7-1.1,2.7-2.7c0-1.3-1.1-2.7-2.7-2.7h-8c-1.6,0-2.7,1.3-2.7,2.7C10.8,15.1,11.9,16.2,13.5,16.2z"/>
	<path d="M24.1,21.5H13.5c-1.6,0-2.7,1.1-2.7,2.7s1.1,2.7,2.7,2.7h10.6c1.6,0,2.7-1.1,2.7-2.7S25.4,21.5,24.1,21.5z"/>
</g>
</svg>
