<?xml version="1.0" encoding="utf-8"?>
<!-- Generator: Adobe Illustrator 22.0.1, SVG Export Plug-In . SVG Version: 6.00 Build 0)  -->
<svg version="1.1" id="Layer_2_1_" xmlns="http://www.w3.org/2000/svg" xmlns:xlink="http://www.w3.org/1999/xlink" x="0px" y="0px"
	 viewBox="0 0 64 64" style="enable-background:new 0 0 64 64;" xml:space="preserve">
<g>
	<path d="M60.5,21.3h-7.2V6.7c0-2.1-1.9-4-4-4H9.2c-2.1,0-3.7,1.6-3.7,4v21c-0.8,0.5-1.1,1.3-1.3,2.4l-4,18.6
		c-0.3,1.1,0,2.4,0.8,3.2c0.8,0.8,1.9,1.3,3.2,1.3h33.3v4.5c0,1.9,1.6,3.5,3.5,3.5h19.7c1.9,0,3.5-1.6,3.5-3.5v-33
		C64,22.9,62.4,21.3,60.5,21.3z M5.7,48l3.2-16h0.3h28.2v16H5.7z M37.4,24.8v1.9H10.7V8H48v13.3h-7.2C39,21.3,37.4,22.9,37.4,24.8z
		 M58.7,56h-16V26.7h16V56z"/>
	<circle cx="50.7" cy="50.6" r="2.7"/>
	<path d="M49.4,32H52c0.8,0,1.3-0.5,1.3-1.3s-0.5-1.3-1.3-1.3h-2.7c-0.8,0-1.3,0.5-1.3,1.3S48.6,32,49.4,32z"/>
</g>
</svg>
