<?xml version="1.0" encoding="utf-8"?>
<!-- Generator: Adobe Illustrator 22.0.1, SVG Export Plug-In . SVG Version: 6.00 Build 0)  -->
<svg version="1.1" id="Layer_2_1_" xmlns="http://www.w3.org/2000/svg" xmlns:xlink="http://www.w3.org/1999/xlink" x="0px" y="0px"
	 viewBox="0 0 64 64" style="enable-background:new 0 0 64 64;" xml:space="preserve">
<path d="M63.8,53.2l-4.4-18c-0.3-1.2-0.9-2-1.7-2.6c0.3-0.6,0.6-1.2,0.6-2V9.9c0-2.3-1.7-4.1-4.1-4.1H10.3C8,5.8,5.9,7.6,5.9,9.9
	v20.7c0,0.6,0.3,1.5,0.6,2c-0.9,0.6-1.7,1.5-2,2.6l-4.4,18c-0.3,1.2,0,2.3,0.9,3.5c0.9,0.9,2,1.5,3.5,1.5h55.3
	c1.5,0,2.6-0.6,3.5-1.7C64.1,55.6,64.1,54.1,63.8,53.2z M11.7,11.6h40.7v17.5H11.7V11.6z M6.5,52.4L10,37.8h44.5L58,52.4H6.5z"/>
</svg>
