<?xml version="1.0" encoding="utf-8"?>
<!-- Generator: Adobe Illustrator 22.0.1, SVG Export Plug-In . SVG Version: 6.00 Build 0)  -->
<svg version="1.1" id="Layer_1" xmlns="http://www.w3.org/2000/svg" xmlns:xlink="http://www.w3.org/1999/xlink" x="0px" y="0px"
	 viewBox="0 0 64 64" style="enable-background:new 0 0 64 64;" xml:space="preserve">
<path d="M63.1,14.5C63,14.4,63,14.4,63.1,14.5C63,14.3,63,14.3,63,14.2c0,0,0-0.1-0.1-0.1c0,0-0.1-0.1-0.1-0.1c0,0-0.1-0.1-0.1-0.1
	c0,0-0.1-0.1-0.1-0.1l-12-6.9c-0.3-0.2-0.7-0.2-1,0l-12,6.9l0,0c0,0-0.1,0.1-0.1,0.1c0,0-0.1,0-0.1,0.1c0,0-0.1,0.1-0.1,0.1
	c0,0,0,0.1-0.1,0.1c0,0.1,0,0.1-0.1,0.2c0,0,0,0.1,0,0.1c0,0.1,0,0.2,0,0.3v13.2l-10,5.8V7.9c0-0.1,0-0.2,0-0.3c0,0,0-0.1,0-0.1
	c0-0.1,0-0.1-0.1-0.2c0,0,0-0.1-0.1-0.1c0,0-0.1-0.1-0.1-0.1c0,0-0.1-0.1-0.1-0.1c0,0-0.1-0.1-0.1-0.1l0,0l-12-6.9
	c-0.3-0.2-0.7-0.2-1,0l-12,6.9l0,0c0,0-0.1,0.1-0.1,0.1c0,0-0.1,0-0.1,0.1c0,0-0.1,0.1-0.1,0.1c0,0,0,0.1-0.1,0.1c0,0,0,0.1-0.1,0.2
	c0,0,0,0.1,0,0.1c0,0.1,0,0.2,0,0.3v41.2c0,0.4,0.2,0.7,0.5,0.9l24.1,13.9c0.1,0,0.1,0,0.2,0.1c0,0,0.1,0,0.1,0c0.2,0,0.3,0,0.5,0
	c0,0,0,0,0.1,0c0.1,0,0.1,0,0.2-0.1L50.6,50c0.3-0.2,0.5-0.5,0.5-0.9V36l11.5-6.6c0.3-0.2,0.5-0.5,0.5-0.9V14.7
	C63.1,14.7,63.1,14.6,63.1,14.5z M14,2.2L14,2.2l10,5.8l-10,5.8l-10-5.8L14,2.2z M25,9.7v25.2l-5.8,3.3L15,40.6V15.4l5.8-3.3L25,9.7
	z M25,61.3L2.9,48.6V9.7l4.2,2.4l5.8,3.3v26.9c0,0,0,0.1,0,0.1c0,0,0,0.1,0,0.1l0,0c0,0,0,0.1,0,0.1c0,0,0,0.1,0.1,0.1l0,0
	c0,0,0,0.1,0.1,0.1c0,0,0.1,0.1,0.1,0.1l0,0c0,0,0.1,0,0.1,0.1c0,0,0.1,0.1,0.1,0.1l0,0l0,0L25,49.7L25,61.3z M26,48l-10-5.7
	l10.5-6.1L38,29.6l10,5.8l-7.3,4.2L26,48z M49,48.6L27,61.3V49.7l16.3-9.3l5.7-3.3V48.6z M49,33.7l-4.2-2.4L39,27.9V16.5l4.2,2.4
	l5.8,3.4V33.7z M50,20.5l-10-5.8L50,9l10,5.8L50,20.5z M51,33.7V22.3l5.8-3.4l4.2-2.4v11.4l0,0L51,33.7z"/>
</svg>
