<?xml version="1.0" encoding="utf-8"?>
<!-- Generator: Adobe Illustrator 21.0.2, SVG Export Plug-In . SVG Version: 6.00 Build 0)  -->
<svg version="1.1" id="Layer_1" xmlns="http://www.w3.org/2000/svg" xmlns:xlink="http://www.w3.org/1999/xlink" x="0px" y="0px"
	 viewBox="0 0 64 64" style="enable-background:new 0 0 64 64;" xml:space="preserve">
<path d="M63.1,59.2L49.7,45.8c3.3-4.5,5-10,4.5-15.6c-0.6-7-4.2-13.9-10.3-20.1C26.4-7.2,5.2,2.9,4.4,3.2L3.6,3.5L3.2,4.4
	c-0.1,0.3-10.5,22,7.1,39.6c7,7,14.8,10.6,22.2,10.6c4.7,0,9.5-1.7,13.4-4.7l13.4,13.4c0.6,0.6,1.4,0.8,2,0.8c0.6,0,1.4-0.3,2-0.8
	C64.2,61.9,64.2,60.3,63.1,59.2z M14.2,40C1.1,26.9,6.4,11.6,7.8,7.7C11.7,6,27,1.1,40,14.1c5.3,5.3,8.1,10.9,8.6,16.4
	c0.3,4.2-0.6,8.1-3.1,11.1l-7.2-7.2v-13c0-1.7-1.1-2.8-2.8-2.8s-2.8,1.1-2.8,2.8v7.5L25,21.1c-1.1-1.1-2.8-1.1-3.9,0s-1.1,2.8,0,3.9
	l5.3,5.3h-7.5c-1.7,0-2.8,1.1-2.8,2.8c0,1.7,1.1,2.8,2.8,2.8h13.1l1.7,1.7l0,0l7.8,7.8C34.1,51.4,23.4,49.1,14.2,40z"/>
</svg>
