<?xml version="1.0" encoding="utf-8"?>
<!-- Generator: Adobe Illustrator 23.0.0, SVG Export Plug-In . SVG Version: 6.00 Build 0)  -->
<svg version="1.1" id="Layer_1" xmlns="http://www.w3.org/2000/svg" xmlns:xlink="http://www.w3.org/1999/xlink" x="0px" y="0px"
	 viewBox="0 0 64 64" style="enable-background:new 0 0 64 64;" xml:space="preserve">
<g>
	<path d="M60,8H35.2c-1.3,0-2.4,0.3-3.2,1.1C30.9,8.3,29.9,8,28.8,8H4c-2.1,0-4,1.9-4,4v37.3c0,2.1,1.9,4,4,4h25.3
		c0,1.6,1.1,2.7,2.7,2.7c1.6,0,2.7-1.1,2.7-2.7H60c2.1,0,4-1.9,4-4V12C64,9.9,62.1,8,60,8z M5.3,48V13.3h23.5c0.3,0,0.5,0.3,0.5,0.5
		V48H5.3z M58.7,48h-24V13.9c0-0.3,0.3-0.5,0.5-0.5h23.5V48z"/>
	<path d="M21.3,18.7H10.7c-1.6,0-2.7,1.1-2.7,2.7S9.1,24,10.7,24h10.7c1.6,0,2.7-1.1,2.7-2.7C24,19.7,22.9,18.7,21.3,18.7z"/>
	<path d="M42.7,24h10.7c1.6,0,2.7-1.1,2.7-2.7c0-1.6-1.1-2.7-2.7-2.7H42.7c-1.6,0-2.7,1.1-2.7,2.7S41.1,24,42.7,24z"/>
	<path d="M42.7,32h10.7c1.6,0,2.7-1.1,2.7-2.7c0-1.6-1.1-2.7-2.7-2.7H42.7c-1.6,0-2.7,1.1-2.7,2.7C40,30.9,41.1,32,42.7,32z"/>
	<path d="M21.3,26.7H10.7c-1.6,0-2.7,1.1-2.7,2.7c0,1.6,1.1,2.7,2.7,2.7h10.7c1.6,0,2.7-1.1,2.7-2.7C24,27.7,22.9,26.7,21.3,26.7z"
		/>
	<path d="M21.3,34.7H10.7c-1.6,0-2.7,1.1-2.7,2.7c0,1.6,1.1,2.7,2.7,2.7h10.7c1.6,0,2.7-1.1,2.7-2.7C24,35.7,22.9,34.7,21.3,34.7z"
		/>
	<path d="M42.7,40h10.7c1.6,0,2.7-1.1,2.7-2.7c0-1.6-1.1-2.7-2.7-2.7H42.7c-1.6,0-2.7,1.1-2.7,2.7C40,38.9,41.1,40,42.7,40z"/>
</g>
</svg>
