<?xml version="1.0" encoding="utf-8"?>
<!-- Generator: Adobe Illustrator 22.0.1, SVG Export Plug-In . SVG Version: 6.00 Build 0)  -->
<svg version="1.1" id="Layer_1" xmlns="http://www.w3.org/2000/svg" xmlns:xlink="http://www.w3.org/1999/xlink" x="0px" y="0px"
	 viewBox="0 0 64 64" style="enable-background:new 0 0 64 64;" xml:space="preserve">
<path d="M54.6,9.4C48.4,3.1,40.2,0,32,0S15.6,3.1,9.4,9.4c-12.5,12.5-12.5,32.8,0,45.3C15.6,60.9,23.8,64,32,64s16.4-3.1,22.6-9.4
	C67.1,42.1,67.1,21.9,54.6,9.4z M47.3,27.3l8.4-8.4c2.2,3.9,3.4,8.4,3.4,13s-1.2,9.1-3.4,13l-8.4-8.4C48.2,33.6,48.2,30.4,47.3,27.3
	z M52.8,14.8l-7.8,7.8c-0.5-0.7-1-1.3-1.6-1.9s-1.3-1.1-1.9-1.6l7.8-7.8c0.6,0.5,1.3,1.1,1.9,1.7C51.7,13.5,52.2,14.1,52.8,14.8z
	 M39.8,39.8C37.7,41.9,34.9,43,32,43c-2.9,0-5.7-1.1-7.8-3.2c-4.3-4.3-4.3-11.3,0-15.6c2.1-2.1,4.8-3.2,7.8-3.2s5.7,1.1,7.8,3.2
	C44.1,28.5,44.1,35.5,39.8,39.8z M45,8.4l-8.4,8.4C35.2,16.2,33.6,16,32,16c-1.6,0-3.2,0.2-4.7,0.7L19,8.4C22.9,6.2,27.4,5,32,5
	C36.6,5,41.1,6.2,45,8.4z M14.8,11.2l7.8,7.8c-0.7,0.5-1.3,1-1.9,1.6s-1.1,1.3-1.6,1.9l-7.8-7.8c0.5-0.6,1.1-1.3,1.7-1.9
	C13.5,12.3,14.1,11.8,14.8,11.2z M8.4,19l8.4,8.4c-0.9,3.1-0.9,6.3,0,9.4L8.4,45C6.2,41.1,5,36.6,5,32S6.2,22.9,8.4,19z M11.2,49.2
	l7.8-7.8c0.5,0.7,1,1.3,1.6,1.9s1.3,1.1,1.9,1.6l-7.8,7.8c-0.6-0.5-1.3-1.1-1.9-1.7C12.3,50.5,11.8,49.9,11.2,49.2z M19,55.6
	l8.4-8.4c1.5,0.5,3.1,0.7,4.7,0.7c1.6,0,3.2-0.2,4.7-0.7l8.4,8.4c-3.9,2.2-8.4,3.4-13,3.4C27.4,59,22.9,57.8,19,55.6z M49.2,52.8
	l-7.8-7.8c0.7-0.5,1.3-1,1.9-1.6s1.1-1.3,1.6-1.9l7.8,7.8c-0.5,0.6-1.1,1.3-1.7,1.9S49.9,52.2,49.2,52.8z"/>
</svg>
