<?xml version="1.0" encoding="utf-8"?>
<!-- Generator: Adobe Illustrator 21.0.2, SVG Export Plug-In . SVG Version: 6.00 Build 0)  -->
<svg version="1.1" id="Layer_1" xmlns="http://www.w3.org/2000/svg" xmlns:xlink="http://www.w3.org/1999/xlink" x="0px" y="0px"
	 viewBox="0 0 128 128" style="enable-background:new 0 0 128 128;" xml:space="preserve">
<g>
	<path d="M29.3,72.6c0.2,0.1,0.4,0.2,0.8,0.3c1.5,0.7,2.9,1.1,4.6,1.1c5.5,0,10.1-4.6,10.1-10.1s-4.6-10.1-10-10.1
		c-3.6,0-6.9,3.5-9.1,5.7L23,62.2l-4.6-4.6c-1.8-1.8-3.8-3.8-7.3-3.8C5.4,53.9,0.8,58.5,0.8,64s4.6,10.1,10,10.1
		c1.5,0,3.2-0.3,4.6-1.1c1.3-0.8,4.8-2.9,6.8-4.9l0.5-0.5l2.5,2.4C26.9,71.5,28.2,72.1,29.3,72.6z M27.7,62.8
		c0.4-0.4,0.8-0.8,1.1-1.1c1.6-1.6,4.1-4,5.9-4c3.4,0,6.4,3.2,6.4,6.6s-2.9,6.4-6.4,6.4c-1.1,0-2.9-0.6-4-1.2
		c-2.9-1.7-5.3-4.5-5.3-4.5L27.7,62.8z M19.7,65.4C18.1,67,15,69,13.9,69.6c-1,0.5-1.8,0.8-2.9,0.8c-3.4,0-6.4-2.9-6.4-6.4
		c0-3.4,2.9-6.4,6.4-6.4c2,0,2.9,0.9,4.6,2.7l4.7,4.6L19.7,65.4z"/>
	<g>
		<path d="M48.2,70.3c-0.2-0.2-0.3-0.6-0.3-1V59c0-0.4,0.1-0.8,0.4-1c0.3-0.3,0.6-0.4,1-0.4s0.8,0.1,1,0.4c0.3,0.3,0.4,0.6,0.4,1
			v9.3h4.7c0.9,0,1.3,0.4,1.3,1.2c0,0.8-0.4,1.2-1.3,1.2h-6.2C48.7,70.6,48.4,70.5,48.2,70.3z"/>
		<path d="M58.2,59.6c-0.2-0.2-0.3-0.4-0.4-0.7c-0.1-0.4,0-0.8,0.3-1.1c0.2-0.3,0.5-0.4,0.9-0.5c0.3-0.1,0.7-0.1,1,0
			c0.7,0.2,1.1,1.1,0.9,1.7C60.5,60.1,59,60.3,58.2,59.6z M58.3,70.4c-0.3-0.2-0.4-0.6-0.4-1v-6.7c0-0.4,0.1-0.8,0.4-1
			c0.3-0.2,0.6-0.3,1-0.3s0.7,0.1,1,0.3s0.4,0.5,0.4,1v6.7c0,0.4-0.1,0.8-0.4,1c-0.5,0.3-1.1,0.4-1.6,0.2
			C58.5,70.6,58.4,70.5,58.3,70.4z"/>
		<path d="M70.9,62.4c0.5,0.6,0.8,1.6,0.8,2.9v4.2c0,0.4-0.1,0.7-0.4,1c-0.3,0.2-0.6,0.3-1,0.3s-0.8-0.1-1-0.3
			c-0.2-0.2-0.4-0.5-0.4-1v-4.1c0-0.6-0.1-1.1-0.3-1.3c-0.2-0.3-0.6-0.4-1.1-0.4c-0.6,0-1,0.2-1.4,0.6c-0.3,0.4-0.5,0.9-0.5,1.5v3.9
			c0,0.4-0.1,0.7-0.4,1c-0.2,0.2-0.6,0.3-1,0.3s-0.8-0.1-1-0.3c-0.3-0.2-0.4-0.5-0.4-1V63c0-0.4,0.1-0.7,0.4-0.9
			c0.3-0.2,0.6-0.3,1-0.3s0.7,0.1,0.9,0.3c0.2,0.2,0.4,0.5,0.4,0.9c0,0,0,0.3,0,0.3c0-0.1,0.1-0.2,0.1-0.2c0.1-0.1,0.1-0.1,0.2-0.2
			c0.1-0.1,0.3-0.3,0.4-0.4c0.7-0.5,1.6-0.8,2.4-0.8C69.5,61.6,70.4,61.7,70.9,62.4z"/>
		<path d="M81.6,68.3c0.1,0.1,0.1,0.1,0.1,0.2c0.1,0.3,0.1,0.7-0.1,1c-0.2,0.4-0.5,0.5-0.8,0.7c-0.4,0.2-0.8,0.3-1.2,0.4
			c-0.6,0.1-1.1,0.2-1.5,0.2c-1,0-1.8-0.2-2.6-0.6c-0.7-0.4-1.3-0.9-1.7-1.6c-0.4-0.7-0.6-1.5-0.6-2.5c0-0.9,0.2-1.7,0.6-2.4
			s0.9-1.3,1.6-1.7s1.4-0.6,2.3-0.6c0.8,0,1.5,0.2,2.2,0.5c0.6,0.4,1.1,0.9,1.4,1.5c0.3,0.7,0.5,1.4,0.5,2.3c0,0.3-0.1,0.5-0.2,0.6
			s-0.3,0.2-0.5,0.2H76c0.1,0.7,0.3,1.2,0.7,1.6s0.9,0.5,1.5,0.5c0.4,0,0.7,0,1-0.1s0.6-0.2,0.9-0.3c0.3-0.1,0.6-0.2,0.9-0.2
			c0.1,0,0.3,0,0.4,0.1C81.5,68.1,81.6,68.2,81.6,68.3z M76.6,63.8c-0.3,0.3-0.5,0.8-0.6,1.5h3.5c0-0.6-0.2-1.1-0.5-1.5
			c-0.3-0.3-0.7-0.5-1.2-0.5C77.3,63.3,76.9,63.5,76.6,63.8z"/>
		<path d="M84.2,70.4c-0.3-0.2-0.4-0.6-0.4-1V59c0-0.4,0.1-0.8,0.4-1c0.3-0.3,0.6-0.4,1-0.4s0.8,0.1,1,0.4c0.3,0.3,0.4,0.6,0.4,1
			c0,0,0,10.3,0,10.3c0,0.3-0.1,0.7-0.3,1c-0.4,0.3-1,0.6-1.6,0.4C84.5,70.6,84.3,70.5,84.2,70.4z"/>
		<path d="M90.7,70.2c-0.7-0.4-1.2-0.9-1.6-1.6s-0.6-1.5-0.6-2.5c0-0.9,0.2-1.8,0.6-2.5c0.4-0.7,1-1.3,1.7-1.7s1.6-0.6,2.5-0.6
			c0.5,0,1,0.1,1.5,0.2c0.4,0.1,0.9,0.3,1.3,0.6c0.6,0.4,0.8,1.2,0.4,1.8c-0.1,0.1-0.1,0.2-0.3,0.3c-0.2,0.1-0.3,0-0.5,0
			c-0.4-0.1-0.8-0.2-1.2-0.4c-0.3-0.1-0.6-0.3-1-0.3c-0.7,0-1.2,0.3-1.7,0.7c-0.4,0.4-0.5,1.1-0.5,1.9s0.2,1.5,0.5,1.9
			c0.4,0.4,0.9,0.7,1.6,0.7c0.4,0,0.6-0.1,1-0.2c0.3-0.1,0.5-0.2,0.8-0.3c0.5-0.2,0.9-0.2,1.2,0.1c0.2,0.2,0.2,0.5,0.2,0.8
			c0,0.5-0.2,0.8-0.6,1s-0.8,0.4-1.4,0.6s-1.1,0.2-1.6,0.2C92.2,70.8,91.4,70.6,90.7,70.2z"/>
		<path d="M99.9,70.2c-0.7-0.4-1.3-0.9-1.7-1.6s-0.6-1.5-0.6-2.5s0.2-1.8,0.6-2.5c0.4-0.7,0.9-1.2,1.7-1.6c0.7-0.4,1.6-0.6,2.5-0.6
			s1.8,0.2,2.5,0.6c0.7,0.4,1.3,0.9,1.7,1.6c0.4,0.7,0.6,1.5,0.6,2.5s-0.2,1.8-0.6,2.5s-0.9,1.2-1.7,1.6c-0.7,0.4-1.6,0.6-2.5,0.6
			S100.6,70.6,99.9,70.2z M104.4,66.1c0-0.9-0.2-1.5-0.5-1.9s-0.8-0.6-1.5-0.6c-1.3,0-2,0.9-2,2.6s0.7,2.6,2,2.6
			C103.8,68.7,104.4,67.8,104.4,66.1z"/>
		<path d="M116.9,62.4c0.5,0.6,0.8,1.6,0.8,2.9v4.2c0,0.4-0.1,0.7-0.4,1c-0.3,0.2-0.6,0.3-1,0.3s-0.8-0.1-1-0.3
			c-0.2-0.2-0.4-0.5-0.4-1v-4.1c0-0.6-0.1-1.1-0.3-1.3c-0.2-0.3-0.6-0.4-1.1-0.4c-0.6,0-1,0.2-1.4,0.6c-0.3,0.4-0.5,0.9-0.5,1.5v3.9
			c0,0.4-0.1,0.7-0.4,1c-0.2,0.2-0.6,0.3-1,0.3s-0.8-0.1-1-0.3c-0.3-0.2-0.4-0.5-0.4-1V63c0-0.4,0.1-0.7,0.4-0.9s0.6-0.3,1-0.3
			s0.7,0.1,0.9,0.3c0.2,0.2,0.4,0.5,0.4,0.9c0,0,0,0.3,0,0.3c0-0.2,0.3-0.5,0.5-0.6c0.2-0.2,0.4-0.3,0.6-0.4
			C113.8,61.6,115.9,61.2,116.9,62.4z"/>
		<path d="M121.3,70.6c-0.1,0-0.3-0.1-0.4-0.1c-0.4-0.1-0.8-0.3-1.1-0.5c-0.2-0.1-0.3-0.3-0.4-0.4c-0.1-0.2-0.1-0.4-0.1-0.6
			c0-0.3,0.1-0.5,0.2-0.7c0.2-0.2,0.4-0.3,0.6-0.3s0.3,0,0.5,0.1s0.3,0.1,0.5,0.2c0.3,0.2,0.7,0.3,1,0.4s0.7,0.1,1.2,0.1
			c0.4,0,0.8-0.1,1-0.2s0.4-0.3,0.4-0.5s-0.1-0.3-0.2-0.4s-0.3-0.2-0.6-0.3c-0.3-0.1-0.7-0.2-1.3-0.3c-1.1-0.2-1.9-0.5-2.4-0.9
			s-0.7-1-0.7-1.7c0-1.1,0.7-2,1.7-2.4c0.6-0.3,1.2-0.4,1.8-0.4c0.8-0.1,1.6,0,2.3,0.3c0.7,0.2,1.5,0.7,1.5,1.5
			c0,0.3-0.1,0.5-0.2,0.7c-0.2,0.2-0.4,0.3-0.6,0.3c-0.6,0-1.1-0.4-1.7-0.6c-0.6-0.2-1.3-0.2-1.9,0c-0.2,0.1-0.4,0.2-0.4,0.4
			c-0.1,0.2,0,0.4,0.2,0.5c0.2,0.2,0.5,0.2,0.8,0.3c0.3,0.1,0.6,0.1,0.9,0.2c0.8,0.2,1.5,0.4,1.9,0.6c0.5,0.2,0.8,0.5,1,0.9
			c0.2,0.3,0.3,0.8,0.3,1.3c0,0.9-0.4,1.6-1.1,2.1c-0.5,0.4-1.2,0.6-1.9,0.7C123.2,71,122.2,70.8,121.3,70.6z"/>
	</g>
</g>
</svg>
