<?xml version="1.0" encoding="utf-8"?>
<!-- Generator: Adobe Illustrator 21.0.2, SVG Export Plug-In . SVG Version: 6.00 Build 0)  -->
<svg version="1.1" id="Layer_1" xmlns="http://www.w3.org/2000/svg" xmlns:xlink="http://www.w3.org/1999/xlink" x="0px" y="0px"
	 viewBox="0 0 128 128" style="enable-background:new 0 0 128 128;" xml:space="preserve">
<g>
	<path d="M82.5,72c0.6,0.4,1.2,0.6,2.1,1c4.3,1.9,8.4,3.1,13.1,3.1c15.6,0,28.6-13.1,28.6-28.6s-13.1-28.6-28.4-28.6
		C87.6,18.9,78.2,28.8,72,35l-7.8,7.8L51.1,29.8c-5.3-5.3-10.9-10.9-20.8-10.9c-15.6,0-28.6,13.1-28.6,28.6s13.1,28.6,28.4,28.6
		c4.3,0,9-1,13.1-3.1c3.7-2.1,13.6-8.4,19.3-14l1.6-1.6l7,6.8C75.7,68.9,79.4,70.5,82.5,72z M78,44c1.2-1.2,2.1-2.1,3.1-3.1
		c4.7-4.7,11.7-11.5,16.8-11.5c9.7,0,18.1,9,18.1,18.7s-8.2,18.1-18.1,18.1c-3.1,0-8.2-1.8-11.5-3.5C78,57.8,71.2,50,71.2,50L78,44z
		 M55.2,51.6c-4.7,4.7-13.4,10.3-16.6,11.9c-2.7,1.6-5.3,2.1-8.4,2.1c-9.7,0-18.1-8.4-18.1-18.1s8.2-18.1,18.1-18.1
		c5.6,0,8.2,2.5,13.1,7.6L56.8,50L55.2,51.6z"/>
	<g>
		<path d="M3.2,108.4c-0.4-0.4-0.5-0.9-0.5-1.5v-16c0-0.7,0.2-1.2,0.6-1.6s0.9-0.6,1.6-0.6s1.2,0.2,1.6,0.6c0.4,0.4,0.6,0.9,0.6,1.6
			v14.5h7.3c1.4,0,2.1,0.6,2.1,1.8c0,1.2-0.7,1.8-2.1,1.8H4.8C4.1,108.9,3.6,108.7,3.2,108.4z"/>
		<path d="M18.8,91.7c-0.4-0.4-0.7-0.9-0.7-1.6c0-0.7,0.2-1.2,0.7-1.6c0.4-0.4,1-0.6,1.8-0.6c0.7,0,1.3,0.2,1.8,0.6
			c0.4,0.4,0.7,0.9,0.7,1.6c0,0.7-0.2,1.2-0.7,1.6c-0.4,0.4-1,0.6-1.8,0.6C19.9,92.3,19.3,92.1,18.8,91.7z M19.1,108.6
			c-0.4-0.3-0.6-0.9-0.6-1.5V96.6c0-0.7,0.2-1.2,0.6-1.5c0.4-0.3,0.9-0.5,1.5-0.5c0.6,0,1.1,0.2,1.5,0.5c0.4,0.3,0.6,0.9,0.6,1.5
			V107c0,0.7-0.2,1.2-0.6,1.5c-0.4,0.3-0.9,0.5-1.5,0.5C20,109.1,19.5,108.9,19.1,108.6z"/>
		<path d="M38.7,96c0.8,1,1.2,2.5,1.2,4.5v6.6c0,0.6-0.2,1.1-0.6,1.5c-0.4,0.4-0.9,0.5-1.6,0.5c-0.7,0-1.2-0.2-1.6-0.5
			c-0.4-0.4-0.6-0.9-0.6-1.5v-6.4c0-1-0.2-1.7-0.5-2.1c-0.4-0.4-0.9-0.7-1.6-0.7c-0.9,0-1.6,0.3-2.2,0.9c-0.5,0.6-0.8,1.3-0.8,2.3v6
			c0,0.6-0.2,1.1-0.6,1.5c-0.4,0.4-0.9,0.5-1.6,0.5c-0.7,0-1.2-0.2-1.6-0.5c-0.4-0.4-0.6-0.9-0.6-1.5V96.5c0-0.6,0.2-1.1,0.6-1.4
			c0.4-0.4,0.9-0.5,1.6-0.5c0.6,0,1.1,0.2,1.4,0.5c0.4,0.4,0.6,0.8,0.6,1.4v0.4c0.5-0.8,1.1-1.3,1.9-1.7c0.8-0.4,1.7-0.6,2.7-0.6
			C36.6,94.5,37.8,95,38.7,96z"/>
		<path d="M55.3,105.2c0.2,0.3,0.4,0.7,0.4,1.2c0,0.3-0.1,0.6-0.3,0.9c-0.2,0.3-0.5,0.5-0.8,0.7c-0.6,0.3-1.4,0.6-2.3,0.8
			c-0.9,0.2-1.7,0.3-2.4,0.3c-1.5,0-2.9-0.3-4-0.9c-1.1-0.6-2-1.4-2.6-2.5c-0.6-1.1-0.9-2.4-0.9-3.9c0-1.4,0.3-2.7,0.9-3.8
			c0.6-1.1,1.4-2,2.5-2.6c1-0.6,2.2-0.9,3.6-0.9c1.3,0,2.4,0.3,3.4,0.8c1,0.6,1.7,1.4,2.2,2.4c0.5,1,0.8,2.3,0.8,3.7
			c0,0.4-0.1,0.7-0.3,1s-0.5,0.3-0.8,0.3h-8c0.1,1.1,0.5,1.9,1,2.4c0.6,0.5,1.3,0.8,2.4,0.8c0.6,0,1-0.1,1.5-0.2
			c0.4-0.1,0.9-0.3,1.5-0.5c0.3-0.1,0.5-0.2,0.8-0.3c0.2-0.1,0.5-0.1,0.7-0.1C54.8,104.7,55.1,104.9,55.3,105.2z M47.5,98.3
			c-0.5,0.5-0.8,1.3-0.9,2.3h5.5c-0.1-1-0.3-1.8-0.8-2.3c-0.4-0.5-1.1-0.8-1.9-0.8C48.7,97.5,48,97.7,47.5,98.3z"/>
		<path d="M59.3,108.5c-0.4-0.4-0.6-0.9-0.6-1.6V90.8c0-0.7,0.2-1.2,0.6-1.6s0.9-0.6,1.6-0.6c0.7,0,1.2,0.2,1.6,0.6s0.6,0.9,0.6,1.6
			v16.1c0,0.7-0.2,1.2-0.6,1.6s-0.9,0.6-1.6,0.6C60.3,109.1,59.7,108.9,59.3,108.5z"/>
		<path d="M69.5,108.2c-1.1-0.6-1.9-1.4-2.5-2.5c-0.6-1.1-0.9-2.4-0.9-3.8c0-1.5,0.3-2.8,0.9-3.9c0.6-1.1,1.5-2,2.6-2.6
			c1.1-0.6,2.4-0.9,3.9-0.9c0.8,0,1.5,0.1,2.3,0.3c0.8,0.2,1.5,0.5,2.1,0.9c0.6,0.4,0.9,0.9,0.9,1.6c0,0.5-0.1,0.9-0.3,1.2
			C78.3,98.8,78,99,77.6,99c-0.2,0-0.5,0-0.7-0.1s-0.5-0.2-0.9-0.4c-0.4-0.2-0.8-0.4-1.1-0.5c-0.3-0.1-0.7-0.2-1.1-0.2
			c-1.1,0-1.9,0.3-2.4,1c-0.6,0.7-0.8,1.7-0.8,3c0,1.3,0.3,2.3,0.8,3c0.6,0.7,1.4,1,2.4,1c0.4,0,0.8-0.1,1.1-0.2
			c0.3-0.1,0.7-0.3,1.1-0.5c0.4-0.2,0.6-0.3,0.9-0.4c0.2-0.1,0.4-0.1,0.7-0.1c0.4,0,0.7,0.2,0.9,0.5s0.4,0.7,0.4,1.2
			c0,0.7-0.3,1.2-0.9,1.6c-0.6,0.4-1.3,0.7-2.1,0.9c-0.8,0.2-1.6,0.3-2.5,0.3C71.9,109.1,70.6,108.8,69.5,108.2z"/>
		<path d="M83.8,108.2c-1.1-0.6-2-1.4-2.6-2.5c-0.6-1.1-0.9-2.4-0.9-3.9c0-1.5,0.3-2.8,0.9-3.9c0.6-1.1,1.5-1.9,2.6-2.5
			s2.4-0.9,3.9-0.9c1.5,0,2.8,0.3,3.9,0.9c1.1,0.6,2,1.4,2.6,2.5c0.6,1.1,0.9,2.4,0.9,3.9c0,1.5-0.3,2.8-0.9,3.9
			c-0.6,1.1-1.5,1.9-2.6,2.5c-1.1,0.6-2.4,0.9-3.9,0.9C86.3,109.1,85,108.8,83.8,108.2z M90.9,101.8c0-1.4-0.3-2.4-0.8-3
			c-0.5-0.7-1.3-1-2.3-1c-2.1,0-3.1,1.3-3.1,4s1,4,3.1,4C89.8,105.8,90.9,104.5,90.9,101.8z"/>
		<path d="M110.4,96c0.8,1,1.2,2.5,1.2,4.5v6.6c0,0.6-0.2,1.1-0.6,1.5c-0.4,0.4-0.9,0.5-1.6,0.5c-0.7,0-1.2-0.2-1.6-0.5
			c-0.4-0.4-0.6-0.9-0.6-1.5v-6.4c0-1-0.2-1.7-0.5-2.1c-0.4-0.4-0.9-0.7-1.6-0.7c-0.9,0-1.6,0.3-2.2,0.9c-0.5,0.6-0.8,1.3-0.8,2.3v6
			c0,0.6-0.2,1.1-0.6,1.5c-0.4,0.4-0.9,0.5-1.6,0.5c-0.7,0-1.2-0.2-1.6-0.5c-0.4-0.4-0.6-0.9-0.6-1.5V96.5c0-0.6,0.2-1.1,0.6-1.4
			c0.4-0.4,0.9-0.5,1.6-0.5c0.6,0,1.1,0.2,1.4,0.5c0.4,0.4,0.6,0.8,0.6,1.4v0.4c0.5-0.8,1.1-1.3,1.9-1.7s1.7-0.6,2.7-0.6
			C108.3,94.5,109.6,95,110.4,96z"/>
		<path d="M117.1,108.8c-0.9-0.2-1.6-0.5-2.3-0.9c-0.3-0.2-0.5-0.4-0.7-0.7c-0.2-0.3-0.2-0.6-0.2-1c0-0.4,0.1-0.8,0.4-1.1
			c0.2-0.3,0.6-0.4,0.9-0.4c0.2,0,0.5,0,0.7,0.1c0.2,0.1,0.5,0.2,0.8,0.3c0.5,0.2,1.1,0.4,1.6,0.6c0.5,0.1,1.2,0.2,1.9,0.2
			c0.7,0,1.2-0.1,1.6-0.3s0.6-0.5,0.6-0.9c0-0.3-0.1-0.5-0.2-0.6c-0.2-0.2-0.5-0.3-0.9-0.4c-0.4-0.1-1.1-0.3-2.1-0.5
			c-1.7-0.3-2.9-0.8-3.7-1.5c-0.7-0.6-1.1-1.6-1.1-2.7c0-0.9,0.3-1.6,0.8-2.3s1.2-1.2,2.2-1.6c0.9-0.4,1.9-0.6,3.1-0.6
			c0.8,0,1.6,0.1,2.4,0.3c0.8,0.2,1.5,0.5,2.1,0.9c0.6,0.4,0.9,0.9,0.9,1.6c0,0.5-0.1,0.8-0.4,1.1c-0.2,0.3-0.6,0.5-0.9,0.5
			c-0.4,0-1-0.2-1.6-0.5c-0.5-0.2-0.9-0.4-1.3-0.6c-0.4-0.1-0.9-0.2-1.4-0.2c-0.6,0-1.1,0.1-1.4,0.3c-0.3,0.2-0.5,0.5-0.5,0.9
			c0,0.4,0.2,0.7,0.6,0.9c0.4,0.2,1.2,0.4,2.3,0.6c1.3,0.2,2.3,0.5,3,0.9c0.7,0.4,1.3,0.8,1.6,1.3c0.3,0.5,0.5,1.2,0.5,2
			c0,1.4-0.6,2.4-1.7,3.2c-1.1,0.8-2.6,1.2-4.5,1.2C119,109.1,118,109,117.1,108.8z"/>
	</g>
</g>
</svg>
