<?xml version="1.0" encoding="utf-8"?>
<!-- Generator: Adobe Illustrator 23.0.0, SVG Export Plug-In . SVG Version: 6.00 Build 0)  -->
<svg version="1.1" id="Layer_1" xmlns="http://www.w3.org/2000/svg" xmlns:xlink="http://www.w3.org/1999/xlink" x="0px" y="0px"
	 viewBox="0 0 64 64" style="enable-background:new 0 0 64 64;" xml:space="preserve">
<g>
	<path d="M13.3,29.3H2.7C1.1,29.3,0,30.4,0,32c0,1.6,1.1,2.7,2.7,2.7h10.7c1.6,0,2.7-1.1,2.7-2.7C16,30.4,14.9,29.3,13.3,29.3z"/>
	<path d="M61.3,29.3H50.7c-1.6,0-2.7,1.1-2.7,2.7c0,1.6,1.1,2.7,2.7,2.7h10.7c1.6,0,2.7-1.1,2.7-2.7C64,30.4,62.9,29.3,61.3,29.3z"
		/>
	<path d="M37.3,29.3H26.7c-1.6,0-2.7,1.1-2.7,2.7c0,1.6,1.1,2.7,2.7,2.7h10.7c1.6,0,2.7-1.1,2.7-2.7C40,30.4,38.9,29.3,37.3,29.3z"
		/>
</g>
</svg>
