<?xml version="1.0" encoding="utf-8"?>
<!-- Generator: Adobe Illustrator 22.0.1, SVG Export Plug-In . SVG Version: 6.00 Build 0)  -->
<svg version="1.1" id="Layer_1" xmlns="http://www.w3.org/2000/svg" xmlns:xlink="http://www.w3.org/1999/xlink" x="0px" y="0px"
	 viewBox="0 0 64 64" style="enable-background:new 0 0 64 64;" xml:space="preserve">
<path d="M64,27.5c0-14.3-14.4-26-32-26S0,13.2,0,27.5c0,12.8,11.4,23.6,26.8,25.6c1,0.2,2.5,0.7,2.8,1.6c0.3,0.8,0.2,2.1,0.1,2.9
	c0,0-0.4,2.3-0.5,2.7c-0.1,0.8-0.6,3.2,2.8,1.7c3.4-1.4,18.4-10.9,25.1-18.6l0,0C61.8,38.4,64,33.2,64,27.5z M20.7,35.1
	c0,0.3-0.3,0.6-0.6,0.6h-9l0,0c-0.2,0-0.3-0.1-0.4-0.2l0,0l0,0c-0.1-0.1-0.2-0.3-0.2-0.4l0,0V21.2c0-0.3,0.3-0.6,0.6-0.6h2.2
	c0.3,0,0.6,0.3,0.6,0.6v11.1h6.1c0.3,0,0.6,0.3,0.6,0.6L20.7,35.1L20.7,35.1z M26.1,35.1c0,0.3-0.3,0.6-0.6,0.6h-2.2
	c-0.3,0-0.6-0.3-0.6-0.6V21.2c0-0.3,0.3-0.6,0.6-0.6h2.2c0.3,0,0.6,0.3,0.6,0.6V35.1z M41.6,35.1c0,0.3-0.3,0.6-0.6,0.6h-2.2
	c-0.1,0-0.1,0-0.2,0h0c0,0,0,0,0,0c0,0,0,0,0,0c0,0,0,0,0,0c0,0,0,0,0,0c0,0,0,0,0,0c0,0,0,0,0,0c0,0,0,0,0,0
	c-0.1,0-0.1-0.1-0.2-0.2l-6.4-8.6v8.3c0,0.3-0.3,0.6-0.6,0.6h-2.2c-0.3,0-0.6-0.3-0.6-0.6V21.2c0-0.3,0.3-0.6,0.6-0.6h2.2
	c0,0,0,0,0,0c0,0,0,0,0,0c0,0,0,0,0,0c0,0,0,0,0,0c0,0,0,0,0,0c0,0,0,0,0,0c0,0,0,0,0,0c0,0,0,0,0,0c0,0,0,0,0,0c0,0,0,0,0,0
	c0,0,0,0,0,0c0,0,0,0,0,0c0,0,0,0,0,0c0,0,0,0,0,0c0,0,0,0,0,0c0,0,0,0,0,0c0,0,0,0,0,0c0,0,0,0,0,0c0,0,0,0,0.1,0.1l6.4,8.6v-8.3
	c0-0.3,0.3-0.6,0.6-0.6H41c0.3,0,0.6,0.3,0.6,0.6L41.6,35.1L41.6,35.1z M54,23.4c0,0.3-0.3,0.6-0.6,0.6h-6.1v2.4h6.1
	c0.3,0,0.6,0.3,0.6,0.6v2.2c0,0.3-0.3,0.6-0.6,0.6h-6.1v2.4h6.1c0.3,0,0.6,0.3,0.6,0.6v2.2c0,0.3-0.3,0.6-0.6,0.6h-9l0,0
	c-0.2,0-0.3-0.1-0.4-0.2l0,0l0,0c-0.1-0.1-0.2-0.3-0.2-0.4l0,0V21.2l0,0c0-0.2,0.1-0.3,0.2-0.4c0,0,0,0,0,0l0,0
	c0.1-0.1,0.3-0.2,0.4-0.2l0,0h9c0.3,0,0.6,0.3,0.6,0.6L54,23.4L54,23.4z"/>
</svg>
