<?xml version="1.0" encoding="utf-8"?>
<!-- Generator: Adobe Illustrator 23.0.0, SVG Export Plug-In . SVG Version: 6.00 Build 0)  -->
<svg version="1.1" id="Layer_1" xmlns="http://www.w3.org/2000/svg" xmlns:xlink="http://www.w3.org/1999/xlink" x="0px" y="0px"
	 viewBox="0 0 64 64" style="enable-background:new 0 0 64 64;" xml:space="preserve">
<g>
	<path d="M15.2,6.1c-1.1-1.1-2.7-1.1-3.7,0L0.8,16c-1.1,1.1-1.1,2.7-0.3,3.7c1.1,1.1,2.7,1.1,3.7,0.3l6.4-5.9v36l-5.6-5.6
		c-1.1-1.1-2.7-1.1-3.7,0s-1.1,2.7,0,3.7l9.9,9.9c0.5,0.3,1.1,0.5,1.9,0.5c0.8,0,1.3-0.3,1.9-0.8l9.9-9.9c1.1-1.1,1.1-2.7,0-3.7
		c-1.1-1.1-2.7-1.1-3.7,0L16,49.3V14.1l6.1,5.6c0.5,0.5,1.1,0.8,1.9,0.8s1.3-0.3,1.9-0.8c1.1-1.1,0.8-2.7-0.3-3.7L15.2,6.1z"/>
	<path d="M34.7,10.7h26.7c1.6,0,2.7-1.1,2.7-2.7s-1.1-2.7-2.7-2.7H34.7C33.1,5.3,32,6.4,32,8S33.1,10.7,34.7,10.7z"/>
	<path d="M61.3,21.3H34.7c-1.6,0-2.7,1.1-2.7,2.7s1.1,2.7,2.7,2.7h26.7c1.6,0,2.7-1.1,2.7-2.7S62.9,21.3,61.3,21.3z"/>
	<path d="M61.3,37.3H34.7c-1.6,0-2.7,1.1-2.7,2.7s1.1,2.7,2.7,2.7h26.7c1.6,0,2.7-1.1,2.7-2.7S62.9,37.3,61.3,37.3z"/>
	<path d="M61.3,53.3H34.7c-1.6,0-2.7,1.1-2.7,2.7s1.1,2.7,2.7,2.7h26.7c1.6,0,2.7-1.1,2.7-2.7S62.9,53.3,61.3,53.3z"/>
</g>
</svg>
