<?xml version="1.0" encoding="utf-8"?>
<!-- Generator: Adobe Illustrator 23.0.0, SVG Export Plug-In . SVG Version: 6.00 Build 0)  -->
<svg version="1.1" id="Layer_2_1_" xmlns="http://www.w3.org/2000/svg" xmlns:xlink="http://www.w3.org/1999/xlink" x="0px" y="0px"
	 viewBox="0 0 64 64" style="enable-background:new 0 0 64 64;" xml:space="preserve">
<g>
	<path d="M51.3,18.7h-5.9v-4c0-8-5.9-14.7-13.3-14.7S18.8,6.4,18.8,14.7v4h-5.9c-4.3,0-7.5,3.2-7.5,7.5v17.6
		C5.5,54.9,14.5,64,25.7,64h12.5c11.2,0,20.3-9.1,20.3-20.3V25.9C58.8,21.9,55.6,18.7,51.3,18.7z M24.1,14.7c0-5.1,3.5-9.3,8-9.3
		s8,4,8,9.3v4h-16V14.7z M53.5,43.7c0,8.3-6.7,14.9-14.9,14.9H26c-8.5,0-15.2-6.7-15.2-14.9V26.1c0-1.3,0.8-2.1,2.1-2.1h38.7
		c1.1,0,2.1,0.8,2.1,2.1L53.5,43.7L53.5,43.7z"/>
	<path d="M34.8,40h-5.3c-2.9,0-5.3,2.4-5.3,5.3v5.3c0,2.9,2.4,5.3,5.3,5.3h5.3c2.9,0,5.3-2.4,5.3-5.3v-5.3
		C40.1,42.4,37.7,40,34.8,40z M29.5,50.7v-5.3h5.3v5.3H29.5z"/>
</g>
</svg>
