<?xml version="1.0" encoding="utf-8"?>
<!-- Generator: Adobe Illustrator 23.0.0, SVG Export Plug-In . SVG Version: 6.00 Build 0)  -->
<svg version="1.1" id="Layer_2_1_" xmlns="http://www.w3.org/2000/svg" xmlns:xlink="http://www.w3.org/1999/xlink" x="0px" y="0px"
	 viewBox="0 0 64 64" style="enable-background:new 0 0 64 64;" xml:space="preserve">
<g>
	<path d="M62.6,51.9L47.9,37.2c-1.9-1.9-5.1-1.9-7,0l0,0l-4.8-5.1c5.9-7.8,5.4-19.3-1.9-26.3C26.4-2,13.6-2,5.8,5.8
		s-7.8,20.6,0,28.4c4,4,9.1,5.9,14.2,5.9c4.3,0,8.6-1.3,12.1-4l4.8,4.8l0,0c-1.9,1.9-1.9,5.1,0,7l14.7,14.7c1.1,1.1,2.1,1.3,3.5,1.3
		l0,0c1.3,0,2.7-0.5,3.5-1.3l4-4c1.1-1.1,1.3-2.1,1.3-3.5C64,53.8,63.7,52.7,62.6,51.9z M30.5,30.5c-5.6,5.6-15,5.6-20.9,0
		c-5.6-5.6-5.6-15,0-20.9c2.9-2.9,6.7-4.3,10.5-4.3s7.5,1.3,10.5,4.3C36.1,15.4,36.1,24.6,30.5,30.5z M55.4,58.6L40.9,44.1l3.5-3.5
		l14.5,14.5L55.4,58.6z"/>
	<path d="M23.8,11.4c-1.1,1.1-1.1,2.7,0,3.8s1.9,2.7,1.9,4.3c0,1.6-0.5,3.2-1.9,4.3c-1.1,1.1-1.1,2.7,0,3.8c0.5,0.5,1.3,0.8,1.9,0.8
		s1.3-0.3,1.9-0.8c2.1-2.1,3.5-5.1,3.5-8s-1.1-5.9-3.5-8C26.4,10.3,24.8,10.3,23.8,11.4z"/>
</g>
</svg>
