<?xml version="1.0" encoding="utf-8"?>
<!-- Generator: Adobe Illustrator 22.0.1, SVG Export Plug-In . SVG Version: 6.00 Build 0)  -->
<svg version="1.1" id="Layer_2_1_" xmlns="http://www.w3.org/2000/svg" xmlns:xlink="http://www.w3.org/1999/xlink" x="0px" y="0px"
	 viewBox="0 0 64 64" style="enable-background:new 0 0 64 64;" xml:space="preserve">
<path d="M56,8.3c-5.1-5.1-11.8-8-19-8c-7,0-13.1,2.7-17.9,7.2L1.1,25.7C0.3,26.5,0,27.6,0,28.4c0,1.1,0.5,2.1,1.1,2.7l10.2,10.2
	c1.6,1.6,4.3,1.6,5.6,0l16.9-16.9c1.6-1.6,4.3-2.1,6.2-0.8c0.8,0.8,1.3,1.6,1.3,2.9s-0.5,2.7-1.3,3.5L22.8,47.1l0,0
	c-0.8,0.8-1.1,1.9-1.1,2.7c0,1.1,0.5,2.1,1.1,2.7l10.2,10.2c0.8,0.8,1.9,1.1,2.9,1.1c1.1,0,2.1-0.3,2.9-1.1l17.9-17.9
	C66.7,35.3,66.4,19,56,8.3z M13.9,36.7l-8.3-8.3l6.2-6.2l8.3,8.3L13.9,36.7z M35.9,58.6l-8.3-8.3l6.2-6.2l8.3,8.3L35.9,58.6z
	 M53,41.5l-7.2,7.2l-8.3-8.3l6.2-6.2c2.1-2.1,3.2-4.8,2.9-7.5s-1.3-5.1-3.5-6.7c-3.7-3.2-9.4-2.7-13.1,1.1l-6.2,6.2L15.5,19l7.2-7.2
	c3.7-4,8.6-6.2,13.9-6.2l0,0c5.9,0,11.2,2.4,15.5,6.4C60.5,20.6,60.8,33.7,53,41.5z"/>
</svg>
