<?xml version="1.0" encoding="utf-8"?>
<!-- Generator: Adobe Illustrator 22.0.1, SVG Export Plug-In . SVG Version: 6.00 Build 0)  -->
<svg version="1.1" id="Layer_1" xmlns="http://www.w3.org/2000/svg" xmlns:xlink="http://www.w3.org/1999/xlink" x="0px" y="0px"
	 viewBox="0 0 64 64" style="enable-background:new 0 0 64 64;" xml:space="preserve">
<path d="M47.2,30.2c0.4-0.1,0.9-0.1,1.3,0c0.2-0.5,0.3-1.5,0.1-2.5c-0.3-1.5-0.7-2.4-1.6-2.3c-0.9,0.1-0.9,1.2-0.6,2.8
	C46.5,29,46.8,29.8,47.2,30.2L47.2,30.2z M39.6,31.4c0.6,0.3,1,0.5,1.2,0.3c0.3-0.3-0.5-1.3-1.7-1.9c-1.4-0.6-3.1-0.4-4.4,0.5
	c-0.4,0.3-0.8,0.7-0.8,1c0.1,0.5,1.4-0.4,3.2-0.5C38.1,30.8,38.9,31.2,39.6,31.4L39.6,31.4z M38.3,32.2c-1.3,0.2-2.1,0.9-1.9,1.4
	c0.1,0,0.2,0.1,0.7-0.1c0.9-0.3,1.8-0.4,2.7-0.3c0.4,0,0.6,0.1,0.7-0.1C40.7,32.8,39.7,32,38.3,32.2L38.3,32.2z M46,34.6
	c0.5-1-1.6-2-2-1C43.5,34.6,45.5,35.6,46,34.6L46,34.6z M48.2,31.7c-1.1,0-1.1,2.3,0,2.3C49.3,34,49.3,31.7,48.2,31.7L48.2,31.7z
	 M17,42.9c-0.2,0-0.9,0.2-1.2-0.3c-0.7-1.1,1.6-2.9,0.4-5.1c-1.3-2.5-4-1.9-5-0.8c-1.2,1.4-1.2,3.4-0.7,3.4c0.6,0.1,0.6-0.9,1.1-1.7
	c0.5-0.8,1.7-1.1,2.5-0.5c0,0,0,0,0,0c1.7,1.1,0.2,2.5,0.3,4.1c0.2,2.4,2.6,2.3,3.1,1.3c0.1-0.1,0-0.2,0-0.3
	C17.5,43.1,17.6,42.8,17,42.9L17,42.9z M59.8,40.5c-0.5-1.7-0.4-1.3-1-2.9c0.3-0.5,2.2-3.4-0.4-6.2c-1.5-1.6-4.8-2.4-5.9-2.6
	c-0.2-1.6,0.7-8.4-3.1-11.8c3-3.1,4.8-6.5,4.8-9.4c0-5.6-6.9-7.3-15.3-3.8l-1.8,0.8c0,0-3.2-3.2-3.3-3.2C24.2-7.1-5.9,26.4,3.7,34.5
	l2.1,1.8c-0.6,1.5-0.8,3.2-0.6,4.8c0.5,4.8,5.1,8.6,9.6,8.6c8.2,19,38.2,19,45.9,0.4c0.2-0.6,1.3-3.5,1.3-6S60.7,40.5,59.8,40.5
	L59.8,40.5z M14.7,47.4c-3.3-0.1-6.8-3-7.1-6.5c-0.9-8.7,10.6-10.7,12-1.8C20.2,43.3,18.9,47.5,14.7,47.4L14.7,47.4z M12.1,31.1
	c-2.2,0.4-4.1,1.6-5.2,3.3c-0.7-0.6-2-1.7-2.2-2.1c-1.9-3.5,2-10.4,4.7-14.3C16.1,8.4,26.6,1.2,31.5,2.5c0.8,0.2,3.4,3.3,3.4,3.3
	s-4.9,2.7-9.4,6.5C19.4,16.9,14.8,23.7,12.1,31.1L12.1,31.1z M46.1,45.5c0,0-5.1,0.8-9.9-1c0.9-2.9,3.8,0.9,13.7-2
	c2.2-0.6,5-1.9,7.3-3.6c0.5,1.1,0.8,2.3,1,3.5c0.5-0.1,2-0.1,1.6,2.6c-0.5,2.8-1.7,5.1-3.7,7.2c-1.3,1.4-2.8,2.5-4.4,3.3
	c-0.9,0.5-1.9,0.9-2.9,1.2c-7.6,2.5-15.4-0.2-18-6.1c-0.2-0.4-0.4-0.9-0.5-1.4c-1.1-3.9-0.2-8.5,2.7-11.5c0.2-0.2,0.4-0.4,0.4-0.7
	c0-0.2-0.1-0.5-0.3-0.6c-1-1.4-4.4-3.9-3.8-8.7c0.5-3.4,3.5-5.8,6.3-5.7l0.7,0c1.2,0.1,2.3,0.2,3.3,0.3c1.7,0.1,3.2-0.2,4.9-1.6
	c0.6-0.5,1.1-0.9,1.9-1.1c0.7-0.2,1.4,0,1.9,0.3c1.4,0.9,1.6,3.2,1.7,4.9c0,1,0.2,3.3,0.2,3.9c0.1,1.5,0.5,1.7,1.3,2
	c0.5,0.1,0.9,0.3,1.5,0.4c1.9,0.5,3,1.1,3.7,1.8c0.4,0.4,0.6,0.8,0.7,1.3c0.2,1.6-1.3,3.6-5.2,5.4c-6.7,3.1-13.4,2.1-14.3,2
	c-2.9-0.4-4.5,3.3-2.8,5.9c3.2,4.8,17.4,2.9,21.6-3c0.1-0.1,0-0.2-0.1-0.1c-6,4.1-13.8,5.4-18.3,3.7c-0.7-0.3-2.1-0.9-2.3-2.4
	c6.2,1.9,10.1,0.1,10.1,0.1S46.5,45.5,46.1,45.5L46.1,45.5z M24.5,18c2.4-2.8,5.3-5.2,8-6.5c0,0,0.1,0,0.1,0c0,0,0,0.1,0,0.1
	c-0.2,0.4-0.6,1.2-0.7,1.8c0,0.1,0,0.1,0.1,0.1c0,0,0.1,0,0.1,0c1.6-1.1,4.5-2.3,7-2.5c0.1,0,0.1,0,0.1,0.1c0,0,0,0.1,0,0.1
	c-0.4,0.3-0.8,0.7-1.1,1.1c0,0,0,0.1,0,0.1c0,0,0,0,0.1,0c1.8,0,4.2,0.6,5.8,1.5c0.1,0.1,0,0.3-0.1,0.2c-9.9-2.3-17.5,2.6-19.2,3.8
	c-0.1,0-0.1,0-0.1,0C24.5,18,24.5,18,24.5,18L24.5,18z"/>
</svg>
