<?xml version="1.0" encoding="utf-8"?>
<!-- Generator: Adobe Illustrator 22.0.1, SVG Export Plug-In . SVG Version: 6.00 Build 0)  -->
<svg version="1.1" id="Layer_2_1_" xmlns="http://www.w3.org/2000/svg" xmlns:xlink="http://www.w3.org/1999/xlink" x="0px" y="0px"
	 viewBox="0 0 64 64" style="enable-background:new 0 0 64 64;" xml:space="preserve">
<g>
	<path d="M32,0C18.7,0,8,11.2,8,25.3c0,12,16.5,31.7,21.6,37.6c0.5,0.8,1.6,1.1,2.4,1.1c1.1,0,1.9-0.5,2.4-1.1
		C39.5,57.1,56,37.1,56,25.3C56,11.2,45.3,0,32,0z M32,57.6c-9.1-10.7-18.7-24.8-18.7-32.3c0-11.2,8.3-20,18.7-20s18.7,9.1,18.7,20
		C50.7,32.8,41.1,46.9,32,57.6z"/>
	<path d="M32,13.3c-5.9,0-10.7,4.8-10.7,10.7S26.1,34.7,32,34.7S42.7,29.9,42.7,24S37.9,13.3,32,13.3z M32,29.3
		c-2.9,0-5.3-2.4-5.3-5.3s2.4-5.3,5.3-5.3s5.3,2.4,5.3,5.3S34.9,29.3,32,29.3z"/>
</g>
</svg>
