<?xml version="1.0" encoding="utf-8"?>
<!-- Generator: Adobe Illustrator 22.0.1, SVG Export Plug-In . SVG Version: 6.00 Build 0)  -->
<svg version="1.1" id="Layer_2_1_" xmlns="http://www.w3.org/2000/svg" xmlns:xlink="http://www.w3.org/1999/xlink" x="0px" y="0px"
	 viewBox="0 0 64 64" style="enable-background:new 0 0 64 64;" xml:space="preserve">
<g>
	<ellipse cx="30.8" cy="11.9" rx="2.1" ry="1.9"/>
	<path d="M60.7,16.7l-20.5-4.8c0-5.1-4.3-9.1-9.3-9.1s-9.3,4.3-9.3,9.3c0,1.1,0.3,2.4,1.1,4l-0.8-0.3L5.5,11.6
		c-1.3-0.3-2.7,0-3.7,0.8c-1.3,0.5-1.9,1.9-1.9,3.2v33.9c0,1.9,1.3,3.5,2.9,4l17.3,7.5h0.3c0.5,0,1.1,0.3,1.3,0.3
		c0.5,0,1.1,0,1.6-0.3L42,53.2l16.5,6.4h0.3c0.3,0,0.5,0,1.1,0c0.8,0,1.9-0.3,2.7-0.8c1.1-0.8,1.6-2.1,1.6-3.5V20.7
		C63.9,18.8,62.5,16.9,60.7,16.7z M30.8,7.9c2.1,0,4,1.6,4,4c0,1.1-1.3,4-4,8c-2.7-4-4-7.2-4-8C26.8,9.5,28.7,7.9,30.8,7.9z
		 M27.9,25.2c0.5,0.8,1.6,1.3,2.7,1.3l0,0c1.1,0,2.1-0.5,2.7-1.3c2.1-2.9,3.7-5.6,4.8-8l1.6-0.3v31.2l-16,6.7V20.9l1.1-0.3
		C25.7,22,26.8,23.6,27.9,25.2z M5.2,16.9l13.3,3.7v33.9L5.2,48.9V16.9z M58.5,54l-13.3-5.3V18.3l13.3,3.2V54z"/>
</g>
</svg>
