<?xml version="1.0" encoding="utf-8"?>
<!-- Generator: Adobe Illustrator 23.0.0, SVG Export Plug-In . SVG Version: 6.00 Build 0)  -->
<svg version="1.1" id="Layer_1" xmlns="http://www.w3.org/2000/svg" xmlns:xlink="http://www.w3.org/1999/xlink" x="0px" y="0px"
	 viewBox="0 0 64 64" style="enable-background:new 0 0 64 64;" xml:space="preserve">
<g>
	<path d="M55.3,14.1C50.8,5.3,41.7,0,31.9,0S12.9,5.3,8.4,14.1c-1.9,3.7-2.9,7.5-2.9,11.2v0.3c0,0.3,0,0.8,0.3,1.1
		c2.4,5.1,8.5,9.1,16.5,10.9l-1.9,15.7c-0.3,2.7,0.5,5.3,2.4,7.5c1.9,2.1,4.5,3.2,7.2,3.2h4c2.7,0,5.3-1.1,7.2-3.2
		c1.9-2.1,2.7-4.8,2.4-7.5L42,37.9c8-1.9,14.1-5.6,16.5-10.9c0-0.3,0-0.8,0-1.1C58.3,21.6,57.5,17.9,55.3,14.1z M38.3,53.9
		c0,1.3-0.3,2.4-1.1,3.5c-0.8,0.8-1.9,1.3-3.2,1.3h-4c-1.3,0-2.4-0.5-3.2-1.3c-0.8-0.8-1.3-2.1-1.1-3.5l1.6-15.2
		c1.6,0.3,2.9,0.3,4.5,0.3c1.6,0,3.2,0,4.8-0.3L38.3,53.9z M31.9,33.6c-10.9,0-18.9-4-21.3-8.3c0.3-2.9,0.8-5.6,2.4-8.5
		C16.7,9.6,23.9,5.3,31.9,5.3s15.2,4.3,18.9,11.5c1.3,2.7,2.1,5.6,2.4,8.5C50.8,29.3,42.8,33.6,31.9,33.6z"/>
	<circle cx="21.2" cy="24" r="2.7"/>
	<circle cx="42.5" cy="24" r="2.7"/>
	<circle cx="31.9" cy="13.3" r="2.7"/>
</g>
</svg>
