<?xml version="1.0" encoding="utf-8"?>
<!-- Generator: Adobe Illustrator 22.0.1, SVG Export Plug-In . SVG Version: 6.00 Build 0)  -->
<svg version="1.1" id="Layer_1" xmlns="http://www.w3.org/2000/svg" xmlns:xlink="http://www.w3.org/1999/xlink" x="0px" y="0px"
	 viewBox="0 0 64 64" style="enable-background:new 0 0 64 64;" xml:space="preserve">
<g>
	<path d="M60.8,13.1H3.2c-1.8,0-3.2,1.4-3.2,3.2v31.4c0,1.8,1.4,3.2,3.2,3.2h57.5c1.8,0,3.2-1.4,3.2-3.2V16.3
		C64,14.5,62.5,13.1,60.8,13.1z M60.3,47.2H3.8V16.8h56.5V47.2z"/>
	<path d="M26,42.4c2,0,3.9-0.5,5.5-1.6c1.8,1.2,3.9,2,6.1,2c6,0,10.8-4.9,10.8-10.8s-4.9-10.8-10.8-10.8c-2.2,0-4.4,0.7-6.1,2
		C29.8,22,28,21.5,26,21.5c-5.8,0-10.5,4.7-10.5,10.5S20.2,42.4,26,42.4z M33.7,25c1.2-0.7,2.5-1,3.9-1c4.4,0,8.1,3.6,8.1,8.1
		c0.1,4.5-3.5,8.1-8,8.1c-1.5,0-2.8-0.4-3.9-1c1.7-1.9,2.8-4.3,2.8-7C36.5,29.3,35.5,26.8,33.7,25z"/>
</g>
</svg>
