<?xml version="1.0" encoding="utf-8"?>
<!-- Generator: Adobe Illustrator 23.0.0, SVG Export Plug-In . SVG Version: 6.00 Build 0)  -->
<svg version="1.1" id="Layer_1" xmlns="http://www.w3.org/2000/svg" xmlns:xlink="http://www.w3.org/1999/xlink" x="0px" y="0px"
	 viewBox="0 0 64 64" style="enable-background:new 0 0 64 64;" xml:space="preserve">
<g>
	<path d="M32,18.6c-5,0-9,4-9,9s4,9,9,9s9-4,9-9S37,18.6,32,18.6z M32,31.3c-2.1,0-3.7-1.6-3.7-3.7s1.6-3.7,3.7-3.7s3.7,1.6,3.7,3.7
		S34.1,31.3,32,31.3z"/>
	<path d="M47.9,17.5V3.5c0-1.9-1.6-3.5-3.5-3.5h-25c-1.9,0-3.5,1.6-3.5,3.5v14.1c-1.6,2.7-2.7,5.3-2.9,8.5
		c-0.3,4.2,0.8,8.2,2.9,11.7v22.6c0,1.3,0.5,2.4,1.6,3.2c0.5,0.3,1.1,0.5,1.9,0.5c0.5,0,1.3-0.3,1.9-0.5L32,57.4l10.6,6.1h0.3
		c1.1,0.5,2.4,0.3,3.5-0.3c1.1-0.5,1.6-1.9,1.6-2.9V37.7c1.6-2.7,2.7-5.3,2.9-8.5C51.1,25,50.1,21,47.9,17.5z M30.9,41.2
		c-7.4-0.5-13-7.2-12.5-14.6c0.5-7.4,7.2-13,14.6-12.5c3.7,0.3,6.9,1.9,9.3,4.8c2.4,2.9,3.5,6.4,3.2,9.8
		C44.7,36.1,38.4,41.7,30.9,41.2z M42.6,5.3v6.9c-2.7-1.9-5.8-2.9-9-3.2c-4.2-0.3-8.5,0.8-12.2,3.2V5.3H42.6z M33.9,52.3
		c-1.1-0.8-2.7-0.8-3.7,0l-8.8,4.8V43c2.7,1.9,5.6,2.9,9,3.2c0.5,0,1.1,0,1.6,0c3.7,0,7.4-1.3,10.6-3.5v14.1L33.9,52.3z"/>
</g>
</svg>
