<?xml version="1.0" encoding="utf-8"?>
<!-- Generator: Adobe Illustrator 23.0.0, SVG Export Plug-In . SVG Version: 6.00 Build 0)  -->
<svg version="1.1" id="Layer_1" xmlns="http://www.w3.org/2000/svg" xmlns:xlink="http://www.w3.org/1999/xlink" x="0px" y="0px"
	 viewBox="0 0 64 64" style="enable-background:new 0 0 64 64;" xml:space="preserve">
<g>
	<path d="M53.4,29.1c0-5.3-2.1-10.2-5.3-13.9V3.5C48,1.6,46.4,0,44.6,0H19.7C17.6,0,16,1.6,16,3.5V15c-3.2,3.7-5.3,8.6-5.3,13.9
		S12.8,39,16,42.8v17.6c0,1.3,0.8,2.4,1.9,2.9c0.5,0.3,1.3,0.5,1.9,0.5c0.5,0,1.1-0.3,1.6-0.3l11-5.3L43,63.6c1.1,0.5,2.4,0.5,3.5,0
		c1.1-0.5,1.9-1.9,1.9-2.9V43C51.2,39.3,53.4,34.5,53.4,29.1z M42.7,5.3V11C39.5,9.1,36,8,32,8S24.5,9.1,21.3,11V5.3H42.7z M32,13.1
		c8.8,0,16,7.2,16,15.8s-7.2,15.8-16,15.8s-16-7.2-16-15.8S23.2,13.1,32,13.1z M34.4,53.4c-1.6-0.8-3.2-0.8-4.8,0l-8.3,4.3V47.3
		c3.2,1.9,6.7,2.9,10.7,2.9s7.5-1.1,10.7-2.9v10.4L34.4,53.4z"/>
	<path d="M25.6,32.1L22.6,35c-1.1,1.1-1.1,2.7,0,3.7c0.5,0.5,1.3,0.8,1.9,0.8c0.5,0,1.3-0.3,1.9-0.8l2.9-2.9v4.3
		c0,1.6,1.1,2.7,2.7,2.7c1.6,0,2.7-1.1,2.7-2.7v-4.3l2.9,2.9c0.5,0.5,1.3,0.8,1.9,0.8s1.3-0.3,1.9-0.8c1.1-1.1,1.1-2.7,0-3.7
		l-2.9-2.9h4.3c1.6,0,2.7-1.1,2.7-2.7c0-1.6-1.1-2.7-2.7-2.7h-4.3l2.9-2.9c1.1-1.1,1.1-2.7,0-3.7c-1.1-1.1-2.7-1.1-3.7,0L34.7,23
		v-4.3c0-1.6-1.1-2.7-2.7-2.7c-1.6,0-2.7,1.1-2.7,2.7V23L26.4,20c-1.1-1.1-2.7-1.1-3.7,0c-1.1,1.1-1.1,2.7,0,3.7l2.9,2.9h-4.3
		c-1.6,0-2.7,1.1-2.7,2.7c0,1.6,1.1,2.7,2.7,2.7H25.6z"/>
</g>
</svg>
