<?xml version="1.0" encoding="utf-8"?>
<!-- Generator: Adobe Illustrator 22.0.1, SVG Export Plug-In . SVG Version: 6.00 Build 0)  -->
<svg version="1.1" id="Layer_1" xmlns="http://www.w3.org/2000/svg" xmlns:xlink="http://www.w3.org/1999/xlink" x="0px" y="0px"
	 viewBox="0 0 64 64" style="enable-background:new 0 0 64 64;" xml:space="preserve">
<path d="M0,57.4l6.2-8.3c0,0,1.7-1.3,1.7-7.1s0-25.7,0-25.7s0.3-2.3-1.9-5C3.8,8.6,1.7,6,1.7,6h17.6l14.6,31.6L46.6,6h17.4l-5.4,6.2
	v39.4l5.5,5.7H39.7L45,52l0.3-34.9L28.8,58l-18-39.6l-0.3,25.3c0,0-0.2,2.8,1.5,5.2c1.7,2.3,6.6,8.5,6.6,8.5L0,57.4L0,57.4z"/>
</svg>
