<?xml version="1.0" encoding="utf-8"?>
<!-- Generator: Adobe Illustrator 22.0.1, SVG Export Plug-In . SVG Version: 6.00 Build 0)  -->
<svg version="1.1" id="Layer_2_1_" xmlns="http://www.w3.org/2000/svg" xmlns:xlink="http://www.w3.org/1999/xlink" x="0px" y="0px"
	 viewBox="0 0 64 64" style="enable-background:new 0 0 64 64;" xml:space="preserve">
<g>
	<path d="M32,45.6c3.7,0,7.2-1.3,9.6-4c2.4-2.4,3.7-5.6,3.7-9.1V13.1C45.3,5.9,39.5,0,32,0S18.7,5.9,18.7,13.1v19.7
		C18.7,39.7,24.5,45.6,32,45.6z M24,13.1c0-4.3,3.5-7.7,8-7.7s8,3.5,8,7.7v19.7c0,1.9-0.8,3.7-2.1,5.1c-1.6,1.6-3.7,2.4-5.9,2.4
		c-4.5,0-8-3.5-8-7.7V13.1z"/>
	<path d="M53.3,30.7c0-1.6-1.1-2.7-2.7-2.7c-1.6,0-2.7,1.1-2.7,2.7c0,9.1-7.2,16.5-16,16.5s-16-7.5-16-16.5c0-1.6-1.1-2.7-2.7-2.7
		s-2.7,1.1-2.7,2.7c0,11.2,8.3,20.3,18.7,21.6v6.4H24c-1.6,0-2.7,1.1-2.7,2.7c0,1.6,1.1,2.7,2.7,2.7h16c1.6,0,2.7-1.1,2.7-2.7
		c0-1.6-1.1-2.7-2.7-2.7h-5.3v-6.1C45.1,51.2,53.3,41.9,53.3,30.7z"/>
</g>
</svg>
