<?xml version="1.0" encoding="utf-8"?>
<!-- Generator: Adobe Illustrator 22.0.1, SVG Export Plug-In . SVG Version: 6.00 Build 0)  -->
<svg version="1.1" id="Layer_1" xmlns="http://www.w3.org/2000/svg" xmlns:xlink="http://www.w3.org/1999/xlink" x="0px" y="0px"
	 viewBox="0 0 64 64" style="enable-background:new 0 0 64 64;" xml:space="preserve">
<g>
	<path d="M0,30.5c10.2,0,20.3,0,30.5,0c0-10.2,0-20.3,0-30.5H0V30.5z"/>
	<path d="M64,30.5c0-10.2,0-20.3,0-30.5H33.5c0,10.2,0,20.3,0,30.5C43.7,30.5,53.8,30.5,64,30.5z"/>
	<path d="M0,64h30.5c0-10.2,0-20.3,0-30.5c-10.2,0-20.3,0-30.5,0V64z"/>
	<path d="M33.5,64H64c0-10.2,0-20.3,0-30.5c-10.2,0-20.3,0-30.5,0C33.5,43.7,33.5,53.8,33.5,64z"/>
</g>
</svg>
