<?xml version="1.0" encoding="utf-8"?>
<!-- Generator: Adobe Illustrator 23.0.0, SVG Export Plug-In . SVG Version: 6.00 Build 0)  -->
<svg version="1.1" id="Layer_1" xmlns="http://www.w3.org/2000/svg" xmlns:xlink="http://www.w3.org/1999/xlink" x="0px" y="0px"
	 viewBox="0 0 64 64" style="enable-background:new 0 0 64 64;" xml:space="preserve">
<path d="M48,58.7H37.3v-5.3c0.3,0,0.3,0,0.5,0C48.3,52,56,42.7,56,31.7c0-6.1-2.4-12-6.7-16c-0.5-0.5-1.1-0.8-1.6-1.3l2.4-3.7
	l0.3-0.3C51.5,8,50.7,5.1,48.5,4l-5.9-3.5c-1.1-0.5-2.4-0.8-3.5-0.3c-1.1,0.3-2.1,1.1-2.7,2.1L22.9,23.5l-0.3,0.3
	c-1.1,2.4-0.3,5.1,1.9,6.1l5.9,3.5l0,0c0.8,0.3,1.3,0.5,2.1,0.5c0.5,0,1.1,0,1.3-0.3c1.1-0.3,1.9-1.1,2.7-2.1L44.8,19
	c0.3,0.3,0.5,0.3,0.8,0.5c3.2,3.2,5.1,7.5,5.1,12.3c0,8.3-5.9,15.5-13.3,16.3c-1.3,0-2.7,0.3-4,0c-3.5-0.5-6.9-2.4-9.1-5.3h8
	c1.6,0,2.7-1.1,2.7-2.7s-1.1-2.7-2.7-2.7H10.7C9.1,37.3,8,38.4,8,40s1.1,2.7,2.7,2.7h6.9c2.9,5.6,8.3,9.6,14.4,10.7v5.3H21.3
	c-1.6,0-2.7,1.1-2.7,2.7s1.1,2.7,2.7,2.7H48c1.6,0,2.7-1.1,2.7-2.7S49.6,58.7,48,58.7z M32.3,28.3l-4.5-2.7l12.8-20l4.5,2.7
	L32.3,28.3z"/>
</svg>
