<?xml version="1.0" encoding="utf-8"?>
<!-- Generator: Adobe Illustrator 22.0.1, SVG Export Plug-In . SVG Version: 6.00 Build 0)  -->
<svg version="1.1" id="Layer_1" xmlns="http://www.w3.org/2000/svg" xmlns:xlink="http://www.w3.org/1999/xlink" x="0px" y="0px"
	 viewBox="0 0 64 64" style="enable-background:new 0 0 64 64;" xml:space="preserve">
<g>
	<path d="M44.8,0H19.2c-3.2,0-5.9,2.9-5.9,6.2v51.7c0,3.5,2.7,6.2,5.9,6.2h25.7c3.2,0,5.9-2.9,5.9-6.2V6.2C50.7,2.9,48,0,44.8,0z
		 M45.4,58.1c0,0.5-0.3,0.8-0.5,0.8H19.2c-0.3,0-0.5-0.3-0.5-0.8V6.2c0-0.5,0.3-0.8,0.5-0.8h25.7c0.3,0,0.5,0.3,0.5,0.8V58.1z"/>
	<ellipse cx="32" cy="53.6" rx="2.7" ry="2.7"/>
	<path d="M34.7,10.7h-5.3c-1.6,0-2.7,1.1-2.7,2.7s1.1,2.7,2.7,2.7h5.3c1.6,0,2.7-1.1,2.7-2.7S36.3,10.7,34.7,10.7z"/>
</g>
</svg>
