<?xml version="1.0" encoding="utf-8"?>
<!-- Generator: Adobe Illustrator 23.0.0, SVG Export Plug-In . SVG Version: 6.00 Build 0)  -->
<svg version="1.1" id="Layer_2_1_" xmlns="http://www.w3.org/2000/svg" xmlns:xlink="http://www.w3.org/1999/xlink" x="0px" y="0px"
	 viewBox="0 0 64 64" style="enable-background:new 0 0 64 64;" xml:space="preserve">
<g>
	<path d="M32,24c-4.5,0-8,3.5-8,8s3.5,8,8,8s8-3.5,8-8S36.5,24,32,24z M32,34.7c-1.6,0-2.7-1.1-2.7-2.7c0-1.6,1.1-2.7,2.7-2.7
		c1.6,0,2.7,1.1,2.7,2.7C34.7,33.6,33.6,34.7,32,34.7z"/>
	<path d="M56,24c-4.5,0-8,3.5-8,8s3.5,8,8,8s8-3.5,8-8S60.5,24,56,24z M56,34.7c-1.6,0-2.7-1.1-2.7-2.7c0-1.6,1.1-2.7,2.7-2.7
		s2.7,1.1,2.7,2.7C58.7,33.6,57.6,34.7,56,34.7z"/>
	<path d="M8,24c-4.5,0-8,3.5-8,8s3.5,8,8,8s8-3.5,8-8S12.5,24,8,24z M8,34.7c-1.6,0-2.7-1.1-2.7-2.7c0-1.6,1.1-2.7,2.7-2.7
		s2.7,1.1,2.7,2.7C10.7,33.6,9.6,34.7,8,34.7z"/>
</g>
</svg>
