<?xml version="1.0" encoding="utf-8"?>
<!-- Generator: Adobe Illustrator 23.0.0, SVG Export Plug-In . SVG Version: 6.00 Build 0)  -->
<svg version="1.1" id="Layer_2_1_" xmlns="http://www.w3.org/2000/svg" xmlns:xlink="http://www.w3.org/1999/xlink" x="0px" y="0px"
	 viewBox="0 0 64 64" style="enable-background:new 0 0 64 64;" xml:space="preserve">
<path d="M62.1,6.9c-1.3-1.1-2.9-1.6-4.5-1.6L21.3,8c-2.9,0.5-5.3,3.2-5.3,6.1v12.5v1.6v15.5c-1.6-0.5-3.5-1.1-5.3-1.1
	c-5.9,0-10.7,3.5-10.7,8s4.8,8,10.7,8s10.7-3.5,10.7-8V28l37.3-2.9v16c-1.6-0.8-3.5-1.1-5.3-1.1c-5.9,0-10.7,3.5-10.7,8
	s4.8,8,10.7,8S64,52.5,64,48V24.5v-3.2v-9.9C64,9.9,63.2,8.3,62.1,6.9z M10.7,53.3c-3.2,0-5.3-1.6-5.3-2.7S7.5,48,10.7,48
	s5.3,1.6,5.3,2.7S13.9,53.3,10.7,53.3z M53.3,50.7c-3.2,0-5.3-1.6-5.3-2.7s2.1-2.7,5.3-2.7c3.2,0,5.3,1.6,5.3,2.7
	S56.5,50.7,53.3,50.7z M21.3,14.1c0-0.3,0.3-0.5,0.5-0.5l36.3-2.7l0,0c0.3,0,0.3,0,0.3,0.3c0,0,0.3,0.3,0.3,0.5V20l-37.3,2.9V14.1z"
	/>
</svg>
