<?xml version="1.0" encoding="utf-8"?>
<!-- Generator: Adobe Illustrator 23.0.0, SVG Export Plug-In . SVG Version: 6.00 Build 0)  -->
<svg version="1.1" id="Layer_1" xmlns="http://www.w3.org/2000/svg" xmlns:xlink="http://www.w3.org/1999/xlink" x="0px" y="0px"
	 viewBox="0 0 64 64" style="enable-background:new 0 0 64 64;" xml:space="preserve">
<g>
	<path d="M31.8,18.7c4.6,0,8-3.5,8-8s-3.5-8-8-8s-8,3.5-8,8S27.2,18.7,31.8,18.7z M31.8,7.9c1.6,0,2.7,1.1,2.7,2.7s-1.1,2.7-2.7,2.7
		c-1.6,0-2.7-1.1-2.7-2.7S30.2,7.9,31.8,7.9z"/>
	<path d="M23.7,28.8c2.1-2.1,5.1-3.5,8.3-3.5c3.2,0,6.2,1.3,8.3,3.5c0.5,0.5,1.3,0.8,1.9,0.8s1.3-0.3,1.9-0.8
		c1.1-1.1,1.1-2.7,0.3-3.8c-3.2-3.5-7.5-5.4-12.1-5.4s-9.1,1.9-12.1,5.4c-1.1,1.1-0.8,2.7,0.3,3.8C21.1,29.9,22.7,29.9,23.7,28.8z"
		/>
	<path d="M13,50.8c4.6,0,8-3.5,8-8s-3.5-8-8-8s-8,3.5-8,8S8.5,50.8,13,50.8z M13,40.1c1.6,0,2.7,1.1,2.7,2.7s-1.1,2.7-2.7,2.7
		s-2.7-1.1-2.7-2.7S11.4,40.1,13,40.1z"/>
	<path d="M12.7,51.6c-4.6,0-9.1,1.9-12.1,5.4c-1.1,1.1-0.8,2.7,0.3,3.8s2.7,0.8,3.8-0.3C6.8,58.3,9.8,57,13,57s6.2,1.3,8.3,3.5
		c0.5,0.5,1.3,0.8,1.9,0.8s1.3-0.3,1.9-0.8c1.1-1.1,1.1-2.7,0.3-3.8C21.9,53.8,17.3,51.6,12.7,51.6z"/>
	<path d="M50.6,50.8c4.6,0,8-3.5,8-8s-3.5-8-8-8s-8,3.5-8,8S46,50.8,50.6,50.8z M50.6,40.1c1.6,0,2.7,1.1,2.7,2.7s-1.1,2.7-2.7,2.7
		c-1.6,0-2.7-1.1-2.7-2.7S48.9,40.1,50.6,40.1z"/>
	<path d="M63.2,57c-3.2-3.5-7.5-5.4-12.1-5.4S42,53.5,39,57c-1.1,1.1-0.8,2.7,0.3,3.8c1.1,1.1,2.7,0.8,3.8-0.3
		c2.1-2.1,5.1-3.5,8.3-3.5c3.2,0,6.2,1.3,8.3,3.5c0.5,0.5,1.3,0.8,1.9,0.8s1.3-0.3,1.9-0.8C64.2,59.9,64.2,58.1,63.2,57z"/>
	<path d="M39.6,41.2c0.5-1.3,0-2.9-1.3-3.5l-3.8-1.6v-4c0-1.6-1.1-2.7-2.7-2.7c-1.6,0-2.7,1.1-2.7,2.7v3.8l-3.8,1.9
		c-1.3,0.5-1.9,2.1-1.3,3.5c0.5,1.3,2.1,1.9,3.5,1.3l4-1.9l4.3,1.9c0.5,0.3,1.1,0.3,1.3,0.3C38.2,42.8,39,42.2,39.6,41.2z"/>
</g>
</svg>
