<?xml version="1.0" encoding="utf-8"?>
<!-- Generator: Adobe Illustrator 23.0.0, SVG Export Plug-In . SVG Version: 6.00 Build 0)  -->
<svg version="1.1" id="Layer_1" xmlns="http://www.w3.org/2000/svg" xmlns:xlink="http://www.w3.org/1999/xlink" x="0px" y="0px"
	 viewBox="0 0 64 64" style="enable-background:new 0 0 64 64;" xml:space="preserve">
<path d="M36.5,1.3c-1.9-0.5-4-1.1-5.9-1.3h-0.5h-0.5l0,0c-2.4,0-4.8,1.6-5.6,4c-0.8,2.4-0.3,5.1,1.6,6.7c6.1,5.6,8.3,14.1,5.9,21.9
	c-2.7,8.8-10.9,14.9-20.3,15.2c-2.7,0-5.1,1.9-5.6,4.5c-0.8,2.7,0.3,5.3,2.7,6.7c2.7,1.6,5.3,2.9,8.3,3.7c3.2,1.1,6.4,1.3,9.6,1.3
	c14.7,0,27.5-9.6,31.5-23.5C62.1,24,52.8,6.9,36.5,1.3z M52.2,38.9c-3.5,12-14.4,19.7-26.4,19.7c-2.7,0-5.3-0.3-8-1.1
	c-2.4-0.8-4.8-1.9-6.9-3.2c-0.5-0.3-0.3-1.3,0.3-1.3c11.5-0.3,21.6-7.7,25.3-18.9c3.2-10.1,0-20.8-7.2-27.5c-0.5-0.5,0-1.3,0.5-1.3
	l0,0c1.6,0.3,3.2,0.5,4.8,1.1C48.5,10.9,56.2,25.3,52.2,38.9z"/>
</svg>
