<?xml version="1.0" encoding="utf-8"?>
<!-- Generator: Adobe Illustrator 22.0.1, SVG Export Plug-In . SVG Version: 6.00 Build 0)  -->
<svg version="1.1" id="Layer_1" xmlns="http://www.w3.org/2000/svg" xmlns:xlink="http://www.w3.org/1999/xlink" x="0px" y="0px"
	 viewBox="0 0 64 64" style="enable-background:new 0 0 64 64;" xml:space="preserve">
<path d="M31.6,51.6c-0.2,0-0.4-0.1-0.6-0.2l-1.9-1.1c-0.3-0.2-0.2-0.2,0-0.3c0.4-0.1,0.5-0.2,0.9-0.4c0,0,0.1,0,0.1,0l1.5,0.9
	c0.1,0,0.1,0,0.2,0l5.8-3.3c0,0,0.1-0.1,0.1-0.2v-6.7c0-0.1,0-0.1-0.1-0.2l-5.8-3.3c0,0-0.1,0-0.2,0l-5.8,3.3
	c-0.1,0-0.1,0.1-0.1,0.2V47c0,0.1,0,0.1,0.1,0.2l1.6,0.9c0.9,0.4,1.4-0.1,1.4-0.6v-6.6c0-0.1,0.1-0.2,0.2-0.2h0.7
	c0.1,0,0.2,0.1,0.2,0.2v6.6c0,1.2-0.6,1.8-1.7,1.8c-0.3,0-0.6,0-1.3-0.4l-1.5-0.9c-0.4-0.2-0.6-0.6-0.6-1.1v-6.7
	c0-0.4,0.2-0.8,0.6-1.1L31,36c0.4-0.2,0.9-0.2,1.2,0l5.8,3.3c0.4,0.2,0.6,0.6,0.6,1.1V47c0,0.4-0.2,0.8-0.6,1.1l-5.8,3.3
	C32.1,51.5,31.9,51.6,31.6,51.6L31.6,51.6z M36.3,45c0-1.3-0.8-1.6-2.6-1.8c-1.8-0.2-2-0.4-2-0.8c0-0.4,0.2-0.8,1.5-0.8
	c1.2,0,1.6,0.3,1.8,1.1c0,0.1,0.1,0.1,0.2,0.1h0.8c0.1,0,0.1,0,0.1,0c0,0,0.1-0.1,0-0.1c-0.1-1.4-1-2-2.9-2c-1.7,0-2.6,0.7-2.6,1.9
	c0,1.3,1,1.6,2.6,1.8c1.9,0.2,2,0.5,2,0.8c0,0.6-0.5,0.9-1.7,0.9c-1.5,0-1.9-0.4-2-1.1c0-0.1-0.1-0.1-0.2-0.1h-0.8
	c-0.1,0-0.2,0.1-0.2,0.2c0,1,0.5,2.1,3.1,2.1C35.3,47,36.3,46.3,36.3,45L36.3,45z M41.8,40c0,0.6-0.5,1.1-1.1,1.1s-1.1-0.5-1.1-1.1
	c0-0.6,0.5-1.1,1.1-1.1C41.2,38.9,41.8,39.4,41.8,40z M41.6,40c0-0.5-0.4-0.9-0.9-0.9c-0.5,0-0.9,0.4-0.9,0.9s0.4,0.9,0.9,0.9
	C41.2,40.9,41.6,40.5,41.6,40z M41.1,40.6h-0.3c0-0.1-0.1-0.4-0.1-0.4c0-0.1,0-0.1-0.1-0.1h-0.2v0.5h-0.2v-1.3h0.4
	c0.2,0,0.4,0,0.4,0.3c0,0.2-0.2,0.3-0.2,0.3c0.2,0,0.2,0.1,0.2,0.3C41.1,40.4,41.1,40.6,41.1,40.6L41.1,40.6z M40.8,39.7
	c0-0.2-0.1-0.2-0.2-0.2h-0.2v0.3h0.2C40.8,39.9,40.8,39.8,40.8,39.7z M13.7,25.5c0-0.3-0.1-0.5-0.4-0.6l-6.1-3.5
	c-0.1-0.1-0.2-0.1-0.3-0.1H6.8c-0.1,0-0.2,0-0.3,0.1l-6.1,3.5C0.1,25,0,25.2,0,25.5L0,35c0,0.1,0.1,0.3,0.2,0.3
	c0.1,0.1,0.3,0.1,0.4,0l3.6-2.1c0.2-0.1,0.4-0.4,0.4-0.6v-4.4c0-0.3,0.1-0.5,0.4-0.6l1.6-0.9c0.1-0.1,0.2-0.1,0.4-0.1
	c0.1,0,0.3,0,0.4,0.1l1.6,0.9c0.2,0.1,0.4,0.4,0.4,0.6v4.4c0,0.3,0.1,0.5,0.4,0.6l3.6,2.1c0.1,0.1,0.3,0.1,0.4,0
	c0.1-0.1,0.2-0.2,0.2-0.3L13.7,25.5L13.7,25.5z M47.3,15.1v17.6c0,0.3-0.1,0.5-0.4,0.6l-6.1,3.5c-0.2,0.1-0.5,0.1-0.7,0l-6.1-3.5
	c-0.2-0.1-0.4-0.4-0.4-0.6v-7.1c0-0.3,0.1-0.5,0.4-0.6l6.1-3.5c0.2-0.1,0.5-0.1,0.7,0l1.5,0.9c0.2,0.1,0.4,0,0.4-0.2v-9.4
	c0-0.3,0.3-0.5,0.6-0.3l3.7,2C47.1,14.6,47.3,14.9,47.3,15.1L47.3,15.1z M42.7,28c0-0.1,0-0.1-0.1-0.2l-2.1-1.2c-0.1,0-0.1,0-0.2,0
	l-2.1,1.2c-0.1,0-0.1,0.1-0.1,0.2v2.4c0,0.1,0,0.1,0.1,0.2l2.1,1.2c0.1,0,0.1,0,0.2,0l2.1-1.2c0.1,0,0.1-0.1,0.1-0.2L42.7,28
	L42.7,28z M63.6,27.9c0.2-0.1,0.4-0.4,0.4-0.6v-1.7c0-0.3-0.1-0.5-0.4-0.6l-6.1-3.5c-0.2-0.1-0.5-0.1-0.7,0L50.7,25
	c-0.2,0.1-0.4,0.4-0.4,0.6v7.1c0,0.3,0.1,0.5,0.4,0.6l6.1,3.5c0.2,0.1,0.5,0.1,0.7,0l3.7-2.1c0.3-0.1,0.3-0.5,0-0.6L55,30.6
	c-0.1-0.1-0.2-0.2-0.2-0.3V28c0-0.1,0.1-0.3,0.2-0.3l1.9-1.1c0.1-0.1,0.3-0.1,0.4,0l1.9,1.1c0.1,0.1,0.2,0.2,0.2,0.3v1.7
	c0,0.3,0.3,0.5,0.6,0.3L63.6,27.9L63.6,27.9z M55.9,28.3c0,0-0.1,0.1-0.1,0.1v1.4c0,0,0,0.1,0.1,0.1l1.2,0.7c0,0,0.1,0,0.1,0
	l1.2-0.7c0,0,0.1-0.1,0.1-0.1v-1.4c0,0,0-0.1-0.1-0.1l-1.2-0.7c0,0-0.1,0-0.1,0L55.9,28.3z M30.5,32.6v-7c0-0.3-0.2-0.5-0.4-0.6
	L24,21.4c-0.2-0.1-0.5-0.1-0.7,0L17.1,25c-0.2,0.1-0.4,0.4-0.4,0.6v7c0,0.3,0.2,0.5,0.4,0.6l6.1,3.5c0.2,0.1,0.5,0.1,0.7,0l6.1-3.5
	c0.2-0.1,0.3-0.3,0.4-0.5C30.5,32.8,30.5,32.7,30.5,32.6L30.5,32.6z M23,20.2L23,20.2L23,20.2L23,20.2z M30.7,33.2L30.7,33.2
	L30.7,33.2L30.7,33.2L30.7,33.2z"/>
</svg>
