<?xml version="1.0" encoding="utf-8"?>
<!-- Generator: Adobe Illustrator 22.0.1, SVG Export Plug-In . SVG Version: 6.00 Build 0)  -->
<svg version="1.1" id="Layer_1" xmlns="http://www.w3.org/2000/svg" xmlns:xlink="http://www.w3.org/1999/xlink" x="0px" y="0px"
	 viewBox="0 0 64 64" style="enable-background:new 0 0 64 64;" xml:space="preserve">
<path d="M32,64c-0.9,0-1.7-0.2-2.5-0.7l-7.8-4.6c-1.2-0.7-0.6-0.9-0.2-1c1.6-0.5,1.9-0.7,3.5-1.6c0.2-0.1,0.4-0.1,0.6,0.1l6,3.6
	c0.2,0.1,0.5,0.1,0.7,0l23.5-13.5c0.2-0.1,0.4-0.4,0.4-0.6V18.4c0-0.3-0.1-0.5-0.4-0.6L32.3,4.3c-0.2-0.1-0.5-0.1-0.7,0L8.2,17.8
	c-0.2,0.1-0.4,0.4-0.4,0.6v27.1c0,0.3,0.1,0.5,0.4,0.6l6.4,3.7c3.5,1.7,5.6-0.3,5.6-2.4V20.8c0-0.4,0.3-0.7,0.7-0.7h3
	c0.4,0,0.7,0.3,0.7,0.7v26.7c0,4.6-2.5,7.3-6.9,7.3c-1.4,0-2.4,0-5.4-1.5l-6.1-3.5c-1.5-0.9-2.5-2.5-2.5-4.3V18.4
	c0-1.8,0.9-3.4,2.5-4.3L29.5,0.6c1.5-0.8,3.5-0.8,4.9,0l23.5,13.6c1.5,0.9,2.5,2.5,2.5,4.3v27.1c0,1.8-0.9,3.4-2.5,4.3L34.5,63.3
	C33.7,63.8,32.9,64,32,64z M50.9,37.3c0-5.1-3.4-6.4-10.6-7.4c-7.3-1-8-1.5-8-3.2c0-1.4,0.6-3.3,6-3.3c4.8,0,6.6,1,7.3,4.3
	c0.1,0.3,0.3,0.5,0.7,0.5h3c0.2,0,0.4-0.1,0.5-0.2c0.1-0.1,0.2-0.3,0.2-0.5c-0.5-5.6-4.2-8.2-11.7-8.2c-6.7,0-10.7,2.8-10.7,7.6
	c0,5.1,4,6.6,10.4,7.2c7.7,0.7,8.3,1.9,8.3,3.4c0,2.6-2.1,3.7-7,3.7c-6.2,0-7.6-1.6-8-4.6c-0.1-0.3-0.3-0.6-0.7-0.6h-3
	c-0.4,0-0.7,0.3-0.7,0.7c0,3.9,2.1,8.7,12.4,8.7C46.7,45.4,50.9,42.4,50.9,37.3L50.9,37.3z"/>
</svg>
