<?xml version="1.0" encoding="utf-8"?>
<!-- Generator: Adobe Illustrator 23.0.0, SVG Export Plug-In . SVG Version: 6.00 Build 0)  -->
<svg version="1.1" id="Layer_2_1_" xmlns="http://www.w3.org/2000/svg" xmlns:xlink="http://www.w3.org/1999/xlink" x="0px" y="0px"
	 viewBox="0 0 64 64" style="enable-background:new 0 0 64 64;" xml:space="preserve">
<path d="M48.8,0H20.5c-3.2,0-5.9,2.7-5.9,5.9v4.8H12c-1.6,0-2.7,1.1-2.7,2.7S10.4,16,12,16h2.7v13.3H12c-1.6,0-2.7,1.1-2.7,2.7
	c0,1.6,1.1,2.7,2.7,2.7h2.7V48H12c-1.6,0-2.7,1.1-2.7,2.7c0,1.6,1.1,2.7,2.7,2.7h2.7v4.8c0,3.2,2.7,5.9,5.9,5.9h28
	c3.2,0,5.9-2.7,6.1-5.9V5.9C54.7,2.7,52,0,48.8,0z M48.5,58.7h-28c-0.3,0-0.5-0.3-0.5-0.5v-4.8h5.3c1.6,0,2.7-1.1,2.7-2.7
	c0-1.6-1.1-2.7-2.7-2.7H20V34.7h5.3c1.6,0,2.7-1.1,2.7-2.7c0-1.6-1.1-2.7-2.7-2.7H20V16h5.3c1.6,0,2.7-1.1,2.7-2.7s-1.1-2.7-2.7-2.7
	H20V5.9c0-0.3,0.3-0.5,0.5-0.5h28c0.5,0,0.8,0.3,0.8,0.5v52C49.3,58.4,49.1,58.7,48.5,58.7z"/>
</svg>
