<?xml version="1.0" encoding="utf-8"?>
<!-- Generator: Adobe Illustrator 23.0.0, SVG Export Plug-In . SVG Version: 6.00 Build 0)  -->
<svg version="1.1" id="Layer_1" xmlns="http://www.w3.org/2000/svg" xmlns:xlink="http://www.w3.org/1999/xlink" x="0px" y="0px"
	 viewBox="0 0 64 64" style="enable-background:new 0 0 64 64;" xml:space="preserve">
<g>
	<path d="M61.3,26.8l-2.4-1.9c-0.5-0.5-0.8-1.1-0.5-1.6l0.8-2.9c0.5-1.9,0.3-4-1.1-5.9s-3.2-2.9-5.6-2.9l-3.2-0.3
		c-0.8,0-1.3-0.5-1.6-1.1l-1.1-2.9c-0.8-1.9-2.4-3.5-4.5-4C40,2.5,37.9,2.8,36,4.1l-2.7,1.6c-0.5,0.3-1.6,0.3-2.1,0l-2.7-1.6
		c-1.9-1.1-4-1.3-6.1-0.8s-3.7,2.1-4.5,4l-1.1,2.9c-0.3,0.5-0.8,1.1-1.6,1.1h-3.7c-2.1,0-4.3,1.3-5.6,2.9S4.3,18,4.8,20.1L5.6,23
		c0.3,0.5,0,1.3-0.5,1.6l-2.4,2.1C1.1,28.1,0,30,0,32.1s1.1,4,2.7,5.3l2.4,1.9c0.5,0.5,0.8,1.1,0.5,1.6l-0.8,2.9
		c-0.5,1.9-0.3,4,1.1,5.9s3.2,2.9,5.6,2.9l3.2,0.3c0.8,0,1.3,0.5,1.6,1.1l1.1,2.9c0.8,1.9,2.4,3.5,4.5,4c0.8,0.3,1.6,0.3,2.4,0.3
		c1.3,0,2.7-0.3,3.7-1.1l2.7-1.6c0.5-0.3,1.6-0.3,2.1,0l2.7,1.6c1.9,1.1,4,1.3,6.1,0.8c2.1-0.5,3.7-2.1,4.5-4l1.1-2.9
		c0.3-0.5,0.8-1.1,1.6-1.1l3.2-0.3c2.1,0,4.3-1.3,5.6-2.9c1.3-1.6,1.6-3.7,1.1-5.9l-0.8-2.9c-0.3-0.5,0-1.3,0.5-1.6l2.9-1.9l0,0
		c1.6-1.3,2.7-3.2,2.7-5.3S63.2,28.1,61.3,26.8z M58.1,33.4l-2.4,1.9c-2.1,1.6-3.2,4.5-2.4,7.2l0.8,2.9c0.3,0.5,0,1.1-0.3,1.3
		c-0.3,0.5-0.8,0.8-1.6,0.8l-3.2,0.3c-2.7,0.3-5.3,1.9-6.4,4.3L41.6,55c-0.3,0.5-0.8,0.8-1.1,1.1c-0.5,0.3-1.3,0-1.9-0.3L36,54.2
		c-2.4-1.3-5.3-1.3-7.7,0l-2.7,1.6c-0.5,0.3-1.1,0.3-1.9,0.3c-0.3,0-0.8-0.3-1.1-1.1l-1.3-2.9c-1.1-2.4-3.5-4.3-6.4-4.3l-3.2-0.3
		c-0.5,0-1.1-0.3-1.6-0.8c-0.3-0.3-0.3-0.8-0.3-1.3l0.8-2.9c0.8-2.7-0.3-5.6-2.4-7.2l-2.4-1.9c-0.5-0.5-0.5-1.1-0.5-1.3
		c0-0.3,0-0.8,0.5-1.3l2.4-1.9c2.1-1.6,3.2-4.5,2.4-7.2l-0.5-2.9c-0.3-0.5,0-1.1,0.3-1.3c0.3-0.5,0.8-0.8,1.6-0.8l3.2-0.3
		c2.7-0.3,5.3-1.9,6.4-4.3l1.1-2.9c0-0.8,0.8-1.1,1.1-1.1c0.3,0,0.3,0,0.5,0c0.3,0,0.8,0,1.1,0.3L28,10c2.4,1.3,5.3,1.3,7.7,0
		l2.7-1.6c0.8-0.3,1.3-0.5,1.9-0.3c0.3,0,0.8,0.3,1.1,1.1l1.3,2.9c1.1,2.4,3.5,4.3,6.4,4.3l3.2,0.3c0.5,0,1.1,0.3,1.6,0.8
		c0.3,0.3,0.3,0.8,0.3,1.3l-0.8,2.9c-0.8,2.7,0.3,5.6,2.4,7.2l2.4,1.9c0.5,0.5,0.5,1.1,0.5,1.3C58.7,32.4,58.7,32.9,58.1,33.4z"/>
	<path d="M38.1,22.2l-16,16c-1.1,1.1-1.1,2.7,0,3.7c0.5,0.5,1.3,0.8,1.9,0.8s1.3-0.3,1.9-0.8l16-16c1.1-1.1,1.1-2.7,0-3.7
		C40.8,21.2,39.2,21.2,38.1,22.2z"/>
	<circle cx="25.3" cy="25.4" r="4"/>
	<circle cx="38.7" cy="38.8" r="4"/>
</g>
</svg>
