<?xml version="1.0" encoding="utf-8"?>
<!-- Generator: Adobe Illustrator 22.0.1, SVG Export Plug-In . SVG Version: 6.00 Build 0)  -->
<svg version="1.1" id="Layer_1" xmlns="http://www.w3.org/2000/svg" xmlns:xlink="http://www.w3.org/1999/xlink" x="0px" y="0px"
	 viewBox="0 0 64 64" style="enable-background:new 0 0 64 64;" xml:space="preserve">
<path d="M40.5,4.2c-22,0-32.6,28.9-19,45.8c4.7,5.9,11.4,9.8,19,9.8c4.7,0,9.1-1.4,12.8-3.9C47.7,60.9,40.2,64,32,64
	c-0.5,0-1,0-1.5,0C13.5,63.2,0,49.2,0,32C0,14.3,14.3,0,32,0h0.1c8.1,0,15.6,3.1,21.2,8.1C49.6,5.6,45.2,4.2,40.5,4.2L40.5,4.2z
	 M53.6,55.5c-5.3,3.2-11.7,3-17-0.7C43.9,52.1,49.2,43,49.2,32c0-10.9-5.3-20.1-12.6-22.8C42,5.4,48.4,5.3,53.8,8.6
	C67.5,21.3,67.4,42.9,53.6,55.5z"/>
</svg>
