<?xml version="1.0" encoding="utf-8"?>
<!-- Generator: Adobe Illustrator 22.0.1, SVG Export Plug-In . SVG Version: 6.00 Build 0)  -->
<svg version="1.1" id="Layer_2_1_" xmlns="http://www.w3.org/2000/svg" xmlns:xlink="http://www.w3.org/1999/xlink" x="0px" y="0px"
	 viewBox="0 0 64 64" style="enable-background:new 0 0 64 64;" xml:space="preserve">
<path d="M63.6,20.8L58.5,5.6c-0.8-2.7-2.9-4.3-5.6-4.3H11.3c-2.7,0-4.8,1.6-5.6,4L0.1,20.5c-0.3,0.8-0.3,1.6-0.3,2.1v33.9
	c0,3.5,2.7,6.1,6.1,6.1h52c3.2,0,6.1-2.7,6.1-6.1V22.7C63.9,22.1,63.9,21.3,63.6,20.8z M53.5,7.2L57.7,20H34.5V6.7h18.4
	C53.2,6.7,53.5,6.9,53.5,7.2z M10.8,7.2c0-0.3,0.3-0.5,0.5-0.5h17.9V20H6L10.8,7.2z M57.7,57.3H6c-0.5,0-0.8-0.3-0.8-0.8V25.3h53.3
	v31.2C58.5,57.1,58.3,57.3,57.7,57.3z"/>
</svg>
