<?xml version="1.0" encoding="utf-8"?>
<!-- Generator: Adobe Illustrator 23.0.0, SVG Export Plug-In . SVG Version: 6.00 Build 0)  -->
<svg version="1.1" id="Layer_1" xmlns="http://www.w3.org/2000/svg" xmlns:xlink="http://www.w3.org/1999/xlink" x="0px" y="0px"
	 viewBox="0 0 64 64" style="enable-background:new 0 0 64 64;" xml:space="preserve">
<g>
	<path d="M16,26.7h32c2.9,0,5.3-2.4,5.3-5.3v-16C53.3,2.4,50.9,0,48,0H16c-2.9,0-5.3,2.4-5.3,5.3v16C10.7,24.3,13.1,26.7,16,26.7z
		 M16,5.3h32v16H16V5.3z"/>
	<path d="M48,37.3H16c-2.9,0-5.3,2.4-5.3,5.3v16c0,2.9,2.4,5.3,5.3,5.3h32c2.9,0,5.3-2.4,5.3-5.3v-16C53.3,39.7,50.9,37.3,48,37.3z
		 M16,58.7v-16h32v16H16z"/>
	<path d="M13.3,34.7H16h2.7c1.6,0,2.7-1.1,2.7-2.7c0-1.6-1.1-2.7-2.7-2.7H16h-2.7h-2.7C9.1,29.3,8,30.4,8,32c0,1.6,1.1,2.7,2.7,2.7
		H13.3z"/>
	<path d="M34.7,29.3h-5.3h-2.7c-1.6,0-2.7,1.1-2.7,2.7c0,1.6,1.1,2.7,2.7,2.7h2.7h5.3h2.7c1.6,0,2.7-1.1,2.7-2.7
		c0-1.6-1.1-2.7-2.7-2.7H34.7z"/>
	<path d="M53.3,29.3h-2.7H48h-2.7c-1.6,0-2.7,1.1-2.7,2.7c0,1.6,1.1,2.7,2.7,2.7H48h2.7h2.7c1.6,0,2.7-1.1,2.7-2.7
		C56,30.4,54.9,29.3,53.3,29.3z"/>
</g>
</svg>
