<?xml version="1.0" encoding="utf-8"?>
<!-- Generator: Adobe Illustrator 23.0.0, SVG Export Plug-In . SVG Version: 6.00 Build 0)  -->
<svg version="1.1" id="Layer_2_1_" xmlns="http://www.w3.org/2000/svg" xmlns:xlink="http://www.w3.org/1999/xlink" x="0px" y="0px"
	 viewBox="0 0 64 64" style="enable-background:new 0 0 64 64;" xml:space="preserve">
<path d="M60.2,37.1L34.6,12V8.5c0-4.8-4.3-8.5-9.3-8.5C20,0,16,3.7,16,8.5v15.2L4,35.5c-0.8,0.8-1.3,1.9-1.3,2.9s0.3,2.1,1.3,2.9
	l21.9,21.6c0.8,0.8,1.9,1.1,2.9,1.1c1.1,0,2.1-0.3,2.9-1.1l19.7-19.5l7.2-0.5c1.3-0.3,2.4-1.1,2.7-2.1
	C61.6,39.5,61.3,38.1,60.2,37.1z M21.3,8.5c0-1.6,1.9-3.2,4-3.2s4,1.6,4,3.2v2.4l-8,7.7V8.5z M49,38.4l-20.3,20l-20-19.7l22.7-22.4
	l6.9,6.7l-5.9,5.9c-1.1,1.1-1.1,2.7,0,3.7c0.5,0.5,1.3,0.8,1.9,0.8c0.8,0,1.3-0.3,1.9-0.8l5.9-5.9l3.2,2.9l-3.5,3.5
	c-1.1,1.1-1.1,2.7,0,3.7c0.5,0.5,1.3,0.8,1.9,0.8c0.8,0,1.3-0.3,1.9-0.8l3.5-3.5l4.5,4.5L49,38.4z"/>
</svg>
