<?xml version="1.0" encoding="utf-8"?>
<!-- Generator: Adobe Illustrator 23.0.0, SVG Export Plug-In . SVG Version: 6.00 Build 0)  -->
<svg version="1.1" id="Layer_2_1_" xmlns="http://www.w3.org/2000/svg" xmlns:xlink="http://www.w3.org/1999/xlink" x="0px" y="0px"
	 viewBox="0 0 64 64" style="enable-background:new 0 0 64 64;" xml:space="preserve">
<path d="M56.1,8V4.6c0-2.7-1.9-4.6-4.3-4.6H17.5c-2.4,0-4.3,2.1-4.3,4.6V8H9.5c-2.4,0-4.3,1.9-4.3,4.3v15.5c0,2.4,1.9,4.3,4.3,4.3
	h27.8v2.7H36c-2.1,0-4,1.9-4,4V60c0,2.4,1.9,4,4,4h8c2.1,0,4-1.9,4-4V38.8c0-2.4-1.9-4-4-4h-1.3v-3.7c0-2.4-1.9-4.3-4.3-4.3H10.6
	V13.4h2.7v3.5c0,2.7,1.9,4.6,4.3,4.6h34.3c2.4,0,4.3-2.1,4.3-4.6v-3.5c1.6,0,2.7-1.1,2.7-2.7S57.7,8,56.1,8z M42.7,58.9h-5.4V40.2
	h5.4V58.9z M50.7,16.1H18.6v-2.7V8V5.4h32.1V16.1z"/>
</svg>
