<?xml version="1.0" encoding="utf-8"?>
<!-- Generator: Adobe Illustrator 23.0.0, SVG Export Plug-In . SVG Version: 6.00 Build 0)  -->
<svg version="1.1" id="Layer_2_1_" xmlns="http://www.w3.org/2000/svg" xmlns:xlink="http://www.w3.org/1999/xlink" x="0px" y="0px"
	 viewBox="0 0 64 64" style="enable-background:new 0 0 64 64;" xml:space="preserve">
<path d="M48,18.6c-1.6,0-2.7,1.1-2.7,2.7v25.4c0,3.2-1.3,6.1-3.7,8.6c-2.4,2.4-5.9,3.7-9.4,3.5c-3.7,0-7.8-1.6-9.9-3.7
	c-2.4-2.4-3.7-5.3-3.7-8.6V14c0-2.9,1.3-5.3,4-7C25,5.5,28.3,4.9,31.2,6h0.3c0.3,0,0.5,0.3,0.8,0.3c3.2,1.6,5.1,4.5,5.1,7.8v27.8
	c0,1.6-0.5,3.2-1.6,4.3c-0.3,0.3-0.3,0.3-0.3,0.3c-2.1,1.9-5.3,1.6-7.2-0.3c-1.1-1.3-1.6-2.7-1.6-4.3V18.6c0-1.6-1.1-2.7-2.7-2.7
	c-1.6,0-2.7,1.1-2.7,2.7v23.3c0,2.9,1.1,5.6,2.9,7.8c1.9,2.4,4.8,3.7,7.8,3.7c2.7,0,5.1-1.1,7-2.9c0.3-0.3,0.5-0.5,0.8-0.8
	c1.9-2.1,2.9-4.8,2.9-7.8V14c0-5.3-2.9-9.9-7.8-12.3c-0.8-0.5-1.3-0.5-1.9-0.8h-0.3c-4.5-1.6-9.4-1.1-13.4,1.6
	c-3.7,2.7-6.1,6.7-6.1,11.5v32.6c0,4.5,1.9,9.1,5.3,12.3c3.2,3.2,8.6,5.1,13.6,5.1l0,0c0.3,0,0.3,0,0.5,0c4.5,0,9.1-1.9,12.6-5.1
	c3.5-3.5,5.3-7.8,5.3-12.6V21.3C50.7,19.6,49.6,18.6,48,18.6z"/>
</svg>
