<?xml version="1.0" encoding="utf-8"?>
<!-- Generator: Adobe Illustrator 22.0.1, SVG Export Plug-In . SVG Version: 6.00 Build 0)  -->
<svg version="1.1" id="Layer_1" xmlns="http://www.w3.org/2000/svg" xmlns:xlink="http://www.w3.org/1999/xlink" x="0px" y="0px"
	 viewBox="0 0 64 64" style="enable-background:new 0 0 64 64;" xml:space="preserve">
<path d="M52.4,11.2C52.4,11.2,52.4,11.2,52.4,11.2c0-0.1,0-0.2,0-0.2C51.8,4.4,47,0,40.5,0H19.4c-1.2,0-2.2,0.8-2.4,1.9L5,51.2
	c-0.2,0.7,0,1.5,0.5,2.1c0.5,0.6,1.2,1,2,1h6.3L12,60.9c-0.2,0.7,0,1.5,0.5,2.1c0.5,0.6,1.2,1,2,1h15.1c1.2,0,2.2-0.8,2.4-1.9
	l4.8-20.9h3.5c4,0,8.2-1.7,11.7-4.6c3.5-2.9,6-6.8,6.9-11C60.5,18.8,58.2,13.9,52.4,11.2z M21.4,5h19.1c3.9,0,6.4,2.3,6.8,6.3
	c0,1.3-0.1,2.4-0.3,3.5c-0.7,3-2.6,6.1-5.2,8.3c-2.6,2.2-5.7,3.4-8.5,3.4h-8.4c-1.2,0-2.2,0.8-2.4,1.9l-5,20.9h-6.9L21.4,5z
	 M54,24.5c-0.7,3.1-2.5,6.1-5.2,8.3c-2.6,2.2-5.7,3.4-8.5,3.4h-5.5c-1.2,0-2.2,0.8-2.4,1.9L27.6,59h-9.9l1.2-4.7h0.6
	c1.2,0,2.2-0.8,2.4-1.9l5-20.9h6.5c4,0,8.2-1.7,11.7-4.6c3.2-2.8,5.6-6.5,6.7-10.4C54.2,18.2,54.9,20.7,54,24.5z"/>
</svg>
