<?xml version="1.0" encoding="utf-8"?>
<!-- Generator: Adobe Illustrator 22.0.1, SVG Export Plug-In . SVG Version: 6.00 Build 0)  -->
<svg version="1.1" id="Layer_1" xmlns="http://www.w3.org/2000/svg" xmlns:xlink="http://www.w3.org/1999/xlink" x="0px" y="0px"
	 viewBox="0 0 64 64" style="enable-background:new 0 0 64 64;" xml:space="preserve">
<g>
	<path d="M56.6,18.4c-0.1-0.1-0.1-0.1-0.2-0.2c-2.7,13.3-11.6,20.3-25.9,20.3h-5.8l-3.3,21.4h-3L18,62.3c-0.1,0.9,0.6,1.7,1.5,1.7
		h10.3c1.2,0,2.3-0.9,2.5-2.1l0.1-0.5L34.3,49l0.1-0.7c0.2-1.2,1.2-2.1,2.5-2.1h1.6c10,0,17.9-4.1,20.2-15.9
		C59.6,25.5,59.1,21.4,56.6,18.4z"/>
	<path d="M24.7,38.4L24.7,38.4L24.7,38.4L24.7,38.4z"/>
	<path d="M22,37.4L21.9,38c0.2-1.4,1.4-2.4,2.8-2.4h5.8c11.5,0,20.4-4.6,23.1-18.2c0.1-0.4,0.1-0.8,0.2-1.1l0,0
		c0.8-5,0-8.4-2.7-11.5c-0.8-0.9-1.7-1.6-2.8-2.3c-1.4-0.8-2.9-1.4-4.7-1.8c-1.2-0.3-2.6-0.5-4-0.6C38.4,0.1,37.2,0,35.9,0H16
		c-1.4,0-2.6,1-2.8,2.4L4.9,55c-0.1,1.1,0.6,2,1.7,2h12.3L22,37.4z"/>
</g>
</svg>
