<?xml version="1.0" encoding="utf-8"?>
<!-- Generator: Adobe Illustrator 21.0.2, SVG Export Plug-In . SVG Version: 6.00 Build 0)  -->
<svg version="1.1" id="Layer_1" xmlns="http://www.w3.org/2000/svg" xmlns:xlink="http://www.w3.org/1999/xlink" x="0px" y="0px"
	 viewBox="0 0 64 64" style="enable-background:new 0 0 64 64;" xml:space="preserve">
<path d="M62.8,12.1c-3.4-3.5-6.9-7.2-10.3-10.6c-0.8-0.8-1.9-1.3-2.9-1.3s-1.9,0.2-2.7,1L6.6,41.1c-0.1,0.1-0.2,0.2-0.2,0.4l-6,18.6
	l-0.1,0.3c-0.3,0.8-0.1,1.7,0.4,2.4h0l0,0C1.5,63.7,2.8,64,4,63.6l18.5-6c0.1,0,0.3-0.1,0.4-0.2l39.9-39.9c0.8-0.8,1.1-1.6,1.1-2.7
	S63.4,12.6,62.8,12.1z M19.8,52.7L6.8,57L11,44l28.7-28.1l8.5,8.5L19.8,52.7z M51.9,20.6l-8.5-8.5l5.8-5.8c2.9,2.9,5.8,5.8,8.5,8.8
	L51.9,20.6z"/>
</svg>
