<?xml version="1.0" encoding="utf-8"?>
<!-- Generator: Adobe Illustrator 21.0.2, SVG Export Plug-In . SVG Version: 6.00 Build 0)  -->
<svg version="1.1" id="Layer_2_1_" xmlns="http://www.w3.org/2000/svg" xmlns:xlink="http://www.w3.org/1999/xlink" x="0px" y="0px"
	 viewBox="0 0 64 64" style="enable-background:new 0 0 64 64;" xml:space="preserve">
<path d="M62.9,8.4c-1.3-1.3-2.4-2.4-3.7-3.7C58.1,3.6,57,2.5,56,1.4c-0.5-0.8-1.3-1.1-2.1-1.3c-1.1-0.3-1.9,0-2.7,0.8l-7.2,7H3.5
	C1.6,7.9,0,9.5,0,11.4v49.1C0,62.4,1.6,64,3.5,64h49.3c1.9,0,3.5-1.6,3.5-3.5V20.2l6.7-6.7C64.3,11.9,64.3,9.7,62.9,8.4z M32.7,35.9
	l-7,2.4l2.4-7l18.7-18.7l4.8,4.8L32.7,35.9z M50.9,58.6H5.3V13.2h33.3l-15.2,15c-0.1,0.1-0.2,0.2-0.2,0.4l-4.2,12.8
	c-0.3,0.8-0.3,1.9,0.3,2.7h0c0.7,0.7,1.7,1.1,2.7,1.1h0c0.2,0,0.5,0,0.7-0.1l12.9-4.3c0.1,0,0.3-0.1,0.4-0.2l15.1-15L50.9,58.6z
	 M55.2,13.7l-4.8-4.8L53,6.2c0.8,0.8,1.6,1.6,2.1,2.4c0.8,0.8,1.6,1.6,2.4,2.4L55.2,13.7z"/>
</svg>
