<?xml version="1.0" encoding="utf-8"?>
<!-- Generator: Adobe Illustrator 21.0.2, SVG Export Plug-In . SVG Version: 6.00 Build 0)  -->
<svg version="1.1" id="Layer_1" xmlns="http://www.w3.org/2000/svg" xmlns:xlink="http://www.w3.org/1999/xlink" x="0px" y="0px"
	 viewBox="0 0 64 64" style="enable-background:new 0 0 64 64;" xml:space="preserve">
<g>
	<path d="M5.3,15.4c0,0.5,0,3.4,0,4c0,2.1,0.8,3.7,1.9,5.1c1.6,1.3,3.2,2.1,5.3,2.1l0,0h6.9c2.1,0,3.7-0.8,5.1-2.1
		c1.3-1.3,1.9-3.2,1.9-5.1v-2.1c2.7-0.5,5.6-0.8,8.8-0.3c0.8,0,1.3,0.3,2.1,0.3c0,0.3,0,0.5,0,0.8v1.3c0,4.3,2.9,7.2,7.2,7.2H48
		c0.3,0,0.8,0,1.1,0s0.8,0,1.1,0c0.5,0,0.8,0,1.3,0c1.9,0,3.7-0.8,5.1-2.1s1.9-2.9,1.9-5.1v-4.5c0-2.4-0.8-4.5-2.1-6.1
		c-2.1-2.4-4.8-4-6.4-4.8c-4.4-2-8.7-3.3-14-3.8c-6.7-0.5-13.1,0.3-19.2,2.4c-4.2,1.2-8.5,5.1-8.5,5.1C6.1,9.8,5.3,12.4,5.3,15.4
		C5.3,15.1,5.3,15.4,5.3,15.4L5.3,15.4z M12,11.4L12,11.4c2.1-2.1,4.4-2.7,6.7-3.7C24,5.8,29.6,5,35.5,5.5C40.3,6,44,6.8,47.8,8.7
		c1.3,0.5,3.2,1.6,4.5,3.5c0.9,1.4,1.1,1.6,1.1,2.7v4.5c0,0.5,0.1,0.8-0.5,1.4c-0.3,0.3-0.5,0.4-1.3,0.4s-1.6,0-2.1,0s-0.8,0-1.3,0
		h-3.5c-0.8,0-1.9-0.3-1.9-1.9v-1.6c0-0.8,0-1.6,0-2.7s-0.5-2.1-1.6-2.7c-1.6-0.5-6-1.7-9.1-1.6c-4.9,0.1-8.7,1.6-8.7,1.6
		c-1.5,0.8-1.9,1.3-1.9,2.7v4.3c0,0.5,0,1.1-0.5,1.3c0,0-0.3,0.5-1.1,0.5l0,0H13c-0.5,0-1.1-0.3-1.3-0.5c-0.5-0.5-0.8-1.1-0.8-1.6
		s0-1.1,0-1.9s0-1.6,0-2.4C11,13.1,11.2,12.4,12,11.4z"/>
	<path d="M59,36.8c-0.3-2.7-2.7-4.8-5.3-4.8H10.4c-2.7,0-5.1,2.1-5.3,4.8L2.9,58.1c-0.3,1.6,0.3,2.9,1.3,4s2.4,1.9,4,1.9h47.5
		c1.6,0,2.9-0.5,4-1.9c1.1-1.1,1.6-2.7,1.3-4L59,36.8z M8.2,58.7l2.1-21.4h43.3l2.1,21.4C55.7,58.7,8.2,58.7,8.2,58.7z"/>
	<path d="M32,40c-4.5,0-8,3.5-8,8s3.5,8,8,8s8-3.5,8-8S36.5,40,32,40z M32,50.6c-1.6,0-2.7-1.1-2.7-2.7s1.1-2.7,2.7-2.7
		c1.6,0,2.7,1.1,2.7,2.7S33.6,50.6,32,50.6z"/>
</g>
</svg>
