<?xml version="1.0" encoding="utf-8"?>
<!-- Generator: Adobe Illustrator 22.0.1, SVG Export Plug-In . SVG Version: 6.00 Build 0)  -->
<svg version="1.1" id="Layer_1" xmlns="http://www.w3.org/2000/svg" xmlns:xlink="http://www.w3.org/1999/xlink" x="0px" y="0px"
	 viewBox="0 0 64 64" style="enable-background:new 0 0 64 64;" xml:space="preserve">
<path d="M32,16.9c17.1,0,30.3,7.2,30.3,15.1S49.1,47.2,32,47.2C14.9,47.2,1.7,39.9,1.7,32S14.9,16.9,32,16.9 M32,15.2
	C14.3,15.2,0,22.7,0,32s14.3,16.8,32,16.8S64,41.3,64,32S49.7,15.2,32,15.2z M21.8,30.7c-0.8,4-3.6,3.6-7,3.6l1.4-7.1
	C20,27.2,22.6,26.8,21.8,30.7L21.8,30.7z M9.7,41.4h3.7l0.9-4.5c4.1,0,6.7,0.3,9-1.9c2.6-2.4,3.3-6.7,1.4-8.8
	c-1-1.1-2.5-1.7-4.6-1.7H13L9.7,41.4z M28.3,20.1H32l-0.9,4.5c3.1,0,6.1-0.2,7.5,1.1c1.5,1.4,0.8,3.1-0.8,11.3H34
	c1.5-7.9,1.8-8.6,1.3-9.2c-0.5-0.6-1.8-0.5-4.7-0.5l-1.9,9.7H25L28.3,20.1L28.3,20.1z M50.5,30.7c-0.8,4.1-3.7,3.6-7,3.6l1.4-7.1
	C48.7,27.2,51.2,26.8,50.5,30.7L50.5,30.7z M38.4,41.4h3.7L43,37c4.3,0,6.7,0.3,9-1.9c2.6-2.4,3.3-6.7,1.4-8.8
	c-1-1.1-2.5-1.7-4.7-1.7h-7.1L38.4,41.4z"/>
</svg>
