<?xml version="1.0" encoding="utf-8"?>
<!-- Generator: Adobe Illustrator 23.0.0, SVG Export Plug-In . SVG Version: 6.00 Build 0)  -->
<svg version="1.1" id="Layer_2_1_" xmlns="http://www.w3.org/2000/svg" xmlns:xlink="http://www.w3.org/1999/xlink" x="0px" y="0px"
	 viewBox="0 0 64 64" style="enable-background:new 0 0 64 64;" xml:space="preserve">
<path d="M37.6,0.5C20.3-2.7,3.7,8.8,0.5,26.1s8.3,34.1,25.6,37.3c2.1,0.5,4,0.5,5.9,0.5c6.4,0,12.8-1.9,18.1-5.6
	c6.9-4.8,11.7-12.3,13.3-20.5l0,0C66.7,20.3,54.9,3.7,37.6,0.5z M58.1,36.8c0,0.8-0.3,1.3-0.5,2.1l-22.9-8.8V5.3
	c0.8,0,1.3,0.3,2.1,0.3C51.2,8.3,60.8,22.4,58.1,36.8z M29.3,5.3v24H5.6c0-0.8,0.3-1.3,0.3-2.1C8,15.2,17.9,6.7,29.3,5.3z
	 M47.2,53.9c-5.9,4-13.1,5.6-20,4.3c-12-2.1-20.5-12-21.6-23.5h26.1L56,43.7C53.9,47.7,50.9,51.2,47.2,53.9z"/>
</svg>
