<?xml version="1.0" encoding="utf-8"?>
<!-- Generator: Adobe Illustrator 23.0.0, SVG Export Plug-In . SVG Version: 6.00 Build 0)  -->
<svg version="1.1" id="Layer_2_1_" xmlns="http://www.w3.org/2000/svg" xmlns:xlink="http://www.w3.org/1999/xlink" x="0px" y="0px"
	 viewBox="0 0 64 64" style="enable-background:new 0 0 64 64;" xml:space="preserve">
<path d="M50.7,0h-24c0,0,0,0-0.3,0c-8.8,0.5-15.7,7.2-15.7,15.7c0,7.5,5.9,13.9,13.3,15.2v30.4c0,1.6,1.1,2.7,2.7,2.7
	c1.6,0,2.7-1.1,2.7-2.7v-56h5.3v56c0,1.6,1.1,2.7,2.7,2.7c1.6,0,2.7-1.1,2.7-2.7v-56h10.7c1.6,0,2.7-1.1,2.7-2.7S52.3,0,50.7,0z
	 M16,15.7c0-4.5,3.5-8.5,8-9.9v19.5C19.5,24,16,20.3,16,15.7z"/>
</svg>
