<?xml version="1.0" encoding="utf-8"?>
<!-- Generator: Adobe Illustrator 22.0.1, SVG Export Plug-In . SVG Version: 6.00 Build 0)  -->
<svg version="1.1" id="Layer_1" xmlns="http://www.w3.org/2000/svg" xmlns:xlink="http://www.w3.org/1999/xlink" x="0px" y="0px"
	 viewBox="0 0 64 64" style="enable-background:new 0 0 64 64;" xml:space="preserve">
<path d="M0.2,31.9L0.2,31.9c0,0.5,0,1,0.1,1.5c0,0.1,0,0.3,0,0.5c0,0.3,0.1,0.7,0.1,1.1c0,0.1,0,0.3,0.1,0.5
	c0.1,0.4,0.1,0.8,0.1,1.2c0,0.1,0,0.2,0.1,0.3c0.1,0.5,0.1,0.9,0.3,1.4c0,0.1,0.1,0.3,0.1,0.4c0.1,0.3,0.1,0.7,0.2,1
	c0.1,0.1,0.1,0.3,0.1,0.5c0.1,0.3,0.2,0.7,0.3,1c0.1,0.1,0.1,0.3,0.1,0.4c0.1,0.5,0.3,0.9,0.5,1.3c0.1,0.1,0.1,0.3,0.1,0.4
	c0.1,0.3,0.3,0.6,0.4,0.9c0.1,0.1,0.1,0.3,0.2,0.5c0.1,0.3,0.3,0.5,0.4,0.9c0.1,0.1,0.1,0.3,0.2,0.5c0.2,0.4,0.4,0.8,0.6,1.1
	c0.1,0.1,0.1,0.2,0.2,0.3c0.2,0.3,0.3,0.6,0.5,0.9C4.8,48.4,5,48.6,5,48.8c0.1,0.3,0.3,0.5,0.5,0.7c0.1,0.1,0.2,0.3,0.3,0.5
	c0.2,0.3,0.4,0.5,0.6,0.8c0.1,0.1,0.1,0.2,0.2,0.3c0.3,0.3,0.5,0.7,0.8,1c0.1,0.1,0.2,0.3,0.3,0.4c0.2,0.2,0.4,0.4,0.5,0.7
	c0.1,0.1,0.3,0.3,0.4,0.4c0.2,0.2,0.4,0.5,0.6,0.7c0.1,0.1,0.2,0.3,0.3,0.3c0.3,0.3,0.6,0.6,0.9,0.9c0.1,0.1,0.3,0.2,0.3,0.3
	c0.2,0.2,0.5,0.4,0.7,0.6c0.1,0.1,0.3,0.3,0.4,0.3c0.2,0.2,0.5,0.4,0.7,0.5c0.1,0.1,0.3,0.2,0.4,0.3c0.3,0.3,0.7,0.5,1.1,0.8
	c0.1,0.1,0.2,0.1,0.3,0.2c0.3,0.2,0.6,0.4,0.9,0.5c0.1,0.1,0.3,0.2,0.5,0.3c0.3,0.1,0.5,0.3,0.8,0.5c0.1,0.1,0.3,0.1,0.4,0.3
	c0.4,0.2,0.7,0.4,1.1,0.6c0.1,0,0.1,0.1,0.1,0.1c0.4,0.2,0.9,0.4,1.3,0.6c0.1,0.1,0.3,0.1,0.4,0.1c0.2,0.1,0.3,0.1,0.5,0.2
	c-0.3-2.5-0.5-6.4,0.1-9.2c0.6-2.5,3.7-15.9,3.7-15.9s-0.9-1.9-0.9-4.7c0-4.5,2.6-7.8,5.8-7.8c2.7,0,4.1,2.1,4.1,4.5
	c0,2.7-1.7,6.8-2.7,10.6c-0.7,3.2,1.6,5.8,4.7,5.8c5.6,0,10-6,10-14.6c0-7.6-5.5-13-13.3-13c-9.1,0-14.4,6.8-14.4,13.8
	c0,2.7,1.1,5.6,2.4,7.3c0.3,0.3,0.3,0.6,0.2,0.9c-0.3,1-0.8,3.2-0.9,3.6c-0.1,0.6-0.5,0.7-1.1,0.4c-4-1.9-6.4-7.7-6.4-12.4
	c0-10,7.3-19.3,21.1-19.3c11.1,0,19.7,7.9,19.7,18.4c0,11-6.9,19.9-16.5,19.9c-3.3,0-6.2-1.7-7.3-3.7c0,0-1.6,6.1-2,7.6
	c-0.7,2.8-2.7,6.2-4,8.4c0.4,0.1,0.9,0.3,1.3,0.4c0.1,0.1,0.3,0.1,0.5,0.1c0.3,0.1,0.7,0.1,0.9,0.2c0.1,0.1,0.3,0.1,0.5,0.1
	c0.4,0.1,0.9,0.1,1.3,0.2c0.1,0,0.1,0,0.1,0c0.5,0.1,0.9,0.1,1.4,0.2c0.1,0,0.3,0,0.5,0.1c0.3,0.1,0.7,0.1,1.1,0.1
	c0.1,0,0.3,0,0.4,0c0.5,0,1,0.1,1.5,0.1c17.6,0,31.9-14.3,31.9-31.9c0-13.6-8.5-25.2-20.4-29.8c-0.3-0.3-0.7-0.5-1.1-0.7
	c-0.9-0.3-1.9-0.6-2.9-0.8c-0.9-0.2-1.7-0.4-2.5-0.5c-1.1-0.1-2.1-0.3-3.2-0.3c-0.5,0-1.1,0-1.7,0c-1.1,0-2.2,0.1-3.3,0.1
	c-0.5,0.1-1.1,0.1-1.6,0.2C11.9,2.7,0.2,16,0.2,31.9z"/>
</svg>
