<?xml version="1.0" encoding="utf-8"?>
<!-- Generator: Adobe Illustrator 21.0.2, SVG Export Plug-In . SVG Version: 6.00 Build 0)  -->
<svg version="1.1" id="Layer_1" xmlns="http://www.w3.org/2000/svg" xmlns:xlink="http://www.w3.org/1999/xlink" x="0px" y="0px"
	 viewBox="0 0 64 64" style="enable-background:new 0 0 64 64;" xml:space="preserve">
<g>
	<ellipse cx="26.5" cy="40.1" rx="2.7" ry="2.7"/>
	<ellipse cx="26.5" cy="21.4" rx="2.7" ry="2.7"/>
	<ellipse cx="39.9" cy="34.7" rx="2.7" ry="2.7"/>
	<path d="M52.7,11.2C44.2,2.7,32.4-1.3,20.4,0.6l-1.6,0.3l-18.7,59C0.1,60,0,60.2,0,60.4c-0.2,1.9,1.5,3.5,3.4,3.5
		c0.2,0,0.4,0,0.6-0.1c0.1,0,0.2-0.1,0.3-0.1l59.1-19l0.3-1.6C65.3,31.5,61.2,19.5,52.7,11.2z M42.3,21.9c5.3,5.3,7.7,12.8,7.2,22.2
		l-27,8.8c-1.3-2.1-2.4-4-4-5.3c-2.1-2.1-4.5-3.7-7.5-4.8l9.3-29.4C28.4,13.1,36.4,16,42.3,21.9z M9.4,47.8c2.1,0.8,3.7,1.9,5.3,3.5
		c0.8,0.8,1.6,1.9,2.4,2.9L6.5,57.7L9.4,47.8z M58.6,40.9L54.9,42c0.3-9.9-2.7-18.2-8.8-24c-6.4-6.1-15-9.9-23.8-9.9l0.8-2.7
		c9.6-0.8,19.2,2.4,25.9,9.3C55.9,21.9,59.4,31.5,58.6,40.9z"/>
</g>
</svg>
