<?xml version="1.0" encoding="utf-8"?>
<!-- Generator: Adobe Illustrator 23.0.0, SVG Export Plug-In . SVG Version: 6.00 Build 0)  -->
<svg version="1.1" id="Layer_1" xmlns="http://www.w3.org/2000/svg" xmlns:xlink="http://www.w3.org/1999/xlink" x="0px" y="0px"
	 viewBox="0 0 64 64" style="enable-background:new 0 0 64 64;" xml:space="preserve">
<path d="M62.8,34.5l-5.6-5.6c-1.3-1.3-3.2-1.6-4.8-0.5l-6.6,4l-6.6-6.6l14.6-11.9c0.8-0.8,1.3-1.9,1.3-2.9S54.8,8.8,54,8l-6.6-6.9
	c-1.3-1.3-3.4-1.6-5-0.5L25.6,11.7l-4.2-4.2c-1.9-1.9-4.2-2.7-6.9-2.7s-5,1.1-6.9,2.9c-3.7,3.7-4,9.8,0,13.8l4.2,4.2L1,42.7
	c-1.1,1.6-0.8,3.7,0.5,5l6.6,6.6c0.8,0.8,1.9,1.1,2.9,1.1s2.1-0.5,2.9-1.3l11.9-14.6l6.6,6.6l-4,6.4c-1.1,1.6-0.8,3.4,0.5,4.8
	l5.6,5.6c0.8,0.8,1.6,1.1,2.7,1.1c0.3,0,0.3,0,0.5,0c1.3-0.3,2.4-0.8,2.9-2.1l7.4-13.5l13.5-7.4c1.1-0.5,1.9-1.6,1.9-2.9
	C63.8,36.6,63.5,35.6,62.8,34.5z M44.2,44.3l-7.4,13.3l-3.4-3.4l4-6.6c1.1-1.6,0.8-3.4-0.5-4.8l-8.5-8.5c-0.8-0.8-1.9-1.3-2.9-1.1
	c-1.1,0-2.1,0.5-2.9,1.3L10.8,49.6L6,44.8l11.1-17l0,0c1.1-1.6,0.8-3.7-0.5-5l-5-5c-1.6-1.6-1.6-4.2,0-6.1c1.1-0.8,2.1-1.3,3.2-1.3
	s2.1,0.5,2.9,1.1l5,5c1.3,1.3,3.4,1.6,5,0.5L44.5,5.9l5,5L34.9,22.8c-0.8,0.8-1.3,1.9-1.3,2.9c0,1.1,0.3,2.1,1.1,2.9l8.5,8.5
	c1.3,1.3,3.2,1.6,4.8,0.5l6.6-4l3.4,3.4L44.2,44.3z"/>
</svg>
