<?xml version="1.0" encoding="utf-8"?>
<!-- Generator: Adobe Illustrator 22.0.1, SVG Export Plug-In . SVG Version: 6.00 Build 0)  -->
<svg version="1.1" id="Layer_1" xmlns="http://www.w3.org/2000/svg" xmlns:xlink="http://www.w3.org/1999/xlink" x="0px" y="0px"
	 viewBox="0 0 64 64" style="enable-background:new 0 0 64 64;" xml:space="preserve">
<path d="M62.5,29.5L4,0.9C3.1,0.5,2.1,0.5,1.3,1.1S0,2.5,0,3.4v57.2c0,1,0.5,1.8,1.3,2.4c0.4,0.3,1,0.4,1.5,0.4
	c0.4,0,0.8-0.1,1.2-0.3l58.5-28.5c1-0.4,1.5-1.4,1.5-2.5C64,30.9,63.4,30,62.5,29.5z M4,56.5V7.7l21.4,24.8L4,56.5z M28.1,35.5
	l6.8,7.9L10.5,55.3L28.1,35.5z M10,8.3l25.7,12.6l-7.5,8.5L10,8.3z M38.7,41.5l-7.9-9l8.6-9.7L58.3,32L38.7,41.5z"/>
</svg>
