<?xml version="1.0" encoding="utf-8"?>
<!-- Generator: Adobe Illustrator 21.0.2, SVG Export Plug-In . SVG Version: 6.00 Build 0)  -->
<svg version="1.1" id="Layer_1" xmlns="http://www.w3.org/2000/svg" xmlns:xlink="http://www.w3.org/1999/xlink" x="0px" y="0px"
	 viewBox="0 0 64 64" style="enable-background:new 0 0 64 64;" xml:space="preserve">
<path d="M48,10.7h-5.3v-8C42.7,1.1,41.6,0,40,0s-2.7,1.1-2.7,2.7v8H26.7v-8C26.7,1.1,25.6,0,24,0s-2.7,1.1-2.7,2.7v8H16
	c-1.6,0-2.7,1.1-2.7,2.7V24c0,9.3,6.9,17.1,16,18.4v18.9c0,1.6,1.1,2.7,2.7,2.7c1.6,0,2.7-1.1,2.7-2.7V42.4c9.1-1.3,16-9.1,16-18.4
	V13.3C50.7,11.7,49.6,10.7,48,10.7z M45.4,24c0,7.5-6,13.3-13.4,13.3S18.7,31.5,18.7,24v-8h26.7V24L45.4,24z"/>
</svg>
