<?xml version="1.0" encoding="utf-8"?>
<!-- Generator: Adobe Illustrator 21.0.2, SVG Export Plug-In . SVG Version: 6.00 Build 0)  -->
<svg version="1.1" id="Layer_1" xmlns="http://www.w3.org/2000/svg" xmlns:xlink="http://www.w3.org/1999/xlink" x="0px" y="0px"
	 viewBox="0 0 64 64" style="enable-background:new 0 0 64 64;" xml:space="preserve">
<g>
	<path d="M28.6,61.5c-1.9,0-3.7,0-5.6-0.1c-5-0.2-11.2-0.9-15.8-4.8c-3.6-3.1-5.9-7.9-6.5-14.1c-0.6-5.3,0.1-12.9,2.7-18.1
		c2.5-5,9-8.1,12-9.7c0.4-0.2,0.9-0.5,1.1-0.6c5-3.1,8.9-5.8,12.2-8.5c1.8-1.4,4-3.2,6.8-3.2c3.2,0,6.3,2.3,7.3,5.5
		c0.8,2.5,0.5,5.4-1,8.2c-0.3,0.5-0.6,1-0.9,1.5c3.8,0,7.6,0,11.3,0.1c2.1,0.1,4.1,0.2,6.1,1.1c2.2,1,4,3.1,4.7,5.6
		c0.7,2.4,0.4,4.9-0.9,6.9c-0.4,0.6-0.8,1.1-1.4,1.6c0,0,0,0,0,0c-1.8,1.7-4.4,2.7-7.4,3c-1.7,0.2-3.3,0.1-4.9,0
		c0.1,2.3-0.6,4.7-2.2,6.5c0.7,3-0.2,6.3-2.4,8.5c0.3,1.5,0.2,3.1-0.3,4.7c-0.8,2.4-2.6,4.2-4.8,5.1c-1.8,0.7-3.8,0.7-5.3,0.8
		C31.9,61.5,30.2,61.5,28.6,61.5z M35.7,7.5C35.7,7.5,35.7,7.5,35.7,7.5c-1.2,0-2.5,1.1-3.8,2.1c-3.5,2.8-7.6,5.6-12.7,8.8
		c-0.3,0.2-0.8,0.4-1.5,0.8c-2.4,1.2-8,4-9.8,7.5C5.7,30.9,5.2,37.6,5.7,42c0.4,3.4,1.5,8,4.8,10.8c3.4,2.9,8.6,3.4,12.7,3.6
		c3.4,0.1,6.9,0.1,10.2,0.1c1.3,0,2.6,0,3.6-0.4c0.8-0.3,1.6-1.1,1.9-2.1c0.3-0.9,0.3-1.9-0.1-2.6c-0.7-1.2-0.3-2.7,0.9-3.4
		c1.7-1,2.4-3.4,1.5-5c-0.6-1.1-0.2-2.5,0.8-3.2c1.5-1.1,2-3.5,1-5.1c-0.5-0.8-0.5-1.8-0.1-2.6c0.4-0.8,1.3-1.3,2.2-1.3
		c1,0,2.1,0.1,3.1,0.1C50,31,51.5,31.1,53,31c1.8-0.2,3.5-0.8,4.4-1.7l0,0c0.2-0.2,0.4-0.5,0.6-0.7c0.5-0.7,0.6-1.7,0.3-2.8
		c-0.3-1.1-1.1-2-2-2.4c-1.1-0.5-2.5-0.6-4.1-0.6c-5.5-0.2-11-0.1-16.4,0c0,0,0,0,0,0c-1,0-1.9-0.6-2.3-1.5c-0.4-0.9-0.2-2,0.4-2.7
		c1.3-1.5,2.7-3,3.6-4.7c0.8-1.6,1-3.1,0.6-4.4C37.7,8.4,36.7,7.5,35.7,7.5z M59.2,31.1L59.2,31.1L59.2,31.1z"/>
</g>
</svg>
