<?xml version="1.0" encoding="utf-8"?>
<!-- Generator: Adobe Illustrator 21.0.2, SVG Export Plug-In . SVG Version: 6.00 Build 0)  -->
<svg version="1.1" id="Layer_1" xmlns="http://www.w3.org/2000/svg" xmlns:xlink="http://www.w3.org/1999/xlink" x="0px" y="0px"
	 viewBox="0 0 64 64" style="enable-background:new 0 0 64 64;" xml:space="preserve">
<g>
	<path d="M61.5,28.6c0,1.7,0,3.3,0,4.9c0,1.6,0,3.5-0.8,5.4c-0.9,2.2-2.7,3.9-5.1,4.8c-1.6,0.6-3.2,0.7-4.7,0.3
		c-2.2,2.2-5.5,3.1-8.5,2.4c-1.8,1.5-4.2,2.3-6.5,2.2c0.1,1.6,0.2,3.2,0,4.9c-0.3,3-1.4,5.6-3,7.4c0,0,0,0,0,0c-0.5,0.5-1,1-1.6,1.4
		c-2,1.3-4.5,1.6-6.9,0.9c-2.5-0.7-4.5-2.4-5.6-4.7c-0.9-2-1-4-1.1-6.1c-0.1-3.8-0.1-7.6-0.1-11.3c-0.5,0.3-1,0.6-1.5,0.9
		c-2.8,1.4-5.7,1.8-8.2,1c-3.2-1-5.5-4.1-5.5-7.3c0-2.9,1.8-5.1,3.2-6.8c2.7-3.4,5.4-7.3,8.5-12.2c0.1-0.1,0.3-0.7,0.6-1.1
		c1.5-3.1,4.7-9.5,9.7-12c5.2-2.7,12.8-3.3,18.1-2.7c6.1,0.7,11,2.9,14.1,6.5c3.8,4.5,4.6,10.8,4.8,15.8
		C61.5,24.9,61.5,26.7,61.5,28.6z M30.8,45.2c0-0.9,0.5-1.7,1.3-2.2c0.8-0.4,1.8-0.4,2.5,0.1c1.6,1,4,0.5,5.1-1
		c0.7-1,2.1-1.3,3.2-0.8c1.7,0.9,4.1,0.1,5-1.5c0.7-1.2,2.2-1.6,3.4-0.9c0.7,0.4,1.7,0.5,2.6,0.1c1-0.4,1.8-1.1,2.1-1.9
		c0.4-1,0.4-2.3,0.4-3.6c0-3.4,0.1-6.9-0.1-10.3c-0.2-4.2-0.7-9.4-3.6-12.7C50,7.2,45.4,6,42,5.7c-4.4-0.5-11.1,0-15.3,2.2
		c-3.5,1.8-6.3,7.4-7.5,9.8c-0.3,0.7-0.6,1.2-0.8,1.5c-3.2,5.1-6,9.2-8.8,12.7c-1,1.3-2.1,2.6-2.1,3.8c0,1,0.9,2.1,2,2.5
		c1.2,0.4,2.8,0.2,4.4-0.6c1.7-0.9,3.2-2.2,4.7-3.6c0.7-0.7,1.8-0.8,2.7-0.4c0.9,0.4,1.4,1.3,1.5,2.3c-0.1,5.4-0.1,11,0,16.4
		c0,1.6,0.1,3,0.6,4.1c0.4,0.9,1.3,1.7,2.4,2c1,0.3,2,0.2,2.8-0.3c0.2-0.2,0.5-0.4,0.7-0.6c0.9-1,1.5-2.6,1.7-4.4
		c0.1-1.5,0-3.1-0.1-4.7C30.9,47.3,30.8,46.3,30.8,45.2C30.8,45.2,30.8,45.2,30.8,45.2z"/>
</g>
</svg>
