<?xml version="1.0" encoding="utf-8"?>
<!-- Generator: Adobe Illustrator 23.0.0, SVG Export Plug-In . SVG Version: 6.00 Build 0)  -->
<svg version="1.1" id="Layer_2_1_" xmlns="http://www.w3.org/2000/svg" xmlns:xlink="http://www.w3.org/1999/xlink" x="0px" y="0px"
	 viewBox="0 0 64 64" style="enable-background:new 0 0 64 64;" xml:space="preserve">
<g>
	<path d="M33.3,64c-1.9,0-3.5-1.1-4.3-2.7L0.6,7.2C-0.5,5.4,0,3,1.4,1.4C3,0,5.4-0.5,7.2,0.6l54.1,28.3c1.9,0.8,2.7,2.7,2.7,4.5
		c0,1.9-1.3,3.7-3.2,4.3L44.3,44l-6.4,16.5C37.1,62.4,35.5,63.5,33.3,64L33.3,64z M5.9,5.9l27.2,52.2l6.7-16.8
		c0.3-0.8,0.8-1.3,1.6-1.6l16.8-6.7L5.9,5.9z"/>
</g>
</svg>
