<?xml version="1.0" encoding="utf-8"?>
<!-- Generator: Adobe Illustrator 21.0.2, SVG Export Plug-In . SVG Version: 6.00 Build 0)  -->
<svg version="1.1" id="Layer_1" xmlns="http://www.w3.org/2000/svg" xmlns:xlink="http://www.w3.org/1999/xlink" x="0px" y="0px"
	 viewBox="0 0 64 64" style="enable-background:new 0 0 64 64;" xml:space="preserve">
<g>
	<path d="M35.4,61.5c-1.7,0-3.3,0-4.9,0c-1.6,0-3.5,0-5.4-0.8c-2.2-0.9-3.9-2.7-4.8-5.1c-0.6-1.6-0.7-3.2-0.3-4.7
		c-2.2-2.2-3.1-5.5-2.4-8.5c-1.5-1.8-2.3-4.2-2.2-6.5c-1.6,0.1-3.2,0.2-4.9,0c-3-0.3-5.6-1.4-7.4-3c0,0,0,0,0,0
		c-0.5-0.5-1-1-1.4-1.6c-1.3-2-1.6-4.5-0.9-6.9c0.7-2.5,2.4-4.5,4.7-5.6c2-0.9,4-1,6.1-1.1c3.8-0.1,7.6-0.1,11.3-0.1
		c-0.3-0.5-0.6-1-0.9-1.5c-1.4-2.8-1.8-5.7-1-8.2c1-3.2,4.1-5.5,7.3-5.5c2.9,0,5.1,1.8,6.8,3.2c3.4,2.7,7.3,5.4,12.2,8.5
		c0.1,0.1,0.7,0.3,1.1,0.6c3.1,1.5,9.5,4.7,12,9.7c2.7,5.2,3.3,12.8,2.7,18.1c-0.7,6.1-2.9,11-6.5,14.1C52.2,60.5,46,61.2,41,61.4
		C39.1,61.5,37.3,61.5,35.4,61.5z M18.8,30.8c0.9,0,1.7,0.5,2.2,1.3c0.4,0.8,0.4,1.8-0.1,2.5c-1,1.6-0.5,4,1,5.1
		c1,0.7,1.3,2.1,0.8,3.2c-0.9,1.7-0.1,4.1,1.5,5c1.2,0.7,1.6,2.2,0.9,3.4C24.8,52,24.7,53,25,53.9c0.4,1,1.1,1.8,1.9,2.1
		c1,0.4,2.3,0.4,3.6,0.4c3.4,0,6.9,0.1,10.3-0.1c4.2-0.2,9.4-0.7,12.7-3.6C56.8,50,58,45.4,58.3,42c0.5-4.4,0-11.1-2.2-15.3
		c-1.8-3.5-7.4-6.3-9.8-7.5c-0.7-0.3-1.2-0.6-1.5-0.8c-5.1-3.2-9.2-6-12.7-8.8c-1.3-1-2.6-2.1-3.8-2.1c-1,0-2.1,0.9-2.5,2
		c-0.4,1.2-0.2,2.8,0.6,4.4c0.9,1.7,2.2,3.2,3.6,4.7c0.7,0.7,0.8,1.8,0.4,2.7c-0.4,0.9-1.3,1.4-2.3,1.5c-5.4-0.1-11-0.1-16.4,0
		c-1.6,0-3,0.1-4.1,0.6c-0.9,0.4-1.7,1.3-2,2.4c-0.3,1-0.2,2,0.3,2.8c0.2,0.2,0.4,0.5,0.6,0.7c1,0.9,2.6,1.5,4.4,1.7
		c1.5,0.1,3.1,0,4.7-0.1C16.7,30.9,17.7,30.8,18.8,30.8C18.8,30.8,18.8,30.8,18.8,30.8z"/>
</g>
</svg>
