<?xml version="1.0" encoding="utf-8"?>
<!-- Generator: Adobe Illustrator 21.0.2, SVG Export Plug-In . SVG Version: 6.00 Build 0)  -->
<svg version="1.1" id="Layer_1" xmlns="http://www.w3.org/2000/svg" xmlns:xlink="http://www.w3.org/1999/xlink" x="0px" y="0px"
	 viewBox="0 0 64 64" style="enable-background:new 0 0 64 64;" xml:space="preserve">
<g>
	<path d="M61.4,41c-0.2,5-0.9,11.2-4.8,15.8c-3.1,3.6-7.9,5.9-14.1,6.5c-5.3,0.6-12.9-0.1-18.1-2.7c-5-2.5-8.1-9-9.7-12
		c-0.2-0.4-0.5-0.9-0.6-1.1c-3.1-5-5.8-8.9-8.5-12.2c-1.4-1.8-3.1-3.9-3.2-6.8c0-3.2,2.3-6.3,5.5-7.3c2.5-0.8,5.4-0.5,8.2,1
		c0.5,0.3,1,0.6,1.5,0.9c0-3.8,0-7.6,0.1-11.3c0.1-2.1,0.2-4.1,1.1-6.1c1-2.2,3.1-4,5.6-4.7c2.4-0.7,4.9-0.4,6.9,0.9
		c0.6,0.4,1.1,0.8,1.6,1.4c0,0,0,0,0,0c1.7,1.8,2.7,4.4,3,7.4c0.2,1.7,0.1,3.3,0,4.9c2.3-0.1,4.7,0.6,6.5,2.2c3-0.7,6.3,0.2,8.5,2.4
		c1.5-0.3,3.1-0.2,4.7,0.3c2.4,0.8,4.2,2.6,5.1,4.8c0.7,1.8,0.7,3.8,0.8,5.4c0,1.6,0,3.3,0,4.9C61.5,37.3,61.5,39.1,61.4,41z
		 M30.8,18.8c0-1,0.1-2.1,0.1-3.1C31,14,31.1,12.5,31,11c-0.2-1.8-0.8-3.5-1.7-4.4C29,6.3,28.8,6.1,28.6,6c-0.7-0.5-1.7-0.6-2.8-0.3
		c-1.1,0.3-2,1.1-2.4,2c-0.5,1.1-0.6,2.5-0.6,4.1c-0.2,5.5-0.1,11,0,16.4c0,1-0.6,1.9-1.5,2.3c-0.9,0.4-2,0.2-2.7-0.4
		c-1.5-1.3-3-2.7-4.7-3.6c-1.6-0.8-3.1-1-4.4-0.6c-1.1,0.4-2,1.4-2,2.5c0,1.2,1.1,2.5,2.1,3.8c2.8,3.5,5.6,7.5,8.8,12.7
		c0.2,0.3,0.4,0.8,0.8,1.5c1.2,2.4,4,8,7.5,9.8c4.2,2.2,10.9,2.7,15.3,2.2c3.4-0.4,8-1.5,10.8-4.8c2.9-3.4,3.4-8.6,3.6-12.7
		c0.1-3.4,0.1-6.9,0.1-10.3c0-1.3,0-2.6-0.4-3.6c-0.3-0.8-1.1-1.6-2.1-1.9c-0.9-0.3-1.9-0.3-2.6,0.1c-1.2,0.7-2.7,0.3-3.4-0.9
		c-1-1.7-3.4-2.4-5-1.5c-1.1,0.6-2.5,0.2-3.2-0.8c-1.1-1.5-3.5-2-5.1-1c-0.8,0.5-1.8,0.5-2.5,0.1C31.3,20.5,30.8,19.7,30.8,18.8
		C30.8,18.8,30.8,18.8,30.8,18.8z"/>
</g>
</svg>
