<?xml version="1.0" encoding="utf-8"?>
<!-- Generator: Adobe Illustrator 22.0.1, SVG Export Plug-In . SVG Version: 6.00 Build 0)  -->
<svg version="1.1" id="Layer_1" xmlns="http://www.w3.org/2000/svg" xmlns:xlink="http://www.w3.org/1999/xlink" x="0px" y="0px"
	 viewBox="0 0 64 64" style="enable-background:new 0 0 64 64;" xml:space="preserve">
<g>
	<path d="M61.3,5.3H2.7C1.1,5.3,0,6.4,0,8v42.7c0,1.6,1.1,2.7,2.7,2.7h19.2l8,9.6c0.5,0.5,1.3,1.1,2.1,1.1c0.8,0,1.6-0.3,2.1-1.1
		l8-9.6h19.2c1.6,0,2.7-1.1,2.7-2.7V8C64,6.4,62.9,5.3,61.3,5.3z M58.7,48H41.6c-1.3,0-2.4,0.5-3.2,1.3c0,0,0,0.3-0.3,0.3L32,57.1
		l-6.1-7.5c0,0,0-0.3-0.3-0.3c-0.8-0.8-2.1-1.3-3.2-1.3H5.3V10.7h53.3V48z"/>
	<path d="M10.7,21.3h34.7c1.6,0,2.7-1.1,2.7-2.7c0-1.6-1.1-2.7-2.7-2.7H10.7C9.1,16,8,17.1,8,18.7C8,20.3,9.1,21.3,10.7,21.3z"/>
	<path d="M10.7,32h26.7c1.6,0,2.7-1.1,2.7-2.7s-1.1-2.7-2.7-2.7H10.7c-1.6,0-2.7,1.1-2.7,2.7S9.1,32,10.7,32z"/>
	<path d="M10.7,42.7H48c1.6,0,2.7-1.1,2.7-2.7c0-1.6-1.1-2.7-2.7-2.7H10.7C9.1,37.3,8,38.4,8,40C8,41.6,9.1,42.7,10.7,42.7z"/>
</g>
</svg>
