<?xml version="1.0" encoding="utf-8"?>
<!-- Generator: Adobe Illustrator 23.0.0, SVG Export Plug-In . SVG Version: 6.00 Build 0)  -->
<svg version="1.1" id="Layer_1" xmlns="http://www.w3.org/2000/svg" xmlns:xlink="http://www.w3.org/1999/xlink" x="0px" y="0px"
	 viewBox="0 0 64 64" style="enable-background:new 0 0 64 64;" xml:space="preserve">
<g>
	<path d="M59.2,12.1H4.5c-2.7,0-4.5,1.9-4.5,4.5v31.1c0,2.4,1.9,4.2,4.5,4.2h55c2.4,0,4.5-1.9,4.5-4.5V16.6
		C63.7,13.9,61.9,12.1,59.2,12.1z M58.4,46.6H5.3V17.4h53.1V46.6z"/>
	<path d="M31.9,41.3c1.6,0,2.7-1.1,2.7-2.7V22.7c0-1.6-1.1-2.7-2.7-2.7c-1.6,0-2.7,1.1-2.7,2.7v15.9C29.2,40.2,30.3,41.3,31.9,41.3z
		"/>
	<path d="M10.6,33.3h10.6c1.6,0,2.7-1.1,2.7-2.7S22.8,28,21.2,28H10.6C9,28,8,29.1,8,30.7S9,33.3,10.6,33.3z"/>
	<path d="M43.6,33.3H52c0.5,0,1.1-0.5,1.1-1.1v-8.5c0-0.5-0.5-1.1-1.1-1.1h-8.5c-0.5,0-1.1,0.5-1.1,1.1v8.5
		C42.5,32.8,43,33.3,43.6,33.3z"/>
	<path d="M10.6,41.3h13.3c1.6,0,2.7-1.1,2.7-2.7S25.5,36,23.9,36H10.6C9,36,8,37,8,38.6S9,41.3,10.6,41.3z"/>
</g>
</svg>
