<?xml version="1.0" encoding="utf-8"?>
<!-- Generator: Adobe Illustrator 23.0.0, SVG Export Plug-In . SVG Version: 6.00 Build 0)  -->
<svg version="1.1" id="Layer_1" xmlns="http://www.w3.org/2000/svg" xmlns:xlink="http://www.w3.org/1999/xlink" x="0px" y="0px"
	 viewBox="0 0 64 64" style="enable-background:new 0 0 64 64;" xml:space="preserve">
<path d="M60,58.7H22.7c3.2-3.2,5.3-7.7,5.3-12.8v-8.8h26.7c1.6,0,2.7-1.1,2.7-2.7s-1.1-2.7-2.7-2.7H28V20.3C28,12,34.7,5.3,42.9,5.3
	c3.7,0,7.5,1.6,10.1,4.3c1.1,1.1,2.7,1.1,3.7,0s1.1-2.7,0-3.7C53.1,2.1,48,0,42.9,0C31.7,0,22.7,9.1,22.7,20.3v11.5h-16
	c-1.6,0-2.7,1.1-2.7,2.7c0,1.6,1.1,2.7,2.7,2.7h16v8.8c0,6.9-5.6,12.8-12.5,12.8H9.3H4c-1.6,0-2.7,1.1-2.7,2.7C1.3,62.9,2.4,64,4,64
	h5.3h0.8H60c1.6,0,2.7-1.1,2.7-2.7C62.7,59.7,61.6,58.7,60,58.7z"/>
</svg>
