<?xml version="1.0" encoding="utf-8"?>
<!-- Generator: Adobe Illustrator 22.0.1, SVG Export Plug-In . SVG Version: 6.00 Build 0)  -->
<svg version="1.1" id="Layer_1" xmlns="http://www.w3.org/2000/svg" xmlns:xlink="http://www.w3.org/1999/xlink" x="0px" y="0px"
	 viewBox="0 0 64 64" style="enable-background:new 0 0 64 64;" xml:space="preserve">
<g>
	<path d="M58.7,13.3H56V2.7C56,1.1,54.9,0,53.3,0H10.7C9.1,0,8,1.1,8,2.7v10.7H5.3c-1.6,0-2.7,1.1-2.7,2.7v21.3
		c0,1.6,1.1,2.7,2.7,2.7H8v21.3c0,1.6,1.1,2.7,2.7,2.7h42.7c1.6,0,2.7-1.1,2.7-2.7V40h2.7c1.6,0,2.7-1.1,2.7-2.7V16
		C61.3,14.4,60.3,13.3,58.7,13.3z M13.3,5.3h37.3v8H13.3V5.3z M50.7,58.7H13.3V40h37.3V58.7z M56,34.7h-2.7H10.7H8v-16h2.7h42.7H56
		V34.7z"/>
	<path d="M21.3,48h21.3c1.6,0,2.7-1.1,2.7-2.7c0-1.6-1.1-2.7-2.7-2.7H21.3c-1.6,0-2.7,1.1-2.7,2.7C18.7,46.9,19.7,48,21.3,48z"/>
	<path d="M21.3,56h21.3c1.6,0,2.7-1.1,2.7-2.7c0-1.6-1.1-2.7-2.7-2.7H21.3c-1.6,0-2.7,1.1-2.7,2.7C18.7,54.9,19.7,56,21.3,56z"/>
	<circle cx="50.7" cy="24" r="2.7"/>
</g>
</svg>
