<?xml version="1.0" encoding="utf-8"?>
<!-- Generator: Adobe Illustrator 22.0.1, SVG Export Plug-In . SVG Version: 6.00 Build 0)  -->
<svg version="1.1" id="Layer_1" xmlns="http://www.w3.org/2000/svg" xmlns:xlink="http://www.w3.org/1999/xlink" x="0px" y="0px"
	 viewBox="0 0 64 64" style="enable-background:new 0 0 64 64;" xml:space="preserve">
<g>
	<path d="M36.2,22.4L36.2,22.4h-9.1V32h9.1l0,0c2.6,0,4.8-2.2,4.8-4.8C41.1,24.5,38.9,22.4,36.2,22.4z"/>
	<path d="M32,0C14.3,0,0,14.3,0,32s14.3,32,32,32s32-14.3,32-32S49.7,0,32,0z M36.2,38.4L36.2,38.4h-9.1V48h-6.4V16h15.5l0,0
		c6.2,0,11.2,5,11.2,11.2C47.5,33.4,42.4,38.4,36.2,38.4z"/>
</g>
</svg>
