<?xml version="1.0" encoding="utf-8"?>
<!-- Generator: Adobe Illustrator 21.0.2, SVG Export Plug-In . SVG Version: 6.00 Build 0)  -->
<svg version="1.1" id="Layer_1" xmlns="http://www.w3.org/2000/svg" xmlns:xlink="http://www.w3.org/1999/xlink" x="0px" y="0px"
	 viewBox="0 0 64 64" style="enable-background:new 0 0 64 64;" xml:space="preserve">
<g>
	<path d="M54.8,6.1L33.3,0.2c-0.8-0.3-1.9-0.3-2.9,0L9,6.1c-2.1,0.5-3.8,2.7-3.8,5.1v15.5c0,16.4,9.7,30.8,24.7,37
		C30.5,64,31.3,64,32,64c0.8,0,1.3,0,2.1-0.3c15-5.9,24.7-20.6,24.7-37V11.2C58.8,8.8,57.3,6.6,54.8,6.1z M53.5,26.7
		c0,13.9-8.6,26.8-21.4,32.2c-13.1-5.4-21.4-18-21.4-32.2V11.2L32,5.3l21.4,5.9V26.7z"/>
	<path d="M23,28.6c-1.1-1.1-2.9-0.8-3.8,0.3c-1.1,1.1-0.8,2.9,0.3,3.8l8,6.7c0.5,0.5,1.1,0.5,1.6,0.5s1.3-0.3,1.6-0.5L46.8,26
		c1.1-1.1,1.3-2.7,0.3-3.8s-2.7-1.3-3.8-0.3L29.4,34L23,28.6z"/>
</g>
</svg>
