<?xml version="1.0" encoding="utf-8"?>
<!-- Generator: Adobe Illustrator 23.0.0, SVG Export Plug-In . SVG Version: 6.00 Build 0)  -->
<svg version="1.1" id="Layer_2_1_" xmlns="http://www.w3.org/2000/svg" xmlns:xlink="http://www.w3.org/1999/xlink" x="0px" y="0px"
	 viewBox="0 0 64 64" style="enable-background:new 0 0 64 64;" xml:space="preserve">
<g>
	<path d="M35.7,50.7L35.7,50.7c-2.4,0-4.3-1.6-5.1-3.7l-9.1-27.7L11.5,42.4c-0.8,1.6-2.7,2.9-4.8,2.9h-4c-1.6,0-2.7-1.1-2.7-2.7
		S1.1,40,2.7,40h4l10.4-23.7c0.8-1.9,2.7-3.2,4.8-2.9l0,0c2.1,0,4,1.3,4.8,3.5l9.1,28.5l3.7-10.1c0.8-1.9,2.4-2.9,4.3-3.2
		s3.7,0.8,4.8,2.4l4.3,8.3h8.5c1.6,0,2.7,1.1,2.7,2.7c0,1.6-1.1,2.7-2.7,2.7h-8.3c-1.9,0-3.7-1.1-4.8-2.9l-4-7.5l-3.5,9.6
		C40,49.4,38.1,50.7,35.7,50.7z M22.1,18.2L22.1,18.2L22.1,18.2z"/>
</g>
</svg>
