<?xml version="1.0" encoding="utf-8"?>
<!-- Generator: Adobe Illustrator 23.0.0, SVG Export Plug-In . SVG Version: 6.00 Build 0)  -->
<svg version="1.1" id="Layer_1" xmlns="http://www.w3.org/2000/svg" xmlns:xlink="http://www.w3.org/1999/xlink" x="0px" y="0px"
	 viewBox="0 0 64 64" style="enable-background:new 0 0 64 64;" xml:space="preserve">
<path d="M63.6,48.3L42,12.3c-0.5-1.1-1.6-1.6-2.9-1.6l0,0c-1.1,0-2.1,0.5-2.9,1.6l-9.3,16.3l-4.5-7.2c-0.5-1.1-1.6-1.6-2.9-1.6l0,0
	c-1.1,0-2.1,0.5-2.9,1.6l-16,26.9c-0.5,1.1-0.5,2.4,0,3.5c0.8,1.1,1.9,1.6,3.2,1.6h57.1c1.3,0,2.4-0.5,2.9-1.6
	C64.1,50.7,64.1,49.3,63.6,48.3z M6.8,48l12.5-21.1l4.5,7.5c0.5,1.1,1.6,1.6,2.9,1.6l0,0c1.1,0,2.4-0.5,2.9-1.6l9.6-16.3L57.2,48
	H6.8z"/>
</svg>
