<?xml version="1.0" encoding="utf-8"?>
<!-- Generator: Adobe Illustrator 22.0.1, SVG Export Plug-In . SVG Version: 6.00 Build 0)  -->
<svg version="1.1" id="Layer_1" xmlns="http://www.w3.org/2000/svg" xmlns:xlink="http://www.w3.org/1999/xlink" x="0px" y="0px"
	 viewBox="0 0 64 64" style="enable-background:new 0 0 64 64;" xml:space="preserve">
<path d="M62.8,24.1c-1.1-4.4-3.2-7.7-7.6-7.7h-5.7v6.8c0,5.3-4.5,9.7-9.5,9.7H24.7c-4.2,0-7.6,3.6-7.6,7.8v14.5
	c0,4.1,3.6,6.6,7.6,7.8c4.8,1.4,9.5,1.7,15.3,0c3.8-1.1,7.6-3.4,7.6-7.8v-5.8H32.3v-1.9h22.9c4.4,0,6.1-3.1,7.6-7.7
	C64.4,34.8,64.4,30.2,62.8,24.1L62.8,24.1z M40.9,53.1c1.6,0,2.9,1.3,2.9,2.9c0,1.6-1.3,2.9-2.9,2.9C39.3,59,38,57.6,38,56
	C38,54.4,39.3,53.1,40.9,53.1z M24,30.9h15.3c4.2,0,7.6-3.5,7.6-7.8V8.6c0-4.1-3.5-7.2-7.6-7.9c-5.1-0.8-10.7-0.8-15.3,0
	c-6.5,1.1-7.6,3.5-7.6,7.9v5.8h15.3v1.9h-21c-4.4,0-8.3,2.7-9.5,7.7c-1.4,5.8-1.5,9.4,0,15.5c1.1,4.5,3.7,7.7,8.1,7.7h5.2v-7
	C14.4,35.3,18.8,30.9,24,30.9L24,30.9z M23,10.5c-1.6,0-2.9-1.3-2.9-2.9c0-1.6,1.3-2.9,2.9-2.9c1.6,0,2.9,1.3,2.9,2.9
	S24.6,10.5,23,10.5z"/>
</svg>
