<?xml version="1.0" encoding="utf-8"?>
<!-- Generator: Adobe Illustrator 23.0.0, SVG Export Plug-In . SVG Version: 6.00 Build 0)  -->
<svg version="1.1" id="Layer_1" xmlns="http://www.w3.org/2000/svg" xmlns:xlink="http://www.w3.org/1999/xlink" x="0px" y="0px"
	 viewBox="0 0 64 64" style="enable-background:new 0 0 64 64;" xml:space="preserve">
<g>
	<path d="M32,0C14.4,0,0,14.4,0,32s14.4,32,32,32s32-14.4,32-32S49.6,0,32,0z M32,58.7c-14.7,0-26.7-12-26.7-26.7S17.3,5.3,32,5.3
		s26.7,12,26.7,26.7S46.7,58.7,32,58.7z"/>
	<path d="M33.9,10.9c-3.2-0.5-6.4,0.3-8.8,2.4s-3.7,4.8-3.7,8c0,1.3,0.3,2.4,0.5,3.5c0.5,1.3,2.1,2.1,3.5,1.6
		c1.3-0.5,2.1-2.1,1.6-3.5c-0.3-0.3-0.3-1.1-0.3-1.6c0-1.6,0.8-3.2,1.9-4c1.3-1.1,2.7-1.3,4.5-1.1c2.1,0.3,4,2.1,4.3,4.3
		c0.5,2.4-0.8,5.1-3.2,5.9c-2.9,1.1-4.8,4-4.8,7.2V40c0,1.6,1.1,2.7,2.7,2.7c1.6,0,2.7-1.1,2.7-2.7v-6.4c0-1.1,0.5-2.1,1.3-2.4
		c4.5-1.9,7.2-6.7,6.4-11.7C41.9,15.2,38.1,11.5,33.9,10.9z"/>
	<circle cx="32" cy="48" r="2.7"/>
</g>
</svg>
