<?xml version="1.0" encoding="utf-8"?>
<!-- Generator: Adobe Illustrator 22.0.1, SVG Export Plug-In . SVG Version: 6.00 Build 0)  -->
<svg version="1.1" id="Layer_1" xmlns="http://www.w3.org/2000/svg" xmlns:xlink="http://www.w3.org/1999/xlink" x="0px" y="0px"
	 viewBox="0 0 64 64" style="enable-background:new 0 0 64 64;" xml:space="preserve">
<g>
	<path d="M57.4,53.5l-1-0.4c-1.1-0.4-1.9-0.8-2.5-1.2c6-5.5,8.8-12.5,8.7-21.9C62.4,17.8,55.5,7.1,44.9,2.7C34-1.9,22.7-0.6,13.7,6
		C5,12.5,0.4,22.9,1.6,33.8C3.2,49.6,17,61.7,32.9,61.2c3.1-0.1,6.1-0.6,9-1.6c2.7,2.9,6.1,4.4,10.3,4.4c1.1,0,2.1-0.1,3.1-0.3h1.2
		c1.4,0,2.5-1.1,2.5-2.5v-5.4C59,54.8,58.4,53.9,57.4,53.5z M54,58.9C53.4,59,52.8,59,52.2,59c-4.1,0-6.1-1.9-7.4-3.8
		c-0.5-0.7-1.2-1-2-1c-0.3,0-0.7,0.1-1,0.2c-2.8,1.2-5.8,1.8-9,1.9C19.6,56.6,7.9,46.3,6.5,33.3C5.6,24.2,9.4,15.5,16.7,10
		C24.2,4.5,33.8,3.5,43,7.3c8.8,3.6,14.5,12.6,14.6,22.7c0.1,8.3-2.2,14.1-7.6,18.7c0,0,0,0,0,0c-1.3,1.2-2.3,2-2.1,3.5
		c0.1,0.4,0.2,0.7,0.4,1c1.1,1.7,3,3.1,5.7,4.3V58.9z"/>
	<path d="M31.5,7.8C24.1,7.8,18,14.3,18,22.3v16.6c0,8,6,14.5,13.4,14.5c2.9,0,5.7-1,8.1-2.9c0.6-0.4,0.9-1.1,0.9-1.8
		c0-0.7-0.2-1.4-0.7-1.9c-1.7-1.7-4-3.4-5.7-4.3v-1.6c3,0.3,5.2,1.6,6.6,2.8c0.7,0.6,1.6,0.7,2.4,0.4c0.8-0.3,1.5-1,1.6-1.9
		c0.2-1.2,0.4-2.3,0.4-3.4V22.2c0-3.8-1.4-7.4-3.8-10.1C38.7,9.4,35.2,7.8,31.5,7.8z M40,37.3c-1.9-0.9-4.3-1.6-7-1.6h-1.5
		c-1.4,0-2.5,1.1-2.5,2.5v6c0,1.1,0.8,2.1,1.9,2.4l0.8,0.2c0.4,0.2,1.1,0.6,1.8,1.1c-0.7,0.2-1.4,0.3-2.1,0.3
		c-4.7,0-8.4-4.2-8.4-9.5V22.3c0-5.2,3.8-9.5,8.5-9.5c2.2,0,4.4,1,5.9,2.7c1.6,1.8,2.6,4.2,2.6,6.7V37.3z"/>
</g>
</svg>
