<?xml version="1.0" encoding="utf-8"?>
<!-- Generator: Adobe Illustrator 23.0.0, SVG Export Plug-In . SVG Version: 6.00 Build 0)  -->
<svg version="1.1" id="Layer_1" xmlns="http://www.w3.org/2000/svg" xmlns:xlink="http://www.w3.org/1999/xlink" x="0px" y="0px"
	 viewBox="0 0 64 64" style="enable-background:new 0 0 64 64;" xml:space="preserve">
<g>
	<path d="M8,2.7c-4.5,0-8,3.5-8,8s3.5,8,8,8s8-3.5,8-8S12.5,2.7,8,2.7z M8,13.3c-1.6,0-2.7-1.1-2.7-2.7S6.4,8,8,8s2.7,1.1,2.7,2.7
		S9.6,13.3,8,13.3z"/>
	<path d="M8,24c-4.5,0-8,3.5-8,8s3.5,8,8,8s8-3.5,8-8S12.5,24,8,24z M8,34.7c-1.6,0-2.7-1.1-2.7-2.7c0-1.6,1.1-2.7,2.7-2.7
		s2.7,1.1,2.7,2.7C10.7,33.6,9.6,34.7,8,34.7z"/>
	<path d="M8,45.3c-4.5,0-8,3.5-8,8s3.5,8,8,8s8-3.5,8-8S12.5,45.3,8,45.3z M8,56c-1.6,0-2.7-1.1-2.7-2.7c0-1.6,1.1-2.7,2.7-2.7
		s2.7,1.1,2.7,2.7C10.7,54.9,9.6,56,8,56z"/>
	<path d="M24,13.3h37.3c1.6,0,2.7-1.1,2.7-2.7S62.9,8,61.3,8H24c-1.6,0-2.7,1.1-2.7,2.7S22.4,13.3,24,13.3z"/>
	<path d="M61.3,29.3H24c-1.6,0-2.7,1.1-2.7,2.7c0,1.6,1.1,2.7,2.7,2.7h37.3c1.6,0,2.7-1.1,2.7-2.7C64,30.4,62.9,29.3,61.3,29.3z"/>
	<path d="M61.3,50.7H24c-1.6,0-2.7,1.1-2.7,2.7c0,1.6,1.1,2.7,2.7,2.7h37.3c1.6,0,2.7-1.1,2.7-2.7C64,51.7,62.9,50.7,61.3,50.7z"/>
</g>
</svg>
