<?xml version="1.0" encoding="utf-8"?>
<!-- Generator: Adobe Illustrator 23.0.0, SVG Export Plug-In . SVG Version: 6.00 Build 0)  -->
<svg version="1.1" id="Layer_1" xmlns="http://www.w3.org/2000/svg" xmlns:xlink="http://www.w3.org/1999/xlink" x="0px" y="0px"
	 viewBox="0 0 64 64" style="enable-background:new 0 0 64 64;" xml:space="preserve">
<g>
	<path d="M58.7,17.3c-2.8-3.1-6.7-5.3-10.9-5.8C45.6,7.8,42,5,38.1,3.6c-1.9-0.8-3.9-1.1-6.1-1.1c-10,0-18.4,7.8-18.9,17.5
		C5.6,21.1,0,27.5,0,35.1c0,8.6,6.7,15.3,15.3,15.3l0,0c1.7,0,2.8-1.1,2.8-2.8c0-1.7-1.1-2.8-2.8-2.8c-5.6,0-9.7-4.2-9.7-9.7
		s4.2-9.7,9.7-9.7h3.1v-3.9c0-7.5,6.1-13.6,13.6-13.6c1.7,0,3.1,0.3,4.2,0.8C39.2,9.7,42,12,43.7,15l0.8,1.4l1.4,0.3
		c3.3,0.3,6.4,1.9,8.9,4.5c2.5,2.8,3.9,6.1,3.9,9.7c0,6.4-4.2,12-10.3,13.6c-1.4,0.6-2.2,1.9-1.9,3.3c0.3,1.4,1.9,2.2,3.3,1.9
		c8.3-2.5,14.2-10,14.2-18.9C64,25.6,62.1,20.9,58.7,17.3z"/>
	<path d="M23.9,39.2c-1.7,0-2.8,1.1-2.8,2.8v16.7c0,1.7,1.1,2.8,2.8,2.8c1.7,0,2.8-1.1,2.8-2.8V42C26.7,40.3,25.6,39.2,23.9,39.2z"
		/>
	<path d="M32.3,39.2c-1.7,0-2.8,1.1-2.8,2.8v16.7c0,1.7,1.1,2.8,2.8,2.8c1.7,0,2.8-1.1,2.8-2.8V42C35.1,40.3,33.9,39.2,32.3,39.2z"
		/>
	<path d="M40.6,39.2c-1.7,0-2.8,1.1-2.8,2.8v16.7c0,1.7,1.1,2.8,2.8,2.8s2.8-1.1,2.8-2.8V42C43.4,40.3,42.3,39.2,40.6,39.2z"/>
</g>
</svg>
