<?xml version="1.0" encoding="utf-8"?>
<!-- Generator: Adobe Illustrator 22.0.1, SVG Export Plug-In . SVG Version: 6.00 Build 0)  -->
<svg version="1.1" id="Layer_1" xmlns="http://www.w3.org/2000/svg" xmlns:xlink="http://www.w3.org/1999/xlink" x="0px" y="0px"
	 viewBox="0 0 64 64" style="enable-background:new 0 0 64 64;" xml:space="preserve">
<path d="M52.3,22.1c-0.7-0.2-1.3-0.4-2-0.6c0.1-0.5,0.2-0.9,0.3-1.4c1.5-7.4,0.5-13.4-2.9-15.4C44.4,2.8,39,4.8,33.6,9.5
	c-0.5,0.5-1.1,0.9-1.6,1.4c-0.3-0.3-0.7-0.6-1-1c-5.7-5.1-11.4-7.2-14.8-5.2c-3.3,1.9-4.3,7.5-2.9,14.6c0.1,0.7,0.3,1.4,0.5,2.1
	c-0.8,0.2-1.6,0.5-2.3,0.7C4.8,24.5,0,28.2,0,31.9c0,3.9,5.1,7.8,12,10.2c0.6,0.2,1.1,0.4,1.7,0.5c-0.2,0.8-0.4,1.5-0.5,2.3
	c-1.3,6.9-0.3,12.4,3,14.3c3.4,2,9.1,0,14.6-4.9c0.4-0.4,0.9-0.8,1.3-1.2c0.5,0.5,1.1,1,1.7,1.5c5.3,4.6,10.6,6.5,13.9,4.6
	c3.4-2,4.5-7.9,3-15.1c-0.1-0.5-0.2-1.1-0.4-1.7c0.4-0.1,0.8-0.2,1.2-0.4C58.8,39.8,64,35.9,64,31.9C64,28.2,59.1,24.5,52.3,22.1
	L52.3,22.1z M35.4,11.5c4.7-4.1,9-5.6,11-4.5c2.1,1.2,2.9,6.1,1.6,12.6c-0.1,0.4-0.2,0.8-0.3,1.3c-2.8-0.6-5.6-1.1-8.4-1.3
	c-1.6-2.3-3.4-4.6-5.3-6.6C34.4,12.4,34.9,12,35.4,11.5z M20.9,38.4c0.6,1.1,1.3,2.2,2,3.2c-2-0.2-3.9-0.5-5.8-0.9
	c0.5-1.8,1.2-3.7,2-5.6C19.7,36.3,20.3,37.4,20.9,38.4L20.9,38.4z M17.1,23.4c1.8-0.4,3.7-0.7,5.7-1c-0.7,1-1.3,2.1-1.9,3.2
	c-0.6,1.1-1.2,2.1-1.8,3.3C18.3,27,17.7,25.2,17.1,23.4L17.1,23.4z M20.5,32c0.8-1.7,1.7-3.4,2.7-5.1s2-3.3,3-4.9
	c1.9-0.1,3.8-0.2,5.7-0.2s3.9,0.1,5.7,0.2c1.1,1.6,2.1,3.2,3,4.8s1.9,3.3,2.7,5.1c-0.8,1.7-1.7,3.4-2.7,5.1c-1,1.7-2,3.3-3,4.9
	c-1.9,0.1-3.8,0.2-5.8,0.2s-3.9-0.1-5.7-0.2c-1.1-1.6-2.1-3.2-3.1-4.9S21.4,33.7,20.5,32L20.5,32z M43.1,38.4
	c0.6-1.1,1.2-2.2,1.8-3.3c0.8,1.8,1.5,3.7,2.1,5.5c-1.9,0.4-3.9,0.8-5.9,1C41.8,40.6,42.5,39.5,43.1,38.4L43.1,38.4z M44.9,28.8
	c-0.6-1.1-1.2-2.2-1.8-3.3c-0.6-1.1-1.3-2.1-1.9-3.1c2,0.3,3.9,0.6,5.7,1C46.4,25.3,45.7,27.1,44.9,28.8z M32,14.8
	c1.3,1.4,2.5,2.9,3.7,4.5c-2.5-0.1-5-0.1-7.4,0C29.5,17.6,30.8,16.1,32,14.8z M17.5,7.1c2.1-1.2,6.8,0.5,11.7,4.9
	c0.3,0.3,0.6,0.6,1,0.9c-1.9,2.1-3.7,4.3-5.4,6.6c-2.8,0.3-5.6,0.7-8.4,1.3c-0.2-0.6-0.3-1.3-0.4-1.9C14.8,12.8,15.6,8.3,17.5,7.1
	L17.5,7.1z M14.5,40.1c-0.5-0.2-1-0.3-1.6-0.5c-2.7-0.8-5.7-2.2-7.9-3.9c-1.3-0.9-2.1-2.2-2.4-3.7c0-2.3,4-5.2,9.7-7.2
	c0.7-0.3,1.4-0.5,2.2-0.7c0.9,2.7,1.9,5.4,3.1,8C16.4,34.6,15.3,37.3,14.5,40.1z M29,52.3c-2.1,1.9-4.5,3.4-7.1,4.4
	c-1.4,0.7-3,0.7-4.4,0.2c-2-1.2-2.8-5.6-1.7-11.5c0.1-0.7,0.3-1.4,0.5-2.1c2.8,0.6,5.6,1,8.5,1.2c1.6,2.3,3.5,4.6,5.4,6.7
	C29.8,51.6,29.4,52,29,52.3L29,52.3z M32.1,49.3c-1.3-1.4-2.5-2.9-3.8-4.5c1.2,0,2.4,0.1,3.7,0.1c1.3,0,2.6,0,3.8-0.1
	C34.6,46.3,33.4,47.8,32.1,49.3z M48.4,53c-0.1,1.5-0.9,3-2.1,3.9c-2,1.2-6.2-0.3-10.8-4.3c-0.5-0.5-1-0.9-1.6-1.4
	c1.9-2.1,3.7-4.3,5.3-6.7c2.9-0.2,5.7-0.7,8.5-1.3c0.1,0.5,0.2,1,0.3,1.5C48.7,47.4,48.8,50.3,48.4,53L48.4,53z M50.7,39.6
	c-0.3,0.1-0.7,0.2-1.1,0.3c-0.9-2.7-2-5.4-3.2-8c1.2-2.5,2.2-5.2,3.1-7.9c0.7,0.2,1.3,0.4,1.9,0.6c5.8,2,9.9,5,9.9,7.3
	C61.3,34.4,57,37.5,50.7,39.6z M32,37.7c3.2,0,5.7-2.6,5.7-5.7s-2.6-5.7-5.7-5.7s-5.7,2.6-5.7,5.7S28.8,37.7,32,37.7L32,37.7z"/>
</svg>
