<?xml version="1.0" encoding="utf-8"?>
<!-- Generator: Adobe Illustrator 22.0.1, SVG Export Plug-In . SVG Version: 6.00 Build 0)  -->
<svg version="1.1" id="Layer_1" xmlns="http://www.w3.org/2000/svg" xmlns:xlink="http://www.w3.org/1999/xlink" x="0px" y="0px"
	 viewBox="0 0 64 64" style="enable-background:new 0 0 64 64;" xml:space="preserve">
<g>
	<g id="eyes_1_">
		<circle cx="22.3" cy="36.1" r="4.4"/>
		<ellipse transform="matrix(1 -5.522451e-03 5.522451e-03 1 -0.1989 0.2307)" cx="41.7" cy="36.1" rx="4.4" ry="4.4"/>
	</g>
	<path id="mouth" d="M32,51.9c4.8,0,8.2-1.1,10.3-3.2c0.5-0.5,0.5-1.3,0-1.7c-0.5-0.5-1.3-0.5-1.7,0c-1.7,1.7-4.5,2.5-8.6,2.5
		c-4.1,0-6.9-0.8-8.6-2.5c-0.5-0.5-1.3-0.5-1.7,0c-0.5,0.5-0.5,1.3,0,1.7C23.8,50.9,27.2,51.9,32,51.9z"/>
	<path id="body_outline" d="M46.2,56.2c2.1-0.8,4.1-1.8,5.8-2.9c5.5-3.6,8.5-8.5,8.5-13.7c0-0.7-0.1-1.4-0.1-2.1
		c2.1-1.3,3.6-3.6,3.6-6.3c0-4-3.3-7.3-7.3-7.3c-1.8,0-3.6,0.7-4.8,1.8c-4.9-3.2-11.3-5-18.1-5.3l3.8-11.9l10.2,2.4c0,3.3,2.7,6,6,6
		c3.3,0,6-2.7,6-6s-2.7-6-6-6c-2.5,0-4.6,1.5-5.5,3.6L37,6.1c-0.6-0.1-1.3,0.2-1.4,0.9l-4.3,13.7c-7.3,0.1-13.9,2-19.1,5.3
		c-1.3-1.1-3-1.8-4.8-1.8c-4,0-7.3,3.3-7.3,7.3c0,2.6,1.4,5,3.6,6.3c-0.1,0.7-0.1,1.4-0.1,2.1c0,5.2,3.1,10,8.6,13.7
		c1.8,1.1,3.7,2.1,5.8,2.9C17.8,56.2,32.9,62.4,46.2,56.2z M53.7,7.5c1.9,0,3.6,1.6,3.6,3.6c0,1.9-1.6,3.6-3.6,3.6
		c-1.9,0-3.6-1.6-3.6-3.6S51.8,7.5,53.7,7.5z M2.5,31.3c0-2.6,2.1-4.8,4.8-4.8c1,0,2,0.3,2.8,0.9c-2.8,2.2-4.8,4.8-5.8,7.7
		C3.1,34.1,2.5,32.8,2.5,31.3z M32,56.3c-14.4,0-26.2-7.5-26.2-16.6S17.6,23,32,23s26.2,7.5,26.2,16.6S46.4,56.3,32,56.3z M59.8,35
		c-1-2.8-3-5.4-5.8-7.7c0.8-0.6,1.7-0.9,2.8-0.9c2.6,0,4.8,2.1,4.8,4.8C61.5,32.8,60.9,34.1,59.8,35z"/>
</g>
</svg>
