<?xml version="1.0" encoding="utf-8"?>
<!-- Generator: Adobe Illustrator 23.0.0, SVG Export Plug-In . SVG Version: 6.00 Build 0)  -->
<svg version="1.1" id="Layer_1" xmlns="http://www.w3.org/2000/svg" xmlns:xlink="http://www.w3.org/1999/xlink" x="0px" y="0px"
	 viewBox="0 0 64 64" style="enable-background:new 0 0 64 64;" xml:space="preserve">
<path d="M63.7,45c-1.1-5.9-3.2-9.6-7.2-13.9c-5.6-5.6-13.4-9.4-21.7-11v-7.5c0-1.6-0.5-3.2-1.6-4c-2.1-1.9-5.1-1.9-7-0.3L2.1,27.6
	C0.8,28.7,0,30.3,0,31.9c0,1.6,0.8,3.2,1.9,4.3L26,55.7c1.1,0.8,2.1,1.1,3.2,1.1c0.8,0,1.6-0.3,2.4-0.5c1.9-0.8,2.9-2.7,2.9-4.8
	v-6.2c7.8,1.3,15.5,5.4,21.2,8.8c1.6,1.1,3.7,1.1,5.6,0c1.6-1.1,2.7-2.9,2.7-4.8C64,47.2,64,45.8,63.7,45z M32.4,39.4l-2.9-0.3v12.1
	L5.4,31.9l24.1-19.3V25l2.4,0.3c8,0.8,15.5,4.3,20.9,9.6c3.2,3.5,4.8,6.4,5.9,11.2c0,0.3,0.3,1.3,0.3,3.2C52.2,45,42,40,32.4,39.4z"
	/>
</svg>
