<?xml version="1.0" encoding="utf-8"?>
<!-- Generator: Adobe Illustrator 23.0.0, SVG Export Plug-In . SVG Version: 6.00 Build 0)  -->
<svg version="1.1" id="Layer_1" xmlns="http://www.w3.org/2000/svg" xmlns:xlink="http://www.w3.org/1999/xlink" x="0px" y="0px"
	 viewBox="0 0 64 64" style="enable-background:new 0 0 64 64;" xml:space="preserve">
<g>
	<path d="M61.1,17.6L61.1,17.6C60.8,17.3,60.8,17.3,61.1,17.6L52,1.3C51.5,0.5,50.7,0,49.6,0H14.4c-1.1,0-1.9,0.5-2.4,1.3l-9.1,16
		c-0.3,0.5-0.3,1.1-0.3,1.3v42.7c0,1.6,1.1,2.7,2.7,2.7H16h10.7h32c1.6,0,2.7-1.1,2.7-2.7V18.9C61.3,18.4,61.3,17.9,61.1,17.6z
		 M15.7,21.3C15.2,22.9,13.6,24,12,24s-3.2-1.1-3.7-2.7H15.7z M16,5.3h32L53.9,16H32H18.9h-8.8L16,5.3z M55.7,21.3
		C55.2,22.9,53.6,24,52,24s-3.2-1.1-3.7-2.7H55.7z M42.4,21.3c-0.5,1.6-2.1,2.7-3.7,2.7s-3.2-1.1-3.7-2.7H42.4z M29.1,21.3
		c-0.5,1.6-2.1,2.7-3.7,2.7s-3.2-1.1-3.7-2.7H29.1z M18.7,58.7v-16H24v16H18.7z M29.3,58.7V40c0-1.6-1.1-2.7-2.7-2.7H16
		c-1.6,0-2.7,1.1-2.7,2.7v18.7H8V28.3c1.3,0.8,2.7,1.1,4,1.1c2.7,0,5.1-1.1,6.7-2.9c1.6,1.9,4,2.9,6.7,2.9s5.1-1.1,6.7-2.9
		c1.6,1.9,4,2.9,6.7,2.9c2.7,0,5.1-1.1,6.7-2.9c1.6,1.9,4,2.9,6.7,2.9c1.3,0,2.7-0.3,4-1.1v30.4H29.3z"/>
	<path d="M48,37.3h-8c-1.6,0-2.7,1.1-2.7,2.7v8c0,1.6,1.1,2.7,2.7,2.7h8c1.6,0,2.7-1.1,2.7-2.7v-8C50.7,38.4,49.6,37.3,48,37.3z
		 M45.3,45.3h-2.7v-2.7h2.7V45.3z"/>
</g>
</svg>
