<?xml version="1.0" encoding="utf-8"?>
<!-- Generator: Adobe Illustrator 23.0.0, SVG Export Plug-In . SVG Version: 6.00 Build 0)  -->
<svg version="1.1" id="Layer_1" xmlns="http://www.w3.org/2000/svg" xmlns:xlink="http://www.w3.org/1999/xlink" x="0px" y="0px"
	 viewBox="0 0 64 64" style="enable-background:new 0 0 64 64;" xml:space="preserve">
<g>
	<path d="M63.7,45.3c-1.3-3.7-5.1-5.9-8.8-4.8l-12.3,2.9c-0.5-2.9-2.9-5.6-6.1-6.1H23.2c-1.1-1.6-2.9-2.7-5.1-2.7H5.9
		c-3.2,0-5.9,2.7-5.9,5.9v14.7c0,3.5,2.7,6.1,5.9,6.1h12c1.6,0,3.2-0.8,4.5-1.9c0.3-0.3,0.3-0.3,0.3-0.5c2.9,1.3,6.1,2.1,9.6,2.1
		c2.1,0,4-0.3,5.9-0.8l16-4.5l0,0l0,0l4.5-1.3c1.9-0.5,3.5-1.9,4.5-3.5C64,49.3,64.3,47.2,63.7,45.3z M18.4,55.7
		c0,0.3-0.3,0.3-0.5,0.3h-12c-0.3,0-0.5-0.3-0.5-0.5V40.8c0-0.5,0.3-0.8,0.5-0.8h12c0.3,0,0.5,0.3,0.5,0.5v14.7
		C18.7,55.5,18.7,55.7,18.4,55.7z M58.4,48.5c-0.3,0.5-0.5,0.8-1.3,0.8l-4.5,1.3l0,0l-16,4.5c-4,1.1-8.3,0.8-12-1.1L24,53.6V42.7
		h11.7c1.1,0.3,1.6,0.8,1.6,1.6v0.3l-3.2,0.8c-1.3,0.3-2.4,1.9-1.9,3.2c0.3,1.3,1.9,2.4,3.2,1.9l20.8-5.1c1.1-0.3,2.1,0.3,2.4,1.3
		C58.7,47.5,58.7,48,58.4,48.5z"/>
	<path d="M48,21.3h5.3c1.3,0,2.7,1.1,2.7,2.7s-1.1,2.7-2.7,2.7h-8c-1.6,0-2.7,1.1-2.7,2.7c0,1.6,1.1,2.7,2.7,2.7H48
		c0,1.6,1.1,2.7,2.7,2.7s2.7-1.1,2.7-2.7l0,0c4.3,0,8-3.5,8-8s-3.5-8-8-8H48c-1.3,0-2.7-1.1-2.7-2.7s1.1-2.7,2.7-2.7h8
		c1.6,0,2.7-1.1,2.7-2.7S57.6,5.3,56,5.3h-2.7c0-1.6-1.1-2.7-2.7-2.7S48,3.7,48,5.3l0,0c-4.3,0-8,3.5-8,8S43.7,21.3,48,21.3z"/>
</g>
</svg>
