<?xml version="1.0" encoding="utf-8"?>
<!-- Generator: Adobe Illustrator 23.0.0, SVG Export Plug-In . SVG Version: 6.00 Build 0)  -->
<svg version="1.1" id="Layer_1" xmlns="http://www.w3.org/2000/svg" xmlns:xlink="http://www.w3.org/1999/xlink" x="0px" y="0px"
	 viewBox="0 0 64 64" style="enable-background:new 0 0 64 64;" xml:space="preserve">
<g>
	<path d="M63.9,53.8L52.7,8.6c-0.5-1.9-2.1-3.2-4-3.2H15.3c-1.9,0-3.5,1.3-4,2.9L0.1,53.8c-0.3,1.1,0,2.4,0.8,3.5
		c0.8,0.8,1.9,1.3,3.2,1.3h55.8c1.3,0,2.4-0.5,3.2-1.6C63.9,55.9,64.2,54.9,63.9,53.8z M32,46.6c-1.6,0-2.7,1.1-2.7,2.7v4H13.9
		L24,10.7h5.3v4c0,1.6,1.1,2.7,2.7,2.7s2.7-1.1,2.7-2.7v-4H40l10.1,42.5H34.7v-4C34.7,47.7,33.6,46.6,32,46.6z M16.3,10.7h2.4
		L8.6,53.3H5.9L16.3,10.7z M55.4,53.3l-9.8-42.5h2.1l10.6,42.5H55.4z"/>
	<path d="M34.7,26.2c0-1.6-1.1-2.7-2.7-2.7s-2.7,1.1-2.7,2.7v11.4c0,1.6,1.1,2.7,2.7,2.7s2.7-1.1,2.7-2.7V26.2z"/>
</g>
</svg>
