<?xml version="1.0" encoding="utf-8"?>
<!-- Generator: Adobe Illustrator 21.0.2, SVG Export Plug-In . SVG Version: 6.00 Build 0)  -->
<svg version="1.1" id="Layer_1" xmlns="http://www.w3.org/2000/svg" xmlns:xlink="http://www.w3.org/1999/xlink" x="0px" y="0px"
	 viewBox="0 0 64 64" style="enable-background:new 0 0 64 64;" xml:space="preserve">
<g>
	<path d="M62.8,18.5L54.3,10L54,9.8c-0.5-0.5-1.3-0.5-2.1-0.5l0,0l-13,1.1l0,0C28.5,1.8,15.5-1.9,4.8,1C3,1.3,1.7,2.8,1.1,4.7
		c-2.9,10.6,0.8,23.7,9.3,33.8l0,0L9.1,51.8c0,0,0,0,0,0c0,1,0.4,2,1.1,2.7l8.2,8.3c0.5,0.5,1.6,1.1,2.4,1.1c0.3,0,0.5,0,1.1-0.3
		c1-0.7,2.1-1.3,2.4-2.9l1.3-10.6c1.3,0.5,2.7,1.2,4,1.6c0.7,0.2,1.1,0.3,1.6,0.3c1.3,0,2.7-0.5,3.7-1.6L50.3,35
		c1.3-1.3,1.9-3.7,1.3-5.6c-0.5-1.3-1.1-2.7-1.6-4l10.9-1.3c1.3-0.3,2.1-1.1,2.7-2.4C64.1,20.7,63.9,19.6,62.8,18.5z M19.7,56.3
		l-5.1-5.1l0.8-7.7c1.9,1.6,3.7,2.9,5.6,4.3L19.7,56.3z M31.4,47c-5.3-1.9-10.6-5.3-14.9-9.6C7.5,28.4,3.2,15.9,5.9,6
		C16,3.4,28.2,7.4,37.3,16.7c4.3,4.3,7.4,9.3,9.6,14.9L31.4,47z M47.6,20.7c-1.3-1.9-2.7-3.7-4.3-5.6l7.7-0.5l5.1,5.1L47.6,20.7z"/>
	<path d="M56.4,40.1c-0.8-0.5-2.1-0.3-2.9,0.3c-1.1,0.8-6.1,5.8-6.9,6.6c-6.9,6.9-6.9,6.9-6.4,8.5c0.1,0.5,0.3,0.8,0.8,1.3
		c3.5,3.5,8.5,4.3,12.5,4.3c2.9,0,5.1-0.5,5.3-0.5c1.1-0.3,1.9-1.1,2.1-2.1c0-0.5,2.4-12-3.7-17.8C56.7,40.3,56.7,40.3,56.4,40.1z
		 M55.9,55.8c-2.7,0.3-6.4,0.3-9.3-1.1c2.1-2.4,5.8-5.8,8-8C55.9,49.4,55.9,53.1,55.9,55.8z"/>
	<path d="M25.8,16.7c-5.1,0-9,4-9,9s4,9,9,9s9-4,9-9S30.9,16.7,25.8,16.7z M25.8,29.4c-2.1,0-3.7-1.6-3.7-3.7s1.6-3.7,3.7-3.7
		s3.7,1.6,3.7,3.7C29.6,27.8,28,29.4,25.8,29.4z"/>
</g>
</svg>
