<?xml version="1.0" encoding="utf-8"?>
<!-- Generator: Adobe Illustrator 22.0.1, SVG Export Plug-In . SVG Version: 6.00 Build 0)  -->
<svg version="1.1" id="Layer_2_1_" xmlns="http://www.w3.org/2000/svg" xmlns:xlink="http://www.w3.org/1999/xlink" x="0px" y="0px"
	 viewBox="0 0 64 64" style="enable-background:new 0 0 64 64;" xml:space="preserve">
<g>
	<path d="M4.8,0C3.2,0,2.1,1.1,2.1,2.7s1.1,2.7,2.7,2.7c29.6,0,53.9,24,53.9,53.3c0,1.6,1.1,2.7,2.7,2.7c1.6,0,2.7-1.1,2.7-2.7
		C64,26.4,37.3,0,4.8,0z"/>
	<path d="M4.8,14.1c-1.6,0-2.7,1.1-2.7,2.7c0,1.6,1.1,2.7,2.7,2.7c22.1,0,40.3,17.6,40.3,39.2c0,1.6,1.1,2.7,2.7,2.7
		c1.6,0,2.7-1.1,2.7-2.7C50.4,34.1,29.9,14.1,4.8,14.1z"/>
	<path d="M4.8,26.4c-1.6,0-2.7,1.1-2.7,2.7s1.1,2.7,2.7,2.7c15.2,0,27.5,12,27.5,26.7c0,1.6,1.1,2.7,2.7,2.7s2.7-1.1,2.7-2.7
		C37.3,40.8,22.7,26.4,4.8,26.4z"/>
	<path d="M4.8,39.2c-1.6,0-2.7,1.1-2.7,2.7s1.1,2.7,2.7,2.7c8,0,14.4,6.4,14.4,14.1c0,1.6,1.1,2.7,2.7,2.7c1.6,0,2.7-1.1,2.7-2.7
		C24.3,47.7,15.5,39.2,4.8,39.2z"/>
	<path d="M7.2,49.6c-4,0-7.2,3.2-7.2,7.2C0,60.5,3.2,64,7.2,64s7.2-3.2,7.2-7.2S11.2,49.6,7.2,49.6z M7.2,58.7
		c-1.1,0-1.9-1.1-1.9-1.9s0.8-1.9,1.9-1.9s1.9,0.8,1.9,1.9C9.1,57.9,8.3,58.7,7.2,58.7z"/>
</g>
</svg>
