<?xml version="1.0" encoding="utf-8"?>
<!-- Generator: Adobe Illustrator 21.0.2, SVG Export Plug-In . SVG Version: 6.00 Build 0)  -->
<svg version="1.1" id="Layer_2_1_" xmlns="http://www.w3.org/2000/svg" xmlns:xlink="http://www.w3.org/1999/xlink" x="0px" y="0px"
	 viewBox="0 0 64 64" style="enable-background:new 0 0 64 64;" xml:space="preserve">
<path d="M63,16.8L47,0.9c-1.6-1.3-3.7-1.3-5.1,0.3l-4,4.3l0,0l0,0L0.9,42.1c-1.3,1.6-1.3,3.7,0.3,5.1l15.7,15.7
	c0.8,0.8,1.6,1.1,2.7,1.1s1.9-0.3,2.7-1.1l41-41C64.3,20.5,64.3,18.2,63,16.8z M19.5,57.8L6.2,44.5L6.7,44l3.5,3.5
	c0.5,0.5,1.3,0.8,1.9,0.8c0.5,0,1.3-0.3,1.9-0.8c1.1-1.1,1.1-2.7,0-3.7l-3.5-3.7l2.9-2.7l6.1,6.1c0.5,0.5,1.3,0.8,1.9,0.8
	s1.3-0.3,1.9-0.8c1.1-1.1,1.1-2.7,0-3.7l-6.1-6.1l2.9-2.9l3.5,3.5c0.5,0.5,1.3,0.8,1.9,0.8c0.8,0,1.3-0.3,1.9-0.8
	c1.1-1.1,1.1-2.7,0-3.7l-3.6-3.7l2.7-2.7l6.1,6.1c0.5,0.5,1.3,0.8,1.9,0.8c0.6,0,1.3-0.3,1.9-0.8c1.1-1.1,1.1-2.7,0-3.7l-6.1-6.1
	l2.9-2.9l3.5,3.5c0.5,0.5,1.1,0.8,1.9,0.8s1.3-0.3,1.9-0.8c1.1-1.1,1.1-2.7,0-3.7l-3.7-3.5l2.9-2.9l6.1,6.1c0.5,0.5,1.1,0.8,1.9,0.8
	c0.8,0,1.3-0.3,1.9-0.8c1.1-1.1,1.1-2.7,0-3.7l-6.1-6.1l1.1-1.1L58,19.5L19.5,57.8z"/>
</svg>
