<?xml version="1.0" encoding="utf-8"?>
<!-- Generator: Adobe Illustrator 23.0.0, SVG Export Plug-In . SVG Version: 6.00 Build 0)  -->
<svg version="1.1" id="Layer_2_1_" xmlns="http://www.w3.org/2000/svg" xmlns:xlink="http://www.w3.org/1999/xlink" x="0px" y="0px"
	 viewBox="0 0 64 64" style="enable-background:new 0 0 64 64;" xml:space="preserve">
<g>
	<path d="M30.9,0H11.7h-0.5C9.3,0.3,8,1.9,8,3.7v56.8v0.3c0.3,1.9,1.9,3.2,3.7,3.2h19.5c1.9,0,3.5-1.6,3.5-3.5V3.7V3.5
		C34.4,1.3,32.8,0,30.9,0z M29.3,58.7h-16V56H16c1.6,0,2.7-1.1,2.7-2.7c0-1.6-1.1-2.7-2.7-2.7h-2.7V48h5.3c1.6,0,2.7-1.1,2.7-2.7
		c0-1.6-1.1-2.7-2.7-2.7h-5.3V40H16c1.6,0,2.7-1.1,2.7-2.7c0-1.6-1.1-2.7-2.7-2.7h-2.7V32h5.3c1.6,0,2.7-1.1,2.7-2.7
		c0-1.6-1.1-2.7-2.7-2.7h-5.3V24H16c1.6,0,2.7-1.1,2.7-2.7c0-1.6-1.1-2.7-2.7-2.7h-2.7V16h5.3c1.6,0,2.7-1.1,2.7-2.7
		s-1.1-2.7-2.7-2.7h-5.3V5.3h16V58.7z"/>
	<path d="M52.8,0h-12c-1.9,0-3.5,1.6-3.5,3.2V48c0,0.5,0,0.8,0.3,1.1l6.7,13.3c0.5,0.8,1.3,1.6,2.4,1.6s1.9-0.5,2.4-1.6l6.7-13.3
		C56,48.8,56,48.5,56,48V3.2C56,1.6,54.4,0,52.8,0z M50.7,47.5l-4,8l-4-8V16h8V47.5z M50.7,10.7h-8V5.3h8V10.7z"/>
</g>
</svg>
