<?xml version="1.0" encoding="utf-8"?>
<!-- Generator: Adobe Illustrator 23.0.0, SVG Export Plug-In . SVG Version: 6.00 Build 0)  -->
<svg version="1.1" id="Layer_1" xmlns="http://www.w3.org/2000/svg" xmlns:xlink="http://www.w3.org/1999/xlink" x="0px" y="0px"
	 viewBox="0 0 64 64" style="enable-background:new 0 0 64 64;" xml:space="preserve">
<path d="M48,3.5C47.7,1.3,46.1,0,44.3,0H19.5C17.6,0.3,16,1.6,16,3.7v6.9l0,0l0,0v8l0,0l0,0v8l0,0l0,0v8l0,0l0,0v8l0,0l0,0v8l0,0
	l0,0v9.9c0.3,1.9,1.9,3.5,3.7,3.5h24.5c2.1,0,3.7-1.6,3.7-3.7V3.5z M42.7,58.7H21.3v-5.3h5.3c1.6,0,2.7-1.1,2.7-2.7
	c0-1.6-1.1-2.7-2.7-2.7h-5.3v-2.7H32c1.6,0,2.7-1.1,2.7-2.7c0-1.6-1.1-2.7-2.7-2.7H21.3v-2.7h5.3c1.6,0,2.7-1.1,2.7-2.7
	c0-1.6-1.1-2.7-2.7-2.7h-5.3v-2.7H32c1.6,0,2.7-1.1,2.7-2.7c0-1.6-1.1-2.7-2.7-2.7H21.3v-2.7h5.3c1.6,0,2.7-1.1,2.7-2.7
	c0-1.6-1.1-2.7-2.7-2.7h-5.3v-2.7H32c1.6,0,2.7-1.1,2.7-2.7S33.6,8,32,8H21.3V5.3h21.3V58.7z"/>
</svg>
