<?xml version="1.0" encoding="utf-8"?>
<!-- Generator: Adobe Illustrator 21.0.2, SVG Export Plug-In . SVG Version: 6.00 Build 0)  -->
<svg version="1.1" id="Layer_1" xmlns="http://www.w3.org/2000/svg" xmlns:xlink="http://www.w3.org/1999/xlink" x="0px" y="0px"
	 viewBox="0 0 64 64" style="enable-background:new 0 0 64 64;" xml:space="preserve">
<path d="M53.1,15.9H39.6c-0.5-4.2-1.9-8-4.2-10.6h17.7c1.6,0,2.7-1.1,2.7-2.7S54.7,0,53.1,0H10.8C9.2,0,8.1,1.1,8.1,2.7
	s1.1,2.7,2.7,2.7H24c6.1,0,9.6,5,10.4,10.6H10.8c-1.6,0-2.7,1.1-2.7,2.7c0,1.6,1.1,2.7,2.7,2.7h23.3c-2.4,5.3-11.2,9.6-17.2,9.6
	c-1.1,0-1.9,0.5-2.4,1.6c-0.5,1.1-0.3,2.1,0.3,2.9l23,27.5c0.5,0.5,1.3,1.1,2.1,1.1c0.5,0,1.3-0.3,1.6-0.5c1.1-1.1,1.3-2.7,0.3-3.7
	l-19.9-24c7.7-1.6,15.9-6.9,17.4-14.1h13.8c1.6,0,2.7-1.1,2.7-2.7C55.8,17.4,54.7,15.9,53.1,15.9z"/>
</svg>
