<?xml version="1.0" encoding="utf-8"?>
<!-- Generator: Adobe Illustrator 23.0.0, SVG Export Plug-In . SVG Version: 6.00 Build 0)  -->
<svg version="1.1" id="Layer_1" xmlns="http://www.w3.org/2000/svg" xmlns:xlink="http://www.w3.org/1999/xlink" x="0px" y="0px"
	 viewBox="0 0 64 64" style="enable-background:new 0 0 64 64;" xml:space="preserve">
<g>
	<path d="M32.9,25.6L3.6,15c-1.3-0.5-2.9,0.3-3.5,1.6s0.3,2.9,1.6,3.5l3.7,1.1v25.5c0,1.6,1.1,2.7,2.7,2.7s2.7-1.1,2.7-2.7V23.2
		L24.1,28l0,0v18.6c0,1.6,1.1,2.7,2.7,2.7s2.7-1.1,2.7-2.7V29.9l1.9,0.5c0.3,0,0.5,0.3,0.8,0.3c1.1,0,2.1-0.8,2.4-1.9
		C35,27.5,34.5,25.9,32.9,25.6z"/>
	<path d="M61.3,14.7c-1.6,0-2.7,1.1-2.7,2.7v16H45.4c-1.6,0-2.7,1.1-2.7,2.7v10.6c0,1.6,1.1,2.7,2.7,2.7s2.7-1.1,2.7-2.7v-8h10.6v8
		c0,1.6,1.1,2.7,2.7,2.7c1.6,0,2.7-1.1,2.7-2.7V36V17.4C64,15.8,62.9,14.7,61.3,14.7z"/>
</g>
</svg>
