<?xml version="1.0" encoding="utf-8"?>
<!-- Generator: Adobe Illustrator 23.0.0, SVG Export Plug-In . SVG Version: 6.00 Build 0)  -->
<svg version="1.1" id="Layer_1" xmlns="http://www.w3.org/2000/svg" xmlns:xlink="http://www.w3.org/1999/xlink" x="0px" y="0px"
	 viewBox="0 0 64 64" style="enable-background:new 0 0 64 64;" xml:space="preserve">
<g>
	<path d="M61.3,15.7c-1.6,0-2.7,1.1-2.7,2.7v8h-16c-2.9,0-5.3,2.4-5.3,5.3V37c0,1.9,1.1,3.7,2.7,4.5v8.8c0,1.6,1.1,2.7,2.7,2.7
		c1.6,0,2.7-1.1,2.7-2.7v-8h13.3v8c0,1.6,1.1,2.7,2.7,2.7c1.6,0,2.7-1.1,2.7-2.7v-8v-2.7V18.4C64,16.8,62.9,15.7,61.3,15.7z
		 M42.7,37v-5.3h16V37H42.7z"/>
	<path d="M30.9,17.8L6.4,11.2c-1.6-0.5-3.2,0-4.3,0.8C0.8,13,0,14.6,0,16.5v5.1c0,2.4,1.6,4.5,3.7,5.1l1.6,0.5v23.2
		C5.3,52,6.4,53,8,53s2.7-1.1,2.7-2.7V28.8L24,32.5v17.9c0,1.6,1.1,2.7,2.7,2.7c1.6,0,2.7-1.1,2.7-2.7V33.6h0.3
		c1.1,0,2.1-0.3,2.9-1.1c1.3-1.1,2.1-2.7,2.1-4.3v-5.1C34.7,20.8,33.1,18.6,30.9,17.8z M29.3,28.2l-24-6.7v-5.1l24,6.7V28.2z"/>
</g>
</svg>
