<?xml version="1.0" encoding="utf-8"?>
<!-- Generator: Adobe Illustrator 23.0.0, SVG Export Plug-In . SVG Version: 6.00 Build 0)  -->
<svg version="1.1" id="Layer_1" xmlns="http://www.w3.org/2000/svg" xmlns:xlink="http://www.w3.org/1999/xlink" x="0px" y="0px"
	 viewBox="0 0 64 64" style="enable-background:new 0 0 64 64;" xml:space="preserve">
<path d="M50.7,5.3H39.5C38.4,2.1,35.5,0,32,0s-6.4,2.1-7.5,5.3H13.3c-1.6,0-2.7,1.1-2.7,2.7s1.1,2.7,2.7,2.7h6.9
	C17.6,12.8,16,16.3,16,20v22.1c0,5.1,3.2,9.6,8,11.5V56c0,4.5,3.5,8,8,8s8-3.5,8-8v-2.4c4.8-1.6,8-6.1,8-11.5V20
	c0-3.7-1.6-6.9-4.3-9.3h6.9c1.6,0,2.7-1.1,2.7-2.7S52.3,5.3,50.7,5.3z M32,5.3c1.6,0,2.7,1.1,2.7,2.7s-1.1,2.7-2.7,2.7
	c-1.6,0-2.7-1.1-2.7-2.7S30.4,5.3,32,5.3z M34.7,56c0,1.6-1.1,2.7-2.7,2.7c-1.6,0-2.7-1.1-2.7-2.7v-5.3c0-1.6,1.1-2.7,2.7-2.7
	c1.6,0,2.7,1.1,2.7,2.7V56z M42.7,42.1c0,2.4-1.3,4.5-3.2,5.9c-1.1-3.2-4-5.3-7.5-5.3s-6.4,2.1-7.5,5.1c-1.9-1.3-3.2-3.5-3.2-5.9
	V19.7c0-2.9,2.1-5.6,4.8-6.4c1.3,1.6,3.5,2.7,5.9,2.7s4.3-1.1,5.9-2.7c2.9,0.8,4.8,3.5,4.8,6.4V42.1z"/>
</svg>
