<?xml version="1.0" encoding="utf-8"?>
<!-- Generator: Adobe Illustrator 22.0.1, SVG Export Plug-In . SVG Version: 6.00 Build 0)  -->
<svg version="1.1" id="Layer_1" xmlns="http://www.w3.org/2000/svg" xmlns:xlink="http://www.w3.org/1999/xlink" x="0px" y="0px"
	 viewBox="0 0 64 64" style="enable-background:new 0 0 64 64;" xml:space="preserve">
<g>
	<circle cx="32" cy="13.3" r="2.7"/>
	<circle cx="32" cy="24" r="2.7"/>
	<circle cx="32" cy="34.7" r="2.7"/>
	<path d="M38.1,40.8L32,46.9l-6.1-6.1c-1.1-1.1-2.7-1.1-3.7,0s-1.1,2.7,0,3.7l8,8c0.5,0.5,1.3,0.8,1.9,0.8s1.3-0.3,1.9-0.8l8-8
		c1.1-1.1,1.1-2.7,0-3.7C40.8,39.7,39.2,39.7,38.1,40.8z"/>
	<path d="M34.7,0h-5.3C18.9,0,10.7,8.3,10.7,18.7v26.7c0,10.4,8.3,18.7,18.7,18.7h5.3c10.4,0,18.7-8.3,18.7-18.7V18.7
		C53.3,8.3,45.1,0,34.7,0z M48,45.3c0,7.5-5.9,13.3-13.3,13.3h-5.3c-7.5,0-13.3-5.9-13.3-13.3V18.7c0-7.5,5.9-13.3,13.3-13.3h5.3
		c7.5,0,13.3,5.9,13.3,13.3V45.3z"/>
</g>
</svg>
