<?xml version="1.0" encoding="utf-8"?>
<!-- Generator: Adobe Illustrator 23.0.0, SVG Export Plug-In . SVG Version: 6.00 Build 0)  -->
<svg version="1.1" id="Layer_2_1_" xmlns="http://www.w3.org/2000/svg" xmlns:xlink="http://www.w3.org/1999/xlink" x="0px" y="0px"
	 viewBox="0 0 64 64" style="enable-background:new 0 0 64 64;" xml:space="preserve">
<g>
	<path d="M58.3,54l5.7-3.4L44.1,43c-0.3-0.3-0.9,0.3-0.6,0.6l2.3,5.7v2.3h0.9l4.6,12.2l3.4-5.7l4,4c0.6,0.6,1.4,0.9,2,0.9
		c0.6,0,1.4-0.3,2-0.9c1.1-1.1,1.1-2.8,0-4L58.3,54z"/>
	<rect x="28.4" y="45.8" width="11.4" height="5.7"/>
	<rect x="8.5" y="45.8" width="11.4" height="5.7"/>
	<path d="M0,48.6c0,1.7,1.1,2.8,2.8,2.8h2.8v-5.7H0V48.6z"/>
	<rect y="28.7" width="5.7" height="11.4"/>
	<rect y="8.8" width="5.7" height="11.4"/>
	<path d="M0,3.1V6h5.7V0.3H2.8C1.1,0.3,0,1.4,0,3.1z"/>
	<rect x="11.4" y="0.3" width="11.4" height="5.7"/>
	<rect x="31.3" y="0.3" width="11.4" height="5.7"/>
	<path d="M51.2,3.1c0-1.7-1.1-2.8-2.8-2.8h-2.8V6h5.7V3.1z"/>
	<rect x="45.5" y="11.7" width="5.7" height="11.4"/>
	<rect x="45.5" y="31.6" width="5.7" height="11.4"/>
</g>
</svg>
