<?xml version="1.0" encoding="utf-8"?>
<!-- Generator: Adobe Illustrator 23.0.0, SVG Export Plug-In . SVG Version: 6.00 Build 0)  -->
<svg version="1.1" id="Layer_1" xmlns="http://www.w3.org/2000/svg" xmlns:xlink="http://www.w3.org/1999/xlink" x="0px" y="0px"
	 viewBox="0 0 64 64" style="enable-background:new 0 0 64 64;" xml:space="preserve">
<g>
	<path d="M60,8H4c-2.1,0-4,1.9-4,4v29.3c0,2.1,1.9,4,4,4h25.3v5.3H18.7c-1.6,0-2.7,1.1-2.7,2.7c0,1.6,1.1,2.7,2.7,2.7h26.7
		c1.6,0,2.7-1.1,2.7-2.7c0-1.6-1.1-2.7-2.7-2.7H34.7v-5.3H60c2.1,0,4-1.9,4-4V12C64,9.9,62.1,8,60,8z M58.7,40H5.3V13.3h53.3V40z"/>
	<path d="M13.3,32c-1.6,0-2.7,1.1-2.7,2.7c0,1.6,1.1,2.7,2.7,2.7h8c1.6,0,2.7-1.1,2.7-2.7v-8c0-1.6-1.1-2.7-2.7-2.7H16v-2.7h5.3
		c1.6,0,2.7-1.1,2.7-2.7c0-1.6-1.1-2.7-2.7-2.7h-8c-1.6,0-2.7,1.1-2.7,2.7v8c0,1.6,1.1,2.7,2.7,2.7h5.3V32H13.3z"/>
	<path d="M29.3,37.3h8c1.6,0,2.7-1.1,2.7-2.7c0-1.6-1.1-2.7-2.7-2.7H32v-2.7h5.3c1.6,0,2.7-1.1,2.7-2.7c0-1.6-1.1-2.7-2.7-2.7H32
		v-2.7h5.3c1.6,0,2.7-1.1,2.7-2.7c0-1.6-1.1-2.7-2.7-2.7h-8c-1.6,0-2.7,1.1-2.7,2.7v16C26.7,36.3,27.7,37.3,29.3,37.3z"/>
	<path d="M49.3,37.3c3.7,0,6.7-2.9,6.7-6.7v-8c0-3.7-2.9-6.7-6.7-6.7c-3.7,0-6.7,2.9-6.7,6.7v8C42.7,34.4,45.6,37.3,49.3,37.3z
		 M48,22.7c0-0.8,0.5-1.3,1.3-1.3c0.8,0,1.3,0.5,1.3,1.3v8c0,0.8-0.5,1.3-1.3,1.3c-0.8,0-1.3-0.5-1.3-1.3V22.7z"/>
</g>
</svg>
