<?xml version="1.0" encoding="utf-8"?>
<!-- Generator: Adobe Illustrator 23.0.0, SVG Export Plug-In . SVG Version: 6.00 Build 0)  -->
<svg version="1.1" id="Layer_1" xmlns="http://www.w3.org/2000/svg" xmlns:xlink="http://www.w3.org/1999/xlink" x="0px" y="0px"
	 viewBox="0 0 64 64" style="enable-background:new 0 0 64 64;" xml:space="preserve">
<path d="M61.3,39.7h-2.7c-1.6-13.1-11.7-23.2-24-24.5v-1.9h0.8c1.6,0,2.7-1.1,2.7-2.7S37.1,8,35.5,8h-6.9c-1.6,0-2.7,1.1-2.7,2.7
	s1.1,2.7,2.7,2.7h0.8v1.9c-12.3,1.3-22.1,11.5-24,24.5H2.7c-1.6,0-2.7,1.1-2.7,2.7v2.4C0,50.9,5.1,56,11.2,56h41.6
	C58.9,56,64,50.9,64,44.8v-2.4C64,41.1,62.9,39.7,61.3,39.7z M32,20.5c10.7,0,19.5,8.3,21.3,19.2H10.7C12.5,28.8,21.3,20.5,32,20.5z
	 M52.8,50.7H11.2c-3.2,0-5.9-2.4-5.9-5.6h53.3C58.7,48.3,56,50.7,52.8,50.7z"/>
</svg>
