<?xml version="1.0" encoding="utf-8"?>
<!-- Generator: Adobe Illustrator 22.0.1, SVG Export Plug-In . SVG Version: 6.00 Build 0)  -->
<svg version="1.1" id="Layer_1" xmlns="http://www.w3.org/2000/svg" xmlns:xlink="http://www.w3.org/1999/xlink" x="0px" y="0px"
	 viewBox="0 0 64 64" style="enable-background:new 0 0 64 64;" xml:space="preserve">
<g>
	<path d="M1.9,14.4l8.8,6.4c0.5,0.3,1.1,0.5,1.6,0.5c0.8,0,1.6-0.3,2.1-1.1c0.8-1.1,0.5-2.9-0.5-3.7l-4.3-3.2h12
		c5.6,0,10.4,4.5,10.4,10.4V40c0,1.6,1.1,2.7,2.7,2.7c1.6,0,2.7-1.1,2.7-2.7V23.7C37.3,14.9,30.4,8,21.6,8h-12l4.3-3.2
		c1.1-0.8,1.3-2.7,0.5-3.7c-0.8-1.1-2.7-1.3-3.7-0.5L1.9,6.9C0.8,7.7,0,9.1,0,10.7C0,12,0.8,13.3,1.9,14.4z"/>
	<path d="M61.3,37.3c-1.6,0-2.7,1.1-2.7,2.7v18.1c0,0.3-0.3,0.5-0.5,0.5H5.9c-0.3,0-0.5-0.3-0.5-0.5V40c0-1.6-1.1-2.7-2.7-2.7
		S0,38.4,0,40v18.1C0,61.3,2.7,64,5.9,64h52.3c3.2,0,5.9-2.7,5.9-5.9V40C64,38.4,62.9,37.3,61.3,37.3z"/>
</g>
</svg>
