<?xml version="1.0" encoding="utf-8"?>
<!-- Generator: Adobe Illustrator 22.0.1, SVG Export Plug-In . SVG Version: 6.00 Build 0)  -->
<svg version="1.1" id="Layer_2_1_" xmlns="http://www.w3.org/2000/svg" xmlns:xlink="http://www.w3.org/1999/xlink" x="0px" y="0px"
	 viewBox="0 0 64 64" style="enable-background:new 0 0 64 64;" xml:space="preserve">
<g>
	<path d="M32,63.9c-1.1,0-1.9-0.3-2.9-0.5C14.7,57.5,5.3,44.2,5.3,28.7V13.5c0-3.5,2.4-6.7,5.9-7.7l18.7-5.3c1.3-0.5,2.9-0.5,4.3,0
		l18.7,5.3c3.5,1.1,5.9,4.3,5.9,7.7v15.2c0,15.2-9.3,28.8-23.7,34.4C33.9,63.7,33.1,63.9,32,63.9z M12.5,11.1
		c-1.1,0.3-1.9,1.3-1.9,2.4v15.2c0,13.1,8,24.8,20.5,29.6c0.5,0.3,1.3,0.3,1.9,0c12.3-4.8,20.3-16.5,20.3-29.6V13.5
		c0-1.1-0.8-2.1-1.9-2.7L32.8,5.5c-0.5,0-1.1,0-1.3,0L12.5,11.1z"/>
</g>
</svg>
