<?xml version="1.0" encoding="utf-8"?>
<!-- Generator: Adobe Illustrator 23.0.0, SVG Export Plug-In . SVG Version: 6.00 Build 0)  -->
<svg version="1.1" id="Layer_1" xmlns="http://www.w3.org/2000/svg" xmlns:xlink="http://www.w3.org/1999/xlink" x="0px" y="0px"
	 viewBox="0 0 64 64" style="enable-background:new 0 0 64 64;" xml:space="preserve">
<g>
	<path d="M2.7,2.7C1.1,2.7,0,3.7,0,5.3v53.3c0,1.6,1.1,2.7,2.7,2.7s2.7-1.1,2.7-2.7V5.3C5.3,3.7,4.3,2.7,2.7,2.7z"/>
	<path d="M61.3,29.3H22.4l3.5-3.5c1.1-1.1,1.1-2.7,0-3.7s-2.7-1.1-3.7,0l-8,8c-0.5,0.5-0.8,1.3-0.8,1.9c0,0.8,0.3,1.3,0.8,1.9l8,8
		c0.5,0.5,1.1,0.8,1.9,0.8s1.3-0.3,1.9-0.8c1.1-1.1,1.1-2.7,0-3.7l-3.5-3.5h38.9c1.6,0,2.7-1.1,2.7-2.7C64,30.4,62.9,29.3,61.3,29.3
		z"/>
</g>
</svg>
