<?xml version="1.0" encoding="utf-8"?>
<!-- Generator: Adobe Illustrator 23.0.0, SVG Export Plug-In . SVG Version: 6.00 Build 0)  -->
<svg version="1.1" id="Layer_1" xmlns="http://www.w3.org/2000/svg" xmlns:xlink="http://www.w3.org/1999/xlink" x="0px" y="0px"
	 viewBox="0 0 64 64" style="enable-background:new 0 0 64 64;" xml:space="preserve">
<g>
	<path d="M61.3,2.7c-1.6,0-2.7,1.1-2.7,2.7v53.3c0,1.6,1.1,2.7,2.7,2.7c1.6,0,2.7-1.1,2.7-2.7V5.3C64,3.7,62.9,2.7,61.3,2.7z"/>
	<path d="M41.9,22.1c-1.1-1.1-2.7-1.1-3.7,0s-1.1,2.7,0,3.7l3.5,3.5H2.7C1.1,29.3,0,30.4,0,32c0,1.6,1.1,2.7,2.7,2.7h38.9l-3.5,3.5
		c-1.1,1.1-1.1,2.7,0,3.7c0.5,0.5,1.3,0.8,1.9,0.8c0.8,0,1.3-0.3,1.9-0.8l8-8c0.5-0.5,0.8-1.1,0.8-1.9c0-0.8-0.3-1.3-0.8-1.9
		L41.9,22.1z"/>
</g>
</svg>
