<?xml version="1.0" encoding="utf-8"?>
<!-- Generator: Adobe Illustrator 23.0.0, SVG Export Plug-In . SVG Version: 6.00 Build 0)  -->
<svg version="1.1" id="Layer_1" xmlns="http://www.w3.org/2000/svg" xmlns:xlink="http://www.w3.org/1999/xlink" x="0px" y="0px"
	 viewBox="0 0 64 64" style="enable-background:new 0 0 64 64;" xml:space="preserve">
<g>
	<path d="M10.5,43.2V48c0,1.6,1.1,2.7,2.7,2.7s2.7-1.1,2.7-2.7v-5.1c0-0.3,0-0.5,0-0.5L11,23.5l20.8-4.8l20.8,4.5l-4.8,19.2
		c0,0.3,0,0.5,0,0.5V48c0,1.6,1.1,2.7,2.7,2.7c1.6,0,2.7-1.1,2.7-2.7v-4.8l5.3-21.3c0.3-0.8,0-1.3-0.3-2.1c-0.3-0.5-1.1-1.1-1.6-1.1
		l-6.1-1.1V8c0-4.5-3.5-8-8-8H21.2c-4.5,0-8,3.5-8,8v9.6l-5.9,1.3C6.5,19.2,6,19.5,5.7,20c-0.5,0.5-0.5,1.3-0.5,2.1L10.5,43.2z
		 M18.5,8c0-1.6,1.1-2.7,2.7-2.7h21.3c1.6,0,2.7,1.1,2.7,2.7v8.3l-12.8-2.9c-0.3,0-0.8,0-1.1,0l-12.8,2.9V8z"/>
	<path d="M57.2,53.3c-3.5,0-5.1,2.1-6.4,3.7c-1.1,1.3-1.3,1.6-2.1,1.6c-0.8,0-1.1-0.3-2.1-1.6s-2.9-3.7-6.4-3.7s-5.1,2.1-6.4,3.7
		c-0.8,1.3-1.1,1.6-1.9,1.6s-1.1-0.3-2.1-1.6c-1.1-1.3-2.9-3.7-6.4-3.7s-5.1,2.1-6.4,3.7c-0.8,1.3-1.3,1.6-1.9,1.6
		c-0.8,0-1.1-0.3-2.1-1.6c-1.3-1.6-2.9-3.7-6.4-3.7c-1.6,0-2.7,1.1-2.7,2.7s1.1,2.7,2.7,2.7c0.8,0,1.1,0.3,2.1,1.6
		C9.7,61.9,11.6,64,15,64s5.1-2.1,6.4-3.7c1.1-1.3,1.3-1.6,2.1-1.6c0.8,0,1.1,0.3,2.1,1.6c1.1,1.3,2.9,3.7,6.4,3.7s5.1-2.1,6.4-3.7
		c1.1-1.3,1.3-1.6,2.1-1.6s1.1,0.3,2.1,1.6c1.1,1.3,2.9,3.7,6.4,3.7s5.1-2.1,6.4-3.7c1.1-1.3,1.3-1.6,2.1-1.6c1.6,0,2.7-1.1,2.7-2.7
		S58.8,53.3,57.2,53.3z"/>
</g>
</svg>
