<?xml version="1.0" encoding="utf-8"?>
<!-- Generator: Adobe Illustrator 22.0.1, SVG Export Plug-In . SVG Version: 6.00 Build 0)  -->
<svg version="1.1" id="Layer_1" xmlns="http://www.w3.org/2000/svg" xmlns:xlink="http://www.w3.org/1999/xlink" x="0px" y="0px"
	 viewBox="0 0 64 64" style="enable-background:new 0 0 64 64;" xml:space="preserve">
<g>
	<path d="M40.9,64l19.3-4.2c0,0-7-47-7-47.4c-0.1-0.3-0.3-0.5-0.5-0.5c-0.2,0-5.2-0.4-5.2-0.4S44,8.1,43.6,7.8
		c-0.1-0.1-0.2-0.1-0.3-0.2L40.9,64z"/>
	<path d="M42.5,7.6c-0.1,0-0.1,0-0.2,0.1c-0.1,0-0.7,0.2-1.9,0.6c-1.2-3.3-3.1-6.3-6.7-6.3c-0.1,0-0.2,0-0.3,0
		c-1-1.4-2.2-1.9-3.3-1.9c-8.3,0-12.3,10.3-13.5,15.5c-3.2,1-5.5,1.7-5.8,1.8c-1.8,0.5-1.8,0.6-2.1,2.3c-0.2,1.3-4.8,37.6-4.8,37.6
		L40.1,64L42.5,7.6z M33.1,10.1c0,0.1,0,0.3,0,0.3c-2,0.6-4.2,1.3-6.4,2c1.2-4.8,3.5-7,5.6-7.9C32.7,5.8,33.1,7.6,33.1,10.1z
		 M29.8,2.2c0.3,0,0.7,0.1,1.1,0.3c-2.7,1.2-5.5,4.4-6.7,10.6c-1.8,0.5-3.5,1.1-5,1.6C20.5,10,23.9,2.2,29.8,2.2z M31.2,30.1
		c0,0-2.1-1.2-4.8-1.2c-3.8,0-4,2.4-4,3c0,3.3,8.7,4.6,8.7,12.3c0,6.1-3.9,10.1-9.1,10.1c-6.3,0-9.5-3.9-9.5-3.9l1.7-5.5
		c0,0,3.3,2.9,6.1,2.9c1.8,0,2.6-1.4,2.6-2.5c0-4.4-7.1-4.5-7.1-11.7c0-6,4.3-11.8,12.9-11.8c3.3,0,5,1,5,1L31.2,30.1z M34.5,4.1
		c1.8,0.2,3.1,2.3,3.8,4.7c-0.9,0.3-2,0.6-3.1,1c0-0.2,0-0.4,0-0.7C35.2,7.1,35,5.4,34.5,4.1z"/>
</g>
</svg>
