<?xml version="1.0" encoding="utf-8"?>
<!-- Generator: Adobe Illustrator 23.0.0, SVG Export Plug-In . SVG Version: 6.00 Build 0)  -->
<svg version="1.1" id="Layer_1" xmlns="http://www.w3.org/2000/svg" xmlns:xlink="http://www.w3.org/1999/xlink" x="0px" y="0px"
	 viewBox="0 0 64 64" style="enable-background:new 0 0 64 64;" xml:space="preserve">
<g>
	<path d="M55.8,18.8H55c0-0.3,0-0.5,0-0.8L48.6,1.8c-0.5-1.3-2.1-2.1-3.5-1.6c-1.3,0.5-2.1,2.1-1.6,3.5l5.8,14.9H14.3l5.8-14.9
		c0.5-1.3,0-2.9-1.6-3.5c-1.3-0.5-2.9,0-3.5,1.6L8.7,18c0,0.3,0,0.5,0,0.5H7.9c-2.9,0-5.3,2.4-5.3,5.3v5.3c0,2.1,1.3,4,2.9,4.8
		l2.7,22.9c0.5,4,4,7.2,8,7.2h31.6c4,0,7.4-2.9,8-7.2l2.7-22.9c1.9-0.8,2.9-2.7,2.9-4.8v-5.3C61.1,21.2,58.7,18.8,55.8,18.8z
		 M7.9,24.1h47.9v5.3H7.9V24.1z M47.6,58.6H16.2c-1.3,0-2.4-1.1-2.7-2.4l-2.7-21.5h41.7l-2.4,21.5C50.2,57.6,48.9,58.6,47.6,58.6z"
		/>
	<path d="M21.2,37.4c-1.6,0-2.7,1.1-2.7,2.7v10.6c0,1.6,1.1,2.7,2.7,2.7c1.6,0,2.7-1.1,2.7-2.7V40C23.9,38.4,22.8,37.4,21.2,37.4z"
		/>
	<path d="M42.5,37.4c-1.6,0-2.7,1.1-2.7,2.7v10.6c0,1.6,1.1,2.7,2.7,2.7s2.7-1.1,2.7-2.7V40C45.2,38.4,44.1,37.4,42.5,37.4z"/>
</g>
</svg>
