<?xml version="1.0" encoding="utf-8"?>
<!-- Generator: Adobe Illustrator 22.0.1, SVG Export Plug-In . SVG Version: 6.00 Build 0)  -->
<svg version="1.1" id="Layer_1" xmlns="http://www.w3.org/2000/svg" xmlns:xlink="http://www.w3.org/1999/xlink" x="0px" y="0px"
	 viewBox="0 0 64 64" style="enable-background:new 0 0 64 64;" xml:space="preserve">
<g>
	<path d="M29.3,24H40c1.6,0,2.7-1.1,2.7-2.7s-1.1-2.7-2.7-2.7H29.3c-4,0-7.2,3.2-7.2,7.2v1.9c0,4,3.2,7.2,7.2,7.2h6.1
		c1.1,0,1.9,0.8,1.9,1.9v1.9c0,1.1-0.8,1.9-1.9,1.9H24c-1.6,0-2.7,1.1-2.7,2.7c0,1.6,1.1,2.7,2.7,2.7h11.5c4,0,7.2-3.2,7.2-7.2v-1.9
		c0-4-3.2-7.2-7.2-7.2h-6.1c-1.1,0-1.9-0.8-1.9-1.9v-1.9C27.5,24.8,28.3,24,29.3,24z"/>
	<path d="M18.1,19.5c-0.8-1.1-2.7-1.3-3.7-0.3L1.1,29.9C0.3,30.4,0,31.2,0,32c0,0.8,0.3,1.6,1.1,2.1l13.3,10.7
		c0.3,0.3,1.1,0.5,1.6,0.5c0.8,0,1.6-0.3,2.1-1.1c0.8-1.1,0.8-2.9-0.3-3.7L7.2,31.7l10.7-8.8C18.7,22.4,18.9,20.5,18.1,19.5z"/>
	<path d="M62.9,29.9L49.6,19.2c-1.1-0.8-2.9-0.8-3.7,0.5c-0.8,1.1-0.8,2.9,0.5,3.7L57.1,32l-10.7,8.5c-1.1,0.8-1.3,2.7-0.5,3.7
		c0.5,0.5,1.3,1.1,2.1,1.1c0.5,0,1.1-0.3,1.6-0.5l13.3-10.7c0.5-0.5,1.1-1.3,1.1-2.1C64,31.2,63.7,30.4,62.9,29.9z"/>
</g>
</svg>
