<?xml version="1.0" encoding="utf-8"?>
<!-- Generator: Adobe Illustrator 23.0.0, SVG Export Plug-In . SVG Version: 6.00 Build 0)  -->
<svg version="1.1" id="Layer_1" xmlns="http://www.w3.org/2000/svg" xmlns:xlink="http://www.w3.org/1999/xlink" x="0px" y="0px"
	 viewBox="0 0 64 64" style="enable-background:new 0 0 64 64;" xml:space="preserve">
<g>
	<path d="M12.4,64c-3.2,0-6.1-1.3-8.5-3.5c-4.8-4.8-4.8-12.5,0-17.1l13.6-13.9c2.1-2.1,5.6-2.1,7.5,0l9.6,9.6c2.1,2.1,2.1,5.3,0,7.5
		L20.9,60.5C18.8,62.7,15.6,64,12.4,64z M21.2,33.3L7.6,47.2c-2.7,2.7-2.7,6.9,0,9.6l0,0c2.4,2.7,6.9,2.7,9.6,0l13.6-13.9L21.2,33.3
		z"/>
</g>
<g>
	<path d="M25.7,41.1c-0.8,0-1.3-0.3-1.9-0.8c-1.1-1.1-1.1-2.7,0-3.7l24.8-25.1l-0.5-0.3c-1.1-1.1-1.1-2.7,0-3.7l0.3-0.3l-2.7-2.7
		c-1.1-1.1-1.1-2.7,0-3.7s2.7-1.1,3.7,0l13.3,13.3c1.1,1.1,1.1,2.7,0,3.7c-1.1,1.1-2.7,1.1-3.7,0l-2.7-2.7l-0.3,0.3
		c-1.1,1.1-2.7,1.1-3.7,0l-0.3-0.3L27.3,40C27.1,40.8,26.5,41.1,25.7,41.1z"/>
</g>
</svg>
