<?xml version="1.0" encoding="utf-8"?>
<!-- Generator: Adobe Illustrator 22.0.1, SVG Export Plug-In . SVG Version: 6.00 Build 0)  -->
<svg version="1.1" id="Layer_1" xmlns="http://www.w3.org/2000/svg" xmlns:xlink="http://www.w3.org/1999/xlink" x="0px" y="0px"
	 viewBox="0 0 64 64" style="enable-background:new 0 0 64 64;" xml:space="preserve">
<path d="M2.4,19.9L0,23.1h11.7l0.9-16.9L2.4,19.9L2.4,19.9z M50.1,4.8L33.5,3l17.6,19.1L50.1,4.8L50.1,4.8z M13.4,27.1l-1.5-2.8H0.1
	l29.1,33.9L13.4,27.1z M13.6,23.1h36.8L39.8,11.6L32,3.1L13.6,23.1z M52.1,24.3L34.8,58.2l29.1-33.9L52.1,24.3L52.1,24.3z M52.6,7.8
	l-1.2-1.6l0.1,2.2l0.8,14.7H64L52.6,7.8z M13.5,11L12.9,22L30.5,3L13.9,4.8L13.5,11z M50.8,24.3H13.2L18.7,35L32,61L50.8,24.3
	L50.8,24.3z"/>
</svg>
