<?xml version="1.0" encoding="utf-8"?>
<!-- Generator: Adobe Illustrator 23.0.0, SVG Export Plug-In . SVG Version: 6.00 Build 0)  -->
<svg version="1.1" id="Layer_1" xmlns="http://www.w3.org/2000/svg" xmlns:xlink="http://www.w3.org/1999/xlink" x="0px" y="0px"
	 viewBox="0 0 64 64" style="enable-background:new 0 0 64 64;" xml:space="preserve">
<path d="M58.1,42.7H45.9c-2.9,0-5.6,2.4-5.9,5.3H18.7c-3.7,0-6.7-2.9-6.7-6.7c0-3.7,2.9-6.7,6.7-6.7h26.7c6.7,0,12-5.3,12-12
	s-5.3-12-12-12H24V8.5c0-3.2-2.7-5.9-5.9-5.9H5.9C2.7,2.7,0,5.3,0,8.5v6.9c0,3.2,2.7,5.9,5.9,5.9h12.3c2.9,0,5.6-2.4,5.9-5.3h21.3
	c3.7,0,6.7,2.9,6.7,6.7s-2.9,6.7-6.7,6.7H18.7c-6.7,0-12,5.3-12,12s5.3,12,12,12H40v2.1c0,3.2,2.7,5.9,5.9,5.9h12.3
	c3.2,0,5.9-2.7,5.9-5.9v-6.9C64,45.3,61.3,42.7,58.1,42.7z M18.7,15.5c0,0.3-0.3,0.5-0.5,0.5H5.9c-0.3,0-0.5-0.3-0.5-0.5V8.5
	C5.3,8.3,5.6,8,5.9,8h12.3c0.3,0,0.5,0.3,0.5,0.5V15.5z M58.7,55.5c0,0.3-0.3,0.5-0.5,0.5H45.9c-0.3,0-0.5-0.3-0.5-0.5v-6.9
	c0-0.3,0.3-0.5,0.5-0.5h12.3c0.3,0,0.5,0.3,0.5,0.5V55.5z"/>
</svg>
