<?xml version="1.0" encoding="utf-8"?>
<!-- Generator: Adobe Illustrator 22.0.1, SVG Export Plug-In . SVG Version: 6.00 Build 0)  -->
<svg version="1.1" id="Layer_1" xmlns="http://www.w3.org/2000/svg" xmlns:xlink="http://www.w3.org/1999/xlink" x="0px" y="0px"
	 viewBox="0 0 64 64" style="enable-background:new 0 0 64 64;" xml:space="preserve">
<path d="M2.3,32.2c0.1-1.4,0.2-2.7,0.4-4c0.1-0.6,0-1-0.3-1.6c-2.3-4.1-2.8-8.5-1.7-13c1.2-5.1,4.1-9,8.7-11.4
	c5.8-3.1,11.6-3,17.4,0.1c0.4,0.2,0.9,0.3,1.4,0.2c7.4-0.9,14.3,0.6,20.5,4.8c6.5,4.4,10.6,10.5,12.4,18.2c0.8,3.4,0.9,6.8,0.4,10.2
	c-0.1,0.4-0.1,0.9,0.2,1.3c2.3,4.1,3,8.5,1.8,13.1c-1.3,5.1-4.2,9-8.9,11.5c-5.8,3.1-11.7,3-17.4-0.2c-0.4-0.2-0.8-0.3-1.3-0.2
	c-4.6,0.6-9.2,0.2-13.7-1.4C16.4,57.9,11.6,54.3,8,49.3c-2.8-3.8-4.6-8-5.3-12.7C2.4,35.1,2.4,33.6,2.3,32.2z M32.2,51.3
	c1.7-0.2,3.4-0.4,5.1-0.6c2.4-0.4,4.6-1.4,6.5-2.8c3.2-2.6,4.5-5.9,4.1-10c-0.3-2.8-1.6-5-3.9-6.5c-1.2-0.8-2.6-1.5-3.9-1.9
	c-3.1-1-6.3-1.7-9.4-2.6c-1.6-0.4-3.1-0.9-4.6-1.8c-1.6-1-2.1-2.7-1.2-4.2c0.6-1,1.6-1.6,2.6-2.1c1.7-0.7,3.5-0.7,5.3-0.6
	c2.2,0.1,3.9,1.2,5,3.1c0.5,0.8,0.9,1.6,1.5,2.3c0.4,0.6,0.9,1.2,1.6,1.5c1.9,0.9,4.3-0.1,5-2.1c0.6-1.6,0.1-3-0.7-4.3
	c-1.4-2.3-3.5-3.8-5.9-4.7c-2.3-0.9-4.7-1.2-7.2-1.2c-3.3,0-6.6,0.4-9.7,1.8c-3.3,1.6-5.4,4.1-5.8,7.9c-0.3,3.5,1.1,6.3,3.9,8.2
	c1.8,1.3,3.8,2,5.9,2.6c2.2,0.6,4.4,1.1,6.7,1.6c1.5,0.4,3,0.8,4.3,1.6c2.6,1.6,2.7,4.9,0.4,6.8c-1.2,1-2.6,1.6-4.2,1.8
	c-1.8,0.3-3.7,0.3-5.5-0.2c-2-0.6-3.3-2-4.3-3.8c-0.5-1.1-1-2.1-1.7-3.1c-0.9-1.3-2.2-1.6-3.7-1.3c-1.4,0.3-2.4,1.1-2.8,2.6
	c-0.2,1.1,0,2.3,0.4,3.3c1.2,3,3.3,5.1,6.1,6.5C25.6,50.9,28.9,51.3,32.2,51.3z"/>
</svg>
