<?xml version="1.0" encoding="utf-8"?>
<!-- Generator: Adobe Illustrator 22.0.1, SVG Export Plug-In . SVG Version: 6.00 Build 0)  -->
<svg version="1.1" id="Bold" xmlns="http://www.w3.org/2000/svg" xmlns:xlink="http://www.w3.org/1999/xlink" x="0px" y="0px"
	 viewBox="0 0 64 64" style="enable-background:new 0 0 64 64;" xml:space="preserve">
<g>
	<path d="M23.6,33.7c-3.7,0-6.7,3-6.7,6.7v16.8c0,3.7,3,6.7,6.7,6.7s6.7-3,6.7-6.7V40.5C30.3,36.7,27.3,33.7,23.6,33.7L23.6,33.7z"
		/>
	<path d="M0,40.5c0,3.7,3,6.7,6.7,6.7s6.7-3,6.7-6.7v-6.7H6.8c0,0,0,0,0,0C3.1,33.7,0,36.7,0,40.5z"/>
	<path d="M23.6,0C23.6,0,23.6,0,23.6,0c-3.7,0-6.7,3-6.7,6.7s3,6.7,6.7,6.7h6.7c0-3.8,0-2.9,0-6.7C30.3,3,27.3,0,23.6,0z"/>
	<path d="M6.7,30.3h16.8c3.7,0,6.7-3,6.7-6.7s-3-6.7-6.7-6.7H6.7c-3.7,0-6.7,3-6.7,6.7S3,30.3,6.7,30.3L6.7,30.3z"/>
	<path d="M57.2,16.9c-3.7,0-6.7,3-6.7,6.7v0v6.7h6.7c3.7,0,6.7-3,6.7-6.7S60.9,16.9,57.2,16.9C57.2,16.9,57.2,16.9,57.2,16.9z"/>
	<path d="M33.7,6.7v16.9c0,3.7,3,6.7,6.7,6.7c3.7,0,6.7-3,6.7-6.7V6.7c0-3.7-3-6.7-6.7-6.7C36.7,0,33.7,3,33.7,6.7L33.7,6.7z"/>
	<path d="M47.1,57.3c0-3.7-3-6.7-6.7-6.7h-6.7v6.7c0,3.7,3,6.7,6.7,6.7S47.1,61,47.1,57.3L47.1,57.3z"/>
	<path d="M57.3,33.7H40.4c-3.7,0-6.7,3-6.7,6.7c0,3.7,3,6.7,6.7,6.7h16.8c3.7,0,6.7-3,6.7-6.7C64,36.7,61,33.7,57.3,33.7z"/>
</g>
</svg>
