<?xml version="1.0" encoding="utf-8"?>
<!-- Generator: Adobe Illustrator 21.0.2, SVG Export Plug-In . SVG Version: 6.00 Build 0)  -->
<svg version="1.1" id="Layer_2_1_" xmlns="http://www.w3.org/2000/svg" xmlns:xlink="http://www.w3.org/1999/xlink" x="0px" y="0px"
	 viewBox="0 0 64 64" style="enable-background:new 0 0 64 64;" xml:space="preserve">
<path d="M62.7,52.8l-12-12l0,0L16,6.2c-0.5-0.5-1.1-0.8-1.9-0.8c-0.8,0-1.3,0.3-1.9,0.8L0.8,17.6c-1.1,1.1-1.1,2.7,0,3.7l34.9,34.9
	c0.5,0.5,1.1,0.8,1.9,0.8c0.8,0,1.3-0.3,1.9-0.8l1.3-1.3l3.2,2.9c0.5,0.5,1.1,0.8,1.9,0.8h14.9c1.3,0,2.7-0.8,3.2-2.4
	C64.1,55.2,63.8,53.8,62.7,52.8z M14.1,11.8l4.3,4.3l-7.7,7.5l-4.3-4.3L14.1,11.8z M14.4,27.2l1.9-1.9l4.8,4.8
	c1.1,1.1,2.7,1.1,3.7,0l0,0c1.1-1.1,1.1-2.7,0-3.7L20,21.6l2.1-2.1l23.2,23.2l-7.7,8L14.4,27.2z M46.6,53.3l-2.4-2.1l4.5-4.5
	l6.9,6.9L46.6,53.3C46.7,53.3,46.6,53.3,46.6,53.3z"/>
</svg>
