<?xml version="1.0" encoding="utf-8"?>
<!-- Generator: Adobe Illustrator 22.0.1, SVG Export Plug-In . SVG Version: 6.00 Build 0)  -->
<svg version="1.1" id="Layer_1" xmlns="http://www.w3.org/2000/svg" xmlns:xlink="http://www.w3.org/1999/xlink" x="0px" y="0px"
	 viewBox="0 0 64 64" style="enable-background:new 0 0 64 64;" xml:space="preserve">
<g>
	<path d="M62.9,30.3c-0.4-0.3-1-0.3-1.5-0.1c-0.4,0.2-0.8,0.4-1.3,0.7c0-0.3,0-0.5,0-0.7c0-7.9,0-15.7,0-23.6c0-1.6-0.3-3.1-1.4-4.4
		c-0.8-1.1-2-1.7-3.3-2.1c-0.1,0-0.2-0.1-0.3-0.1C39.6,0,24.2,0,8.7,0C8,0.3,7.2,0.6,6.5,1c-1.6,1-2.4,2.5-2.7,4.3
		C3.8,5.9,3.8,6.5,3.8,7.1c0,7.7,0,15.4,0,23.1c0,0.2,0,0.3,0,0.7c-0.2-0.1-0.3-0.2-0.6-0.3c-0.3-0.2-0.7-0.4-1-0.5
		c-0.8-0.3-1.6,0.3-1.5,1.3c0.1,0.6,0.3,1.2,0.6,1.5c1.5,1.8,3.3,3.3,5.4,4.7c2.3,1.5,4.7,2.8,7.2,3.9c0.1,0.1,0.2,0.1,0.3,0.2
		c-0.2,0.9-0.4,1.7-0.6,2.6c-0.5,2.3-0.8,4.6-0.6,7c0.2,2.9,1,5.7,2.8,8.1c1.8,2.4,4.2,4,7.2,4.5c0.1,0,0.3,0.1,0.4,0.1
		c0.6,0,1.3,0,1.9,0c0.6-0.1,1.1-0.3,1.7-0.5c2.4-0.8,4-3,4-5.6c0.1-4,0.1-8.1,0.1-12.1c0-0.2,0-0.4,0-0.7c0.6,0.1,1,0.3,1.5,0.4
		c0.1,0.1,0.1,0.3,0.1,0.5c0,3.4,0,6.9,0.1,10.3c0,1.1,0,2.2,0.3,3.3c0.7,2.5,2.6,3.8,5,4.2c0.1,0,0.3,0.1,0.4,0.1
		c0.6,0,1.3,0,1.9,0c1.1-0.3,2.3-0.6,3.3-1.1c2.6-1.2,4.4-3.3,5.6-5.8c1.5-3.2,1.7-6.6,1.3-10.1c-0.2-1.6-0.6-3.2-0.9-4.8
		c0-0.1-0.1-0.3-0.1-0.5c0.9-0.4,1.7-0.8,2.6-1.2c3.1-1.5,6.1-3.3,8.6-5.6c0.8-0.8,1.5-1.7,2.2-2.5c0.1-0.1,0.2-0.4,0.2-0.6
		C63.4,31.1,63.3,30.6,62.9,30.3z M56.6,33.1c-2.4,1.2-4.8,2.2-7.3,2.7c-3.6,0.8-7.2,1-10.9,0.8c-0.9-0.1-1.9-0.1-2.8,0.1
		c-1.5,0.1-2.4,1-2.6,2.6c0,0.1-0.1,0.1-0.1,0.3c-0.9-0.8-1.8-1.5-2.6-2.2c-0.7-0.6-1.5-0.8-2.4-0.8c-2.1,0-4.2,0.1-6.2,0.1
		c-4.9-0.1-9.5-1.2-13.9-3.4c-0.2-0.1-0.3-0.3-0.3-0.6c0-8.2,0-16.4,0.1-24.6c0-0.8,0.2-1.6,0.4-2.4c0.3-1.3,1.3-1.9,2.5-2.2
		c0.8-0.1,1.6-0.2,2.4-0.2c13,0,26,0,39,0c1,0,2.1,0,3.1,0.4c1.3,0.6,1.9,1.6,2.2,2.9c0.1,0.8,0.2,1.7,0.2,2.5c0,7.7,0,15.4,0,23.1
		C57.1,32.7,57,32.9,56.6,33.1z"/>
	<path d="M17.1,22.4c-1.6,2.1-1.9,4.5-0.7,6.9c1.4,2.9,3.9,4.2,6.9,4.4c1.9-0.1,3.5-0.6,4.9-1.5c3.6-2.5,3.9-7.7,0.8-10.7
		C25.5,18.1,19.9,18.5,17.1,22.4z"/>
	<path d="M46.2,20.8c-3.6-2.6-8.6-1.9-11.1,1.5c-1.6,2.2-1.9,4.6-0.7,7.1c1.4,2.9,3.9,4.1,6.8,4.2c2.2-0.1,4-0.7,5.6-2.1
		C50,28.6,49.7,23.3,46.2,20.8z"/>
</g>
</svg>
