<?xml version="1.0" encoding="utf-8"?>
<!-- Generator: Adobe Illustrator 21.0.2, SVG Export Plug-In . SVG Version: 6.00 Build 0)  -->
<svg version="1.1" id="Layer_1" xmlns="http://www.w3.org/2000/svg" xmlns:xlink="http://www.w3.org/1999/xlink" x="0px" y="0px"
	 viewBox="0 0 64 64" style="enable-background:new 0 0 64 64;" xml:space="preserve">
<g>
	<path d="M45.7,32.6c-0.2-0.7-0.4-1.3-0.6-2c-1.2-5.2-0.2-10.8,1.6-15.8c0.3-0.9,0.6-1.8,0.3-2.6c-0.4-1.1-1.6-1.7-2.8-1.5
		c-1.1,0.2-2.1,1-2.6,2s-0.8,2.1-1,3.2c-0.5,2.5-0.8,5-1,7.5c-0.1,1.3-0.1,2.5-0.1,3.8c0,0.6,0,1.3,0,1.9c0,0.4,0.1,0.8-0.3,1
		c-1.4,0.6-3.1,0.5-4.7,0.6c-3.3,0.2-6.6,0-9.9-0.6c-0.2,0-0.4-0.1-0.5-0.2c-0.1-0.2-0.1-0.4-0.1-0.6c0.5-4.6,0.1-9.3-0.9-13.8
		c-0.4-1.7-0.9-3.6-2.6-4.5c-1-0.6-1.8-0.3-2.8,0.5c-1.3,1-1.1,2.7-0.6,4.3c1.3,3.8,2.8,7.8,2.2,11.7c-0.5,3.8-2.9,7.2-3.6,10.9
		c-0.7,3.8,0.3,7.7,1.7,11.3c0.3,0.8,0.7,1.7,1.3,2.4c0.6,0.7,1.4,1.2,2.3,1.2c0.7,0,1.4-0.4,1.8-1c0.8-1.1,0.5-2.7-0.1-3.9
		s-1.4-2.5-1.3-3.9c2.2-0.6,4.6-0.4,6.7,0.5c0.2,0.1,0.5,0.2,0.7,0.5C29,45.8,29,46,29,46.3c0,1,0,1.9,0,2.9c0,0.8,0,1.7,0.3,2.4
		c0.4,0.8,1.3,1.4,2.2,1.5c0.9,0.1,1.9-0.4,2.4-1.2c0.6-0.9,0.6-2.1,0.5-3.2c0-0.8,0-1.6-0.1-2.3c0-0.4,0-0.8,0.1-1.1
		c0.3-0.8,1.3-1.1,2.2-1.2c1.7-0.2,3.4-0.1,5.1,0.4c-0.1,1.2-0.7,2.4-1.3,3.5c-0.6,1.3-1,2.8-0.2,4c0.6,0.9,1.8,1.3,2.8,1
		c1.3-0.4,1.9-1.7,2.3-2.9c1.3-3.3,2.5-6.8,2.2-10.4C47.4,37.2,46.4,34.9,45.7,32.6z M31.7,41.2c-1.9-1.3-4.5-1.9-6.7-1.9
		c-0.8,0-2.1,0-3.5,0.3c0.3-1.3,0.8-2.4,1.1-3.7c0-0.2,5.2,0.8,5.7,0.8c2,0.2,3.9,0.3,5.9,0.2c1.2-0.1,2.4-0.3,3.6-0.5
		c0.3-0.1,3.3-0.8,3.3-0.6c0.5,1.3,1.1,2.7,1.3,4c0-0.2-2-0.3-2.2-0.4C37.2,39.2,34.1,39,31.7,41.2z"/>
	<path d="M9.9,27.6c-1.1-1.1-2.7-1.1-3.7,0s-1.1,2.7,0,3.7L7,32.1H2.7c-1.3,0-2.5,1-2.7,2.3c-0.2,1.8,0.9,3.1,2.7,3.1H7l-0.9,0.7
		c-1.1,1.1-1.1,2.7,0,3.7c0.5,0.5,1.1,0.8,1.9,0.8s1.3-0.3,1.9-0.8l5.3-5.3c1.1-1.1,1.1-2.7,0-3.7L9.9,27.6z"/>
	<ellipse cx="32" cy="26.8" rx="2.7" ry="2.7"/>
	<path d="M61.2,32.1h-4.3l0.8-0.8c1.1-1.1,1.1-2.7,0-3.7s-2.7-1.1-3.7,0l-5.3,5.3c-1.1,1.1-1.1,2.7,0,3.7l5.3,5.3
		c0.5,0.5,1.3,0.8,1.9,0.8s1.3-0.3,1.9-0.8c1.1-1.1,1.1-2.7,0-3.7L57,37.4h4.2c1.3,0,2.5-0.9,2.7-2.1C64.3,33.3,62.8,32.1,61.2,32.1
		z"/>
</g>
</svg>
