<?xml version="1.0" encoding="utf-8"?>
<!-- Generator: Adobe Illustrator 22.0.1, SVG Export Plug-In . SVG Version: 6.00 Build 0)  -->
<svg version="1.1" id="Layer_1" xmlns="http://www.w3.org/2000/svg" xmlns:xlink="http://www.w3.org/1999/xlink" x="0px" y="0px"
	 viewBox="0 0 64 64" style="enable-background:new 0 0 64 64;" xml:space="preserve">
<path d="M32.6,3.2c2.4,0,10.7,0.7,14.6,9.4c1.3,2.9,0.9,8.2,0.7,12.3c-0.1,0.7-0.1,1.3-0.1,2v0.3l0.2,0.2c0.1,0.1,0.7,0.8,2.2,0.8
	l0,0l0,0c1-0.1,2.1-0.3,3.3-0.9c0.2-0.1,0.4-0.1,0.7-0.1s0.6,0.1,0.8,0.1H55c0.6,0.2,1.1,0.6,1.1,1c0,0.2-0.1,1-2.4,1.9
	c-0.2,0.1-0.5,0.2-0.8,0.3c-1.5,0.5-3.6,1.1-4.4,2.9c-0.4,1-0.3,2.2,0.3,3.4c0.3,0.6,4.5,10,13.8,11.5c0,0.1,0,0.1-0.1,0.1
	c-0.1,0.4-1.1,1.7-7.4,2.6c-1,0.1-1.2,1.3-1.5,2.6c-0.1,0.5-0.2,0.9-0.3,1.4c-0.1,0.1-0.1,0.1-0.2,0.1h-0.1l0,0
	c-0.3,0-0.7-0.1-1.2-0.1c-0.9-0.2-2.1-0.4-3.6-0.4c-0.9,0-1.8,0.1-2.7,0.2c-1.9,0.3-3.5,1.4-5.1,2.6c-2.2,1.6-4.5,3.2-8,3.2
	c-0.1,0-0.3,0-0.5,0h-0.1h-0.1c-0.1,0-0.2,0-0.3,0c-3.5,0-5.8-1.6-8-3.2c-1.7-1.1-3.2-2.3-5.1-2.6c-0.9-0.1-1.8-0.2-2.7-0.2
	c-1.6,0-2.8,0.3-3.6,0.4c-0.5,0.1-0.9,0.2-1.2,0.2c-0.2,0-0.2,0-0.3-0.2c-0.1-0.5-0.3-0.9-0.3-1.4c-0.3-1.3-0.5-2.4-1.5-2.6
	c-6.3-0.9-7.3-2.3-7.4-2.6c0-0.1-0.1-0.1-0.1-0.1c9.4-1.6,13.6-10.9,13.8-11.5c0.7-1.3,0.7-2.5,0.3-3.4c-0.7-1.8-3-2.4-4.4-2.9
	c-0.3-0.1-0.6-0.2-0.8-0.3c-1.9-0.7-2.5-1.5-2.4-2c0.1-0.5,1-1.1,1.8-1.1c0.2,0,0.3,0,0.5,0.1c1.3,0.6,2.5,0.9,3.5,0.9
	c1.6,0,2.4-0.7,2.4-0.9l0.2-0.2v-0.3c0-0.6-0.1-1.3-0.1-2c-0.3-4.2-0.6-9.4,0.7-12.3c3.9-8.8,12.1-9.4,14.6-9.4
	C31.5,3.1,32.6,3.1,32.6,3.2C32.5,3.2,32.5,3.2,32.6,3.2 M32.6,1.9L32.6,1.9c-0.1,0-0.1,0-0.1,0l0,0c0,0-1,0-1.1,0
	c-2.6,0-11.6,0.7-15.8,10.2c-1.4,3.2-1.1,8.6-0.8,12.9c0,0.5,0.1,1.1,0.1,1.6c-0.2,0.1-0.6,0.3-1.2,0.3c-0.8,0-1.8-0.3-3-0.8
	c-0.3-0.1-0.6-0.2-1-0.2c-1.3,0-2.9,0.9-3.1,2.2c-0.2,0.9,0.3,2.3,3.2,3.4c0.3,0.1,0.6,0.2,0.9,0.3c1.2,0.4,3.1,0.9,3.6,2.2
	c0.3,0.6,0.1,1.4-0.3,2.4v0.1c-0.1,0.4-4.1,9.3-12.8,10.7c-0.7,0.1-1.1,0.7-1.1,1.4c0,0.2,0.1,0.4,0.1,0.6c0.7,1.6,3.4,2.6,8.4,3.4
	c0.1,0.2,0.3,1,0.5,1.5c0.1,0.5,0.2,1,0.3,1.5c0.1,0.5,0.5,1.1,1.6,1.1c0.4,0,0.9-0.1,1.4-0.2c0.8-0.1,2-0.4,3.4-0.4
	c0.8,0,1.6,0.1,2.4,0.2c1.6,0.3,3,1.2,4.6,2.4c2.3,1.6,4.9,3.4,8.8,3.4c0.1,0,0.2,0,0.3,0s0.3,0,0.5,0c3.9,0,6.5-1.8,8.8-3.4
	c1.6-1.1,3-2.1,4.6-2.4c0.8-0.1,1.7-0.2,2.4-0.2c1.3,0,2.4,0.2,3.4,0.3c0.6,0.1,1.1,0.2,1.4,0.2h0.1h0.1c0.7,0,1.3-0.4,1.5-1.1
	c0.1-0.5,0.3-1,0.3-1.5c0.1-0.5,0.3-1.3,0.5-1.5c5-0.8,7.8-1.9,8.4-3.4c0.1-0.2,0.1-0.4,0.1-0.6c0.1-0.7-0.5-1.3-1.1-1.4
	c-8.7-1.4-12.6-10.4-12.8-10.7v-0.1c-0.5-0.9-0.5-1.8-0.3-2.4c0.5-1.2,2.4-1.8,3.6-2.2c0.3-0.1,0.7-0.2,0.9-0.3
	c2.2-0.9,3.2-1.9,3.2-3.1c0-0.9-0.7-1.8-2-2.2l0,0c-0.4-0.1-0.9-0.3-1.3-0.3c-0.3,0-0.8,0.1-1.2,0.3c-1,0.5-2,0.7-2.8,0.8
	c-0.5,0-0.9-0.1-1.1-0.3c0-0.5,0.1-0.9,0.1-1.3v-0.2c0.3-4.4,0.6-9.8-0.8-12.9C44.2,2.6,35.2,1.9,32.6,1.9L32.6,1.9z"/>
</svg>
