<?xml version="1.0" encoding="utf-8"?>
<!-- Generator: Adobe Illustrator 23.0.0, SVG Export Plug-In . SVG Version: 6.00 Build 0)  -->
<svg version="1.1" id="Layer_1" xmlns="http://www.w3.org/2000/svg" xmlns:xlink="http://www.w3.org/1999/xlink" x="0px" y="0px"
	 viewBox="0 0 64 64" style="enable-background:new 0 0 64 64;" xml:space="preserve">
<g>
	<path d="M60.1,17.3L53.2,0.8C52.9,0.3,52.6,0,52.1,0h-3.7c-0.3,0-0.8,0.3-0.8,0.5l-7.2,16.5c-0.3,0.8,0.3,1.6,0.8,1.6h2.9
		c0,0,0.8,0,0.8-0.3L46,16h7.7l1.1,2.4c0,0.3,0.8,0.3,0.8,0.3h3.2C59.8,18.4,60.4,17.9,60.1,17.3z M47.8,13.3l2.4-6.7l2.4,6.7H47.8z
		"/>
	<path d="M26,49.3l-6.1,5.9V2.7c0-1.6-1.1-2.7-2.7-2.7c-1.6,0-2.7,1.1-2.7,2.7v52.5l-6.1-5.9c-1.1-1.1-2.7-1.1-3.7,0.3
		c-1.1,1.1-1.1,2.7,0.3,3.7l10.7,9.9c1.1,1.1,2.7,1.1,3.5,0l10.7-9.9c1.1-1.1,1.1-2.7,0.3-3.7C28.9,48.5,27,48.5,26,49.3z"/>
	<path d="M54.5,58.7h-6.9l8.8-8.8c0.8-0.8,1.1-1.9,0.5-2.9c-0.3-1.1-1.3-1.6-2.4-1.6H41.2c-1.6,0-2.7,1.1-2.7,2.7
		c0,1.6,1.1,2.7,2.7,2.7h6.9l-8.8,8.8c-0.8,0.8-1.1,1.9-0.5,2.9s1.3,1.6,2.4,1.6h13.3c1.6,0,2.7-1.1,2.7-2.7S56.1,58.7,54.5,58.7z"
		/>
</g>
</svg>
