<?xml version="1.0" encoding="utf-8"?>
<!-- Generator: Adobe Illustrator 22.0.1, SVG Export Plug-In . SVG Version: 6.00 Build 0)  -->
<svg version="1.1" id="Layer_1" xmlns="http://www.w3.org/2000/svg" xmlns:xlink="http://www.w3.org/1999/xlink" x="0px" y="0px"
	 viewBox="0 0 64 64" style="enable-background:new 0 0 64 64;" xml:space="preserve">
<g>
	<path d="M60,23.4c-2.3-2.8-5.4-3.8-8.6-4.3c-1.9-2.9-4.5-5.1-7.6-6.3l-0.1,0c-1.8-0.6-3.4-0.8-4.8-0.8h-0.7c-1.7,0-3.2,1.5-3.2,3.3
		v33.4c0,1.8,1.4,3.3,3.2,3.3h10.1c8.6,0,15.6-7.4,15.6-16.6C63.9,30.8,62.4,26.2,60,23.4z M48.4,47H40V17.1c0.6,0.1,1.3,0.3,2,0.5
		c2.3,0.9,4.3,2.7,5.6,5.1l0.6,1.1l1.3,0.2c3,0.4,5.2,1,6.6,2.7l0.1,0.1c1.7,1.9,2.7,5.3,2.7,8.7C58.9,41.8,54.2,47,48.4,47z"/>
	<path d="M23.5,12c-1.4,0-2.5,1.1-2.5,2.5v35c0,1.4,1.1,2.5,2.5,2.5s2.5-1.1,2.5-2.5v-35C26,13.1,24.9,12,23.5,12z"/>
	<path d="M13.5,15c-1.4,0-2.5,1.1-2.5,2.5v29c0,1.4,1.1,2.5,2.5,2.5s2.5-1.1,2.5-2.5v-29C16,16.1,14.9,15,13.5,15z"/>
	<path d="M2.5,19C1.1,19,0,20.1,0,21.5v21C0,43.9,1.1,45,2.5,45S5,43.9,5,42.5v-21C5,20.1,3.9,19,2.5,19z"/>
</g>
</svg>
