<?xml version="1.0" encoding="utf-8"?>
<!-- Generator: Adobe Illustrator 22.0.1, SVG Export Plug-In . SVG Version: 6.00 Build 0)  -->
<svg version="1.1" id="Layer_1" xmlns="http://www.w3.org/2000/svg" xmlns:xlink="http://www.w3.org/1999/xlink" x="0px" y="0px"
	 viewBox="0 0 64 64" style="enable-background:new 0 0 64 64;" xml:space="preserve">
<path d="M0.8,30.4c-0.1,0-0.3,0.1-0.3,0.3l-0.5,3.6l0.5,3.5c0,0.1,0.1,0.3,0.3,0.3s0.2-0.1,0.3-0.3l0,0l0,0l0,0l0.5-3.5l-0.5-3.6
	C1,30.5,0.9,30.4,0.8,30.4z M3.4,28.4c0-0.1-0.1-0.3-0.3-0.3c-0.1,0-0.3,0.1-0.3,0.3l-0.6,5.7l0.6,5.6C2.9,39.9,3,40,3.1,40
	c0.1,0,0.3-0.1,0.3-0.3l0.7-5.6L3.4,28.4z M13.3,23.1c-0.3,0-0.5,0.2-0.5,0.5l-0.5,10.6l0.5,6.8c0,0.3,0.2,0.5,0.5,0.5
	c0.3,0,0.5-0.2,0.5-0.5l0,0l0.5-6.8l-0.5-10.6C13.8,23.4,13.6,23.1,13.3,23.1z M8.2,26.8c-0.2,0-0.3,0.1-0.4,0.3l-0.5,7L7.8,41
	c0,0.2,0.2,0.3,0.4,0.3s0.3-0.1,0.4-0.3l0.7-6.8l-0.7-7C8.5,27,8.4,26.8,8.2,26.8z M18.5,41.5c0.3,0,0.6-0.3,0.6-0.6l0.5-6.7
	l-0.5-14.1c0-0.3-0.3-0.6-0.6-0.6c-0.3,0-0.6,0.3-0.6,0.6l-0.4,14.1l0.4,6.7C18,41.2,18.2,41.5,18.5,41.5z M29.2,41.6
	c0.5,0,0.8-0.3,0.8-0.8l0,0l0,0l0.3-6.5L30,17.9c0-0.5-0.4-0.8-0.8-0.8c-0.5,0-0.8,0.3-0.8,0.8L28,34.2l0.3,6.5
	C28.4,41.2,28.7,41.6,29.2,41.6z M23.8,41.5c0.4,0,0.7-0.3,0.7-0.7l0,0l0.4-6.6L24.5,20c0-0.4-0.3-0.7-0.7-0.7
	c-0.4,0-0.7,0.3-0.7,0.7l-0.4,14.2l0.4,6.6C23.1,41.2,23.4,41.5,23.8,41.5z M10.8,41.4c0.2,0,0.4-0.2,0.4-0.4l0.6-6.8l-0.6-6.5
	c0-0.3-0.2-0.4-0.4-0.4c-0.2,0-0.4,0.2-0.4,0.4l-0.5,6.5l0.5,6.8C10.3,41.3,10.5,41.4,10.8,41.4z M5.6,41.1c0.1,0,0.3-0.1,0.3-0.3
	l0.7-6.6L6,27.4C6,27.2,5.8,27,5.6,27s-0.3,0.1-0.3,0.3l-0.6,6.8l0.6,6.6C5.4,41,5.5,41.1,5.6,41.1z M26.5,19.8
	c-0.4,0-0.7,0.3-0.7,0.7l-0.3,13.7l0.3,6.6c0,0.4,0.3,0.7,0.7,0.7c0.4,0,0.7-0.3,0.7-0.7l0,0l0.4-6.6l-0.4-13.7
	C27.2,20.2,26.9,19.8,26.5,19.8z M15.9,41.5c0.3,0,0.5-0.2,0.5-0.5l0.5-6.8l-0.5-12.9c0-0.3-0.3-0.5-0.5-0.5c-0.3,0-0.5,0.2-0.5,0.5
	l-0.5,13l0.5,6.8C15.4,41.3,15.6,41.5,15.9,41.5z M21.8,40.9L21.8,40.9l0.5-6.7l-0.5-14.5c0-0.3-0.3-0.7-0.7-0.7
	c-0.3,0-0.6,0.3-0.7,0.7L20,34.2l0.4,6.7c0,0.3,0.3,0.7,0.7,0.7C21.5,41.5,21.8,41.2,21.8,40.9L21.8,40.9z M56.1,25.8
	c-1.1,0-2.1,0.2-3,0.6c-0.6-7.1-6.6-12.7-13.8-12.7c-1.7,0-3.5,0.3-5,0.9c-0.6,0.2-0.7,0.5-0.7,0.9v25c0,0.5,0.4,0.9,0.9,0.9
	c0,0,21.7,0,21.8,0c4.4,0,7.9-3.5,7.9-7.9C64,29.3,60.5,25.8,56.1,25.8z M31.9,15.6c-0.5,0-0.9,0.4-0.9,0.9l-0.3,17.7l0.3,6.5
	c0,0.5,0.4,0.9,0.9,0.9c0.5,0,0.9-0.4,0.9-0.9l0,0l0.4-6.5l-0.4-17.7C32.8,16,32.4,15.6,31.9,15.6z M6.4,46.5
	c-0.9-0.2-1.2-0.3-1.2-0.7c0-0.3,0.2-0.5,0.8-0.5c0.5,0,0.9,0.2,1.3,0.6l0.9-0.8C7.7,44.5,7,44.2,6,44.2c-1.1,0-2.1,0.7-2.1,1.7
	c0,1.1,0.7,1.5,1.8,1.7S7,48.1,7,48.5c0,0.5-0.3,0.6-1,0.6c-0.5,0-1.1-0.2-1.5-0.7l-0.8,0.7C4.2,49.8,5,50.2,6,50.2
	c1.6,0,2.3-0.7,2.3-1.9C8.4,47.1,7.3,46.7,6.4,46.5z M11.8,44.2c-1.6,0-2.6,1.2-2.6,3s0.9,3,2.6,3s2.6-1.2,2.6-3
	S13.4,44.2,11.8,44.2z M11.8,49c-0.9,0-1.3-0.8-1.3-1.9c0-1.1,0.4-1.9,1.3-1.9c0.9,0,1.3,0.8,1.3,1.9C13.2,48.2,12.8,49,11.8,49z
	 M19.1,47.5c0,0.9-0.5,1.5-1.2,1.5c-0.7,0-1.2-0.6-1.2-1.5v-3.3h-1.1v3.3c0,1.7,0.9,2.7,2.4,2.7c1.5,0,2.4-1,2.4-2.7v-3.3h-1.1V47.5
	z M25.4,46.7c0,0.3,0,1.1,0,1.3c-0.1-0.1-0.3-0.5-0.4-0.7l-2.1-3.1h-1.1v5.9h1.1v-2.6c0-0.3,0-1.1,0-1.3c0.1,0.1,0.3,0.5,0.4,0.7
	l2.2,3.2h1.1v-5.9h-1.1V46.7z M29.8,44.2H28v5.9h1.7c1.5,0,3-0.9,3-3C32.8,45.1,31.5,44.2,29.8,44.2z M29.7,49h-0.6v-3.6h0.6
	c1.2,0,1.7,0.6,1.7,1.8C31.5,48.3,30.9,49,29.7,49z M36.4,45.3c0.5,0,0.9,0.2,1.1,0.6l1.1-0.5c-0.3-0.7-1-1.3-2.2-1.3
	c-1.5,0-2.6,1.2-2.6,3c0,1.9,1,3,2.6,3c1.1,0,1.7-0.5,2.2-1.3l-1-0.6c-0.3,0.5-0.6,0.7-1.1,0.7c-0.9,0-1.4-0.8-1.4-1.9
	C35,46.1,35.5,45.3,36.4,45.3z M40.7,44.2h-1.1v5.9h3.5V49h-2.4V44.2z M46.1,44.2c-1.6,0-2.6,1.2-2.6,3s0.9,3,2.6,3s2.6-1.2,2.6-3
	S47.8,44.2,46.1,44.2z M46.1,49c-0.9,0-1.3-0.8-1.3-1.9c0-1.1,0.4-1.9,1.3-1.9c0.9,0,1.3,0.8,1.3,1.9C47.5,48.2,47.1,49,46.1,49z
	 M53.5,47.5c0,0.9-0.5,1.5-1.2,1.5c-0.7,0-1.2-0.6-1.2-1.5v-3.3h-1.1v3.3c0,1.7,0.9,2.7,2.4,2.7c1.5,0,2.4-1,2.4-2.7v-3.3h-1.1V47.5
	z M57.9,44.2h-1.8v5.9h1.7c1.5,0,3-0.9,3-3C60.8,45.1,59.6,44.2,57.9,44.2z M57.9,49h-0.6v-3.6h0.6c1.2,0,1.7,0.6,1.7,1.8
	C59.6,48.3,59.1,49,57.9,49z"/>
</svg>
