<?xml version="1.0" encoding="utf-8"?>
<!-- Generator: Adobe Illustrator 23.0.0, SVG Export Plug-In . SVG Version: 6.00 Build 0)  -->
<svg version="1.1" id="Layer_2_1_" xmlns="http://www.w3.org/2000/svg" xmlns:xlink="http://www.w3.org/1999/xlink" x="0px" y="0px"
	 viewBox="0 0 64 64" style="enable-background:new 0 0 64 64;" xml:space="preserve">
<g>
	<path d="M21.8,30.3c-0.3-0.8-0.8-1.1-1.4-1.1h-6.4c-0.8,0-1.4,0.3-1.4,1.1L0.2,58.9c-0.6,1.1,0.3,2.2,1.4,2.2h5.3
		c0.6,0,1.4-0.6,1.4-0.8l1.7-4.4h13.3l1.7,4.4c0,0.6,0.8,0.8,1.4,0.8h5.6c1.4-0.3,2.2-1.4,1.7-2.2L21.8,30.3z M12.7,50.6l4.4-11.4
		l4.4,11.4H12.7z"/>
	<path d="M63.2,3.7c-1.1-1.1-2.8-1.1-3.6,0L37.7,24.5l-5.3-5c-1.1-1.1-2.8-1.1-3.6,0c-0.8,1.1-1.1,2.8,0,3.6l6.7,6.4
		c0.6,0.6,1.4,0.8,2.5,0.8c0.8,0,1.7-0.3,2.5-0.8L63.5,7.6C64.1,6.4,64.3,4.8,63.2,3.7z"/>
</g>
</svg>
