<?xml version="1.0" encoding="utf-8"?>
<!-- Generator: Adobe Illustrator 23.0.0, SVG Export Plug-In . SVG Version: 6.00 Build 0)  -->
<svg version="1.1" id="Layer_1" xmlns="http://www.w3.org/2000/svg" xmlns:xlink="http://www.w3.org/1999/xlink" x="0px" y="0px"
	 viewBox="0 0 64 64" style="enable-background:new 0 0 64 64;" xml:space="preserve">
<path d="M61.2,24.3c-0.5-1.3-1.9-2.1-3.5-1.9c-1.3,0.5-2.1,1.9-1.9,3.5c0.8,2.4,1.1,5.1,1.1,7.5c0,3.7-0.8,7.5-2.4,10.9
	c-4.3,8.8-12.8,14.1-22.7,14.1C18.3,58.7,6.8,47.2,6.8,33.3S18,8.3,31.9,8.3c3.7,0,7.5,0.8,10.7,2.4h-6.4c-1.6,0-2.7,1.1-2.7,2.7
	s1.1,2.7,2.7,2.7h10.7c1.6,0,2.7-1.1,2.7-2.7V2.7c0-1.6-1.1-2.7-2.7-2.7c-1.6,0-2.7,1.1-2.7,2.7v2.7c-3.7-1.6-7.7-2.4-12-2.4
	C15.3,2.9,1.5,16.5,1.5,33.3S15.3,64,32.1,64c11.7,0,22.4-6.7,27.5-17.1c2.1-4.3,2.9-8.5,2.9-13.3C62.5,30.4,62,27.2,61.2,24.3z"/>
</svg>
