<?xml version="1.0" encoding="utf-8"?>
<!-- Generator: Adobe Illustrator 22.0.1, SVG Export Plug-In . SVG Version: 6.00 Build 0)  -->
<svg version="1.1" id="Layer_1" xmlns="http://www.w3.org/2000/svg" xmlns:xlink="http://www.w3.org/1999/xlink" x="0px" y="0px"
	 viewBox="0 0 64 64" style="enable-background:new 0 0 64 64;" xml:space="preserve">
<g>
	<g>
		<path d="M32,0C14.3,0,0,14.3,0,32s14.3,32,32,32s32-14.3,32-32S49.7,0,32,0z M46.7,46.1c-0.6,0.9-1.8,1.2-2.8,0.7
			c-7.5-4.6-17-5.7-28.1-3.1c-1.1,0.3-2.2-0.4-2.4-1.5c-0.3-1.1,0.4-2.2,1.5-2.4c12.2-2.8,22.6-1.6,31.1,3.6
			C47,44,47.2,45.2,46.7,46.1z M50.6,37.5c-0.7,1.1-2.3,1.5-3.4,0.8c-8.6-5.3-21.7-6.8-31.9-3.7c-1.3,0.4-2.7-0.3-3.1-1.7
			c-0.4-1.3,0.3-2.7,1.7-3.1c11.6-3.6,26-1.8,35.9,4.2C50.9,34.8,51.3,36.2,50.6,37.5z M50.9,28.4c-10.3-6.1-27.4-6.7-37.2-3.7
			c-1.5,0.5-3.2-0.4-3.7-2c-0.5-1.5,0.4-3.2,2-3.7c11.3-3.4,30-2.8,41.9,4.3c1.4,0.9,1.9,2.7,1.1,4.1C54.2,28.8,52.3,29.2,50.9,28.4
			z"/>
	</g>
</g>
</svg>
