<?xml version="1.0" encoding="utf-8"?>
<!-- Generator: Adobe Illustrator 22.0.1, SVG Export Plug-In . SVG Version: 6.00 Build 0)  -->
<svg version="1.1" id="Layer_1" xmlns="http://www.w3.org/2000/svg" xmlns:xlink="http://www.w3.org/1999/xlink" x="0px" y="0px"
	 viewBox="0 0 64 64" style="enable-background:new 0 0 64 64;" xml:space="preserve">
<g>
	<path d="M43.8,45c-7.9-3.9-17-4.8-25.4-2.5c-1.3,0.4-2.1,1.7-1.8,3.1c0.4,1.3,1.7,2.1,3.1,1.8c7.3-1.9,15.1-1.2,22,2.2
		c0.4,0.2,0.7,0.3,1.1,0.3c0.9,0,1.8-0.5,2.3-1.4C45.6,47.1,45,45.6,43.8,45z"/>
	<path d="M47.1,33.8c-6.1-2.9-12.8-4.4-19.3-4.4c-3.8,0-7.3,0.4-10.5,1.3c-1.3,0.4-2.1,1.7-1.8,3.1c0.4,1.3,1.7,2.1,3.1,1.8
		c2.8-0.8,5.8-1.1,9.2-1.1c5.8,0,11.8,1.3,17.2,3.9c0.3,0.2,0.7,0.2,1.1,0.2c0.9,0,1.8-0.5,2.3-1.4C48.9,35.8,48.3,34.3,47.1,33.8z"
		/>
	<path d="M50.5,21.9c-7.1-3.3-14.8-5-22.8-5c-3.6,0-7.5,0.4-11.6,1.3c-1.4,0.3-2.2,1.6-1.9,3c0.3,1.4,1.6,2.2,3,1.9
		c3.7-0.8,7.3-1.2,10.5-1.2c7.3,0,14.2,1.5,20.7,4.5c0.3,0.2,0.7,0.2,1.1,0.2c0.9,0,1.8-0.5,2.3-1.4C52.3,24,51.7,22.5,50.5,21.9z"
		/>
	<path d="M32,0.1C14.3,0.1,0,14.4,0,32c0,17.7,14.3,32,32,32c17.7,0,32-14.4,32-32C64,14.4,49.6,0.1,32,0.1z M32,59.1
		c-14.9,0-27-12.1-27-27c0-14.9,12.1-27,27-27c14.9,0,27,12.1,27,27C59,46.9,46.9,59.1,32,59.1z"/>
</g>
</svg>
