<?xml version="1.0" encoding="utf-8"?>
<!-- Generator: Adobe Illustrator 23.0.0, SVG Export Plug-In . SVG Version: 6.00 Build 0)  -->
<svg version="1.1" id="Layer_1" xmlns="http://www.w3.org/2000/svg" xmlns:xlink="http://www.w3.org/1999/xlink" x="0px" y="0px"
	 viewBox="0 0 64 64" style="enable-background:new 0 0 64 64;" xml:space="preserve">
<g>
	<path d="M24,21.3v-2.7c1.6,0,2.7-1.1,2.7-2.7v-2.7c0-1.6-1.1-2.7-2.7-2.7h-5.3c-1.6,0-2.7,1.1-2.7,2.7V16c0,1.6,1.1,2.7,2.7,2.7
		v2.7c-6.9,1.1-12.3,6.4-13.1,13.3c-0.3,0.8-0.3,1.3-0.3,1.9v21.3c0,3.5,2.7,6.1,6.1,6.1h20c3.2,0,6.1-2.7,6.1-5.9V36.8
		c0-0.5,0-1.3-0.3-1.9C36.5,28,30.9,22.4,24,21.3z M21.3,26.4c5.3,0,9.9,3.7,10.4,8.8H10.7C11.5,30.4,16,26.4,21.3,26.4z M31.2,58.7
		H11.5c-0.5,0-0.8-0.3-0.8-0.5V40.8H32v17.3C32,58.4,31.7,58.7,31.2,58.7z"/>
	<path d="M46.7,5.3H44c-0.8,0-1.3,0.5-1.3,1.3v2.7c0,0.8,0.5,1.3,1.3,1.3h2.7c0.8,0,1.3-0.5,1.3-1.3V6.7C48,5.9,47.5,5.3,46.7,5.3z"
		/>
	<path d="M46.7,21.3H44c-0.8,0-1.3,0.5-1.3,1.3v2.7c0,0.8,0.5,1.3,1.3,1.3h2.7c0.8,0,1.3-0.5,1.3-1.3v-2.7
		C48,21.9,47.5,21.3,46.7,21.3z"/>
	<path d="M57.3,0h-2.7c-0.8,0-1.3,0.5-1.3,1.3V4c0,0.8,0.5,1.3,1.3,1.3h2.7c0.8,0,1.3-0.5,1.3-1.3V1.3C58.7,0.5,58.1,0,57.3,0z"/>
	<path d="M57.3,26.7h-2.7c-0.8,0-1.3,0.5-1.3,1.3v2.7c0,0.8,0.5,1.3,1.3,1.3h2.7c0.8,0,1.3-0.5,1.3-1.3V28
		C58.7,27.2,58.1,26.7,57.3,26.7z"/>
	<path d="M36,13.3h-2.7c-0.8,0-1.3,0.5-1.3,1.3v2.7c0,0.8,0.5,1.3,1.3,1.3H36c0.8,0,1.3-0.5,1.3-1.3v-2.7
		C37.3,13.9,36.8,13.3,36,13.3z"/>
	<path d="M57.3,13.3h-2.7c-0.8,0-1.3,0.5-1.3,1.3v2.7c0,0.8,0.5,1.3,1.3,1.3h2.7c0.8,0,1.3-0.5,1.3-1.3v-2.7
		C58.7,13.9,58.1,13.3,57.3,13.3z"/>
</g>
</svg>
