<?xml version="1.0" encoding="utf-8"?>
<!-- Generator: Adobe Illustrator 23.0.0, SVG Export Plug-In . SVG Version: 6.00 Build 0)  -->
<svg version="1.1" id="Layer_1" xmlns="http://www.w3.org/2000/svg" xmlns:xlink="http://www.w3.org/1999/xlink" x="0px" y="0px"
	 viewBox="0 0 64 64" style="enable-background:new 0 0 64 64;" xml:space="preserve">
<path d="M63.7,14.4c-0.3-2.7-2.1-4.8-4.8-4.8c-5.1-0.5-14.4,0-21.1,6.7c-1.3,1.3-2.4,2.9-3.5,4.8C33.6,16.8,32,12,28.2,8.3
	C22.1,1.3,11.4,0.3,5.6,0C2.9,0,0.5,2.1,0.2,4.8C-0.3,10.7,0,21.6,6.4,28.3c5.3,5.3,13.3,6.4,19.2,6.4c1.6,0,2.7,0,4-0.3v26.9
	c0,1.6,1.1,2.7,2.7,2.7c1.6,0,2.7-1.1,2.7-2.7V45.1c0.3,0,0.5,0,0.8,0c5.6,0,16-1.1,22.1-7.2C64.5,30.9,64.2,18.9,63.7,14.4z
	 M10.1,24.5C4.8,19.2,5,9.3,5.3,5.3c4,0,14.1,0.8,19.5,6.1l0,0c5.1,5.3,5.1,13.6,4.8,17.6C24.5,29.6,14.9,29.3,10.1,24.5z
	 M53.8,34.1c-5.1,5.3-14.7,5.6-18.9,5.6c0.3-4.3,1.9-14.7,6.9-20s13.3-5.3,16.5-5.1C58.9,18.7,59.2,28.5,53.8,34.1z"/>
</svg>
