<?xml version="1.0" encoding="utf-8"?>
<!-- Generator: Adobe Illustrator 23.0.0, SVG Export Plug-In . SVG Version: 6.00 Build 0)  -->
<svg version="1.1" id="Layer_2_1_" xmlns="http://www.w3.org/2000/svg" xmlns:xlink="http://www.w3.org/1999/xlink" x="0px" y="0px"
	 viewBox="0 0 64 64" style="enable-background:new 0 0 64 64;" xml:space="preserve">
<path d="M46.6,35h-7.5l1.3-25.4c0-2.7-0.8-5.1-2.7-7c-3.2-3.5-8.8-3.5-12.1,0c-1.9,1.9-2.7,4.3-2.7,7L24.5,35h-7.2
	c-6.7,0-12.1,5.9-12.1,12.9v4.8c0,1.6,1.1,2.9,2.7,3.2v2.7c0,2.9,2.4,5.4,5.4,5.4h37.4c2.9,0,5.4-2.4,5.4-5.4v-2.7
	c1.6-0.3,2.7-1.6,2.7-3.2v-4.8C58.7,40.9,53.3,35,46.6,35z M28.8,9.4c0-1.1,0.3-2.1,1.1-2.9c1.3-1.3,3.2-1.3,4.3,0
	c0.8,0.8,1.1,1.9,1.1,2.9L33.9,35h-4L28.8,9.4z M10.7,47.8c0-4.3,2.9-7.8,6.7-7.8h7.5H39h7.5c3.8,0,6.7,3.5,6.7,7.8v2.9H10.7V47.8z
	 M13.3,58.8v-2.7h37.4v2.7H13.3z"/>
</svg>
