<?xml version="1.0" encoding="utf-8"?>
<!-- Generator: Adobe Illustrator 21.0.2, SVG Export Plug-In . SVG Version: 6.00 Build 0)  -->
<svg version="1.1" id="Layer_1" xmlns="http://www.w3.org/2000/svg" xmlns:xlink="http://www.w3.org/1999/xlink" x="0px" y="0px"
	 viewBox="0 0 64 64" style="enable-background:new 0 0 64 64;" xml:space="preserve">
<g>
	<path d="M32,12l0.4,1.2l4.8-1.5l-2.8-8.6c-0.3-1-1.3-1.7-2.4-1.7s-2,0.7-2.4,1.7l-2.8,8.6l4.8,1.5L32,12z"/>
	<path d="M36.6,26.1c0.3,1,1.3,1.7,2.4,1.7h9v-5h-7.2L38.6,16l-4.8,1.5L36.6,26.1z"/>
	<path d="M63.9,24.6c-0.3-1-1.3-1.7-2.4-1.7h-9v5h1.3l-1.1,0.8l2.9,4l7.3-5.3C63.8,26.8,64.2,25.6,63.9,24.6z"/>
	<path d="M48.4,46.4l-2.2-6.8l5.8-4.2l-2.9-4l-7.3,5.3c-0.9,0.6-1.2,1.8-0.9,2.8l2.8,8.6L48.4,46.4z"/>
	<path d="M49.8,50.7l-4.8,1.5l0.4,1.2l-1.1-0.8l-2.9,4l7.3,5.3c0.4,0.3,1,0.5,1.5,0.5s1-0.2,1.5-0.5c0.9-0.6,1.2-1.8,0.9-2.8
		L49.8,50.7z"/>
	<path d="M30.5,44.8l-7.3,5.3l2.9,4l5.8-4.2l5.8,4.2l2.9-4l-7.3-5.3C32.6,44.2,31.4,44.2,30.5,44.8z"/>
	<path d="M18.5,53.5l0.4-1.2l-4.8-1.5l-2.8,8.6c-0.3,1,0,2.2,0.9,2.8c0.4,0.3,1,0.5,1.5,0.5s1-0.2,1.5-0.5l7.3-5.3l-2.9-4L18.5,53.5
		z"/>
	<path d="M22.2,36.6l-7.3-5.3l-2.9,4l5.8,4.2l-2.2,6.8l4.8,1.5l2.8-8.6C23.4,38.4,23.1,37.2,22.2,36.6z"/>
	<path d="M11.5,27.9v-5h-9c-1.1,0-2,0.7-2.4,1.7c-0.3,1,0,2.2,0.9,2.8l7.3,5.3l2.9-4l-1.1-0.8H11.5z"/>
	<path d="M27.4,26.1l2.8-8.6L25.4,16l-2.2,6.8H16v5h9C26.1,27.9,27.1,27.2,27.4,26.1z"/>
</g>
</svg>
