<?xml version="1.0" encoding="utf-8"?>
<!-- Generator: Adobe Illustrator 23.0.0, SVG Export Plug-In . SVG Version: 6.00 Build 0)  -->
<svg version="1.1" id="Layer_1" xmlns="http://www.w3.org/2000/svg" xmlns:xlink="http://www.w3.org/1999/xlink" x="0px" y="0px"
	 viewBox="0 0 64 64" style="enable-background:new 0 0 64 64;" xml:space="preserve">
<g>
	<polygon points="37.9,27.1 45.6,27.3 45.9,22 41.6,22 40,18.3 35.2,20.2 	"/>
	<path d="M61.1,22.8l-6.1-0.3l-0.3,5.1l-3.5,2.7l3.2,4.3l8.3-6.4c0.8-0.5,1.3-1.6,1.3-2.4C64,24.1,62.7,22.8,61.1,22.8z"/>
	<polygon points="43.5,44.9 48.8,43.3 47.5,39.6 51,37.2 47.8,32.9 41.4,37.5 	"/>
	<path d="M46.2,52.9l-4-2.4L39.2,55l8.8,5.6l0.8,0.5h0.8c1.6,0,3.2-1.3,3.2-2.9L51,51.6L46.2,52.9z"/>
	<path d="M27,47.3l-9.1,5.6l4.5-15.4l-13-9.9l16.5-0.5L32,12.2l0,0l1.6,4l5.1-1.9L35,4.7c-0.5-1.1-1.6-1.9-2.9-1.9s-2.4,0.8-2.9,1.9
		L27,10.3l0,0L22.5,22L3,22.8c-1.3,0-2.4,0.8-2.9,2.1c-0.3,1.3,0,2.7,1.1,3.5l15.2,11.4L11,57.4c-0.3,1.3,0,2.4,1.1,3.2
		c0.8,0.3,1.6,0.5,2.1,0.5s1.1-0.3,1.6-0.5l12.5-8l0,0l3.7-2.1l3.7,2.4l2.9-4.5L32,44.1L27,47.3z"/>
</g>
</svg>
