<?xml version="1.0" encoding="utf-8"?>
<!-- Generator: Adobe Illustrator 23.0.0, SVG Export Plug-In . SVG Version: 6.00 Build 0)  -->
<svg version="1.1" id="Layer_1" xmlns="http://www.w3.org/2000/svg" xmlns:xlink="http://www.w3.org/1999/xlink" x="0px" y="0px"
	 viewBox="0 0 64 64" style="enable-background:new 0 0 64 64;" xml:space="preserve">
<g>
	<path d="M61.3,58.7H5.9c-0.3,0-0.5-0.3-0.5-0.5V2.7C5.3,1.1,4.3,0,2.7,0S0,1.1,0,2.7v55.5C0,61.3,2.7,64,5.9,64h55.5
		c1.6,0,2.7-1.1,2.7-2.7C64,59.7,62.9,58.7,61.3,58.7z"/>
	<path d="M60,21.3H48c-1.6,0-2.7,1.1-2.7,2.7s1.1,2.7,2.7,2.7h6.7L48.3,32H34.7c-0.8,0-1.6,0.3-2.1,1.1l-7.5,9.6H13.3
		c-1.6,0-2.7,1.1-2.7,2.7c0,1.6,1.1,2.7,2.7,2.7h13.1c0.8,0,1.6-0.3,2.1-1.1l7.5-9.6h13.3c0.5,0,1.3-0.3,1.6-0.5l7.7-6.4v6.9
		c0,1.6,1.1,2.7,2.7,2.7c1.6,0,2.7-1.1,2.7-2.7v-12C64,23.2,62.1,21.3,60,21.3z"/>
</g>
</svg>
