<?xml version="1.0" encoding="utf-8"?>
<!-- Generator: Adobe Illustrator 23.0.0, SVG Export Plug-In . SVG Version: 6.00 Build 0)  -->
<svg version="1.1" id="Layer_1" xmlns="http://www.w3.org/2000/svg" xmlns:xlink="http://www.w3.org/1999/xlink" x="0px" y="0px"
	 viewBox="0 0 64 64" style="enable-background:new 0 0 64 64;" xml:space="preserve">
<g>
	<path d="M61.3,58.7H5.9c-0.3,0-0.5-0.3-0.5-0.5V2.7C5.3,1.1,4.3,0,2.7,0S0,1.1,0,2.7v55.5C0,61.3,2.7,64,5.9,64h55.5
		c1.6,0,2.7-1.1,2.7-2.7C64,59.7,62.9,58.7,61.3,58.7z"/>
	<path d="M61.3,29.3c-1.6,0-2.7,1.1-2.7,2.7v6.9l-7.7-6.4c-0.5-0.3-1.1-0.5-1.6-0.5H36l-7.5-9.6c-0.5-0.5-1.3-1.1-2.1-1.1H13.3
		c-1.6,0-2.7,1.1-2.7,2.7s1.1,2.7,2.7,2.7h11.7l7.5,9.6c0.5,0.5,1.3,1.1,2.1,1.1h13.6l6.4,5.3H48c-1.6,0-2.7,1.1-2.7,2.7
		c0,1.6,1.1,2.7,2.7,2.7h12c2.1,0,4-1.9,4-4V32C64,30.4,62.9,29.3,61.3,29.3z"/>
</g>
</svg>
