<?xml version="1.0" encoding="utf-8"?>
<!-- Generator: Adobe Illustrator 22.0.1, SVG Export Plug-In . SVG Version: 6.00 Build 0)  -->
<svg version="1.1" id="Layer_1" xmlns="http://www.w3.org/2000/svg" xmlns:xlink="http://www.w3.org/1999/xlink" x="0px" y="0px"
	 viewBox="0 0 64 64" style="enable-background:new 0 0 64 64;" xml:space="preserve">
<g>
	<path d="M31.9,0C15.2,0,1.3,13,0.1,29.4l17.1,7.1c1.5-1,3.2-1.5,5.1-1.5c0.1,0,0.4,0,0.5,0l7.6-11.1c0-0.1,0-0.1,0-0.1
		c0-6.6,5.4-12.1,12.1-12.1s12.1,5.4,12.1,12.1s-5.4,12.1-12.1,12.1c-0.1,0-0.2,0-0.3,0l-10.9,7.8c0,0.1,0,0.3,0,0.4
		c0,5-4.1,9.1-9.1,9.1c-4.4,0-8.1-3.2-8.9-7.3L1.1,40.7C4.9,54.1,17.3,64,31.9,64c17.7,0,32-14.3,32-32S49.6,0,31.9,0z"/>
	<path d="M20.1,48.6l-3.9-1.6c0.7,1.5,1.9,2.7,3.5,3.3c3.4,1.5,7.4-0.2,8.9-3.6c0.7-1.7,0.7-3.5,0-5.2c-0.7-1.7-2-3-3.6-3.7
		s-3.4-0.6-5-0.1l4.1,1.7c2.5,1.1,3.8,4,2.7,6.5C25.6,48.4,22.7,49.6,20.1,48.6z"/>
	<path d="M50.5,23.7c0-4.4-3.6-8.1-8.1-8.1c-4.4,0-8.1,3.6-8.1,8.1s3.7,8.1,8.1,8.1S50.5,28.2,50.5,23.7z M36.5,23.7
		c0-3.4,2.7-6,6-6c3.4,0,6,2.7,6,6c0,3.4-2.7,6-6,6C39.2,29.8,36.5,27.1,36.5,23.7z"/>
</g>
</svg>
