<?xml version="1.0" encoding="utf-8"?>
<!-- Generator: Adobe Illustrator 23.0.0, SVG Export Plug-In . SVG Version: 6.00 Build 0)  -->
<svg version="1.1" id="Layer_1" xmlns="http://www.w3.org/2000/svg" xmlns:xlink="http://www.w3.org/1999/xlink" x="0px" y="0px"
	 viewBox="0 0 64 64" style="enable-background:new 0 0 64 64;" xml:space="preserve">
<path d="M56.5,0h-6.7c-1.6,0-2.7,1.1-2.7,2.7v2.7C47.1,7,48.2,8,49.8,8s2.7-1.1,2.7-2.7h2.7v17.9c0,6.4-5.1,11.5-11.5,11.5h-1.1
	c-6.4,0-11.5-5.1-11.5-11.5V5.4h2.7C33.7,7,34.8,8,36.4,8C38,8,39.1,7,39.1,5.4V2.7C39.1,1.1,38,0,36.4,0h-6.7c-2.1,0-4,1.9-4,4
	v19.3c0,9.1,7.2,16.3,16.1,16.9v13.1c0,3.2-2.4,5.9-5.4,5.9H20.9C17.7,58.9,15,56.2,15,53v-8.6c3.7-1.1,6.7-4.6,6.7-8.8
	c0-5.1-4-9.1-9.1-9.1s-9.1,4-9.1,9.1c0,4,2.7,7.5,6.4,8.6v8.6C9.9,58.9,15,64,21.2,64h15.3c5.9,0,10.7-5.1,10.7-11.2V39.4
	c7.8-1.6,13.4-8.3,13.4-16.6V4C60.5,1.9,58.6,0,56.5,0z M12.3,32.1c2.1,0,3.7,1.6,3.7,3.7s-1.6,3.7-3.7,3.7S8.6,38,8.6,35.9
	S10.4,32.1,12.3,32.1z"/>
</svg>
