<?xml version="1.0" encoding="utf-8"?>
<!-- Generator: Adobe Illustrator 22.0.1, SVG Export Plug-In . SVG Version: 6.00 Build 0)  -->
<svg version="1.1" id="Layer_1" xmlns="http://www.w3.org/2000/svg" xmlns:xlink="http://www.w3.org/1999/xlink" x="0px" y="0px"
	 viewBox="0 0 64 64" style="enable-background:new 0 0 64 64;" xml:space="preserve">
<g id="XMLID_11_">
	<rect id="XMLID_12_" x="31" y="25.8" width="5" height="14.2"/>
	<path id="XMLID_13_" d="M29.4,25.6c-1.6-0.5-2.6-0.1-3.5,1.4c-0.2-0.3-0.3-0.6-0.5-1c-0.2-0.3-0.1-0.3-0.5-0.3c-1.1,0-2.2,0-3.2,0
		c-0.1,0-0.3,0-0.3,0V40h5v-8.9c0-1,0.2-1.2,1.2-1.4c0.3,0,0.5-0.1,0.8,0c0.5,0.1,1,0.2,1.5,0.2c0-1.4,0-2.6,0-3.8
		C29.7,25.8,29.7,25.8,29.4,25.6z"/>
	<path id="XMLID_14_" d="M17.4,29l2,0c0.3-1.1,0.5-2.2,0.7-3.2h-2.7v-4.3c-1.4,0.3-2.7,0.7-4,0.9c-0.3,0.1-0.5,0.3-0.5,0.5
		c-0.2,0.9-0.3,1.8-0.5,2.8h-2v3.2h1.8v0.5c0,2.4,0,4.6,0,6.9c0,2,0.9,3.2,2.5,3.7c1.8,0.5,3.6,0.1,5.3-0.3v-3.7
		c-0.6,0.1-1.2,0.2-1.7,0.2c-0.6,0.1-0.9-0.2-0.9-0.8c0-0.2,0-0.3,0-0.5c0-1.8,0-3.8,0-5.6C17.4,29.3,17.4,29.1,17.4,29z"/>
	<path id="XMLID_15_" d="M8.3,32.1c-0.6-0.5-1.5-0.8-2.2-1.2c-0.2-0.1-0.5-0.2-0.7-0.4c-0.2-0.2-0.3-0.5-0.3-0.7
		c0-0.4,0.4-0.6,0.7-0.7c0.3-0.1,3.6,0.3,3.6,0.5c0-1,0-2.1,0-3.1c0-0.3-0.1-0.5-0.3-0.5c-1.7-0.5-3.5-0.7-5.3-0.3
		c-2.5,0.6-4.4,3.1-3.7,5.7c0.2,0.8,0.7,1.7,1.4,2.2c0.8,0.5,1.7,1.1,2.6,1.5c0.4,0.1,0.8,0.6,0.5,1c-0.2,0.3-0.3,0.5-0.7,0.5
		c-0.5,0.1-1,0.1-1.4,0c-0.8-0.2-1.5-0.3-2.4-0.5c0,1.2,0,2.4,0,3.5c0,0.3,0.5,0.4,0.7,0.4c0.4,0.1,0.8,0.2,1.3,0.3
		c1.1,0.2,2.1,0.2,3.2,0.1c1.1-0.1,2.2-0.4,3-1.2c1-0.9,1.3-2.3,1.4-3.6C9.8,34.1,9.3,32.9,8.3,32.1z"/>
	<path id="XMLID_18_" d="M58.3,36.3c-0.9-0.2-1.4-0.8-1.2-1.8H64c-0.1-1.5-0.2-3-0.3-4.4c-0.2-1.2-0.7-2.4-1.6-3.3
		c-1.2-1.1-2.6-1.4-4.2-1.2c-2.9,0.2-4.7,1.4-5.5,4.1c-0.6,2.2-0.6,4.3,0,6.5c0.5,2.1,1.8,3.5,4,3.9c2,0.3,3.8,0.3,5.7-0.2
		c1.1-0.3,1.1-0.3,1.1-1.4v-2.6c-0.5,0.1-0.9,0.2-1.4,0.3C60.9,36.3,59.6,36.4,58.3,36.3z M57.3,29.4c0-0.3,0.2-0.5,0.3-0.6
		c0.5-0.5,1.4-0.3,1.4,0.3c0.2,0.9,0.3,1.7,0.3,2.6c-0.9,0-1.4,0-2.3,0C57.1,31,57.1,30.2,57.3,29.4z"/>
	<path id="XMLID_21_" d="M49.8,27.6c-0.5-0.9-1.1-1.5-2.1-1.8c-1.5-0.3-2.9-0.3-4.3,0.6c-0.2,0.1-0.3,0.2-0.5,0.3
		c-0.3-1-1.2-0.9-2.1-0.9c-0.2,0-0.3,0-0.3,0h-2.4v18.9c0,0.2,0,0.3,0,0.5h5.2v-5c0.8,0.1,1.4,0.3,2.2,0.3c2.5,0,4-1.2,4.6-3.5
		c0-0.1,0.1-0.3,0.1-0.3c0.5-1.8,0.5-3.7,0.4-5.7C50.4,29.4,50.3,28.5,49.8,27.6z M45.4,35.5c-0.3,1.1-0.9,1.4-2.1,1v-0.9
		c0-1.8,0-3.7,0-5.5c0-0.3,0.1-0.5,0.3-0.6c0.2-0.1,0.3-0.1,0.5-0.1c0.8-0.1,1,0,1.2,0.8C45.7,31.8,45.7,33.7,45.4,35.5z"/>
	<path id="XMLID_22_" d="M33.8,18.9C33.8,18.9,33.8,18.9,33.8,18.9h-0.6h-0.1c-1.2,0.2-2.2,1.2-2.2,2.6c0,0.7,0.3,1.4,0.8,1.8
		c0.3,0.3,0.7,0.5,1.2,0.6c0.3,0.1,0.3,0.1,0.6,0.1l0,0c1.4,0,2.6-1.2,2.6-2.6C36.1,20.1,35.1,18.9,33.8,18.9z"/>
</g>
</svg>
