<?xml version="1.0" encoding="utf-8"?>
<!-- Generator: Adobe Illustrator 23.0.0, SVG Export Plug-In . SVG Version: 6.00 Build 0)  -->
<svg version="1.1" id="Layer_2_1_" xmlns="http://www.w3.org/2000/svg" xmlns:xlink="http://www.w3.org/1999/xlink" x="0px" y="0px"
	 viewBox="0 0 64 64" style="enable-background:new 0 0 64 64;" xml:space="preserve">
<path d="M58.7,16h-24V5.3H48c1.6,0,2.7-1.1,2.7-2.7S49.6,0,48,0H16c-1.6,0-2.7,1.1-2.7,2.7s1.1,2.7,2.7,2.7h13.3V16h-24
	c-1.6,0-2.7,1.1-2.7,2.7c0,1.6,1.1,2.7,2.7,2.7h24v40c0,1.6,1.1,2.7,2.7,2.7c1.6,0,2.7-1.1,2.7-2.7v-40h24c1.6,0,2.7-1.1,2.7-2.7
	C61.3,17.1,60.3,16,58.7,16z"/>
</svg>
