<?xml version="1.0" encoding="utf-8"?>
<!-- Generator: Adobe Illustrator 22.0.1, SVG Export Plug-In . SVG Version: 6.00 Build 0)  -->
<svg version="1.1" id="Layer_1" xmlns="http://www.w3.org/2000/svg" xmlns:xlink="http://www.w3.org/1999/xlink" x="0px" y="0px"
	 viewBox="0 0 64 64" style="enable-background:new 0 0 64 64;" xml:space="preserve">
<path d="M64,33.3v8.9c0,7.9-6.4,14.3-14.3,14.3c-7.9,0-14.3-6.3-14.3-14.2v-8.9l4.4,2l6.5-1.9v9c0,1.9,1.5,3.4,3.4,3.4
	c1.9,0,3.4-1.5,3.4-3.4v-9.2H64z M35.4,25.9l4.4,2l6.5-1.9v-4.5c0-7.7-6.5-13.9-14.3-13.9c-7.7,0-14.3,6.1-14.3,13.8V42
	c0,1.9-1.5,3.4-3.4,3.4s-3.4-1.5-3.4-3.4v-8.7H0v8.9C0,50,6.4,56.4,14.3,56.4c7.8,0,14.3-6.3,14.3-14.1V21.9c0-1.9,1.5-3.4,3.4-3.4
	c1.9,0,3.4,1.5,3.4,3.4V25.9L35.4,25.9z"/>
</svg>
