<?xml version="1.0" encoding="utf-8"?>
<!-- Generator: Adobe Illustrator 23.0.0, SVG Export Plug-In . SVG Version: 6.00 Build 0)  -->
<svg version="1.1" id="Layer_1" xmlns="http://www.w3.org/2000/svg" xmlns:xlink="http://www.w3.org/1999/xlink" x="0px" y="0px"
	 viewBox="0 0 64 64" style="enable-background:new 0 0 64 64;" xml:space="preserve">
<g>
	<path d="M32,17.3c-8,0-14.7,6.7-14.7,14.7S24,46.7,32,46.7S46.7,40,46.7,32S40,17.3,32,17.3z M32,41.3c-5.1,0-9.3-4.3-9.3-9.3
		s4.3-9.3,9.3-9.3s9.3,4.3,9.3,9.3S37.1,41.3,32,41.3z"/>
	<path d="M32,10.7c1.6,0,2.7-1.1,2.7-2.7V2.7C34.7,1.1,33.6,0,32,0c-1.6,0-2.7,1.1-2.7,2.7V8C29.3,9.6,30.4,10.7,32,10.7z"/>
	<path d="M32,53.3c-1.6,0-2.7,1.1-2.7,2.7v5.3c0,1.6,1.1,2.7,2.7,2.7c1.6,0,2.7-1.1,2.7-2.7V56C34.7,54.4,33.6,53.3,32,53.3z"/>
	<path d="M49.1,17.6c0.8,0,1.3-0.3,1.9-0.8l3.2-3.2c1.1-1.1,1.1-2.7,0-3.7s-2.7-1.1-3.7,0l-3.2,3.2c-1.1,1.1-1.1,2.7,0,3.7
		C47.7,17.3,48.3,17.6,49.1,17.6z"/>
	<path d="M13.1,47.2l-3.2,3.2c-1.1,1.1-1.1,2.7,0,3.7c0.5,0.5,1.3,0.8,1.9,0.8s1.3-0.3,1.9-0.8l3.2-3.2c1.1-1.1,1.1-2.7,0-3.7
		C15.7,46.1,14.1,46.1,13.1,47.2z"/>
	<path d="M61.3,29.3H56c-1.6,0-2.7,1.1-2.7,2.7c0,1.6,1.1,2.7,2.7,2.7h5.3c1.6,0,2.7-1.1,2.7-2.7C64,30.4,62.9,29.3,61.3,29.3z"/>
	<path d="M10.7,32c0-1.6-1.1-2.7-2.7-2.7H2.7C1.1,29.3,0,30.4,0,32c0,1.6,1.1,2.7,2.7,2.7H8C9.6,34.7,10.7,33.6,10.7,32z"/>
	<path d="M50.9,47.2c-1.1-1.1-2.7-1.1-3.7,0s-1.1,2.7,0,3.7l3.2,3.2c0.5,0.5,1.3,0.8,1.9,0.8c0.5,0,1.3-0.3,1.9-0.8
		c1.1-1.1,1.1-2.7,0-3.7L50.9,47.2z"/>
	<path d="M13.1,16.8c0.5,0.5,1.3,0.8,1.9,0.8s1.3-0.3,1.9-0.8c1.1-1.1,1.1-2.7,0-3.7l-3.2-3.2c-1.1-1.1-2.7-1.1-3.7,0
		s-1.1,2.7,0,3.7L13.1,16.8z"/>
</g>
</svg>
