<?xml version="1.0" encoding="utf-8"?>
<!-- Generator: Adobe Illustrator 23.0.0, SVG Export Plug-In . SVG Version: 6.00 Build 0)  -->
<svg version="1.1" id="Layer_1" xmlns="http://www.w3.org/2000/svg" xmlns:xlink="http://www.w3.org/1999/xlink" x="0px" y="0px"
	 viewBox="0 0 64 64" style="enable-background:new 0 0 64 64;" xml:space="preserve">
<g>
	<path d="M10.7,21.6H32c1.6,0,2.7-1.1,2.7-2.7s-1.1-2.7-2.7-2.7H10.7c-1.6,0-2.7,1.1-2.7,2.7S9.1,21.6,10.7,21.6z"/>
	<path d="M10.7,29.6h10.7c1.6,0,2.7-1.1,2.7-2.7s-1.1-2.7-2.7-2.7H10.7c-1.6,0-2.7,1.1-2.7,2.7S9.1,29.6,10.7,29.6z"/>
	<path d="M10.7,37.6h16c1.6,0,2.7-1.1,2.7-2.7s-1.1-2.7-2.7-2.7h-16c-1.6,0-2.7,1.1-2.7,2.7S9.1,37.6,10.7,37.6z"/>
	<path d="M43.5,23.2c1.3,0.8,2.9,0.3,3.7-1.1c0-0.5,0.3-0.5,0.8-0.5s0.8,0.5,0.8,0.8c0,0.5-0.3,0.8-0.5,0.8
		c-1.6,1.1-2.9,3.2-2.9,5.1v1.3c0,1.6,1.1,2.7,2.7,2.7s2.7-1.1,2.7-2.7v-1.3c0,0,0-0.3,0.3-0.3c2.4-1.1,3.7-3.7,3.5-6.4
		c-0.3-2.9-2.7-5.1-5.6-5.6c-2.7-0.3-5.1,1.1-6.4,3.2C41.6,20.8,42.1,22.4,43.5,23.2z"/>
	<circle cx="48" cy="37.6" r="2.7"/>
	<path d="M58.9,8.3H5.1C2.4,8.3,0,10.7,0,13.3v37.1c0,1.9,1.1,3.7,2.7,4.5c0.8,0.5,1.9,0.8,2.7,0.8s1.9-0.3,2.7-0.8l11.7-6.7h39.2
		c2.9,0,5.1-2.4,5.1-5.1V13.3C64,10.7,61.6,8.3,58.9,8.3z M58.7,42.9H19.7c-1.1,0-1.9,0.3-2.7,0.8L5.3,50.4V13.6h53.3V42.9z"/>
</g>
</svg>
