<?xml version="1.0" encoding="utf-8"?>
<!-- Generator: Adobe Illustrator 23.0.0, SVG Export Plug-In . SVG Version: 6.00 Build 0)  -->
<svg version="1.1" id="Layer_1" xmlns="http://www.w3.org/2000/svg" xmlns:xlink="http://www.w3.org/1999/xlink" x="0px" y="0px"
	 viewBox="0 0 64 64" style="enable-background:new 0 0 64 64;" xml:space="preserve">
<path d="M43.9,0.4c-0.8-0.5-1.9-0.5-2.7,0c-3.5,1.6-6.4,4.5-9.1,8c-2.7-3.5-5.6-6.4-9.1-8c-0.8-0.5-1.9-0.5-2.7,0
	C9.7,5.5,2.7,19.9,2.7,35.9c0,10.2,2.7,19.5,7.5,26.7c0.5,0.8,1.6,1.3,2.7,1.3h38.5c1.1,0,1.9-0.5,2.4-1.3
	c4.8-7.2,7.5-16.6,7.5-26.7C61.3,19.9,54.3,5.5,43.9,0.4z M21.4,5.7c3.2,1.9,5.9,4.8,8.3,8.8c0.8,1.3,1.6,2.9,2.1,4.5l-23,8.3
	C10.8,17.5,15.3,9.2,21.4,5.7z M8.1,35.9c0-0.8,0-1.9,0-2.7l25.4-9.1c0.5,2.1,1.1,4.5,1.1,6.9L8.1,40.5C8.4,39.1,8.1,37.5,8.1,35.9z
	 M29.7,57.6c-0.3,0.3-0.5,0.8-0.8,1.1H14c-2.4-3.7-4-8-4.8-12.6l25.7-9.4C34.8,44.5,32.9,51.7,29.7,57.6z M50,58.7h-15
	c3.2-6.4,5.1-14.4,5.1-22.7s-1.9-16.3-5.1-22.7c2.1-3.5,4.5-5.9,7.5-7.7c8,4.8,13.4,17.1,13.4,30.5C55.9,44.5,53.8,52.5,50,58.7z"/>
</svg>
