<?xml version="1.0" encoding="utf-8"?>
<!-- Generator: Adobe Illustrator 23.0.0, SVG Export Plug-In . SVG Version: 6.00 Build 0)  -->
<svg version="1.1" id="Layer_1" xmlns="http://www.w3.org/2000/svg" xmlns:xlink="http://www.w3.org/1999/xlink" x="0px" y="0px"
	 viewBox="0 0 64 64" style="enable-background:new 0 0 64 64;" xml:space="preserve">
<path d="M63.2,14.1L49.8,0.8c-1.1-1.1-2.7-1.1-3.7,0s-1.1,2.7,0,3.7l4.8,4.8l-4.5,4.5l-3.7-3.5c-1.6-1.6-4.5-1.6-6.1,0L12,34.9
	c-0.8,0.8-1.3,1.9-1.3,3.2c0,0.8,0.3,1.6,0.5,2.4l-4.3,4.3c-0.8,0.8-1.3,1.9-1.3,3.2c0,1.1,0.5,2.4,1.3,3.2l1.3,1.3L0.8,60
	c-1.1,1.1-1.1,2.7,0,3.7c0.5,0,1.1,0.3,1.9,0.3s1.3-0.3,1.9-0.8l7.5-7.5l1.3,1.3c0.8,0.8,1.9,1.3,3.2,1.3c1.1,0,2.1-0.5,3.2-1.3
	l4.3-4.3c0.8,0.5,1.6,0.5,2.4,0.5c1.1,0,2.1-0.5,3.2-1.3l24.5-24.5c1.6-1.6,1.6-4.5,0-6.1l-3.7-3.7l4.5-4.5l4.8,4.8
	c0.5,0.5,1.3,0.8,1.9,0.8s1.3-0.3,1.9-0.8C64.2,17.1,64.2,15.2,63.2,14.1z M16.3,52.5l-4.8-4.8l3.5-3.5l4.8,4.8L16.3,52.5z
	 M25.9,47.7l-9.6-9.6l23.2-23.2l9.6,9.6L25.9,47.7z"/>
</svg>
