<?xml version="1.0" encoding="utf-8"?>
<!-- Generator: Adobe Illustrator 21.0.2, SVG Export Plug-In . SVG Version: 6.00 Build 0)  -->
<svg version="1.1" id="Layer_1" xmlns="http://www.w3.org/2000/svg" xmlns:xlink="http://www.w3.org/1999/xlink" x="0px" y="0px"
	 viewBox="0 0 64 64" style="enable-background:new 0 0 64 64;" xml:space="preserve">
<path d="M60,9.9C59.4,9.3,58.5,9,57.4,9l-13.6,1.7C39.2,4.4,31.7-1.4,20.7,0.4c-1.4,0.3-2.6,1.7-2.3,3.2s1.7,2.6,3.2,2.3
	C29.1,5.3,34,8.2,37.5,12l-4.9,0.8c-0.7,0.1-1.3,0.3-2.3,1c0,0-27,24.7-27.2,26.5c-0.1,0.8,0.3,1.4,0.9,2L25.9,63
	c0.6,0.6,1.2,0.9,2,0.9c0.9,0,1.4-0.3,2-0.9l26-24.5c0.6-0.6,0.9-1.2,0.9-1.7l4-24.2C60.9,11.6,60.6,10.5,60,9.9z M51.3,35L28,56.9
	l-17.9-17L33.2,18l7.8-1.2c1.2,2.3,1.7,4,1.7,4.3c0.3,1.2,1.4,2,2.9,2h0c0.7,0,1.5-0.2,2-0.7c0.7-0.7,1.1-1.7,0.9-2.8
	c-0.3-1.2-0.9-2.3-1.4-3.5l7.2-1.2L51.3,35z"/>
</svg>
