<?xml version="1.0" encoding="utf-8"?>
<!-- Generator: Adobe Illustrator 23.0.0, SVG Export Plug-In . SVG Version: 6.00 Build 0)  -->
<svg version="1.1" id="Layer_1" xmlns="http://www.w3.org/2000/svg" xmlns:xlink="http://www.w3.org/1999/xlink" x="0px" y="0px"
	 viewBox="0 0 64 64" style="enable-background:new 0 0 64 64;" xml:space="preserve">
<g>
	<path d="M61.3,29.3h-5.9C54.1,18.4,45.6,9.9,34.7,8.5V2.7C34.7,1.1,33.6,0,32,0c-1.6,0-2.7,1.1-2.7,2.7v5.9
		C18.4,9.9,9.9,18.4,8.5,29.3H2.7C1.1,29.3,0,30.4,0,32c0,1.6,1.1,2.7,2.7,2.7h5.9c1.1,10.9,9.9,19.7,20.8,21.1v5.6
		c0,1.6,1.1,2.7,2.7,2.7c1.6,0,2.7-1.1,2.7-2.7v-5.6c10.9-1.3,19.7-10.1,20.8-21.1h5.9c1.6,0,2.7-1.1,2.7-2.7
		C64,30.4,62.9,29.3,61.3,29.3z M34.7,50.4C34.4,49.1,33.3,48,32,48c-1.3,0-2.4,1.1-2.7,2.4c-8-1.3-14.4-7.7-15.5-15.7H16
		c1.6,0,2.7-1.1,2.7-2.7c0-1.6-1.1-2.7-2.7-2.7h-2.1c1.3-8,7.5-14.1,15.5-15.5c0.3,1.1,1.3,2.1,2.7,2.1c1.3,0,2.1-0.8,2.7-2.1
		c8,1.1,14.4,7.5,15.5,15.5C49.1,29.6,48,30.7,48,32c0,1.3,0.8,2.4,2.1,2.7C49.1,42.7,42.7,49.1,34.7,50.4z"/>
	<path d="M38.9,36.3c1.3-1.6,2.1-3.5,2.1-5.6c0-4.8-4-8.8-8.8-8.8s-8.8,4-8.8,8.8c0,2.1,0.8,4,2.1,5.6c-1.6,0.8-2.9,1.6-4.3,2.7
		c-1.1,1.1-1.1,2.7-0.3,3.7c0.5,0.5,1.3,0.8,1.9,0.8s1.3-0.3,1.9-0.8c4.3-3.7,10.9-3.7,15.2,0c1.1,1.1,2.7,0.8,3.7-0.3
		c1.1-1.1,0.8-2.7-0.3-3.7C41.9,37.9,40.3,37.1,38.9,36.3z M32,27.2c1.9,0,3.5,1.6,3.5,3.5c0,1.9-1.6,3.5-3.5,3.5
		c-1.9,0-3.5-1.6-3.5-3.5C28.5,28.8,30.1,27.2,32,27.2z"/>
</g>
</svg>
