<?xml version="1.0" encoding="utf-8"?>
<!-- Generator: Adobe Illustrator 23.0.0, SVG Export Plug-In . SVG Version: 6.00 Build 0)  -->
<svg version="1.1" id="Layer_1" xmlns="http://www.w3.org/2000/svg" xmlns:xlink="http://www.w3.org/1999/xlink" x="0px" y="0px"
	 viewBox="0 0 64 64" style="enable-background:new 0 0 64 64;" xml:space="preserve">
<g>
	<path d="M61.3,29.3h-4.8C55.2,17.9,46.1,8.8,34.7,7.5V2.7C34.7,1.1,33.6,0,32,0c-1.6,0-2.7,1.1-2.7,2.7v4.8
		C17.9,8.8,8.8,17.9,7.5,29.3H2.7C1.1,29.3,0,30.4,0,32c0,1.6,1.1,2.7,2.7,2.7h4.8c1.3,11.5,10.4,20.5,21.9,21.9v4.8
		c0,1.6,1.1,2.7,2.7,2.7c1.6,0,2.7-1.1,2.7-2.7v-4.8c11.5-1.3,20.5-10.4,21.9-21.9h4.8c1.6,0,2.7-1.1,2.7-2.7
		C64,30.4,62.9,29.3,61.3,29.3z M50.7,34.7L50.7,34.7c-0.8,8.5-7.5,15.2-16,16.3v-0.3c0-1.6-1.1-2.7-2.7-2.7c-1.6,0-2.7,1.1-2.7,2.7
		v0.3c-8.5-1.1-15.2-8-16.3-16.3h0.3c1.6,0,2.7-1.1,2.7-2.7c0-1.6-1.1-2.7-2.7-2.7h-0.3c1.1-8.5,8-15.2,16.3-16.3v0.3
		c0,1.6,1.1,2.7,2.7,2.7c1.6,0,2.7-1.1,2.7-2.7v-0.3c8.5,1.1,15.2,8,16.3,16.3h-0.3c-1.6,0-2.7,1.1-2.7,2.7
		C48,33.6,49.1,34.7,50.7,34.7z"/>
	<path d="M34.7,28.5c0.8,1.1,2.7,1.3,3.7,0.5s1.3-2.7,0.5-3.7c-1.1-1.3-2.7-2.4-4.3-2.7v-1.3c0-1.6-1.1-2.7-2.7-2.7
		c-1.6,0-2.7,1.1-2.7,2.7v1.3c-1.3,0.5-2.4,1.3-3.2,2.4c-0.8,1.3-1.1,2.7-0.8,4c0.5,1.6,1.6,3.2,4,4.5c0.5,0.3,1.1,0.5,1.6,0.8
		c0.8,0.3,1.6,0.8,2.1,1.1c0.5,0.3,0.5,0.5,0.8,0.5c-0.3,0.3-0.8,0.5-1.6,0.5c-1.3,0-2.1-0.5-2.7-1.1c-1.1-1.1-2.7-1.3-3.7-0.3
		s-1.3,2.7-0.3,3.7s2.4,1.9,3.7,2.4v1.1c0,1.6,1.1,2.7,2.7,2.7c1.3,0,2.7-1.1,2.7-2.7v-1.1c1.6-0.5,2.9-1.6,3.7-3.2
		c1.3-2.4,0.3-5.3-2.4-7.2c-0.8-0.5-1.9-1.1-2.7-1.6c-0.5,0-0.8,0-1.3-0.3c-0.8-0.5-1.1-0.8-1.3-1.1c0.3-0.3,0.5-0.3,0.8-0.5
		C33.1,27.5,34.4,28,34.7,28.5z"/>
</g>
</svg>
