<?xml version="1.0" encoding="utf-8"?>
<!-- Generator: Adobe Illustrator 21.0.2, SVG Export Plug-In . SVG Version: 6.00 Build 0)  -->
<svg version="1.1" id="Layer_1" xmlns="http://www.w3.org/2000/svg" xmlns:xlink="http://www.w3.org/1999/xlink" x="0px" y="0px"
	 viewBox="0 0 64 64" style="enable-background:new 0 0 64 64;" xml:space="preserve">
<g>
	<path d="M61.9,24.3L55.7,9.6C54.6,6.9,52,5.3,49,5.3H38.7l-0.8-3.2c-0.3-1-1.4-2.1-2.7-2.1h-6.4c-1.3,0-2.4,0.8-2.7,2.1l-0.8,3.2
		H14.9c-2.9,0-5.6,1.6-6.7,4.3L2.1,24.3C0.8,24.8,0,26.1,0,27.5v19.7c0,1.9,1.6,3.5,3.5,3.5H8V56c0,4.5,3.5,8,8,8s8-3.5,8-8v-5.3h16
		V56c0,4.5,3.5,8,8,8s8-3.5,8-8v-5.3h4.5c1.9,0,3.5-1.6,3.5-3.5V27.5C64,26.1,63.2,24.8,61.9,24.3z M13.3,11.7
		c0.3-0.5,0.8-1.1,1.6-1.1h12.5h9.1H49c0.8,0,1.3,0.5,1.6,1.1L56,24H8L13.3,11.7z M18.6,56c0,1.6-1,2.7-2.6,2.7s-2.7-1.1-2.7-2.7
		v-5.3h5.3V56L18.6,56z M50.6,56c0,1.6-1,2.7-2.6,2.7s-2.7-1.1-2.7-2.7v-5.3h5.3V56L50.6,56z M58.7,45.3H56H40H24H8H5.3v-16h53.3v16
		H58.7z"/>
	<path d="M13.3,40h8c1.6,0,2.7-1.1,2.7-2.7c0-1.6-1.1-2.7-2.7-2.7h-8c-1.6,0-2.7,1.1-2.7,2.7C10.7,38.9,11.7,40,13.3,40z"/>
	<path d="M42.7,40h8c1.6,0,2.7-1.1,2.7-2.7c0-1.6-1.1-2.7-2.7-2.7h-8c-1.6,0-2.7,1.1-2.7,2.7S41.1,40,42.7,40z"/>
</g>
</svg>
