<?xml version="1.0" encoding="utf-8"?>
<!-- Generator: Adobe Illustrator 23.0.0, SVG Export Plug-In . SVG Version: 6.00 Build 0)  -->
<svg version="1.1" id="Layer_2_1_" xmlns="http://www.w3.org/2000/svg" xmlns:xlink="http://www.w3.org/1999/xlink" x="0px" y="0px"
	 viewBox="0 0 64 64" style="enable-background:new 0 0 64 64;" xml:space="preserve">
<g>
	<path d="M14.7,32H20c1.6,0,2.7-1.1,2.7-2.7c0-1.6-1.1-2.7-2.7-2.7h-5.3c-1.6,0-2.7,1.1-2.7,2.7C12,30.9,13.1,32,14.7,32z"/>
	<path d="M61.1,42.9l-3.7-1.9V21.9C57.3,9.9,47.7,0,36,0C24.5,0,16.3,6.4,14.9,16H7.2c-1.9,0-3.5,1.3-4,3.2l-1.6,7.2
		c-0.3,0.5-0.3,1.1-0.3,1.3V60c0,2.1,1.9,4,4,4h24c2.1,0,4-1.6,4-4.3v-32c0-0.3,0-0.5,0-0.5l-1.9-7.7c-0.3-1.9-2.1-3.2-4-3.2h-7.2
		C21.9,8.5,29.3,5.6,36,5.6c8.8,0,16,7.5,16,16.5v19.2l-3.7,1.9c-1.1,0.3-1.6,1.1-1.6,2.1v16c0,1.6,1.1,2.7,2.7,2.7H60
		c1.6,0,2.7-1.1,2.7-2.7v-16C62.7,44.3,62.1,43.5,61.1,42.9z M26.4,21.3l1.6,6.4c0,0,0,0,0,0.3v30.7H6.7V28l1.6-6.7H26.4z
		 M57.3,58.7H52V46.9l2.7-1.3l2.7,1.3V58.7z"/>
</g>
</svg>
