<?xml version="1.0" encoding="utf-8"?>
<!-- Generator: Adobe Illustrator 22.0.1, SVG Export Plug-In . SVG Version: 6.00 Build 0)  -->
<svg version="1.1" id="Layer_1" xmlns="http://www.w3.org/2000/svg" xmlns:xlink="http://www.w3.org/1999/xlink" x="0px" y="0px"
	 viewBox="0 0 64 64" style="enable-background:new 0 0 64 64;" xml:space="preserve">
<g>
	<path d="M54.6,9.4C48.6,3.3,40.6,0,32,0S15.4,3.3,9.4,9.4S0,23.4,0,32s3.3,16.6,9.4,22.6S23.4,64,32,64s16.6-3.3,22.6-9.4
		S64,40.6,64,32S60.7,15.4,54.6,9.4z M32,60.9C16,60.9,3.1,48,3.1,32S16,3.1,32,3.1s28.9,13,28.9,28.9S48,60.9,32,60.9z"/>
	<path d="M47.1,17.2c-1.1-0.7-2.8-0.1-3.2,0.1L13.3,29.2c-1.1,0.4-2.3,1.3-2.1,2.7c0.2,1.6,1.9,2.2,2.1,2.3l0,0l7.1,2.4
		c0.5,1.8,2.2,7.3,2.6,8.5c0.3,1,0.7,2.2,1.8,2.2c0.1,0.1,0.3,0.1,0.6,0.1c0.7,0,1.1-0.2,1.3-0.5l4.1-3.8l6.9,5.3
		c0.1,0.1,0.1,0.1,0.3,0.1c0.6,0.3,1.1,0.3,1.5,0.3s0.9-0.1,1.1-0.2c1.2-0.5,1.7-1.6,1.8-1.8c0-0.1,0.1-0.1,0.1-0.2l5.5-27.4
		c0-0.1,0-0.1,0-0.2C48,17.9,47.4,17.4,47.1,17.2z M26.5,43.9l0.4-3.8l2,1.5L26.5,43.9z M40.2,46.1c-0.1,0.1-0.2,0.3-0.4,0.4
		c-0.2,0.1-0.4,0.1-0.7-0.1l-7.6-5.9l-3.8-3c3.2-2.8,13.1-11.7,13.5-12.2c0.4-0.4,0.9-0.9,0.8-1.6c0-0.1,0-0.1-0.1-0.2
		c-0.1-0.4-0.3-0.8-0.7-1c-0.7-0.4-1.5-0.1-2.2,0.3l0,0l-18,11.5l-7.1-2.4c-0.1-0.1-0.3-0.1-0.4-0.3c0.1-0.1,0.3-0.2,0.4-0.2
		c0,0,0,0,0.1,0l30.5-12c0,0,0,0,0.1,0c0.2-0.1,0.5-0.2,0.8-0.2L40.2,46.1z"/>
</g>
</svg>
