<?xml version="1.0" encoding="utf-8"?>
<!-- Generator: Adobe Illustrator 23.0.0, SVG Export Plug-In . SVG Version: 6.00 Build 0)  -->
<svg version="1.1" id="Layer_1" xmlns="http://www.w3.org/2000/svg" xmlns:xlink="http://www.w3.org/1999/xlink" x="0px" y="0px"
	 viewBox="0 0 64 64" style="enable-background:new 0 0 64 64;" xml:space="preserve">
<g>
	<path d="M2.7,10.7h40c1.6,0,2.7-1.1,2.7-2.7s-1.1-2.7-2.7-2.7h-40C1.1,5.3,0,6.4,0,8S1.1,10.7,2.7,10.7z"/>
	<path d="M2.7,26.7h50.7c1.6,0,2.7-1.1,2.7-2.7s-1.1-2.7-2.7-2.7H2.7C1.1,21.3,0,22.4,0,24S1.1,26.7,2.7,26.7z"/>
	<path d="M2.7,42.7h34.7c1.6,0,2.7-1.1,2.7-2.7s-1.1-2.7-2.7-2.7H2.7C1.1,37.3,0,38.4,0,40S1.1,42.7,2.7,42.7z"/>
	<path d="M61.3,53.3H2.7C1.1,53.3,0,54.4,0,56s1.1,2.7,2.7,2.7h58.7c1.6,0,2.7-1.1,2.7-2.7S62.9,53.3,61.3,53.3z"/>
</g>
</svg>
