<?xml version="1.0" encoding="utf-8"?>
<!-- Generator: Adobe Illustrator 23.0.0, SVG Export Plug-In . SVG Version: 6.00 Build 0)  -->
<svg version="1.1" id="Layer_1" xmlns="http://www.w3.org/2000/svg" xmlns:xlink="http://www.w3.org/1999/xlink" x="0px" y="0px"
	 viewBox="0 0 64 64" style="enable-background:new 0 0 64 64;" xml:space="preserve">
<g>
	<g>
		<path d="M61.3,10.7H18.7C17.1,10.7,16,9.6,16,8s1.1-2.7,2.7-2.7h42.7C62.9,5.3,64,6.4,64,8S62.9,10.7,61.3,10.7z"/>
	</g>
	<g>
		<path d="M61.3,26.7H10.7C9.1,26.7,8,25.6,8,24s1.1-2.7,2.7-2.7h50.7c1.6,0,2.7,1.1,2.7,2.7S62.9,26.7,61.3,26.7z"/>
	</g>
	<g>
		<path d="M61.3,42.7H26.7c-1.6,0-2.7-1.1-2.7-2.7s1.1-2.7,2.7-2.7h34.7c1.6,0,2.7,1.1,2.7,2.7S62.9,42.7,61.3,42.7z"/>
	</g>
	<g>
		<path d="M61.3,58.7H2.7C1.1,58.7,0,57.6,0,56s1.1-2.7,2.7-2.7h58.7c1.6,0,2.7,1.1,2.7,2.7S62.9,58.7,61.3,58.7z"/>
	</g>
</g>
</svg>
