<?xml version="1.0" encoding="utf-8"?>
<!-- Generator: Adobe Illustrator 23.0.0, SVG Export Plug-In . SVG Version: 6.00 Build 0)  -->
<svg version="1.1" id="Layer_1" xmlns="http://www.w3.org/2000/svg" xmlns:xlink="http://www.w3.org/1999/xlink" x="0px" y="0px"
	 viewBox="0 0 64 64" style="enable-background:new 0 0 64 64;" xml:space="preserve">
<g>
	<path d="M13.3,13.3h37.3c1.6,0,2.7-1.1,2.7-2.7S52.3,8,50.7,8H13.3c-1.6,0-2.7,1.1-2.7,2.7S11.7,13.3,13.3,13.3z"/>
	<path d="M8,26.7h48c1.6,0,2.7-1.1,2.7-2.7s-1.1-2.7-2.7-2.7H8c-1.6,0-2.7,1.1-2.7,2.7S6.4,26.7,8,26.7z"/>
	<path d="M13.3,37.3c-1.6,0-2.7,1.1-2.7,2.7s1.1,2.7,2.7,2.7h37.3c1.6,0,2.7-1.1,2.7-2.7s-1.1-2.7-2.7-2.7H13.3z"/>
	<path d="M61.3,50.7H2.7c-1.6,0-2.7,1.1-2.7,2.7C0,54.9,1.1,56,2.7,56h58.7c1.6,0,2.7-1.1,2.7-2.7C64,51.7,62.9,50.7,61.3,50.7z"/>
</g>
</svg>
