<?xml version="1.0" encoding="utf-8"?>
<!-- Generator: Adobe Illustrator 21.0.2, SVG Export Plug-In . SVG Version: 6.00 Build 0)  -->
<svg version="1.1" id="Layer_1" xmlns="http://www.w3.org/2000/svg" xmlns:xlink="http://www.w3.org/1999/xlink" x="0px" y="0px"
	 viewBox="0 0 64 64" style="enable-background:new 0 0 64 64;" xml:space="preserve">
<g>
	<path d="M42.6,53.2H2.7c-1.6,0-2.7,1.1-2.7,2.7s1.1,2.7,2.7,2.7h39.8c1.6,0,2.7-1.1,2.7-2.7C45.1,54.3,44.2,53.2,42.6,53.2z"/>
	<path d="M60.6,40.4L63,38c1.1-1.1,1.1-2.7,0-3.7c-1.1-1-2.7-1.1-3.7,0l-2.4,2.4l-2.4-2.4c-1.1-1.1-2.7-1.1-3.7,0
		c-1.1,1.1-1.1,2.7,0,3.7l2.4,2.4l-2.4,2.4c-1.1,1.1-1.1,2.7,0,3.7c0.5,0.5,1.3,0.8,1.9,0.8c0.5,0,1.3-0.3,1.9-0.8l2.4-2.4l2.4,2.4
		c0.5,0.5,1.3,0.8,1.9,0.8c0.6,0,1.3-0.3,1.9-0.8c1.1-1.1,1.1-2.7,0-3.7L60.6,40.4z"/>
	<path d="M2.1,47.9h5.6c1.1,0,1.9-0.8,2.1-1.3l2.7-6.7h19.6l2.4,6.7c0.3,1.1,1.3,1.3,2.1,1.3h5.9c1.9-0.3,2.9-1.9,2.1-3.2l-15.9-38
		c-0.3-1.1-0.8-1.3-1.9-1.3h-8.5c-0.8,0-1.9,0.3-2.1,1.3L0.2,45C-0.5,46.3,0.5,47.9,2.1,47.9z M22.3,17.1L27.9,32H16.5L22.3,17.1z"
		/>
</g>
</svg>
