<?xml version="1.0" encoding="utf-8"?>
<!-- Generator: Adobe Illustrator 23.0.0, SVG Export Plug-In . SVG Version: 6.00 Build 0)  -->
<svg version="1.1" id="Layer_1" xmlns="http://www.w3.org/2000/svg" xmlns:xlink="http://www.w3.org/1999/xlink" x="0px" y="0px"
	 viewBox="0 0 64 64" style="enable-background:new 0 0 64 64;" xml:space="preserve">
<g>
	<path d="M4.8,46.7h5.6c1.1,0,1.9-0.8,2.1-1.3l2.7-6.7h19.7l2.4,6.7c0.3,1.1,1.3,1.3,2.1,1.3h5.9c1.9-0.3,2.9-1.9,2.1-3.2l-16-38.1
		C31.2,4.3,30.7,4,29.6,4h-8.5c-0.8,0-1.9,0.3-2.1,1.3l-16,38.4C2.1,45.1,3.2,46.7,4.8,46.7z M25.1,15.7l5.6,14.9H19.2L25.1,15.7z"
		/>
	<path d="M48,57.3H2.7C1.1,57.3,0,58.4,0,60s1.1,2.7,2.7,2.7H48c1.6,0,2.7-1.1,2.7-2.7S49.6,57.3,48,57.3z"/>
	<path d="M61.3,1.3c-1.6,0-2.7,1.1-2.7,2.7v42.7c0,1.6,1.1,2.7,2.7,2.7c1.6,0,2.7-1.1,2.7-2.7V4C64,2.4,62.9,1.3,61.3,1.3z"/>
</g>
</svg>
