<?xml version="1.0" encoding="utf-8"?>
<!-- Generator: Adobe Illustrator 23.0.0, SVG Export Plug-In . SVG Version: 6.00 Build 0)  -->
<svg version="1.1" id="Layer_2_1_" xmlns="http://www.w3.org/2000/svg" xmlns:xlink="http://www.w3.org/1999/xlink" x="0px" y="0px"
	 viewBox="0 0 64 64" style="enable-background:new 0 0 64 64;" xml:space="preserve">
<g>
	<path d="M37.1,39.5c2.1,1.1,4.5,1.9,7.2,1.9c8.5,0,15.7-6.9,15.7-15.7c0-6.4-3.7-12-9.6-14.4C48.5,4.8,42.4,0,35.5,0
		c-5.9,0-11.2,3.2-13.9,8.5c-0.5,0-1.3,0-1.9,0C11.2,8.5,4,15.7,4,24.3c0,5.9,3.2,11.2,8.5,13.9c2.9,4.3,7.7,6.7,12.8,6.7
		C29.9,44.5,34.1,42.7,37.1,39.5z M34.1,34.4c-1.9,2.9-5.3,4.8-8.8,5.1c-3.5,0-6.9-1.9-8.8-4.8L16,33.9l-0.8-0.3
		c-3.7-1.6-6.1-5.3-6.1-9.3c0-5.6,4.5-10.4,10.4-10.4c0.8,0,1.9,0.3,2.7,0.5l2.4,0.8l0.8-2.4c1.3-4.3,5.3-6.9,9.6-6.9
		c4.8,0,9.1,3.5,10.1,8.3l0.3,1.6l1.6,0.5c4.3,1.3,7.2,5.3,7.2,9.9c0,5.6-4.5,10.4-10.4,10.4c-2.1,0-4.3-0.8-6.1-2.1L35.7,32
		L34.1,34.4z"/>
	<path d="M40.8,42.4c-4,0-7.2,3.2-7.2,7.2s3.2,7.2,7.2,7.2s7.2-3.2,7.2-7.2S44.8,42.4,40.8,42.4z M40.8,51.5c-1.1,0-1.9-0.8-1.9-1.9
		c0-1.1,0.8-1.9,1.9-1.9s1.9,0.8,1.9,1.9C42.7,50.7,41.9,51.5,40.8,51.5z"/>
	<path d="M52.8,52.3c-3.2,0-5.9,2.7-5.9,5.9s2.7,5.9,5.9,5.9c3.2,0,5.6-2.4,5.9-5.6c0-1.6-0.5-2.9-1.6-4.3
		C56,53.1,54.4,52.3,52.8,52.3z M52.3,58.1c0-0.3,0.3-0.5,0.5-0.5s0.3,0,0.3,0.3v0.3C53.3,58.7,52.3,58.9,52.3,58.1z"/>
</g>
</svg>
