<?xml version="1.0" encoding="utf-8"?>
<!-- Generator: Adobe Illustrator 21.0.2, SVG Export Plug-In . SVG Version: 6.00 Build 0)  -->
<svg version="1.1" id="Layer_2_1_" xmlns="http://www.w3.org/2000/svg" xmlns:xlink="http://www.w3.org/1999/xlink" x="0px" y="0px"
	 viewBox="0 0 64 64" style="enable-background:new 0 0 64 64;" xml:space="preserve">
<path d="M62.1,26.4c-2.6-6.2-11.7-6.2-17.3-5.9c0.8-4.3,1.6-11.7,0.3-14.4c-1.1-2.4-3.5-4-6.4-4.3c0,0-0.2,0-0.5,0
	c-2.7,0-5.1,1.1-6.4,3.5c-5.9,9.1-11.8,15.5-13.9,17.6H5.3c-2.9,0-5.3,2.4-5.3,5.3v24c0,2.9,2.4,5.3,5.3,5.3h5.4h4
	c0,0,9.3,4,17.6,4.6c2.4,0.1,2.4,0,3.7,0c7.2,0,13.9-1.6,18.7-4.8C63.6,51.1,66.3,35.1,62.1,26.4z M5.3,28.2h5.3v24H5.3l0,0V28.2z
	 M51.5,52.7c-3.7,2.4-9.6,4-15.7,4h-2.2c-0.7,0-1.3,0-2-0.1c-7.6-0.9-11.1-2-12.8-2.7c-0.6-0.2-1.1-0.5-1.7-0.9L16,52.2v-24h2.2
	c1.3,0,2.6-0.5,3.7-1.6C24,24.2,30.2,17.5,36.5,8c0.5-0.8,1.3-1.1,2.1-1.1s1.6,0.2,2.1,1.3c0.2,0.8,0.2,5-1.1,12.5l-0.8,3.6
	c-0.1,0.6,0.3,1.2,1,1.2h4.9c3.7-0.2,11.5-0.2,12.8,2.7C60.4,35.1,58.3,48.4,51.5,52.7z"/>
</svg>
