<?xml version="1.0" encoding="utf-8"?>
<!-- Generator: Adobe Illustrator 21.0.2, SVG Export Plug-In . SVG Version: 6.00 Build 0)  -->
<svg version="1.1" id="Layer_2_1_" xmlns="http://www.w3.org/2000/svg" xmlns:xlink="http://www.w3.org/1999/xlink" x="0px" y="0px"
	 viewBox="0 0 64 64" style="enable-background:new 0 0 64 64;" xml:space="preserve">
<path d="M54.8,6.7C49.9,3.5,43.2,1.9,36,1.9c-1.3,0-1.3-0.1-3.7,0C24,2.5,14.7,6.5,14.7,6.5h-4H5.3C2.4,6.5,0,8.9,0,11.8v24
	c0,2.9,2.4,5.3,5.3,5.3h12.5c2.1,2.1,8,8.5,13.9,17.6c1.3,2.4,3.7,3.5,6.4,3.5c0.3,0,0.5,0,0.5,0c2.9-0.3,5.3-1.9,6.4-4.3
	c1.3-2.7,0.5-10.1-0.3-14.4c5.6,0.3,14.7,0.3,17.3-5.9C66.3,28.9,63.6,12.9,54.8,6.7z M5.3,11.8L5.3,11.8h5.3v24H5.3V11.8z
	 M57.5,35.8c-1.3,2.9-9.1,2.9-12.8,2.7h-4.9c-0.6,0-1.1,0.6-1,1.2l0.8,3.6c1.3,7.5,1.3,11.7,1.1,12.5c-0.5,1.1-1.3,1.3-2.1,1.3
	S37,56.8,36.5,56C30.2,46.5,24,39.8,21.9,37.4c-1.1-1.1-2.4-1.6-3.7-1.6H16v-24l1.2-0.8c0.5-0.4,1.1-0.7,1.7-0.9
	c1.6-0.7,5.1-1.8,12.8-2.7c0.7-0.1,1.3-0.1,2-0.1h2.2c6.1,0,12,1.6,15.7,4C58.3,15.6,60.4,28.9,57.5,35.8z"/>
</svg>
