<?xml version="1.0" encoding="utf-8"?>
<!-- Generator: Adobe Illustrator 23.0.0, SVG Export Plug-In . SVG Version: 6.00 Build 0)  -->
<svg version="1.1" id="Layer_1" xmlns="http://www.w3.org/2000/svg" xmlns:xlink="http://www.w3.org/1999/xlink" x="0px" y="0px"
	 viewBox="0 0 64 64" style="enable-background:new 0 0 64 64;" xml:space="preserve">
<g>
	<path d="M58.7,22.8c-2.8-3.1-6.7-5.3-10.9-5.8c-2.2-3.6-5.8-6.4-9.7-7.8c-1.9-0.8-3.9-1.1-6.1-1.1c-10,0-18.4,7.8-18.9,17.5
		C5.6,26.7,0,33.1,0,40.6c0,8.6,6.7,15.3,15.3,15.3h28.9C55.1,55.9,64,47,64,36.2C64,31.2,62.1,26.4,58.7,22.8z M44,50.4H15
		c-5.6,0-9.7-4.2-9.7-9.7s4.2-9.7,9.7-9.7h3.3V27c0-7.5,6.1-13.6,13.6-13.6c1.7,0,3.1,0.3,4.2,0.8c3.1,1.1,5.8,3.3,7.5,6.4l0.8,1.4
		l1.4,0.3c3.3,0.3,6.4,1.9,8.9,4.5c2.5,2.8,3.9,6.1,3.9,9.7C58.4,44,52,50.4,44,50.4z"/>
	<path d="M36.7,30.9h-3.1l4.5-5.8c0.8-1.1,0.8-3.1-0.6-3.9c-1.1-0.8-3.1-0.8-3.9,0.6l-7.5,9.7c-0.8,0.8-0.8,2.2-0.3,3.3
		c0.6,1.1,1.7,1.7,2.8,1.7h3.1l-5,5.8c-1.1,1.1-0.8,3.1,0.3,3.9c0.6,0.6,1.1,0.6,1.7,0.6c0.8,0,1.7-0.3,2.2-1.1l8.1-9.7
		c0.8-0.8,0.8-2.2,0.6-3.3C39.2,31.7,38.1,30.9,36.7,30.9z"/>
</g>
</svg>
