<?xml version="1.0" encoding="utf-8"?>
<!-- Generator: Adobe Illustrator 23.0.0, SVG Export Plug-In . SVG Version: 6.00 Build 0)  -->
<svg version="1.1" id="Layer_1" xmlns="http://www.w3.org/2000/svg" xmlns:xlink="http://www.w3.org/1999/xlink" x="0px" y="0px"
	 viewBox="0 0 64 64" style="enable-background:new 0 0 64 64;" xml:space="preserve">
<g>
	<path d="M58.5,16.2c-2.8-3-6.6-5.3-10.8-5.8C45.4,6.8,41.8,4,38,2.6c-1.9-0.8-3.9-1.1-6.1-1.1C21.9,1.5,13.6,9.3,13,19
		c-7.5,1.1-13,7.5-13,15c0,8.6,6.6,15.2,15.2,15.2h3c1.7,0,2.8-1.1,2.8-2.8s-1.1-2.8-2.8-2.8H15c-5.5,0-9.7-4.2-9.7-9.7
		s4.2-9.7,9.7-9.7h3.3v-3.9c0-7.5,6.1-13.6,13.6-13.6c1.7,0,3,0.3,4.2,0.8c3,1.1,5.8,3.3,7.5,6.4l0.8,1.4l1.4,0.3
		c3.3,0.3,6.4,1.9,8.9,4.4c2.5,2.8,3.9,6.1,3.9,9.7c0,7.8-6.4,14.1-14.1,14.1c-1.7,0-2.8,1.1-2.8,2.8s1.1,2.8,2.8,2.8
		c10.8,0,19.7-8.9,19.7-19.7C63.7,24.5,61.8,19.8,58.5,16.2z"/>
	<path d="M51.3,28.7C51,27.6,49.9,27,48.8,27h-5.5l2.2-4.2c0.6-0.8,0.6-1.9,0-2.8c-0.3-0.8-1.4-1.4-2.2-1.4H28.8
		c-1.1,0-2.2,0.6-2.5,1.7L18.8,37c-0.3,0.8-0.3,1.9,0.3,2.8c0.6,0.8,1.4,1.4,2.2,1.4h6.4l-5.3,17.7c-0.3,1.4,0.3,2.5,1.4,3.3
		c0.3,0.3,0.8,0.3,1.4,0.3c0.8,0,1.7-0.3,2.2-1.1l24.1-29.6C51.8,30.6,51.8,29.5,51.3,28.7z M31.6,46.7l2.2-7.8
		c0.3-0.8,0-1.7-0.6-2.5c-0.3-0.8-1.1-1.1-1.9-1.1h-5.8l5-11.1h8l-2.2,4.2c-0.6,0.8-0.6,1.9,0,2.8c0.6,0.8,1.4,1.4,2.5,1.4h4.4
		L31.6,46.7z"/>
</g>
</svg>
