<?xml version="1.0" encoding="utf-8"?>
<!-- Generator: Adobe Illustrator 23.0.0, SVG Export Plug-In . SVG Version: 6.00 Build 0)  -->
<svg version="1.1" id="Layer_2_1_" xmlns="http://www.w3.org/2000/svg" xmlns:xlink="http://www.w3.org/1999/xlink" x="0px" y="0px"
	 viewBox="0 0 64 64" style="enable-background:new 0 0 64 64;" xml:space="preserve">
<g>
	<path d="M60.8,26.4c1.9,0,3.2-1.6,3.2-3.5v-9c0-1.6-1.6-3.2-3.2-3.2H3.5c-1.6,0-3.2,1.6-3.2,3.2v9.3c0,1.9,1.3,3.5,2.9,3.5l0,0
		C5.8,27,8,29.3,8,32.3c0,2.9-2.1,5.3-4.8,5.3c-1.9,0-3.2,1.6-3.2,3.2v9c0.3,1.9,1.9,3.5,3.5,3.5h57.1c1.9,0,3.2-1.6,3.2-3.2v-9
		c0-1.9-1.3-3.2-2.9-3.2l0,0c-2.7-0.3-4.8-2.7-4.8-5.6C56,29.1,58.2,26.7,60.8,26.4z M58.7,42.4v5.6H32.1v-5.3
		c0-1.6-1.1-2.7-2.7-2.7c-1.6,0-2.7,1.1-2.7,2.7v5.3H5.6v-5.3c4.5-1.1,8-5.3,8-10.4s-3.2-9.3-8-10.4v-5.8h21.2v5.3
		c0,1.6,1.1,2.7,2.7,2.7c1.6,0,2.7-1.1,2.7-2.7v-5.3h26.6v5.3c-4.5,1.3-8,5.6-8,10.6C50.7,36.8,54.2,41,58.7,42.4z"/>
	<path d="M29.5,26.7c-1.6,0-2.7,1.1-2.7,2.7v5.3c0,1.6,1.1,2.7,2.7,2.7c1.6,0,2.7-1.1,2.7-2.7v-5.3C32.1,27.8,31.1,26.7,29.5,26.7z"
		/>
</g>
</svg>
