<?xml version="1.0" encoding="utf-8"?>
<!-- Generator: Adobe Illustrator 23.0.0, SVG Export Plug-In . SVG Version: 6.00 Build 0)  -->
<svg version="1.1" id="Layer_2_1_" xmlns="http://www.w3.org/2000/svg" xmlns:xlink="http://www.w3.org/1999/xlink" x="0px" y="0px"
	 viewBox="0 0 64 64" style="enable-background:new 0 0 64 64;" xml:space="preserve">
<g>
	<path d="M48.7,0H16.2c-4.5,0-8,3.5-8,8v52.5c0,1.1,0.8,2.1,1.9,2.7c1.1,0.3,2.4,0,2.9-1.1l4.5-6.7l5.1,7.5c0.5,0.8,1.3,1.1,2.1,1.1
		l0,0c0.8,0,1.6-0.5,2.1-1.1l5.1-7.5l5.1,7.5c0.5,0.8,1.3,1.1,2.1,1.1l0,0c0.8,0,1.6-0.5,2.1-1.1l5.1-7.5l4.5,6.9
		c0.5,1.1,1.9,1.3,2.9,1.1c1.1-0.3,1.9-1.3,1.9-2.7V8C56.7,3.5,53.2,0,48.7,0z M50.8,51.7L49,48.8c-0.5-0.8-1.3-1.1-2.1-1.1l0,0
		c-0.8,0-1.6,0.5-2.1,1.1l-5.1,7.5l-5.1-7.5c-0.8-0.5-1.6-1.1-2.4-1.1s-1.6,0.5-2.1,1.1L25,56.3l-5.1-7.5c-0.5-0.8-1.3-1.1-2.1-1.1
		l0,0c-0.8,0-1.6,0.5-2.1,1.1l-2.1,2.9V8c0-1.6,1.1-2.7,2.7-2.7h32c1.6,0,2.7,1.1,2.7,2.7V51.7z"/>
	<path d="M42.8,18.7H21.5c-1.6,0-2.7,1.1-2.7,2.7s1.1,2.7,2.7,2.7h21.3c1.6,0,2.7-1.1,2.7-2.7C45.5,19.7,44.4,18.7,42.8,18.7z"/>
	<path d="M42.8,29.3H21.5c-1.6,0-2.7,1.1-2.7,2.7c0,1.6,1.1,2.7,2.7,2.7h21.3c1.6,0,2.7-1.1,2.7-2.7C45.5,30.4,44.4,29.3,42.8,29.3z
		"/>
</g>
</svg>
