<?xml version="1.0" encoding="utf-8"?>
<!-- Generator: Adobe Illustrator 22.0.1, SVG Export Plug-In . SVG Version: 6.00 Build 0)  -->
<svg version="1.1" id="Layer_2_1_" xmlns="http://www.w3.org/2000/svg" xmlns:xlink="http://www.w3.org/1999/xlink" x="0px" y="0px"
	 viewBox="0 0 64 64" style="enable-background:new 0 0 64 64;" xml:space="preserve">
<g>
	<path d="M34.7,10.9V5.3H40c1.6,0,2.7-1.1,2.7-2.7S41.6,0,40,0H24c-1.6,0-2.7,1.1-2.7,2.7s1.1,2.7,2.7,2.7h5.3v5.6
		c-13.3,1.3-24,12.8-24,26.4C5.3,52,17.3,64,32,64s26.7-12,26.7-26.7C58.7,23.5,48,12.3,34.7,10.9z M32,58.7
		c-11.7,0-21.3-9.6-21.3-21.3S20.3,16,32,16s21.3,9.6,21.3,21.3S43.7,58.7,32,58.7z"/>
	<path d="M45.3,34.7H34.7V24c0-1.6-1.1-2.7-2.7-2.7c-1.6,0-2.7,1.1-2.7,2.7v10.7h-2.7c-1.6,0-2.7,1.1-2.7,2.7c0,1.6,1.1,2.7,2.7,2.7
		h2.7v2.7c0,1.6,1.1,2.7,2.7,2.7c1.6,0,2.7-1.1,2.7-2.7V40h10.7c1.6,0,2.7-1.1,2.7-2.7C48,35.7,46.9,34.7,45.3,34.7z"/>
</g>
</svg>
