<?xml version="1.0" encoding="utf-8"?>
<!-- Generator: Adobe Illustrator 23.0.0, SVG Export Plug-In . SVG Version: 6.00 Build 0)  -->
<svg version="1.1" id="Layer_2_1_" xmlns="http://www.w3.org/2000/svg" xmlns:xlink="http://www.w3.org/1999/xlink" x="0px" y="0px"
	 viewBox="0 0 64 64" style="enable-background:new 0 0 64 64;" xml:space="preserve">
<g>
	<path d="M41,2.7h-1.9C38.4,1.1,36.5,0,34.7,0h-5.3c-1.9,0-3.7,1.1-4.5,2.7h-2.1c-8,0-14.6,6.6-14.6,14.6v31.9c0,2.1,1.9,4,4,4h3.2
		L11,59.5c-0.8,1.3-0.5,2.9,0.8,3.7c0.5,0.3,1.1,0.5,1.6,0.5c0.8,0,1.6-0.5,2.1-1.1l6.1-9.3h21l5.8,9.3c0.5,0.8,1.3,1.3,2.1,1.3
		c0.5,0,1.1,0,1.3-0.5c1.3-0.8,1.6-2.4,0.8-3.7l-4-6.6h3.2c2.1,0,4-1.9,4-4V17.3C55.9,9.3,49.3,2.7,41,2.7z M29.3,18.6v8H13.4v-8
		H29.3z M34.7,18.6h15.9v8H34.7V18.6z M22.7,8h2.1c0.8,1.6,2.7,2.7,4.5,2.7h5.3c1.9,0,3.7-1.1,4.5-2.7H41c3.7,0,6.9,2.1,8.5,5.3
		H14.5C15.8,10.1,19,8,22.7,8z M13.4,47.8V31.9h37.2v15.9H13.4z"/>
	<path d="M26.7,37.2h-8c-1.6,0-2.7,1.1-2.7,2.7c0,1.6,1.1,2.7,2.7,2.7h8c1.6,0,2.7-1.1,2.7-2.7C29.3,38.2,28.3,37.2,26.7,37.2z"/>
	<path d="M45.3,37.2h-8c-1.6,0-2.7,1.1-2.7,2.7c0,1.6,1.1,2.7,2.7,2.7h8c1.6,0,2.7-1.1,2.7-2.7C47.9,38.2,46.9,37.2,45.3,37.2z"/>
</g>
</svg>
