<?xml version="1.0" encoding="utf-8"?>
<!-- Generator: Adobe Illustrator 23.0.0, SVG Export Plug-In . SVG Version: 6.00 Build 0)  -->
<svg version="1.1" id="Layer_1" xmlns="http://www.w3.org/2000/svg" xmlns:xlink="http://www.w3.org/1999/xlink" x="0px" y="0px"
	 viewBox="0 0 64 64" style="enable-background:new 0 0 64 64;" xml:space="preserve">
<g>
	<path d="M64,44.4c0-5.9-4.8-10.7-10.7-10.7s-10.7,4.8-10.7,10.7c0,3.5,3.2,8.8,5.6,12.8H17.9c-1.3,0-2.7-0.5-3.7-1.6
		c-1.3-1.3-1.9-3.2-1.3-5.1c0.5-2.1,2.9-4,5.6-4h10.4c2.9,0,5.6-1.1,7.5-3.2c2.9-2.9,4-7.2,2.4-11.2c-1.3-4-5.6-6.9-10.1-6.9H15.2
		c2.7-4,6.1-9.9,6.1-13.3c0-5.9-4.8-10.7-10.7-10.7S0,6,0,11.9c0,4.8,6.1,13.9,8,16.5c0.3,1.1,1.3,2.1,2.7,2.1h17.9
		c2.4,0,4.5,1.3,5.1,3.5c0.8,2.1,0.3,4.3-1.3,5.6c-1.1,1.1-2.4,1.6-3.7,1.6H18.1c-5.3,0-9.9,3.5-10.7,8.5c-0.8,3.5,0.3,7.2,2.9,9.9
		c2.1,2.1,4.8,3.2,7.5,3.2h35.5c1.1,0,2.1-0.8,2.4-1.6C57.9,58.3,64,48.9,64,44.4z M10.7,6.5c2.9,0,5.3,2.4,5.3,5.3
		c0,1.9-2.4,6.4-5.3,10.7c-2.9-4.3-5.3-9.1-5.3-10.7C5.3,8.9,7.7,6.5,10.7,6.5z M53.3,39.1c2.9,0,5.3,2.4,5.3,5.3
		c0,1.9-2.4,6.4-5.3,10.7C50.4,50.8,48,46,48,44.4C48,41.5,50.4,39.1,53.3,39.1z"/>
	<ellipse cx="53.3" cy="43.6" rx="2.7" ry="2.7"/>
	<ellipse cx="10.7" cy="11.1" rx="2.7" ry="2.7"/>
</g>
</svg>
