<?xml version="1.0" encoding="utf-8"?>
<!-- Generator: Adobe Illustrator 23.0.0, SVG Export Plug-In . SVG Version: 6.00 Build 0)  -->
<svg version="1.1" id="Layer_1" xmlns="http://www.w3.org/2000/svg" xmlns:xlink="http://www.w3.org/1999/xlink" x="0px" y="0px"
	 viewBox="0 0 64 64" style="enable-background:new 0 0 64 64;" xml:space="preserve">
<g>
	<path d="M13.3,13.3C5.3,13.3,0,24,0,34.1c0,9.3,4.5,17.1,10.7,18.9v8.3c0,1.6,1.1,2.7,2.7,2.7s2.7-1.1,2.7-2.7v-8.5
		c6.1-1.9,10.7-9.3,10.7-18.7C26.7,24,21.3,13.3,13.3,13.3z M16,46.9v-4.3c0-1.6-1.1-2.7-2.7-2.7s-2.7,1.1-2.7,2.7v4.5
		c-3.2-1.9-5.3-6.9-5.3-13.1c0-8.5,4.3-15.5,8-15.5s8,6.9,8,15.5C21.3,40,18.9,45.1,16,46.9z"/>
	<path d="M64,26.4C64,13.6,57.6,0,48,0S32,13.6,32,26.4c0,12.3,5.6,21.9,13.3,23.7v11.2c0,1.6,1.1,2.7,2.7,2.7s2.7-1.1,2.7-2.7V50.4
		C58.4,48.3,64,38.7,64,26.4z M50.7,44.5v-7.2c0-1.6-1.1-2.7-2.7-2.7s-2.7,1.1-2.7,2.7v7.2c-4.5-2.1-8-9.6-8-18.1
		c0-10.7,5.3-21.1,10.7-21.1s10.7,10.4,10.7,21.1C58.7,34.9,55.2,42.4,50.7,44.5z"/>
</g>
</svg>
