<?xml version="1.0" encoding="utf-8"?>
<!-- Generator: Adobe Illustrator 23.0.0, SVG Export Plug-In . SVG Version: 6.00 Build 0)  -->
<svg version="1.1" id="Layer_1" xmlns="http://www.w3.org/2000/svg" xmlns:xlink="http://www.w3.org/1999/xlink" x="0px" y="0px"
	 viewBox="0 0 64 64" style="enable-background:new 0 0 64 64;" xml:space="preserve">
<path d="M48,25.6C48,13.1,41.6,0,32,0S16,13.1,16,25.6c0,11.7,5.6,21.3,13.3,23.2v12.5c0,1.6,1.1,2.7,2.7,2.7c1.6,0,2.7-1.1,2.7-2.7
	V48.5C42.4,46.9,48,37.3,48,25.6z M34.7,42.9v-5.6c0-1.6-1.1-2.7-2.7-2.7c-1.6,0-2.7,1.1-2.7,2.7v5.6c-4.5-2.1-8-9.3-8-17.6
	c0-10.1,5.3-20,10.7-20s10.7,9.9,10.7,20.3C42.7,33.9,39.2,41.1,34.7,42.9z"/>
</svg>
