<?xml version="1.0" encoding="utf-8"?>
<!-- Generator: Adobe Illustrator 22.0.1, SVG Export Plug-In . SVG Version: 6.00 Build 0)  -->
<svg version="1.1" id="Layer_1" xmlns="http://www.w3.org/2000/svg" xmlns:xlink="http://www.w3.org/1999/xlink" x="0px" y="0px"
	 viewBox="0 0 64 64" style="enable-background:new 0 0 64 64;" xml:space="preserve">
<path d="M56.1,0H8C3.6,0,0,3.6,0,8c0,0,0-0.6,0,48c0,4.4,3.6,8,8,8h48c4.4,0,8-3.6,8-8V8C64,3.6,60.5,0,56.1,0L56.1,0z M28.2,48.5
	c0,2.1-1.7,3.8-3.8,3.8H12.5c-2.1,0-3.8-1.7-3.9-3.8V12.2c0-2.1,1.7-3.8,3.8-3.8h11.8c2.1,0,3.8,1.7,3.8,3.8L28.2,48.5L28.2,48.5z
	 M55.7,32.5c0,2.1-1.7,3.8-3.8,3.8H40.3c-2.1,0-3.8-1.7-3.8-3.8V12.2c0-2.1,1.7-3.8,3.8-3.8h11.6c2.1,0,3.8,1.7,3.8,3.8V32.5z"/>
</svg>
