<?xml version="1.0" encoding="utf-8"?>
<!-- Generator: Adobe Illustrator 21.0.2, SVG Export Plug-In . SVG Version: 6.00 Build 0)  -->
<svg version="1.1" id="Layer_1" xmlns="http://www.w3.org/2000/svg" xmlns:xlink="http://www.w3.org/1999/xlink" x="0px" y="0px"
	 viewBox="0 0 64 64" style="enable-background:new 0 0 64 64;" xml:space="preserve">
<path d="M63,54.6L46,37.9c-1.1-1.1-2.7-1.1-3.7,0l-0.5,0.5l-8.3-8.3l9.3-9.1c0.2-0.2,0.4-0.6,0.6-1.1c0.3-0.9,0.1-1.9-0.5-2.6
	c-0.2-0.3-0.5-0.5-0.9-0.6L3.7,0.4c-1-0.6-2.1-0.3-2.9,0.5s-1.1,1.9-0.5,2.9l16.2,38c0.3,0.8,1.5,1.5,2.4,1.6
	c0.8,0.1,1.3-0.3,1.9-0.8l8.8-8.8l8.3,8.3l-0.3,0.5c-0.5,0.5-0.8,1.1-0.8,1.9c0,0.8,0.3,1.3,0.8,1.9l17,16.7
	c0.5,0.5,1.3,0.8,1.9,0.8s1.3-0.3,1.9-0.8l4.8-4.8c0.5-0.5,0.8-1.1,0.8-1.9S63.5,55.1,63,54.6z M19.9,36L7.7,7.8l28.4,12L19.9,36z
	 M56.3,57.5L43.1,44.5l1.1-1.1l13.3,13.1L56.3,57.5z"/>
</svg>
