<?xml version="1.0" encoding="utf-8"?>
<!-- Generator: Adobe Illustrator 23.0.0, SVG Export Plug-In . SVG Version: 6.00 Build 0)  -->
<svg version="1.1" id="Layer_1" xmlns="http://www.w3.org/2000/svg" xmlns:xlink="http://www.w3.org/1999/xlink" x="0px" y="0px"
	 viewBox="0 0 64 64" style="enable-background:new 0 0 64 64;" xml:space="preserve">
<path d="M60.3,5.5H41.1c-2,0-3.6,1.4-3.6,3.4C37.2,11,34.9,13,32.1,13s-5-2-5.3-4.2V8.3c-0.6-1.7-2-2.8-3.6-2.8H3.9
	C1.7,5.5,0,7.1,0,9.4l0.8,12c0,2,1.7,3.6,3.6,3.6h3.6l1.7,29.9c0,2,1.7,3.6,3.9,3.6h36c2.2,0,3.9-1.7,3.9-3.4l2-30.2h3.9
	c2,0,3.6-1.7,3.6-3.4L64,9.1C64.2,7.1,62.6,5.5,60.3,5.5z M57.8,19.4h-3.9c-2,0-3.9,1.7-3.9,3.4L48.3,53H15.6l-2-29.9
	c0-2-1.7-3.6-3.6-3.6H6.4L5.9,11h15.9c1.4,4.5,5.6,7.5,10.6,7.5S41.6,15.5,43,11h15.6L57.8,19.4z"/>
</svg>
