<?xml version="1.0" encoding="utf-8"?>
<!-- Generator: Adobe Illustrator 22.0.1, SVG Export Plug-In . SVG Version: 6.00 Build 0)  -->
<svg version="1.1" id="Layer_1" xmlns="http://www.w3.org/2000/svg" xmlns:xlink="http://www.w3.org/1999/xlink" x="0px" y="0px"
	 viewBox="0 0 64 64" style="enable-background:new 0 0 64 64;" xml:space="preserve">
<path d="M50.7,60c-1.7,1.8-6.3,4-12.2,4c-15.1,0-18.4-11.1-18.4-17.6v-18h-5.9c-0.7,0-1.3-0.6-1.3-1.3v-8.5c0-0.9,0.6-1.7,1.4-2
	C22.1,13.9,24.6,7.2,24.9,2c0.1-1.4,0.8-2,2-2h8.9c0.7,0,1.3,0.6,1.3,1.3v14.4h10.4c0.7,0,1.3,0.5,1.3,1.2v10.2
	c0,0.7-0.6,1.3-1.3,1.3H37V45c0,4.3,3,6.7,8.5,4.5c0.6-0.2,1.1-0.4,1.6-0.3c0.4,0.1,0.7,0.4,0.9,1l2.8,8C51,58.8,51.2,59.5,50.7,60
	L50.7,60z"/>
</svg>
