<?xml version="1.0" encoding="utf-8"?>
<!-- Generator: Adobe Illustrator 22.0.1, SVG Export Plug-In . SVG Version: 6.00 Build 0)  -->
<svg version="1.1" id="Layer_1" xmlns="http://www.w3.org/2000/svg" xmlns:xlink="http://www.w3.org/1999/xlink" x="0px" y="0px"
	 viewBox="0 0 64 64" style="enable-background:new 0 0 64 64;" xml:space="preserve">
<path d="M56.9,14.8l3.9-4.9C62,8.6,62.3,7.6,62.4,7c-3,1.9-5.9,2.5-7.9,2.5h-0.8L53.2,9c-2.5-2.2-5.5-3.4-8.9-3.4
	c-7.2,0-13,5.9-13,13c0,0.5,0,1,0.1,1.5l0.3,2.1l-2.2-0.1C16.3,21.8,5.5,10.5,3.7,8.5c-2.9,5.3-1.3,10.2,0.5,13.3l3.5,5.8l-5.5-3
	c0.1,4.3,1.8,7.7,4.9,10.2l2.7,2L7,37.9c1.8,5.3,5.6,7.4,8.6,8.3l3.8,1l-3.3,2.3c-5.7,4-13,3.8-16.1,3.5c6.6,4.5,14.2,5.5,19.7,5.5
	c4,0,7-0.5,7.7-0.7c29-6.8,30.3-32.6,30.2-37.8v-0.8l0.6-0.5c3.5-3.3,5-5.1,5.8-6.1c-0.3,0.2-0.7,0.3-1.2,0.4L56.9,14.8z"/>
</svg>
