<?xml version="1.0" encoding="utf-8"?>
<!-- Generator: Adobe Illustrator 22.0.1, SVG Export Plug-In . SVG Version: 6.00 Build 0)  -->
<svg version="1.1" id="Layer_1" xmlns="http://www.w3.org/2000/svg" xmlns:xlink="http://www.w3.org/1999/xlink" x="0px" y="0px"
	 viewBox="0 0 64 66.1" style="enable-background:new 0 0 64 66.1;" xml:space="preserve">
<path d="M32,1C14.3,1,0,15.4,0,33s14.3,32,32,32s32-14.3,32-32S49.7,1,32,1z M38.8,13c1.1-2,3.7-2.6,5.6-1.5c2,1.1,2.6,3.7,1.5,5.6
	c-1.1,2-3.7,2.6-5.6,1.5C38.3,17.5,37.7,15,38.8,13z M11.3,37.1c-2.3,0-4.1-1.8-4.1-4.1s1.8-4.1,4.1-4.1s4.1,1.8,4.1,4.1
	C15.4,35.3,13.5,37.1,11.3,37.1z M14.9,37.5c2.9-2.3,2.9-6.7,0-9c1.1-4.2,3.8-7.8,7.3-10.2l3.1,5.1c-6.6,4.7-6.6,14.5,0,19.2
	l-3.1,5.1C18.7,45.4,16,41.8,14.9,37.5z M44.4,54.5c-2,1.1-4.5,0.5-5.6-1.5c-1.1-2-0.5-4.5,1.5-5.6c2-1.1,4.5-0.5,5.6,1.5
	C47.1,50.9,46.4,53.4,44.4,54.5z M44.5,45.6c-3.4-1.3-7.2,0.9-7.8,4.5c-0.7,0.2-6.3,1.8-12.5-1.2l2.9-5.2c7.4,3.4,15.9-1.5,16.6-9.6
	l5.9,0.1C49.4,38.6,47.4,42.6,44.5,45.6L44.5,45.6z M43.7,32c-0.7-8-9.2-13.1-16.6-9.6l-2.9-5.2c6.2-3.1,11.8-1.4,12.5-1.2
	c0.6,3.7,4.4,5.8,7.8,4.5c3,3,4.9,7,5.2,11.4L43.7,32L43.7,32z"/>
</svg>
