<?xml version="1.0" encoding="utf-8"?>
<!-- Generator: Adobe Illustrator 23.0.0, SVG Export Plug-In . SVG Version: 6.00 Build 0)  -->
<svg version="1.1" id="Layer_1" xmlns="http://www.w3.org/2000/svg" xmlns:xlink="http://www.w3.org/1999/xlink" x="0px" y="0px"
	 viewBox="0 0 64 64" style="enable-background:new 0 0 64 64;" xml:space="preserve">
<g>
	<path d="M32,50.7c12.5,0,22.7-9.9,22.7-22.1V2.7C54.7,1.1,53.6,0,52,0s-2.7,1.1-2.7,2.7v25.9c0,9.3-7.7,16.8-17.3,16.8
		s-17.3-7.5-17.3-16.8V2.7C14.7,1.1,13.6,0,12,0S9.3,1.1,9.3,2.7v25.9C9.3,40.8,19.5,50.7,32,50.7z"/>
	<path d="M57.3,58.7H6.7c-1.6,0-2.7,1.1-2.7,2.7C4,62.9,5.1,64,6.7,64h50.7c1.6,0,2.7-1.1,2.7-2.7C60,59.7,58.9,58.7,57.3,58.7z"/>
</g>
</svg>
