<?xml version="1.0" encoding="utf-8"?>
<!-- Generator: Adobe Illustrator 22.0.1, SVG Export Plug-In . SVG Version: 6.00 Build 0)  -->
<svg version="1.1" id="Layer_1" xmlns="http://www.w3.org/2000/svg" xmlns:xlink="http://www.w3.org/1999/xlink" x="0px" y="0px"
	 viewBox="0 0 64 64" style="enable-background:new 0 0 64 64;" xml:space="preserve">
<g>
	<path d="M51.3,18.7h-6.4l0.5-2.1c1.6-7.5-3.2-14.7-10.4-16.3c-3.5-0.8-7.2,0-10.1,1.9s-5.1,5.1-5.9,8.5c-0.3,1.3,0.5,2.9,2.1,3.2
		c1.1,0.5,2.7-0.5,2.9-1.9c0.5-2.1,1.6-4,3.5-5.3c1.9-1.1,4-1.6,6.1-1.1c4.5,1.1,7.2,5.3,6.4,9.9l-0.8,3.2H12.9
		c-4,0-7.5,3.2-7.5,7.2V44c0,10.9,9.3,20,20.8,20h11.5c11.5,0,20.8-9.1,20.8-20.3V25.9C58.8,21.9,55.3,18.7,51.3,18.7z M53.5,43.8
		c0,8.3-6.9,14.9-15.5,14.9H26.5c-8.8,0-15.7-6.7-15.7-14.7V25.9c0-1.1,1.1-1.9,2.1-1.9h38.4c1.1,0,2.1,0.8,2.1,1.9V43.8z"/>
	<path d="M34.8,40h-5.3c-2.9,0-5.3,2.4-5.3,5.3v5.3c0,2.9,2.4,5.3,5.3,5.3h5.3c2.9,0,5.3-2.4,5.3-5.3v-5.3
		C40.1,42.4,37.7,40,34.8,40z M29.5,50.7v-5.3h5.3v5.3H29.5z"/>
</g>
</svg>
