<?xml version="1.0" encoding="utf-8"?>
<!-- Generator: Adobe Illustrator 22.0.1, SVG Export Plug-In . SVG Version: 6.00 Build 0)  -->
<svg version="1.1" id="Layer_2_1_" xmlns="http://www.w3.org/2000/svg" xmlns:xlink="http://www.w3.org/1999/xlink" x="0px" y="0px"
	 viewBox="0 0 64 64" style="enable-background:new 0 0 64 64;" xml:space="preserve">
<g>
	<path d="M61.3,42.7c-1.6,0-2.7,1.1-2.7,2.7v13.3H5.3V45.3c0-1.6-1.1-2.7-2.7-2.7S0,43.7,0,45.3v15.2C0,62.4,1.9,64,4,64h56
		c2.1,0,4-1.6,4-3.5V45.3C64,43.7,62.9,42.7,61.3,42.7z"/>
	<path d="M24,13.6l5.3-5.3v37.1c0,1.6,1.1,2.7,2.7,2.7c1.6,0,2.7-1.1,2.7-2.7V8.3l5.3,5.3c0.5,0.5,1.3,0.8,1.9,0.8
		c0.8,0,1.3-0.3,1.9-0.8c1.1-1.1,1.1-2.7,0-3.7l-8-8C34.9,0.8,33.3,0,32,0l0,0c-1.3,0-2.7,0.5-3.7,1.6l-8,8.3
		c-1.1,1.1-1.1,2.7,0,3.7C21.3,14.7,22.9,14.7,24,13.6z"/>
</g>
</svg>
