<?xml version="1.0" encoding="utf-8"?>
<!-- Generator: Adobe Illustrator 21.0.2, SVG Export Plug-In . SVG Version: 6.00 Build 0)  -->
<svg version="1.1" id="Layer_1" xmlns="http://www.w3.org/2000/svg" xmlns:xlink="http://www.w3.org/1999/xlink" x="0px" y="0px"
	 viewBox="0 0 64 64" style="enable-background:new 0 0 64 64;" xml:space="preserve">
<path d="M50.7,39.8c1.6,0,2.7-1.1,2.7-2.7V26.6c0-1.6-1.1-2.7-2.7-2.7H40c-1.6,0-2.7,1.1-2.7,2.7v2.7H26.7v-2.7
	c0-1.6-1.1-2.7-2.7-2.7h-2.7v-8H24c1.6,0,2.7-1.1,2.7-2.7V2.7C26.7,1.1,25.6,0,24,0H13.3c-1.6,0-2.7,1.1-2.7,2.7v10.7
	c0,1.6,1.1,2.7,2.7,2.7H16v8h-2.7c-1.6,0-2.7,1.1-2.7,2.7v10.7c0,1.6,1.1,2.7,2.7,2.7H24c1.6,0,2.7-1.1,2.7-2.7v-2.7h10.7v2.7
	c0,1.6,1.1,2.7,2.7,2.7h2.7v8H40c-1.6,0-2.7,1.1-2.7,2.7v10.7c0,1.6,1.1,2.7,2.7,2.7h10.7c1.6,0,2.7-1.1,2.7-2.7V50.5
	c0-1.6-1.1-2.7-2.7-2.7H48v-8H50.7z M16,5.3h5.3v5.3H16V5.3z M21.3,34.5H16v-5.3h5.3V34.5z M48,58.4h-5.3v-5.3H48V58.4z M42.7,29.2
	H48v5.3h-5.3V29.2z"/>
</svg>
