<?xml version="1.0" encoding="utf-8"?>
<!-- Generator: Adobe Illustrator 23.0.0, SVG Export Plug-In . SVG Version: 6.00 Build 0)  -->
<svg version="1.1" id="Layer_2_1_" xmlns="http://www.w3.org/2000/svg" xmlns:xlink="http://www.w3.org/1999/xlink" x="0px" y="0px"
	 viewBox="0 0 65 65" style="enable-background:new 0 0 65 65;" xml:space="preserve">
<path d="M57,29.8c4.3,0,7.5-3.5,7.5-7.5c0-4.3-3.5-7.5-7.5-7.5c-3.7,0-6.7,2.7-7.5,6.1H40c-0.5-3.5-3.7-6.1-7.5-6.1S25.8,17.6,25,21
	h-9.6c-0.5-3.5-3.7-6.1-7.5-6.1c-4-0.3-7.5,3.2-7.5,7.2c0,4.3,3.5,7.5,7.5,7.5c2.7,0,5.1-1.3,6.4-3.7h2.4c-2.9,3.2-4.8,6.9-5.6,10.9
	H8.5c-1.6,0-2.7,1.1-2.7,2.7v8c0,1.6,1.1,2.7,2.7,2.7h10.7c1.6,0,2.7-1.1,2.7-2.7v-8c0-1.6-1.1-2.7-2.7-2.7h-2.7
	c1.3-4.8,4.8-8.8,9.3-10.7l0,0c1.3,2.1,3.7,3.7,6.4,3.7c2.7,0,5.1-1.3,6.4-3.5c4.5,1.9,7.7,5.9,9.1,10.4h-1.9
	c-1.6,0-2.7,1.1-2.7,2.7v8c0,1.6,1.1,2.7,2.7,2.7h10.7c1.6,0,2.7-1.1,2.7-2.7v-8c0-1.6-1.1-2.7-2.7-2.7h-3.2
	c-0.8-4-2.9-7.7-5.6-10.7h2.9C52,28.2,54.1,29.8,57,29.8z M57,20c1.3,0,2.1,1.1,2.1,2.1c0,1.1-1.1,2.1-2.1,2.1
	c-1.3,0-2.1-1.1-2.1-2.1C54.9,21,55.7,20,57,20z M8,24.5c-1.1,0-2.1-1.1-2.1-2.4C5.8,20.8,6.9,20,8,20s2.1,1.1,2.1,2.1
	C10.1,23.2,9.3,24.5,8,24.5z M16.5,44.8h-5.3v-2.7h5.3V44.8z M53.8,44.8h-5.3v-2.7h5.3V44.8z M32.5,24.5c-1.3,0-2.1-1.1-2.1-2.1
	s1.1-2.1,2.1-2.1c1.3,0,2.1,1.1,2.1,2.1S33.8,24.5,32.5,24.5z"/>
</svg>
