<?xml version="1.0" encoding="utf-8"?>
<!-- Generator: Adobe Illustrator 23.0.0, SVG Export Plug-In . SVG Version: 6.00 Build 0)  -->
<svg version="1.1" id="Layer_2_1_" xmlns="http://www.w3.org/2000/svg" xmlns:xlink="http://www.w3.org/1999/xlink" x="0px" y="0px"
	 viewBox="0 0 64 64" style="enable-background:new 0 0 64 64;" xml:space="preserve">
<path d="M62.3,29.5c-1.3-1.1-2.7-1.3-4.3-1.1l-5.9,0.8c-0.5-4-3.7-7.2-8-7.2h-4c1.3-1.9,2.1-4,2.1-6.2c0-5.6-4.5-10.4-10.2-10.4
	c-3.2,0-6.2,1.6-8,4.3c-1.6-1.6-3.7-2.4-6.2-2.4c-5.1,0-9.4,4.3-9.4,9.6c0,2.1,0.5,4,1.6,5.4H8c-4.5,0-8,3.5-8,8v20.3
	c0,4.5,3.5,8,8,8h36.1c4.5,0,8-3.5,8-8v-0.3l5.6,1.1c0.3,0,0.5,0,0.8,0c1.3,0,2.4-0.5,3.5-1.3c1.3-1.1,1.9-2.4,1.9-4V33.7
	C64.2,31.9,63.4,30.3,62.3,29.5z M32.1,10.7c2.7,0,4.8,2.1,4.8,5.1c0,2.7-2.1,5.1-4.8,5.1s-4.8-2.1-4.8-5.1S29.4,10.7,32.1,10.7z
	 M17.7,12.3c2.1,0,4,1.9,4,4.3s-1.9,4.3-4,4.3s-4-1.9-4-4.3S15.5,12.3,17.7,12.3z M46.8,50.3c0,1.6-1.1,2.7-2.7,2.7H8
	c-1.6,0-2.7-1.1-2.7-2.7V30c0-1.6,1.1-2.7,2.7-2.7h36.1c1.6,0,2.7,1.1,2.7,2.7V50.3z M58.9,45.8l-6.7-1.1V34.5l6.7-1.1V45.8z"/>
</svg>
