<?xml version="1.0" encoding="utf-8"?>
<!-- Generator: Adobe Illustrator 22.0.1, SVG Export Plug-In . SVG Version: 6.00 Build 0)  -->
<svg version="1.1" id="Layer_1" xmlns="http://www.w3.org/2000/svg" xmlns:xlink="http://www.w3.org/1999/xlink" x="0px" y="0px"
	 viewBox="0 0 64 64" style="enable-background:new 0 0 64 64;" xml:space="preserve">
<g>
	<polygon points="27.4,39.3 29.6,25.7 26.1,25.7 23.9,39.3 	"/>
	<path d="M39.7,34.9c0-1.5-0.9-2.7-2.9-3.7c-1.3-0.6-2-1.1-2-1.7c0-0.5,0.6-1.1,2-1.1c1.1,0,2,0.3,2.7,0.5l0.4,0.1l0.4-2.9
		c-0.7-0.3-1.8-0.5-3.1-0.5c-3.5,0-6,1.8-6,4.5c0,2,1.7,3.1,3.1,3.7c1.3,0.6,1.8,1.1,1.8,1.7c0,0.9-1.1,1.3-2.2,1.3
		c-1.4,0-2.2-0.2-3.4-0.7l-0.4-0.2l-0.5,3.1c0.8,0.3,2.3,0.6,3.8,0.6C37.3,39.6,39.7,37.7,39.7,34.9z"/>
	<path d="M43.1,39.2L43.1,39.2c0,0.1,0.5-1.6,0.8-2c0.4,0,4,0,4.5,0c0.1,0.4,0.4,2,0.4,2h3.3l-2.9-13.6h-2.7c-0.8,0-1.5,0.3-1.8,1.1
		l-5.3,12.4H43.1z M46.2,30.8c0,0.1,0.4-0.8,0.4-1.3l0.3,1.1c0,0,0.7,3.3,0.8,3.9c-0.5,0-2.2,0-2.9,0C45.1,33.8,46.2,30.8,46.2,30.8
		z"/>
	<polygon points="15.3,39.3 19,39.3 24.7,25.7 20.9,25.7 17.4,35.1 15.6,25.7 8.5,25.7 12.5,28.7 	"/>
	<path d="M60.8,17H3.2C1.4,17,0,18.4,0,20.1v23.8C0,45.6,1.4,47,3.2,47h57.6c1.8,0,3.2-1.4,3.2-3.1V20.1C64,18.4,62.6,17,60.8,17z
		 M59,42H5V22h54V42z"/>
</g>
</svg>
