<?xml version="1.0" encoding="utf-8"?>
<!-- Generator: Adobe Illustrator 22.0.1, SVG Export Plug-In . SVG Version: 6.00 Build 0)  -->
<svg version="1.1" id="Layer_1" xmlns="http://www.w3.org/2000/svg" xmlns:xlink="http://www.w3.org/1999/xlink" x="0px" y="0px"
	 viewBox="0 0 64 64" style="enable-background:new 0 0 64 64;" xml:space="preserve">
<path d="M41.8,0H22.2C4.2,0,0,4.2,0,22.2v19.7C0,59.8,4.2,64,22.2,64h19.7C59.8,64,64,59.8,64,41.8V22.2C64,4.2,59.8,0,41.8,0z
	 M51.7,45.7H47c-1.8,0-2.3-1.4-5.5-4.6c-2.8-2.7-4-3-4.6-3c-0.9,0-1.2,0.2-1.2,1.5v4.2c0,1.1-0.3,1.8-3.4,1.8
	c-4.9,0-10.4-3-14.2-8.6c-5.8-8.2-7.3-14.3-7.3-15.5c0-0.7,0.2-1.3,1.5-1.3H17c1.1,0,1.6,0.5,2.1,1.8c2.3,6.7,6.1,12.5,7.7,12.5
	c0.6,0,0.9-0.3,0.9-1.8v-6.9c-0.2-3.2-1.8-3.4-1.8-4.6c0-0.5,0.5-1.1,1.1-1.1h7.3c1,0,1.3,0.5,1.3,1.7v9.2c0,1,0.4,1.3,0.7,1.3
	c0.6,0,1.1-0.3,2.2-1.4c3.4-3.8,5.7-9.5,5.7-9.5c0.3-0.7,0.9-1.3,2-1.3h4.6c1.4,0,1.7,0.7,1.4,1.7c-0.6,2.7-6.3,10.8-6.3,10.8
	c-0.5,0.8-0.7,1.1,0,2.1c0.5,0.7,2.2,2.1,3.2,3.4c2,2.3,3.5,4.2,3.9,5.5C53.6,45,53,45.7,51.7,45.7z"/>
</svg>
