<?xml version="1.0" encoding="utf-8"?>
<!-- Generator: Adobe Illustrator 23.0.0, SVG Export Plug-In . SVG Version: 6.00 Build 0)  -->
<svg version="1.1" id="Layer_1" xmlns="http://www.w3.org/2000/svg" xmlns:xlink="http://www.w3.org/1999/xlink" x="0px" y="0px"
	 viewBox="0 0 64 64" style="enable-background:new 0 0 64 64;" xml:space="preserve">
<g>
	<path d="M59.8,21.4c-1.3-1.3-3.3-1.3-4.6,0s-1.3,3.3,0,4.6c3,3.3,3,8.6,0,11.9c-1.3,1.3-1.3,3.3,0,4.6c0.7,0.7,1.3,1,2.3,1
		c1,0,1.7-0.3,2.3-1C65.4,36.5,65.4,27.3,59.8,21.4z"/>
	<path d="M42.9,6.8c-2-1.3-4.6-1-6.6,0.3l-13.9,8.3H6.6C3,15.4,0,18.4,0,22v19.8c0,3.6,3,6.6,6.6,6.6h15.9L36,57c1,0.7,2.3,1,3.6,1
		c1,0,2.3-0.3,3.3-1c2-1.3,3.3-3.3,3.3-5.9V12.4C46.2,10.1,44.9,7.8,42.9,6.8z M39.6,51.4l-13.5-8.6c-1-0.7-2.3-1-3.6-1H6.6V22h15.9
		c1.3,0,2.3-0.3,3.6-1l13.5-8.6V51.4z"/>
</g>
</svg>
