<?xml version="1.0" encoding="utf-8"?>
<!-- Generator: Adobe Illustrator 23.0.0, SVG Export Plug-In . SVG Version: 6.00 Build 0)  -->
<svg version="1.1" id="Layer_1" xmlns="http://www.w3.org/2000/svg" xmlns:xlink="http://www.w3.org/1999/xlink" x="0px" y="0px"
	 viewBox="0 0 64 64" style="enable-background:new 0 0 64 64;" xml:space="preserve">
<g>
	<path d="M57.5,15.6c-1.1-1.1-2.7-1.1-3.8,0c-1.1,1.1-1.1,2.7,0,3.8c6.5,6.8,6.5,18.2,0,25.1c-1.1,1.1-1.1,2.7,0,3.8
		c0.5,0.5,1.1,0.8,1.9,0.8c0.8,0,1.4-0.3,1.9-0.8C66.2,39.3,66.2,24.6,57.5,15.6z"/>
	<path d="M45.5,23.2c-1.1,1.1-1.1,2.7,0,3.8c2.5,2.7,2.5,7.1,0,9.8c-1.1,1.1-1.1,2.7,0,3.8c0.5,0.5,1.1,0.8,1.9,0.8
		c0.8,0,1.4-0.3,1.9-0.8c4.6-4.6,4.6-12.5,0-17.2C48.2,22.1,46.6,22.1,45.5,23.2z"/>
	<path d="M35.4,11.2c-1.6-1.1-3.8-0.8-5.4,0.3l-11.4,6.8H5.4c-3,0-5.4,2.5-5.4,5.4v16.3c0,3,2.5,5.4,5.4,5.4h13.1l11.2,7.1
		c0.8,0.5,1.9,0.8,3,0.8c0.8,0,1.9-0.3,2.7-0.8c1.6-1.1,2.7-2.7,2.7-4.9V15.9C38.1,14,37,12.1,35.4,11.2z M32.7,48l-11.2-7.1
		c-0.8-0.5-1.9-0.8-3-0.8H5.4V23.8h13.1c1.1,0,1.9-0.3,3-0.8l11.2-7.1V48z"/>
</g>
</svg>
