<?xml version="1.0" encoding="utf-8"?>
<!-- Generator: Adobe Illustrator 23.0.0, SVG Export Plug-In . SVG Version: 6.00 Build 0)  -->
<svg version="1.1" id="Layer_1" xmlns="http://www.w3.org/2000/svg" xmlns:xlink="http://www.w3.org/1999/xlink" x="0px" y="0px"
	 viewBox="0 0 64 64" style="enable-background:new 0 0 64 64;" xml:space="preserve">
<g>
	<path d="M53.2,64c-1.4,0-2.5-0.3-3.7-1.1L32,52.1c0-0.3-0.3-0.3-0.6-0.3H10.8c-4,0-7.1-3.1-7.1-7.1V19.2c0-4,3.1-7.1,7.1-7.1h20.7
		c0.3,0,0.6,0,0.6-0.3L49.3,1.1c2.3-1.4,4.8-1.4,7.4-0.3c2.3,1.4,3.7,3.7,3.7,6.2v49.6c0,2.5-1.4,5.1-3.7,6.2
		C55.5,63.7,54.4,64,53.2,64z M10.8,17.8c-0.8,0-1.4,0.6-1.4,1.4v25.5c0,0.8,0.6,1.4,1.4,1.4h20.7c1.4,0,2.5,0.3,3.7,1.1l17.3,10.8
		c0.6,0.3,1.1,0.3,1.4,0c0.3,0,0.8-0.6,0.8-1.4V7.1c0-0.8-0.6-1.1-0.8-1.4c-0.3,0-0.8-0.3-1.4,0L35.1,16.4c-1.1,0.8-2.5,1.1-3.7,1.1
		L10.8,17.8L10.8,17.8z"/>
</g>
</svg>
