<?xml version="1.0" encoding="utf-8"?>
<!-- Generator: Adobe Illustrator 23.0.0, SVG Export Plug-In . SVG Version: 6.00 Build 0)  -->
<svg version="1.1" id="Layer_2_1_" xmlns="http://www.w3.org/2000/svg" xmlns:xlink="http://www.w3.org/1999/xlink" x="0px" y="0px"
	 viewBox="0 0 64 64" style="enable-background:new 0 0 64 64;" xml:space="preserve">
<g>
	<path d="M47.3,26.6c-1.1-1.1-2.7-1.1-3.7-0.3c-1.1,1.1-1.1,2.7-0.3,3.7c0.8,1.1,0.8,2.7,0,3.7c-1.1,1.1-0.8,2.7,0.3,3.7
		c0.5,0.5,1.1,0.8,1.9,0.8c0.8,0,1.3-0.3,1.9-0.8C50.2,34.3,50.2,29.5,47.3,26.6z"/>
	<path d="M53.2,22.3c-1.1-1.1-2.7-1.1-3.7-0.3c-1.1,1.1-1.1,2.7-0.3,3.7c2.9,3.2,2.9,8.8,0,12c-1.1,1.1-0.8,2.7,0.3,3.7
		c0.5,0.5,1.1,0.8,1.9,0.8s1.3-0.3,1.9-0.8C58,36.2,58,27.7,53.2,22.3z"/>
	<path d="M58.8,18C57.7,17,56.1,17,55,17.8c-1.1,1.1-1.1,2.7-0.3,3.7c5.1,5.6,5.1,14.7,0,20.3c-1.1,1.1-0.8,2.7,0.3,3.7
		c0.5,0.5,1.1,0.8,1.9,0.8c0.8,0,1.3-0.3,1.9-0.8C65.7,38.1,65.7,25.8,58.8,18z"/>
	<path d="M34.7,11.6c-1.6-1.1-3.7-0.8-5.3,0.3l-11.2,6.7H5.3C2.4,18.6,0,21,0,23.9v16c0,2.9,2.4,5.3,5.3,5.3h12.8l11,6.9
		c0.8,0.5,1.9,0.8,2.9,0.8c0.8,0,1.9-0.3,2.7-0.8c1.6-1.1,2.7-2.7,2.7-4.8V16.2C37.4,14.3,36.3,12.4,34.7,11.6z M32.1,47.7l-11-6.9
		c-0.8-0.5-1.9-0.8-2.9-0.8H5.3v-16h12.8c1.1,0,1.9-0.3,2.9-0.8l11-6.9V47.7z"/>
</g>
</svg>
