<?xml version="1.0" encoding="utf-8"?>
<!-- Generator: Adobe Illustrator 23.0.0, SVG Export Plug-In . SVG Version: 6.00 Build 0)  -->
<svg version="1.1" id="Layer_1" xmlns="http://www.w3.org/2000/svg" xmlns:xlink="http://www.w3.org/1999/xlink" x="0px" y="0px"
	 viewBox="0 0 64 64" style="enable-background:new 0 0 64 64;" xml:space="preserve">
<g>
	<path d="M48.2,27.7c-1.6,0-2.7,1.1-2.7,2.7v26.5L29.5,47c-1.3-0.8-2.9-0.5-3.7,0.8s-0.5,2.9,0.8,3.7l16.1,9.9
		c0.8,0.5,1.9,0.8,2.9,0.8c0.8,0,1.9-0.3,2.7-0.8c1.6-1.1,2.7-2.7,2.7-4.6V30.4C50.9,28.8,49.8,27.7,48.2,27.7z"/>
	<path d="M63.2,2.5c-1.1-1.1-2.7-1.1-3.7,0l-8.6,8.6V7.4c0-1.9-1.1-3.7-2.9-4.8c-1.9-0.8-3.7-0.8-5.6,0.3L25.2,14.1
		c0,0.3-0.3,0.3-0.3,0.3H6.7C2.9,14.3,0,17.3,0,21v24.4c0,3.5,2.9,6.4,6.7,6.4h3.7l-5.4,5.4c-1.1,1.1-1.1,2.7,0,3.7
		c0.5,0.5,1.3,0.8,1.9,0.8s1.3-0.3,1.9-0.8L63.2,6.3C64.3,5.5,64.3,3.6,63.2,2.5z M6.7,46.5c-0.8,0-1.3-0.5-1.3-1.3V20.8
		c0-0.5,0.5-1.1,1.3-1.1h18.2c1.3,0,2.7-0.3,3.7-1.1L45.5,7.4v9.4l-30,29.7H6.7z"/>
</g>
</svg>
