<?xml version="1.0" encoding="utf-8"?>
<!-- Generator: Adobe Illustrator 22.0.1, SVG Export Plug-In . SVG Version: 6.00 Build 0)  -->
<svg version="1.1" id="Layer_1" xmlns="http://www.w3.org/2000/svg" xmlns:xlink="http://www.w3.org/1999/xlink" x="0px" y="0px"
	 viewBox="0 0 64 64" style="enable-background:new 0 0 64 64;" xml:space="preserve">
<g>
	<path d="M63.4,50.4l-29.3-40c-1.1-1.3-3.2-1.3-4.3,0l-29.3,40C0,51.2-0.2,52.2,0.3,53c0.5,1.1,1.3,1.6,2.4,1.6h58.6
		c1.1,0,1.9-0.5,2.4-1.3C64.2,52.2,64,51.2,63.4,50.4z M8,49.3l24-32.8l24,32.8H8z"/>
	<path d="M29.3,25.3V36c0,1.6,1.1,2.7,2.7,2.7c1.6,0,2.7-1.1,2.7-2.7V25.3c0-1.6-1.1-2.7-2.7-2.7C30.4,22.6,29.3,23.7,29.3,25.3z"/>
	<circle cx="32" cy="44" r="2.7"/>
</g>
</svg>
