<?xml version="1.0" encoding="utf-8"?>
<!-- Generator: Adobe Illustrator 22.0.1, SVG Export Plug-In . SVG Version: 6.00 Build 0)  -->
<svg version="1.1" id="Layer_1" xmlns="http://www.w3.org/2000/svg" xmlns:xlink="http://www.w3.org/1999/xlink" x="0px" y="0px"
	 viewBox="0 0 64 64" style="enable-background:new 0 0 64 64;" xml:space="preserve">
<g>
	<path d="M16,27.8l-1.6,2.4L13,28.3c-1.3-1.6-4-1.6-5.1,0l-1.3,1.9L5,27.8c-0.8-1.3-2.4-1.6-3.7-0.8c-1.3,0.8-1.6,2.4-0.8,3.7
		l3.5,5.4c1.1,1.6,4,1.6,5.1,0l1.3-1.9l1.3,1.9c0.5,0.8,1.6,1.3,2.7,1.3s1.9-0.5,2.7-1.3l3.5-5.4c0.8-1.3,0.5-2.9-0.8-3.7
		C18.4,26.5,16.8,26.7,16,27.8z"/>
	<path d="M37.6,27.8L36,30.2l-1.3-1.9C34.2,27.5,33.1,27,32,27c-1.1,0-1.9,0.5-2.4,1.3l-1.3,1.9l-1.6-2.4c-0.8-1.3-2.4-1.6-3.7-0.8
		s-1.6,2.4-0.8,3.7l3.5,5.1c1.1,1.6,4,1.6,5.1,0L32,34l1.3,1.9c0.5,0.8,1.6,1.3,2.4,1.3c0.8,0,1.9-0.5,2.7-1.3l3.5-5.4
		c0.8-1.3,0.5-2.9-0.8-3.7C40,26.5,38.4,26.7,37.6,27.8z"/>
	<path d="M63.1,27.3c-1.3-0.8-2.9-0.5-3.7,0.8l-1.6,2.4l-1.6-2.1c-1.1-1.6-4-1.6-5.1,0l-1.3,1.9l-1.6-2.4c-0.8-1.3-2.4-1.6-3.7-0.8
		c-1.3,0.8-1.6,2.4-0.8,3.7l3.5,5.1c1.1,1.6,4,1.6,5.1,0l1.3-1.9l1.3,1.9c0.5,0.8,1.6,1.3,2.4,1.3s1.9-0.5,2.7-1.3l3.5-5.4
		C64.4,29.7,64.1,28.1,63.1,27.3z"/>
</g>
</svg>
