<?xml version="1.0" encoding="utf-8"?>
<!-- Generator: Adobe Illustrator 21.0.2, SVG Export Plug-In . SVG Version: 6.00 Build 0)  -->
<svg version="1.1" id="Layer_1" xmlns="http://www.w3.org/2000/svg" xmlns:xlink="http://www.w3.org/1999/xlink" x="0px" y="0px"
	 viewBox="0 0 64 64" style="enable-background:new 0 0 64 64;" xml:space="preserve">
<g>
	<path d="M61.9,34.7l-14.4-7.2c-1.3-0.8-2.9-0.5-4,0.5s-1.3,2.7-0.5,4l7.2,14.4c0.5,1.3,1.9,2.1,3.5,2.1l0,0c1.3,0,2.4-0.8,2.9-1.9
		l1.6-3.7l3.7-1.6c1.1-0.5,1.9-1.6,1.9-2.9C64,36.8,63.2,35.5,61.9,34.7z M54.1,38.7l-0.8,2.1l-2.9-5.6l5.6,2.7L54.1,38.7z"/>
	<g>
		<path d="M16,16.7l-1.6,2.4L13,17.2c-1.3-1.6-4-1.6-5.1,0l-1.3,1.9L5,16.7c-0.8-1.3-2.4-1.6-3.7-0.8c-1.3,0.8-1.6,2.4-0.8,3.7L4,25
			c1.1,1.6,4,1.6,5.1,0l1.3-1.9l1.3,1.9c0.5,0.8,1.6,1.3,2.7,1.3s1.9-0.5,2.7-1.3l3.5-5.4c0.8-1.3,0.5-2.9-0.8-3.7
			C18.4,15.4,16.8,15.6,16,16.7z"/>
		<path d="M37.6,16.7L36,19.1l-1.3-1.9c-0.5-0.8-1.6-1.3-2.7-1.3c-1.1,0-1.9,0.5-2.4,1.3l-1.3,1.9l-1.6-2.4
			c-0.8-1.3-2.4-1.6-3.7-0.8c-1.3,0.8-1.6,2.4-0.8,3.7l3.5,5.1c1.1,1.6,4,1.6,5.1,0l1.2-1.8l1.3,1.9c0.5,0.8,1.6,1.3,2.4,1.3
			c0.8,0,1.9-0.5,2.7-1.3l3.5-5.4c0.8-1.3,0.5-2.9-0.8-3.7C40,15.4,38.4,15.6,37.6,16.7z"/>
		<path d="M63.1,16.2c-1.3-0.8-2.9-0.5-3.7,0.8l-1.6,2.4l-1.6-2.1c-1.1-1.6-4-1.6-5.1,0l-1.3,1.9l-1.6-2.4c-0.8-1.3-2.4-1.6-3.7-0.8
			c-1.3,0.8-1.6,2.4-0.8,3.7l3.5,5.1c1.1,1.6,4,1.6,5.1,0l1.3-1.9l1.3,1.9c0.5,0.8,1.6,1.3,2.4,1.3s1.9-0.5,2.7-1.3l3.5-5.4
			C64.4,18.6,64.1,17,63.1,16.2z"/>
	</g>
</g>
</svg>
