<?xml version="1.0" encoding="utf-8"?>
<!-- Generator: Adobe Illustrator 22.0.1, SVG Export Plug-In . SVG Version: 6.00 Build 0)  -->
<svg version="1.1" id="Layer_1" xmlns="http://www.w3.org/2000/svg" xmlns:xlink="http://www.w3.org/1999/xlink" x="0px" y="0px"
	 viewBox="0 0 64 64" style="enable-background:new 0 0 64 64;" xml:space="preserve">
<g>
	<path d="M57.3,52.1c4-2.9,6.7-7.3,6.7-12.2c0-8.9-8.6-16.1-19.3-16.1S25.5,31.1,25.5,40S34.1,56,44.7,56c2.2,0,4.3-0.3,6.3-0.9
		c0.2-0.1,0.3-0.1,0.6-0.1c0.3,0,0.7,0.1,1,0.3l4.2,2.4c0.1,0.1,0.2,0.1,0.3,0.1c0.3,0,0.6-0.3,0.6-0.6c0-0.1-0.1-0.3-0.1-0.5
		c0-0.1-0.6-2-0.8-3.3c-0.1-0.1-0.1-0.3-0.1-0.4C56.8,52.7,57,52.3,57.3,52.1z M38.3,37.4c-1.4,0-2.6-1.2-2.6-2.6s1.2-2.6,2.6-2.6
		s2.6,1.2,2.6,2.6S39.7,37.4,38.3,37.4z M51.1,37.4c-1.4,0-2.6-1.2-2.6-2.6s1.2-2.6,2.6-2.6s2.6,1.2,2.6,2.6S52.6,37.4,51.1,37.4z"
		/>
	<path d="M44.7,22.4c0.4,0,0.8,0,1.3,0C44.2,13.2,34.6,6.1,23.1,6.1C10.4,6.2,0,14.8,0,25.4C0,31.3,3.1,36.5,8,40
		c0.4,0.3,0.6,0.8,0.6,1.3c0,0.1-0.1,0.3-0.1,0.5c-0.4,1.5-1,3.8-1,3.9c-0.1,0.2-0.1,0.3-0.1,0.6c0,0.4,0.3,0.8,0.8,0.8
		c0.1,0,0.3-0.1,0.4-0.1l5.1-2.9c0.3-0.2,0.8-0.3,1.3-0.3c0.2,0,0.5,0.1,0.7,0.1c2.4,0.7,4.9,1,7.6,1c0.4,0,0.8,0,1.3,0
		c-0.5-1.5-0.8-3.1-0.8-4.7C23.7,30.2,33,22.4,44.7,22.4z M30.8,16.2c1.7,0,3.1,1.4,3.1,3.1c0,1.7-1.4,3.1-3.1,3.1
		c-1.7,0-3.1-1.4-3.1-3.1C27.8,17.6,29.1,16.2,30.8,16.2z M15.4,22.4c-1.7,0-3.1-1.4-3.1-3.1s1.4-3.1,3.1-3.1c1.7,0,3.1,1.4,3.1,3.1
		S17.1,22.4,15.4,22.4z"/>
</g>
</svg>
