<?xml version="1.0" encoding="utf-8"?>
<!-- Generator: Adobe Illustrator 23.0.0, SVG Export Plug-In . SVG Version: 6.00 Build 0)  -->
<svg version="1.1" id="Layer_1" xmlns="http://www.w3.org/2000/svg" xmlns:xlink="http://www.w3.org/1999/xlink" x="0px" y="0px"
	 viewBox="0 0 64 64" style="enable-background:new 0 0 64 64;" xml:space="preserve">
<g>
	<path d="M53.3,0H10.7c-4.5,0-8,3.5-8,8v48c0,4.5,3.5,8,8,8h42.7c4.5,0,8-3.5,8-8V8C61.3,3.5,57.9,0,53.3,0z M56,56
		c0,1.6-1.1,2.7-2.7,2.7H10.7C9.1,58.7,8,57.6,8,56V8c0-1.6,1.1-2.7,2.7-2.7h42.7C54.9,5.3,56,6.4,56,8V56z"/>
	<path d="M32,12.8c-8,0-14.9,6.7-16,15.5c0,1.1,0.3,1.9,0.8,2.7c0.5,0.8,1.3,1.1,2.4,1.1H32l0,0l0,0h12.8c0.8,0,1.9-0.3,2.4-1.1
		c0.5-0.8,0.8-1.6,0.8-2.7C46.9,19.5,40,12.8,32,12.8z M33.9,26.7l-1.1-3.2c-0.5-1.3-1.9-2.1-3.5-1.6c-1.3,0.5-2.1,1.9-1.6,3.5
		l0.5,1.6h-6.7c1.6-5.1,5.6-8.5,10.4-8.5s8.8,3.5,10.4,8.5h-8.5V26.7z"/>
</g>
</svg>
