<?xml version="1.0" encoding="utf-8"?>
<!-- Generator: Adobe Illustrator 23.0.0, SVG Export Plug-In . SVG Version: 6.00 Build 0)  -->
<svg version="1.1" id="Layer_1" xmlns="http://www.w3.org/2000/svg" xmlns:xlink="http://www.w3.org/1999/xlink" x="0px" y="0px"
	 viewBox="0 0 64 64" style="enable-background:new 0 0 64 64;" xml:space="preserve">
<path d="M57.3,45.3c-1.1,0-1.9,0.3-2.9,0.5l-2.7-2.9c4.3-2.4,7.7-6.1,9.3-11.2l1.9-5.9c0.3-0.8,1.1-3.5-0.3-5.3
	c-1.1-1.3-2.7-2.1-4.8-2.1h-40l-2.9-9.3c-0.8-2.1-2.7-3.7-5.1-3.7H2.7C1.1,5.3,0,6.4,0,8s1.1,2.7,2.7,2.7h7.2l3.5,11.2v20.8v2.7v9.9
	c0,1.3,0.8,2.7,2.1,3.2c0.5,0.3,0.8,0.3,1.3,0.3c0.8,0,1.6-0.3,2.1-0.8l16.5-12.5h7.2c1.3,0,2.4-0.3,3.7-0.3l4.8,5.1
	c-0.3,0.5-0.5,1.1-0.5,1.9c0,3.7,2.9,6.7,6.7,6.7c3.7,0,6.7-2.9,6.7-6.7S61.1,45.3,57.3,45.3z M18.7,51.2v-5.9h8L18.7,51.2z
	 M18.7,40V24h39.2h0.3v0.3L56,30.1C54.1,36,48.5,40,42.7,40H18.7z M57.3,53.3c-0.8,0-1.3-0.5-1.3-1.3s0.5-1.3,1.3-1.3
	c0.8,0,1.3,0.5,1.3,1.3S58.1,53.3,57.3,53.3z"/>
</svg>
