<?xml version="1.0" encoding="utf-8"?>
<!-- Generator: Adobe Illustrator 23.0.0, SVG Export Plug-In . SVG Version: 6.00 Build 0)  -->
<svg version="1.1" id="Layer_2_1_" xmlns="http://www.w3.org/2000/svg" xmlns:xlink="http://www.w3.org/1999/xlink" x="0px" y="0px"
	 viewBox="0 0 64 64" style="enable-background:new 0 0 64 64;" xml:space="preserve">
<g>
	<path d="M40.4,53.1c-3.2,3.5-7.7,5.6-12.8,5.6c-9.3,0-17-7.7-17-17c0-5.6,2.7-10.6,6.9-13.8c1.1-0.8,1.3-2.7,0.5-3.7
		c-0.8-1.1-2.7-1.3-3.7-0.5c-5.9,4.3-9,10.9-9,18.1C5.3,53.9,15.4,64,27.6,64c6.4,0,12.5-2.7,16.5-7.4c1.1-1.1,0.8-2.7-0.3-3.7
		C43,52,41.4,52,40.4,53.1z"/>
	<path d="M56,50.2l-4,0.3l-1.3-14.9c0-1.9-1.6-3.5-3.5-3.5H27.1l-0.5-8h13.6c1.6,0,2.7-1.1,2.7-2.7s-1.1-2.7-2.7-2.7H26.3L26,16.4
		c4.5-0.8,7.7-5.6,6.4-10.6c-0.8-2.4-2.7-4.5-5.3-5.3c-5.6-1.9-10.9,2.4-10.9,7.7c0,3.2,1.9,5.9,4.3,7.2L21.5,34
		c0,1.9,1.6,3.2,3.5,3.2h20.5l1.3,15.4v0.3c0.3,1.6,1.9,2.9,3.7,2.9h-0.3l6.1-0.5c1.6,0,2.7-1.3,2.4-2.9C59,51,57.6,49.9,56,50.2z
		 M24.4,11.1c-1.6,0-2.9-1.3-2.9-2.9s1.6-2.7,2.9-2.7c1.3,0,2.9,1.3,2.9,2.9S26,11.1,24.4,11.1z"/>
</g>
</svg>
