<?xml version="1.0" encoding="utf-8"?>
<!-- Generator: Adobe Illustrator 22.0.1, SVG Export Plug-In . SVG Version: 6.00 Build 0)  -->
<svg version="1.1" id="Layer_1" xmlns="http://www.w3.org/2000/svg" xmlns:xlink="http://www.w3.org/1999/xlink" x="0px" y="0px"
	 viewBox="0 0 64 64" style="enable-background:new 0 0 64 64;" xml:space="preserve">
<title>Layer 1</title>
<g>
	<path d="M64,30.4c0-10.1,0-20.3,0-30.4C52.3,1.6,40.7,3.2,29,5.1l0,0c0,8.6,0,17.1,0,25.6C40.7,30.6,52.3,30.5,64,30.4z"/>
	<path d="M0,9.4v21.5c8.6,0,17.4-0.1,26-0.1c0-8.4,0-16.6,0-25C17.4,7,8.6,8.1,0,9.4z"/>
	<path d="M0,33.4v21.5c8.6,1.2,17.4,2.3,26,3.5c0-8.3,0-16.6,0-24.9C17.4,33.5,8.6,33.4,0,33.4z"/>
	<path d="M29.2,33.9c0.1,8.4,0.1,16.8,0.1,25.2C40.9,60.7,52.4,62.3,64,64c0-10,0-20,0-30.1C52.4,33.9,40.8,33.9,29.2,33.9z"/>
</g>
</svg>
