<?xml version="1.0" encoding="utf-8"?>
<!-- Generator: Adobe Illustrator 22.0.1, SVG Export Plug-In . SVG Version: 6.00 Build 0)  -->
<svg version="1.1" id="Layer_1" xmlns="http://www.w3.org/2000/svg" xmlns:xlink="http://www.w3.org/1999/xlink" x="0px" y="0px"
	 viewBox="0 0 64 64" style="enable-background:new 0 0 64 64;" xml:space="preserve">
<path d="M59.5,15.7c-0.9-1.5-2-3-3-4.2C50.3,4.2,41.4,0,32,0C19.4,0,8,7.3,2.8,18.7c-0.1,0.3-0.3,0.6-0.4,0.9
	c-0.2,0.5-0.5,1.2-0.7,1.9c0,0.1-0.1,0.3-0.1,0.5C0.5,25.2,0,28.6,0,32c0,11.3,5.8,21.5,15.5,27.4l0.5,0.3l0,0
	c0.6,0.3,1.2,0.7,1.7,0.9c0.3,0.1,0.5,0.3,0.8,0.4h0.1c0.5,0.3,1.1,0.5,1.7,0.7l0.2,0.1c3.7,1.4,7.6,2.2,11.6,2.2
	c2.2,0,4.4-0.2,6.5-0.7c0.7-0.1,1.3-0.3,2-0.5c0.9-0.2,1.7-0.5,2.6-0.9c1.4-0.5,2.8-1.1,4.1-1.9C57.5,54.6,64,43.8,64,32
	C64,26.2,62.5,20.6,59.5,15.7z M32,3.7c6.9,0,13.5,2.6,18.7,7.1c-4.8,2.2-1.3,8.6,0.1,12.5c0.4,1.1,0.7,2.2,0.7,3.1l-5.8,17.4
	L39,23.8c0.9-0.1,1.7-0.9,1.7-1.8c0-1-0.8-1.9-1.9-1.9h-1.1h-3.9h-5h-5h-0.3l0,0c-0.9,0.1-1.6,0.9-1.6,1.8c0,1,0.8,1.9,1.9,1.9h1
	l3.9,11.4l-2.8,8.5L19,23.8c0.9-0.1,1.5-0.9,1.5-1.8c0-1-0.8-1.9-1.9-1.9h-0.9h-4.1H6.3C10.9,10.2,20.9,3.7,32,3.7z M28.7,23.9h0.1
	h5h1.2l8.7,25.7L40.7,59h-0.1l-3.4-10l0,0L28.7,23.9z M20.3,57.8L8.7,23.9h5h1.5l8.7,25.8l-2.8,8.5C20.8,58.1,20.5,57.9,20.3,57.8z
	 M3.6,32c0-2.8,0.4-5.5,1.1-8.1l10.6,31C8,49.7,3.6,41.3,3.6,32z M24.6,59.4l6.1-18.3L37,59.9c-1.7,0.3-3.4,0.5-5,0.5
	C29.4,60.4,26.9,60,24.6,59.4z M45.4,56.9c-0.1,0-0.1,0.1-0.2,0.1L56,24.8c0.6-1.5,1.1-3.1,1.6-4.6c1.7,3.7,2.6,7.7,2.6,11.9
	C60.3,42.5,54.6,52,45.4,56.9z"/>
</svg>
