<?xml version="1.0" encoding="utf-8"?>
<!-- Generator: Adobe Illustrator 22.0.1, SVG Export Plug-In . SVG Version: 6.00 Build 0)  -->
<svg version="1.1" id="Layer_1" xmlns="http://www.w3.org/2000/svg" xmlns:xlink="http://www.w3.org/1999/xlink" x="0px" y="0px"
	 viewBox="0 0 64 64" style="enable-background:new 0 0 64 64;" xml:space="preserve">
<path d="M32,0C14.3,0,0,14.4,0,32s14.3,32,32,32s32-14.4,32-32S49.6,0,32,0z M60.4,32c0,10.7-5.9,20-14.7,24.8L54,35.6
	c0.5-1.1,3.3-8.1,4.4-14.1C59.7,24.7,60.4,28.4,60.4,32z M38.1,18h-3.5H23.5c-0.6,0-1,0.5-1,1c0,0.5,0.5,1,1,1h2l3.6,9.3l-4.4,11.2
	L16.9,20h2.5c0.6,0,1-0.5,1-1c0-0.5-0.5-1-1-1h-4.2l-6.9-0.1C13,9.7,21.9,4.3,31.9,4.3c7.3,0,13.9,2.9,18.9,7.5
	c-2.6,0.5-4.7,2.4-5.2,5c-0.6,2.9,0.5,5.2,1.6,7.4c1.1,2.3,2.3,4.5,1.5,7.1l-3.9,9.9L36.6,20h1.6c0.6,0,1-0.5,1-1
	C39.3,18.5,38.6,18,38.1,18z M3.6,32c0-3.6,0.7-7.1,2-10.3l13.9,35.8C10.1,52.9,3.6,43.2,3.6,32z M32.3,38.1l8.3,21
	c-2.7,0.9-5.5,1.3-8.6,1.3c-2.7,0-5.4-0.3-7.9-1.1L32.3,38.1z"/>
</svg>
