<?xml version="1.0" encoding="utf-8"?>
<!-- Generator: Adobe Illustrator 23.0.0, SVG Export Plug-In . SVG Version: 6.00 Build 0)  -->
<svg version="1.1" id="Layer_1" xmlns="http://www.w3.org/2000/svg" xmlns:xlink="http://www.w3.org/1999/xlink" x="0px" y="0px"
	 viewBox="0 0 64 64" style="enable-background:new 0 0 64 64;" xml:space="preserve">
<path d="M52.2,18.5C49.5,10.8,41.5,6.8,33.8,8.4L32,3c-0.5-1.1-1.3-2.1-2.4-2.7c-1.1-0.5-2.4-0.5-3.5,0c-12.2,5.6-18.4,20-13.8,33
	c3.2,9,10.9,15.2,19.7,16.8c0,0.3,0,0.3,0,0.5v8h-5.3c-1.6,0-2.7,1.1-2.7,2.7S25,64,26.6,64h18.6c1.6,0,2.7-1.1,2.7-2.7
	s-1.1-2.7-2.7-2.7h-8v-8l0,0c2.1,0,4.3-0.3,6.7-1.1c1.1-0.3,2.1-1.1,2.7-2.1c0.5-1.1,0.5-2.4,0.3-3.5l-2.1-5.9
	C51.6,34.7,55.1,26.2,52.2,18.5z M17.3,31.5c-3.5-9.8,0.8-21,10.1-25.8l1.6,4.5c-6.4,4-9.3,11.7-6.7,19.2
	c2.4,6.4,8.5,10.4,14.9,10.4c0.8,0,1.6,0,2.4-0.3l1.9,5.1C31.4,47.2,20.8,41.6,17.3,31.5z M41,34.2c-5.6,2.1-11.7-0.8-13.6-6.4
	c-2.1-5.6,0.8-11.7,6.4-13.6c1.1-0.5,2.1-0.8,3.5-0.8c4.3,0,8.5,2.7,10.1,6.9C49.3,25.9,46.3,32,41,34.2z"/>
</svg>
