<?xml version="1.0" encoding="utf-8"?>
<!-- Generator: Adobe Illustrator 22.0.1, SVG Export Plug-In . SVG Version: 6.00 Build 0)  -->
<svg version="1.1" id="Layer_1" xmlns="http://www.w3.org/2000/svg" xmlns:xlink="http://www.w3.org/1999/xlink" x="0px" y="0px"
	 viewBox="0 0 64 64" style="enable-background:new 0 0 64 64;" xml:space="preserve">
<g>
	<path d="M60.9,4.4L60.9,4.4L60.9,4.4c0,0-0.5-0.1-0.8-0.1c-1.8,0-3.6,1-3.6,3.7c-1,13.4-2.2,26.9-4,39.7l0,0l0,0l0,0l0,0
		c1.1-0.2,1.9,0.1,2.8,0.4l0,0c2.1-13,7-32.5,8.2-38C63.8,9.5,64,8.5,64,7.9C64,5.9,62.7,4.7,60.9,4.4z"/>
	<path d="M44.6,3.8L44.6,3.8c-2.6,0.6-5.1,0.6-7.5,0C35,7.7,27.2,20.5,22.3,28.6c-5-8.4-11-18-14.8-24.8C4.4,4.4,3.1,4.5,0,3.8
		c6.1,9.1,15.8,26.6,19.1,32.4l-0.4,23.9c0,0,2.2-0.3,3.6-0.3c1.6,0,3.6,0.3,3.6,0.3l-0.4-23.9C31.5,25.3,41.8,7.6,44.6,3.8
		C44.6,3.7,44.6,3.8,44.6,3.8z"/>
	<path d="M52.4,53.1c-2.4,0-3.5,1.8-3.5,3.7c0,2.2,1.8,3.4,4,3.4c1.6,0,3.3-1,3.3-3.6C56.3,54.5,54.6,53.1,52.4,53.1z"/>
</g>
</svg>
