<?xml version="1.0" encoding="utf-8"?>
<!-- Generator: Adobe Illustrator 23.0.0, SVG Export Plug-In . SVG Version: 6.00 Build 0)  -->
<svg version="1.1" id="Layer_1" xmlns="http://www.w3.org/2000/svg" xmlns:xlink="http://www.w3.org/1999/xlink" x="0px" y="0px"
	 viewBox="0 0 64 64" style="enable-background:new 0 0 64 64;" xml:space="preserve">
<path d="M50.4,4.1c0.5-1.3,0.3-2.9-1.1-3.7s-2.9-0.3-3.7,1.1L32,24.3L18.4,1.4c-0.8-1.3-2.4-1.6-3.7-1.1c-1.3,0.8-1.6,2.4-1.1,3.7
	l15.7,26.1v1.9H18.7c-1.6,0-2.7,1.1-2.7,2.7s1.1,2.7,2.7,2.7h10.6v5.3H18.7c-1.6,0-2.7,1.1-2.7,2.7s1.1,2.7,2.7,2.7h10.6v13.3
	c0,1.6,1.1,2.7,2.7,2.7s2.7-1.1,2.7-2.7V48h10.6c1.6,0,2.7-1.1,2.7-2.7s-1.1-2.7-2.7-2.7H34.7v-5.3h10.6c1.6,0,2.7-1.1,2.7-2.7
	s-1.1-2.7-2.7-2.7H34.7v-1.9L50.4,4.1z"/>
</svg>
