<?xml version="1.0" encoding="utf-8"?>
<!-- Generator: Adobe Illustrator 22.0.1, SVG Export Plug-In . SVG Version: 6.00 Build 0)  -->
<svg version="1.1" id="Layer_1" xmlns="http://www.w3.org/2000/svg" xmlns:xlink="http://www.w3.org/1999/xlink" x="0px" y="0px"
	 viewBox="0 0 64 64" style="enable-background:new 0 0 64 64;" xml:space="preserve">
<path d="M58.7,10.7h-5.3V3.7c0-2.1-1.6-3.7-3.7-3.7H6.4C4.3,0,2.7,1.6,2.7,3.7v36.8c0,1.3,0.5,2.9,1.6,4l19.2,18.1
	c1.1,0.8,2.4,1.3,3.7,1.3h22.4c2.1,0,3.7-1.6,3.7-3.7V34.7h5.3c1.6,0,2.7-1.1,2.7-2.7V13.3C61.3,11.7,60.3,10.7,58.7,10.7z
	 M10.4,42.7H24v12.8L10.4,42.7z M48,58.7H29.3V40.8c0-1.9-1.6-3.5-3.5-3.5H8v-32h40v5.3H18.7c-1.6,0-2.7,1.1-2.7,2.7V32
	c0,1.6,1.1,2.7,2.7,2.7H48V58.7z M40,18.7v8c0,1.6-1.1,2.7-2.7,2.7s-2.7-1.1-2.7-2.7v-8c0-1.6,1.1-2.7,2.7-2.7S40,17.1,40,18.7z
	 M32,26.7c0,1.6-1.1,2.7-2.7,2.7h-4.5c-1.1,0-1.9-0.5-2.4-1.3s-0.5-1.9,0-2.7l2.4-4H24c-1.6,0-2.7-1.1-2.7-2.7
	c0-1.6,1.1-2.7,2.7-2.7h5.9c1.1,0,1.9,0.5,2.4,1.3c0.5,0.8,0.5,1.9,0,2.7l-2.7,4C30.9,24.3,32,25.3,32,26.7z M50.7,26.7H48
	c0,1.6-1.1,2.7-2.7,2.7s-2.7-1.1-2.7-2.7V24v-5.3c0-1.6,1.1-2.7,2.7-2.7h5.3c2.9,0,5.3,2.4,5.3,5.3S53.6,26.7,50.7,26.7z"/>
</svg>
