<?xml version="1.0" encoding="utf-8"?>
<!-- Generator: Adobe Illustrator 23.0.0, SVG Export Plug-In . SVG Version: 6.00 Build 0)  -->
<svg version="1.1" id="Layer_1" xmlns="http://www.w3.org/2000/svg" xmlns:xlink="http://www.w3.org/1999/xlink" x="0px" y="0px"
	 viewBox="0 0 64 64" style="enable-background:new 0 0 64 64;" xml:space="preserve">
<g>
	<path d="M62.6,52.1L47.9,37.3c-1.9-1.9-5.1-1.9-7,0l0,0l-2.4-2.4c6.4-8.3,5.9-20.6-1.9-28.3c-4-4.3-9.4-6.4-15.2-6.4l0,0
		c-5.6,0-11,2.1-15.2,6.4c-8.3,8.3-8.3,21.9,0,30.2c4.3,4,9.6,6.1,15.2,6.1c4.8,0,9.4-1.6,13.1-4.5l2.4,2.4l0,0
		c-1.9,1.9-1.9,5.1,0,7l14.7,14.7c1.1,1.1,2.1,1.3,3.5,1.3s2.7-0.5,3.5-1.3l3.7-3.7l0,0C64.5,57.1,64.5,53.9,62.6,52.1z M21.5,37.6
		c-4.3,0-8.3-1.6-11.2-4.8c-6.1-6.1-6.1-16.6,0-22.7c2.9-2.9,7-4.5,11.2-4.5s8.3,1.6,11.2,4.8c6.1,6.1,6.1,16.6,0,22.7
		C29.7,36,25.7,37.6,21.5,37.6z M55.4,58.7L41.2,44.6l3.2-3.2l14.2,14.2L55.4,58.7z"/>
	<path d="M26.8,18.9h-2.7v-2.7c0-1.6-1.1-2.7-2.7-2.7c-1.6,0-2.7,1.1-2.7,2.7v2.7h-2.7c-1.6,0-2.7,1.1-2.7,2.7s1.1,2.7,2.7,2.7h2.7
		v2.7c0,1.6,1.1,2.7,2.7,2.7s2.7-1.1,2.7-2.7v-2.7h2.7c1.6,0,2.7-1.1,2.7-2.7C29.5,20,28.4,18.9,26.8,18.9z"/>
</g>
</svg>
