<?xml version="1.0" encoding="utf-8"?>
<!-- Generator: Adobe Illustrator 23.0.0, SVG Export Plug-In . SVG Version: 6.00 Build 0)  -->
<svg version="1.1" id="Layer_1" xmlns="http://www.w3.org/2000/svg" xmlns:xlink="http://www.w3.org/1999/xlink" x="0px" y="0px"
	 viewBox="0 0 64 64" style="enable-background:new 0 0 64 64;" xml:space="preserve">
<g>
	<path d="M62.6,51.8L47.9,37.1c-0.8-1.1-2.1-1.3-3.5-1.3l0,0c-1.3,0-2.7,0.5-3.5,1.3l0,0l-2.4-2.4c6.4-8.3,5.9-20.6-1.9-28.4
		c-4.3-4-9.6-6.2-15.3-6.2s-11,2.1-15.3,6.2C2.1,10.6,0,15.9,0,21.6s2.1,11,6.2,15.3c4.3,4,9.9,6.2,15.3,6.2c4.5,0,9.4-1.6,13.1-4.5
		l2.4,2.4l0,0c-1.1,1.1-1.3,2.1-1.3,3.5c0,1.3,0.5,2.7,1.3,3.5l14.7,14.7c1.1,1.1,2.1,1.3,3.5,1.3c1.3,0,2.4-0.5,3.5-1.3l3.7-3.7
		C64.5,56.9,64.5,53.9,62.6,51.8z M10.2,32.8c-3.2-2.9-4.8-7-4.8-11.2s1.6-8.3,4.8-11.2s7-4.8,11.2-4.8s8.3,1.6,11.2,4.8
		c6.2,6.2,6.2,16.3,0,22.7S16.3,39.2,10.2,32.8z M55.1,58.8L40.9,44.6l3.2-3.2l14.2,14.2L55.1,58.8z"/>
	<path d="M26.8,18.9H16.1c-1.6,0-2.7,1.1-2.7,2.7c0,1.6,1.1,2.7,2.7,2.7h10.7c1.6,0,2.7-1.1,2.7-2.7C29.4,20,28.4,18.9,26.8,18.9z"
		/>
</g>
</svg>
