<svg version="1.1" id="Layer_1" xmlns="http://www.w3.org/2000/svg" x="0" y="0" viewBox="0 0 128 128" xml:space="preserve" enable-background="new 0 0 128 128" width="70" height="70"><title>lineicons</title><g class="nc-icon-wrapper" fill="#756af8"><path d="M82.5 72c.6.4 1.2.6 2.1 1 4.3 1.9 8.4 3.1 13.1 3.1 15.6 0 28.6-13.1 28.6-28.6s-13.1-28.6-28.4-28.6C87.6 18.9 78.2 28.8 72 35l-7.8 7.8-13.1-13c-5.3-5.3-10.9-10.9-20.8-10.9C14.7 18.9 1.7 32 1.7 47.5s13.1 28.6 28.4 28.6c4.3 0 9-1 13.1-3.1 3.7-2.1 13.6-8.4 19.3-14l1.6-1.6 7 6.8c4.6 4.7 8.3 6.3 11.4 7.8zM78 44l3.1-3.1c4.7-4.7 11.7-11.5 16.8-11.5 9.7 0 18.1 9 18.1 18.7s-8.2 18.1-18.1 18.1c-3.1 0-8.2-1.8-11.5-3.5C78 57.8 71.2 50 71.2 50l6.8-6zm-22.8 7.6c-4.7 4.7-13.4 10.3-16.6 11.9-2.7 1.6-5.3 2.1-8.4 2.1-9.7 0-18.1-8.4-18.1-18.1s8.2-18.1 18.1-18.1c5.6 0 8.2 2.5 13.1 7.6l13.5 13-1.6 1.6z"/><path d="M3.2 108.4c-.4-.4-.5-.9-.5-1.5v-16c0-.7.2-1.2.6-1.6s.9-.6 1.6-.6 1.2.2 1.6.6c.4.4.6.9.6 1.6v14.5h7.3c1.4 0 2.1.6 2.1 1.8 0 1.2-.7 1.8-2.1 1.8H4.8c-.7-.1-1.2-.3-1.6-.6z"/><path d="M18.8 91.7c-.4-.4-.7-.9-.7-1.6 0-.7.2-1.2.7-1.6.4-.4 1-.6 1.8-.6.7 0 1.3.2 1.8.6.4.4.7.9.7 1.6 0 .7-.2 1.2-.7 1.6-.4.4-1 .6-1.8.6-.7 0-1.3-.2-1.8-.6zm.3 16.9c-.4-.3-.6-.9-.6-1.5V96.6c0-.7.2-1.2.6-1.5.4-.3.9-.5 1.5-.5s1.1.2 1.5.5c.4.3.6.9.6 1.5V107c0 .7-.2 1.2-.6 1.5-.4.3-.9.5-1.5.5-.6.1-1.1-.1-1.5-.4z"/><path d="M38.7 96c.8 1 1.2 2.5 1.2 4.5v6.6c0 .6-.2 1.1-.6 1.5-.4.4-.9.5-1.6.5-.7 0-1.2-.2-1.6-.5-.4-.4-.6-.9-.6-1.5v-6.4c0-1-.2-1.7-.5-2.1-.4-.4-.9-.7-1.6-.7-.9 0-1.6.3-2.2.9-.5.6-.8 1.3-.8 2.3v6c0 .6-.2 1.1-.6 1.5-.4.4-.9.5-1.6.5-.7 0-1.2-.2-1.6-.5-.4-.4-.6-.9-.6-1.5V96.5c0-.6.2-1.1.6-1.4.4-.4.9-.5 1.6-.5.6 0 1.1.2 1.4.5.4.4.6.8.6 1.4v.4c.5-.8 1.1-1.3 1.9-1.7.8-.4 1.7-.6 2.7-.6 1.8-.1 3 .4 3.9 1.4z"/><path d="M55.3 105.2c.2.3.4.7.4 1.2 0 .3-.1.6-.3.9-.2.3-.5.5-.8.7-.6.3-1.4.6-2.3.8-.9.2-1.7.3-2.4.3-1.5 0-2.9-.3-4-.9-1.1-.6-2-1.4-2.6-2.5-.6-1.1-.9-2.4-.9-3.9 0-1.4.3-2.7.9-3.8.6-1.1 1.4-2 2.5-2.6 1-.6 2.2-.9 3.6-.9 1.3 0 2.4.3 3.4.8 1 .6 1.7 1.4 2.2 2.4.5 1 .8 2.3.8 3.7 0 .4-.1.7-.3 1s-.5.3-.8.3h-8c.1 1.1.5 1.9 1 2.4.6.5 1.3.8 2.4.8.6 0 1-.1 1.5-.2.4-.1.9-.3 1.5-.5.3-.1.5-.2.8-.3.2-.1.5-.1.7-.1.2-.1.5.1.7.4zm-7.8-6.9c-.5.5-.8 1.3-.9 2.3h5.5c-.1-1-.3-1.8-.8-2.3-.4-.5-1.1-.8-1.9-.8-.7 0-1.4.2-1.9.8z"/><path d="M59.3 108.5c-.4-.4-.6-.9-.6-1.6V90.8c0-.7.2-1.2.6-1.6s.9-.6 1.6-.6c.7 0 1.2.2 1.6.6s.6.9.6 1.6v16.1c0 .7-.2 1.2-.6 1.6s-.9.6-1.6.6c-.6 0-1.2-.2-1.6-.6z"/><path d="M69.5 108.2c-1.1-.6-1.9-1.4-2.5-2.5-.6-1.1-.9-2.4-.9-3.8 0-1.5.3-2.8.9-3.9.6-1.1 1.5-2 2.6-2.6 1.1-.6 2.4-.9 3.9-.9.8 0 1.5.1 2.3.3.8.2 1.5.5 2.1.9.6.4.9.9.9 1.6 0 .5-.1.9-.3 1.2-.2.3-.5.5-.9.5-.2 0-.5 0-.7-.1s-.5-.2-.9-.4-.8-.4-1.1-.5c-.3-.1-.7-.2-1.1-.2-1.1 0-1.9.3-2.4 1-.6.7-.8 1.7-.8 3s.3 2.3.8 3c.6.7 1.4 1 2.4 1 .4 0 .8-.1 1.1-.2.3-.1.7-.3 1.1-.5.4-.2.6-.3.9-.4.2-.1.4-.1.7-.1.4 0 .7.2.9.5s.4.7.4 1.2c0 .7-.3 1.2-.9 1.6-.6.4-1.3.7-2.1.9-.8.2-1.6.3-2.5.3-1.5 0-2.8-.3-3.9-.9z"/><path d="M83.8 108.2c-1.1-.6-2-1.4-2.6-2.5-.6-1.1-.9-2.4-.9-3.9s.3-2.8.9-3.9c.6-1.1 1.5-1.9 2.6-2.5s2.4-.9 3.9-.9 2.8.3 3.9.9c1.1.6 2 1.4 2.6 2.5.6 1.1.9 2.4.9 3.9s-.3 2.8-.9 3.9c-.6 1.1-1.5 1.9-2.6 2.5-1.1.6-2.4.9-3.9.9-1.4 0-2.7-.3-3.9-.9zm7.1-6.4c0-1.4-.3-2.4-.8-3-.5-.7-1.3-1-2.3-1-2.1 0-3.1 1.3-3.1 4s1 4 3.1 4c2 0 3.1-1.3 3.1-4z"/><path d="M110.4 96c.8 1 1.2 2.5 1.2 4.5v6.6c0 .6-.2 1.1-.6 1.5-.4.4-.9.5-1.6.5-.7 0-1.2-.2-1.6-.5-.4-.4-.6-.9-.6-1.5v-6.4c0-1-.2-1.7-.5-2.1-.4-.4-.9-.7-1.6-.7-.9 0-1.6.3-2.2.9-.5.6-.8 1.3-.8 2.3v6c0 .6-.2 1.1-.6 1.5-.4.4-.9.5-1.6.5-.7 0-1.2-.2-1.6-.5-.4-.4-.6-.9-.6-1.5V96.5c0-.6.2-1.1.6-1.4.4-.4.9-.5 1.6-.5.6 0 1.1.2 1.4.5.4.4.6.8.6 1.4v.4c.5-.8 1.1-1.3 1.9-1.7s1.7-.6 2.7-.6c1.8-.1 3.1.4 3.9 1.4z"/><path d="M117.1 108.8c-.9-.2-1.6-.5-2.3-.9-.3-.2-.5-.4-.7-.7-.2-.3-.2-.6-.2-1s.1-.8.4-1.1c.2-.3.6-.4.9-.4.2 0 .5 0 .7.1.2.1.5.2.8.3.5.2 1.1.4 1.6.6.5.1 1.2.2 1.9.2s1.2-.1 1.6-.3.6-.5.6-.9c0-.3-.1-.5-.2-.6-.2-.2-.5-.3-.9-.4-.4-.1-1.1-.3-2.1-.5-1.7-.3-2.9-.8-3.7-1.5-.7-.6-1.1-1.6-1.1-2.7 0-.9.3-1.6.8-2.3s1.2-1.2 2.2-1.6c.9-.4 1.9-.6 3.1-.6.8 0 1.6.1 2.4.3.8.2 1.5.5 2.1.9.6.4.9.9.9 1.6 0 .5-.1.8-.4 1.1-.2.3-.6.5-.9.5-.4 0-1-.2-1.6-.5-.5-.2-.9-.4-1.3-.6-.4-.1-.9-.2-1.4-.2-.6 0-1.1.1-1.4.3-.3.2-.5.5-.5.9s.2.7.6.9c.4.2 1.2.4 2.3.6 1.3.2 2.3.5 3 .9.7.4 1.3.8 1.6 1.3.3.5.5 1.2.5 2 0 1.4-.6 2.4-1.7 3.2-1.1.8-2.6 1.2-4.5 1.2-1.2.2-2.2.1-3.1-.1z"/></g></svg>